<svg xmlns="http://www.w3.org/2000/svg" width="666" height="498" viewBox="0 0 666 498">
    <g fill="none" fill-rule="evenodd">
        <g fill-rule="nonzero">
            <g>
                <path fill="#E4F0F8" d="M619.034 497.545l45.236-181.85c1.312-5.27 1.161-10.8-.443-15.995L587.455 51.97c-3.602-11.691-13.98-19.997-26.174-20.958L172.481.432c-9.126-.719-18.079 2.791-24.283 9.525L8.024 162.086c-5.81 6.307-8.629 14.812-7.732 23.339l32.805 312.12h585.937z" transform="translate(-284 -264) translate(284 264)"/>
                <path fill="#DADDDF" d="M414.531 165.133L384.21 165.133 384.21 497.075 414.531 497.075z" transform="translate(-284 -264) translate(284 264)"/>
                <path fill="#B2B6BB" d="M452.083 401.544L400.61 401.544 400.61 459.065 452.083 459.065z" transform="translate(-284 -264) translate(284 264)"/>
                <path fill="#858990" d="M442.379 401.544L463.887 401.544 463.887 407.101 463.088 407.101 463.088 459.065 443.977 459.065 443.977 407.101 442.379 407.101z" transform="translate(-284 -264) translate(284 264)"/>
                <path fill="#B2B6BB" d="M442.125 401.544L399.368 401.544 399.368 407.101 442.125 407.101z" transform="translate(-284 -264) translate(284 264)"/>
                <path fill="#858990" d="M400.61 407.814L446.326 407.814 450.932 407.101 400.61 407.101z" transform="translate(-284 -264) translate(284 264)"/>
                <path fill="#DADDDF" d="M558.738 215.266L489.316 215.266 489.316 272.787 558.738 272.787z" transform="translate(-284 -264) translate(284 264)"/>
                <path fill="#B2B6BB" d="M544.039 215.266L559.953 215.266 559.953 220.823 558.738 220.823 558.738 272.787 546.458 272.787 546.458 220.823 544.039 220.823z" transform="translate(-284 -264) translate(284 264)"/>
                <path fill="#B2B6BB" d="M545.621 215.266L487.485 215.266 487.485 220.823 545.621 220.823z" transform="translate(-284 -264) translate(284 264)"/>
                <path fill="#B2B6BB" d="M550.8 220.822L489.316 220.822 489.316 221.535 550.8 221.535z" transform="translate(-284 -264) translate(284 264)"/>
                <path fill="#FFF" d="M573.745 165.133L380.797 165.133 380.797 172.023 566.919 172.023 566.919 272.96 380.797 272.96 380.797 280.52 566.919 280.52 566.919 497.075 573.745 497.075z" transform="translate(-284 -264) translate(284 264)"/>
                <path fill="#DADDDF" d="M604.066 165.133L573.745 165.133 573.745 497.075 604.066 497.075z" transform="translate(-284 -264) translate(284 264)"/>
                <path fill="#FFF" d="M384.21 497.07L384.21 165.126 377.384 165.126 377.384 497.07z" transform="translate(-284 -264) translate(284 264)"/>
                <path fill="#FFF" d="M569.624 459.064L382.099 459.064 382.099 466.625 569.624 466.625z" transform="translate(-284 -264) translate(284 264)"/>
                <path fill="#DADDDF" d="M558.662 366.331L460.399 366.331 460.399 459.065 558.662 459.065z" transform="translate(-284 -264) translate(284 264)"/>
                <path fill="#B2B6BB" d="M543.024 366.331L559.953 366.331 559.953 375.29 558.662 375.29 558.662 459.065 545.594 459.065 545.594 375.29 543.024 375.29z" transform="translate(-284 -264) translate(284 264)"/>
                <path fill="#DADDDF" d="M542.608 366.331L458.449 366.331 458.449 375.29 542.608 375.29z" transform="translate(-284 -264) translate(284 264)"/>
                <path fill="#B2B6BB" d="M550.217 375.289L460.399 375.289 460.399 376.439 550.217 376.439z" transform="translate(-284 -264) translate(284 264)"/>
                <path fill="#364361" d="M123.466 490.244c3.078 0 5.572 2.495 5.572 5.573 0 .67-.54 1.21-1.21 1.21h-8.91c-1.009 0-1.922-.594-2.332-1.518l-11.637-26.082 13.02-15.103c-.195.718 5.497 35.92 5.497 35.92zM59.06 468.796h22.075l-8.872 8.532c-1.285 1.236-1.863 3.045-1.523 4.8l1.56 8.122c2.933 0 5.309 2.376 5.309 5.308v.265c0 .67-.54 1.21-1.21 1.21H68.31c-.972 0-1.858-.552-2.284-1.421l-7.587-15.395c-1.01-2.047-1.242-4.39-.659-6.6l1.28-4.821z" transform="translate(-284 -264) translate(284 264)"/>
                <path fill="#868A91" d="M47.04 451.365c-4.655-1.415-13.285-6.404-17.259-11.502-.313-.4-.302-.961.022-1.35.334-.41.918-.518 1.382-.254 35.03 19.764 71.026-3.65 71.026-3.65.502-2.765 2.203-5.163 4.65-6.545 4.919-2.776 10.924-2.786 15.849-.027 1.711.961 3.747 1.15 5.6.491l5.464-1.933c.961-.34 1.982.303 2.095 1.318l.173 1.604c.524 4.816-1.145 9.612-4.547 13.062l-23.5 23.819c-2.652 2.69-3.878 6.47-3.305 10.2l2.095 13.69c3.078 0 5.573 2.494 5.573 5.572 0 .67-.54 1.21-1.21 1.21h-8.91c-1.01 0-1.922-.594-2.333-1.517l-11.842-26.72H64.611l-8.872 8.532c-1.285 1.237-1.863 3.046-1.523 4.801l1.56 8.122c2.933 0 5.309 2.376 5.309 5.308 0 .815-.659 1.474-1.474 1.474h-7.825c-.972 0-1.858-.55-2.284-1.42l-7.587-15.396c-1.01-2.046-1.242-4.39-.659-6.598l5.783-22.291z" transform="translate(-284 -264) translate(284 264)"/>
                <path fill="#364361" d="M119.545 431.945c.438-.437.276-1.306-.362-1.938-.637-.632-1.5-.794-1.938-.357-.438.438-.276 1.307.356 1.94.637.63 1.507.793 1.944.355zM52.294 462.872c0 4.72-3.829 8.548-8.549 8.548-.637 0-1.258-.07-1.857-.205l4.287-16.535c3.543 1.048 6.119 4.32 6.119 8.192zM89.564 472.225l1.534-.616c2.063-.826 4.417-.33 5.967 1.258 1.296 1.329 1.836 3.219 1.431 5.028l-.28 1.263c-.222 1-.163 2.047.177 3.013l.12.335c.847 2.409.361 5.082-1.28 7.042l-7.669-17.323zM99.954 435.936l-1.507 9.175c-.847 5.167-5.421 8.52-10.076 7.392l-4.315-1.047c-.977-.238-1.981-.265-2.97-.076l-9.25 1.766c-4.514.864-9.05-1.372-11.48-5.654l-.762-1.34c18.879.584 34.685-7.062 40.36-10.216zM41.332 442.832c-.88.659-1.966 1.053-3.149 1.053-2.705 0-4.935-2.041-5.232-4.671 2.797 1.469 5.6 2.657 8.38 3.618z" transform="translate(-284 -264) translate(284 264)"/>
                <path fill="#B2B6BB" d="M124.124 438.96c1.232-1.7 1.76-3.806 1.49-5.885l-.555-4.234c1.08.162 2.197.065 3.25-.308l5.465-1.933c.961-.34 1.982.302 2.095 1.318l.173 1.603c.524 4.817-1.145 9.618-4.547 13.063l-6.895 6.993-1.016-1.841c-1.533-2.787-1.323-6.2.54-8.775z" transform="translate(-284 -264) translate(284 264)"/>
                <path fill="#364361" d="M103.27 436.174l-4.266 10.752c-1.07 2.538-.044 5.88 2.257 7.403 2.7 1.782 6.35 1.895 9.925-1.539 4.838-4.65 2.835-14.974.351-18.949M64.611 468.839L69.298 463.703 65.378 472.3zM130.432 427.739l3.272-1.156c.999-.35 2.068.319 2.182 1.372l.253 2.316c-.4.103-.815.162-1.242.162-1.938-.005-3.618-1.096-4.465-2.694z" transform="translate(-284 -264) translate(284 264)"/>
                <path fill="#868A91" d="M103.68 435.137l-4.471 11.135c-.675 1.609-.087 3.466 1.398 4.384 2.22 1.377 5.757 2.339 9.634-1.387 4.11-3.953 3.537-12.35.853-16.13" transform="translate(-284 -264) translate(284 264)"/>
                <path fill="#364361" d="M104.598 452.168c-1.604 0-3.019-.577-4.142-1.274-1.609-.999-2.246-2.992-1.506-4.736l4.47-11.13c.06-.145.222-.215.368-.156.146.06.216.222.157.367l-4.472 11.135c-.626 1.49-.086 3.192 1.286 4.045 2.187 1.355 5.572 2.225 9.293-1.35 4.077-3.915 3.305-12.264.815-15.763-.091-.124-.059-.302.065-.394.124-.092.303-.06.394.065 2.663 3.742 3.462 12.317-.885 16.491-2.09 2.004-4.077 2.7-5.843 2.7z" transform="translate(-284 -264) translate(284 264)"/>
                <path fill="#B2B6BB" d="M88.063 468.839s-4.995-5.88-18.765-5.136l-2.343 5.136h21.108z" transform="translate(-284 -264) translate(284 264)"/>
                <path fill="#364361" d="M47.38 449.917l-.34 1.447s-3.548-1.112-6.67-3.04l7.01 1.593zM131.188 436.078c-.627 0-1.307-.098-2.042-.297-.15-.044-.237-.195-.2-.346.044-.151.2-.238.346-.2 1.858.508 3.316.324 4.342-.54 2.149-1.809 1.787-6.032 1.782-6.075-.016-.156.097-.291.254-.308.156-.021.291.098.307.254.017.184.395 4.563-1.981 6.556-.751.637-1.696.956-2.808.956z" transform="translate(-284 -264) translate(284 264)"/>
                <path fill="#203B95" d="M519.988 391.878H142.976c-5.125 0-9.277-4.153-9.277-9.277V102.022c0-5.124 4.152-9.277 9.277-9.277h377.012c5.124 0 9.277 4.153 9.277 9.277v280.579c-.006 5.124-4.158 9.277-9.277 9.277z" transform="translate(-284 -264) translate(284 264)"/>
                <path fill="#FFF" d="M519.988 391.878H142.976c-5.125 0-9.277-4.153-9.277-9.277V102.022c0-5.124 4.152-9.277 9.277-9.277h377.012c5.124 0 9.277 4.153 9.277 9.277v280.579c-.006 5.124-4.158 9.277-9.277 9.277z" opacity=".6" transform="translate(-284 -264) translate(284 264)"/>
                <path fill="#FFF" d="M515.522 391.878H138.51c-5.125 0-9.277-4.153-9.277-9.277V102.022c0-5.124 4.152-9.277 9.277-9.277h377.012c5.124 0 9.277 4.153 9.277 9.277v280.579c0 5.124-4.158 9.277-9.277 9.277z" transform="translate(-284 -264) translate(284 264)"/>
                <path fill="#203B95" d="M160.04 391.878h-21.53c-5.125 0-9.277-4.153-9.277-9.277V102.022c0-5.124 4.152-9.277 9.277-9.277h21.524v299.133h.006z" transform="translate(-284 -264) translate(284 264)"/>
                <path fill="#FFF" d="M151.022 110.711H138.25c-1 0-1.815-.81-1.815-1.814 0-1 .81-1.814 1.815-1.814h12.77c1 0 1.815.81 1.815 1.814s-.815 1.814-1.814 1.814zM147.987 142.765h-6.707c-.875 0-1.582-.707-1.582-1.582v-6.707c0-.875.707-1.582 1.582-1.582h6.707c.875 0 1.582.707 1.582 1.582v6.707c0 .87-.707 1.582-1.582 1.582z" transform="translate(-284 -264) translate(284 264)"/>
                <path fill="#203B95" d="M147.987 174.798h-6.707c-.875 0-1.582-.707-1.582-1.582v-6.707c0-.875.707-1.582 1.582-1.582h6.707c.875 0 1.582.707 1.582 1.582v6.707c0 .875-.707 1.582-1.582 1.582zM147.987 206.83h-6.707c-.875 0-1.582-.707-1.582-1.581v-6.707c0-.875.707-1.582 1.582-1.582h6.707c.875 0 1.582.707 1.582 1.582v6.707c0 .874-.707 1.582-1.582 1.582zM147.987 238.864h-6.707c-.875 0-1.582-.708-1.582-1.583v-6.701c0-.875.707-1.582 1.582-1.582h6.707c.875 0 1.582.707 1.582 1.582v6.707c0 .87-.707 1.577-1.582 1.577z" transform="translate(-284 -264) translate(284 264)"/>
                <path fill="#FFF" d="M147.987 174.798h-6.707c-.875 0-1.582-.707-1.582-1.582v-6.707c0-.875.707-1.582 1.582-1.582h6.707c.875 0 1.582.707 1.582 1.582v6.707c0 .875-.707 1.582-1.582 1.582zM147.987 206.83h-6.707c-.875 0-1.582-.707-1.582-1.581v-6.707c0-.875.707-1.582 1.582-1.582h6.707c.875 0 1.582.707 1.582 1.582v6.707c0 .874-.707 1.582-1.582 1.582zM147.987 238.864h-6.707c-.875 0-1.582-.708-1.582-1.583v-6.701c0-.875.707-1.582 1.582-1.582h6.707c.875 0 1.582.707 1.582 1.582v6.707c0 .87-.707 1.577-1.582 1.577z" opacity=".4" transform="translate(-284 -264) translate(284 264)"/>
                <path fill="#868A91" d="M209.347 111.871h-37.12c-1.733 0-3.142-1.404-3.142-3.143 0-1.733 1.404-3.142 3.143-3.142h37.12c1.733 0 3.142 1.404 3.142 3.142 0 1.734-1.41 3.143-3.143 3.143z" transform="translate(-284 -264) translate(284 264)"/>
                <path fill="#203B95" d="M512.174 114.81h-32.778c-1.026 0-1.858-.832-1.858-1.858V104.5c0-1.026.832-1.858 1.858-1.858h32.778c1.026 0 1.857.832 1.857 1.858v8.45c0 1.027-.831 1.858-1.857 1.858zM465.696 115.08h-32.778c-1.172 0-2.128-.956-2.128-2.128V104.5c0-1.172.956-2.128 2.128-2.128h32.778c1.172 0 2.128.956 2.128 2.128v8.45c0 1.173-.956 2.128-2.128 2.128zm-32.778-12.161c-.875 0-1.588.712-1.588 1.587v8.451c0 .875.713 1.588 1.588 1.588h32.778c.875 0 1.588-.713 1.588-1.588v-8.45c0-.876-.713-1.588-1.588-1.588h-32.778z" transform="translate(-284 -264) translate(284 264)"/>
                <path fill="#FFF" d="M144.639 377.725c-4.693 0-8.5-3.807-8.5-8.5s3.807-8.5 8.5-8.5 8.5 3.807 8.5 8.5c-.006 4.693-3.807 8.5-8.5 8.5z" transform="translate(-284 -264) translate(284 264)"/>
                <path fill="#203B95" d="M144.639 369.473c-1.269 0-2.327-.967-2.44-2.225l-.163-1.766c-.135-1.436 1-2.678 2.441-2.678h.33c1.447 0 2.575 1.242 2.44 2.678l-.162 1.766c-.124 1.258-1.182 2.225-2.446 2.225zM151.832 373.745c-.34.54-.74 1.042-1.188 1.49-1.54 1.534-3.661 2.49-6.01 2.49-3.035 0-5.692-1.588-7.199-3.98.416-1.89 2.106-3.305 4.12-3.305h6.157c2.02 0 3.704 1.415 4.12 3.305z" transform="translate(-284 -264) translate(284 264)"/>
                <g fill="#FFF" opacity=".4">
                    <path d="M7.479 7.133c-1.269 0-2.327-.967-2.44-2.225l-.163-1.766c-.135-1.436 1-2.678 2.441-2.678h.33c1.447 0 2.575 1.242 2.44 2.678l-.162 1.766C9.801 6.166 8.743 7.133 7.48 7.133zM14.672 11.405c-.34.54-.74 1.042-1.188 1.49-1.54 1.534-3.661 2.49-6.01 2.49-3.035 0-5.692-1.588-7.199-3.98C.691 9.515 2.381 8.1 4.395 8.1h6.157c2.02 0 3.704 1.415 4.12 3.305z" transform="translate(-284 -264) translate(284 264) translate(137.16 362.34)"/>
                </g>
                <path fill="#203B95" d="M274.38 189.859H173.933c-2.678 0-4.855-2.171-4.855-4.855v-53.125c0-2.679 2.171-4.855 4.855-4.855h100.445c2.679 0 4.855 2.171 4.855 4.855v53.125c0 2.678-2.17 4.855-4.855 4.855z" transform="translate(-284 -264) translate(284 264)"/>
                <path fill="#FFF" d="M274.38 189.859H173.933c-2.678 0-4.855-2.171-4.855-4.855v-53.125c0-2.679 2.171-4.855 4.855-4.855h100.445c2.679 0 4.855 2.171 4.855 4.855v53.125c0 2.678-2.17 4.855-4.855 4.855z" opacity=".5" transform="translate(-284 -264) translate(284 264)"/>
                <path fill="#FFF" d="M245.603 175.074H183.67c-1.339 0-2.424-1.085-2.424-2.425v-7.565c0-1.34 1.085-2.425 2.424-2.425h61.933c1.339 0 2.424 1.086 2.424 2.425v7.565c0 1.34-1.085 2.425-2.424 2.425z" transform="translate(-284 -264) translate(284 264)"/>
                <path fill="#203B95" d="M258.935 150.579h-50.679c-1.171 0-2.122-.95-2.122-2.122s.95-2.122 2.122-2.122h50.68c1.171 0 2.122.95 2.122 2.122s-.95 2.122-2.123 2.122z" transform="translate(-284 -264) translate(284 264)"/>
                <path fill="#FFF" d="M258.935 150.579h-50.679c-1.171 0-2.122-.95-2.122-2.122s.95-2.122 2.122-2.122h50.68c1.171 0 2.122.95 2.122 2.122s-.95 2.122-2.123 2.122z" opacity=".3" transform="translate(-284 -264) translate(284 264)"/>
                <path fill="#203B95" d="M189.913 157.123c4.784 0 8.667-3.882 8.667-8.667 0-4.784-3.883-8.667-8.667-8.667-4.785 0-8.667 3.883-8.667 8.667 0 4.79 3.882 8.667 8.667 8.667z" transform="translate(-284 -264) translate(284 264)"/>
                <path fill="#FFF" d="M189.913 157.123c4.784 0 8.667-3.882 8.667-8.667 0-4.784-3.883-8.667-8.667-8.667-4.785 0-8.667 3.883-8.667 8.667 0 4.79 3.882 8.667 8.667 8.667z" opacity=".3" transform="translate(-284 -264) translate(284 264)"/>
                <path fill="#203B95" d="M391.738 189.858H291.48c-2.673 0-4.844-2.17-4.844-4.844v-53.028c0-2.673 2.171-4.844 4.844-4.844h100.257c2.673 0 4.843 2.171 4.843 4.844v53.028c0 2.673-2.17 4.844-4.843 4.844z" transform="translate(-284 -264) translate(284 264)"/>
                <path fill="#FFF" d="M363.01 175.1h-61.814c-1.34 0-2.42-1.085-2.42-2.419v-7.549c0-1.34 1.086-2.42 2.42-2.42h61.814c1.339 0 2.419 1.086 2.419 2.42v7.55c.005 1.333-1.08 2.418-2.42 2.418z" transform="translate(-284 -264) translate(284 264)"/>
                <path fill="#203B95" d="M376.32 150.655H325.74c-1.172 0-2.117-.95-2.117-2.117 0-1.172.95-2.117 2.117-2.117h50.582c1.171 0 2.116.95 2.116 2.117 0 1.166-.95 2.117-2.116 2.117z" transform="translate(-284 -264) translate(284 264)"/>
                <path fill="#FFF" d="M376.32 150.655H325.74c-1.172 0-2.117-.95-2.117-2.117 0-1.172.95-2.117 2.117-2.117h50.582c1.171 0 2.116.95 2.116 2.117 0 1.166-.95 2.117-2.116 2.117z" opacity=".3" transform="translate(-284 -264) translate(284 264)"/>
                <path fill="#203B95" d="M307.427 157.19c4.78 0 8.651-3.873 8.651-8.652 0-4.779-3.872-8.65-8.65-8.65-4.78 0-8.651 3.871-8.651 8.65 0 4.78 3.871 8.651 8.65 8.651z" transform="translate(-284 -264) translate(284 264)"/>
                <path fill="#FFF" d="M307.427 157.19c4.78 0 8.651-3.873 8.651-8.652 0-4.779-3.872-8.65-8.65-8.65-4.78 0-8.651 3.871-8.651 8.65 0 4.78 3.871 8.651 8.65 8.651z" opacity=".3" transform="translate(-284 -264) translate(284 264)"/>
                <path fill="#B2B6BB" d="M509.188 189.858H408.93c-2.673 0-4.844-2.17-4.844-4.844v-53.028c0-2.673 2.171-4.844 4.844-4.844h100.257c2.673 0 4.843 2.171 4.843 4.844v53.028c0 2.673-2.17 4.844-4.843 4.844z" transform="translate(-284 -264) translate(284 264)"/>
                <path fill="#FFF" d="M480.46 175.1h-61.814c-1.34 0-2.42-1.085-2.42-2.419v-7.549c0-1.34 1.086-2.42 2.42-2.42h61.814c1.339 0 2.419 1.086 2.419 2.42v7.55c.005 1.333-1.08 2.418-2.42 2.418z" transform="translate(-284 -264) translate(284 264)"/>
                <path fill="#203B95" d="M493.77 150.655H443.19c-1.172 0-2.117-.95-2.117-2.117 0-1.172.95-2.117 2.117-2.117h50.582c1.171 0 2.116.95 2.116 2.117 0 1.166-.95 2.117-2.116 2.117z" transform="translate(-284 -264) translate(284 264)"/>
                <path fill="#868A91" d="M493.77 150.655H443.19c-1.172 0-2.117-.95-2.117-2.117 0-1.172.95-2.117 2.117-2.117h50.582c1.171 0 2.116.95 2.116 2.117 0 1.166-.95 2.117-2.116 2.117zM424.877 157.19c4.78 0 8.651-3.873 8.651-8.652 0-4.779-3.872-8.65-8.65-8.65-4.78 0-8.651 3.871-8.651 8.65 0 4.78 3.871 8.651 8.65 8.651z" transform="translate(-284 -264) translate(284 264)"/>
                <path fill="#203B95" d="M509.188 336.884H408.93c-2.673 0-4.844-2.17-4.844-4.843V202.117c0-2.673 2.171-4.844 4.844-4.844h100.257c2.673 0 4.843 2.17 4.843 4.844V332.04c0 2.678-2.17 4.843-4.843 4.843z" transform="translate(-284 -264) translate(284 264)"/>
                <path fill="#FFF" d="M509.188 336.884H408.93c-2.673 0-4.844-2.17-4.844-4.843V202.117c0-2.673 2.171-4.844 4.844-4.844h100.257c2.673 0 4.843 2.17 4.843 4.844V332.04c0 2.678-2.17 4.843-4.843 4.843z" opacity=".85" transform="translate(-284 -264) translate(284 264)"/>
                <path fill="#203B95" d="M484.094 231.757l-.497-.535-9.31 8.689.497.534c3.737 3.996 5.794 9.207 5.794 14.688 0 11.864-9.655 21.52-21.519 21.52-5.032 0-9.925-1.772-13.775-4.985l-.562-.47-8.143 9.78.562.47c6.134 5.119 13.916 7.937 21.924 7.937 18.889 0 34.257-15.363 34.257-34.252-.005-8.71-3.283-17.015-9.228-23.376z" transform="translate(-284 -264) translate(284 264)"/>
                <path fill="#FFF" d="M484.094 231.757l-.497-.535-9.31 8.689.497.534c3.737 3.996 5.794 9.207 5.794 14.688 0 11.864-9.655 21.52-21.519 21.52-5.032 0-9.925-1.772-13.775-4.985l-.562-.47-8.143 9.78.562.47c6.134 5.119 13.916 7.937 21.924 7.937 18.889 0 34.257-15.363 34.257-34.252-.005-8.71-3.283-17.015-9.228-23.376z" opacity=".5" transform="translate(-284 -264) translate(284 264)"/>
                <path fill="#203B95" d="M484.094 231.757c-4.131-4.428-9.337-7.668-15.093-9.407l.005-.01-.702-.2c-.005 0-.01 0-.016-.006l-.691-.194-.006.01c-2.77-.712-5.637-1.08-8.537-1.08-8.905 0-17.345 3.403-23.755 9.58l-.523.508 8.829 9.17.523-.508c4.029-3.883 9.332-6.017 14.926-6.017 1.966 0 3.92.266 5.81.79 3.797 1.069 7.226 3.158 9.92 6.047l.497.535 9.31-8.69-.497-.528z" transform="translate(-284 -264) translate(284 264)"/>
                <path fill="#BABABA" d="M445.279 271.669c-4.92-4.11-7.744-10.136-7.744-16.535 0-5.902 2.344-11.41 6.593-15.509l.524-.508-8.829-9.169-.524.508c-6.771 6.512-10.503 15.276-10.503 24.672 0 10.196 4.493 19.786 12.334 26.315l.562.47 8.143-9.78-.556-.464z" transform="translate(-284 -264) translate(284 264)"/>
                <path fill="#203B95" d="M467.019 260.167h-15.925c-1.512 0-2.737-1.226-2.737-2.738v-4.595c0-1.512 1.225-2.738 2.737-2.738h15.925c1.512 0 2.738 1.226 2.738 2.738v4.595c.005 1.512-1.226 2.738-2.738 2.738z" transform="translate(-284 -264) translate(284 264)"/>
                <path fill="#FFF" d="M467.019 260.167h-15.925c-1.512 0-2.737-1.226-2.737-2.738v-4.595c0-1.512 1.225-2.738 2.737-2.738h15.925c1.512 0 2.738 1.226 2.738 2.738v4.595c.005 1.512-1.226 2.738-2.738 2.738z" opacity=".4" transform="translate(-284 -264) translate(284 264)"/>
                <path fill="#203B95" d="M250.09 380.754H175.35c-1.28 0-2.317-1.037-2.317-2.317V346.47c0-1.28 1.037-2.316 2.317-2.316h74.747c1.28 0 2.316 1.037 2.316 2.316v31.968c0 1.28-1.037 2.317-2.322 2.317zM337.3 380.754h-74.747c-1.28 0-2.316-1.037-2.316-2.317V346.47c0-1.28 1.037-2.316 2.316-2.316H337.3c1.28 0 2.317 1.037 2.317 2.316v31.968c0 1.28-1.037 2.317-2.317 2.317zM424.505 380.754h-74.747c-1.28 0-2.317-1.037-2.317-2.317V346.47c0-1.28 1.037-2.316 2.317-2.316h74.747c1.28 0 2.316 1.037 2.316 2.316v31.968c0 1.28-1.036 2.317-2.316 2.317zM511.71 380.754h-74.747c-1.28 0-2.317-1.037-2.317-2.317V346.47c0-1.28 1.037-2.316 2.317-2.316h74.746c1.28 0 2.317 1.037 2.317 2.316v31.968c.005 1.28-1.037 2.317-2.317 2.317z" transform="translate(-284 -264) translate(284 264)"/>
                <g fill="#FFF" opacity=".85">
                    <path d="M77.29 36.774H2.55c-1.28 0-2.317-1.037-2.317-2.317V2.49C.232 1.21 1.27.173 2.55.173h74.747c1.28 0 2.316 1.037 2.316 2.316v31.968c0 1.28-1.037 2.317-2.322 2.317z" transform="translate(-284 -264) translate(284 264) translate(172.8 343.98)"/>
                </g>
                <g fill="#FFF" opacity=".85">
                    <path d="M77.56 36.774H2.813c-1.28 0-2.316-1.037-2.316-2.317V2.49C.497 1.21 1.534.173 2.813.173H77.56c1.28 0 2.317 1.037 2.317 2.316v31.968c0 1.28-1.037 2.317-2.317 2.317z" transform="translate(-284 -264) translate(284 264) translate(259.74 343.98)"/>
                </g>
                <g fill="#FFF" opacity=".85">
                    <path d="M77.285 36.774H2.538c-1.28 0-2.317-1.037-2.317-2.317V2.49C.221 1.21 1.258.173 2.538.173h74.747c1.28 0 2.316 1.037 2.316 2.316v31.968c0 1.28-1.036 2.317-2.316 2.317z" transform="translate(-284 -264) translate(284 264) translate(347.22 343.98)"/>
                </g>
                <g fill="#FFF" opacity=".85">
                    <path d="M77.55 36.774H2.802c-1.28 0-2.317-1.037-2.317-2.317V2.49C.486 1.21 1.523.173 2.803.173h74.746c1.28 0 2.317 1.037 2.317 2.316v31.968c.005 1.28-1.037 2.317-2.317 2.317z" transform="translate(-284 -264) translate(284 264) translate(434.16 343.98)"/>
                </g>
                <path fill="#203B95" d="M391.678 336.852H175.403c-2.673 0-4.844-2.165-4.844-4.844V202.117c0-2.673 2.165-4.844 4.844-4.844h216.275c2.673 0 4.844 2.165 4.844 4.844v129.891c0 2.679-2.17 4.844-4.844 4.844z" transform="translate(-284 -264) translate(284 264)"/>
                <path fill="#FFF" d="M391.678 336.852H175.403c-2.673 0-4.844-2.165-4.844-4.844V202.117c0-2.673 2.165-4.844 4.844-4.844h216.275c2.673 0 4.844 2.165 4.844 4.844v129.891c0 2.679-2.17 4.844-4.844 4.844z" opacity=".85" transform="translate(-284 -264) translate(284 264)"/>
                <path fill="#203B95" d="M396.522 298.139L170.683 298.139 170.683 298.63 396.522 298.63zM396.522 260.486L170.683 260.486 170.683 260.977 396.522 260.977zM396.522 222.826L170.683 222.826 170.683 223.318 396.522 223.318z" opacity=".2" transform="translate(-284 -264) translate(284 264)"/>
                <path fill="#203B95" d="M170.683 279.515s31.952 11.913 54.702 0c22.75-11.912 47.299-39.096 80.698-10.832 27.783 23.512 40.98-28.264 59.394-28.264s31.05 34.944 31.05 34.944v56.651c0 2.673-2.165 4.844-4.843 4.844h-216.27c-2.679 0-4.85-2.176-4.844-4.85l.113-52.493z" opacity=".4" transform="translate(-284 -264) translate(284 264)"/>
                <path fill="#203B95" d="M200.993 285.299c-3.515 0-7.36-.249-11.561-.826-10.762-1.48-18.846-4.466-18.927-4.493l.346-.924c.08.027 8.078 2.981 18.738 4.445 9.806 1.344 23.932 1.674 35.564-4.418 4.25-2.224 8.5-4.946 13.003-7.83 19.138-12.252 40.83-26.141 68.24-2.943 5.249 4.44 10.174 6.383 15.066 5.946 9.077-.816 16.448-9.758 23.571-18.403 6.75-8.192 13.122-15.925 20.439-15.925 18.549 0 30.996 33.826 31.514 35.267l-.928.335c-.033-.086-3.208-8.796-8.581-17.388-8.905-14.24-16.88-17.226-22.005-17.226-6.847 0-13.079 7.56-19.678 15.568-7.252 8.802-14.752 17.907-24.246 18.76-5.162.464-10.33-1.555-15.79-6.178-11.998-10.157-23.9-13.959-36.379-11.626-11.027 2.058-21.022 8.457-30.688 14.65-4.52 2.895-8.791 5.627-13.074 7.874-5.032 2.619-13.03 5.335-24.624 5.335z" transform="translate(-284 -264) translate(284 264)"/>
                <path fill="#203B95" d="M283.338 258.326c.886 0 1.598-.713 1.598-1.599 0-.885-.712-1.598-1.598-1.598-.886 0-1.598.718-1.598 1.598 0 .88.718 1.599 1.598 1.599zM321.203 276.437c.885 0 1.598-.718 1.598-1.599 0-.885-.718-1.598-1.598-1.598-.88 0-1.599.718-1.599 1.598 0 .88.719 1.599 1.599 1.599zM366.25 242.017c.885 0 1.598-.718 1.598-1.598 0-.88-.718-1.599-1.598-1.599-.88 0-1.599.719-1.599 1.599s.713 1.598 1.599 1.598zM245.727 268.92c.886 0 1.598-.718 1.598-1.598 0-.88-.718-1.599-1.598-1.599-.88 0-1.598.718-1.598 1.599 0 .88.718 1.598 1.598 1.598zM208.224 285.994c.886 0 1.598-.713 1.598-1.598 0-.886-.718-1.599-1.598-1.599-.88 0-1.598.719-1.598 1.599s.718 1.598 1.598 1.598zM170.683 281.345c.886 0 1.599-.718 1.599-1.598 0-.88-.719-1.598-1.599-1.598s-1.598.712-1.598 1.598c0 .886.718 1.598 1.598 1.598zM396.522 276.437c.886 0 1.598-.718 1.598-1.599 0-.885-.718-1.598-1.598-1.598-.88 0-1.598.718-1.598 1.598 0 .88.712 1.599 1.598 1.599z" transform="translate(-284 -264) translate(284 264)"/>
                <path fill="#868A91" d="M248.006 211.702h-67.468c-1.733 0-3.143-1.404-3.143-3.143 0-1.734 1.404-3.143 3.143-3.143H248c1.734 0 3.143 1.404 3.143 3.143.006 1.739-1.404 3.143-3.137 3.143zM456.91 211.702h-42.282c-1.733 0-3.143-1.404-3.143-3.143 0-1.734 1.404-3.143 3.143-3.143h42.282c1.734 0 3.143 1.404 3.143 3.143 0 1.739-1.41 3.143-3.143 3.143z" transform="translate(-284 -264) translate(284 264)"/>
                <path fill="#203B95" d="M415.908 304.948h-3.515c-.908 0-1.647-.734-1.647-1.647v-3.515c0-.907.734-1.647 1.647-1.647h3.515c.907 0 1.647.734 1.647 1.647v3.515c0 .913-.74 1.647-1.647 1.647z" transform="translate(-284 -264) translate(284 264)"/>
                <path fill="#FFF" d="M415.908 304.948h-3.515c-.908 0-1.647-.734-1.647-1.647v-3.515c0-.907.734-1.647 1.647-1.647h3.515c.907 0 1.647.734 1.647 1.647v3.515c0 .913-.74 1.647-1.647 1.647z" opacity=".5" transform="translate(-284 -264) translate(284 264)"/>
                <path fill="#203B95" d="M415.908 317.6h-3.515c-.908 0-1.647-.734-1.647-1.647v-3.515c0-.907.734-1.647 1.647-1.647h3.515c.907 0 1.647.734 1.647 1.647v3.515c0 .913-.74 1.647-1.647 1.647z" transform="translate(-284 -264) translate(284 264)"/>
                <path fill="#BABABA" d="M415.908 330.254h-3.515c-.908 0-1.647-.735-1.647-1.647v-3.516c0-.907.734-1.647 1.647-1.647h3.515c.907 0 1.647.735 1.647 1.647v3.516c0 .912-.74 1.647-1.647 1.647z" transform="translate(-284 -264) translate(284 264)"/>
                <path fill="#203B95" d="M471.36 303.199h-47.298c-.913 0-1.652-.74-1.652-1.653 0-.912.74-1.652 1.652-1.652h47.299c.912 0 1.652.74 1.652 1.652.005.913-.734 1.653-1.652 1.653zM471.36 315.85h-47.298c-.913 0-1.652-.739-1.652-1.652 0-.912.74-1.652 1.652-1.652h47.299c.912 0 1.652.74 1.652 1.652.005.913-.734 1.653-1.652 1.653zM471.36 328.504h-47.298c-.913 0-1.652-.74-1.652-1.652 0-.913.74-1.653 1.652-1.653h47.299c.912 0 1.652.74 1.652 1.653.005.912-.734 1.652-1.652 1.652z" transform="translate(-284 -264) translate(284 264)"/>
                <path fill="#FFF" d="M471.36 303.199h-47.298c-.913 0-1.652-.74-1.652-1.653 0-.912.74-1.652 1.652-1.652h47.299c.912 0 1.652.74 1.652 1.652.005.913-.734 1.653-1.652 1.653zM471.36 315.85h-47.298c-.913 0-1.652-.739-1.652-1.652 0-.912.74-1.652 1.652-1.652h47.299c.912 0 1.652.74 1.652 1.652.005.913-.734 1.653-1.652 1.653zM471.36 328.504h-47.298c-.913 0-1.652-.74-1.652-1.652 0-.913.74-1.653 1.652-1.653h47.299c.912 0 1.652.74 1.652 1.653.005.912-.734 1.652-1.652 1.652z" opacity=".5" transform="translate(-284 -264) translate(284 264)"/>
                <path fill="#203B95" d="M505.72 303.199h-13.024c-.913 0-1.652-.74-1.652-1.653 0-.912.74-1.652 1.652-1.652h13.025c.912 0 1.652.74 1.652 1.652 0 .913-.74 1.653-1.652 1.653zM505.72 315.85h-13.024c-.913 0-1.652-.739-1.652-1.652 0-.912.74-1.652 1.652-1.652h13.025c.912 0 1.652.74 1.652 1.652 0 .913-.74 1.653-1.652 1.653zM505.72 328.504h-13.024c-.913 0-1.652-.74-1.652-1.652 0-.913.74-1.653 1.652-1.653h13.025c.912 0 1.652.74 1.652 1.653 0 .912-.74 1.652-1.652 1.652zM238.237 358.198H182.64c-.902 0-1.636-.735-1.636-1.637 0-.901.734-1.635 1.636-1.635h55.598c.902 0 1.636.734 1.636 1.635 0 .902-.729 1.637-1.636 1.637z" transform="translate(-284 -264) translate(284 264)"/>
                <path fill="#FFF" d="M203.915 373.453h-20.59c-1.28 0-2.317-1.037-2.317-2.316v-3.818c0-1.28 1.037-2.317 2.317-2.317h20.59c1.28 0 2.316 1.037 2.316 2.317v3.818c0 1.28-1.036 2.316-2.316 2.316z" opacity=".15" transform="translate(-284 -264) translate(284 264)"/>
                <path fill="#FFF" d="M238.237 358.198H182.64c-.902 0-1.636-.735-1.636-1.637 0-.901.734-1.635 1.636-1.635h55.598c.902 0 1.636.734 1.636 1.635 0 .902-.729 1.637-1.636 1.637z" opacity=".5" transform="translate(-284 -264) translate(284 264)"/>
                <path fill="#203B95" d="M327.726 358.198h-55.598c-.902 0-1.637-.735-1.637-1.637 0-.901.735-1.635 1.637-1.635h55.598c.902 0 1.636.734 1.636 1.635 0 .902-.734 1.637-1.636 1.637z" transform="translate(-284 -264) translate(284 264)"/>
                <path fill="#FFF" d="M293.398 373.453h-20.59c-1.28 0-2.317-1.037-2.317-2.316v-3.818c0-1.28 1.037-2.317 2.317-2.317h20.59c1.28 0 2.317 1.037 2.317 2.317v3.818c.005 1.28-1.037 2.316-2.317 2.316z" opacity=".15" transform="translate(-284 -264) translate(284 264)"/>
                <path fill="#FFF" d="M327.726 358.198h-55.598c-.902 0-1.637-.735-1.637-1.637 0-.901.735-1.635 1.637-1.635h55.598c.902 0 1.636.734 1.636 1.635 0 .902-.734 1.637-1.636 1.637z" opacity=".5" transform="translate(-284 -264) translate(284 264)"/>
                <path fill="#203B95" d="M415.465 358.198h-55.598c-.902 0-1.636-.735-1.636-1.637 0-.901.734-1.635 1.636-1.635h55.598c.902 0 1.636.734 1.636 1.635-.005.902-.734 1.637-1.636 1.637z" transform="translate(-284 -264) translate(284 264)"/>
                <path fill="#FFF" d="M381.137 373.453h-20.59c-1.28 0-2.316-1.037-2.316-2.316v-3.818c0-1.28 1.036-2.317 2.316-2.317h20.59c1.28 0 2.317 1.037 2.317 2.317v3.818c0 1.28-1.037 2.316-2.317 2.316z" opacity=".15" transform="translate(-284 -264) translate(284 264)"/>
                <path fill="#FFF" d="M415.465 358.198h-55.598c-.902 0-1.636-.735-1.636-1.637 0-.901.734-1.635 1.636-1.635h55.598c.902 0 1.636.734 1.636 1.635-.005.902-.734 1.637-1.636 1.637z" opacity=".5" transform="translate(-284 -264) translate(284 264)"/>
                <path fill="#203B95" d="M502.135 358.198h-55.598c-.902 0-1.636-.735-1.636-1.637 0-.901.734-1.635 1.636-1.635h55.598c.902 0 1.636.734 1.636 1.635 0 .902-.729 1.637-1.636 1.637zM467.813 373.453h-20.59c-1.28 0-2.317-1.037-2.317-2.316v-3.818c0-1.28 1.037-2.317 2.317-2.317h20.59c1.28 0 2.316 1.037 2.316 2.317v3.818c0 1.28-1.036 2.316-2.316 2.316zM203.915 373.453h-20.59c-1.28 0-2.317-1.037-2.317-2.316v-3.818c0-1.28 1.037-2.317 2.317-2.317h20.59c1.28 0 2.316 1.037 2.316 2.317v3.818c0 1.28-1.036 2.316-2.316 2.316zM293.398 373.453h-20.59c-1.28 0-2.317-1.037-2.317-2.316v-3.818c0-1.28 1.037-2.317 2.317-2.317h20.59c1.28 0 2.317 1.037 2.317 2.317v3.818c.005 1.28-1.037 2.316-2.317 2.316zM381.137 373.453h-20.59c-1.28 0-2.316-1.037-2.316-2.316v-3.818c0-1.28 1.036-2.317 2.316-2.317h20.59c1.28 0 2.317 1.037 2.317 2.317v3.818c0 1.28-1.037 2.316-2.317 2.316z" transform="translate(-284 -264) translate(284 264)"/>
                <path fill="#203B95" d="M467.813 373.453h-20.59c-1.28 0-2.317-1.037-2.317-2.316v-3.818c0-1.28 1.037-2.317 2.317-2.317h20.59c1.28 0 2.316 1.037 2.316 2.317v3.818c0 1.28-1.036 2.316-2.316 2.316z" transform="translate(-284 -264) translate(284 264)"/>
                <path fill="#FFF" d="M203.915 373.453h-20.59c-1.28 0-2.317-1.037-2.317-2.316v-3.818c0-1.28 1.037-2.317 2.317-2.317h20.59c1.28 0 2.316 1.037 2.316 2.317v3.818c0 1.28-1.036 2.316-2.316 2.316zM293.398 373.453h-20.59c-1.28 0-2.317-1.037-2.317-2.316v-3.818c0-1.28 1.037-2.317 2.317-2.317h20.59c1.28 0 2.317 1.037 2.317 2.317v3.818c.005 1.28-1.037 2.316-2.317 2.316zM381.137 373.453h-20.59c-1.28 0-2.316-1.037-2.316-2.316v-3.818c0-1.28 1.036-2.317 2.316-2.317h20.59c1.28 0 2.317 1.037 2.317 2.317v3.818c0 1.28-1.037 2.316-2.317 2.316z" opacity=".15" transform="translate(-284 -264) translate(284 264)"/>
                <path fill="#FFF" d="M203.915 373.453h-20.59c-1.28 0-2.317-1.037-2.317-2.316v-3.818c0-1.28 1.037-2.317 2.317-2.317h20.59c1.28 0 2.316 1.037 2.316 2.317v3.818c0 1.28-1.036 2.316-2.316 2.316zM293.398 373.453h-20.59c-1.28 0-2.317-1.037-2.317-2.316v-3.818c0-1.28 1.037-2.317 2.317-2.317h20.59c1.28 0 2.317 1.037 2.317 2.317v3.818c.005 1.28-1.037 2.316-2.317 2.316zM381.137 373.453h-20.59c-1.28 0-2.316-1.037-2.316-2.316v-3.818c0-1.28 1.036-2.317 2.316-2.317h20.59c1.28 0 2.317 1.037 2.317 2.317v3.818c0 1.28-1.037 2.316-2.317 2.316zM467.813 373.453h-20.59c-1.28 0-2.317-1.037-2.317-2.316v-3.818c0-1.28 1.037-2.317 2.317-2.317h20.59c1.28 0 2.316 1.037 2.316 2.317v3.818c0 1.28-1.036 2.316-2.316 2.316z" opacity=".15" transform="translate(-284 -264) translate(284 264)"/>
                <path fill="#FFF" d="M502.135 358.198h-55.598c-.902 0-1.636-.735-1.636-1.637 0-.901.734-1.635 1.636-1.635h55.598c.902 0 1.636.734 1.636 1.635 0 .902-.729 1.637-1.636 1.637z" opacity=".5" transform="translate(-284 -264) translate(284 264)"/>
                <path fill="#B1B5BA" d="M21.438 497.545h611.156c.119 0 .232-.119.232-.232 0-.119-.119-.232-.232-.232H21.438c-.119 0-.232.119-.232.232 0 .113.113.232.232.232z" transform="translate(-284 -264) translate(284 264)"/>
                <path fill="#858990" d="M335.896 53.239c0-11.41-8.618-20.817-19.742-22.043v-.146h-2.446c-12.242 0-22.189 9.947-22.189 22.189 0 12.241 9.947 22.188 22.189 22.188h2.446v-.146c11.118-1.225 19.742-10.632 19.742-22.042z" transform="translate(-284 -264) translate(284 264)"/>
                <path fill="#B1B5BA" d="M311.92 75.427c12.253 0 22.189-9.936 22.189-22.188 0-12.253-9.936-22.189-22.189-22.189-12.252 0-22.188 9.936-22.188 22.189 0 12.252 9.936 22.188 22.188 22.188z" transform="translate(-284 -264) translate(284 264)"/>
                <path fill="#FFF" d="M311.92 72.98c10.903 0 19.743-8.84 19.743-19.742 0-10.903-8.84-19.742-19.743-19.742-10.902 0-19.742 8.84-19.742 19.742 0 10.903 8.84 19.742 19.742 19.742z" transform="translate(-284 -264) translate(284 264)"/>
                <path fill="#858990" d="M311.92 72.98c10.903 0 19.743-8.84 19.743-19.742 0-10.903-8.84-19.742-19.743-19.742-10.902 0-19.742 8.84-19.742 19.742 0 10.903 8.84 19.742 19.742 19.742z" transform="translate(-284 -264) translate(284 264)"/>
                <path fill="#FFF" d="M311.92 72.98c10.903 0 19.743-8.84 19.743-19.742 0-10.903-8.84-19.742-19.743-19.742-10.902 0-19.742 8.84-19.742 19.742 0 10.903 8.84 19.742 19.742 19.742z" opacity=".9" transform="translate(-284 -264) translate(284 264)"/>
                <path fill="#858990" d="M311.926 33.496c.345 0 .685 0 1.08.048-10.385.54-18.663 9.159-18.663 19.694 0 10.53 8.278 19.154 18.663 19.694-.346 0-.686.048-1.08.048-10.925 0-19.743-8.818-19.743-19.742 0-10.924 8.818-19.742 19.743-19.742z" transform="translate(-284 -264) translate(284 264)"/>
                <path fill="#203B95" d="M312.115 54.755l-6.561-13.03c-.249-.491-.049-1.128.442-1.371.492-.249 1.129-.049 1.372.442L313 52.012l7.495-3.672c.492-.248 1.129-.048 1.372.492.248.491.049 1.128-.491 1.371l-9.261 4.552z" transform="translate(-284 -264) translate(284 264)"/>
                <path fill="#FFF" d="M328.817 63.374c1.809-2.986 2.84-6.463 2.84-10.19 0-10.924-8.818-19.742-19.742-19.742-.535 0-1.08.049-1.615.049l18.517 29.883zM307.314 34.036c-.977.248-1.912.54-2.792.88l20.428 33.113c.783-.686 1.518-1.47 2.204-2.306l-19.84-31.687z" opacity=".5" transform="translate(-284 -264) translate(284 264)"/>
                <path fill="#FFF" d="M34.862 248.6L100.467 248.6 100.467 165.056 34.862 165.056z" transform="translate(-284 -264) translate(284 264)"/>
                <path fill="#DDD" d="M43.61 240.198L91.719 240.198 91.719 173.459 43.61 173.459z" transform="translate(-284 -264) translate(284 264)"/>
                <path fill="#DADDDF" d="M102.373 165.062L100.467 165.062 100.467 248.605 102.373 248.605z" transform="translate(-284 -264) translate(284 264)"/>
                <path fill="#203B95" d="M59.692 215.995c5.756 0 10.422-4.665 10.422-10.422 0-5.756-4.666-10.422-10.422-10.422-5.757 0-10.422 4.666-10.422 10.422 0 5.757 4.665 10.422 10.422 10.422z" transform="translate(-284 -264) translate(284 264)"/>
                <path fill="#868A91" d="M85.736 232.978L74.882 215.989 64.028 232.794z" transform="translate(-284 -264) translate(284 264)"/>
                <path fill="#000" d="M62.078 203.261L84.618 203.261 84.618 180.722 62.078 180.722z" opacity=".2" transform="translate(-284 -264) translate(284 264)"/>
                <path fill="#F99A9A" d="M222.69 167.238c-.248.038-.334.302-.302.55.038.25.303.336.551.303l1.971-.41c.977-.265 1.598-1.242 1.328-2.22-.172-.626-.637-1.107-1.204-1.301-.761-.26-1.247-.999-1.301-1.798-.022-.351-.038-.637-.06-.718-1.069-4.099-.982 5.594-.982 5.594z" transform="translate(-284 -264) translate(284 264)"/>
                <g fill="#000" opacity=".15">
                    <path d="M4.298 1.302C4.163.805 3.845.406 3.434.162c.022.055.038.109.054.163.265.977-.356 1.949-1.328 2.214L.75 2.83v.238c-.248.038-.334.302-.302.55.038.249.303.335.551.303l1.971-.405c.972-.265 1.593-1.237 1.328-2.214z" transform="translate(-284 -264) translate(284 264) translate(221.94 164.16)"/>
                </g>
                <path fill="#FB9C9C" d="M193.423 487.744l-29.117.718 11.62-8.3c1.928-1.393 3.143-3.59 3.23-5.966l.405-9.11 15.838.043-1.976 22.615z" transform="translate(-284 -264) translate(284 264)"/>
                <path fill="#000" d="M190.188 477.112v-.179c.092-1.031-.632-1.927-1.615-2.062l-9.288-1.35.092-1.836h15.525l-1.393 15.433-12.7-1.393 4.173-1.658c2.922-1.167 4.936-3.861 5.206-6.955z" opacity=".15" transform="translate(-284 -264) translate(284 264)"/>
                <path fill="#364361" d="M195.437 482.582v11.35c0 1.837-1.48 3.322-3.321 3.322h-38.583c-.762 0-1.393-.632-1.393-1.394 0-2.689 1.75-5.113 4.309-5.967l8.705-2.872 11.037-8.57c1.123-.897 2.738-.853 3.861.092l4.887 4.174c.718.632 1.701.81 2.603.54l6.194-1.928c.89-.221 1.7.4 1.7 1.253z" transform="translate(-284 -264) translate(284 264)"/>
                <path fill="#000" d="M192.116 497.254h-38.583c-.762 0-1.393-.632-1.393-1.394 0-.496.043-.945.178-1.393h43.07c-.264 1.577-1.609 2.787-3.272 2.787z" transform="translate(-284 -264) translate(284 264)"/>
                <path fill="#FFF" d="M176.418 482.987c.092 0 .178-.043.227-.092.135-.135.135-.362 0-.497l-2.333-2.51c-.135-.136-.362-.136-.497 0-.135.134-.135.361 0 .496l2.333 2.511c.092.049.178.092.27.092zM174.577 484.429c.091 0 .178-.044.226-.092.135-.135.135-.362 0-.497l-2.332-2.511c-.135-.135-.362-.135-.497 0s-.135.362 0 .497l2.333 2.51c.086.044.178.093.27.093zM172.735 485.86c.092 0 .178-.044.227-.092.135-.135.135-.362 0-.497l-2.333-2.511c-.135-.135-.362-.135-.497 0s-.135.362 0 .497l2.333 2.51c.049.05.135.093.27.093z" transform="translate(-284 -264) translate(284 264)"/>
                <path fill="#FB9C9C" d="M231.833 487.744l29.117.718-11.621-8.3c-1.928-1.393-3.143-3.59-3.23-5.966l-.404-9.11-15.839.043 1.977 22.615z" transform="translate(-284 -264) translate(284 264)"/>
                <path fill="#000" d="M235.067 477.112v-.179c-.091-1.031.632-1.927 1.615-2.062l9.288-1.35-.092-1.836h-15.525l1.393 15.433 12.701-1.393-4.174-1.658c-2.921-1.167-4.936-3.861-5.206-6.955z" opacity=".15" transform="translate(-284 -264) translate(284 264)"/>
                <path fill="#203B95" d="M246.888 290.477v181.208h-17.005l-14.801-147.739c-.092-.988-.896-1.701-1.885-1.701-.945 0-1.75.718-1.836 1.701L195.61 471.685h-17.005l5.886-180.177 62.397-1.031z" transform="translate(-284 -264) translate(284 264)"/>
                <path fill="#203B95" d="M247.336 471.685L229.214 471.685 228.852 467.959 247.293 467.959z" transform="translate(-284 -264) translate(284 264)"/>
                <path fill="#FFF" d="M247.336 471.685L229.214 471.685 228.852 467.959 247.293 467.959z" opacity=".2" transform="translate(-284 -264) translate(284 264)"/>
                <path fill="#000" d="M247.336 471.685L239.809 471.685 239.625 467.915 247.293 467.959z" opacity=".2" transform="translate(-284 -264) translate(284 264)"/>
                <path fill="#364361" d="M229.819 482.582v11.35c0 1.837 1.48 3.322 3.32 3.322h38.584c.761 0 1.393-.632 1.393-1.394 0-2.689-1.75-5.113-4.31-5.967l-8.704-2.872-11.038-8.57c-1.123-.897-2.738-.853-3.86.092l-4.888 4.174c-.718.632-1.7.81-2.603.54l-6.193-1.928c-.891-.221-1.701.4-1.701 1.253z" transform="translate(-284 -264) translate(284 264)"/>
                <path fill="#000" d="M233.14 497.254h38.583c.761 0 1.393-.632 1.393-1.394 0-.496-.043-.945-.178-1.393h-43.07c.264 1.577 1.608 2.787 3.272 2.787z" transform="translate(-284 -264) translate(284 264)"/>
                <path fill="#FFF" d="M248.837 482.987c-.091 0-.178-.043-.226-.092-.135-.135-.135-.362 0-.497l2.332-2.51c.135-.136.362-.136.497 0 .135.134.135.361 0 .496l-2.333 2.511c-.091.049-.178.092-.27.092zM250.679 484.429c-.092 0-.178-.044-.227-.092-.135-.135-.135-.362 0-.497l2.333-2.511c.135-.135.362-.135.497 0s.135.362 0 .497l-2.333 2.51c-.087.044-.178.093-.27.093zM252.52 485.86c-.092 0-.178-.044-.227-.092-.135-.135-.135-.362 0-.497l2.333-2.511c.135-.135.362-.135.497 0s.135.362 0 .497l-2.333 2.51c-.048.05-.135.093-.27.093z" transform="translate(-284 -264) translate(284 264)"/>
                <path fill="#000" d="M185.717 469.654l16.53-139.514c.54-4.482 4.346-7.852 8.839-7.852h2.106c-.945 0-1.75.718-1.836 1.701l-15.66 146.929-9.98-1.264z" opacity=".2" transform="translate(-284 -264) translate(284 264)"/>
                <path fill="#000" d="M196.058 471.685L185.425 471.685 185.917 467.959 196.42 467.959z" opacity=".15" transform="translate(-284 -264) translate(284 264)"/>
                <path fill="#000" d="M246.91 291.794l.027 176.073-7.312.043-2.057-176.116h9.342z" opacity=".2" transform="translate(-284 -264) translate(284 264)"/>
                <path fill="#F99A9A" d="M223.02 154.078l1.76 20.45c.254 2.954-1.614 5.67-4.46 6.496l-1.285.373 1.074 9.401-9.11-1.226-10.48.827 1.16-24.91 11.632-11.14 9.709-.27z" transform="translate(-284 -264) translate(284 264)"/>
                <path fill="#21252B" d="M223.868 147.998c.719 3.11 2.376 4.974-.394 6.556l-1.199.686c-1.134.648-1.857 1.83-1.917 3.137-.097 2.036-1.026 3.332-3.007 3.975-.249.08-.39.345-.335.599l.15.68.492 2.62c.098.583-.27 1.139-.847 1.28-.562.134-1.134-.184-1.318-.735l-.767-1.755-3.245 2.943-1.432 9.434c-.302 2.003-2.025 3.488-4.05 3.493l-5.027.011-3.402-5.146c-3.564-5.395-6.075-10.314-6.059-16.39 0 0 5.233-3.007 7.058-3.784l-.27-2.825c-.281-2.926-.561-1.884 2.225-2.824l5.443-1.83c5.648-1.907 10.293-2.274 16.082-.864 2.656.648 1.82.74 1.82.74z" transform="translate(-284 -264) translate(284 264)"/>
                <path fill="#F69797" d="M324.961 188.567s1.788 1.259-.723 4.477c-2.511 3.218-11.562 6.934-11.562 6.934l1.528-11.902 10.757.491z" transform="translate(-284 -264) translate(284 264)"/>
                <path fill="#F69797" d="M305.694 191.294l1.463-3.758c.643-1.652 1.583-3.175 2.776-4.487l3.488-3.85c.238-.352.713-.443 1.07-.217l.021.011c.972.632 1.372 1.858.961 2.943l-2.176 3.36c-.113.172-.07.399.092.523.151.113.356.102.497-.022l11.799-10.622c.491-.437 1.247-.378 1.663.125.367.448.351 1.096-.043 1.522l-4.974 5.373s2.83-.216 1.815 2.84c0 0 2.392 1.842-.124 5.06-2.511 3.22-11.351 9.888-11.351 9.888l-7.117 10.325-7.539-6.529 7.679-12.485z" transform="translate(-284 -264) translate(284 264)"/>
                <g fill="#000" opacity=".3">
                    <path d="M.605 4.099c-.076 0-.151-.033-.21-.092-.103-.114-.093-.292.02-.394L4.278.146c.113-.103.291-.092.394.021.103.114.092.292-.022.395L.79 4.028c-.055.049-.12.07-.184.07z" transform="translate(-284 -264) translate(284 264) translate(319.68 184.68)"/>
                </g>
                <g fill="#000" opacity=".3">
                    <path d="M.8 4.358c-.076 0-.152-.033-.211-.092-.103-.113-.092-.292.021-.394L4.471.405c.114-.103.292-.092.394.022.103.113.092.291-.021.394L.983 4.288c-.049.043-.119.07-.184.07z" transform="translate(-284 -264) translate(284 264) translate(320.22 187.92)"/>
                </g>
                <g fill="#000" opacity=".3">
                    <path d="M.513 4.541c-.076 0-.151-.032-.21-.091C.2 4.336.21 4.158.323 4.055L4.185.59c.113-.103.292-.092.394.021.103.114.092.292-.021.394L.697 4.471c-.049.043-.12.07-.184.07z" transform="translate(-284 -264) translate(284 264) translate(318.06 181.44)"/>
                </g>
                <path fill="#000" d="M324.232 193.045c-2.51 3.218-11.561 6.933-11.561 6.933l-2.684 3.894-1.566-1.275 2.846-4.136c.254-.373.62-.648 1.047-.794l3.753-1.29c3.408-1.108 7.307-3.04 9.461-5.903.006 0 .049.68-1.296 2.57z" opacity=".2" transform="translate(-284 -264) translate(284 264)"/>
                <path fill="#364361" d="M200.513 187.429h19.062c.426 0 .826.221 1.047.588l1.653 2.722 18.236 2.354c4.158.535 7.997 2.511 10.859 5.578l24.575 26.374 25.661-27.994 8.943 7.28-30.278 43.345c-2.819 4.04-8.538 4.693-12.199 1.394l-21.195-19.095v62.759h-62.44l-2.333-26.12h-16.421c-4.747 0-8.278-4.385-7.269-9.023l11.53-52.888c1.133-5.205 5.264-9.234 10.497-10.233l17.388-3.337 1.61-3.046c.204-.41.62-.658 1.074-.658z" transform="translate(-284 -264) translate(284 264)"/>
                <path fill="#000" d="M308.421 202.602l-31.925 41.612c-1.604 2.3-4.682 5.525-8.478 4.812l.049.043c3.661 3.294 9.38 2.64 12.198-1.393l30.278-43.346-2.122-1.728z" opacity=".2" transform="translate(-284 -264) translate(284 264)"/>
                <path fill="#21252B" d="M179.123 229.408L178.405 229.473 182.601 276.469 183.319 276.404z" transform="translate(-284 -264) translate(284 264)"/>
                <path fill="#000" d="M175.354 252.753l3.43-23.312 2.3 25.747h-3.63c-1.295 0-2.289-1.155-2.1-2.435z" opacity=".2" transform="translate(-284 -264) translate(284 264)"/>
                <path fill="#21252B" d="M222.215 143.354c-2.489-.89-4.708-.486-6.134.584-.859.756-1.912.653-2.889-.135-1.485-1.237-3.893-3.213-7.587-2.177-4.838 1.28-6.107 4.601-6.54 6.324-.124.772-.685 1.312-1.312 1.63-2.111 1.032-6.134 4.126-6.258 9.159-.26 8.856 16.4 6.415 16.4 6.415-.816-1.814.102-3.931 1.954-4.633l13.625-5.967c4.395-1.95 3.704-9.347-1.259-11.2z" transform="translate(-284 -264) translate(284 264)"/>
                <path fill="#000" d="M211.216 167.341l.253.643s1.346.41 2.69.62l-3.165 1.545.222-2.808z" opacity=".15" transform="translate(-284 -264) translate(284 264)"/>
                <path fill="#FC9D9D" d="M214.893 165.585c.535 1.82 1.118 3.148-1.307 3.164-4.6.011-5.524-6.058-2.964-7.457 2.251-1.215 3.218.977 3.218.977s.005-.005 1.053 3.316z" transform="translate(-284 -264) translate(284 264)"/>
                <path fill="#000" d="M213.548 164.873c-.124-.637-.248-1.193-.604-1.652-.351-.378-.697-.675-1.102-.73-.405-.048-.805.06-1.264.417-.075.086-.145.254-.043.486.092.156.254.146.405.048.303-.264.621-.367.864-.302.243-.016.421.21.686.518.351.378.491 1.178.502 1.34l.119.556c.01.162.178.227.34.216.162-.011.227-.178.216-.34l-.119-.557z" opacity=".3" transform="translate(-284 -264) translate(284 264)"/>
                <path fill="#21252B" d="M225.698 164.614c-.221 0-.42-.156-.47-.383l-1.582-6.999c-.054-.259.114-.518.373-.572.265-.054.518.113.572.373l1.583 6.998c.054.26-.114.518-.373.572-.032.011-.065.011-.103.011z" transform="translate(-284 -264) translate(284 264)"/>
                <path fill="#21252B" d="M224.683 159.769L213.845 162.172 214.056 163.117 224.894 160.709z" transform="translate(-284 -264) translate(284 264)"/>
                <path fill="#203B95" d="M196.058 471.685L177.979 471.685 178.249 467.959 196.42 467.959z" transform="translate(-284 -264) translate(284 264)"/>
                <path fill="#FFF" d="M196.058 471.685L177.979 471.685 178.249 467.959 196.42 467.959z" opacity=".2" transform="translate(-284 -264) translate(284 264)"/>
                <path fill="#000" d="M196.058 471.685L185.468 471.685 185.917 467.959 196.42 467.959z" opacity=".2" transform="translate(-284 -264) translate(284 264)"/>
                <path fill="#21252B" d="M222.275 190.378L202.851 190.378 202.851 191.101 222.275 191.101z" transform="translate(-284 -264) translate(284 264)"/>
                <path fill="#000" d="M246.877 229.975l-.923-.815c-2.414-2.128-6.216-.486-6.324 2.732l-2.057 60.842h9.304v-62.759zM275.945 225.04l-.94 1.02c-.464.507-1.279.448-1.662-.12l-9.45-13.84 12.052 12.94z" opacity=".2" transform="translate(-284 -264) translate(284 264)"/>
                <path fill="#000" d="M219.04 181.391l-3.996-.08c-1.188-.022-2.02 1.155-1.598 2.267l1.458 3.85h4.833l-.697-6.037z" opacity=".15" transform="translate(-284 -264) translate(284 264)"/>
            </g>
        </g>
    </g>
</svg>
