<?xml version="1.0" encoding="UTF-8"?>
<svg width="133px" height="134px" viewBox="0 0 133 134" version="1.1" xmlns="http://www.w3.org/2000/svg" xmlns:xlink="http://www.w3.org/1999/xlink">
    <title>subjects/biology</title>
    <g id="subjects/biology" stroke="none" stroke-width="1" fill="none" fill-rule="evenodd">
        <g id="biology" fill-rule="nonzero">
            <path d="M132.420052,67.21 C132.439949,83.1046801 126.723116,98.4726616 116.32,110.49 C112.28088,115.159162 107.612972,119.244844 102.45,122.63 C101.29,123.39 100.11,124.12 98.9,124.8 C91.1843743,129.201762 82.655484,131.991427 73.83,133 L73.72,133 L71.59,133.21 C70.2566667,133.323333 68.8866667,133.393333 67.48,133.42 L66.21,133.42 C64.03,133.42 61.87,133.31 59.74,133.11 C59.02,133.04 58.31,132.96 57.6,132.86 C48.0368803,131.6254 38.8629721,128.299986 30.73,123.12 C30.54,123 30.35,122.88 30.17,122.75 C28.65,121.77 27.18,120.73 25.76,119.63 C24.23,118.46 22.76,117.21 21.34,115.89 L20.46,115.07 C18.2269425,112.940526 16.1483528,110.654746 14.24,108.23 C-3.73525809,85.4580118 -4.79188009,53.6361241 11.6331972,29.7218984 C28.0582744,5.80767278 58.1388782,-4.6281434 85.8453597,3.97559058 C113.551841,12.5793246 132.430058,38.2183946 132.420052,67.23 L132.420052,67.21 Z" id="Path" fill="#ED968A"></path>
            <path d="M62.47,81.41 L62.11,81.41 C61.5829719,81.4247279 61.0579654,81.4815757 60.54,81.58 C59.8783874,81.6820905 59.2285373,81.8495776 58.6,82.08 C58.38,82.17 58.18,82.25 58.01,82.34 C58.0395177,82.2489628 58.0596229,82.1551388 58.07,82.06 C58.0727368,82.002593 58.0518261,81.9465728 58.0121429,81.905 C57.9724597,81.8634271 57.9174722,81.8399348 57.86,81.84 L57.86,81.84 C57.74,81.84 57.63,81.91 57.62,82 C57.5863068,82.2481179 57.5293903,82.4925239 57.45,82.73 C57.2573432,83.2444543 56.9875947,83.7266298 56.65,84.16 C56.0963005,84.8574715 55.4503914,85.4764678 54.73,86 L54.73,86 L54.73,86 C53.799857,86.6956012 52.7933398,87.2827362 51.73,87.75 L51.73,87.75 C50.8730032,88.1281202 49.9778683,88.4130882 49.06,88.6 L49.11,88.6 C48.7794125,88.6645303 48.4455987,88.7112642 48.11,88.74 C48.0507409,88.7463384 47.9948736,88.7707804 47.95,88.81 C47.9284999,88.8541903 47.9284999,88.9058097 47.95,88.95 C47.9748018,89.0596719 48.0783117,89.1329914 48.19,89.12 C48.8671615,89.0682251 49.5372874,88.9476025 50.19,88.76 C49.9772999,89.0474475 49.8808793,89.4045609 49.92,89.76 C49.9845427,90.0626917 50.178153,90.3220565 50.45,90.47 C50.7594624,90.6422553 51.0987957,90.7542353 51.45,90.8 C51.4188347,90.8252161 51.3975835,90.8606348 51.39,90.9 C51.3686613,90.9407064 51.3686613,90.9892936 51.39,91.03 C51.4303533,91.0771642 51.4880566,91.1060159 51.55,91.11 L51.77,91.11 C52.3220377,91.1168095 52.8737515,91.0800286 53.42,91 C53.73,91 54.05,90.89 54.36,90.81 L54.92,90.73 C55.26,90.67 55.56,90.61 55.84,90.54 C56.0675473,90.4801834 56.2912857,90.406717 56.51,90.32 C56.5550733,90.2893169 56.5871464,90.242989 56.6,90.19 C56.6099057,90.1608177 56.6099057,90.1291823 56.6,90.1 L57.44,89.74 C58.07,89.45 58.69,89.12 59.34,88.74 C60.5453394,88.0248527 61.6687069,87.1798121 62.69,86.22 C63.5973554,85.3938619 64.3759772,84.4365952 65,83.38 C65.1901247,83.0604755 65.3539962,82.7260438 65.49,82.38 C65.5101076,82.3354993 65.5101076,82.2845007 65.49,82.24 C65.4641451,82.1866202 65.4169229,82.146663 65.36,82.13 L65.26,82.13 L65.18,82.13 C65.1200503,82.1390849 65.068037,82.1762373 65.04,82.23 L65.04,82.23 L65.04,82.31 L65.04,82.31 C64.9538579,82.1644389 64.8420516,82.0356923 64.71,81.93 C64.5626063,81.8244214 64.4010012,81.7402521 64.23,81.68 C64.0317311,81.6112833 63.8275265,81.5610691 63.62,81.53 C63.2635904,81.4664167 62.9020178,81.4362856 62.54,81.44" id="Path" fill="#3D3542"></path>
            <path d="M62.11,81.41 C61.5799701,81.4291512 61.0519724,81.4859611 60.53,81.58 C59.8712664,81.6852011 59.2247124,81.8560522 58.6,82.09 C58.397637,82.1631174 58.2005106,82.2499867 58.01,82.35 C58.0439811,82.259656 58.0674685,82.1657064 58.08,82.07 C58.0801165,81.9467794 57.9831041,81.8453574 57.86,81.84 L57.86,81.84 C57.7488992,81.837415 57.6484383,81.9057284 57.61,82.01 C57.5772111,82.2582833 57.5202747,82.502775 57.44,82.74 C57.2489172,83.2531501 56.9826793,83.7350745 56.65,84.17 C56.0919072,84.8640332 55.4427169,85.4795867 54.72,86 L54.72,86 L54.72,86 C53.7847648,86.6850991 52.7790669,87.2684039 51.72,87.74 C50.8616872,88.1122337 49.9668284,88.3937623 49.05,88.58 L49.05,88.58 C48.66,88.64 48.33,88.68 48.05,88.71 C47.9870698,88.7135344 47.9271728,88.7381978 47.88,88.78 C47.8584999,88.8241903 47.8584999,88.8758097 47.88,88.92 C47.9120765,89.0303148 48.0152072,89.1045689 48.13,89.1 C48.806441,89.0370915 49.4758233,88.9132557 50.13,88.73 C49.9102054,89.0145916 49.8065651,89.3719719 49.84,89.73 C49.8986264,90.0382858 50.098568,90.301172 50.38,90.44 C50.4656631,90.4945936 50.5560204,90.5414455 50.65,90.58 C52.4337414,90.1294624 54.1662454,89.4961099 55.82,88.69 L55.82,88.69 C56.5118869,88.3485492 57.1800575,87.9610102 57.82,87.53 C58.4685872,87.0953329 59.089765,86.6211003 59.68,86.11 L59.68,86.11 C60.8617122,85.1206313 61.9014873,83.9731771 62.77,82.7 L62.77,82.7 C63.0374357,82.2876666 63.2747205,81.8565435 63.48,81.41 C63.1684787,81.3678068 62.8543577,81.3477565 62.54,81.35 L62.18,81.35" id="Path" fill="#362F3A"></path>
            <path d="M55.8,20 L55.8,20 C53.8670128,20.3051801 51.9704228,20.80781 50.14,21.5 L49.14,21.87 L48.87,21.98 L48.13,22.26 L47.8,22.38 C47.13,22.63 46.35,22.94 45.6,23.31 C44.8675829,23.6539558 44.1929067,24.1093622 43.6,24.66 C43.5616675,24.6923009 43.5395445,24.7398728 43.5395445,24.79 C43.5395445,24.8401272 43.5616675,24.8876991 43.6,24.92 L44.29,26 L45,27.1 L46.8,29.85 L48.59,32.6 L49.59,34.11 L50.59,35.62 C50.6159742,35.6712831 50.6637701,35.7080493 50.72,35.72 C50.7531969,35.8006655 50.832804,35.8524101 50.92,35.8500807 L51.21,35.8500807 L52.11,35.8500807 C52.5054061,35.8281737 52.8993256,35.7847757 53.29,35.72 C54.0941554,35.5946106 54.8867718,35.4039813 55.66,35.15 C56.4422962,34.887763 57.2100528,34.5839984 57.96,34.24 C58.67,33.92 59.39,33.55 60.15,33.13 C61.09,32.61 62.06,32.02 63.15,31.26 C63.2271856,31.2161836 63.2576741,31.1203626 63.22,31.04 C63.2292122,31.0107072 63.2292122,30.9792928 63.22,30.95 L59.8,25.72 L59.33,25 L58.85,24.27 L58.17,23.22 L56.17,20.16 C56.1275141,20.090506 56.0514413,20.048666 55.97,20.05 C55.9213388,20.013136 55.8608708,19.9953513 55.8,20" id="Path" fill="#60B22F"></path>
            <path d="M45.58,23.29 C44.8442344,23.632301 44.1688108,24.091589 43.58,24.65 C43.5416675,24.6823009 43.5195445,24.7298728 43.5195445,24.78 C43.5195445,24.8301272 43.5416675,24.8776991 43.58,24.91 L44.29,26 L45,27.11 L46.79,29.85 L48.59,32.6 L49.59,34.11 L50.59,35.63 C50.7019796,35.708649 50.8153304,35.7853275 50.93,35.86 L51.22,35.86 L51.55,35.86 L52.12,35.86 C52.5155968,35.8467661 52.9098377,35.8066738 53.3,35.74 C54.1036112,35.6072723 54.8959144,35.4133753 55.67,35.16 C56.11,35.02 56.54,34.86 57,34.68 L56.68,34.46 C55.6398771,33.7329463 54.6569995,32.9272541 53.74,32.05 C51.7963706,30.1520205 50.1148483,28.0030351 48.74,25.66 C48.14,24.66 47.6,23.66 47.08,22.66 C46.6,22.85 46.08,23.07 45.57,23.32" id="Path" fill="#478A33"></path>
            <path d="M57.11,16.64 L57,16.64 L56.89,16.64 C56.7639669,16.6220837 56.6360331,16.6220837 56.51,16.64 C56.3535492,16.6283699 56.1964508,16.6283699 56.04,16.64 C55.8512136,16.6693745 55.6642464,16.7094389 55.48,16.76 L55.27,16.76 C54.83,16.86 54.38,16.98 53.89,17.12 C52.17,17.6 50.51,18.25 48.89,18.87 L48.44,19.05 L46.85,19.66 L46.49,19.79 L45.89,20.02 C45.26,20.26 44.31,20.63 43.41,21.02 C42.6120788,21.3763935 41.8430921,21.794321 41.11,22.27 C40.8142037,22.458069 40.5333692,22.6686949 40.27,22.9 C40.0391461,23.0967528 39.8605136,23.3475254 39.75,23.63 L39.75,23.63 L39.51,23.31 C39.4610233,23.237299 39.3775468,23.1955608 39.29,23.2 L39.18,23.2 C39.1217838,23.2200463 39.0746321,23.2635709 39.05,23.32 C39.0249914,23.3633162 39.0249914,23.4166838 39.05,23.46 C39.5138683,24.1177453 40.127385,24.6558576 40.84,25.03 C41.231361,25.2524573 41.6432687,25.4366436 42.07,25.58 C42.4850677,25.7308871 42.913718,25.8413985 43.35,25.91 L43.44,25.91 L43.54,25.91 L43.54,25.91 L43.62,25.91 L46.62,24.75 L52.54,22.48 L53.62,22.07 L56.91,20.8 C56.9688063,20.7881898 57.0197559,20.7517972 57.05,20.7 C57.0746385,20.6771497 57.0949625,20.650051 57.11,20.62 C57.3809315,20.0109902 57.5336413,19.3560346 57.56,18.69 C57.5695625,18.3551767 57.5461159,18.0202258 57.49,17.69 C57.4405162,17.3459159 57.3463898,17.0097504 57.21,16.69 C57.1619928,16.6025929 57.0697154,16.5487644 56.97,16.5499792" id="Path" fill="#5D5164"></path>
            <path d="M56.57,12.55 L56.51,12.55 L56.43,12.55 L56.21,12.63 L56,12.71 L56,12.71 L55.24,13 L54.77,13.17 L52.18,14.17 L50.44,14.83 L50.44,14.83 L41.72,18.16 L37.27,19.85 L35.82,20.4 C35.7529218,20.42413 35.6986933,20.4747433 35.67,20.54 C35.6610707,20.5727353 35.6610707,20.6072647 35.67,20.64 C35.6993952,21.0411028 35.8339061,21.4273905 36.06,21.76 C36.3358539,22.1897597 36.6727085,22.5771425 37.06,22.91 C37.456842,23.2661322 37.9010546,23.5656391 38.38,23.8 C38.8315977,24.0277375 39.3250913,24.1604703 39.83,24.19 L39.83,24.19 C39.8727332,24.2001988 39.9172668,24.2001988 39.96,24.19 L49.51,20.55 L57.27,17.55 L57.39,17.55 L57.62,17.46 C57.6923959,17.4389997 57.7489997,17.3823959 57.77,17.31 C57.7732828,17.2867821 57.7732828,17.2632179 57.77,17.24 C57.8981365,16.8746617 57.9820672,16.4952948 58.02,16.11 C58.06492,15.6678045 58.06492,15.2221955 58.02,14.78 C57.974944,14.3357215 57.8531372,13.9026306 57.66,13.5 C57.5683761,13.3056391 57.4469072,13.12681 57.3,12.97 C57.2307878,12.8892501 57.1537448,12.8155567 57.07,12.75 C56.9806094,12.6733546 56.8834085,12.6063194 56.78,12.55 C56.7408514,12.5383282 56.6991486,12.5383282 56.66,12.55" id="Path" fill="#3D3542"></path>
            <path d="M50.15,44.27 C50.0698627,44.2659892 49.9923627,44.2992035 49.94,44.36 C49.9149935,44.4104021 49.9149935,44.4695979 49.94,44.52 C49.04,44.6 48.13,44.71 47.23,44.84 C46.04,45.03 44.88,45.28 43.75,45.56 C42.62,45.84 41.62,46.17 40.52,46.56 C38.4337953,47.3003355 36.4243742,48.2414144 34.52,49.37 C30.9912637,51.4495209 27.8759171,54.1614657 25.33,57.37 C24.1054208,58.9342627 23.0275339,60.6080001 22.11,62.37 C19.5988944,67.1832407 18.4117296,72.5772485 18.67,78 C19.0818151,85.3267698 21.9291395,92.3060581 26.76,97.83 C28.4273932,99.7610038 30.2907098,101.513728 32.32,103.06 L32.32,103.06 L32.32,103.06 L32.61,103.28 L32.67,103.28 L32.94,103.48 L33.08,103.59 C33.62,103.97 34.16,104.34 34.7,104.68 L34.7,104.68 L34.89,104.8 L35.13,104.95 L35.13,104.95 L35.19,104.95 L35.26,104.95 C35.67,105.2 36.1,105.46 36.54,105.7 C36.5759459,105.710282 36.6140541,105.710282 36.65,105.7 C36.7325971,105.701571 36.8121865,105.669011 36.87,105.61 C38.233671,105.345884 39.5719788,104.964466 40.87,104.47 C42.2481044,103.935573 43.5850429,103.300527 44.87,102.57 C46.1782702,101.830335 47.4405776,101.012173 48.65,100.12 C49.8380868,99.2404021 50.9764999,98.2956193 52.06,97.29 C53.0759614,96.3452692 54.0375064,95.3436599 54.94,94.29 C55.737114,93.340763 56.4687997,92.338454 57.13,91.29 C57.33,90.95 57.53,90.61 57.7,90.29 C57.7300427,90.2481685 57.7300427,90.1918315 57.7,90.15 C57.6677333,90.0979997 57.6181581,90.0590477 57.56,90.04 L57.22,90.04 C56.81,89.98 56.41,89.91 55.99,89.83 L55.82,89.83 L55.74,89.83 L55.65,89.83 L54.39,89.53 L54.32,89.53 L54.23,89.53 L53.82,89.41 L53.22,89.22 L53.22,89.22 C52.96,89.14 52.71,89.05 52.46,88.95 C51.0691442,88.4374743 49.7298531,87.7946146 48.46,87.03 C46.8560237,86.0550418 45.3782325,84.8862434 44.06,83.55 C42.6633923,82.1193067 41.4689937,80.5043453 40.51,78.75 L40.51,78.75 C39.9981707,77.7858764 39.5634792,76.782742 39.21,75.75 C38.8706023,74.7723435 38.6097742,73.7691586 38.43,72.75 C38.2582538,71.6953198 38.1713089,70.6285716 38.17,69.56 C38.1699963,66.4969288 38.9256555,63.4811616 40.37,60.78 L40.37,60.78 C41.2561352,59.1631999 42.356025,57.6731351 43.64,56.35 C44.8423092,55.1492646 46.1853889,54.0983047 47.64,53.22 C48.3117253,52.8108596 49.0061804,52.440261 49.72,52.11 C50.4758637,51.7638882 51.2503933,51.4600857 52.04,51.2 C53.0731615,50.8616994 54.1291866,50.5976931 55.2,50.41 C55.253291,50.3971041 55.3018343,50.3693651 55.34,50.33 C55.3584661,50.281705 55.3584661,50.228295 55.34,50.18 C55.2978926,50.0870616 55.2016261,50.0309062 55.1,50.04 L55.04,50.04 L54.51,50.14 L54.58,50.05 C54.6978789,49.8626008 54.7824588,49.6562261 54.83,49.44 C54.9008837,48.990905 54.8346668,48.5308718 54.64,48.12 C54.4251431,47.6432192 54.1347423,47.2042412 53.78,46.82 C53.3963875,46.3864944 52.9747013,45.9882352 52.52,45.63 C52.135302,45.3270892 51.7311043,45.0498234 51.31,44.8 L51.31,44.8 C51.44,44.8 51.55,44.71 51.55,44.6 C51.5345398,44.4864187 51.4344578,44.4037422 51.32,44.41 L50.67,44.41 L50.28,44.24 L50.15,44.24 M22.72,62.16 L22.72,62.16 L22.64,62.29 L22.69,62.2 L22.69,62.2 L22.72,62.16 Z" id="Shape" fill="#60B22F"></path>
            <path d="M50.42,88.73 L49.9,88.73 C48.7376325,88.7543567 47.5782778,88.8579302 46.43,89.04 C45.3422776,89.2170094 44.2763417,89.5086334 43.25,89.91 L43.11,90.38 C42.5178946,93.0312746 41.5798601,95.5932183 40.32,98 L40.32,98 C39.341324,99.8572935 38.1058478,101.567435 36.65,103.08 C36.32,103.41 35.96,103.75 35.59,104.08 C35.5477124,104.114174 35.5231371,104.16563 35.5231371,104.22 C35.5231371,104.27437 35.5477124,104.325826 35.59,104.36 L35.72,104.36 C35.7625751,104.371464 35.8074249,104.371464 35.85,104.36 L36.85,104.36 C41.16,104.17 46.04,103.96 50.72,103.82 C54.86,103.7 58.57,103.64 62.07,103.64 L65.61,103.64 L66.48,103.64 L67.53,103.64 L69.43,103.64 C70.8,103.64 72.05,103.57 73.24,103.47 C73.3023106,103.472851 73.3632834,103.451332 73.41,103.41 C73.4561645,103.380633 73.4841222,103.329713 73.4841222,103.275 C73.4841222,103.220287 73.4561645,103.169367 73.41,103.14 C73.3611467,103.102447 73.3016019,103.081431 73.24,103.08 L73.24,103.08 C73.1868404,103.002732 73.0888887,102.970081 73,103 C72.2416888,102.850549 71.4935416,102.653492 70.76,102.41 L70.76,102.41 C69.5178288,101.988675 68.3243557,101.435521 67.2,100.76 C66.0349486,100.04138 64.9605653,99.1852304 64,98.21 C62.9272059,97.1176436 62.0147841,95.8786355 61.29,94.53 C60.6184035,93.2706031 60.1237414,91.9245837 59.82,90.53 L59.73,90.2 L59.73,90.2 C59.73,90.14 59.66,90.08 59.6,90.07 C58.0838193,89.6348237 56.5404275,89.3007562 54.98,89.07 C53.4756163,88.8610577 51.9588186,88.7541469 50.44,88.75" id="Path" fill="#8A7894"></path>
            <path d="M52,98.38 C54.31,98.2 56,96.57 55.75,94.76 C55.5,92.95 53.46,91.62 51.15,91.76 C48.84,91.9 47.15,93.57 47.4,95.39 C47.65,97.21 49.69,98.53 52,98.34" id="Path" fill="#478A33"></path>
            <path d="M51.63,93.18 L51.37,93.18 C50.7286492,93.2134468 50.119621,93.4719296 49.65,93.91 C49.2356564,94.2799611 49.0268305,94.8281292 49.09,95.38 C49.3715519,96.5247105 50.4456961,97.2931694 51.62,97.19 L51.89,97.19 C52.5313508,97.1565532 53.140379,96.8980704 53.61,96.46 C54.0198871,96.0912213 54.2281334,95.5482935 54.17,95 C53.8917013,93.8486663 52.8091092,93.0772128 51.63,93.19" id="Path" fill="#5D5164"></path>
            <path d="M105.05,102.24 L36.49,102.24 L36.37,102.24 L36.3,102.24 C35.663349,102.438139 35.0574953,102.724237 34.5,103.09 C33.9268793,103.471208 33.3970758,103.913829 32.92,104.41 C32.4529307,104.900936 32.0312135,105.433103 31.66,106 C31.3266022,106.505191 31.0419884,107.040935 30.81,107.6 C30.6777266,107.923664 30.5739985,108.258271 30.5,108.6 C30.4009209,109.02767 30.4009209,109.47233 30.5,109.9 C30.5354527,110.000821 30.6332991,110.066052 30.74,110.06 L30.74,110.06 L30.8,110.06 L108.47,110.06 C108.565173,110.064024 108.654361,110.013613 108.7,109.93 C108.737645,109.90027 108.762651,109.857402 108.77,109.81 C108.899788,109.256299 108.926904,108.683486 108.85,108.12 C108.771785,107.497892 108.610341,106.889113 108.37,106.31 C108.133042,105.691326 107.827822,105.101011 107.46,104.55 C107.10187,104.012698 106.689726,103.513434 106.23,103.06 C105.933319,102.761752 105.596794,102.505993 105.23,102.3 C105.173131,102.263456 105.107543,102.242744 105.04,102.24" id="Path" fill="#5D5164"></path>
            <path d="M110.22,108.93 L29.22,108.93 C29.1582278,108.910113 29.0917722,108.910113 29.03,108.93 C28.6690113,109.188653 28.3771184,109.532057 28.18,109.93 C27.9880244,110.326192 27.8856016,110.759782 27.88,111.2 C27.8669507,111.638851 27.9595503,112.074412 28.15,112.47 C28.2463499,112.667074 28.3710021,112.848999 28.52,113.01 C28.6929714,113.209341 28.9036868,113.372475 29.14,113.49 L29.21,113.49 C29.2494068,113.499742 29.2905932,113.499742 29.33,113.49 L110.2,113.49 C110.246095,113.500333 110.293905,113.500333 110.34,113.49 L110.42,113.49 C110.540643,113.429862 110.651824,113.352373 110.75,113.26 C110.839164,113.173939 110.916506,113.07642 110.98,112.97 C111.090274,112.790701 111.187203,112.603529 111.27,112.41 C111.423348,112.017778 111.504651,111.6011 111.51,111.18 C111.529204,110.752243 111.454096,110.325496 111.29,109.93 C111.109916,109.530013 110.826962,109.184947 110.47,108.93 C110.414248,108.915605 110.355752,108.915605 110.3,108.93 L110.22,108.93" id="Path" fill="#3D3542"></path>
            <path d="M90.37,78 L38.53,78 L38.44,78 L38.44,78 C38.3530683,77.989347 38.2666148,78.0231766 38.21,78.09 C37.9332824,78.4507862 37.7140246,78.8521966 37.56,79.28 C37.4028932,79.7128318 37.3217006,80.1695404 37.3193787,80.63 C37.3103533,81.1039553 37.4131623,81.5734501 37.62,82 C37.7251668,82.214358 37.859805,82.4129493 38.02,82.59 C38.1051937,82.6815232 38.1953282,82.7683194 38.29,82.85 L38.44,82.97 L38.56,83.04 C38.6089767,83.112701 38.6924532,83.1544392 38.78,83.15 L102.86,83.15 C102.924911,83.15 102.988071,83.1289466 103.04,83.09 L103.04,83.09 L103.28,82.92 C103.373264,82.8474568 103.460239,82.7671719 103.54,82.68 C103.700558,82.5106386 103.835333,82.3185834 103.94,82.11 C104.15116,81.6940204 104.26729,81.2363326 104.28,80.77 C104.304381,80.2976986 104.250315,79.8246218 104.12,79.37 C104.014326,78.9657352 103.838306,78.5832308 103.6,78.24 L103.46,78.11 L103.41,78.11 L90.37,78.11 L90.37,78 Z" id="Path" fill="#88C05D"></path>
            <path d="M76.82,61.53 C76.7774249,61.5185362 76.7325751,61.5185362 76.69,61.53 C76.6363071,61.5501875 76.5954512,61.5947576 76.58,61.65 C76.5551106,61.6969026 76.5551106,61.7530974 76.58,61.8 L76.75,62.06 L76.83,62.19 C76.5387072,62.1194391 76.2396882,62.0858415 75.94,62.09 C75.005086,62.111698 74.0851829,62.3297491 73.24,62.73 C72.6363013,63.0020419 72.0631057,63.337244 71.53,63.73 C71.1707117,63.9775611 70.8358614,64.2588354 70.53,64.57 L70.53,64.48 L70.47,64.4 L70.32,64.16 L70.26,64.08 L70.24,64 C70.1994992,63.9584324 70.1470826,63.9304769 70.09,63.92 L70,63.92 C69.9538096,63.9105714 69.9061904,63.9105714 69.86,63.92 C69.8110051,63.9438146 69.774589,63.9875138 69.76,64.04 C69.7309545,64.0857818 69.7309545,64.1442182 69.76,64.19 L70.24,64.93 C70.2257371,64.9583048 70.2257371,64.9916952 70.24,65.02 C70.2468998,65.0784219 70.2853025,65.1283455 70.34,65.15 C70.3657215,65.1600407 70.3942785,65.1600407 70.42,65.15 L72.42,68.15 L74.42,71.15 L74.49,71.24 C74.523534,71.2914348 74.5788356,71.3246158 74.64,71.33 L74.69,71.33 C74.7262119,71.3381667 74.7637881,71.3381667 74.8,71.33 C75.0827802,71.3924269 75.370611,71.4292425 75.66,71.44 L75.87,71.44 C76.1198151,71.453597 76.3701849,71.453597 76.62,71.44 C77.3027498,71.3735283 77.9745767,71.2223672 78.62,70.99 C79.2401461,70.7819761 79.8315022,70.496378 80.38,70.14 C80.8530429,69.8420705 81.2501997,69.4380663 81.54,68.96 C81.5975653,68.8739583 81.6414211,68.7794997 81.67,68.68 L81.67,68.68 C81.6905721,68.6321161 81.6905721,68.5778839 81.67,68.53 L79.61,65.39 L77.61,62.25 L77.51,62.1 L77.29,62 L77.03,61.6 C76.9894992,61.5584324 76.9370826,61.5304769 76.88,61.52 L76.82,61.52" id="Path" fill="#788089"></path>
            <path d="M88.07,60.08 C88.0235045,60.0743472 87.9764955,60.0743472 87.93,60.08 C87.8810051,60.1038146 87.844589,60.1475138 87.83,60.2 C87.8115339,60.248295 87.8115339,60.301705 87.83,60.35 C87.662075,60.3134625 87.4915594,60.2900584 87.32,60.28 L87.09,60.28 C86.6382684,60.2876215 86.1901239,60.3617506 85.76,60.5 C85.2079319,60.6625328 84.6748845,60.8837977 84.17,61.16 C83.6762277,61.4172181 83.2046147,61.714903 82.76,62.05 C82.4385523,62.28082 82.1344084,62.5348303 81.85,62.81 C81.73,62.94 81.63,63.04 81.55,63.14 L81.49,63.03 L81.42,62.93 L81.26,62.68 L81.1,62.44 C81.0665355,62.3899147 81.0102362,62.3598884 80.95,62.36 L80.95,62.36 C80.9072668,62.3498012 80.8627332,62.3498012 80.82,62.36 C80.7663071,62.3801875 80.7254512,62.4247576 80.71,62.48 C80.6884999,62.5241903 80.6884999,62.5758097 80.71,62.62 L80.87,62.87 L81.04,63.12 L81.04,63.12 L81.04,63.12 L81.18,63.33 L81.31,63.54 C81.3208704,63.5938558 81.3534174,63.6408681 81.4,63.67 L82.26,65 L83.1,66.28 L84.35,68.19 L86.24,71.09 L86.9,72.09 L88.24,74.09 C88.2710528,74.1328046 88.3177944,74.1615687 88.37,74.17 L88.44,74.17 C88.8907356,74.305753 89.3592756,74.3731688 89.83,74.3701067 L90.44,74.3701067 C90.8008514,74.3330488 91.1584874,74.2695433 91.51,74.18 C91.8490082,74.0840987 92.1827934,73.9706118 92.51,73.84 C93.1648439,73.5894741 93.7835711,73.2532093 94.35,72.84 C94.8363329,72.4979188 95.2536526,72.0670278 95.58,71.57 C95.6020863,71.5433484 95.6190395,71.5128326 95.63,71.48 C95.6484661,71.431705 95.6484661,71.378295 95.63,71.33 L94.63,69.85 L93.19,67.7 L92.34,66.4 L91.5,65.12 L90,62.84 L89.56,62.16 L89.34,61.83 L88.26,60.17 C88.2214355,60.1259251 88.1680861,60.097472 88.11,60.09 L88.06,60.09" id="Path" fill="#969FAB"></path>
            <path d="M73.43,65.71 C73.3872668,65.6998012 73.3427332,65.6998012 73.3,65.71 C73.2499915,65.73032 73.21032,65.7699915 73.19,65.82 C73.1694279,65.8678839 73.1694279,65.9221161 73.19,65.97 L73.36,66.23 L73.44,66.36 C73.1450259,66.291101 72.8429037,66.2575319 72.54,66.26 C71.6052385,66.28288 70.6855772,66.5008738 69.84,66.9 C69.2374963,67.1743528 68.6645338,67.5094186 68.13,67.9 C67.772657,68.1501051 67.4380314,68.4311906 67.13,68.74 L67.07,68.66 L67.07,68.57 L67,68.37 L67,68.29 L66.94,68.2 C66.9014355,68.1559251 66.8480861,68.127472 66.79,68.12 L66.79,68.12 C66.7472668,68.1098012 66.7027332,68.1098012 66.66,68.12 C66.6042042,68.1369642 66.5620575,68.1829424 66.55,68.24 C66.5321803,68.2849655 66.5321803,68.3350345 66.55,68.38 L67.04,69.12 C67.0257371,69.1483048 67.0257371,69.1816952 67.04,69.21 C67.0505077,69.2668845 67.087714,69.3152527 67.14,69.34 L67.22,69.34 L69.22,72.34 L71.22,75.34 L71.28,75.43 C71.3185645,75.4740749 71.3719139,75.502528 71.43,75.51 L71.48,75.51 L71.59,75.51 C71.8726652,75.5730854 72.1605565,75.6099087 72.45,75.62 L72.65,75.62 C72.9031281,75.6344229 73.1568719,75.6344229 73.41,75.62 C74.0914322,75.5454741 74.7623176,75.3945249 75.41,75.17 C76.0313515,74.96056 76.6229439,74.6714864 77.17,74.31 C77.6450959,74.0155559 78.0455559,73.6150959 78.34,73.14 C78.3950145,73.0502519 78.4355132,72.9523802 78.46,72.85 L78.46,72.85 C78.4848894,72.8030974 78.4848894,72.7469026 78.46,72.7 L76.46,69.56 L74.4,66.42 L74,66.33 L73.9,66.19 L73.64,65.79 C73.602739,65.744312 73.5486995,65.7154909 73.49,65.71 L73.49,65.71" id="Path" fill="#969FAB"></path>
            <path d="M69.24,29.39 L68.88,29.39 L68.51,29.39 L67.81,29.39 L67.33,29.39 C65.2352892,29.5702134 63.1605723,29.934962 61.13,30.48 C57.686794,31.3887959 54.3928206,32.7899134 51.35,34.64 L51.23,34.72 L51.1,34.8 L51.05,34.8 C50.67,35.03 50.32,35.27 49.98,35.51 L49.98,35.51 L49.98,35.51 L49.98,35.51 L49.84,35.61 L49.76,35.67 L49.11,36.15 L49.04,36.15 L48.93,36.24 L48.93,36.24 L48.93,36.24 L48.93,36.24 L48.85,36.3 L48.07,36.95 L48.07,36.95 L48.07,36.95 L48.07,36.95 L48.07,36.95 L48.07,36.95 L48.07,36.95 L48.07,36.95 L48.07,36.95 L48.07,36.95 L47.48,37.5 L47.41,37.57 L47.41,37.57 L47.41,37.57 L47.35,37.63 L47.35,37.63 L47.35,37.63 L47.35,37.63 L47.35,37.63 C47.17,37.81 47,37.98 46.84,38.16 L46.84,38.16 L46.84,38.16 L46.84,38.16 L46.77,38.24 C46.77,38.24 46.77,38.3 46.77,38.32 C46.7268993,38.3436429 46.6946399,38.383071 46.68,38.43 C46.6605399,38.4781065 46.6605399,38.5318935 46.68,38.58 L47.15,39.31 L47.15,39.31 L47.15,39.31 L47.15,39.31 L47.22,39.42 L47.29,39.52 L47.9,40.52 L48.51,41.45 L52.02,46.83 L54.68,50.92 L57.34,55.01 L59.85,58.85 L62.35,62.69 C62.3905008,62.7315676 62.4429174,62.7595231 62.5,62.77 L62,62.77 L62,62.77 C62.0419818,62.8060495 62.0947376,62.8271519 62.15,62.83 C62.5995783,62.8107923 63.0473023,62.760674 63.49,62.68 C63.9,62.61 64.32,62.51 64.82,62.38 C65.73,62.12 66.61,61.81 67.43,61.5 L68.04,61.27 L68.66,61.03 L69.42,60.76 L69.93,60.57 C70.8,60.25 71.69,59.91 72.64,59.57 C76.28,58.1 79.74,56.43 82.94,54.84 L84.8,53.91 L85.32,53.65 C85.3744774,53.6331937 85.4185289,53.5928131 85.44,53.54 C85.4650086,53.4966838 85.4650086,53.4433162 85.44,53.4 C85.4650086,53.3566838 85.4650086,53.3033162 85.44,53.26 L83,50.25 L80.57,46.53 L78.79,43.79 L75.1,38.16 L70.74,31.46 L70.41,30.96 L69.79,30 L69.58,29.68 L69.51,29.57 L69.44,29.46 C69.402739,29.414312 69.3486995,29.3854909 69.29,29.38 L69.24,29.38" id="Path" fill="#60B22F"></path>
            <path d="M51.35,34.73 L51.23,34.81 L51.1,34.89 L51.04,34.89 L50,35.63 L50,35.63 L50,35.63 L50,35.63 L49.87,35.72 L49.79,35.78 L49.13,36.27 L49.07,36.27 L48.96,36.36 L48.96,36.36 L48.96,36.36 L48.89,36.42 L48.1,37.07 L48.1,37.07 L48.1,37.07 L48.1,37.07 L48.1,37.07 L48.1,37.07 L48.1,37.07 L48.1,37.07 C47.88,37.26 47.69,37.44 47.51,37.62 L47.44,37.68 L47.44,37.68 L47.37,37.74 L47.37,37.74 L47.37,37.74 L47.37,37.79 L47.37,37.79 C47.19,37.97 47.02,38.15 46.86,38.33 L46.86,38.33 L46.86,38.33 L46.79,38.42 C46.7857057,38.4464938 46.7857057,38.4735062 46.79,38.5 C46.7518861,38.529202 46.7210764,38.5668582 46.7,38.61 C46.6805399,38.6581065 46.6805399,38.7118935 46.7,38.76 L47.18,39.49 L47.18,39.49 L47.18,39.49 L47.25,39.6 L47.32,39.71 L47.94,40.65 L48.55,41.58 L50.21,44.13 L52.05,46.96 L54.72,51.05 L57.38,55.14 L59.88,58.98 L62.38,62.82 C62.4239569,62.8623171 62.4797722,62.8902247 62.54,62.9 L62,62.9 C62,62.9 62,62.9 62,62.9 C62.04265,62.9425986 62.0997684,62.9675879 62.16,62.97 C62.6095327,62.9502048 63.0572168,62.9000909 63.5,62.82 C63.92,62.74 64.35,62.65 64.83,62.51 C65.75,62.26 66.63,61.94 67.44,61.64 L68.06,61.4 L68.68,61.17 L69.44,60.89 L69.61,60.83 L69.95,60.7 C70.81,60.39 71.69,60.05 72.65,59.7 L73.52,59.34 L69.52,53.15 C66.9533333,49.15 64.3766667,45.15 61.79,41.15 L55.79,31.83 C54.226679,32.4953234 52.7157321,33.2775392 51.27,34.17" id="Path" fill="#5D5164"></path>
            <path d="M55.87,32.38 C54.7135187,32.8741704 53.5851421,33.4316819 52.49,34.05 C54.35,36.95 56.2133333,39.8533333 58.08,42.76 C60.66,46.76 63.2433333,50.79 65.83,54.85 C67.21,57 68.6,59.18 70,61.35 C70.84,61.04 71.72,60.7 72.68,60.35 L73.56,59.99 L71.56,56.89 L69.56,53.79 L61.87,41.79 L61.87,41.73 L55.87,32.41 L55.87,32.38 Z" id="Path" fill="#8A7894"></path>
            <path d="M55.86,32.38 C54.7086736,32.859723 53.5837436,33.4004906 52.49,34 L54.34,36.89 L58.08,42.72 L58.24,42.97 C58.24,42.87 58.24,42.77 58.24,42.67 C58.4238176,41.691989 58.6812158,40.7292526 59.01,39.79 C59.19,39.27 59.39,38.79 59.62,38.25 L56.38,33.19 L55.83,32.34 L55.83,32.34 L55.86,32.38 Z" id="Path" fill="#84728D"></path>
            <path d="M84.88,52.43 L84.77,52.43 L84.66,52.43 L84.6,52.43 L79.76,54.29 L77.39,55.2 L71.06,57.63 L66.82,59.26 L61.66,61.26 L61.45,61.34 L61.24,61.42 L60.92,61.55 L60.36,61.76 L60.29,61.76 C60.2496259,61.7854583 60.2154583,61.8196259 60.19,61.86 C59.9819344,62.2283568 59.8429824,62.6316566 59.78,63.05 C59.7144565,63.5177149 59.7144565,63.9922851 59.78,64.46 C59.8358778,64.9193916 59.9606094,65.367751 60.15,65.79 C60.3152332,66.2400814 60.5704217,66.6517854 60.9,67 C60.9467166,67.0413315 61.0076894,67.0628513 61.07,67.06 C61.1253943,67.0769821 61.1846057,67.0769821 61.24,67.06 C61.2861645,67.0306333 61.3141222,66.9797134 61.3141222,66.925 C61.3141222,66.8702866 61.2861645,66.8193667 61.24,66.79 L61.16,66.7 C61.4130932,66.753962 61.6712193,66.7807803 61.93,66.78 C62.3760725,66.7718873 62.8207995,66.7284177 63.26,66.65 L64.04,66.51 L64.46,66.43 C64.97,66.34 65.46,66.25 65.88,66.15 C67.7557216,65.7190792 69.5999745,65.1611258 71.4,64.48 C72.11,64.22 72.81,63.95 73.49,63.68 L74.06,63.46 L74.44,63.31 L76.73,62.42 C78.83,61.59 80.52,60.9 82.03,60.25 C82.92,59.86 83.78,59.46 84.6,59.07 L85.86,58.46 L86.18,58.29 L86.73,58.02 C87.278234,57.7557554 87.8063211,57.451604 88.31,57.11 C88.6979517,56.8736155 89.0048586,56.5248576 89.19,56.11 L89.25,56.11 C89.3081581,56.0909523 89.3577333,56.0520003 89.39,56 C89.4150086,55.9566838 89.4150086,55.9033162 89.39,55.86 C89.2412538,55.4871388 89.0203646,55.1473092 88.74,54.86 C88.3979164,54.4932367 88.0230233,54.1585108 87.62,53.86 C87.1999726,53.542474 86.7513822,53.2646158 86.28,53.03 C85.8497916,52.7966425 85.3832105,52.6377345 84.9,52.56 L84.9,52.56" id="Path" fill="#5D5164"></path>
            <path d="M66.82,59.31 L61.65,61.31 L61.44,61.39 L61.23,61.47 L60.92,61.59 L60.36,61.81 L60.28,61.81 C60.2402938,61.8331176 60.2088218,61.8680865 60.19,61.91 C59.9784422,62.2776614 59.8360886,62.6809965 59.77,63.1 C59.704716,63.567733 59.704716,64.042267 59.77,64.51 C59.8237234,64.9686668 59.9450379,65.4168564 60.13,65.84 C60.3053038,66.2725069 60.5634803,66.6665656 60.89,67 C60.9411887,67.040339 61.0048457,67.0615579 61.07,67.06 C61.128974,67.0756924 61.191026,67.0756924 61.25,67.06 C61.2960568,67.0282746 61.3235635,66.9759261 61.3235635,66.92 C61.3235635,66.8640739 61.2960568,66.8117254 61.25,66.78 C61.2259126,66.7508731 61.1991269,66.7240874 61.17,66.7 C61.4220185,66.7604898 61.6809291,66.7873897 61.94,66.78 C62.3857169,66.7734389 62.830307,66.7333255 63.27,66.66 L64.03,66.52 L64.48,66.44 C64.97,66.35 65.48,66.26 65.9,66.15 C67.2537578,65.849788 68.5892655,65.472507 69.9,65.02 C68.9551848,63.8680127 68.3277941,62.489132 68.08,61.02 C68.0053369,60.5472339 67.9785347,60.0681439 68,59.59 C68.0079771,59.3354863 68.0313532,59.0816889 68.07,58.83 L66.82,59.31 Z" id="Path" fill="#524757"></path>
            <path d="M89.31,55.14 L89.2,55.14 L87.2,55.89 L81.2,58.17 L70.51,62.32 L70.51,62.32 L67.33,63.54 L64.16,64.76 L63.11,65.16 L62.98,65.16 L62.9,65.16 L62.67,65.24 L61.5,65.69 L61.29,65.78 L61.18,65.78 L60.92,65.88 L60.81,65.88 L60.72,65.88 L60.72,65.88 L60.44,65.99 L60.37,65.99 C60.329531,66.0009738 60.2941627,66.0257315 60.27,66.06 C59.9425926,66.3876371 59.7049777,66.793993 59.58,67.24 C59.3670288,67.8010979 59.2750193,68.400864 59.31,69 C59.3274086,69.5246651 59.4356797,70.0423361 59.63,70.53 C59.7211626,70.7607322 59.835057,70.9818213 59.97,71.19 L60.16,71.46 C60.2496668,71.5698252 60.3501748,71.6703332 60.46,71.76 C60.5191584,71.8242425 60.6026701,71.8605519 60.69,71.8600062 L60.77,71.8600062 L61.46,71.59 L69.9,68.36 L75.07,66.36 L79,64.91 L80.47,64.34 L83.47,63.19 L85.61,62.36 L88.39,61.3 L93.94,59.17 L94.19,59.08 L94.44,58.98 L94.44,58.98 C94.5285587,58.9535987 94.5894512,58.8724087 94.59,58.78 C94.6050081,58.7448691 94.6050081,58.7051309 94.59,58.67 C94.1510417,57.7317096 93.4582471,56.9349958 92.59,56.37 C92.1144512,56.045273 91.6047407,55.7736509 91.07,55.56 C90.7992474,55.4554745 90.5219984,55.3686254 90.24,55.3 C89.9379141,55.2270443 89.6301132,55.180205 89.32,55.16 L89.32,55.16" id="Path" fill="#3D3542"></path>
            <path d="M67.29,63.55 L64.11,64.76 L63.11,65.16 L62.98,65.16 L62.9,65.16 L62.67,65.25 L62.2,65.43 L61.5,65.7 L61.28,65.78 L61.18,65.78 L60.92,65.88 L60.81,65.88 L60.72,65.88 L60.72,65.88 L60.42,65.99 L60.35,65.99 C60.3091608,66.0060185 60.2718075,66.0297888 60.24,66.06 C59.9178906,66.3955881 59.6812334,66.8037359 59.55,67.25 C59.3581284,67.8126064 59.2733331,68.4061738 59.3,69 C59.327095,69.5234547 59.4350392,70.039563 59.62,70.53 C59.7130902,70.7598526 59.8268922,70.9807625 59.96,71.19 C60.0216878,71.2835835 60.0884545,71.3737185 60.16,71.46 C60.2496668,71.5698252 60.3501748,71.6703332 60.46,71.76 C60.5164979,71.8290403 60.6007915,71.8693547 60.69,71.87 L60.78,71.87 L61.46,71.61 L69.83,68.4 C69.4325497,68.1131796 69.0932013,67.7534703 68.83,67.34 C68.6720623,67.1106864 68.5443433,66.8619702 68.45,66.6 C68.3509482,66.3418175 68.2805267,66.0735453 68.24,65.8 C68.1575741,65.1458742 68.2436284,64.4815355 68.49,63.87 C68.6195011,63.5228672 68.7801565,63.1881684 68.97,62.87 L67.29,63.55 Z" id="Path" fill="#362F3A"></path>
            <path d="M48.1,27.4398439 C47.5414325,27.4371277 46.9833649,27.4738867 46.43,27.55 L46.15,27.55 C45.82,27.6 45.48,27.67 45.15,27.75 C44.6086035,27.8737578 44.0771427,28.0375413 43.56,28.24 L43.38,28.31 C42.7180481,28.5790852 42.0848576,28.9141067 41.49,29.31 L41.49,29.31 L41.49,29.31 L41.49,29.31 L41.49,29.31 C41.059826,29.6094556 40.6551172,29.9439257 40.28,30.31 L40.28,30.31 L40.28,30.31 L40.28,30.31 L40.28,30.31 C39.9508043,30.6188477 39.6465243,30.9532213 39.37,31.31 C39.0524554,31.7474929 38.7810112,32.2166556 38.56,32.71 L38.56,32.71 L38.56,32.76 C38.2075263,33.5813457 38.0271475,34.4662224 38.03,35.36 C38.03,35.51 38.03,35.67 38.03,35.83 C37.9663138,36.3241328 37.9562553,36.8237042 38,37.32 C38,37.49 38.1,37.66 38.16,37.83 C38.16,37.83 38.16,37.83 38.16,37.83 C38.5290155,38.8014157 39.0940789,39.6864548 39.82,40.43 C40.1315104,40.7472395 40.4657291,41.041352 40.82,41.31 C41.1782797,41.5896549 41.5558883,41.8436217 41.95,42.07 C42.7653157,42.5502913 43.6391975,42.9233716 44.55,43.18 C45.6971952,43.5112293 46.8859603,43.6762421 48.08,43.67 C48.8813134,43.670912 49.6811238,43.6006357 50.47,43.46 C52.2933017,43.1346196 54.0096332,42.3691358 55.47,41.23 C56.7820237,40.2187142 57.7409962,38.8187544 58.21,37.23 C58.5978544,35.6818634 58.4168717,34.0459218 57.7,32.62 C57.3220373,31.8829519 56.8329897,31.2084035 56.25,30.62 C55.9355504,30.3120803 55.6015203,30.0248144 55.25,29.76 C54.8994731,29.4840674 54.5320947,29.2302424 54.15,29 C53.3076961,28.5293187 52.4110577,28.1632753 51.48,27.91 C50.6700774,27.6790922 49.8394158,27.5283673 49,27.46 L48.1,27.46" id="Path" fill="#88C05D"></path>
            <path d="M48.2,29.4199507 C47.7348165,29.418485 47.2701762,29.4519124 46.81,29.52 L46.81,29.52 C46.3876373,29.581243 45.9699856,29.6714558 45.56,29.79 L44.93,30 L44.93,30 C44.65,30.11 44.4,30.21 44.16,30.33 C43.8158109,30.4891281 43.4818349,30.6694752 43.16,30.87 C42.6904291,31.1950819 42.2608002,31.5743637 41.88,32 C41.6594111,32.2363772 41.4587285,32.4905751 41.28,32.76 C41.1406752,32.9601893 41.016976,33.1708122 40.91,33.39 L40.91,33.46 C40.86,33.56 40.82,33.65 40.78,33.75 C40.7423711,33.8315502 40.708993,33.9149954 40.68,34 C40.5449933,34.3776639 40.4576516,34.7707017 40.42,35.17 C40.3602735,35.8453654 40.438526,36.5258226 40.65,37.17 C40.8001113,37.6105978 41.0050537,38.0305616 41.26,38.42 L41.35,38.56 C41.8526574,39.2649256 42.4836709,39.8687988 43.21,40.34 L43.81,40.7 L43.97,40.78 C44.5437542,41.0733589 45.1471689,41.3046679 45.77,41.47 C46.5772075,41.6758094 47.4069685,41.78 48.24,41.78 L48.79,41.78 C49.2769969,41.7545358 49.7615586,41.6943833 50.24,41.6 C50.70684,41.5043683 51.1650445,41.370586 51.61,41.2 C52.4440877,40.8940732 53.2213914,40.4513481 53.91,39.89 C54.5425835,39.3647262 55.0687253,38.7231726 55.46,38 C55.8266411,37.2980109 56.0284201,36.5216746 56.05,35.73 C56.0625149,34.9328404 55.8842237,34.1442448 55.53,33.43 C55.1660137,32.6662104 54.6446047,31.9880378 54,31.44 C53.3122706,30.8493244 52.5273043,30.3824048 51.68,30.06 C51.0353477,29.8109552 50.3643172,29.6364872 49.68,29.54 C49.42,29.54 49.18,29.47 48.93,29.45 L48.73,29.45 C48.540136,29.4398333 48.349864,29.4398333 48.16,29.45" id="Path" fill="#478A33"></path>
            <path d="M48.23,32.83 L48.07,32.83 C47.6739451,32.8313505 47.2800621,32.8885814 46.9,33 L46.73,33 C46.5232393,33.0701462 46.3225689,33.1571034 46.13,33.26 L45.88,33.4 L45.56,33.63 C45.4395498,33.7252471 45.325937,33.8288352 45.22,33.94 L45.12,34.04 C44.8990601,34.2932267 44.7262247,34.5846747 44.61,34.9 C44.4988027,35.1900215 44.4477679,35.499633 44.46,35.81 C44.472325,36.0595786 44.522915,36.305783 44.61,36.54 C44.61,36.54 44.61,36.65 44.68,36.71 C45.0522014,37.4674194 45.699658,38.0540651 46.49,38.35 C47.0391515,38.5733836 47.6271789,38.6855507 48.22,38.68 C48.5833678,38.6807524 48.94566,38.6404977 49.3,38.56 C49.7368747,38.4590053 50.1552644,38.2902998 50.54,38.06 C50.8992307,37.8398569 51.2145546,37.5550483 51.47,37.22 C51.6978702,36.9250235 51.8583028,36.5836778 51.94,36.22 C52.0343955,35.8458622 52.0343955,35.4541378 51.94,35.08 C51.8220139,34.7083105 51.6240409,34.3669777 51.36,34.08 C51.0750733,33.7686018 50.7363174,33.5111473 50.36,33.32 C50.0874424,33.1737988 49.7988475,33.0597031 49.5,32.98 L49.5,32.98 L49.34,32.98 C49.0112125,32.9098069 48.6761838,32.8729537 48.34,32.87" id="Path" fill="#5D5164"></path>
            <path d="M68.18,33.32 C68.1553782,33.3177308 68.1318858,33.3307983 68.120828,33.352914 C68.1097701,33.3750297 68.1134116,33.4016641 68.13,33.42 C69.03,34.82 69.9,36.22 70.75,37.64 C71.16,38.33 71.56,39.03 71.97,39.73 C72.38,40.43 72.79,41.09 73.21,41.73 C74.82,44.34 76.49,46.93 78.15,49.53 C78.229027,49.639546 78.3024544,49.7530248 78.37,49.87 C78.5154512,50.0651018 78.773431,50.1388103 79,50.05 C79.1045931,50.0154192 79.1933032,49.9444512 79.25,49.85 C79.2998254,49.7597538 79.2998254,49.6502462 79.25,49.56 C78.89,49.02 78.54,48.47 78.19,47.93 L76.88,45.93 C76.02,44.63 75.16,43.32 74.29,42.02 L72.93,40.02 C72.47,39.36 72,38.71 71.53,38.02 C71.06,37.33 70.59,36.66 70.13,36.02 C69.67,35.38 69.19,34.63 68.73,33.93 L68.33,33.31 C68.2982545,33.2954495 68.2617455,33.2954495 68.23,33.31 L68.23,33.31" id="Path" fill="#FFFFFF" style="mix-blend-mode: soft-light;"></path>
            <path d="M73,43.89 C72.94,43.89 72.91,43.97 72.94,44.01 C73.37,44.68 73.8,45.36 74.22,46.01 C74.64,46.66 75.06,47.39 75.47,48.09 C75.88,48.79 76.22,49.41 76.6,50.09 C76.98,50.77 77.37,51.38 77.76,52.03 L78.28,52.87 C78.4164392,53.0649636 78.6695738,53.139659 78.89,53.05 C78.9956023,53.0220325 79.0834479,52.9488278 79.13,52.85 C79.1800172,52.7633677 79.1800172,52.6566323 79.13,52.57 C78.93,52.3 78.75,52.02 78.56,51.75 L77.93,50.83 C77.5,50.21 77.05,49.58 76.6,48.96 C75.6,47.64 74.71,46.3 73.81,44.96 L73.15,43.96 C73.1294203,43.9190304 73.0855876,43.8951217 73.04,43.9 L73.04,43.9" id="Path" fill="#FFFFFF" style="mix-blend-mode: soft-light;"></path>
            <path d="M79.72,50.82 C79.6262487,50.8709491 79.5629172,50.9640837 79.55,51.07 C79.5334807,51.1742723 79.5711633,51.2797834 79.65,51.35 C79.7363684,51.4336178 79.8499717,51.4833192 79.97,51.49 C80.0920974,51.4996819 80.2142334,51.4717651 80.32,51.41 C80.413488,51.3567938 80.4791932,51.2655366 80.5,51.16 C80.5122253,51.0541753 80.4709872,50.9492055 80.39,50.88 C80.3077697,50.7962666 80.1971882,50.7463265 80.08,50.74 C79.9546634,50.7295347 79.8291079,50.7574359 79.72,50.82" id="Path" fill="#FFFFFF" style="mix-blend-mode: soft-light;"></path>
            <path d="M47,50.63 C44.6009217,51.9894987 42.4198777,53.7019722 40.53,55.71 C39.6057599,56.6781386 38.7597733,57.7180669 38,58.82 C37.64,59.36 37.27,59.91 37,60.48 C36.73,61.05 36.38,61.61 36.12,62.19 C35.5868538,63.3384059 35.1714001,64.5378608 34.88,65.77 C34.74,66.37 34.62,66.97 34.54,67.58 C34.46,68.19 34.42,68.83 34.4,69.45 C34.3446355,70.9895249 34.5474394,72.5274543 35,74 C35.1431256,74.4944074 35.327092,74.976065 35.55,75.44 C35.6776304,75.6520055 35.9349818,75.7474746 36.17,75.67 C36.2780053,75.6427346 36.3712151,75.5746197 36.43,75.48 C36.4798254,75.3897538 36.4798254,75.2802462 36.43,75.19 L36.09,74.26 C35.99,73.98 35.9,73.69 35.82,73.4 C35.3380796,71.7177618 35.1353882,69.9678597 35.22,68.22 L35.22,68.22 L35.22,68.16 C35.22,67.69 35.29,67.22 35.35,66.76 C35.41,66.3 35.52,65.76 35.63,65.31 C35.8657691,64.324338 36.1766782,63.3581796 36.56,62.42 L36.56,62.42 C36.76,61.92 36.98,61.42 37.23,60.95 C37.48,60.48 37.75,59.95 38.05,59.45 C38.642816,58.4660622 39.3115126,57.5298868 40.05,56.65 L40.05,56.65 C41.5047773,54.9041184 43.1863242,53.3604584 45.05,52.06 L45.05,52.06 C45.72,51.58 46.43,51.13 47.16,50.7 C47.25,50.7 47.16,50.55 47.1,50.55 C47.0810138,50.5409941 47.0589862,50.5409941 47.04,50.55" id="Shape" fill="#FFFFFF" style="mix-blend-mode: soft-light;"></path>
            <path d="M36.31,76.68 C36.326106,76.782011 36.3841138,76.8726483 36.47,76.93 C36.5784787,76.9948938 36.7037452,77.0262104 36.83,77.02 C36.9421608,77.0254779 37.0516595,76.9847121 37.1329312,76.9072205 C37.2142029,76.8297289 37.2601337,76.7222944 37.26,76.61 C37.2463919,76.5070583 37.1877775,76.4154733 37.1,76.36 C36.9920024,76.2939505 36.8663741,76.2625434 36.74,76.27 C36.6286001,76.267316 36.5206998,76.3090118 36.4400522,76.3859084 C36.3594045,76.462805 36.3126208,76.5685986 36.31,76.68" id="Path" fill="#FFFFFF" style="mix-blend-mode: soft-light;"></path>
            <path d="M88.2,62.57 C88.1,62.57 88.01,62.71 88.07,62.79 L88.77,63.92 L89.42,65.07 C89.84,65.81 90.28,66.54 90.73,67.27 C90.95,67.64 91.17,68 91.4,68.36 C91.4,68.36 91.4,68.36 91.4,68.36 L93.08,71 L93.08,71 L93.08,71 C93.1088632,71.0692436 93.157576,71.1283948 93.22,71.17 C93.3614012,71.2547924 93.5318317,71.2765494 93.69,71.23 C93.8021627,71.2061784 93.8997093,71.1375345 93.96,71.04 C93.9780556,70.9779535 93.9780556,70.9120465 93.96,70.85 C93.949003,70.7792965 93.9177408,70.7132985 93.87,70.66 C93.53,70.13 93.19,69.6 92.87,69.08 C92.64,68.72 92.4,68.37 92.17,68.02 L92.17,68.02 C92.1719024,67.9967054 92.1719024,67.9732946 92.17,67.95 C91.63,67.14 91.09,66.33 90.52,65.53 C89.95,64.73 89.29,63.85 88.72,62.99 L88.72,62.99 L88.48,62.6 C88.4307009,62.53292 88.3532147,62.492332 88.27,62.49 L88.2,62.49" id="Shape" fill="#FFFFFF" style="mix-blend-mode: soft-light;"></path>
            <path d="M73.34,68 C73.22,68 73.12,68.16 73.18,68.26 C73.49,68.74 73.78,69.26 74.06,69.73 C74.34,70.2 74.58,70.66 74.85,71.12 L75.5,72.2 L75.81,72.7 C75.91,72.86 76.02,73.02 76.12,73.19 C76.1692799,73.2888307 76.2555023,73.3642753 76.36,73.4 C76.480143,73.4396727 76.609857,73.4396727 76.73,73.4 C76.8380053,73.3727346 76.9312151,73.3046197 76.99,73.21 C77.0168892,73.143124 77.0204128,73.0691285 77,73 C77.0200513,72.934841 77.0200513,72.865159 77,72.8 L77,72.8 L77,72.86 C76.78,72.53 76.57,72.2 76.35,71.86 C76.13,71.52 75.9,71.21 75.68,70.86 C75.1,70.01 74.46,69.2 73.89,68.35 C73.82,68.25 73.76,68.15 73.7,68.05 C73.6699933,67.9960252 73.6195417,67.9563848 73.56,67.94 L73.46,67.94 L73.37,67.94" id="Shape" fill="#FFFFFF" style="mix-blend-mode: soft-light;"></path>
            <path d="M100.65,78 C100.462276,77.9985875 100.276207,77.9647567 100.1,77.9 L100.1,73.6 C100.274196,73.5271301 100.461177,73.489734 100.65,73.4899986 L100.65,78 Z" id="Path" fill="#FFCE05"></path>
            <path d="M99.44,77.45 C99.2306289,77.2129668 99.0463164,76.9549293 98.89,76.68 L98.89,74.84 C99.0429249,74.5629185 99.2274931,74.3045229 99.44,74.07 L99.44,76.72 L99.44,76.72 L99.44,77.45 Z" id="Path" fill="#FFCE05"></path>
            <path d="M97.68,76.2 L97.68,76.2 L97.68,74.43 C97.8548073,74.692528 98.0118258,74.966475 98.15,75.25 C98.1771489,75.2911678 98.2005749,75.3346732 98.22,75.38 L98.22,76.14 L98.15,76.27 L98.15,76.27 C98.0063875,76.5526019 97.8461049,76.826418 97.67,77.09 L97.68,76.2 Z" id="Path" fill="#FFCE05"></path>
            <path d="M97,77.77 C96.8339017,77.8826931 96.6468753,77.9609041 96.45,78 L96.45,73.52 C96.6431994,73.5554672 96.8270203,73.6303572 96.99,73.74 L96.99,77.74 L97,77.77 Z" id="Path" fill="#FFCE05"></path>
            <path d="M95.8,78 C95.6015016,77.9449065 95.414992,77.8533472 95.25,77.73 L95.25,77.15 L95.25,77.15 L95.25,74.38 L95.25,74.38 L95.25,73.8 C95.414992,73.6766528 95.6015016,73.5850935 95.8,73.53 L95.8,73.91 L95.8,73.91 L95.8,78 Z" id="Path" fill="#FFCE05"></path>
            <path d="M94.59,77 C94.4482258,76.7768568 94.3180529,76.5465509 94.2,76.31 C94.2,76.21 94.1,76.1 94.04,76 L94.04,75.59 L94.2,75.28 C94.33,75.04 94.46,74.81 94.6,74.59 L94.6,75.52 L94.6,75.52 L94.6,76 L94.6,76 L94.59,77 Z" id="Path" fill="#FFCE05"></path>
            <path d="M92.83,76.84 L92.83,76.84 L92.83,74 C93.0389351,74.2168706 93.220306,74.4586985 93.37,74.72 L93.37,75.88 L93.37,75.88 L93.37,76.88 C93.2139013,77.1365632 93.0294053,77.3747307 92.82,77.59 L92.83,76.84 Z" id="Path" fill="#FFCE05"></path>
            <path d="M92.16,78 C92.0107728,78.0450769 91.8558809,78.0686474 91.7,78.07 L91.61,78.07 L91.61,73.49 L91.69,73.49 C91.8458809,73.4913526 92.0007728,73.5149231 92.15,73.56 L92.15,74 L92.15,74 L92.15,78 L92.16,78 Z" id="Path" fill="#FFCE05"></path>
            <path d="M91,77.82 C90.7915452,77.6912974 90.6057226,77.529125 90.45,77.34 L90.45,74.16 C90.6057226,73.970875 90.7915452,73.8087026 91,73.68 L91,74.18 L91,74.18 L91,77.82 L91,77.82 Z" id="Path" fill="#FFCE05"></path>
            <polygon id="Path" fill="#FFCE05" points="89.74 75.2 89.47 75.75 89.74 76.29"></polygon>
            <path d="M89.2,75.2 L89.2,76.29 C89.3,76.12 89.39,75.93 89.48,75.75 L89.2,75.2 Z" id="Path" fill="#FFCE05"></path>
            <path d="M88,77.82 L88,77.31 L88,77.31 L88,73.68 C88.2068023,73.8029143 88.3897322,73.9621311 88.54,74.15 L88.54,76.56 L88.54,76.56 L88.54,77.34 C88.3872881,77.5282892 88.2048948,77.6904166 88,77.82 Z" id="Path" fill="#FFCE05"></path>
            <path d="M87.31,78 L87.23,78 C87.0705499,78.002671 86.9117514,77.9790201 86.76,77.93 L86.76,77.53 L86.76,77.53 L86.76,73.53 C86.9074702,73.4766195 87.0631665,73.4495419 87.22,73.4499943 L87.3,73.4499943 L87.3,78 L87.31,78 Z" id="Path" fill="#FFCE05"></path>
            <path d="M86.1,77.52 C85.8885359,77.302856 85.7038834,77.0611292 85.55,76.8 L85.55,74.68 C85.7006342,74.4197196 85.8856296,74.1809074 86.1,73.97 L86.1,74.65 L86.1,74.65 L86.1,76.83 L86.1,76.83 L86.1,77.52 Z" id="Path" fill="#FFCE05"></path>
            <path d="M84.34,76.94 L84.34,74.54 C84.48,74.75 84.6,74.99 84.73,75.23 L84.88,75.54 L84.88,76 L84.72,76.31 L84.72,76.31 C84.6056156,76.5271677 84.4787361,76.7375207 84.34,76.94 Z" id="Path" fill="#FFCE05"></path>
            <path d="M83.67,77.69 C83.5121348,77.8187537 83.3277221,77.91096 83.13,77.96 L83.13,77.58 L83.13,77.58 L83.13,73.52 C83.3256576,73.5694581 83.5093231,73.6578897 83.67,73.78 L83.67,74.36 L83.67,74.36 L83.67,77.1 L83.67,77.1 L83.67,77.69 Z" id="Path" fill="#FFCE05"></path>
            <path d="M82.46,78 C82.2636599,77.9591637 82.0769614,77.8810898 81.91,77.77 L81.91,73.77 C82.0774852,73.6619903 82.2642282,73.5872931 82.46,73.55 L82.46,73.91 L82.46,73.91 L82.46,78 Z" id="Path" fill="#FFCE05"></path>
            <path d="M81.25,77.06 C81.0714951,76.8032761 80.9143036,76.5323716 80.78,76.25 L80.7,76.11 L80.7,75.36 L80.77,75.22 C80.9114249,74.9394156 81.071796,74.6687894 81.25,74.41 L81.25,77.06 L81.25,77.06 Z" id="Path" fill="#FFCE05"></path>
            <path d="M79.49,76.69 L79.49,76.69 L79.49,74 C79.6992933,74.2384494 79.8804826,74.5001673 80.03,74.78 L80.03,76.61 C79.8736674,76.8880262 79.6893801,77.1493791 79.48,77.39 L79.49,76.69 Z" id="Path" fill="#FFCE05"></path>
            <path d="M78.82,77.9 C78.6475046,77.9656297 78.4645581,77.9995087 78.28,78 L78.28,78 L78.28,73.4599602 C78.4657057,73.4585638 78.6496539,73.4960347 78.82,73.57 L78.82,77.9 Z" id="Path" fill="#FFCE05"></path>
            <path d="M80.52,74.74 C80.1566813,73.8124826 79.2847284,73.1829561 78.29,73.13 L78.29,73.8 C79.03,73.8 79.55,74.8 80,75.73 L80.06,75.63 C80.21,75.33 80.36,75 80.52,74.74 Z" id="Path" fill="#1D95A3"></path>
            <path d="M89,75.75 L89,75.75 C88.9,75.55 88.8,75.34 88.69,75.15 L88.55,75 L88.55,75 C88.47,74.86 88.38,74.72 88.29,74.59 L88.23,74.51 L88.07,74.31 L88,74.18 L88,74.18 L87.94,74.18 C87.9182355,74.1515959 87.8910418,74.1278015 87.86,74.11 L87.86,74.11 L87.74,74 L87.74,74 L87.74,74 L87.74,74 L87.68,74 L87.68,74 C87.6271842,73.9894925 87.5728158,73.9894925 87.52,74 L87.1,74 C87.0207972,74.0139989 86.9435726,74.0375021 86.87,74.07 L86.81,74.07 L86.81,74.07 L86.81,74.07 L86.81,74.07 L86.81,74.07 L86.72,74.14 L86.56,74.3 L86.48,74.39 L86.48,74.39 L86.41,74.48 L86.28,74.67 L86.28,74.67 L86.2,74.79 C86.1603149,74.8621937 86.1169237,74.9322873 86.07,75 C86.07,75.09 85.98,75.17 85.94,75.25 C85.9128511,75.2911678 85.8894251,75.3346732 85.87,75.38 C85.87,75.47 85.77,75.57 85.73,75.66 C85.7319072,75.6866326 85.7319072,75.7133674 85.73,75.74 L85.73,75.74 L85.73,75.65 C85.59,75.35 85.44,75.05 85.28,74.76 C85.6047694,73.802244 86.5036782,73.1578753 87.515,73.1578753 C88.5263218,73.1578753 89.4252306,73.802244 89.75,74.76 C89.66,74.92 89.57,75.08 89.49,75.24 L89.49,75.24 C89.42,75.36 89.36,75.48 89.3,75.61 L89.25,75.7 L89,75.75 Z" id="Path" fill="#1D95A3"></path>
            <path d="M94.46,75.75 L94.4,75.65 C94.26,75.35 94.11,75.04 93.95,74.76 C94.2747694,73.802244 95.1736782,73.1578753 96.185,73.1578753 C97.1963218,73.1578753 98.0952306,73.802244 98.42,74.76 C98.26,75.05 98.11,75.35 97.96,75.65 L97.9,75.76 C97.45,74.83 96.9,73.82 96.19,73.82 C95.48,73.82 94.92,74.83 94.46,75.75 Z" id="Path" fill="#1D95A3"></path>
            <path d="M82.75,78.34 C81.7524447,78.2883828 80.8768837,77.6590733 80.51,76.73 L80.65,76.49 C80.65,76.41 80.73,76.33 80.78,76.25 C80.83,76.17 80.91,75.98 80.98,75.84 L80.98,75.74 C81.05,75.88 81.13,76.03 81.2,76.18 C81.3797008,76.5382487 81.6012475,76.8739255 81.86,77.18 L81.95,77.27 C82.0657808,77.3957964 82.2050663,77.4977126 82.36,77.57 L82.36,77.57 L82.43,77.57 L82.49,77.57 L82.76,77.57 L82.84,77.57 L82.84,77.57 L82.9,77.57 L82.9,77.57 L82.97,77.57 L82.97,77.57 L83.06,77.57 C83.0941748,77.5571091 83.1249565,77.5365879 83.15,77.51 L83.23,77.45 L83.31,77.38 L83.31,77.38 L83.37,77.32 C83.4187298,77.2712877 83.4622945,77.2176695 83.5,77.16 L83.5,77.16 C83.5233824,77.1154398 83.5537693,77.074924 83.59,77.04 L83.67,76.92 C83.67,76.92 83.67,76.92 83.67,76.92 L83.88,76.57 C83.88,76.57 83.88,76.49 83.95,76.44 C83.9769957,76.4022518 84.0004295,76.3620796 84.02,76.32 L84.14,76.08 L84.28,75.81 C84.2837443,75.8465711 84.2837443,75.8834289 84.28,75.92 L84.43,76.21 L84.43,76.33 L84.43,76.33 L84.69,76.81 C84.3485225,77.6189589 83.6162665,78.1964598 82.75,78.34 Z" id="Path" fill="#1D95A3"></path>
            <path d="M91.7,78.35 C90.7085627,78.2962955 89.838447,77.6719972 89.47,76.75 L89.58,76.53 L89.73,76.26 L89.73,76.26 L89.73,76.26 L89.92,75.89 C89.9182754,75.8533536 89.9182754,75.8166464 89.92,75.78 C90.05,76.05 90.2,76.33 90.34,76.59 L90.41,76.7 C90.4496851,76.7721937 90.4930763,76.8422873 90.54,76.91 L90.61,77 L90.67,77.09 C90.7378909,77.181129 90.8113651,77.2679621 90.89,77.35 L91.01,77.46 L91.07,77.46 L91.07,77.46 C91.118576,77.5004013 91.1723981,77.5340402 91.23,77.56 C91.2726198,77.5883655 91.3200665,77.6086999 91.37,77.62 L91.44,77.62 L91.54,77.62 L91.77,77.62 C91.8488332,77.6044909 91.925893,77.5810379 92,77.55 L92.05,77.55 L92.05,77.55 L92.05,77.55 L92.05,77.55 L92.1,77.55 L92.18,77.48 L92.27,77.4 L92.35,77.32 C92.35,77.26 92.46,77.2 92.51,77.13 L92.57,77.04 C92.6088851,76.9975594 92.6424649,76.9505477 92.67,76.9 L92.67,76.9 L92.74,76.79 C92.7669957,76.7522518 92.7904295,76.7120796 92.81,76.67 C92.8570115,76.5989033 92.9004002,76.5254763 92.94,76.45 L93.01,76.32 L93.22,75.92 L93.22,75.92 C93.238657,75.8876996 93.2553539,75.8543059 93.27,75.82 L93.27,75.93 C93.42,76.23 93.57,76.53 93.73,76.82 C93.3755621,77.6562723 92.6015531,78.2396387 91.7,78.35 Z" id="Path" fill="#1D95A3"></path>
            <path d="M100.65,78.37 C99.6552716,78.3170439 98.7833187,77.6875174 98.42,76.76 C98.58,76.47 98.73,76.17 98.88,75.87 C98.88,75.87 98.88,75.87 98.88,75.87 L98.88,75.79 C99.04,76.11 99.21,76.45 99.39,76.79 L99.39,76.79 C99.5591473,77.0890827 99.7830394,77.3536824 100.05,77.57 C100.209287,77.6900219 100.400824,77.7596719 100.6,77.77 L100.6,78.44 L100.65,78.37 Z" id="Path" fill="#1D95A3"></path>
            <path d="M98.93,75.76 L98.88,75.65 C98.73,75.35 98.58,75.05 98.42,74.76 C98.7940118,73.8380375 99.6665722,73.21478 100.66,73.16 L100.66,73.83 C99.92,73.83 99.39,74.83 98.93,75.76 Z" id="Path" fill="#EC632A"></path>
            <path d="M93.43,75.75 L93.43,75.75 L93.43,75.66 C93.2671559,75.3158009 93.083482,74.9818483 92.88,74.66 L92.81,74.55 L92.74,74.46 L92.59,74.26 L92.42,74.1 L92.29,74 L92.18,74 L92.18,74 L92.18,74 L92.09,74 L92.01,74 L91.69,74 C91.5503489,74.0133673 91.4162696,74.0614983 91.3,74.14 L91.22,74.19 L91.13,74.26 L91.04,74.35 L91.04,74.35 L91.04,74.35 L90.97,74.43 L90.97,74.43 C90.9415959,74.4517645 90.9178015,74.4789582 90.9,74.51 L90.77,74.68 C90.77,74.73 90.7,74.78 90.67,74.84 C90.6230763,74.9077127 90.5796851,74.9778063 90.54,75.05 L90.42,75.26 C90.35,75.38 90.29,75.5 90.23,75.63 L90.12,75.84 L90.12,75.84 L90.12,75.84 L90.12,75.75 C90.06,75.62 90,75.5 89.93,75.37 C89.86,75.24 89.93,75.37 89.93,75.37 L89.83,75.18 L89.69,74.93 C90.0649816,74.0072677 90.935874,73.3813138 91.93,73.32 C92.2790292,73.3181109 92.622922,73.4040841 92.93,73.57 C93.3783623,73.8734864 93.7456999,74.2820207 94,74.76 C93.83,75.04 93.68,75.34 93.53,75.64 C93.5316677,75.6733125 93.5316677,75.7066875 93.53,75.74 L93.43,75.75 Z" id="Path" fill="#EC632A"></path>
            <path d="M81,75.74 C81.46,74.81 82,73.8 82.73,73.8 C83.46,73.8 83.99,74.8 84.45,75.74 C84.4537443,75.7034289 84.4537443,75.6665711 84.45,75.63 C84.6,75.33 84.75,75.03 84.92,74.74 C84.5997977,73.7746096 83.6971078,73.122967 82.68,73.122967 C81.6628922,73.122967 80.7602023,73.7746096 80.44,74.74 C80.6,75.02 80.75,75.33 80.9,75.63 L81,75.74 Z" id="Path" fill="#EC632A"></path>
            <path d="M87.22,78.35 C86.8721138,78.3524731 86.5288699,78.2700946 86.22,78.11 C85.6961591,77.7729571 85.2743157,77.2992477 85,76.74 C85.16,76.45 85.32,76.15 85.46,75.85 L85.52,75.74 C85.5164438,75.7732385 85.5164438,75.8067615 85.52,75.84 L85.64,76.1 L85.78,76.35 C85.7972712,76.3963339 85.8208246,76.440076 85.85,76.48 C85.8961646,76.5600896 85.9426447,76.6399083 85.9892287,76.7197665 L86.0592287,76.8297665 L86.0592287,76.8297665 C86.1201543,76.9270702 86.1869444,77.0205763 86.2592287,77.1097665 L86.3192287,77.1797665 L86.4192287,77.2997665 L86.4792287,77.3597665 C86.5543061,77.4260639 86.6345615,77.4862555 86.7192287,77.5397665 L86.7192287,77.5397665 L86.7192287,77.5397665 L86.8092287,77.5397665 L86.8792287,77.5397665 L86.8792287,77.5397665 L87.1892287,77.5397665 L87.3192287,77.5397665 L87.3892287,77.5397665 L87.4592287,77.5397665 L87.5292287,77.5397665 L87.5292287,77.5397665 L87.6192287,77.4797665 L87.7092287,77.4097665 L87.7892287,77.3397665 L87.7892287,77.3397665 C87.7892287,77.3397665 87.7892287,77.3397665 87.7892287,77.3397665 C87.7892287,77.3397665 87.7892287,77.3397665 87.7892287,77.3397665 L87.8692287,77.2497665 L87.9492287,77.1597665 L87.9492287,77.0897665 L87.9992287,77.0197665 C88.0041179,76.993324 88.0041179,76.9662091 87.9992287,76.9397665 C88.0682888,76.8469756 88.1317355,76.7501359 88.1892287,76.6497665 L88.1892287,76.6497665 C88.2187112,76.5877067 88.252112,76.5275852 88.2892287,76.4697665 L88.2892287,76.4697665 C88.3892287,76.2697665 88.4892287,76.0697665 88.5992287,75.8697665 C88.6118572,75.9049705 88.6286426,75.9385413 88.6492287,75.9697665 L88.8292287,76.3497665 L88.8292287,76.3497665 C88.8292287,76.3497665 88.8292287,76.3497665 88.8292287,76.3497665 C88.9092287,76.5197665 88.9992287,76.6797665 89.0892287,76.8397665 C88.7515298,77.6192614 88.0530447,78.1835988 87.22,78.35 Z" id="Path" fill="#EC632A"></path>
            <path d="M96.17,78.36 C95.1778724,78.2997179 94.309454,77.6727432 93.94,76.75 C94.03,76.59 94.12,76.43 94.2,76.27 C94.28,76.11 94.34,76 94.4,75.86 L94.46,75.75 C94.46,75.84 94.54,75.93 94.59,76.02 L94.59,76.02 C94.7748982,76.4066169 94.9958784,76.7749171 95.25,77.12 L95.25,77.12 L95.31,77.18 L95.31,77.24 C95.3380989,77.2781862 95.3718138,77.3119011 95.41,77.34 C95.4416881,77.3784296 95.4787332,77.412107 95.52,77.44 L95.57,77.44 L95.75,77.55 L95.93,77.62 L96.13,77.62 C96.2227212,77.6351177 96.3172788,77.6351177 96.41,77.62 C96.5080545,77.5861185 96.5994303,77.5353542 96.68,77.47 L96.77,77.4 C96.7957834,77.3792527 96.8192527,77.3557834 96.84,77.33 C96.8870962,77.2977885 96.9277885,77.2570962 96.96,77.21 L96.96,77.21 C96.9899007,77.175798 97.0166746,77.138984 97.04,77.1 L97.13,76.99 L97.22,76.87 C97.36,76.66 97.49,76.42 97.62,76.18 L97.62,76.18 L97.84,75.74 L97.9,75.85 L98.1,76.25 L98.1,76.25 L98.1,76.25 C98.18,76.4 98.25,76.54 98.34,76.69 C97.9941113,77.6147809 97.1525193,78.2624577 96.17,78.36 Z" id="Path" fill="#EC632A"></path>
            <path d="M78.27,78.34 L78.27,77.67 C78.4706371,77.6672399 78.6644542,77.596761 78.82,77.47 C79.0949674,77.2592334 79.3231259,76.993616 79.49,76.69 L79.49,76.69 C79.6791221,76.3667697 79.849406,76.0328797 80,75.69 L80,75.77 L80,75.77 C80.14,76.07 80.29,76.38 80.45,76.66 C80.1096896,77.5946953 79.2605549,78.2490744 78.27,78.34 Z" id="Path" fill="#EC632A"></path>
            <path d="M90,75.75 L90,75.64 C89.85,75.34 89.7,75.04 89.54,74.75 C89.38,75.04 89.23,75.34 89.08,75.64 C89.0574184,75.6736792 89.0405265,75.7108413 89.03,75.75 L89.08,75.85 C89.23,76.16 89.37,76.46 89.54,76.74 C89.7,76.46 89.85,76.16 90,75.86 L90,75.75 Z" id="Path" fill="#EC632A"></path>
            <path d="M94.46,75.75 L94.4,75.65 C94.26,75.35 94.11,75.04 93.95,74.76 C93.78,75.04 93.63,75.34 93.48,75.64 C93.4854809,75.6764618 93.4854809,75.7135382 93.48,75.75 L93.48,75.86 C93.63,76.16 93.78,76.46 93.94,76.75 C94.1,76.46 94.25,76.16 94.4,75.86 L94.46,75.75 Z" id="Path" fill="#1D95A3"></path>
            <path d="M81,75.74 L81,75.63 C80.85,75.33 80.7,75.02 80.54,74.74 C80.38,75.02 80.23,75.33 80.08,75.63 L80.02,75.73 L80.08,75.84 C80.23,76.14 80.37,76.45 80.54,76.73 C80.7,76.45 80.85,76.14 81,75.84 L81,75.74 Z" id="Path" fill="#EC632A"></path>
            <path d="M85.51,75.74 L85.45,75.63 C85.31,75.33 85.16,75.03 85,74.74 C84.83,75.03 84.68,75.33 84.53,75.63 C84.4993821,75.6583857 84.4819804,75.6982483 84.4819804,75.74 C84.4819804,75.7817517 84.4993821,75.8216143 84.53,75.85 C84.68,76.15 84.83,76.45 84.99,76.74 C85.15,76.45 85.3,76.15 85.45,75.85 L85.51,75.74 Z" id="Path" fill="#1D95A3"></path>
            <path d="M97.9,75.76 L97.96,75.87 C98.11,76.17 98.25,76.47 98.42,76.76 C98.58,76.47 98.73,76.17 98.88,75.87 L98.93,75.76 L98.88,75.65 C98.73,75.35 98.58,75.05 98.42,74.76 C98.26,75.05 98.11,75.35 97.96,75.65 L97.9,75.76 Z" id="Path" fill="#EC632A"></path>
            <polygon id="Path" fill="#F3922B" points="84.48 75.74 84.48 75.74 84.33 75.74 84.33 76 84.47 75.73"></polygon>
            <path d="M83.22,77.53 C83.2541748,77.5171091 83.2849565,77.4965879 83.31,77.47 L83.39,77.41 L83.47,77.34 L83.47,77.34 L83.53,77.28 C83.5787298,77.2312877 83.6222945,77.1776695 83.66,77.12 L83.66,77.12 L83.66,75.72 L83.11,75.72 L83.11,77.58 L83.11,77.58 L83.22,77.53 Z" id="Path" fill="#F3922B"></path>
            <path d="M90.6,76.88 L90.67,76.97 L90.73,77.06 C90.7978909,77.151129 90.8713651,77.2379621 90.95,77.32 L90.95,75.73 L90.4,75.73 L90.4,76.56 L90.47,76.67 C90.5096851,76.7421937 90.5530763,76.8122873 90.6,76.88 Z" id="Path" fill="#F3922B"></path>
            <path d="M100.66,75.75 L100.11,75.75 L100.11,77.5 C100.269287,77.6200219 100.460824,77.6896719 100.66,77.7 L100.66,75.75 Z" id="Path" fill="#F3922B"></path>
            <path d="M92.83,76.84 L92.83,75.74 L93.38,75.74 L93.38,75.85 L93.38,75.85 L93.17,76.25 L93.1,76.38 C93.0604002,76.4554763 93.0170115,76.5289033 92.97,76.6 C92.9504295,76.6420796 92.9269957,76.6822518 92.9,76.72 L92.83,76.84 Z" id="Path" fill="#F3922B"></path>
            <path d="M91.8,77.68 L91.8,77.68 C91.8788332,77.6644909 91.955893,77.6410379 92.03,77.61 L92.08,77.61 L92.08,77.61 L92.08,75.74 L91.53,75.74 L91.53,77.74 L91.72,77.74 L91.8,77.68 Z" id="Path" fill="#F3922B"></path>
            <path d="M80.78,76.25 C80.84,76.11 80.91,75.98 80.98,75.84 L80.98,75.74 C81.05,75.88 81.13,76.03 81.2,76.18 L81.2,75.72 L79.49,75.72 L79.49,76.72 L79.49,76.72 C79.3231259,77.023616 79.0949674,77.2892334 78.82,77.5 L78.82,75.71 L78.27,75.71 L78.27,78.34 C79.2658288,78.2834818 80.1390212,77.6558747 80.51,76.73 L80.65,76.49 C80.69,76.41 80.73,76.33 80.78,76.25 Z" id="Path" fill="#F3922B"></path>
            <path d="M89.73,76.26 L89.73,76.26 L89.73,76.26 L89.92,75.89 C89.9182754,75.8533536 89.9182754,75.8166464 89.92,75.78 L89.92,75.78 L89,75.78 L89,75.78 C88.89,75.98 88.79,76.18 88.69,76.38 L88.69,76.38 C88.6528833,76.4378187 88.6194826,76.4979401 88.59,76.56 L88.59,75.73 L88,75.73 L88,77.31 L88,77.31 L88,77.31 L87.92,77.38 L87.83,77.45 L87.74,77.51 L87.74,77.51 L87.67,77.51 L87.6,77.51 L87.53,77.51 L87.4,77.51 L87.4,75.73 L86.85,75.73 L86.85,77.54 C86.7653328,77.486489 86.6850774,77.4262974 86.61,77.36 L86.55,77.3 L86.45,77.18 L86.39,77.11 C86.3177157,77.0208097 86.2509256,76.9273036 86.19,76.83 L86.19,76.83 L86.19,75.72 L85.59,75.72 L85.59,75.72 L85.53,75.83 C85.38,76.13 85.23,76.43 85.07,76.72 C85.3379216,77.2866472 85.7653989,77.7627804 86.3,78.09 C86.6088699,78.2500946 86.9521138,78.3324731 87.3,78.33 C88.2954409,78.274183 89.1704693,77.6519406 89.55,76.73 L89.66,76.51 L89.73,76.26 Z" id="Path" fill="#F3922B"></path>
            <path d="M98.89,75.84 L98.89,75.76 C99.05,76.08 99.22,76.42 99.4,76.76 L99.4,75.76 L97.68,75.76 L97.68,76.21 L97.68,76.21 C97.55,76.45 97.42,76.69 97.28,76.9 L97.19,77.02 L97.1,77.13 C97.0766746,77.168984 97.0499007,77.205798 97.02,77.24 L97.02,77.24 L97.02,75.75 L96.47,75.75 L96.47,77.65 C96.3772788,77.6651177 96.2827212,77.6651177 96.19,77.65 L96,77.65 L95.82,77.58 L95.82,75.74 L95.28,75.74 L95.28,77.13 C95.0258784,76.7849171 94.8048982,76.4166169 94.62,76.03 L94.62,76.03 L94.62,75.75 L94.49,75.75 L94.43,75.86 C94.28,76.16 94.13,76.46 93.97,76.75 C94.3333187,77.6775174 95.2052716,78.3070439 96.2,78.36 C97.1954409,78.304183 98.0704693,77.6819406 98.45,76.76 C98.61,76.47 98.76,76.17 98.91,75.87 C98.88,75.86 98.89,75.85 98.89,75.84 Z" id="Path" fill="#F3922B"></path>
            <path d="M82.41,77.6 L82.41,77.6 L82.41,75.7 L81.86,75.7 L81.86,77.19 L81.95,77.28 C82.078458,77.4185964 82.2353809,77.5277602 82.41,77.6 Z" id="Path" fill="#F3922B"></path>
            <g id="Group" opacity="0.8" style="mix-blend-mode: multiply;" transform="translate(98.000000, 75.000000)" fill="#1D95A3">
                <path d="M2.65,3.37 L2.65,2.7 C2.45082441,2.68967187 2.25928695,2.62002188 2.1,2.5 C1.83303941,2.2836824 1.60914733,2.01908267 1.44,1.72 L1.44,1.72 C1.26,1.42 1.09,1.08 0.93,0.72 L0.93,0.8 C0.93,0.8 0.93,0.8 0.93,0.8 C0.78,1.1 0.63,1.4 0.47,1.69 C0.80401703,2.62928214 1.65661315,3.28632869 2.65,3.37 L2.65,3.37 Z" id="Path"></path>
            </g>
            <path d="M94.45,75.74 L94.45,75.65 C94.31,75.35 94.16,75.04 94,74.76 C93.83,75.04 93.68,75.34 93.53,75.64 L93.53,75.74 L94.53,75.74 L94.45,75.74 Z" id="Path" fill="#1D95A3"></path>
            <g id="Group" opacity="0.8" style="mix-blend-mode: multiply;" transform="translate(89.000000, 75.000000)" fill="#1D95A3">
                <path d="M4.94,1.75 L4.94,1.75 C5.1,1.46 5.25,1.16 5.4,0.86 L5.46,0.75 L4.46,0.75 C4.44535387,0.784305899 4.42865704,0.81769956 4.41,0.85 L4.41,0.85 L4.2,1.25 L4.13,1.38 C4.09040015,1.45547632 4.04701149,1.52890329 4,1.6 C3.98042955,1.64207955 3.95699571,1.68225185 3.93,1.72 L3.86,1.83 L3.86,1.83 C3.83246492,1.88054772 3.79888511,1.92755945 3.76,1.97 L3.7,2.06 C3.7,2.13 3.59,2.19 3.54,2.25 L3.46,2.33 L3.37,2.41 L3.29,2.48 L3.24,2.48 L3.24,2.48 L3.24,2.48 L3.24,2.48 L3.19,2.48 C3.11589298,2.51103786 3.03883315,2.53449086 2.96,2.55 L2.73,2.55 L2.63,2.55 L2.56,2.55 C2.5100665,2.53869985 2.46261976,2.51836554 2.42,2.49 C2.36239811,2.46404015 2.30857597,2.43040132 2.26,2.39 L2.26,2.39 L2.2,2.39 L2,2.32 C1.92136511,2.23796211 1.8478909,2.15112895 1.78,2.06 L1.67,2 L1.6,1.91 C1.55307632,1.84228731 1.50968507,1.77219374 1.47,1.7 L1.4,1.59 C1.26,1.33 1.11,1.05 0.98,0.78 C0.9782754,0.816646388 0.9782754,0.853353612 0.98,0.89 L0.79,1.26 L0.79,1.26 L0.79,1.26 L0.64,1.53 L0.53,1.75 C0.854769411,2.707756 1.75367823,3.35212468 2.765,3.35212468 C3.77632177,3.35212468 4.67523059,2.707756 5,1.75 L4.94,1.75 Z" id="Path"></path>
            </g>
            <polygon id="Path" fill="#1D95A3" points="93.48 75.86 93.48 75.86 93.74 76.37"></polygon>
            <path d="M85.5,75.72 L85.5,75.72 L85.5,75.63 C85.36,75.33 85.21,75.03 85.05,74.74 C84.88,75.03 84.73,75.33 84.58,75.63 L84.58,75.72 L85.58,75.72 L85.5,75.72 Z" id="Path" fill="#1D95A3"></path>
            <g id="Group" opacity="0.8" style="mix-blend-mode: multiply;" transform="translate(80.000000, 75.000000)" fill="#1D95A3">
                <path d="M5,1.74 L5,1.74 C5.16,1.45 5.31,1.15 5.46,0.85 L5.52,0.74 L5.52,0.74 L4.52,0.74 L4.52,0.74 L4.52,0.74 L4.38,1.01 L4.26,1.25 C4.24042955,1.29207955 4.21699571,1.33225185 4.19,1.37 C4.19,1.37 4.14,1.46 4.12,1.5 L3.91,1.85 C3.91,1.85 3.91,1.85 3.91,1.85 L3.83,1.97 C3.79376931,2.00492396 3.76338241,2.04543983 3.74,2.09 L3.74,2.09 C3.70229454,2.14766953 3.65872977,2.20128772 3.61,2.25 L3.55,2.31 L3.55,2.31 L3.47,2.38 L3.39,2.44 C3.3649565,2.46658792 3.33417481,2.48710905 3.3,2.5 L3.21,2.5 L3.21,2.5 L3.14,2.5 L3.14,2.5 L3.08,2.5 L3.08,2.5 L3,2.5 L2.73,2.5 L2.67,2.5 L2.6,2.5 L2.6,2.5 C2.44506628,2.42771257 2.30578083,2.32579638 2.19,2.2 L2.1,2.11 C1.84124746,1.80392546 1.61970079,1.46824869 1.44,1.11 C1.37,0.96 1.29,0.81 1.22,0.67 L1.22,0.77 C1.15,0.91 1.08,1.04 1.02,1.18 C0.96,1.32 0.93,1.34 0.89,1.42 L0.75,1.66 C1.08008402,2.61510339 1.97946651,3.25585531 2.99,3.25585531 C4.00053349,3.25585531 4.89991598,2.61510339 5.23,1.66 L5,1.74 Z" id="Path"></path>
            </g>
        </g>
    </g>
</svg>