<?xml version="1.0" encoding="UTF-8"?>
<svg width="133px" height="134px" viewBox="0 0 133 134" version="1.1" xmlns="http://www.w3.org/2000/svg" xmlns:xlink="http://www.w3.org/1999/xlink">
    <title>subjects/chemistry</title>
    <g id="subjects/chemistry" stroke="none" stroke-width="1" fill="none" fill-rule="evenodd">
        <g id="chemistry" fill-rule="nonzero">
            <path d="M133,66.5 C133,76.0437891 130.989414,85.12 127.365684,93.3233984 C126.357793,95.6145312 125.22002,97.838125 123.962754,99.9837891 C123.121113,101.433281 122.219727,102.846406 121.271582,104.223164 C121.144297,104.407598 121.017012,104.592031 120.887129,104.773867 C120.162383,105.799941 119.41166,106.807832 118.629766,107.789746 C117.767344,108.880762 116.868555,109.943203 115.935996,110.97707 C103.763379,124.497871 86.125293,133 66.5,133 C46.874707,133 29.2366211,124.497871 17.0640039,110.97707 C15.3469531,109.070391 13.7364062,107.062402 12.2479492,104.963496 C4.53550781,94.105293 0,80.8312695 0,66.5 C0,50.4516797 5.68626953,35.7307617 15.1521289,24.2413281 C15.9807812,23.2360352 16.8380078,22.2541211 17.7212109,21.3007813 C18.5212891,20.4383594 19.3421484,19.5993164 20.1837891,18.7810547 C32.1589844,7.15914063 48.4930469,0 66.5,0 C71.32125,0 76.0204102,0.514335938 80.5507227,1.48845703 C81.039082,1.59236328 81.5248437,1.7040625 82.0080078,1.82095703 C82.9899219,2.05214844 83.964043,2.30931641 84.9277734,2.58726563 C86.9903125,3.17953125 89.0112891,3.87050781 90.9855078,4.65240234 C91.6634961,4.92255859 92.3336914,5.20050781 93.0012891,5.49144531 C116.54125,15.7314063 133,39.1934375 133,66.5 Z" id="Path" fill="#22BCE0"></path>
            <g id="Group" transform="translate(17.000000, 111.000000)">
                <path d="M99.3463905,0.05695488 C72.9054356,29.3258088 26.5707105,29.2685951 0.182387352,0.05695488 L99.3463905,0.05695488 Z" id="Path" fill="#D48D77"></path>
                <g fill="#C17E62" id="Path">
                    <path d="M65.2060846,0.05695488 C65.2112949,5.95592713 41.0282953,8.46893177 31.5608285,8.3332756 C24.58347,8.41819015 17.6928759,8.07387201 11.1933723,7.1814926 C9.67434625,6.97179508 8.2282751,6.73620899 6.86558103,6.47732317 C4.48959494,4.49581112 2.25769486,2.34628217 0.182387352,0.05695488 L65.2060846,0.05695488 Z"></path>
                    <path d="M99.3463905,0.05695488 C96.6181363,3.07323355 93.6090055,5.84434735 90.3677217,8.31282362 C85.1498802,8.14998444 79.069607,7.24957957 74.6120601,5.17771636 C72.2321657,4.01273018 69.8926571,2.53526882 69.7840063,0.05695488 L99.3463905,0.05695488 Z"></path>
                    <g transform="translate(2.084427, 0.000000)">
                        <path d="M25.8755542,18.3808931 L25.8755542,4.51496867 C25.8523649,2.93861292 27.8575836,2.12985363 28.9474783,3.24901702 C29.2757755,3.57262429 29.4764016,4.02049676 29.4764016,4.51496867 L29.4764016,19.5044575 L25.8755542,18.3808931 Z"></path>
                        <path d="M21.7431779,0.05695488 L21.7431779,6.31422511 C21.7431779,7.30316893 20.938068,8.10312611 19.9427542,8.10312611 C18.9500458,8.10312611 18.1423304,7.30316893 18.1423304,6.31422511 L18.1423304,0.05695488 L21.7431779,0.05695488 Z"></path>
                        <path d="M12.7097929,0.05695488 L12.7097929,12.1754 C11.4825866,11.4246312 10.2814356,10.6324406 9.10894545,9.80400593 L9.10894545,0.05695488 L12.7097929,0.05695488 Z"></path>
                        <path d="M3.82492332,2.00895395 L3.82492332,5.6644217 C2.58208379,4.58486784 1.38093281,3.46389225 0.224075889,2.29631721 C0.0213653755,-0.265616849 3.67380237,-0.541330246 3.82492332,2.00895395 Z"></path>
                        <path d="M42.2383051,0.05695488 L42.2383051,14.7694359 C42.2383051,15.7583798 41.4331953,16.5583369 40.4378814,16.5583369 C39.4425676,16.5583369 38.6374577,15.7583798 38.6374577,14.7694359 L38.6374577,0.05695488 L42.2383051,0.05695488 Z"></path>
                        <path d="M51.3602783,14.6891813 L51.3602783,21.9043291 C50.1669439,21.9716394 48.9657929,22.0027057 47.7568253,22.0052945 L47.7568253,14.6891813 C47.8422868,12.320635 51.273514,12.3227061 51.3602783,14.6891813 Z"></path>
                        <path d="M62.0924711,5.97767354 L62.0924711,20.4519796 C60.9043478,20.7134543 59.7031968,20.9438627 58.4916237,21.1380271 L58.4916237,5.97767354 C58.5721347,3.60938608 62.0114391,3.61042162 62.0924711,5.97767354 Z"></path>
                        <path d="M72.5276332,0.05695488 L72.5276332,17.2547398 C71.3447209,17.725912 70.14357,18.1660179 68.9267858,18.5724686 L68.9267858,0.05695488 L72.5276332,0.05695488 Z"></path>
                        <path d="M82.941951,5.97767354 L82.941951,11.9993577 C81.7642498,12.7268268 80.5657043,13.4206408 79.3411036,14.0756219 L79.3411036,5.97767354 C79.4127557,3.61326936 82.8718621,3.61249271 82.941951,5.97767354 L82.941951,5.97767354 Z"></path>
                        <path d="M92.634536,0.05695488 L92.634536,4.69101103 C91.472468,5.74726516 90.271317,6.76209757 89.0336885,7.73291939 L89.0336885,0.05695488 L92.634536,0.05695488 Z"></path>
                    </g>
                </g>
                <g transform="translate(2.084427, 0.000000)" fill="#A26D5A" id="Path">
                    <path d="M29.4764016,4.51496867 L29.4764016,8.33353449 C28.2880177,8.34725544 27.0678463,8.35139761 25.8755542,8.3387122 L25.8755542,4.51496867 C25.9563257,2.14616343 29.39563,2.14849341 29.4764016,4.51496867 Z"></path>
                    <path d="M21.7431779,0.05695488 L21.7431779,6.31422511 C21.7431779,7.30316893 20.938068,8.10312611 19.9427542,8.10312611 C18.9500458,8.10312611 18.1423304,7.30316893 18.1423304,6.31422511 L18.1423304,0.05695488 L21.7431779,0.05695488 Z"></path>
                    <path d="M12.7097929,0.05695488 L12.7097929,7.61642077 C11.4695589,7.48697786 10.2684079,7.3420018 9.10894545,7.1814926 L9.10894545,0.05695488 L12.7097929,0.05695488 Z"></path>
                    <path d="M3.82492332,2.00895395 L3.82492332,5.6644217 C2.58208379,4.58486784 1.38093281,3.46389225 0.224075889,2.29631721 C0.0213653755,-0.265616849 3.67380237,-0.541330246 3.82492332,2.00895395 Z"></path>
                    <path d="M42.2383051,0.05695488 L42.2383051,7.59829876 C41.0710261,7.72256396 39.8698751,7.83388486 38.6374577,7.92708375 L38.6374577,0.05695488 L42.2383051,0.05695488 Z"></path>
                    <path d="M72.5276332,0.05695488 L72.5276332,5.17771636 C70.9825518,4.45801379 69.757951,3.64252346 68.9267858,2.75972282 L68.9267858,0.05695488 L72.5276332,0.05695488 Z"></path>
                    <path d="M82.941951,5.97767354 L82.941951,7.89860631 C81.6886893,7.74068596 80.4849328,7.54134388 79.3411036,7.30834665 L79.3411036,5.97767354 C79.4130163,3.61275159 82.8718621,3.61275159 82.941951,5.97767354 L82.941951,5.97767354 Z"></path>
                    <path d="M92.634536,0.05695488 L92.634536,4.69101103 C91.472468,5.74726516 90.271317,6.76209757 89.0336885,7.73291939 L89.0336885,0.05695488 L92.634536,0.05695488 Z"></path>
                </g>
            </g>
            <g id="Pitcher_3_" transform="translate(87.000000, 52.000000)">
                <g id="Group" transform="translate(0.000000, 2.577699)">
                    <path d="M40.5348256,39.2480497 C37.729829,45.6513126 33.9162626,51.570999 29.2687506,56.7660942 L7.57899587,56.7660942 C6.41142083,56.7660942 5.3334623,56.5031689 4.38096687,56.0417607 C0.896165053,54.3482123 -0.901285996,49.9970558 0.957616371,46.1330846 C4.69616092,38.5025791 11.5938153,23.7006563 15.4214643,16.2137287 C16.7710888,14.1817283 19.0916442,12.9364418 21.528445,12.9400505 C21.7624721,12.9421127 23.4132082,12.9302553 23.6152294,12.9503613 C24.5336705,12.9856758 25.4393093,13.2132867 26.2781198,13.5844754 C27.5212288,14.1510537 28.6130138,15.0620126 29.37373,16.2085733 C29.3762904,16.2085733 29.3762904,16.211151 29.3788509,16.2137287 L29.3788509,16.2163064 C29.6758656,16.5047509 32.9002675,23.4269046 33.1939535,23.9803367 C33.9211275,25.4826198 39.9873967,38.1089644 40.5348256,39.2480497 L40.5348256,39.2480497 Z" id="Path" fill="#C1B7D3"></path>
                    <polygon id="Path" fill="#C1B7D3" points="15.4212082 0.132751514 29.379619 0.132751514 29.379619 21.366034 15.4212082 21.366034"></polygon>
                    <path d="M40.5348256,39.2480497 C38.7842311,43.248639 36.6421406,47.044559 34.1490094,50.6107808 L16.445909,50.6107808 C11.1587912,50.6525648 7.43176876,44.9937415 9.80404568,40.0058933 C13.7607424,31.7884457 18.9021693,21.0788783 22.8189227,12.9400505 C25.3799064,12.8013703 27.9554847,14.0430481 29.37373,16.2085733 C29.3762904,16.2085733 29.3762904,16.211151 29.3788509,16.2137287 L29.3788509,16.2163064 C29.7068473,16.5627491 32.8936102,23.4150472 33.2093164,24.0138468 L33.2118769,24.0138468 L39.4850322,37.0673161 L39.4875927,37.0673161 L40.5348256,39.2480497 Z" id="Path" fill="#EBD9EA"></path>
                    <path d="M30.2309758,22.1336729 L29.4456792,22.1336729 C28.1764534,22.1336729 27.0191203,22.8641929 26.4660584,24.0143623 L20.1903426,37.0668005 C19.1262106,39.2797554 20.7277856,41.8512682 23.1699634,41.8512682 L36.5064356,41.8512682 C38.9486134,41.8512682 40.5499323,39.2797554 39.4860564,37.0668005 L33.2103406,24.0143623 C32.6575348,22.8641929 31.5002016,22.1336729 30.2309758,22.1336729 Z" id="Path" fill="#FFFFFF"></path>
                    <polygon id="Path" fill="#EBD9EA" points="20.8302044 4.57902505 29.3798751 4.57902505 29.3798751 18.0529171 20.8302044 18.0529171"></polygon>
                    <path d="M26.686515,18.0529171 C25.1991371,18.0529171 23.993155,16.8390785 23.993155,15.341693 L23.993155,9.33797352 C24.1367974,5.74182521 29.2349524,5.74002082 29.379619,9.33797352 L29.379619,15.341693 C29.379619,16.8388207 28.173893,18.0529171 26.686515,18.0529171 L26.686515,18.0529171 Z" id="Path" fill="#FFFFFF"></path>
                    <path d="M31.9239596,53.6032572 C31.0738831,54.6858909 30.1879599,55.7401699 29.2687506,56.7660942 L7.57899587,56.7660942 C6.41142083,56.7660942 5.3334623,56.5031689 4.38096687,56.0417607 C4.70358629,54.64207 5.94797548,53.6032572 7.43560947,53.6032572 L31.9239596,53.6032572 Z" id="Path" fill="#9F90AE"></path>
                </g>
                <g id="Group" transform="translate(8.705603, 0.000000)">
                    <path d="M27.3809195,3.70570053 C27.3834754,5.62093112 25.8366945,7.19229662 23.9158287,7.1917812 L3.4727676,7.1917812 C2.38789579,7.18843007 1.43027942,6.69995605 0.786320822,5.90190034 L0.786320822,5.89958041 C-1.0446724,3.69281203 0.573289587,0.192554138 3.47302365,0.217557822 L23.9160848,0.217557822 C25.828245,0.213949043 27.3839875,1.78918109 27.3809195,3.70570053 L27.3809195,3.70570053 Z" id="Path" fill="#EBD9EA"></path>
                    <path d="M26.6071404,5.90164257 C25.9711193,6.68990302 25.0019808,7.19152331 23.9160848,7.19152331 L3.47302365,7.19152331 C2.38815184,7.1881723 1.43053547,6.69969828 0.786576869,5.90164257 L0.786576869,5.89932264 C1.42029358,5.11106219 2.38712765,4.60944191 3.47302365,4.60944191 L23.9160848,4.60944191 C25.0001884,4.61279292 25.9619016,5.10229801 26.6071404,5.90164257 L26.6071404,5.90164257 Z" id="Path" fill="#C1B7D3"></path>
                    <path d="M26.5518342,1.44248053 C25.9158131,2.19155995 24.9720233,2.66766102 23.9158287,2.66766102 L3.4727676,2.66766102 C2.41631703,2.66508332 1.48353723,2.20032413 0.839066536,1.44248053 C1.47278325,0.693401114 2.41657308,0.217300052 3.4727676,0.217300052 L23.9158287,0.217300052 C24.9699749,0.219877751 25.9078756,0.684379167 26.5518342,1.44248053 Z" id="Path" fill="#FFFFFF"></path>
                </g>
                <g id="Group" transform="translate(7.425368, 23.972604)">
                    <path d="M29.7552402,24.4623665 C28.9256474,25.9007227 28.0371638,27.3029911 27.1025917,28.6691717 C26.4253469,29.0241209 25.6349294,29.2169328 24.8519371,29.215644 L5.10045939,29.215644 C1.61540152,29.2666824 -0.935596315,25.4473054 0.686206383,22.1321263 C1.78976963,19.8413249 6.91480955,9.17377408 8.12437632,6.66335272 C8.12437632,6.66335272 9.98071821,2.79938145 9.98071821,2.79938145 C9.9909601,2.78133756 9.99864152,2.76071596 10.0088834,2.74267207 C10.8384762,1.07490061 12.5335084,0.0128752854 14.3924107,0.0128752854 L15.5574253,0.0128752854 C17.0745047,0.00927971752 18.5480561,0.745212871 19.4544631,1.96420687 C19.8869267,2.46015622 20.7695213,4.51561365 21.0880439,5.12704393 C22.5178113,8.10145116 27.0874849,17.598211 28.4570811,20.4566217 L28.4596416,20.4566217 L29.2636297,22.1321263 C29.6323376,22.897703 29.7859659,23.6942121 29.7552402,24.4623665 L29.7552402,24.4623665 Z" id="Path" fill="#D7156F"></path>
                    <path d="M29.7552402,24.4623665 C28.9256474,25.9007227 28.0371638,27.3029911 27.1025917,28.6691717 C26.6870271,28.8856985 26.230239,29.0470624 25.7455417,29.1331576 C24.2271821,28.8521884 22.9085392,27.8623518 22.2197724,26.4317287 L19.3469233,20.4566217 C17.9947382,17.644094 14.2223954,9.80015501 12.9252605,7.1015616 C11.4862755,4.1036973 13.3451779,0.659891023 16.440788,0.0953748745 C17.9673412,0.368868771 19.2949457,1.3999485 19.9691178,2.79938145 C19.9691178,2.79938145 21.0880439,5.12704393 21.0880439,5.12704393 L21.5054008,5.9957286 L26.8747097,17.1648997 L26.8772702,17.1648997 L28.4570811,20.4566217 L28.4596416,20.4566217 L29.2636297,22.1321263 C29.6323376,22.897703 29.7859659,23.6942121 29.7552402,24.4623665 L29.7552402,24.4623665 Z" id="Path" fill="#DF3D81"></path>
                    <path d="M11.2443109,13.5780311 L3.80690914,29.0452581 C0.952751475,28.2732371 -0.691327326,24.9974968 0.68646243,22.1310952 L8.12386423,6.66386826 C10.9780219,7.4358892 12.6221007,10.7093096 11.2443109,13.5780311 Z" id="Path" fill="#B82065"></path>
                    <path d="M26.8770141,17.165673 C25.9055712,17.1213366 22.7124071,17.2997134 21.8277642,16.9947716 C18.9736065,16.2227506 17.3295277,12.9470103 18.7073175,10.0806087 L21.088556,5.12678616 L26.8770141,17.165673 Z" id="Path" fill="#ED72AB"></path>
                </g>
            </g>
            <g id="Group" transform="translate(11.000000, 1.000000)">
                <g transform="translate(0.000000, 63.533190)" id="Path">
                    <g transform="translate(48.960118, 0.000000)">
                        <path d="M14.2039031,4.64262902 L14.2039031,31.5958658 C14.1908817,36.1362665 8.70812985,38.3071146 5.60853773,35.170196 C4.69808788,34.254586 4.1337444,32.9917658 4.1337444,31.5958658 L4.1337444,4.64262902 L14.2039031,4.64262902 Z" fill="#9F90AE"></path>
                        <path d="M14.2039031,4.64262902 L14.2039031,31.5958658 C14.2039031,33.7559943 12.855156,35.5979339 10.9574306,36.3218985 C9.02663104,35.5819852 7.71252065,33.7363853 7.70939554,31.5958658 L7.70939554,4.64262902 L14.2039031,4.64262902 Z" fill="#EBD9EA"></path>
                        <g>
                            <path d="M18.295722,2.32379832 C18.2975418,3.59759956 17.2657334,4.64262902 15.9846971,4.64236762 L2.35034607,4.64236762 C1.62688221,4.64001449 0.988056841,4.31528929 0.558614108,3.78453878 L0.558614108,3.78297006 C-0.664607554,2.32798157 0.424494637,-0.0230079041 2.35034607,0.00392180184 L15.9846971,0.00392180184 C17.2602644,0.00156872074 18.2978022,1.04921272 18.295722,2.32379832 Z" fill="#EBD9EA"></path>
                            <path d="M17.7798146,3.78453878 C17.3555804,4.30875296 16.7094631,4.64236757 15.9849575,4.64236757 L2.3506065,4.64236757 C1.62714263,4.64001449 0.988317268,4.31528929 0.558874534,3.78453878 L0.558874534,3.78297006 C0.981546187,3.25875588 1.62636135,2.92514127 2.3506065,2.92514127 L15.9849575,2.92514127 C16.708161,2.9272329 17.3495906,3.25274245 17.7798146,3.78453878 Z" fill="#C1B7D3"></path>
                            <path d="M17.7430945,0.818610771 C17.3188603,1.31667961 16.6894103,1.63356119 15.9849575,1.63356119 L2.3506065,1.63356119 C1.64615374,1.63199247 1.02399565,1.32269303 0.594032065,0.818610771 C1.01670372,0.320541937 1.64615374,0.00366034839 2.3506065,0.00366034839 L15.9849575,0.00366034839 C16.6878477,0.00549052258 17.3133914,0.314528508 17.7430945,0.818610771 Z" fill="#FFFFFF"></path>
                        </g>
                        <path d="M12.3015193,12.3549831 L12.3015193,30.3576223 C12.3090423,32.1075302 10.8569061,33.5136269 9.16882373,33.5011664 C7.47136603,33.5141498 6.0244383,32.0900129 6.03615748,30.3576223 L6.03615748,12.3549831 L12.3015193,12.3549831 Z" fill="#57409B"></path>
                        <path d="M12.30149,12.3547216 L12.30149,30.3576223 C12.3426373,32.5676883 9.96260265,34.1217677 7.9937809,33.2709981 C7.87841212,32.9452271 7.81538899,32.5933108 7.81538899,32.2272759 L7.81538899,12.3547216 L12.30149,12.3547216 Z" fill="#6C53A2"></path>
                        <path d="M12.30149,12.3547216 L12.30149,26.5547817 C10.8298218,26.3016948 9.70712459,24.994689 9.71153879,23.4591728 L9.71153879,12.3549831 L12.30149,12.3549831 L12.30149,12.3547216 Z" fill="#9175A7"></path>
                        <path d="M13.2525663,6.5133285 C12.7272867,6.5133285 12.30149,6.9408049 12.30149,7.46815652 L12.30149,21.5184038 C12.30149,22.0457554 12.7272867,22.4734933 13.2525663,22.4734933 C13.7778459,22.4734933 14.2036427,22.0460169 14.2036427,21.5184038 L14.2036427,7.46815652 C14.2039031,6.9408049 13.7781063,6.5133285 13.2525663,6.5133285 Z" fill="#FFFFFF"></path>
                    </g>
                    <g transform="translate(26.823894, 0.000000)">
                        <path d="M14.1791626,4.64262902 L14.1791626,31.5958658 C14.1661413,36.1362665 8.68338937,38.3071146 5.58379724,35.170196 C4.6733474,34.254586 4.10900391,32.9917658 4.10900391,31.5958658 L4.10900391,4.64262902 L14.1791626,4.64262902 Z" fill="#9F90AE"></path>
                        <path d="M14.1791626,4.64262902 L14.1791626,31.5958658 C14.1791626,33.7559943 12.8304155,35.5979339 10.9326901,36.3218985 C9.00189056,35.5819852 7.68778017,33.7363853 7.68465505,31.5958658 L7.68465505,4.64262902 L14.1791626,4.64262902 Z" fill="#EBD9EA"></path>
                        <g>
                            <path d="M18.2709815,2.32379832 C18.2728013,3.59759956 17.2409929,4.64262902 15.9599566,4.64236762 L2.32560559,4.64236762 C1.60214172,4.64001449 0.963316356,4.31528929 0.533873623,3.78453878 L0.533873623,3.78297006 C-0.689348039,2.32798157 0.399754152,-0.0230079041 2.32560559,0.00392180184 L15.9599566,0.00392180184 C17.235524,0.00156872074 18.2730618,1.04921272 18.2709815,2.32379832 Z" fill="#EBD9EA"></path>
                            <path d="M17.7548137,3.78453878 C17.3305795,4.30875296 16.6844622,4.64236757 15.9599566,4.64236757 L2.32560559,4.64236757 C1.60214172,4.64001449 0.963316356,4.31528929 0.533873623,3.78453878 L0.533873623,3.78297006 C0.956545276,3.25875588 1.60136044,2.92514127 2.32560559,2.92514127 L15.9599566,2.92514127 C16.6831601,2.9272329 17.3245897,3.25274245 17.7548137,3.78453878 Z" fill="#C1B7D3"></path>
                            <path d="M17.7180936,0.818610771 C17.2938594,1.31667961 16.6644094,1.63356119 15.9599566,1.63356119 L2.32560559,1.63356119 C1.62115283,1.63199247 0.99899474,1.32269303 0.569031154,0.818610771 C0.991702808,0.320541937 1.62115283,0.00366034839 2.32560559,0.00366034839 L15.9599566,0.00366034839 C16.6631073,0.00549052258 17.2886509,0.314528508 17.7180936,0.818610771 Z" fill="#FFFFFF"></path>
                        </g>
                        <path d="M12.2767788,12.3549831 L12.2767788,30.3576223 C12.2843018,32.1075302 10.8321656,33.5136269 9.14408324,33.5011664 C7.44662555,33.5141498 5.99969782,32.0900129 6.01141699,30.3576223 L6.01141699,12.3549831 L12.2767788,12.3549831 Z" fill="#BF5E39"></path>
                        <path d="M12.2767495,12.3547216 L12.2767495,30.3576223 C12.3178968,32.5676883 9.93786217,34.1217677 7.96904042,33.2709981 C7.85367163,32.9452271 7.7906485,32.5933108 7.7906485,32.2272759 L7.7906485,12.3547216 L12.2767495,12.3547216 Z" fill="#EA792E"></path>
                        <path d="M12.2767495,12.3547216 L12.2767495,26.5547817 C10.8050813,26.3016948 9.68238411,24.994689 9.6867983,23.4591728 L9.6867983,12.3549831 L12.2767495,12.3549831 L12.2767495,12.3547216 Z" fill="#F39E22"></path>
                        <path d="M13.2278258,6.5133285 C12.7025463,6.5133285 12.2764891,6.9408049 12.2764891,7.46815652 L12.2764891,21.5184038 C12.2764891,22.0457554 12.7022858,22.4734933 13.2278258,22.4734933 C13.7531054,22.4734933 14.1789023,22.0460169 14.1789023,21.5184038 L14.1789023,7.46815652 C14.1791626,6.9408049 13.7531054,6.5133285 13.2278258,6.5133285 Z" fill="#FFFFFF"></path>
                    </g>
                    <g transform="translate(4.427245, 0.000000)">
                        <path d="M14.4145878,4.64262902 L14.4145878,31.5958658 C14.4015665,36.1362665 8.91881461,38.3071146 5.81922249,35.170196 C4.90877264,34.254586 4.34442916,32.9917658 4.34442916,31.5958658 L4.34442916,4.64262902 L14.4145878,4.64262902 Z" fill="#9F90AE"></path>
                        <path d="M14.4145878,4.64262902 L14.4145878,31.5958658 C14.4145878,33.7559943 13.0658407,35.5979339 11.1681153,36.3218985 C9.2373158,35.5819852 7.92320541,33.7363853 7.9200803,31.5958658 L7.9200803,4.64262902 L14.4145878,4.64262902 Z" fill="#EBD9EA"></path>
                        <g>
                            <path d="M18.5064076,2.32379832 C18.5082266,3.59759956 17.4764181,4.64262902 16.1953819,4.64236762 L2.56129126,4.64236762 C1.83782739,4.64001449 1.19900203,4.31528929 0.769559295,3.78453878 L0.769559295,3.78297006 C-0.453662366,2.32798157 0.635439824,-0.0230079041 2.56129126,0.00392180184 L16.1956423,0.00392180184 C17.4709492,0.00156872074 18.5087474,1.04921272 18.5064076,2.32379832 Z" fill="#EBD9EA"></path>
                            <path d="M17.9904994,3.78453878 C17.5662652,4.30875296 16.9201479,4.64236757 16.1956423,4.64236757 L2.56129126,4.64236757 C1.83782739,4.64001449 1.19900203,4.31528929 0.769559295,3.78453878 L0.769559295,3.78297006 C1.19223095,3.25875588 1.83704611,2.92514127 2.56129126,2.92514127 L16.1956423,2.92514127 C16.9188457,2.9272329 17.5602754,3.25274245 17.9904994,3.78453878 Z" fill="#C1B7D3"></path>
                            <path d="M17.9537793,0.818610771 C17.5295451,1.31667961 16.9000951,1.63356119 16.1956423,1.63356119 L2.56129126,1.63356119 C1.85657808,1.63199247 1.23468041,1.32269303 0.804716827,0.818610771 C1.22738848,0.320541937 1.8568385,0.00366034839 2.56129126,0.00366034839 L16.1956423,0.00366034839 C16.8985325,0.00549052258 17.5240761,0.314528508 17.9537793,0.818610771 Z" fill="#FFFFFF"></path>
                        </g>
                        <path d="M12.5122041,12.3549831 L12.5122041,30.3576223 C12.5197271,32.1075302 11.0675908,33.5136269 9.37950849,33.5011664 C7.68205079,33.5141498 6.23512306,32.0900129 6.24684224,30.3576223 L6.24684224,12.3549831 L12.5122041,12.3549831 Z" fill="#C0405C"></path>
                        <path d="M12.5121747,12.3547216 L12.5121747,30.3576223 C12.5533221,32.5676883 10.1732874,34.1217677 8.20446566,33.2709981 C8.08909688,32.9452271 8.02607375,32.5933108 8.02607375,32.2272759 L8.02607375,12.3547216 L12.5121747,12.3547216 Z" fill="#E9465E"></path>
                        <path d="M12.5121747,12.3547216 L12.5121747,26.5547817 C11.0405065,26.3016948 9.91780935,24.994689 9.92222355,23.4591728 L9.92222355,12.3549831 L12.5121747,12.3549831 L12.5121747,12.3547216 Z" fill="#EE6781"></path>
                        <path d="M13.4635115,6.5133285 C12.9382319,6.5133285 12.5121747,6.9408049 12.5121747,7.46815652 L12.5121747,21.5184038 C12.5121747,22.0457554 12.9379715,22.4734933 13.4635115,22.4734933 C13.9890515,22.4734933 14.4145878,22.0460169 14.4145878,21.5184038 L14.4145878,7.46815652 C14.4145878,6.9408049 13.988791,6.5133285 13.4635115,6.5133285 Z" fill="#FFFFFF"></path>
                    </g>
                    <path d="M71.6852472,19.935826 C71.6979254,21.6917474 70.2312053,23.1945819 68.4506717,23.1804634 L3.48215815,23.1804634 C1.69823897,23.1804634 0.250269537,21.7267822 0.250269537,19.935826 C0.250269537,18.1433011 1.69823897,16.689097 3.48215815,16.6885741 L68.4506717,16.6885741 C70.2371951,16.6885741 71.6852472,18.1422553 71.6852472,19.935826 Z" fill="#D48D77"></path>
                    <path d="M71.6851645,19.935826 C71.6851645,20.3018609 71.6252665,20.654823 71.510679,20.9842544 L6.61508483,20.9842544 C4.43974513,21.0258255 2.81911315,18.7328787 3.55768174,16.6885741 L68.4506717,16.6885741 C70.2371951,16.6885741 71.6851645,18.1422553 71.6851645,19.935826 Z" fill="#EEA47D"></path>
                    <path d="M63.1171439,19.4547517 L22.3031566,19.4547517 C20.4952782,19.4040297 20.4710585,16.7476626 22.3031566,16.6883127 L63.1168835,16.6883127 C64.9250223,16.7392961 64.949242,19.3956632 63.1171439,19.4547517 Z" fill="#F5B890"></path>
                    <path d="M71.6850042,43.613051 C71.6989671,45.3689724 70.2299032,46.8715455 68.4504112,46.8576884 L6.69034798,46.8576884 C4.96893108,44.9386201 3.35428891,42.9175848 1.86204703,40.8050409 C2.33862689,40.5252857 2.89333461,40.3657991 3.48189773,40.3657991 L68.4530155,40.3657991 C70.2395389,40.3684136 71.6850042,41.8194803 71.6850042,43.613051 L71.6850042,43.613051 Z" fill="#D48D77"></path>
                    <path d="M71.6851645,43.6140968 C71.6851645,43.9801317 71.6252665,44.3330938 71.510679,44.6625252 L6.61508483,44.6625252 C4.43974513,44.7040963 2.81911315,42.4111495 3.55768174,40.3668449 L68.4506717,40.3668449 C70.2371951,40.3668449 71.6851645,41.8205261 71.6851645,43.6140968 Z" fill="#EEA47D"></path>
                    <path d="M63.1171439,43.1330225 L22.3031566,43.1330225 C20.4952782,43.0823005 20.4710585,40.4259334 22.3031566,40.3665835 L63.1168835,40.3665835 C64.9250223,40.4175669 64.949242,43.073934 63.1171439,43.1330225 Z" fill="#F5B890"></path>
                    <polygon fill="#D48D77" points="3.48215815 23.1804634 8.77167384 23.1804634 8.77167384 40.3668449 3.48215815 40.3668449"></polygon>
                    <polygon fill="#EEA47D" points="6.12678578 25.7495051 8.77141341 25.7495051 8.77141341 40.3668449 6.12678578 40.3668449"></polygon>
                    <polygon fill="#D48D77" points="63.1640207 23.1804634 68.4535363 23.1804634 68.4535363 40.3668449 63.1640207 40.3668449"></polygon>
                    <polygon fill="#EEA47D" points="65.8086483 25.7495051 68.4532759 25.7495051 68.4532759 40.3668449 65.8086483 40.3668449"></polygon>
                </g>
                <g transform="translate(30.990713, 2.091628)" id="Path">
                    <g transform="translate(1.822983, 49.937610)">
                        <path d="M6.28668744,3.31261529 C6.29632321,5.01049403 4.89887645,6.46365234 3.15376077,6.45791739 C0.0205736664,6.44299752 -1.12842654,2.33504082 1.46619927,0.661477244 C3.48892923,-0.679778986 6.3231471,0.85861315 6.28668744,3.31261529 L6.28668744,3.31261529 Z" fill="#BF5E39"></path>
                        <path d="M6.28668744,3.31261529 C6.28668744,3.74662803 6.19814255,4.16233902 6.03928259,4.538832 C3.46314704,6.19775418 0.270843204,3.50086178 1.46619927,0.661477244 C3.48892923,-0.68004044 6.3231471,0.859136057 6.28668744,3.31261529 L6.28668744,3.31261529 Z" fill="#EA792E"></path>
                        <path d="M5.48535615,2.42419645 C5.42493729,0.458850816 2.58342748,0.459373723 2.52326904,2.42419645 C2.58368791,4.38954208 5.42519771,4.38901917 5.48535615,2.42419645 Z" fill="#F39E22"></path>
                    </g>
                    <g transform="translate(5.729375, 31.635868)">
                        <path d="M8.82063395,4.52863532 C8.83391569,6.86550631 6.91040809,8.8658867 4.50849764,8.85780619 C0.185162998,8.81987089 -1.38572758,3.20411211 2.18575674,0.879529427 C4.96971236,-0.966331974 8.8708962,1.15091811 8.82063395,4.52863532 L8.82063395,4.52863532 Z" fill="#BF5E39"></path>
                        <path d="M8.82063395,4.52863532 C8.82063395,5.12605646 8.69875451,5.69811662 8.47999654,6.21631737 C4.93403398,8.49932895 0.540644703,4.78773569 2.18575674,0.879529427 C4.96997279,-0.966854881 8.8708962,1.15144102 8.82063395,4.52863532 Z" fill="#EA792E"></path>
                        <path d="M7.71772918,3.3058175 C7.71772918,2.17555421 6.80519592,1.2594213 5.67937364,1.2594213 C2.97823354,1.35981943 2.97901482,5.25259994 5.67937364,5.35247516 C6.80493549,5.3522137 7.71772918,4.43581934 7.71772918,3.3058175 Z" fill="#F39E22"></path>
                    </g>
                    <g transform="translate(0.000000, 15.687207)">
                        <path d="M8.65656547,4.52236043 C8.66984721,6.85923142 6.74633961,8.85961182 4.34442916,8.8515313 C0.0210945188,8.81359601 -1.54979606,3.19783722 2.02168826,0.873254544 C4.80564388,-0.972606857 8.70682772,1.14464323 8.65656547,4.52236043 Z" fill="#BF5E39"></path>
                        <path d="M8.65656547,4.52236043 C8.65656547,5.11978158 8.53468603,5.69184174 8.31592806,6.21004249 C4.7699655,8.49305407 0.376576224,4.78146081 2.02168826,0.873254544 C4.80590431,-0.973129764 8.70682772,1.14542759 8.65656547,4.52236043 Z" fill="#EA792E"></path>
                        <path d="M7.5536607,3.29954262 C7.5536607,2.16927933 6.64112744,1.25314642 5.51530516,1.25314642 C2.81416506,1.35354454 2.81494634,5.24632505 5.51530516,5.34620027 C6.64086701,5.34593882 7.5536607,4.42980591 7.5536607,3.29954262 Z" fill="#F39E22"></path>
                    </g>
                    <g transform="translate(12.240029, 0.000000)">
                        <path d="M13.8114408,7.05741314 C13.8325354,10.7522734 10.7910183,13.9150758 6.99322361,13.9023034 C0.157297399,13.8423918 -2.32612644,4.96317096 3.32095436,1.28791973 C7.75470969,-1.62258015 13.8656095,1.69526421 13.8114408,7.05741314 Z" fill="#BF5E39"></path>
                        <path d="M13.8114408,7.05741314 C13.8114408,8.00178303 13.6187255,8.90667344 13.2728795,9.72580712 C7.6393409,13.3236681 0.735964321,7.49168733 3.32069393,1.28791973 C7.75523054,-1.62310306 13.8658699,1.69631002 13.8114408,7.05741314 Z" fill="#EA792E"></path>
                        <path d="M12.0673669,5.12370338 C12.0673669,3.33666901 10.6243455,1.88795541 8.84433273,1.88795541 C4.56917693,2.05842306 4.57021864,8.18950661 8.84433273,8.35945136 C10.6243455,8.35945136 12.0673669,6.91073775 12.0673669,5.12370338 Z" fill="#F39E22"></path>
                    </g>
                </g>
                <g transform="translate(4.427245, 17.255928)" id="Path">
                    <g transform="translate(4.687671, 36.864937)">
                        <path d="M6.36403401,3.37248813 C6.37366978,5.07036688 4.97622302,6.52352519 3.23110734,6.51779023 C0.0979202352,6.50287036 -1.05107997,2.39491366 1.54354584,0.721350086 C3.56601537,-0.619644691 6.40049367,0.918485992 6.36403401,3.37248813 Z" fill="#C0405C"></path>
                        <path d="M6.36403401,3.37248813 C6.36403401,3.80650087 6.27548912,4.22221186 6.11662916,4.59870484 C3.54049361,6.25762702 0.348189773,3.56073462 1.54354584,0.721350086 C3.5662758,-0.620167598 6.40049367,0.919008899 6.36403401,3.37248813 Z" fill="#E9465E"></path>
                        <path d="M5.56270272,2.48406929 C5.50228385,0.518723657 2.66077405,0.519246564 2.60061561,2.48406929 C2.66103448,4.44941492 5.50254428,4.44889201 5.56270272,2.48406929 Z" fill="#EE6781"></path>
                    </g>
                    <g transform="translate(9.896194, 23.269358)">
                        <path d="M8.82870716,4.43503498 C8.8419889,6.77190597 6.9184813,8.77228636 4.51657085,8.76420585 C0.193236209,8.72627055 -1.37765437,3.11051177 2.19382995,0.785929089 C4.97778557,-1.05993231 8.87896941,1.05731778 8.82870716,4.43503498 L8.82870716,4.43503498 Z" fill="#C0405C"></path>
                        <path d="M8.82870716,4.43503498 C8.82870716,5.03245613 8.70682772,5.60451629 8.48806975,6.12271704 C4.94210719,8.40572862 0.548717914,4.69413535 2.19382995,0.785929089 C4.978046,-1.06045522 8.87896941,1.05784068 8.82870716,4.43503498 Z" fill="#E9465E"></path>
                        <path d="M7.72580239,3.21221716 C7.72580239,2.08195387 6.81326913,1.16582096 5.68744685,1.16582096 C2.98630675,1.26621909 2.98708803,5.1589996 5.68744685,5.25887482 C6.81300871,5.25861336 7.72580239,4.342219 7.72580239,3.21221716 Z" fill="#EE6781"></path>
                    </g>
                    <g>
                        <path d="M13.8833185,6.97557821 C13.904413,10.6725301 10.860552,13.832718 7.06275739,13.8204297 C2.89073035,13.8617393 -0.378138781,9.95091854 0.346366789,5.83564114 C1.92559101,3.91003644 3.61054825,2.07567899 5.39082146,0.339889493 C9.61102734,-0.788805077 13.948425,2.58237579 13.8833185,6.97557821 L13.8833185,6.97557821 Z" fill="#C0405C"></path>
                        <path d="M13.8833185,6.97557821 C13.8833185,7.92203972 13.6906031,8.82666868 13.3442363,9.645018 C8.49171572,12.8188015 2.03470957,8.66587481 2.92198149,2.87598802 C3.72409405,2.00796254 4.54704071,1.16346788 5.39082146,0.339889493 C9.61102734,-0.789589438 13.9481646,2.58289869 13.8833185,6.97557821 Z" fill="#E9465E"></path>
                        <path d="M12.1379423,5.04291426 C12.1379423,3.25587989 10.694921,1.80716629 8.91490822,1.80716629 C4.63975242,1.97763394 4.64079413,8.10871749 8.91490822,8.27866224 C10.694921,8.27840078 12.1379423,6.82994864 12.1379423,5.04291426 L12.1379423,5.04291426 Z" fill="#EE6781"></path>
                    </g>
                </g>
                <g transform="translate(55.731198, 0.000000)" id="Path">
                    <g transform="translate(0.000000, 46.538715)">
                        <path d="M6.41898393,3.28254814 C6.4286197,4.98042689 5.03117294,6.4335852 3.28605725,6.42785024 C0.152870154,6.41293037 -0.996130052,2.30497367 1.59849575,0.631410097 C3.62122572,-0.709846134 6.45544359,0.828546003 6.41898393,3.28254814 Z" fill="#57409B"></path>
                        <path d="M6.41898393,3.28254814 C6.41898393,3.71656088 6.33043904,4.13227188 6.17157908,4.50876485 C3.59544353,6.16768703 0.403139692,3.47079463 1.59849575,0.631410097 C3.62122572,-0.710107587 6.45544359,0.828807456 6.41898393,3.28254814 Z" fill="#6C53A2"></path>
                        <path d="M5.61765264,2.39386785 C5.55723377,0.428522215 2.71572397,0.429045122 2.65556553,2.39386785 C2.7159844,4.35921348 5.5574942,4.35895202 5.61765264,2.39386785 Z" fill="#9175A7"></path>
                    </g>
                    <g transform="translate(1.041705, 29.544241)">
                        <path d="M8.79901858,4.38274429 C8.81230032,6.71961528 6.88879272,8.71999567 4.48688227,8.71191516 C0.163547627,8.67397986 -1.40734295,3.05822108 2.16414137,0.733638398 C4.94809699,-1.112223 8.84928083,1.00502709 8.79901858,4.38274429 Z" fill="#57409B"></path>
                        <path d="M8.79901858,4.38274429 C8.79901858,4.98016543 8.67713914,5.5522256 8.45838117,6.07042635 C4.91241861,8.35343793 0.519029332,4.64184466 2.16414137,0.733638398 C4.94835742,-1.11274591 8.84928083,1.00581145 8.79901858,4.38274429 Z" fill="#6C53A2"></path>
                        <path d="M7.69585338,3.15992647 C7.69585338,2.02966318 6.78332012,1.11353027 5.65749784,1.11353027 C2.95635774,1.2139284 2.95713902,5.10670891 5.65749784,5.20658413 C6.78332012,5.20632267 7.69585338,4.29018976 7.69585338,3.15992647 Z" fill="#9175A7"></path>
                    </g>
                    <g transform="translate(14.583865, 16.733021)">
                        <path d="M8.83834293,4.59112269 C8.85162467,6.92799368 6.92811707,8.92837408 4.52620662,8.92029356 C0.202871977,8.88235827 -1.36801861,3.26659948 2.20346572,0.942016803 C4.98742134,-0.903844598 8.88860518,1.21340549 8.83834293,4.59112269 Z" fill="#57409B"></path>
                        <path d="M8.83834293,4.59112269 C8.83834293,5.18854384 8.71646349,5.760604 8.49770552,6.27880475 C4.95174296,8.56181633 0.558353682,4.85022307 2.20346572,0.942016803 C4.98768177,-0.904367505 8.88860518,1.21418985 8.83834293,4.59112269 Z" fill="#6C53A2"></path>
                        <path d="M7.73543815,3.36830488 C7.73543815,2.23804159 6.8229049,1.32190867 5.69708262,1.32190867 C2.99594252,1.4223068 2.99672379,5.31508731 5.69708262,5.41496253 C6.82264447,5.41470108 7.73543815,4.49856817 7.73543815,3.36830488 Z" fill="#9175A7"></path>
                    </g>
                    <g transform="translate(13.281734, 0.000000)">
                        <path d="M11.7868879,3.37536412 C8.41280659,2.03175481 4.88871983,0.959795638 1.32556914,0.190861023 C-1.68782193,4.62432728 1.60370428,10.8790783 6.99504659,10.8241731 C10.7035151,10.8354156 13.7067495,7.82007288 13.8077949,4.21985878 C13.1384996,3.92703091 12.4666002,3.64727571 11.7868879,3.37536412 Z" fill="#57409B"></path>
                        <path d="M11.7868879,3.37536412 C8.8758443,2.21843258 5.84969235,1.25393078 2.78655988,0.525521447 C2.44670375,6.05526205 8.70943198,9.66514992 13.2765255,6.64876139 C13.5916412,5.89838997 13.779148,5.07742612 13.8077949,4.21985878 C13.1384996,3.92703091 12.4666002,3.64727571 11.7868879,3.37536412 L11.7868879,3.37536412 Z" fill="#6C53A2"></path>
                        <path d="M11.7868879,3.37536412 C10.111306,6.88197787 4.91085605,5.14880291 5.71374989,1.29680914 C7.78153358,1.89292302 9.80764909,2.58838922 11.7868879,3.37536412 Z" fill="#9175A7"></path>
                    </g>
                </g>
            </g>
        </g>
    </g>
</svg>