<svg xmlns="http://www.w3.org/2000/svg" width="28" height="26" viewBox="0 0 28 26">
    <defs>
        <filter id="kqoe2uta9a">
            <feColorMatrix in="SourceGraphic" values="0 0 0 0 0.156863 0 0 0 0 0.760784 0 0 0 0 0.505882 0 0 0 1.000000 0"/>
        </filter>
    </defs>
    <g fill="none" fill-rule="evenodd">
        <g>
            <g>
                <g>
                    <g fill="#000" fill-rule="nonzero">
                        <g>
                            <path d="M13.825 4.86c-.298 0-.54.218-.54.486s.242.486.54.486c.298 0 .54-.218.54-.486s-.242-.486-.54-.486zM4.86 13.608c.298 0 .54-.218.54-.486s-.242-.486-.54-.486c-.298 0-.54.218-.54.486s.242.486.54.486z" transform="translate(-564 -410) translate(17 363) translate(547 47) translate(0 3)"/>
                            <path d="M18.146 0c-4.862 0-8.853 3.017-9.161 6.816C4.355 7.026 0 10.03 0 14.094c0 1.698.747 3.344 2.106 4.648.27.998-.057 2.055-.868 2.784-.154.14-.2.348-.117.53.084.182.28.3.5.3 1.54 0 3.024-.544 4.126-1.501 1.075.33 2.477.529 3.758.529 4.861 0 8.851-3.016 9.16-6.815 1.131-.045 2.307-.233 3.238-.518 1.103.957 2.587 1.501 4.127 1.501.219 0 .416-.118.5-.3.083-.182.036-.39-.118-.53-.81-.729-1.137-1.786-.868-2.784 1.36-1.304 2.106-2.95 2.106-4.648 0-4.223-4.69-7.29-9.504-7.29zM9.505 20.412c-1.275 0-2.727-.225-3.7-.574-.209-.074-.447-.025-.598.124-.652.641-1.5 1.089-2.424 1.294.509-.877.639-1.912.33-2.892-.025-.078-.07-.148-.133-.206-1.225-1.135-1.9-2.579-1.9-4.064 0-3.425 3.858-6.318 8.425-6.318 4.312 0 8.1 2.699 8.1 6.318 0 3.484-3.633 6.318-8.1 6.318zm15.165-9.058c-.062.058-.107.129-.132.206-.31.98-.18 2.015.33 2.892-.924-.205-1.772-.653-2.424-1.294-.152-.149-.39-.198-.599-.124-.843.302-2.046.511-3.181.562-.158-1.838-1.177-3.565-2.918-4.848h7.044c.298 0 .54-.218.54-.486s-.242-.486-.54-.486h-8.703c-1.226-.562-2.603-.889-4.02-.958.31-3.264 3.815-5.846 8.079-5.846 4.566 0 8.424 2.893 8.424 6.318 0 1.485-.675 2.929-1.9 4.064z" transform="translate(-564 -410) translate(17 363) translate(547 47) translate(0 3)"/>
                            <path d="M13.825 12.636H7.021c-.299 0-.54.218-.54.486s.241.486.54.486h6.804c.298 0 .54-.218.54-.486s-.242-.486-.54-.486zM13.825 15.552H4.86c-.298 0-.54.218-.54.486s.242.486.54.486h8.965c.298 0 .54-.218.54-.486s-.242-.486-.54-.486zM22.79 4.86h-6.805c-.298 0-.54.218-.54.486s.242.486.54.486h6.805c.298 0 .54-.218.54-.486s-.242-.486-.54-.486z" transform="translate(-564 -410) translate(17 363) translate(547 47) translate(0 3)"/>
                        </g>
                    </g>
                    <g filter="url(#kqoe2uta9a)" transform="translate(-564 -410) translate(17 363) translate(547 47)">
                        <g>
                            <path fill="#000" fill-rule="nonzero" d="M9.384.069c-.443-.247-.937.229-1.227.51-.664.67-1.226 1.446-1.856 2.151-.698.776-1.345 1.551-2.06 2.31-.41.422-.852.88-1.124 1.41-.613-.618-1.141-1.287-1.822-1.834C.8 4.228-.017 3.946 0 4.881.034 6.097 1.073 7.4 1.84 8.229c.323.353.749.723 1.243.74.596.036 1.209-.704 1.566-1.11.63-.705 1.141-1.498 1.72-2.22.75-.952 1.516-1.887 2.248-2.856.46-.6 1.908-2.08.767-2.714z" transform="translate(2)"/>
                        </g>
                    </g>
                </g>
            </g>
        </g>
    </g>
</svg>
