<?xml version="1.0" encoding="UTF-8"?>
<svg width="133px" height="134px" viewBox="0 0 133 134" version="1.1" xmlns="http://www.w3.org/2000/svg" xmlns:xlink="http://www.w3.org/1999/xlink">
    <title>subjects/history</title>
    <defs>
        <linearGradient x1="0%" y1="49.9612403%" x2="100%" y2="49.9612403%" id="linearGradient-1">
            <stop stop-color="#342212" offset="1%"></stop>
            <stop stop-color="#633D14" offset="44%"></stop>
            <stop stop-color="#593B18" offset="59%"></stop>
            <stop stop-color="#301F11" offset="100%"></stop>
        </linearGradient>
    </defs>
    <g id="subjects/history" stroke="none" stroke-width="1" fill="none" fill-rule="evenodd">
        <g id="history" fill-rule="nonzero">
            <path d="M132.420052,67.21 C132.439949,83.1046801 126.723116,98.4726616 116.32,110.49 C112.28088,115.159162 107.612972,119.244844 102.45,122.63 C101.29,123.39 100.11,124.12 98.9,124.8 C91.1843743,129.201762 82.655484,131.991427 73.83,133 L73.72,133 L71.59,133.21 C70.2566667,133.323333 68.8866667,133.393333 67.48,133.42 L66.21,133.42 C64.03,133.42 61.87,133.31 59.74,133.11 C59.02,133.04 58.31,132.96 57.6,132.86 C48.0368803,131.6254 38.8629721,128.299986 30.73,123.12 C30.54,123 30.35,122.88 30.17,122.75 C28.65,121.77 27.18,120.73 25.76,119.63 C24.23,118.46 22.76,117.21 21.34,115.89 L20.46,115.07 C18.2269425,112.940526 16.1483528,110.654746 14.24,108.23 C-3.73525809,85.4580118 -4.79188009,53.6361241 11.6331972,29.7218984 C28.0582744,5.80767278 58.1388782,-4.6281434 85.8453597,3.97559058 C113.551841,12.5793246 132.430058,38.2183946 132.420052,67.23 L132.420052,67.21 Z" id="Path" fill="#488987"></path>
            <path d="M20.65,50.93 C20.65,50.93 63.82,24.37 110.1,50.93 L89.61,90.66 C89.61,90.66 63.61,81.66 38.61,92.13 L20.65,50.93 Z" id="Path" fill="#F5E0C3"></path>
            <path d="M110.1,47.05 C110.1,47.05 111.51,45.18 113.43,45.39 C115.35,45.6 116.19,46.07 115.57,44.65 C114.95,43.23 115.41,39.01 119.73,40.11 C119.73,40.11 123.99,44.24 118.48,46.11 C118.48,46.11 121.2,49.9 119.84,52.11 C118.48,54.32 110.1,47.05 110.1,47.05 Z" id="Path" fill="#8F4F26"></path>
            <path d="M96.53,97.35 C96.53,97.35 94.93,99.05 93.04,98.62 C91.15,98.19 90.38,97.62 90.84,99.11 C91.3,100.6 90.36,104.74 86.2,103.11 C86.2,103.11 82.42,98.52 88.1,97.33 C88.1,97.33 85.82,93.25 87.42,91.24 C89.02,89.23 96.53,97.35 96.53,97.35 Z" id="Path" fill="#8F4F26"></path>
            <path d="M19.27,47.64 C18.4789416,46.6009621 17.2458841,45.9936906 15.94,46 C14.02,46.21 13.19,46.68 13.81,45.26 C14.43,43.84 14,39.6 9.65,40.7 C9.65,40.7 5.39,44.83 10.9,46.7 C10.9,46.7 8.18,50.49 9.54,52.7 C10.9,54.91 19.27,47.64 19.27,47.64 Z" id="Path" fill="#8F4F26"></path>
            <path d="M32.84,97.94 C32.84,97.94 34.45,99.64 36.34,99.21 C38.23,98.78 39,98.21 38.54,99.7 C38.08,101.19 39.01,105.33 43.18,103.7 C43.18,103.7 46.96,99.11 41.27,97.92 C41.27,97.92 43.56,93.84 41.96,91.83 C40.36,89.82 32.84,97.94 32.84,97.94 Z" id="Path" fill="#8F4F26"></path>
            <path d="M120,52.29 C117.848764,48.7729365 113.911444,46.7540953 109.8,47.06 L87,92.13 C87,92.13 93.35,99.13 96.78,97.25 L120,52.29 Z" id="Path" fill="#DABA8D"></path>
            <path d="M9.39,52.88 C11.5412362,49.3629365 15.4785556,47.3440953 19.59,47.65 L42.37,92.71 C42.37,92.71 36.02,99.71 32.59,97.84 L9.39,52.88 Z" id="Path" fill="#DABA8D"></path>
            <path d="M83,49.89 L83.6,49.76 C83.6,49.76 83.39,49.64 82.95,49.42 C82.5068328,49.0915482 82.0859112,48.7340989 81.69,48.35 C81.81,48.51 82.83,48.02 82.83,48.02 L82.95,47.75 C82.3956544,47.7521082 81.8415738,47.7254055 81.29,47.67 C80.4804044,47.3576006 79.7422957,46.8848029 79.12,46.28 C78.91,45.99 78.61,44.46 78.47,44.38 C77.9207672,44.3389166 77.3692328,44.3389166 76.82,44.38 C76.67,44.38 76.72,45.06 76.72,45.06 L76.89,44.7 C76.97,44.54 77.78,45.08 77.82,45.23 C77.86,45.38 77.75,47.98 78.66,48.5 C78.8941613,48.6264742 79.1383155,48.7335007 79.39,48.82 C79.1611985,49.318855 78.890214,49.7972598 78.58,50.25 C78.44,50.31 77.16,50.25 77.13,50.32 C77.1,50.39 77.13,50.44 77.13,50.44 L79.81,50.44 L79.74,50.32 L78.8,50.24 L79.8,48.95 C81.15,49.45 83,49.89 83,49.89 Z" id="Path" fill="#835416"></path>
            <path d="M79.1,46.28 C79.1,46.28 78.34,46.5 78.45,47.12 C78.56,47.74 80.83,48.63 80.83,48.63 L82.83,48.02 L82.95,47.75 C82.2044583,47.8081502 81.4550064,47.7093588 80.75,47.46 C80.1,47.08 79.1,46.28 79.1,46.28 Z" id="Path" fill="#DF3D13"></path>
            <path d="M80.83,48.67 L80.83,48.67 C80.74,48.67 78.55,47.76 78.43,47.13 C78.31,46.5 79.09,46.24 79.1,46.24 L79.1,46.24 C79.6231696,46.6573513 80.1672041,47.0478546 80.73,47.41 C81.4256101,47.6552143 82.1644097,47.7539479 82.9,47.7 L83,47.7 L82.85,48.04 L82.85,48.04 L80.83,48.67 Z M79.09,46.32 C78.98,46.32 78.39,46.58 78.49,47.11 C78.59,47.64 80.67,48.53 80.84,48.59 L82.78,48 L82.87,47.81 C82.1368301,47.8656454 81.4002548,47.7633432 80.71,47.51 C80.13,47.14 79.22,46.42 79.09,46.32 Z" id="Shape" fill="#25120B"></path>
            <path d="M78.14,44.87 C78.05414,44.8867228 77.96586,44.8867228 77.88,44.87 C77.6572586,44.7943745 77.47145,44.6371517 77.36,44.43 C77.36,44.43 77.36,44.43 77.36,44.43 C77.4588755,44.6252455 77.6316974,44.7728643 77.84,44.84 C78.2359106,44.8622973 78.6318909,44.7974385 79,44.65 C79,44.65 79,44.65 79,44.65 C78.7214223,44.7519423 78.4333095,44.8256455 78.14,44.87 Z" id="Path" fill="#25120B"></path>
            <path d="M81.22,48.55 L81.22,48.55 C81.1087463,48.4358371 81.029433,48.2944526 80.99,48.14 C80.9513819,47.9587003 80.9513819,47.7712997 80.99,47.59 C80.99,47.59 80.99,47.59 80.99,47.59 C80.9536534,47.7546851 80.9536534,47.9253149 80.99,48.09 C81.0315882,48.2325666 81.1070713,48.3629464 81.21,48.47 L81.22,48.55 Z" id="Path" fill="#25120B"></path>
            <path d="M81.46,48.44 L81.46,48.44 C81.3770074,48.3013167 81.309917,48.1537177 81.26,48 C81.2353227,47.88801 81.2353227,47.77199 81.26,47.66 C81.26,47.66 81.26,47.66 81.26,47.66 C81.26,47.66 81.26,47.66 81.26,47.66 L81.26,47.66 C81.234536,47.7549897 81.234536,47.8550103 81.26,47.95 C81.3010423,48.0959324 81.3651876,48.2343513 81.45,48.36 L81.46,48.44 Z" id="Path" fill="#25120B"></path>
            <path d="M83.09,49.9 C82.4899311,49.6337221 81.9056373,49.3332282 81.34,49 L81.18,48.92 L81.88,48.98 L83.59,49.76 L81.85,49 L81.52,49 C82.16,49.36 83.02,49.83 83.09,49.85 L83.09,49.85 C83.09,49.85 83.09,49.85 83.09,49.85 L83.09,49.9 Z" id="Path" fill="#25120B"></path>
            <path d="M78.59,46.64 L78,44.84 C78,44.84 78,44.84 78,44.84 L78.56,46.55 L78.67,46.45 L78.19,44.93 C78.19,44.93 78.19,44.93 78.19,44.93 C78.19,44.93 78.19,44.93 78.19,44.93 L78.69,46.5 L78.59,46.64 Z" id="Path" fill="#25120B"></path>
            <path d="M79.91,48.26 C79.8878449,48.0420844 79.9047772,47.8219635 79.96,47.61 C80.0298843,47.4426688 80.1439536,47.2974896 80.29,47.19 C80.29,47.19 80.29,47.19 80.29,47.19 C80.158451,47.2948318 80.052448,47.4281904 79.98,47.58 C79.9446983,47.7818011 79.9446983,47.9881989 79.98,48.19 C79.98,48.19 79.98,48.19 79.98,48.19 L79.91,48.26 Z" id="Path" fill="#25120B"></path>
            <path d="M77.68,44.7 C77.68,44.7 77.52,44.8 77.43,44.7 C77.34,44.6 77.43,44.46 77.43,44.46 L77.68,44.7 Z" id="Path" fill="#DF3D13"></path>
            <path d="M77.5,44.79 C77.4707072,44.7992122 77.4392928,44.7992122 77.41,44.79 C77.32,44.72 77.41,44.57 77.41,44.5 L77.41,44.5 L77.41,44.5 L77.64,44.7 L77.64,44.7 L77.64,44.7 C77.5990589,44.7380896 77.5516491,44.7685673 77.5,44.79 L77.5,44.79 Z M77.5,44.56 C77.5,44.56 77.5,44.68 77.5,44.71 C77.5516146,44.7291486 77.6083854,44.7291486 77.66,44.71 L77.5,44.56 Z" id="Shape" fill="#25120B"></path>
            <path d="M78.44,47 L78.44,47 C77.88,44.93 77.88,44.92 77.88,44.91 C77.88,44.97 78.25,46.29 78.44,46.99 C78.44,46.99 78.44,46.99 78.44,46.99 L78.44,47 Z" id="Path" fill="#25120B"></path>
            <path d="M78.41,47.13 C78.41,47.13 78.34,47.05 77.86,46.13 C77.86,46.13 77.86,46.13 77.86,46.13 L78.37,47.13 C78.37,47.13 78.37,47.13 78.37,47.13 C78.37,47.13 78.37,47.13 78.37,47.13 L78.41,47.13 Z" id="Path" fill="#25120B"></path>
            <path d="M78.47,47.3 L78.47,47.3 L77.96,46.86 C77.96,46.86 77.96,46.86 77.96,46.86 L78.47,47.3 Z" id="Path" fill="#25120B"></path>
            <path d="M81,50.53 L77,50.53 C77,50.53 77,50.53 77,50.53 C77,50.53 77,50.53 77,50.53 L81,50.53 C81,50.53 81,50.53 81,50.53 C81,50.53 81,50.53 81,50.53 Z" id="Path" fill="#25120B"></path>
            <path d="M36,73.72 C36,73.72 35.5,66.17 36.62,64.63 C36.8988575,64.0493536 37.5657596,63.7663832 38.1770943,63.9693159 C38.788429,64.1722485 39.1537277,64.7978582 39.03,65.43 C38.82,66.64 39.6,66.81 39.6,66.81 L38.25,66.87 L37.92,68.62 C37.92,68.62 39.51,67.32 40.06,68.48 C40.61,69.64 38.06,72.94 38.06,72.94 C39.0132125,72.874566 39.9703704,72.8946463 40.92,73 C41.0847543,73.0186666 41.232295,73.1106633 41.3215644,73.2503894 C41.4108338,73.3901155 41.4323039,73.5626574 41.38,73.72 L36,73.72 Z" id="Path" fill="#835416"></path>
            <path d="M37.77,67.5 L37.77,67.5 L36.2,67.33 C36.1708158,67.3250699 36.1495865,67.2995948 36.1499941,67.27 C36.1677778,67.2566667 36.1922222,67.2566667 36.21,67.27 L37.72,67.44 C37.72,67.1 37.64,65.56 37.98,65.25 C38.2737448,65.0358909 38.6471503,64.9626741 39,65.05 C39.0150214,65.0709157 39.0150214,65.0990843 39,65.12 C38.9790843,65.1350214 38.9509157,65.1350214 38.93,65.12 C38.5947414,65.0039502 38.2244437,65.0520889 37.93,65.25 C37.6499941,65.5 37.67,66.9 37.7,67.41 C37.7,67.41 37.7,67.41 37.7,67.41 L37.77,67.5 Z" id="Path" fill="#25120B"></path>
            <path d="M40.5,73.77 C40.4322075,73.5851299 40.33421,73.4127895 40.21,73.26 C40.1,73.26 38.32,73.36 37.15,73.45 C37.15,73.45 37.15,73.45 37.1,73.45 C37.089282,73.4314359 37.089282,73.4085641 37.1,73.39 C37.73,72.46 39.29,69.92 38.95,69.39 C38.61,68.86 36.65,69.64 36.63,69.65 C36.6121367,69.65 36.5956304,69.6404701 36.5866987,69.625 C36.5777671,69.6095299 36.5777671,69.5904701 36.5866987,69.575 C36.5956304,69.5595299 36.6121367,69.55 36.63,69.55 C36.71,69.55 38.63,68.55 39.08,69.33 C39.53,70.11 37.65,72.86 37.29,73.41 C38.09,73.35 40.18,73.2 40.29,73.23 C40.4,73.26 40.58,73.64 40.64,73.8 L40.5,73.77 Z" id="Path" fill="#25120B"></path>
            <path d="M37.11,67.33 C37.11,67.25 37.04,65.33 37.48,64.88 C37.86679,64.551859 38.3842954,64.4224827 38.88,64.53 C38.9076142,64.53 38.93,64.5523858 38.93,64.58 C38.93,64.6076142 38.9076142,64.63 38.88,64.63 C38.88,64.63 37.98,64.48 37.58,64.94 C37.18,65.4 37.23,67.3 37.23,67.32 C37.2433333,67.3377778 37.2433333,67.3622222 37.23,67.38 L37.11,67.33 Z" id="Path" fill="#25120B"></path>
            <path d="M36.44,67.33 C36.4214359,67.340718 36.3985641,67.340718 36.38,67.33 C36.38,67.23 36.28,65 36.77,64.52 C37.193368,64.1898019 37.7131391,64.0071797 38.25,64 C38.260718,64.0185641 38.260718,64.0414359 38.25,64.06 C38.2589316,64.0754701 38.2589316,64.0945299 38.25,64.11 L38.25,64.11 C37.746663,64.1027529 37.2548478,64.2608363 36.85,64.56 C36.39,65.01 36.49,67.27 36.49,67.29 C36.4904135,67.3195948 36.4691842,67.3450699 36.44,67.35 L36.44,67.33 Z" id="Path" fill="#25120B"></path>
            <path d="M39,69.31 L38.95,69.31 C38.95,69.31 38.95,69.25 38.95,69.24 C39.16,69.09 39.45,68.84 39.46,68.73 L39.46,68.73 C38.9576179,68.6862374 38.4523821,68.6862374 37.95,68.73 C37.5679425,68.7742301 37.1820575,68.7742301 36.8,68.73 C36.62,68.63 36.55,67.98 36.54,67.85 C36.53,67.72 36.54,67.79 36.54,67.79 C36.5585641,67.779282 36.5814359,67.779282 36.6,67.79 C36.6046817,68.0696695 36.6767167,68.3440885 36.81,68.59 C37.1762738,68.6140051 37.5437262,68.6140051 37.91,68.59 C38.4365501,68.5269157 38.9697507,68.5471638 39.49,68.65 C39.5033333,68.682 39.5033333,68.718 39.49,68.75 C39.49,68.94 39.02,69.27 38.93,69.33 L39,69.31 Z" id="Path" fill="#25120B"></path>
            <path d="M86,83.38 C85.4678685,82.6493133 84.6570157,82.1714893 83.76,82.06 C82.6957027,82.1464453 81.681905,82.5505708 80.85,83.22 L79.18,83.22 L79.18,83.87 L80.83,83.87 C81.5421012,84.4761892 82.4357668,84.828026 83.37,84.87 C84.3077553,84.8154637 85.2147122,84.5154437 86,84 L87.37,83.89 L87.37,83.48 L86,83.38 Z M83.3,84.38 C82.5984597,84.3370069 81.9416096,84.0211445 81.47,83.5 C82.0386609,83.0295488 82.7353306,82.7404308 83.47,82.67 C84.2187249,82.7006749 84.9134336,83.0682456 85.36,83.67 C84.7853017,84.1715762 84.0292012,84.4139625 83.27,84.34 L83.3,84.38 Z" id="Shape" fill="#835416"></path>
            <path d="M84.33,83.38 C84.3463507,83.7643211 84.1268907,84.1198223 83.7759926,84.2774313 C83.4250945,84.4350404 83.0135772,84.3629484 82.7371534,84.0954415 C82.4607296,83.8279346 82.3751876,83.4190014 82.5212102,83.0631258 C82.6672328,82.7072501 83.0153494,82.4762554 83.4,82.48 C83.6430687,82.4746425 83.8781739,82.5667748 84.052886,82.7358511 C84.2275982,82.9049273 84.3273873,83.1368863 84.33,83.38 L84.33,83.38 Z" id="Path" fill="#DF3D13"></path>
            <path d="M83.4,84.3200017 C82.8814291,84.2926472 82.4809113,83.853972 82.5007319,83.3350586 C82.5205526,82.8161453 82.9533663,82.4093003 83.4725127,82.4215846 C83.9916592,82.4338689 84.4047453,82.8607299 84.4,83.38 C84.3682202,83.9087239 83.9296773,84.3209542 83.4,84.3200017 Z M83.4,82.53 C82.9333194,82.5409838 82.5628236,82.9262672 82.5701034,83.3930203 C82.5773832,83.8597733 82.9597142,84.2333151 83.4265104,84.2297397 C83.8933065,84.2261643 84.2698708,83.8468098 84.27,83.38 C84.2673632,83.1519089 84.1742176,82.9342091 84.0110576,82.7747999 C83.8478976,82.6153906 83.6280907,82.5273324 83.4,82.53 Z" id="Shape" fill="#25120B"></path>
            <path d="M62.86,82.63 L62.86,84.18 C62.86,84.18 67.86,84.18 68.15,84.18 C68.44,84.18 69.02,85.06 70.05,85.02 C71.08,84.98 71.27,84.14 72.19,83.9 C73.11,83.66 73.37,83.98 73.47,83.82 C73.57,83.66 73.68,83.15 73.23,83.11 C72.78,83.07 71.96,82.79 71.48,83.11 C71,83.43 70.09,83.94 69.76,83.78 C69.43,83.62 69.84,82.87 70.71,82.78 C71.58,82.69 71.62,82.42 71.71,82.26 C71.7675253,82.1646727 71.7675253,82.0453273 71.71,81.95 C71.71,81.95 69.58,82.5 68.92,82.62 C68.26,82.74 62.86,82.63 62.86,82.63 Z" id="Path" fill="#835416"></path>
            <path d="M70.16,84.36 C69.9776057,84.3692395 69.7965882,84.3239851 69.64,84.23 C69.64,84.23 69.69,84.23 69.71,84.23 C69.9370767,84.3626312 70.2100561,84.391749 70.46,84.31 C70.7989992,84.1934765 71.1092376,84.0059697 71.37,83.76 C71.5296844,83.6185281 71.7040038,83.4944931 71.89,83.39 C72.3,83.18 73.44,83.51 73.49,83.53 C73.54,83.55 73.49,83.53 73.49,83.59 C73.4683419,83.6025043 73.4416581,83.6025043 73.42,83.59 C73.42,83.59 72.27,83.25 71.9,83.45 C71.7166049,83.5498008 71.5454527,83.6706141 71.39,83.81 C71.1002555,84.0679245 70.7595679,84.2621165 70.39,84.38 L70.16,84.36 Z" id="Path" fill="#25120B"></path>
            <path d="M70.19,84.8 C70.0572191,84.8171648 69.9227809,84.8171648 69.79,84.8 C69.7749786,84.7790843 69.7749786,84.7509157 69.79,84.73 C69.8094422,84.7109429 69.8405578,84.7109429 69.86,84.73 C70.1021352,84.7968657 70.3578648,84.7968657 70.6,84.73 C70.902953,84.5917731 71.1776077,84.3984975 71.41,84.16 C71.6361687,83.9362475 71.8918704,83.7444712 72.17,83.59 C72.66,83.39 73.49,83.84 73.52,83.86 C73.4990843,83.8750214 73.4709157,83.8750214 73.45,83.86 C73.45,83.86 72.63,83.42 72.19,83.6 C71.9235519,83.7464494 71.6780165,83.9280783 71.46,84.14 C71.2167944,84.3915277 70.9284483,84.5950662 70.61,84.74 C70.4733341,84.778791 70.3320608,84.7989729 70.19,84.8 Z" id="Path" fill="#25120B"></path>
            <path d="M67.91,84.24 L67.91,84.24 L67.91,82.68 C67.9010684,82.6645299 67.9010684,82.6454701 67.91,82.63 L68.21,82.63 L68.21,82.63 L68.15,84.13 L67.91,84.13 L67.91,84.24 Z M68,82.73 L68,84.14 L68.13,84.14 L68.18,82.74 L68,82.73 Z" id="Shape" fill="#25120B"></path>
            <path d="M66.13,84.25 L66.13,82.67 C66.13,82.6423858 66.1523858,82.62 66.18,82.62 C66.2076142,82.62 66.23,82.6423858 66.23,82.67 L66.23,84.2 L66.13,84.25 Z" id="Path" fill="#25120B"></path>
            <path d="M67.91,83.05 L66.13,83.05 L67.91,83.05 C67.9278633,83.05 67.9443696,83.0595299 67.9533013,83.075 C67.9622329,83.0904701 67.9622329,83.1095299 67.9533013,83.125 C67.9443696,83.1404701 67.9278633,83.15 67.91,83.15 L67.91,83.05 Z" id="Path" fill="#25120B"></path>
            <path d="M66.13,83.54 C66.119282,83.5214359 66.119282,83.4985641 66.13,83.48 L67.91,83.43 C67.91,83.43 67.97,83.43 67.97,83.48 C67.980718,83.4985641 67.980718,83.5214359 67.97,83.54 L66.18,83.59 L66.13,83.54 Z" id="Path" fill="#25120B"></path>
            <path d="M66.13,84 C66.13,84 66.13,84 66.13,84 L67.91,83.9 C67.9285641,83.889282 67.9514359,83.889282 67.97,83.9 L66.18,84 L66.13,84 Z" id="Path" fill="#25120B"></path>
            <path d="M43.16,81.47 L43.26,83.2 L53,83.2 L52.95,81.2 C52.95,81.2 51.76,81.87 51.42,81.68 C50.8983005,81.2726513 50.2377408,81.0859714 49.58,81.16 C48.82,81.31 48.29,82.16 47.73,81.95 C47.17,81.74 46.36,80.85 45.47,81.16 C44.58,81.47 44.47,82.05 43.79,81.82 C43.5677099,81.7269758 43.3564191,81.609592 43.16,81.47 Z" id="Path" fill="#DF3D13"></path>
            <path d="M53,83.25 L43.26,83.25 L43.16,81.52 C43.361582,81.6460164 43.5761533,81.7499494 43.8,81.83 C44.100016,81.9323554 44.4321681,81.8502943 44.65,81.62 C44.8883448,81.4244376 45.1591029,81.2721362 45.45,81.17 C46.0449277,81.0525867 46.6603564,81.2231272 47.11,81.63 C47.2978465,81.7722023 47.5071318,81.8835961 47.73,81.96 C48.02,82.04 48.3,81.85 48.62,81.63 C48.8997816,81.4159343 49.2192976,81.2595754 49.56,81.17 C50.1539197,81.0732466 50.7614842,81.2251377 51.24,81.59 L51.43,81.7 C51.69,81.84 52.59,81.39 52.92,81.21 L52.92,81.21 L52.92,83.21 L53,83.25 Z M43.29,83.15 L53,83.15 L53,81.25 C52.72,81.41 51.81,81.87 51.49,81.7 L51.3,81.58 C50.8370197,81.2397001 50.2584098,81.0959461 49.69,81.18 C49.3629929,81.2684815 49.0569894,81.4214832 48.79,81.63 C48.5201663,81.8811901 48.1575831,82.0080942 47.79,81.98 C47.5632243,81.8898003 47.3483026,81.772265 47.15,81.63 C46.7217031,81.2429376 46.1379622,81.0766823 45.57,81.18 C45.2925766,81.2825119 45.0328003,81.4275817 44.8,81.61 C44.5488577,81.8904449 44.1484297,81.9825434 43.8,81.84 C43.6004053,81.7718343 43.4091837,81.6812556 43.23,81.57 L43.29,83.15 Z" id="Shape" fill="#25120B"></path>
            <path d="M56.29,71.21 C57.22,71.09 57.2,68.85 56.29,68.77 C55.38,68.69 54.86,68.7 54.86,68.7 C54.86,68.7 47.45,68.62 47.08,68.7 C46.71,68.78 46.49,71.11 47.48,71.2 C48.47,71.29 55.37,71.34 56.29,71.21 Z M53.68,70.53 C52.87,70.53 51.68,70.16 50.82,70.12 C49.9860613,70.1306788 49.1539478,70.200857 48.33,70.33 L48.27,69.53 C49.3571475,69.3830451 50.4529652,69.3095451 51.55,69.3099979 C52.7,69.37 52.83,69.73 53.85,69.77 C54.380761,69.8077022 54.9141378,69.7604409 55.43,69.63 L55.26,70.49 C54.7351894,70.544625 54.2069024,70.5579994 53.68,70.53 L53.68,70.53 Z" id="Shape" fill="#DF3D13"></path>
            <path d="M52.48,71.35 C50.31,71.35 47.97,71.35 47.48,71.27 C46.99,71.19 46.8,70.82 46.74,70.13 C46.68,69.44 46.82,68.74 47.08,68.67 C47.34,68.6 54.56,68.67 54.87,68.67 C54.87,68.67 55.33,68.67 56.31,68.74 C56.8,68.74 57.03,69.38 57.04,69.95 C57.05,70.52 56.84,71.22 56.31,71.29 L56.31,71.29 C55.87,71.32 54.24,71.35 52.48,71.35 Z M49.65,68.72 C48.29,68.72 47.22,68.72 47.09,68.72 C46.96,68.72 46.77,69.39 46.83,70.07 C46.83,70.37 46.97,71.07 47.48,71.07 C48.38,71.15 55.34,71.2 56.29,71.07 C56.75,71.01 56.94,70.39 56.93,69.84 C56.92,69.29 56.71,68.77 56.29,68.73 C55.8148124,68.6835314 55.33741,68.6635005 54.86,68.67 C53.45,68.74 51.32,68.72 49.65,68.72 Z M54.18,70.6 L53.68,70.6 C53.29,70.6 52.82,70.49 52.32,70.4 C51.8253062,70.2962629 51.3241626,70.2261028 50.82,70.19 C49.9895006,70.1946841 49.1605173,70.2615376 48.34,70.39 L48.34,70.39 L48.2799941,69.59 C48.2795865,69.5604052 48.3008158,69.5349301 48.33,69.53 C49.4176799,69.3895392 50.5132884,69.3193935 51.61,69.3199961 C52.0296952,69.3380377 52.4443095,69.4189381 52.84,69.56 C53.1824284,69.6906946 53.5437855,69.7649923 53.91,69.78 C54.4374839,69.822239 54.9683123,69.774904 55.48,69.64 L55.48,69.64 C55.48,69.64 55.48,69.64 55.48,69.64 L55.31,70.5 C54.9354681,70.5541675 54.5582239,70.5875519 54.18,70.6 Z M53.69,70.48 C54.1992426,70.5193088 54.7107574,70.5193088 55.22,70.48 L55.37,69.75 C54.8697441,69.8487321 54.3592591,69.8856751 53.85,69.86 C53.4732626,69.8518004 53.1009113,69.7773302 52.75,69.64 C52.3610374,69.4995828 51.9531105,69.4186717 51.54,69.3999992 C50.4665587,69.3997179 49.3942554,69.4698686 48.33,69.61 L48.38,70.31 C49.1879468,70.1888536 50.0031098,70.122037 50.82,70.11 C51.3302548,70.1509747 51.8377496,70.2210891 52.34,70.32 C52.7855767,70.4137088 53.2363929,70.4804964 53.69,70.52 L53.69,70.48 Z" id="Shape" fill="#25120B"></path>
            <path d="M66,43.61 C66.14,43.98 65.77,46.54 66,46.81 C66.23,47.08 67.21,47.16 67.21,47.16 C67.21,47.16 66.84,42.85 67.32,42.48 C67.8,42.11 68.81,42.31 68.85,42.81 L68.85,43.31 L68.51,43.4 L69.07,44.74 C68.8085443,44.8135953 68.5972227,45.00638 68.5,45.26 C68.39,45.66 68.89,45.94 69.24,46.44 C69.4372969,46.7061232 69.5707371,47.0140621 69.63,47.34 L71.31,47.34 C71.5037781,47.3528159 71.6844628,47.4423162 71.8120794,47.5887 C71.9396961,47.7350838 72.0037248,47.9262841 71.99,48.12 L71.99,48.12 C72.018716,48.5253811 71.7151402,48.8780647 71.31,48.91 L65,48.85 C65,48.85 63.41,47.97 63.55,47.69 C63.69,47.41 64.14,47.69 64.14,47.69 C64.14,47.69 63.14,46.86 63.26,46.59 C63.38,46.32 63.72,46.36 63.72,46.36 C63.72,46.36 62.9,46.02 62.89,45.45 C62.88,44.88 63.65,45.02 63.65,45.02 C63.65,45.02 62.55,44.37 62.65,43.91 C63,42.9 65.85,43.24 66,43.61 Z" id="Path" fill="#835416"></path>
            <path d="M68.14,45.27 L67,45.27 C66.9708158,45.2650699 66.9495865,45.2395948 66.9499941,45.21 C66.9499941,45.1823858 66.9723858,45.16 67,45.16 L68,45.16 C67.93,44.6 67.81,43.44 68,43.36 C68.2375905,43.3090015 68.4780203,43.2722692 68.72,43.25 C68.7418768,43.2595379 68.7560208,43.2811344 68.7560208,43.305 C68.7560208,43.3288656 68.7418768,43.3504621 68.72,43.36 C68.4874216,43.3721186 68.2564496,43.4055928 68.03,43.46 C67.9172686,44.0378869 67.9172686,44.6321131 68.03,45.21 L68.14,45.27 Z" id="Path" fill="#25120B"></path>
            <path d="M66,46.93 C65.2374644,46.66952 64.620192,46.0994508 64.3,45.36 C64.0980191,44.6688009 64.0502278,43.9416899 64.16,43.23 C64.1820952,43.21925 64.2079048,43.21925 64.23,43.23 C64.237784,43.2492426 64.237784,43.2707574 64.23,43.29 C64.1143471,43.9841852 64.1588116,44.6956174 64.36,45.37 C64.6642499,46.0688333 65.2430109,46.6114217 65.96,46.87 L65.96,46.87 C65.9851449,46.8590372 66.0145227,46.8665232 66.031355,46.8881824 C66.0481872,46.9098417 66.0481872,46.9401583 66.031355,46.9618176 C66.0145227,46.9834768 65.9851449,46.9909628 65.96,46.98 L66,46.93 Z" id="Path" fill="#25120B"></path>
            <path d="M64.1,44 L64.1,44 L63.1,43.5 C63.1209157,43.4849786 63.1490843,43.4849786 63.17,43.5 L64.17,44 C64.1850214,44.0209157 64.1850214,44.0490843 64.17,44.07 C64.150094,44.0849295 64.1222393,44.0829499 64.1046447,44.0653553 C64.0870501,44.0477607 64.0850705,44.019906 64.1,44 L64.1,44 Z" id="Path" fill="#25120B"></path>
            <path d="M64.1,44.7 L64.1,44.7 L62.65,44.06 C62.6694422,44.0409429 62.7005578,44.0409429 62.72,44.06 L64.17,44.69 C64.1890571,44.7094422 64.1890571,44.7405578 64.17,44.76 C64.1520007,44.7690182 64.1303484,44.7663617 64.115063,44.7532599 C64.0997775,44.7401581 64.0938407,44.7191668 64.1,44.7 L64.1,44.7 Z" id="Path" fill="#25120B"></path>
            <path d="M64.17,45.27 L64.17,45.27 L63.59,45 C63.5623858,45 63.54,44.9776142 63.54,44.95 C63.54,44.9223858 63.5623858,44.9 63.59,44.9 L64.15,45.15 C64.15,45.15 64.19,45.27 64.17,45.27 Z" id="Path" fill="#25120B"></path>
            <path d="M64.49,45.77 L64.49,45.77 L62.87,45.55 C62.8609941,45.5310138 62.8609941,45.5089862 62.87,45.49 C62.8749301,45.4608158 62.9004052,45.4395865 62.93,45.44 L64.54,45.66 C64.5618768,45.6695379 64.5760208,45.6911344 64.5760208,45.715 C64.5760208,45.7388656 64.5618768,45.7604621 64.54,45.77 L64.49,45.77 Z" id="Path" fill="#25120B"></path>
            <path d="M63.55,46.33 C63.5314359,46.340718 63.5085641,46.340718 63.49,46.33 C63.479282,46.3114359 63.479282,46.2885641 63.49,46.27 L64.82,46.17 C64.8495948,46.1695865 64.8750699,46.1908158 64.8800059,46.22 C64.8804135,46.2495948 64.8591842,46.2750699 64.83,46.28 L63.5,46.38 L63.55,46.33 Z" id="Path" fill="#25120B"></path>
            <path d="M63.38,46.93 C63.38,46.93 63.38,46.88 63.38,46.87 L65.29,46.55 C65.29,46.55 65.29,46.6 65.29,46.61 L63.38,46.94 L63.38,46.93 Z" id="Path" fill="#25120B"></path>
            <path d="M63.85,47.47 C63.8345299,47.4789316 63.8154701,47.4789316 63.8,47.47 C63.7849786,47.4490843 63.7849786,47.4209157 63.8,47.4 L65.61,46.8 C65.61,46.8 65.67,46.8 65.67,46.8 C65.67,46.8 65.67,46.86 65.67,46.86 L63.86,47.47 L63.85,47.47 Z" id="Path" fill="#25120B"></path>
            <path d="M71.86,48.64 C71.86,48.46 71.76,47.96 71.58,47.84 C70.5154487,47.7449972 69.4445513,47.7449972 68.38,47.84 C68.38,47.84 68.38,47.84 68.38,47.84 L68.22,46.69 C68.209282,46.6714359 68.209282,46.6485641 68.22,46.63 C68.22,46.63 68.22,46.63 68.28,46.63 L68.43,47.74 C69.494294,47.6393845 70.565706,47.6393845 71.63,47.74 C71.9,47.92 71.96,48.59 71.96,48.62 C71.970718,48.6385641 71.970718,48.6614359 71.96,48.68 L71.86,48.64 Z" id="Path" fill="#25120B"></path>
            <path d="M69.09,49 L69.09,49 C69.0709429,48.9805578 69.0709429,48.9494422 69.09,48.93 C69.16,48.71 69.22,48.37 69.09,48.31 C68.3083713,48.2904971 67.5263523,48.3272587 66.75,48.42 L66.75,48.42 C66.7614799,48.2468567 66.7614799,48.0731433 66.75,47.9 C66.75,47.71 66.34,47.6 66.19,47.57 C66.179282,47.5514359 66.179282,47.5285641 66.19,47.51 C66.19,47.51 66.19,47.51 66.25,47.51 C66.31,47.51 66.87,47.63 66.9,47.93 C66.9092385,48.0898666 66.9092385,48.2501334 66.9,48.41 C67.6726899,48.3137432 68.4521874,48.2836338 69.23,48.32 C69.46,48.43 69.29,48.96 69.23,49.06 C69.219282,49.0850086 69.1960363,49.1023995 69.1690192,49.1056218 C69.1420022,49.108844 69.1153183,49.0974081 69.0990192,49.0756218 C69.0827201,49.0538355 69.079282,49.0250086 69.09,49 L69.09,49 Z" id="Path" fill="#25120B"></path>
            <path d="M71.3,61.72 L71.97,61.57 C71.97,61.57 71.74,61.43 71.25,61.19 C70.7541541,60.8289997 70.286167,60.4312107 69.85,60 C69.97,60.19 71.12,59.63 71.12,59.63 L71.25,59.32 C70.6288572,59.3223465 70.0080145,59.2923057 69.39,59.23 C68.4922529,58.856671 67.679288,58.3056237 67,57.61 C66.77,57.29 66.44,55.54 66.28,55.45 C65.6675513,55.4034146 65.0524487,55.4034146 64.44,55.45 C64.27,55.45 64.33,56.21 64.33,56.21 C64.33,56.21 64.42,55.99 64.51,55.81 C64.6,55.63 65.51,56.24 65.51,56.41 C65.51,56.58 65.44,59.54 66.51,60.13 C66.7693321,60.2754643 67.0402565,60.3992199 67.32,60.5 C67.0660466,61.0694658 66.7614914,61.6149879 66.41,62.13 C66.25,62.2 64.83,62.13 64.79,62.21 C64.75,62.29 64.79,62.33 64.79,62.33 L67.79,62.33 L67.71,62.21 L66.71,62.11 L67.85,60.65 C69.27,61.22 71.3,61.72 71.3,61.72 Z" id="Path" fill="#835416"></path>
            <path d="M67,57.61 C67,57.61 66.16,57.87 66.29,58.61 C66.42,59.35 68.94,60.33 68.94,60.33 L71.15,59.63 L71.28,59.32 C70.4366676,59.3925716 69.5875784,59.2834517 68.79,59 C68.09,58.52 67,57.61 67,57.61 Z" id="Path" fill="#DF3D13"></path>
            <path d="M68.91,60.35 L68.91,60.35 C68.81,60.35 66.35,59.35 66.22,58.59 C66.09,57.83 66.97,57.59 66.98,57.59 L66.98,57.59 L66.98,57.59 C66.98,57.59 68.1,58.5 68.79,58.93 C69.5662167,59.2013672 70.3899281,59.3102877 71.21,59.25 L71.3,59.25 L71.12,59.66 L71.12,59.66 L68.91,60.35 Z M66.91,57.67 C66.77,57.67 66.15,57.97 66.26,58.56 C66.37,59.15 68.64,60.14 68.86,60.24 L71.03,59.54 L71.12,59.34 C70.3038886,59.404397 69.4837299,59.2847905 68.72,58.99 C68.1255569,58.578212 67.5515422,58.1376892 67,57.67 L66.91,57.67 Z" id="Shape" fill="#25120B"></path>
            <path d="M65.9,56 C65.804047,56.0166119 65.705953,56.0166119 65.61,56 C65.3524171,55.9168534 65.1395411,55.732842 65.02,55.49 C65.0009429,55.4705578 65.0009429,55.4394422 65.02,55.42 C65.0409157,55.4049786 65.0690843,55.4049786 65.09,55.42 C65.2028364,55.6305131 65.387294,55.7936872 65.61,55.88 C66.027813,55.9134706 66.4482134,55.8693964 66.85,55.75 C66.5435806,55.8682943 66.2249555,55.952143 65.9,56 L65.9,56 Z" id="Path" fill="#25120B"></path>
            <path d="M69.34,60.21 C69.2156162,60.0757667 69.1233002,59.9150685 69.07,59.74 C69.0287732,59.5320234 69.0287732,59.3179766 69.07,59.11 C69.0909157,59.0949786 69.1190843,59.0949786 69.14,59.11 C69.1011953,59.2980187 69.1011953,59.4919813 69.14,59.68 C69.1800085,59.8401168 69.2590245,59.9878423 69.37,60.11 L69.34,60.21 Z" id="Path" fill="#25120B"></path>
            <path d="M69.61,60.08 L69.61,60.08 C69.5062087,59.9272003 69.4284868,59.7582397 69.38,59.58 C69.3490243,59.4518452 69.3490243,59.3181548 69.38,59.19 C69.4009157,59.1749786 69.4290843,59.1749786 69.45,59.19 C69.4690571,59.2094422 69.4690571,59.2405578 69.45,59.26 C69.4245446,59.365148 69.4245446,59.474852 69.45,59.58 C69.4972499,59.7458717 69.567965,59.9041387 69.66,60.05 L69.61,60.08 Z" id="Path" fill="#25120B"></path>
            <path d="M71.42,61.75 C71.42,61.75 71.24,61.68 69.42,60.67 L69.22,60.55 L70.04,60.63 L71.96,61.52 C71.9725043,61.5416581 71.9725043,61.5683419 71.96,61.59 C71.9405578,61.6090571 71.9094422,61.6090571 71.89,61.59 L69.99,60.7 L69.67,60.7 C70.37,61.1 71.28,61.61 71.37,61.64 C71.46,61.67 71.37,61.64 71.37,61.64 C71.3850214,61.6609157 71.3850214,61.6890843 71.37,61.71 L71.42,61.75 Z" id="Path" fill="#25120B"></path>
            <path d="M66.4,58.05 L65.74,56 L66.35,57.92 L66.46,57.83 L66,56.05 C65.9849786,56.0290843 65.9849786,56.0009157 66,55.98 C66,55.98 66,55.98 66.06,55.98 L66.62,57.77 L66.4,58.05 Z" id="Path" fill="#25120B"></path>
            <path d="M67.88,59.88 C67.8710684,59.8645299 67.8710684,59.8454701 67.88,59.83 C67.8536404,59.5817505 67.8739909,59.3307602 67.94,59.09 C68.0164204,58.8987762 68.1445293,58.7325809 68.31,58.61 C68.3327761,58.5896285 68.3672239,58.5896285 68.39,58.61 C68.39,58.61 68.39,58.67 68.39,58.68 C68.2435404,58.7954073 68.1297823,58.9470848 68.06,59.12 C67.9981174,59.3444216 67.9777831,59.5782654 68,59.81 C68,59.81 68,59.81 68,59.81 L67.88,59.88 Z" id="Path" fill="#25120B"></path>
            <path d="M65.39,55.81 C65.39,55.81 65.21,55.93 65.11,55.81 C65.01,55.69 65.11,55.54 65.11,55.54 L65.39,55.81 Z" id="Path" fill="#DF3D13"></path>
            <path d="M65.19,55.93 L65.08,55.93 C64.95,55.83 65.08,55.61 65.08,55.59 L65.08,55.53 L65.08,55.53 L65.33,55.76 L65.39,55.76 L65.33,55.76 C65.2971392,55.826751 65.2492112,55.8849493 65.19,55.93 L65.19,55.93 Z M65.19,55.67 C65.19,55.67 65.19,55.79 65.19,55.81 C65.19,55.83 65.28,55.81 65.34,55.81 L65.19,55.67 Z" id="Shape" fill="#25120B"></path>
            <path d="M66.24,58.38 C65.57,56 65.57,56 65.57,56 C65.57,56.08 66.02,57.73 66.19,58.36 C66.2050214,58.3809157 66.2050214,58.4090843 66.19,58.43 L66.24,58.38 Z" id="Path" fill="#25120B"></path>
            <path d="M66.2,58.59 C66.2,58.59 66.11,58.49 65.58,57.43 C65.5698196,57.4089801 65.5755473,57.3837125 65.5937965,57.3691371 C65.6120457,57.3545616 65.6379543,57.3545616 65.6562035,57.3691371 C65.6744527,57.3837125 65.6801804,57.4089801 65.67,57.43 L66.24,58.55 C66.2461554,58.5660983 66.2461554,58.5839017 66.24,58.6 L66.2,58.59 Z" id="Path" fill="#25120B"></path>
            <polygon id="Path" fill="#25120B" points="66.28 58.78 66.28 58.78 65.71 58.28"></polygon>
            <path d="M69.08,62.46 L64.57,62.46 C64.5610684,62.4445299 64.5610684,62.4254701 64.57,62.41 C64.559282,62.3914359 64.559282,62.3685641 64.57,62.35 L69.08,62.35 C69.090718,62.3685641 69.090718,62.3914359 69.08,62.41 C69.0889316,62.4254701 69.0889316,62.4445299 69.08,62.46 L69.08,62.46 Z" id="Path" fill="#25120B"></path>
            <path d="M69.74,75.07 C69.2797043,74.3826438 68.5560101,73.915861 67.74,73.78 C66.7691426,73.8701192 65.8518584,74.2657417 65.12,74.91 L63.62,74.91 L63.62,75.54 L65.11,75.54 C65.7323833,76.1316586 66.5429904,76.4856355 67.4,76.54 C68.240842,76.4799892 69.0480346,76.1855197 69.73,75.69 L70.97,75.59 L70.97,75.19 L69.74,75.07 Z M67.31,76 C66.6666681,75.9550698 66.0700706,75.6477316 65.66,75.15 C66.1627267,74.6957417 66.7963008,74.4122085 67.47,74.34 C68.1663163,74.3833399 68.8008036,74.7543851 69.18,75.34 C68.6823692,75.8215754 67.9996676,76.0625289 67.31,76 L67.31,76 Z" id="Shape" fill="#835416"></path>
            <path d="M68.26,75.06 C68.2435732,75.5196549 67.8605322,75.8806206 67.400712,75.8697659 C66.9408918,75.8589112 66.5753102,75.4802731 66.5805913,75.0203551 C66.5858723,74.5604371 66.9600518,74.1902934 67.42,74.19 C67.8910508,74.2009243 68.2656055,74.5888558 68.26,75.06 Z" id="Path" fill="#DF3D13"></path>
            <path d="M67.42,76 C67.0454064,76.0122215 66.7008445,75.7959851 66.5489458,75.4533533 C66.3970471,75.1107216 66.4681801,74.7101955 66.7287703,74.4408213 C66.9893605,74.1714471 67.3873093,74.0870797 67.7347868,74.2275402 C68.0822643,74.3680006 68.3098007,74.7052072 68.31,75.08 C68.3156009,75.5787538 67.9186655,75.9890691 67.42,76 Z M67.42,74.26 C67.0858823,74.2477681 66.7777978,74.4396132 66.6413714,74.7448543 C66.5049451,75.0500954 66.5675012,75.407597 66.7994709,75.6483756 C67.0314406,75.8891542 67.3863635,75.9649854 67.6964751,75.8400252 C68.0065868,75.7150651 68.2097762,75.4143415 68.21,75.08 C68.2180882,74.8634533 68.1390709,74.6526949 67.9906126,74.4948405 C67.8421543,74.3369861 67.6366353,74.2451996 67.42,74.24 L67.42,74.26 Z" id="Shape" fill="#25120B"></path>
            <path d="M63.79,73.18 C63.79,73.18 63.55,67 64,66.64 C64.45,66.28 64.88,66.77 64.94,66.9 C65,67.03 64.83,69.27 65.25,69.85 C65.5282871,70.234175 65.865825,70.5717129 66.25,70.85 C65.8662178,71.03019 65.4638048,71.1676811 65.05,71.26 C64.77,71.26 64.74,73.62 64.54,73.94 C64.34,74.26 63.83,74.1 63.83,74.1 L63.79,73.18 Z" id="Path" fill="#835416"></path>
            <path d="M64.27,70.1 C64.1881806,68.928093 64.1881806,67.751907 64.27,66.58 C64.1928675,67.7487288 64.1928675,68.9212712 64.27,70.09 C64.27,70.09 64.27,70.09 64.27,70.15 L64.27,70.1 Z" id="Path" fill="#25120B"></path>
            <path d="M64.91,71.4 L64.91,71.4 C64.5669931,71.0252225 64.338032,70.5603621 64.25,70.06 C64.25,70.06 64.25,70.06 64.25,69.9999941 C64.2795948,69.9995865 64.3050699,70.0208158 64.31,70.05 C64.4139632,70.5276459 64.6535468,70.9651463 65,71.31 C65.0203715,71.3327761 65.0203715,71.3672239 65,71.39 L64.91,71.4 Z" id="Path" fill="#25120B"></path>
            <path d="M65.16,69.87 L65.16,69.87 L64.23,69.8 L65.16,69.86 C65.16,69.86 65.16,69.86 65.16,69.92 L65.16,69.87 Z" id="Path" fill="#25120B"></path>
            <path d="M64.91,68.78 L64.91,68.78 L64.27,68.78 C64.259282,68.7614359 64.259282,68.7385641 64.27,68.72 L64.92,68.72 C64.927803,68.7403327 64.9239756,68.7632971 64.91,68.78 Z" id="Path" fill="#25120B"></path>
            <path d="M65,67.66 L64.3,67.66 C64.289282,67.6414359 64.289282,67.6185641 64.3,67.6 L65,67.6 C65.010718,67.6185641 65.010718,67.6414359 65,67.66 Z" id="Path" fill="#25120B"></path>
            <path d="M64.31,74.14 L64.31,74.14 C64.2966667,74.1222222 64.2966667,74.0977778 64.31,74.08 L64.31,70.41 L64.31,70.41 L64.25,74.09 C64.264886,74.0869582 64.2803474,74.09085 64.2920195,74.1005766 C64.3036915,74.1103033 64.3103076,74.1248095 64.31,74.14 L64.31,74.14 Z" id="Path" fill="#25120B"></path>
            <path d="M63,63.94 L63.09,65.63 L71.88,65.63 L71.88,63.63 C71.88,63.63 70.8,64.28 70.49,64.1 C70.0392402,63.7000839 69.4378039,63.5141854 68.84,63.59 C68.15,63.73 67.68,64.51 67.17,64.36 C66.66,64.21 65.94,63.29 65.17,63.59 C64.4,63.89 64.28,64.46 63.65,64.24 C63.4207169,64.169977 63.2020402,64.0690493 63,63.94 Z" id="Path" fill="#DF3D13"></path>
            <path d="M71.89,65.6800059 L63.1,65.6800059 C63.0704052,65.6804135 63.0449301,65.6591842 63.04,65.63 L63,63.94 C63,63.94 63,63.94 63,63.94 C63.1779805,64.0640471 63.3691444,64.1680135 63.57,64.25 C63.91,64.37 64.08,64.25 64.33,64.04 C64.5440101,63.8545175 64.7873144,63.7058316 65.05,63.6 C65.6010551,63.4646663 66.1832479,63.6149096 66.6,64 C66.7650814,64.1353346 66.9507642,64.2433683 67.15,64.32 C67.41,64.4 67.66,64.21 67.95,64 C68.2000678,63.7941839 68.4892059,63.6411108 68.8,63.55 C69.3422486,63.4577282 69.8977077,63.607556 70.32,63.96 L70.49,64.07 C70.72,64.2 71.49,63.77 71.82,63.59 L71.87,63.59 L71.87,65.59 C71.87,65.59 71.87,65.59 71.87,65.59 L71.89,65.6800059 Z M63.15,65.57 L71.83,65.57 L71.83,63.74 C71.56,63.89 70.76,64.33 70.47,64.17 L70.29,64.05 C69.8902633,63.7154154 69.3639505,63.5728723 68.85,63.66 C68.5526791,63.7445624 68.2766276,63.8911083 68.04,64.09 C67.74,64.31 67.46,64.52 67.15,64.43 C66.9429443,64.3460909 66.747915,64.235126 66.57,64.1 C66.2036103,63.726023 65.6740564,63.5607722 65.16,63.66 C64.9050687,63.7603725 64.6685316,63.9022947 64.46,64.08 C64.2527841,64.3270961 63.9135418,64.418891 63.61,64.31 C63.4295535,64.2412935 63.2582624,64.1506099 63.1,64.04 L63.15,65.57 Z" id="Shape" fill="#25120B"></path>
            <path d="M66.33,68.4 C66.33,68.4 66.61,67.63 66.89,67.71 C67.17,67.79 67.3,68.71 67.51,68.46 C67.72,68.21 67.94,67.8 68.2,67.91 C68.46,68.02 68.65,68.68 68.82,68.68 C68.99,68.68 69.21,68.02 69.4,68.02 C69.59,68.02 69.76,68.7 69.97,68.7 C70.18,68.7 70.27,67.7 70.45,67.81 C70.63,67.92 70.84,68.7 70.92,68.7 C71,68.7 71,68.84 71,68.84 L71,69.09 C71,69.09 70.92,69.28 70.77,68.93 C70.62,68.58 70.49,67.93 70.39,68.2 C70.29,68.47 70.2,69.12 69.97,69.09 C69.74,69.06 69.54,68.18 69.36,68.4 C69.18,68.62 69.02,69.09 68.82,69.09 C68.62,69.09 68.45,68.26 68.14,68.4 C67.83,68.54 67.45,68.96 67.33,68.84 C67.21,68.72 67.05,68.13 66.9,68.2 C66.75,68.27 66.49,68.74 66.49,68.74 L66.33,68.4 Z" id="Path" fill="#835416"></path>
            <path d="M71,69.22 C70.9704329,69.2272078 70.9395671,69.2272078 70.91,69.22 C70.81,69.16 70.73,68.93 70.6,68.57 L70.49,68.26 L70.49,68.26 C70.4456261,68.3638597 70.4088625,68.4708083 70.38,68.58 C70.3383258,68.8002731 70.2420536,69.0065706 70.1,69.18 C70.0620277,69.1980119 70.0179723,69.1980119 69.98,69.18 C69.87,69.18 69.81,69 69.73,68.83 C69.65,68.66 69.59,68.5 69.5,68.46 C69.41,68.42 69.33,68.6 69.25,68.77 C69.17,68.94 69.07,69.14 68.93,69.16 C68.79,69.18 68.65,69.01 68.56,68.82 C68.5031862,68.6998406 68.4290649,68.5886586 68.34,68.49 C68.22,68.39 67.96,68.59 67.77,68.75 C67.58,68.91 67.51,68.94 67.44,68.94 C67.37,68.94 67.26,68.8 67.19,68.64 C67.1532929,68.523871 67.0956806,68.4154243 67.02,68.32 C67.02,68.32 67.02,68.32 67.02,68.32 C67.02,68.32 66.73,68.62 66.64,68.82 C66.6190843,68.8350214 66.5909157,68.8350214 66.57,68.82 C66.5509429,68.8005578 66.5509429,68.7694422 66.57,68.75 C66.57,68.66 66.84,68.21 67.04,68.19 C67.0947237,68.1777046 67.151163,68.2018929 67.18,68.25 C67.2625442,68.3551656 67.3267768,68.4734888 67.37,68.6 C67.42,68.72 67.47,68.83 67.52,68.84 L67.52,68.84 C67.6136012,68.7957278 67.6983257,68.7347261 67.77,68.66 C68.01,68.48 68.29,68.25 68.48,68.41 C68.5837318,68.5162079 68.6653131,68.6419792 68.72,68.78 C68.81,68.96 68.88,69.07 68.98,69.06 C69.08,69.05 69.15,68.87 69.22,68.72 C69.29,68.57 69.43,68.3 69.61,68.37 C69.79,68.44 69.82,68.61 69.9,68.79 C69.98,68.97 70.02,69.06 70.08,69.08 L70.08,69.08 C70.19833,68.9196021 70.2802351,68.7353157 70.32,68.54 C70.4,68.26 70.44,68.13 70.53,68.13 C70.62,68.13 70.62,68.2 70.63,68.23 C70.64,68.26 70.71,68.44 70.75,68.55 C70.8041876,68.7594339 70.891995,68.9586891 71.01,69.14 L71.01,69.14 C71.01,69.14 71.06,69.14 71.07,69.14 C71.08,69.14 71.07,69.23 71.07,69.26 L71,69.22 Z" id="Path" fill="#25120B"></path>
            <path d="M71.16,70.38 C71.16,70.38 70.88,71.15 70.61,71.07 C70.34,70.99 70.19,70.07 69.99,70.32 C69.79,70.57 69.56,70.98 69.29,70.87 C69.02,70.76 68.85,70.1 68.68,70.1 C68.51,70.1 68.29,70.76 68.1,70.76 C67.91,70.76 67.74,70.08 67.53,70.08 C67.32,70.08 67.23,71.08 67.05,70.97 C66.87,70.86 66.66,70.08 66.58,70.08 C66.5,70.08 66.5,69.94 66.5,69.94 L66.5,69.69 C66.5,69.69 66.58,69.5 66.73,69.85 C66.88,70.2 67.01,70.85 67.1,70.58 C67.19,70.31 67.3,69.66 67.53,69.69 C67.76,69.72 67.96,70.6 68.14,70.38 C68.32,70.16 68.48,69.69 68.68,69.69 C68.88,69.69 69.04,70.52 69.35,70.38 C69.66,70.24 70.04,69.82 70.17,69.94 C70.3,70.06 70.44,70.65 70.6,70.58 C70.7648974,70.4104512 70.9001154,70.2143852 71,70 L71.16,70.38 Z" id="Path" fill="#835416"></path>
            <path d="M67.05,70.69 C66.99,70.69 66.96,70.62 66.95,70.59 L66.84,70.27 C66.7837596,70.0595706 66.6924832,69.8601149 66.57,69.68 L66.57,69.68 C66.57,69.68 66.57,69.68 66.57,69.74 C66.5433333,69.7044444 66.5433333,69.6555556 66.57,69.62 C66.63,69.62 66.69,69.62 66.72,69.62 C66.75,69.62 66.9,69.91 67.03,70.27 C67.03,70.38 67.1,70.49 67.14,70.58 L67.14,70.58 C67.14,70.52 67.21,70.37 67.25,70.26 C67.29,70.15 67.4,69.74 67.52,69.66 C67.561622,69.642777 67.608378,69.642777 67.65,69.66 C67.75,69.66 67.82,69.84 67.89,70.01 C67.96,70.18 68.04,70.34 68.13,70.38 C68.22,70.42 68.3,70.24 68.38,70.07 C68.46,69.9 68.56,69.7 68.7,69.68 C68.84,69.66 68.98,69.83 69.07,70.02 C69.1231179,70.1422118 69.1976191,70.2539636 69.29,70.35 C69.41,70.45 69.67,70.24 69.86,70.09 C70.05,69.94 70.11,69.9 70.18,69.9 L70.18,69.9 C70.3,69.9 70.36,70.04 70.43,70.2 C70.4670434,70.3140625 70.520976,70.4219277 70.59,70.52 C70.7,70.52 70.88,70.22 70.98,70.02 C70.98,69.9923858 71.0023858,69.97 71.03,69.97 C71.0576142,69.97 71.08,69.9923858 71.08,70.02 C71.08,70.11 70.81,70.56 70.6,70.58 C70.5455847,70.5893568 70.4907522,70.5658571 70.46,70.52 C70.3843719,70.4120563 70.3238141,70.2943052 70.28,70.17 C70.23,70.05 70.18,69.94 70.12,69.93 L70.12,69.93 C70.024335,69.9758303 69.9365712,70.0365898 69.86,70.11 C69.63,70.29 69.34,70.52 69.16,70.36 C69.050174,70.2585564 68.9617699,70.1361508 68.9,70 C68.8,69.82 68.74,69.7 68.64,69.72 C68.54,69.74 68.47,69.91 68.39,70.06 C68.31,70.21 68.19,70.48 68.01,70.41 C67.83,70.34 67.8,70.17 67.72,69.99 C67.64,69.81 67.6,69.72 67.54,69.7 L67.54,69.7 C67.4254987,69.861425 67.3470581,70.0455899 67.31,70.24 C67.22,70.52 67.18,70.65 67.1,70.65 L67.05,70.69 Z" id="Path" fill="#25120B"></path>
            <path d="M71.16,72.25 C71.16,72.25 70.88,73.02 70.61,72.94 C70.34,72.86 70.19,71.94 69.99,72.19 C69.79,72.44 69.56,72.85 69.29,72.74 C69.02,72.63 68.85,71.97 68.68,71.97 C68.51,71.97 68.29,72.64 68.1,72.64 C67.91,72.64 67.74,71.95 67.53,71.95 C67.32,71.95 67.23,72.95 67.05,72.85 C66.87,72.75 66.66,71.95 66.58,71.95 C66.5,71.95 66.5,71.82 66.5,71.82 L66.5,71.56 C66.5,71.56 66.58,71.37 66.73,71.72 C66.88,72.07 67.01,72.72 67.1,72.45 C67.19,72.18 67.3,71.53 67.53,71.56 C67.76,71.59 67.96,72.47 68.14,72.25 C68.32,72.03 68.48,71.56 68.68,71.56 C68.88,71.56 69.04,72.4 69.35,72.25 C69.66,72.1 70.04,71.69 70.17,71.82 C70.3,71.95 70.44,72.53 70.6,72.45 C70.76,72.37 71.01,71.91 71.01,71.91 L71.16,72.25 Z" id="Path" fill="#835416"></path>
            <path d="M67.05,72.56 C66.99,72.56 66.96,72.49 66.95,72.46 L66.84,72.15 C66.7882458,71.937985 66.6966157,71.7377563 66.57,71.56 L66.57,71.56 L66.57,71.56 C66.57,71.5876142 66.5476142,71.61 66.52,71.61 C66.4923858,71.61 66.47,71.5876142 66.47,71.56 C66.4433333,71.5244444 66.4433333,71.4755556 66.47,71.44 C66.5149581,71.4082451 66.5750419,71.4082451 66.62,71.44 C66.72,71.44 66.8,71.72 66.93,72.08 C66.93,72.19 67,72.3 67.04,72.4 L67.04,72.4 C67.04,72.4 67.11,72.2 67.15,72.09 C67.19,71.98 67.3,71.57 67.42,71.49 C67.4618203,71.4738055 67.5081797,71.4738055 67.55,71.49 C67.65,71.49 67.72,71.67 67.79,71.84 C67.86,72.01 67.94,72.17 68.03,72.21 C68.12,72.25 68.2,72.07 68.28,71.91 C68.36,71.75 68.46,71.54 68.6,71.51 C68.74,71.48 68.88,71.67 68.97,71.85 C69.0231179,71.9722118 69.0976191,72.0839636 69.19,72.18 C69.3,72.29 69.57,72.08 69.76,71.93 C69.95,71.78 70.01,71.73 70.08,71.73 L70.08,71.73 C70.2,71.73 70.26,71.88 70.33,72.04 C70.3691164,72.1532019 70.4229083,72.2607857 70.49,72.36 C70.6,72.36 70.78,72.06 70.88,71.86 C70.88,71.8323858 70.9023858,71.81 70.93,71.81 C70.9576142,71.81 70.98,71.8323858 70.98,71.86 C70.98,71.95 70.71,72.4 70.5,72.43 C70.4450996,72.4292401 70.3935482,72.4034643 70.36,72.36 C70.2864599,72.2543698 70.2260176,72.140201 70.18,72.02 C70.13,71.9 70.08,71.78 70.02,71.78 L70.02,71.78 C69.9263338,71.8251622 69.838935,71.8823076 69.76,71.95 C69.53,72.13 69.24,72.36 69.06,72.2 C68.9586737,72.0956738 68.8773295,71.9736574 68.82,71.84 C68.72,71.65 68.65,71.54 68.56,71.55 C68.47,71.56 68.39,71.74 68.31,71.89 C68.23,72.04 68.11,72.32 67.93,72.25 C67.75,72.18 67.72,72.01 67.64,71.83 C67.56,71.65 67.52,71.55 67.46,71.53 L67.46,71.53 C67.3438905,71.6942278 67.265365,71.8820063 67.23,72.08 C67.14,72.35 67.1,72.48 67.02,72.48 L67.05,72.56 Z" id="Path" fill="#25120B"></path>
            <path d="M70.78,56.35 C70.7526153,57.1381994 70.0962877,57.7577205 69.3078205,57.7396205 C68.5193532,57.7215204 67.8921454,57.0725346 67.9009582,56.2839089 C67.9097711,55.4952831 68.5513252,54.8604756 69.34,54.86 C70.1479618,54.8764153 70.7911617,55.5419486 70.78,56.35 Z" id="Path" fill="#DF3D13"></path>
            <path d="M69.34,57.89 C68.7072888,57.9145001 68.1232892,57.5516919 67.8649275,56.973615 C67.6065657,56.3955381 67.7257939,55.718434 68.1660753,55.263378 C68.6063567,54.8083221 69.2791583,54.6668182 69.8654449,54.9059661 C70.4517315,55.1451139 70.8336109,55.716825 70.83,56.35 C70.8411579,57.1856625 70.1755757,57.8735797 69.34,57.89 Z M69.34,54.89 C68.7527328,54.8655095 68.2095264,55.2004022 67.9676153,55.7360901 C67.7257043,56.2717781 67.833651,56.9007247 68.2403375,57.3250932 C68.647024,57.7494617 69.2708101,57.8840623 69.8163026,57.6651551 C70.3617952,57.4462479 70.7194896,56.9177774 70.72,56.33 C70.7256426,55.5589604 70.1108862,54.9263849 69.34,54.91 L69.34,54.89 Z" id="Shape" fill="#25120B"></path>
            <path d="M69.12,78.54 L65.78,78.54 C63.6283701,78.5345041 61.8854959,76.7916299 61.88,74.64 L61.88,56.64 C61.8854959,54.4883701 63.6283701,52.7454959 65.78,52.74 L69.12,52.74 C71.2716299,52.7454959 73.0145041,54.4883701 73.02,56.64 L73.02,74.64 C73.0145041,76.7916299 71.2716299,78.5345041 69.12,78.54 Z M65.78,53.34 C63.9740289,53.34 62.51,54.8040289 62.51,56.61 L62.51,74.61 C62.51,76.4159711 63.9740289,77.88 65.78,77.88 L69.12,77.88 C70.9236919,77.8745093 72.3845093,76.4136919 72.39,74.61 L72.39,56.61 C72.3845093,54.8063081 70.9236919,53.3454907 69.12,53.34 L65.78,53.34 Z" id="Shape" fill="url(#linearGradient-1)"></path>
            <path d="M37.9,58.6 L38.57,58.46 L37.85,58.11 C37.3575152,57.7737846 36.8896595,57.4028419 36.45,57 C36.57,57.17 37.72,56.65 37.72,56.65 L37.85,56.36 C37.2319741,56.3603193 36.6143905,56.3269364 36,56.26 C35.1037549,55.9354918 34.2810945,55.4357765 33.58,54.79 C33.35,54.5 33.02,52.88 32.86,52.79 C32.247371,52.7484316 31.632629,52.7484316 31.02,52.79 C30.85,52.79 30.91,53.5 30.91,53.5 C30.91,53.5 31,53.3 31.09,53.12 C31.18,52.94 32.09,53.52 32.09,53.68 C32.09,53.84 32.02,56.58 33.09,57.13 C33.3518941,57.2617515 33.6225314,57.3753524 33.9,57.47 C33.6459471,58.0056705 33.3447608,58.5176871 33,59 C32.84,59.06 31.42,59 31.39,59.07 C31.36,59.14 31.39,59.19 31.39,59.19 L34.39,59.19 L34.31,59.07 L33.22,59 L34.36,57.65 C35.87,58.14 37.9,58.6 37.9,58.6 Z" id="Path" fill="#835416"></path>
            <path d="M33.57,54.79 C33.57,54.79 32.73,55.03 32.86,55.69 C32.99,56.35 35.51,57.28 35.51,57.28 L37.72,56.63 L37.85,56.34 C37.0182192,56.4041256 36.1819915,56.3021466 35.39,56.04 C34.69,55.64 33.57,54.79 33.57,54.79 Z" id="Path" fill="#DF3D13"></path>
            <path d="M35.51,57.33 L35.51,57.33 C35.41,57.33 32.96,56.33 32.82,55.7 C32.68,55.07 33.57,54.7 33.58,54.7 L33.58,54.7 C34.1697222,55.1658217 34.7839325,55.5997747 35.42,56 C36.1992024,56.2576669 37.021467,56.3596005 37.84,56.3 L37.93,56.3 L37.75,56.68 L37.75,56.68 L35.51,57.33 Z M33.56,54.85 C33.43,54.85 32.8,55.13 32.91,55.67 C33.02,56.21 34.81,56.96 35.51,57.22 L37.68,56.58 L37.76,56.4 C36.9497298,56.4613491 36.1355918,56.3523431 35.37,56.08 C34.746327,55.7007597 34.1422229,55.2902359 33.56,54.85 L33.56,54.85 Z" id="Shape" fill="#25120B"></path>
            <path d="M32.5,53.32 C32.4036715,53.3314355 32.3063285,53.3314355 32.21,53.32 C31.9577876,53.2439564 31.7457675,53.0714655 31.62,52.84 C31.6009429,52.8205578 31.6009429,52.7894422 31.62,52.77 C31.62,52.77 31.67,52.77 31.69,52.77 C31.80339,52.9733772 31.9889477,53.1268191 32.21,53.2 C32.6271425,53.2301793 33.0463852,53.1896074 33.45,53.08 C33.1426694,53.1932338 32.8242353,53.2736803 32.5,53.32 L32.5,53.32 Z" id="Path" fill="#25120B"></path>
            <path d="M35.94,57.21 L35.94,57.21 C35.8180926,57.0854758 35.7258076,56.9350854 35.67,56.77 C35.6289133,56.5788496 35.6289133,56.3811504 35.67,56.19 C35.6916581,56.1774957 35.7183419,56.1774957 35.74,56.19 C35.7590571,56.2094422 35.7590571,56.2405578 35.74,56.26 C35.7006488,56.4310999 35.7006488,56.6089001 35.74,56.78 C35.7844371,56.9294396 35.8632003,57.0664189 35.97,57.18 L35.94,57.21 Z" id="Path" fill="#25120B"></path>
            <path d="M36.21,57.09 C36.1062091,56.9481272 36.0283419,56.7890074 35.98,56.62 C35.9490723,56.5019928 35.9490723,56.3780072 35.98,56.26 C36.0009157,56.2449786 36.0290843,56.2449786 36.05,56.26 C36.0690571,56.2794422 36.0690571,56.3105578 36.05,56.33 L36.05,56.33 C36.0241516,56.4283297 36.0241516,56.5316703 36.05,56.63 C36.1006603,56.7819959 36.1712773,56.9265927 36.26,57.06 L36.21,57.09 Z" id="Path" fill="#25120B"></path>
            <path d="M38,58.63 C37.3128785,58.3392496 36.6448732,58.0052469 36,57.63 L35.77,57.51 L36.61,57.58 L38.52,58.41 C38.5390571,58.4294422 38.5390571,58.4605578 38.52,58.48 L36.62,57.66 L36.31,57.66 C37.02,58.03 37.91,58.5 38,58.53 L38,58.63 Z" id="Path" fill="#25120B"></path>
            <path d="M33,55.2 L32.34,53.28 C32.3249786,53.2590843 32.3249786,53.2309157 32.34,53.21 C32.34,53.21 32.34,53.21 32.4,53.21 L33.05,55 L33.16,54.91 L32.62,53.32 C32.6049786,53.2990843 32.6049786,53.2709157 32.62,53.25 C32.6409157,53.2349786 32.6690843,53.2349786 32.69,53.25 L33.28,55 L33,55.2 Z" id="Path" fill="#25120B"></path>
            <path d="M34.48,56.9 C34.4520819,56.671634 34.4725247,56.439949 34.54,56.22 C34.6159379,56.0366025 34.7447382,55.8799535 34.91,55.77 C34.9327761,55.7496285 34.9672239,55.7496285 34.99,55.77 C34.99,55.77 34.99,55.83 34.99,55.84 C34.8509813,55.9464705 34.7381122,56.0832816 34.66,56.24 C34.5984917,56.4473863 34.5781096,56.6647951 34.6,56.88 C34.6,56.88 34.6,56.88 34.6,56.94 L34.48,56.9 Z" id="Path" fill="#25120B"></path>
            <path d="M32,53.13 C32,53.13 31.82,53.24 31.73,53.13 C31.64,53.02 31.73,52.88 31.73,52.88 L32,53.13 Z" id="Path" fill="#DF3D13"></path>
            <path d="M31.79,53.24 C31.758,53.2533333 31.722,53.2533333 31.69,53.24 C31.58,53.17 31.64,53.01 31.69,52.92 L31.69,52.92 L31.74,52.92 L31.99,53.12 L32.06,53.17 L31.99,53.17 C31.9289693,53.2070782 31.8608322,53.2309262 31.79,53.24 Z M31.79,53 C31.79,53 31.79,53.11 31.79,53.13 C31.8347547,53.1488917 31.8852453,53.1488917 31.93,53.13 L31.79,53 Z" id="Shape" fill="#25120B"></path>
            <path d="M32.84,55.51 C32.8245299,55.5189316 32.8054701,55.5189316 32.79,55.51 C32.17,53.33 32.17,53.32 32.17,53.31 C32.159282,53.2914359 32.159282,53.2685641 32.17,53.25 C32.17,53.32 32.63,54.85 32.79,55.44 L32.84,55.51 Z" id="Path" fill="#25120B"></path>
            <path d="M32.81,55.71 C32.76,55.71 32.71,55.61 32.18,54.63 C32.1674957,54.6083419 32.1674957,54.5816581 32.18,54.56 C32.2009157,54.5449786 32.2290843,54.5449786 32.25,54.56 C32.46,54.95 32.78,55.56 32.82,55.56 C32.8261554,55.5760983 32.8261554,55.5939017 32.82,55.61 L32.81,55.71 Z" id="Path" fill="#25120B"></path>
            <polygon id="Path" fill="#25120B" points="32.88 55.88 32.88 55.88 32.31 55.42"></polygon>
            <path d="M35.68,59.29 L31.17,59.29 C31.1423858,59.29 31.12,59.2676142 31.12,59.24 C31.12,59.2123858 31.1423858,59.19 31.17,59.19 L35.68,59.19 L35.68,59.29 Z" id="Path" fill="#25120B"></path>
            <path d="M54.23,58.53 C53.464362,57.4683707 52.2968713,56.7671533 51,56.59 C49.11,56.43 46.74,58.29 46.74,58.29 L44.34,58.29 L44.34,59.29 L46.76,59.24 C47.800483,60.1354086 49.1090883,60.6595543 50.48,60.73 C51.8329427,60.6391431 53.1390097,60.1980439 54.27,59.45 L56.27,59.29 L56.27,58.69 L54.23,58.53 Z M50.28,59.93 C49.2543079,59.8704659 48.294102,59.4065462 47.61,58.64 C48.4441829,57.9455554 49.4692249,57.5201979 50.55,57.42 C51.6476314,57.4663564 52.6640193,58.011376 53.31,58.9 C52.4873342,59.6500136 51.3893246,60.0232644 50.28,59.93 L50.28,59.93 Z" id="Shape" fill="#835416"></path>
            <path d="M51.82,58.52 C51.8403873,59.0741642 51.5222718,59.5852065 51.0160295,59.8115523 C50.5097872,60.037898 49.9168197,59.9342098 49.5174283,59.5495019 C49.1180369,59.164794 48.9922206,58.5761243 49.199454,58.0617626 C49.4066873,57.5474009 49.905461,57.2103749 50.46,57.21 C51.1962637,57.1988271 51.8035994,57.7838342 51.82,58.52 L51.82,58.52 Z" id="Path" fill="#DF3D13"></path>
            <path d="M50.46,59.88 C49.7175894,59.8472143 49.1389563,59.2245774 49.1605763,58.4817578 C49.1821963,57.7389382 49.7960632,57.1510093 50.5391239,57.1614587 C51.2821846,57.171908 51.8792764,57.7768662 51.88,58.52 C51.8721288,58.8886791 51.7180787,59.2391208 51.451758,59.4941885 C51.1854373,59.7492562 50.8286754,59.8880429 50.46,59.88 L50.46,59.88 Z M50.46,57.26 C49.7712946,57.2873513 49.2323768,57.8630035 49.2504328,58.5520153 C49.2684888,59.2410271 49.8368168,59.7876632 50.5260095,59.7789058 C51.2152022,59.7701485 51.7694571,59.2092481 51.77,58.52 C51.7536058,57.811448 51.1686535,57.2488221 50.46,57.26 L50.46,57.26 Z" id="Shape" fill="#25120B"></path>
            <path d="M98.59,61.65 C97.8103833,60.5793387 96.6237947,59.8775149 95.31,59.71 C93.42,59.55 91,61.4 91,61.4 L88.6,61.4 L88.6,62.4 L91.02,62.34 C92.0607159,63.2414695 93.3746156,63.7663248 94.75,63.83 C96.1029427,63.7391431 97.4090097,63.2980439 98.54,62.55 L100.54,62.4 L100.54,61.8 L98.59,61.65 Z M94.59,63.04 C93.5923464,62.9610585 92.664063,62.4987088 92,61.75 C92.8528605,61.0495847 93.8998494,60.6272992 95,60.54 C96.06324,60.6039796 97.042373,61.1393857 97.67,62 C96.8399691,62.7418366 95.7383375,63.1042154 94.63,63 L94.59,63.04 Z" id="Shape" fill="#835416"></path>
            <path d="M96.18,61.64 C96.2045304,62.1998319 95.8856483,62.7181658 95.3748895,62.9486846 C94.8641306,63.1792033 94.264475,63.0754293 93.8608848,62.6866769 C93.4572945,62.2979245 93.3311421,61.7025747 93.5423764,61.1835433 C93.7536106,60.6645119 94.2596422,60.3264469 94.82,60.33 C95.1744645,60.3219638 95.5174653,60.4557922 95.7728241,60.7017628 C96.0281829,60.9477334 96.1747594,61.2854831 96.18,61.64 L96.18,61.64 Z" id="Path" fill="#DF3D13"></path>
            <path d="M94.82,63 C94.0676746,62.9780071 93.4739703,62.3532254 93.4903571,61.600757 C93.5067439,60.8482886 94.1270848,60.2499456 94.8796544,60.2607255 C95.632224,60.2715054 96.2351724,60.8873709 96.23,61.64 C96.2135934,62.4037796 95.5838741,63.0111684 94.82,63 L94.82,63 Z M94.82,60.38 C94.1312946,60.4073513 93.5923768,60.9830035 93.6104328,61.6720153 C93.6284888,62.3610271 94.1968168,62.9076632 94.8860095,62.8989058 C95.5752022,62.8901485 96.1294571,62.3292481 96.13,61.64 C96.1247619,61.2987421 95.9834535,60.9737081 95.7374706,60.7371139 C95.4914878,60.5005196 95.1612034,60.3719606 94.82,60.38 L94.82,60.38 Z" id="Shape" fill="#25120B"></path>
            <polygon id="Path" fill="#835416" points="44.69 52.43 45.04 52.43 45.08 51.75 45.65 51.75 45.65 52.43 45.98 52.43 45.98 51.75 46.66 51.42 46.66 52.43 46.99 52.43 46.99 51.42 47.67 51.42 47.67 52.43 48 52.43 48 51.42 48.68 51.42 48.68 52.43 49.01 52.43 49.01 51.42 49.69 51.42 49.69 52.43 50.02 52.43 50.02 51.42 50.7 51.42 50.7 52.43 51.03 52.43 51.03 51.42 51.7 51.42 51.7 52.43 52.04 52.43 52.04 51.42 52.71 51.42 52.71 52.43 53.05 52.43 53.05 51.75 53.3 51.75 53.34 52.38 53.65 52.34 53.69 51.51 53.38 49.96 44.88 49.67 44.61 51.51"></polygon>
            <polygon id="Path" fill="#DF3D13" points="53.22 51.08 53.02 50.37 45.33 50.15 44.97 51.08"></polygon>
            <path d="M53.22,51.13 L45,51.13 C45,51.13 45,51.13 45,51.13 L45.36,50.2 C45.36,50.2 45.36,50.2 45.36,50.2 L45.36,50.2 L53.05,50.42 L53.25,51.13 C53.25,51.13 53.25,51.13 53.25,51.13 C53.25,51.13 53.24,51.13 53.22,51.13 Z M45.05,51 L53.15,51 L53,50.42 L45.38,50.21 L45.05,51 Z" id="Shape" fill="#25120B"></path>
            <path d="M102.78,54.92 L103.86,54.7 C103.86,54.7 103.48,54.49 102.69,54.13 C101.900194,53.5742661 101.14851,52.9662377 100.44,52.31 C100.65,52.59 102.44,51.75 102.44,51.75 L102.65,51.3 C101.648265,51.3046304 100.646951,51.2579024 99.65,51.16 C98.2125379,50.6439963 96.8931812,49.8449014 95.77,48.81 C95.39,48.33 94.86,45.74 94.6,45.6 C93.621161,45.5325394 92.638839,45.5325394 91.66,45.6 C91.39,45.6 91.48,46.73 91.48,46.73 L91.77,46.13 C91.92,45.85 93.38,46.77 93.44,47.03 C93.5,47.29 93.32,51.68 94.95,52.56 C95.3746077,52.7679662 95.812182,52.9483403 96.26,53.1 C95.8447191,53.9476356 95.356196,54.7573793 94.8,55.52 C94.55,55.62 92.26,55.52 92.21,55.64 C92.16,55.76 92.21,55.83 92.21,55.83 L97.01,55.83 L97,55.69 L95.31,55.54 L97.15,53.37 C99.51,54.18 102.78,54.92 102.78,54.92 Z" id="Path" fill="#835416"></path>
            <path d="M95.84,48.63 C95.84,48.63 94.48,49.02 94.69,50.06 C94.9,51.1 98.94,52.62 98.94,52.62 L102.48,51.62 L102.69,51.17 C102.69,51.17 99.88,51.32 98.76,50.67 C97.64,50.02 95.84,48.63 95.84,48.63 Z" id="Path" fill="#DF3D13"></path>
            <path d="M98.94,52.67 L98.94,52.67 C98.77,52.6 94.85,51.13 94.64,50.07 C94.43,49.01 95.82,48.58 95.83,48.58 L95.83,48.58 L95.83,48.58 C95.83,48.58 97.63,49.94 98.74,50.58 C99.85,51.22 102.62,51.07 102.65,51.06 L102.73,51.06 L102.48,51.61 L102.48,51.61 L98.94,52.67 Z M95.83,48.67 C95.65,48.73 94.56,49.12 94.74,50.03 C94.92,50.94 98.67,52.43 98.95,52.54 L102.44,51.54 L102.61,51.18 C102.12,51.18 99.76,51.27 98.73,50.68 C97.7,50.09 96,48.84 95.83,48.69 L95.83,48.67 Z" id="Shape" fill="#25120B"></path>
            <path d="M94.12,46.23 C93.9674472,46.2518804 93.8125528,46.2518804 93.66,46.23 C93.2654374,46.1129741 92.9341316,45.8428878 92.74,45.48 C92.7609157,45.4649786 92.7890843,45.4649786 92.81,45.48 C92.9917323,45.8187776 93.3013854,46.0708207 93.67,46.18 C94.3420663,46.2394713 95.0193525,46.1785155 95.67,46 C95.67,46 95.67,46 95.73,46 C95.7450214,46.0209157 95.7450214,46.0490843 95.73,46.07 C95.2001193,46.1776038 94.6606947,46.2312112 94.12,46.23 Z" id="Path" fill="#25120B"></path>
            <path d="M99.63,52.47 L99.63,52.47 C99.4365961,52.2770849 99.2925294,52.0404039 99.21,51.78 C99.1629188,51.4726164 99.1833939,51.1586648 99.27,50.86 C99.2909157,50.8449786 99.3190843,50.8449786 99.34,50.86 C99.3590571,50.8794422 99.3590571,50.9105578 99.34,50.93 C99.2591733,51.2057337 99.2387089,51.4956462 99.28,51.78 C99.3626645,52.021765 99.4955789,52.2432889 99.67,52.43 L99.63,52.47 Z" id="Path" fill="#25120B"></path>
            <path d="M100.07,52.28 L100.07,52.28 C99.9128939,52.0531769 99.791484,51.8036122 99.71,51.54 C99.6497436,51.3581961 99.6497436,51.1618039 99.71,50.98 C99.7309157,50.9649786 99.7590843,50.9649786 99.78,50.98 L99.78,50.98 C99.7322217,51.1432425 99.7322217,51.3167575 99.78,51.48 C99.8568521,51.7293543 99.9715204,51.9654362 100.12,52.18 L100.07,52.28 Z" id="Path" fill="#25120B"></path>
            <path d="M103,54.75 C103,54.75 102.75,54.67 99.88,53.16 L99.62,53 L100.81,53.1 L103.88,54.43 C103.89725,54.4383543 103.908206,54.4558339 103.908206,54.475 C103.908206,54.4941661 103.89725,54.5116457 103.88,54.52 L100.82,53.2 L100.17,53.15 C101.33,53.76 102.9,54.57 103.02,54.61 C103.02,54.61 103.02,54.67 103.02,54.67 L103,54.75 Z" id="Path" fill="#25120B"></path>
            <path d="M94.94,49.23 L93.94,46.23 C93.94,46.23 93.94,46.23 93.94,46.17 L94.94,49.07 L95.16,48.89 L94.29,46.31 C94.29,46.31 94.29,46.31 94.29,46.25 C94.3094422,46.2309429 94.3405578,46.2309429 94.36,46.25 L95.25,48.9 L94.94,49.23 Z" id="Path" fill="#25120B"></path>
            <path d="M97.29,52 C97.2739017,52.0061554 97.2560983,52.0061554 97.24,52 C97.2010802,51.6342411 97.2316157,51.2644219 97.33,50.91 C97.4618773,50.6289642 97.66535,50.3875559 97.92,50.21 C97.9427761,50.1896285 97.9772239,50.1896285 98,50.21 C98,50.21 98,50.27 98,50.28 C97.7640875,50.4502539 97.5749213,50.6772534 97.45,50.94 C97.3624692,51.2656475 97.3353547,51.6045784 97.37,51.94 C97.380718,51.9585641 97.380718,51.9814359 97.37,52 L97.29,52 Z" id="Path" fill="#25120B"></path>
            <path d="M93.3,46 C93.3,46 93.01,46.17 92.86,46.07 C92.71,45.97 92.86,45.66 92.86,45.66 L93.3,46 Z" id="Path" fill="#DF3D13"></path>
            <path d="M93,46.11 C92.9478916,46.1261654 92.8921084,46.1261654 92.84,46.11 C92.65,45.97 92.84,45.65 92.84,45.64 L92.84,45.58 L92.84,45.58 L93.25,45.92 L93.32,45.92 L93.25,45.92 C93.1781705,45.9971918 93.0936056,46.061461 93,46.11 L93,46.11 Z M92.91,45.7 C92.91,45.79 92.82,45.93 92.91,45.98 C93,46.03 93.13,45.98 93.22,45.98 L92.91,45.7 Z" id="Shape" fill="#25120B"></path>
            <path d="M94.67,49.75 C93.67,46.26 93.67,46.23 93.67,46.22 C93.6885641,46.209282 93.7114359,46.209282 93.73,46.22 C93.73,46.32 94.39,48.56 94.73,49.73 C94.7425043,49.7516581 94.7425043,49.7783419 94.73,49.8 L94.67,49.75 Z" id="Path" fill="#25120B"></path>
            <path d="M94.61,50.07 C94.61,50.07 94.49,49.94 93.61,48.36 C93.5896285,48.3372239 93.5896285,48.3027761 93.61,48.28 C93.6294422,48.2609429 93.6605578,48.2609429 93.68,48.28 C94.02,48.9 94.54,49.85 94.6,49.94 L94.61,50.07 Z" id="Path" fill="#25120B"></path>
            <path d="M94.72,50.35 L94.72,50.35 L93.81,49.62 C93.7974097,49.6105573 93.79,49.5957379 93.79,49.58 C93.79,49.5642621 93.7974097,49.5494427 93.81,49.54 C93.8309157,49.5249786 93.8590843,49.5249786 93.88,49.54 L94.8,50.28 C94.8203715,50.3027761 94.8203715,50.3372239 94.8,50.36 L94.72,50.35 Z" id="Path" fill="#25120B"></path>
            <path d="M99,55.93 L92.22,55.93 L99,55.93 C99.0276142,55.93 99.05,55.9523858 99.05,55.98 C99.05,56.0076142 99.0276142,56.03 99,56.03 L99,55.93 Z" id="Path" fill="#25120B"></path>
            <path d="M78.85,57.47 C78.85,57.47 78.29,55.41 79.24,55.06 C80.19,54.71 83.39,56.37 85.02,55.79 C86.65,55.21 85.76,53.27 85.02,53.52 C84.28,53.77 85.02,54.74 84.37,54.76 L82.77,54.76 L82.69,53.21 C82.69,53.21 85.57,53.21 85.97,53.21 C86.37,53.21 86.66,55.21 85.62,55.9 C84.58,56.59 82.54,56.13 82.54,56.13 L82.54,57.39 L82.11,57.39 L82.11,56.25 L81.3,56.25 L81.3,57.57 L80.79,57.57 L80.79,56.21 L79.62,56.21 L79.62,57.57 L78.85,57.47 Z" id="Path" fill="#835416"></path>
            <path d="M84,56.42 C83.5056408,56.4202596 83.0127273,56.3666092 82.53,56.26 C82.53,56.26 82.53,56.21 82.59,56.26 C82.65,56.31 85.59,56.93 86.13,55.43 C86.59,54.15 86.13,53.53 85.99,53.43 L82.79,53.43 L82.86,54.91 C82.870718,54.9285641 82.870718,54.9514359 82.86,54.97 C82.8304052,54.9704135 82.8049301,54.9491842 82.8,54.92 L82.73,53.38 L82.73,53.38 L82.73,53.38 L86.02,53.38 L86.02,53.38 C86.02,53.38 86.72,54.03 86.19,55.49 C85.84,56.22 84.83,56.42 84,56.42 Z" id="Path" fill="#25120B"></path>
            <path d="M79.28,55.93 L81.78,55.93 C81.099174,55.5749629 80.3669839,55.3286501 79.61,55.2 C79.18,55.31 79.28,55.93 79.28,55.93 Z" id="Path" fill="#DF3D13"></path>
            <path d="M81.78,56 L79.28,56 C79.28,55.77 79.28,55.31 79.65,55.21 C80.4185003,55.3306432 81.1618216,55.5772907 81.85,55.94 L81.78,56 Z M79.33,55.9 L81.55,55.9 C80.9519584,55.5788876 80.3020282,55.3656293 79.63,55.27 C79.31,55.33 79.31,55.74 79.33,55.88 L79.33,55.9 Z" id="Shape" fill="#25120B"></path>
            <path d="M87.55,65.27 L79.24,65.27 C79.4989102,66.8461588 80.6838045,68.1100461 82.24,68.47 C86.68,69.66 87.55,65.27 87.55,65.27 Z" id="Path" fill="#835416"></path>
            <rect id="Rectangle" fill="#835416" x="81.21" y="68.26" width="4.62" height="1"></rect>
            <path d="M83.21,68.43 L83.21,68.43 C82.4666261,68.2349488 81.7808125,67.8646094 81.21,67.35 C80.6821712,66.7407327 80.2719019,66.038867 80,65.28 C80.0194422,65.2609429 80.0505578,65.2609429 80.07,65.28 C80.3302784,66.0081294 80.716111,66.6850287 81.21,67.28 C81.7296632,67.740938 82.3440985,68.082291 83.01,68.28 C82.6495527,67.8421981 82.3992337,67.3244151 82.28,66.77 C82.2240024,66.2687128 82.2006198,65.764318 82.21,65.26 C82.21,65.26 82.21,65.21 82.27,65.21 C82.280718,65.2285641 82.280718,65.2514359 82.27,65.27 C82.2604253,65.7674171 82.2804607,66.2649633 82.33,66.76 C82.4782257,67.340697 82.7550445,67.8806645 83.14,68.34 C83.150718,68.3585641 83.150718,68.3814359 83.14,68.4 C83.1531294,68.3934811 83.1684581,68.3930521 83.1819315,68.3988265 C83.195405,68.4046008 83.2056658,68.4159967 83.21,68.43 Z" id="Path" fill="#25120B"></path>
            <path d="M84.15,68.43 L84.15,68.43 L84.3,65.32 C84.310718,65.3385641 84.310718,65.3614359 84.3,65.38 L84.16,68.38 C84.8090012,68.1681905 85.3663505,67.7413597 85.74,67.17 C86.0050491,66.6006639 86.1350919,65.9778271 86.12,65.35 C86.12,65.35 86.12,65.35 86.12,65.29 C86.12,65.23 86.18,65.29 86.18,65.34 C86.2033127,65.9846392 86.0730665,66.6255876 85.8,67.21 C85.3924816,67.8275402 84.7853043,68.2864533 84.08,68.51 L84.15,68.43 Z" id="Path" fill="#25120B"></path>
            <path d="M92.8,74.06 L84.49,74.06 C84.7489102,75.6361588 85.9338045,76.9000461 87.49,77.26 C91.93,78.45 92.8,74.06 92.8,74.06 Z" id="Path" fill="#835416"></path>
            <rect id="Rectangle" fill="#835416" x="86.46" y="77.06" width="4.62" height="1"></rect>
            <path d="M88.45,77.22 L88.45,77.22 C87.7082692,77.0260753 87.0229389,76.6594236 86.45,76.15 C85.9384454,75.5361437 85.5420722,74.8348681 85.28,74.08 C85.2609429,74.0605578 85.2609429,74.0294422 85.28,74.01 C85.3009157,73.9949786 85.3290843,73.9949786 85.35,74.01 C85.6081724,74.7390951 85.994207,75.4163487 86.49,76.01 C87.0073089,76.4688864 87.6180239,76.810068 88.28,77.01 C87.9253204,76.5647628 87.675779,76.0451697 87.55,75.49 C87.5004172,74.9916221 87.4803821,74.4907459 87.49,73.99 C87.5085641,73.979282 87.5314359,73.979282 87.55,73.99 C87.5403305,74.4874181 87.5603661,74.9849699 87.61,75.48 C87.7582334,76.0617336 88.031208,76.6042707 88.41,77.07 C88.41,77.07 88.47,77.22 88.45,77.22 Z" id="Path" fill="#25120B"></path>
            <path d="M89.39,77.22 L89.39,77.22 L89.53,74.11 C89.5485641,74.099282 89.5714359,74.099282 89.59,74.11 L89.45,77.11 C90.090903,76.8870936 90.6373067,76.4534958 91,75.88 C91.2644157,75.3107643 91.3911652,74.6872934 91.37,74.06 C91.3885641,74.049282 91.4114359,74.049282 91.43,74.06 C91.4529312,74.7056826 91.3191157,75.3473112 91.04,75.93 C90.6420382,76.5501293 90.0355748,77.0076368 89.33,77.22 L89.39,77.22 Z" id="Path" fill="#25120B"></path>
        </g>
    </g>
</svg>