<svg xmlns="http://www.w3.org/2000/svg" width="19" height="17" viewBox="0 0 19 17">
    <g fill="none" fill-rule="evenodd">
        <g fill="#0C0058" fill-rule="nonzero">
            <g>
                <g>
                    <g>
                        <path d="M18.653 5.615l-4.725 4.302c-.498.454-1.328.118-1.328-.552V7.088c-4.744.03-6.745 1.111-5.407 5.422.147.474-.421.84-.82.548-1.279-.936-2.436-2.728-2.436-4.536 0-4.554 3.86-5.458 8.663-5.484V.76c0-.67.83-1.005 1.328-.552l4.725 4.302c.33.3.33.805 0 1.105zm-6.053 6.38v2.18H2.1V4.05h1.67c.108 0 .21-.042.284-.117.491-.492 1.058-.882 1.674-1.192.366-.183.23-.716-.182-.716H1.575C.705 2.025 0 2.705 0 3.544V14.68C0 15.52.705 16.2 1.575 16.2h11.55c.87 0 1.575-.68 1.575-1.519v-2.81c0-.262-.269-.445-.525-.357-.36.122-.745.159-1.122.107-.239-.033-.453.142-.453.375z" transform="translate(-1416 -223) translate(1400 204) translate(16 10) translate(0 9)"/>
                    </g>
                </g>
            </g>
        </g>
    </g>
</svg>
