<svg xmlns="http://www.w3.org/2000/svg" width="714" height="488" viewBox="0 0 714 488">
    <g fill="none" fill-rule="evenodd">
        <g fill-rule="nonzero">
            <g>
                <path fill="#F3F3F3" d="M16.663 200.809c-.174-7.518 2.214-14.796 6.816-20.742l129.678-168.3c6.99-8.274 17.652-12.528 28.428-11.418l371.789 38.796c11.532 1.224 21.552 8.388 26.388 18.936L681.3 279.049c1.806 3.96 2.796 8.214 2.97 12.528l6.99 194.927H23.19l-6.527-285.695z" transform="translate(-258 -268) translate(258 268)"/>
                <path fill="#E4F0F8" d="M684.27 291.577c-.174-4.314-1.164-8.568-2.97-12.528L579.762 58.08c-4.836-10.548-14.856-17.712-26.388-18.936L181.584.349c-10.775-1.11-21.437 3.144-28.427 11.418l-129.678 168.3c-4.602 5.946-6.99 13.224-6.816 20.742l4.626 202.464h666.989l-4.008-111.696z" transform="translate(-258 -268) translate(258 268)"/>
                <path fill="#B1B5BA" d="M668.058 450.475l-35.238-27.846h50.166l6.132 4.11-.006-.234-5.79-3.876h5.646l-.012-.408h-6.24l-27.672-18.54h33.252l-.012-.408H21.288l.012.408h34.692l-27.828 18.54H21.72l.012.408h5.82l-5.736 3.822v.12l5.88-3.936H78.03L42.576 450.48H22.362l.006.336H42.15l-19.434 15.299.006.3 19.794-15.593h56.538L61.95 486.516h.414l37.05-35.693h56.544l-28.866 35.693h.414l28.812-35.693h56.544l-20.622 35.693h.414l20.574-35.693h56.538l-12.384 35.693h.42l12.336-35.693h56.544l-4.152 35.693h.42l4.092-35.693h56.544l4.092 35.693h.42l-4.146-35.693h56.539l12.335 35.693h.42l-12.383-35.693h56.543l20.568 35.693h.42l-20.628-35.693h56.544l28.812 35.693h.42l-28.866-35.693h56.538l37.056 35.693h.42l-37.104-35.693h56.538l22.5 17.729-.012-.318-22.122-17.411h21.498l-.012-.336h-21.918v-.012zM654.72 403.68l27.654 18.54h-50.07l-23.46-18.54h45.876zm-46.194 0l23.442 18.54h-50.016l-19.212-18.54h45.786zm-46.104 0l19.194 18.54h-50.07l-15-18.54h45.876zm-46.194 0l14.982 18.54h-49.878l-10.656-18.54h45.552zm-45.864 0l10.632 18.54h-50.04l-6.42-18.54h45.828zm-46.14 0l6.402 18.54h-50.01l-2.166-18.54h45.774zm-46.086 0l2.142 18.54h-49.95l2.13-18.54h45.678zm-45.996 0l-2.148 18.54H279.9l6.33-18.54h45.912zm-46.23 0l-6.348 18.54H229.74l10.698-18.54h45.474zm-45.792 0l-10.722 18.54h-50.046l14.73-18.294h-.318l-14.748 18.294h-49.872l19.092-18.366h-.312L128.82 422.22H78.894l23.586-18.54h137.64zM28.308 422.22l27.684-18.54h46.164l-23.604 18.54H28.308zm71.106 28.254H42.948l35.424-27.846h50.022l-28.98 27.846zm56.826 0H99.774l28.95-27.846h49.968l-22.452 27.846zm56.826 0h-56.46l22.422-27.846h50.136l-16.098 27.846zm56.832 0h-56.466l16.074-27.846h49.926l-9.534 27.846zm56.826 0h-56.466l9.504-27.846h50.184l-3.222 27.846zm.366 0l3.198-27.846h50.047l3.221 27.846H327.09zm56.826 0l-3.252-27.846h50.1l9.618 27.846h-56.466zm56.832 0l-9.642-27.846h50.13l15.972 27.846h-56.46zm56.826 0l-16.008-27.846h49.974l22.5 27.846h-56.466zm56.826 0l-22.53-27.846h50.166l28.83 27.846H554.4zm56.832 0l-28.86-27.846h50.112l35.208 27.846h-56.46z" transform="translate(-258 -268) translate(258 268)"/>
                <path fill="#B1B5BA" d="M713.364 487.26H.474c-.228 0-.384-.156-.384-.384s.156-.384.384-.384h712.962c.228 0 .384.156.384.384s-.228.384-.456.384z" transform="translate(-258 -268) translate(258 268)"/>
                <path fill="#FFF" d="M111.066 286.721L18.39 286.721 21.288 403.271 111.066 403.271z" transform="translate(-258 -268) translate(258 268)"/>
                <path fill="#DCDCDC" d="M111.066 290.573L18.39 290.573 19.056 313.547 111.066 313.547z" transform="translate(-258 -268) translate(258 268)"/>
                <path fill="#DCDCDC" d="M111.066 286.721L18.39 286.721 19.002 311.687 111.066 311.687z" transform="translate(-258 -268) translate(258 268)"/>
                <path fill="#DCDCDC" d="M40.716 286.721L39.438 286.721 39.438 403.271 40.716 403.271z" transform="translate(-258 -268) translate(258 268)"/>
                <path fill="#FFF" d="M255.318 286.721L113.34 286.721 113.34 403.271 255.318 403.271z" transform="translate(-258 -268) translate(258 268)"/>
                <path fill="#DCDCDC" d="M255.318 290.573L113.34 290.573 113.34 313.547 255.318 313.547z" transform="translate(-258 -268) translate(258 268)"/>
                <path fill="#DCDCDC" d="M255.318 286.721L113.34 286.721 113.34 311.687 255.318 311.687z" transform="translate(-258 -268) translate(258 268)"/>
                <path fill="#DCDCDC" d="M184.968 286.721L183.69 286.721 183.69 403.271 184.968 403.271zM50.225 325.962L46.223 325.962 46.223 348.959 50.225 348.959zM35.219 325.962L31.217 325.962 31.217 348.959 35.219 348.959zM194.471 325.962L190.469 325.962 190.469 348.959 194.471 348.959zM179.471 325.962L175.469 325.962 175.469 348.959 179.471 348.959z" transform="translate(-258 -268) translate(258 268)"/>
                <path fill="#E9E9E9" d="M257.25 276.444L18.39 276.444 18.39 286.728 257.25 286.728z" transform="translate(-258 -268) translate(258 268)"/>
                <path fill="#FFF" d="M84.893 295.206L68.273 295.206 68.273 298.098 84.893 298.098zM156.768 295.206L140.148 295.206 140.148 298.098 156.768 298.098zM228.641 295.206L212.021 295.206 212.021 298.098 228.641 298.098z" transform="translate(-258 -268) translate(258 268)"/>
                <path fill="#DCDCDC" d="M127.043 89.304L101.669 89.304 101.669 173.742 127.043 173.742z" transform="translate(-258 -268) translate(258 268)"/>
                <path fill="#E9E9E9" d="M113.172 89.304L93.414 89.304 28.35 173.742 113.172 173.742z" transform="translate(-258 -268) translate(258 268)"/>
                <path fill="#FFF" d="M51.33 89.304L50.208 89.304 50.208 173.742 51.33 173.742zM59.124 146.329L55.608 146.329 55.608 166.549 59.124 166.549zM45.935 146.329L42.419 146.329 42.419 166.549 45.935 166.549z" transform="translate(-258 -268) translate(258 268)"/>
                <path fill="#E9E9E9" d="M239.969 89.304L115.169 89.304 115.169 173.742 239.969 173.742z" transform="translate(-258 -268) translate(258 268)"/>
                <path fill="#FFF" d="M178.128 89.304L177.006 89.304 177.006 173.742 178.128 173.742zM185.916 146.329L182.4 146.329 182.4 166.549 185.916 166.549zM172.733 146.329L169.217 146.329 169.217 166.549 172.733 166.549zM239.964 173.796L28.308 173.796 24.81 178.332 239.964 178.332z" transform="translate(-258 -268) translate(258 268)"/>
                <path fill="#E9E9E9" d="M239.964 176.4L26.304 176.4 24.81 178.338 239.964 178.338z" transform="translate(-258 -268) translate(258 268)"/>
                <path fill="#D9DCDE" d="M615.354 139.783L495.984 139.783 495.984 403.273 615.354 403.273z" transform="translate(-258 -268) translate(258 268)"/>
                <path fill="#DCDCDC" d="M606.372 403.273H488.388c-.384 0-.69-.312-.69-.69v-15.96c0-.384.312-.69.69-.69h117.984c.384 0 .69.312.69.69v15.96c.006.384-.306.69-.69.69z" transform="translate(-258 -268) translate(258 268)"/>
                <path fill="#E9E9E9" d="M607.068 139.783L487.698 139.783 487.698 397.141 607.068 397.141z" transform="translate(-258 -268) translate(258 268)"/>
                <path fill="#FFF" d="M607.068 302.287L487.698 302.287 487.698 304.717 607.068 304.717zM501.174 234.085L494.796 234.085 494.796 294.727 501.174 294.727zM501.174 310.013L494.796 310.013 494.796 370.655 501.174 370.655z" transform="translate(-258 -268) translate(258 268)"/>
                <path fill="#000" d="M101.52 206.766H35.524c-.972 0-1.758-.786-1.758-1.758v-5.052c0-.972.786-1.758 1.758-1.758h65.994c.972 0 1.758.786 1.758 1.758v5.052c0 .966-.786 1.758-1.758 1.758z" opacity=".2" transform="translate(-258 -268) translate(258 268)"/>
                <path fill="#BBBDBF" d="M46.315 221.04L42.583 221.04 42.583 225.282 46.315 225.282z" transform="translate(-258 -268) translate(258 268)"/>
                <path fill="#BBBDBF" d="M44.449 221.04L42.583 221.04 42.583 225.282 44.449 225.282z" transform="translate(-258 -268) translate(258 268)"/>
                <path fill="#FFF" d="M59.796 240c0 8.472-6.87 15.342-15.342 15.342-8.472 0-15.342-6.87-15.342-15.342 0-8.472 6.87-15.342 15.342-15.342 8.472 0 15.342 6.864 15.342 15.342z" transform="translate(-258 -268) translate(258 268)"/>
                <path fill="#E9E9E9" d="M56.831 240c0 6.84-5.544 12.377-12.384 12.377-6.84 0-12.378-5.544-12.378-12.378 0-6.84 5.544-12.384 12.378-12.384 6.84 0 12.384 5.544 12.384 12.384z" transform="translate(-258 -268) translate(258 268)"/>
                <path fill="#203B95" d="M46.987 203.952c-.156-1.176-1.23-2.094-2.538-2.094-1.302 0-2.382.912-2.538 2.094h-.024v17.13h5.118v-17.13h-.018zm-2.538 1.158c-.486 0-.882-.396-.882-.882s.396-.882.882-.882.882.396.882.882c.006.486-.39.882-.882.882z" transform="translate(-258 -268) translate(258 268)"/>
                <path fill="#BBBDBF" d="M73.848 217.381L70.956 217.381 70.956 220.669 73.848 220.669z" transform="translate(-258 -268) translate(258 268)"/>
                <path fill="#BBBDBF" d="M72.402 217.381L70.956 217.381 70.956 220.669 72.402 220.669z" transform="translate(-258 -268) translate(258 268)"/>
                <path fill="#FFF" d="M84.42 231.919c0 6.564-5.322 11.886-11.886 11.886-6.564 0-11.892-5.322-11.892-11.886 0-6.564 5.322-11.886 11.892-11.886 6.564-.006 11.886 5.316 11.886 11.886z" transform="translate(-258 -268) translate(258 268)"/>
                <path fill="#E9E9E9" d="M72.546 241.519c5.298 0 9.594-4.296 9.594-9.594 0-5.298-4.296-9.594-9.594-9.594-5.298 0-9.594 4.296-9.594 9.594 0 5.298 4.296 9.594 9.594 9.594z" transform="translate(-258 -268) translate(258 268)"/>
                <path fill="#203B95" d="M74.363 204.137c-.12-.912-.954-1.62-1.962-1.62s-1.842.708-1.962 1.62h-.018v13.278h3.966v-13.278h-.024zm-1.962.894c-.378 0-.684-.306-.684-.684 0-.378.306-.684.684-.684.378 0 .684.306.684.684 0 .384-.306.684-.684.684z" transform="translate(-258 -268) translate(258 268)"/>
                <path fill="#FFF" d="M44.7 204.325c0 .138-.108.246-.246.246s-.246-.108-.246-.246v-3.45c0-.138.108-.246.246-.246s.246.108.246.246v3.45zM72.648 204.317c0 .138-.108.246-.246.246s-.246-.108-.246-.246v-3.45c0-.138.108-.246.246-.246s.246.108.246.246v3.45zM94.927 204.317c0 .138-.108.246-.246.246s-.246-.108-.246-.246v-3.45c0-.138.108-.246.246-.246s.246.108.246.246v3.45z" transform="translate(-258 -268) translate(258 268)"/>
                <path fill="#B1B5BA" d="M713.364 487.26H.474c-.228 0-.384-.156-.384-.384s.156-.384.384-.384h712.962c.228 0 .384.156.384.384s-.228.384-.456.384zM416.358 248.029L427.41 248.029 394.026 486.426 389.706 486.426z" transform="translate(-258 -268) translate(258 268)"/>
                <path fill="#B1B5BA" d="M582.684 486.522L578.364 486.522 545.01 248.029 556.062 248.029z" transform="translate(-258 -268) translate(258 268)"/>
                <path fill="#858990" d="M389.706 486.426h1.854l28.674-231.72c.222-1.626 1.512-2.915 3.144-3.03l3.588-.335.45-3.253h-11.052l-26.658 238.338zM579.936 486.522L550.23 254.927c-.222-1.68.9-3.312 2.58-3.648l3.534-.732-.282-2.58H545.01l33.354 238.495h1.572v.06z" transform="translate(-258 -268) translate(258 268)"/>
                <path fill="#B1B5BA" d="M382.422 248.029L393.474 248.029 360.174 486.498 355.854 486.498zM548.7 486.522L544.38 486.522 511.074 248.029 522.126 248.029z" transform="translate(-258 -268) translate(258 268)"/>
                <path fill="#858990" d="M355.854 486.498h1.854l11.196-85.325 3.42-1.962 20.646-147.924.45-3.252h-11.052l-26.514 238.463zM545.952 486.522l-10.926-84.679 3.87-2.694-16.83-151.176h-11.052l33.306 238.495h1.626v.054h.006z" transform="translate(-258 -268) translate(258 268)"/>
                <path fill="#858990" d="M575.526 243.821c0 2.298-1.506 4.206-3.426 4.206H468.87c-1.872 0-3.426-1.854-3.426-4.206 0-2.298 1.506-4.206 3.426-4.206H572.1c1.872 0 3.426 1.908 3.426 4.206z" transform="translate(-258 -268) translate(258 268)"/>
                <path fill="#B1B5BA" d="M496.128 243.821c0 2.298-1.854 4.206-4.206 4.206H364.248c-2.298 0-4.206-1.854-4.206-4.206 0-2.298 1.854-4.206 4.206-4.206h127.728c2.298 0 4.152 1.908 4.152 4.206zM251.214 365.717L260.412 365.717 241.884 486.498 238.29 486.498z" transform="translate(-258 -268) translate(258 268)"/>
                <path fill="#858990" d="M238.29 486.498h1.542l14.61-115.225c.186-1.356 1.26-2.43 2.616-2.52l2.988-.282.372-2.706h-9.198l-12.93 120.733z" transform="translate(-258 -268) translate(258 268)"/>
                <path fill="#B1B5BA" d="M222.973 365.717L232.171 365.717 213.631 486.498 210.031 486.498zM328.722 486.516L325.128 486.516 299.058 367.962 308.256 367.962z" transform="translate(-258 -268) translate(258 268)"/>
                <path fill="#858990" d="M210.03 486.498h1.543l9.42-71.49 2.85-1.633 7.908-44.952.372-2.706h-9.198L210.03 486.498zM326.435 486.516L311.489 415.085 315.215 414.251 304.931 367.913 299.015 367.913 325.085 486.468 326.441 486.468z" transform="translate(-258 -268) translate(258 268)"/>
                <path fill="#858990" d="M220.493 257.448h80.328c2.028 0 3.672 1.644 3.672 3.672v110.172c0 2.028-1.644 3.672-3.672 3.672h-80.328c-2.028 0-3.672-1.644-3.672-3.672V261.12c0-2.028 1.644-3.672 3.672-3.672z" transform="translate(-258 -268) translate(258 268)"/>
                <path fill="#B1B5BA" d="M220.32 257.963c1.913 0 3.497 1.542 3.497 3.498v112.956h-3.498c-1.914 0-3.498-1.542-3.498-3.498v-109.5c0-1.92 1.584-3.456 3.498-3.456z" transform="translate(-258 -268) translate(258 268)"/>
                <path fill="#858990" d="M331.753 371.465c0 1.914-1.542 3.498-3.498 3.498h-56.37c-1.914 0-3.498-1.542-3.498-3.498 0-1.914 1.542-3.498 3.498-3.498h56.37c1.914-.006 3.498 1.584 3.498 3.498z" transform="translate(-258 -268) translate(258 268)"/>
                <path fill="#B1B5BA" d="M289.189 370.955c.3 2.13-1.332 4.008-3.462 4.008h-65.4c-1.932 0-3.498-1.566-3.498-3.498 0-1.914 1.542-3.498 3.498-3.498h65.28c1.758-.006 3.336 1.242 3.582 2.988z" transform="translate(-258 -268) translate(258 268)"/>
                <path fill="#F39494" d="M314.447 273.937L320.927 304.993 318.227 328.033 310.841 328.351 295.817 277.807z" transform="translate(-258 -268) translate(258 268)"/>
                <path fill="#21252B" d="M276.823 262.938c-.468-.144-.924-.318-1.38-.492-.468-.186-.936-.372-1.41-.552-.318-.12-.636-.234-.96-.342-.324-.108-.654-.198-.99-.282-.63-.144-1.26-.246-1.902-.312-.342-.03-.678-.054-1.02-.072-.354-.018-.714-.012-1.068-.006-.492.024-.984.06-1.476.114-.528.06-1.05.138-1.566.228-.648.114-1.296.246-1.95.372-.336.066-.672.126-1.008.18-5.382.852-8.544-2.85-7.956-2.316l-.042-.036c-.018-.012-.036-.036-.03-.03-.012-.006-.048-.048-.06-.054-1.272-1.2-1.782-2.112-4.14-3.954-1.458-1.146-2.376-1.674-3.138-2.406-1.134-1.08-2.322-3.786-2.082-7.332.036-.51.138-1.314.282-1.962.366-1.656.888-2.91 1.224-4.332.42-1.872.348-2.622.366-3.222-.09-1.422-.438-2.412-.42-2.34-.522-1.638-3.204-7.236-1.254-11.184 1.47-2.97 6.834-5.88 6.834-5.88 8.304-5.328 6.462-9.186 11.328-13.89 3.702-3.57 11.76-5.244 15.624-3.708.366.144 1.452-.282 2.328-.582 1.872-.63 3.282-.966 6.576.594 1.134.54 2.298 1.368 3.258 2.16 5.184 4.278 4.794 8.286 5.874 11.784-.006-.012-.006-.024-.012-.042.198.624.414 1.14.684 1.728.3.642.63 1.272 1.008 1.878 1.758 2.748 6.054 6.696 4.092 15.048-.888 3.774-2.73 5.046-1.908 9.942.252 1.344.726 2.796.684 2.652.39 1.218.804 2.424 1.104 3.672.078.318.144.636.204.954.06.336.102.678.126 1.02.234 2.91-.654 4.662-3.24 6.702-.27.216-.558.414-.846.606-.282.186-.582.342-.882.492-1.11.558-2.334.834-3.54 1.08-.6.126-1.206.252-1.8.402-7.302 1.818-9.3 5.622-15.516 3.72z" transform="translate(-258 -268) translate(258 268)"/>
                <path fill="#FB9C9C" d="M420.469 443.598s5.496 16.362 7.548 21.666c1.602 4.14 7.368 6.696 9.09 7.284.036.012.078.024.12.042l19.824 7.578c1.932.642-.354 4.332-.354 4.332-.402.54-1.038.846-1.812.744-.522-.066-.948-.402-1.374-.708-.048-.036-.09-.036-.09-.036h-.354c-.06 0-.12.06-.174.12-.354.408-.876.642-1.404.642-.528 0-1.17-.234-1.578-.642-.174-.174-.468-.12-.642.06-.294.354-.702.528-1.17.528-.408 0-.936-.174-1.344-.468-.174-.12-.468-.12-.642.06-.234.234-.642.408-.996.408-.588 0-1.056-.294-1.29-.762h-.174l-28.116-.408h1.488c-3.042-.06-6.99-2.514-7.11-5.562l-.12-2.046c-.12-2.514-10.416-32.472-10.416-32.472l21.09-.36z" transform="translate(-258 -268) translate(258 268)"/>
                <path fill="#21252B" d="M461.137 483.912c-.12-2.748-1.872-5.208-4.506-6.144l-18.492-5.616c-.702-.234-1.404.12-1.638.822-.702 2.34-2.46 7.374-5.91 10.944l-19.866-.066c-.702 0-1.29.588-1.29 1.29 0 .702.588 1.29 1.29 1.29l49.128.066c.702 0 1.29-.588 1.29-1.29v-1.296h-.006z" transform="translate(-258 -268) translate(258 268)"/>
                <path fill="#000" d="M461.137 483.912c-.06-2.226-1.23-4.152-2.982-5.382 2.28 1.638 1.872 3.276-1.404 3.162-17.028-.822-21.594-.822-23.586-.996.06-.06.06-.12.06-.174-.762 1.17-1.578 2.34-2.574 3.336h-19.926c-.702 0-1.29.588-1.29 1.29 0 .702.588 1.29 1.29 1.29h49.182c.702 0 1.29-.588 1.29-1.29v-1.23h-.06v-.006z" opacity=".4" transform="translate(-258 -268) translate(258 268)"/>
                <path fill="#000" d="M461.136 482.916L430.998 483.498 430.59 483.912 461.136 483.324z" opacity=".4" transform="translate(-258 -268) translate(258 268)"/>
                <path fill="#000" d="M457.625 482.328c-.294.354-.702.528-1.17.528-.408 0-.936-.174-1.344-.468-.174-.12-.468-.12-.642.06-.234.234-.642.408-.996.408-.588 0-1.056-.294-1.29-.762h-.174l-28.116-.408h1.488c-3.042-.06-6.99-2.514-7.11-5.562l-.12-2.046c-.096-2.1-7.296-23.334-9.666-30.282l-9.12.15s10.302 29.958 10.416 32.472l.114 2.046c.12 3.042 4.062 5.502 7.11 5.562h-1.488l28.116.408h.174c.234.468.702.762 1.29.762.354 0 .762-.174.996-.408.174-.174.468-.174.642-.06.408.294.936.468 1.344.468.468 0 .876-.174 1.17-.528.174-.174.468-.234.642-.06.408.408 1.056.642 1.578.642.528 0 1.056-.234 1.404-.642.06-.06.12-.12.174-.12h.354s.042 0 .09.036c.426.306.852.642 1.374.708.774.102 1.41-.204 1.812-.744 0 0 .672-1.092.978-2.196 0 .018-.018.024-.03.036z" opacity=".15" transform="translate(-258 -268) translate(258 268)"/>
                <path fill="#FB9C9C" d="M357.12 444.192l-1.2 20.802c-.373 5.142 3.905 7.188 8.843 8.88.036.012.078.024.114.042l19.53 6.51c1.884.63-.342 4.224-.342 4.224-.396.522-1.014.822-1.77.726-.51-.066-.924-.39-1.344-.69-.048-.03-.084-.03-.084-.03h-.342c-.06 0-.114.06-.174.114-.342.402-.858.63-1.368.63-.51 0-1.14-.228-1.542-.63-.174-.174-.456-.114-.63.06-.288.342-.684.516-1.14.516-.402 0-.912-.174-1.314-.456-.174-.114-.456-.114-.63.06-.228.228-.63.402-.972.402-.57 0-1.026-.288-1.254-.744h-.174l-27.624-.402h-.438c-2.97-.06-6.384-2.454-6.498-5.424l-.114-1.998c-.114-2.454-.432-31.104-.432-31.104l20.898-1.488z" transform="translate(-258 -268) translate(258 268)"/>
                <path fill="#21252B" d="M388.398 484.074c-.114-2.682-1.83-5.082-4.398-5.994l-18.042-5.484c-.684-.228-1.368.114-1.596.798-.684 2.286-2.4 7.194-5.767 10.68l-19.38-.066c-.684 0-1.253.57-1.253 1.254s.57 1.254 1.253 1.254l47.935.066c.684 0 1.254-.57 1.254-1.254v-1.254h-.006z" transform="translate(-258 -268) translate(258 268)"/>
                <path fill="#000" d="M388.398 484.074c-.06-2.172-1.2-4.056-2.91-5.256 2.225 1.596 1.83 3.198-1.368 3.084-16.614-.798-21.073-.798-23.01-.972.06-.06.06-.114.06-.174-.744 1.14-1.542 2.286-2.514 3.252h-19.44c-.685 0-1.254.57-1.254 1.254s.57 1.254 1.253 1.254h47.989c.684 0 1.254-.57 1.254-1.254v-1.2h-.06v.012z" opacity=".4" transform="translate(-258 -268) translate(258 268)"/>
                <path fill="#000" d="M388.398 483.108L358.998 483.678 358.596 484.074 388.398 483.504z" opacity=".4" transform="translate(-258 -268) translate(258 268)"/>
                <path fill="#000" d="M384.491 483.132c-.228.228-.63.402-.972.402-.57 0-1.026-.288-1.254-.744h-.174l-27.624-.402h-.438c-2.97-.06-6.384-2.454-6.498-5.424l-.114-1.998c-.102-2.178-.36-24.906-.42-30.066l-10.776.756s.318 28.65.432 31.104l.114 1.998c.114 2.97 3.528 5.37 6.498 5.424h.438l27.624.402h.174c.228.456.684.744 1.254.744.342 0 .744-.174.972-.402.174-.174.456-.174.63-.06.402.288.912.456 1.314.456.456 0 .858-.174 1.14-.516.174-.174.456-.228.63-.06.402.402 1.026.63 1.542.63s1.026-.228 1.368-.63c.06-.06.114-.114.174-.114h.342s.042 0 .084.03c.42.3.834.624 1.344.69.756.102 1.374-.198 1.77-.726 0 0 .468-.762.792-1.644-.132.018-.27.054-.366.15z" opacity=".15" transform="translate(-258 -268) translate(258 268)"/>
                <path fill="#203B95" d="M282.198 245.291l5.214-.024 9.246 1.602c.354.462 4.284-.036 4.89 5.322.09.822.186 1.668.27 2.52 1.248 12.372 6.732 15.768 7.596 23.58 1.236 11.142-9.306 13.266-10.44 25.404-1.932 20.646.846 31.896.846 31.896h-65.316s-.156-.438.126-2.364c.234-1.608.762-4.254 1.932-8.544 2.784-10.2-.498-38.514-.498-38.514l-3.294-18.138c-2.064-11.358 6.24-21.972 17.76-22.704l31.668-.036z" transform="translate(-258 -268) translate(258 268)"/>
                <path fill="#203B95" d="M287.417 245.269l8.382-.096c7.332-.438 13.884 4.554 15.414 11.736l5.904 29.838-11.826 1.476-17.874-42.954z" transform="translate(-258 -268) translate(258 268)"/>
                <path fill="#364361" d="M313.086 335.598h60.12c5.97 0 11.262 3.84 13.11 9.522L425.7 458.712h-21.468s-9.504-22.164-21.33-38.994c-12.588-17.916-22.314-50.112-22.314-50.112h-95.766c-8.712 0-15.78-7.062-15.78-15.78v-18.228h64.044z" transform="translate(-258 -268) translate(258 268)"/>
                <path fill="#000" d="M382.908 419.712c11.358 17.154 21.33 38.994 21.33 38.994h9.432l-40.74-113.592c-1.848-5.676-7.14-9.522-13.11-9.522H249.042v18.228c0 8.712 7.062 15.78 15.78 15.78H360.594c0 .006 8.934 29.91 22.314 50.112z" opacity=".15" transform="translate(-258 -268) translate(258 268)"/>
                <path fill="#F69797" d="M295.818 321.798l5.472.732 11.682-1.038c1.236.114 1.776.348 2.7 1.158l7.206 6.438c.462.426.504 1.116.114 1.578-.384.462-1.08.576-1.578.192l-6.822-5.01 4.434 5.244c.504.576.27 1.506-.462 1.776-.426.156-.846.036-1.158-.234l-5.934-5.82 4.512 4.434c.54.54.348 1.428-.348 1.698-.348.156-.732.078-1.002-.114l-6.324-4.626 4.278 3.162c.504.348.504 1.116 0 1.464-.27.192-.618.234-.888.114l-5.742-2.388c-.54-.234-1.194-.234-1.734.036l-2.196 1.08c-1.776.888-3.78 1.35-5.742 1.35h-3.582c-5.13-.006 3.114-11.226 3.114-11.226z" transform="translate(-258 -268) translate(258 268)"/>
                <path fill="#61656D" d="M312.588 331.548c-.036 0-.078 0-.114-.036l-3.93-2.892c-.078-.078-.114-.192-.036-.27.078-.078.192-.114.27-.036l3.93 2.892c.078.078.114.192.036.27-.042.036-.12.072-.156.072zM315.942 331.433c-.036 0-.114 0-.114-.036l-4.242-4.164c-.078-.078-.078-.192 0-.27.078-.078.192-.078.27 0l4.242 4.164c.078.078.078.192 0 .27-.042.036-.12.036-.156.036zM307.23 329.856c1.309.654 3.51 1.776 4.279 2.196 1.08.618 1.386-.192 1.386-.192.078.348-.036.732-.348.966-.27.192-.618.234-.888.114l-5.742-2.388c-.54-.234-1.194-.234-1.734.036l1.116-.654c.618-.348 1.314-.348 1.932-.078z" transform="translate(-258 -268) translate(258 268)"/>
                <path fill="#F69797" d="M295.819 321.799l-38.755-8.85-3.065-24.564-17.611.006 4.297 25.098c1.224 7.812 2.982 14.256 10.842 15.102l41.172 4.428 3.12-11.22z" transform="translate(-258 -268) translate(258 268)"/>
                <path fill="#21252B" d="M286.308 333.017h46.224c.372 0 .702.33.702.702v1.17c0 .372-.33.702-.702.702h-46.224c-.378 0-.702-.33-.702-.702v-1.17c0-.372.282-.702.702-.702z" transform="translate(-258 -268) translate(258 268)"/>
                <path fill="#000" d="M286.308 333.017h46.224c.372 0 .702.33.702.702v1.17c0 .372-.33.702-.702.702h-46.224c-.378 0-.702-.33-.702-.702v-1.17c0-.372.282-.702.702-.702z" opacity=".6" transform="translate(-258 -268) translate(258 268)"/>
                <path fill="#21252B" d="M317.485 333.017h80.586c.372 0 .702.33.702.702v1.17c0 .372-.33.702-.702.702h-80.586c-.378 0-.702-.33-.702-.702v-1.17c.042-.372.324-.702.702-.702z" transform="translate(-258 -268) translate(258 268)"/>
                <g fill="#000" opacity=".6">
                    <path d="M82.632 1.085H.594C.456 1.085.36.99.36.851S.456.617.594.617h82.038c.138 0 .234.096.234.234 0 .144-.138.234-.234.234z" transform="translate(-258 -268) translate(258 268) translate(314.4 332.4)"/>
                </g>
                <path fill="#21252B" d="M317.291 333.019h12.144c.936 0 1.734-.654 1.92-1.596l10.17-53.49c.234-1.218-.702-2.298-1.92-2.298h-12.144c-.936 0-1.734.654-1.92 1.596l-10.17 53.49c-.186 1.224.702 2.298 1.92 2.298z" transform="translate(-258 -268) translate(258 268)"/>
                <path fill="#000" d="M317.291 333.019h12.144c.936 0 1.734-.654 1.92-1.596l10.17-53.49c.234-1.218-.702-2.298-1.92-2.298h-12.144c-.936 0-1.734.654-1.92 1.596l-10.17 53.49c-.186 1.224.702 2.298 1.92 2.298z" opacity=".6" transform="translate(-258 -268) translate(258 268)"/>
                <path fill="#21252B" d="M319.027 333.019h77.958c.936 0 1.734-.654 1.92-1.596l10.17-53.49c.234-1.218-.702-2.298-1.92-2.298H329.25c-.936 0-1.734.654-1.92 1.596l-10.17 53.49c-.24 1.224.648 2.298 1.866 2.298z" transform="translate(-258 -268) translate(258 268)"/>
                <path fill="#000" d="M363.563 302.832c-.468 1.08.048 2.016 1.128 2.016h.186c-1.266 1.404-3.186 2.388-4.878 2.346-2.298-.048-3.377-1.92-2.345-4.218.984-2.298 3.702-4.08 6-4.032 1.452.048 2.435.798 2.67 1.968-1.075.042-2.293.84-2.76 1.92z" opacity=".6" transform="translate(-258 -268) translate(258 268)"/>
                <path fill="#000" d="M251.262 267.023l5.267 20.592c1.302 5.1 6.523 8.154 11.611 6.792l-1.734 1.704c-3.876 3.816-5.76 9.222-5.094 14.622l.402 3.264 34.104 7.794-38.754-8.85-5.802-45.918z" opacity=".15" transform="translate(-258 -268) translate(258 268)"/>
                <path fill="#364361" d="M354.81 337.938c-2.202-1.482-4.842-2.34-7.638-2.34H234.504v16.908c0 9.444 7.656 17.094 17.094 17.094h78.96c-.384 5.406-1.17 23.274 2.67 47.928 2.886 18.54 3.126 41.034 3.126 41.034l19.938.246 6.552-105.258c.276-4.704-1.26-11.844-8.034-15.612z" transform="translate(-258 -268) translate(258 268)"/>
                <path fill="#21252B" d="M275.196 244.655c3.42 0 6.192-2.772 6.192-6.192 0-3.42-2.772-6.192-6.192-6.192-3.42 0-6.192 2.772-6.192 6.192 0 3.42 2.772 6.192 6.192 6.192z" transform="translate(-258 -268) translate(258 268)"/>
                <path fill="#F59696" d="M263.736 220.56l-3.066 21.185c-.258 1.704-1.614 3.048-3.324 3.324l-2.502.408 5.16 4.026c5.142 4.086 11.88 5.454 18.12 3.852 1.14-.288 2.256-.684 3.348-1.176l2.976-1.218s-.27-2.88-1.086-5.592c-.324-1.08-.432-1.872-.432-3.126 0-5.862.072-23.274.072-23.274l-19.266 1.59z" transform="translate(-258 -268) translate(258 268)"/>
                <path fill="#F59696" d="M276.78 239.58l-1.014-.054c-7.296-.552-12.726-6.864-12.186-14.1l1.368-18.45c.162-2.436 2.286-4.224 4.722-4.056l17.268 1.23c3.144.246 5.52 2.976 5.274 6.12l-1.278 17.142c-.594 7.224-6.918 12.714-14.154 12.168z" transform="translate(-258 -268) translate(258 268)"/>
                <path fill="#21252B" d="M278.772 223.608c.792 0 1.428-.642 1.428-1.428 0-.792-.642-1.428-1.428-1.428-.786 0-1.428.642-1.428 1.428 0 .786.642 1.428 1.428 1.428z" transform="translate(-258 -268) translate(258 268)"/>
                <path fill="#FFF" d="M279.39 222.27c.162 0 .294-.131.294-.293 0-.162-.132-.294-.294-.294-.162 0-.294.132-.294.294 0 .162.132.294.294.294z" transform="translate(-258 -268) translate(258 268)"/>
                <path fill="#21252B" d="M289.813 224.893c.786 0 1.428-.642 1.428-1.428 0-.792-.642-1.428-1.428-1.428-.792 0-1.428.642-1.428 1.428 0 .792.642 1.428 1.428 1.428z" transform="translate(-258 -268) translate(258 268)"/>
                <path fill="#FFF" d="M290.442 223.494c.162 0 .294-.132.294-.294 0-.162-.132-.294-.294-.294-.162 0-.294.132-.294.294 0 .162.132.294.294.294z" transform="translate(-258 -268) translate(258 268)"/>
                <g fill="#000" opacity=".15">
                    <path d="M2.442 3.893L.534 3.851c-.24-.03-.39-.222-.432-.408.03-.24.222-.39.408-.432l1.908.042c.48-.006.882-.378.876-.858-.006-.48-.378-.882-.846-.936-.24-.03-.39-.222-.432-.408.03-.24.222-.39.408-.432.948.054 1.692.858 1.656 1.746.12 1.032-.69 1.782-1.638 1.728z" transform="translate(-258 -268) translate(258 268) translate(280.2 224.4)"/>
                </g>
                <path fill="#000" d="M282.93 238.542c-2.149.942-4.507 1.212-6.943 1.05-.534-.06-1.062-.126-1.59-.186-.18-.018-.414-.048-.582-.126l-.114-.012c-.288-.096-.582-.126-.93-.228-.114-.012-.228-.09-.348-.102-2.028-.594-3.48-1.482-4.416-2.19-.162-.138-.402-.108-.546.054-.138.162-.108.402.054.546 1.212.918 3.114 2.04 5.79 2.652 1.296 1.23 3.564 2.808 6.63 3.168 1.008.114 2.022.114 2.994-.006v-4.62z" opacity=".15" transform="translate(-258 -268) translate(258 268)"/>
                <path fill="#FFF" d="M289.585 216.48c-1.794-.03-3.438.739-4.542 1.987-1.53-.72-2.928-.522-3.546-.354-.858-1.896-2.736-3.252-4.998-3.336-3.156-.126-5.838 2.37-5.97 5.526-.126 3.156 2.37 5.838 5.526 5.97 3.156.126 5.838-2.37 5.97-5.526.018-.654-.096-1.266-.258-1.884.558-.114 1.698-.216 2.844.27-.576.828-.876 1.872-.942 2.946-.126 3.156 2.37 5.838 5.526 5.97 3.156.126 5.838-2.37 5.97-5.526.126-3.162-2.376-5.85-5.58-6.042zm-13.38 9.03c-2.742-.077-4.86-2.423-4.782-5.165.078-2.742 2.424-4.86 5.166-4.782 2.742.078 4.86 2.424 4.782 5.166-.144 2.736-2.49 4.914-5.166 4.782zm13.02 1.753c-2.742-.078-4.86-2.424-4.782-5.166.078-2.742 2.424-4.86 5.166-4.782 2.742.078 4.86 2.424 4.782 5.166-.078 2.742-2.424 4.866-5.166 4.782z" transform="translate(-258 -268) translate(258 268)"/>
                <path fill="#F59696" d="M278.928 270.99l.132-.21c-.06.043-.114.079-.168.115.018.03.03.06.036.096zM285.912 260.245c2.4-3.528-.576-9.948-2.574-14.964l-28.494.204c1.332 3.216 3.492 7.284 6.024 10.344 2.49 3.006 5.964 5.226 9.222 7.236l13.986-.06c.63-.966 1.26-1.908 1.836-2.76z" transform="translate(-258 -268) translate(258 268)"/>
                <path fill="#21252B" d="M270.085 263.058c4.152 2.562 9.576 4.668 10.464 7.722.048-.036-.018.006.048-.036.558-.882 1.29-4.422 3.48-7.746l-13.992.06zM264.156 206.52c-.138-3.954 1.272-1.26 3.216-3.612 1.944-2.346 12.522-2.052 12.522-2.052 1.98.93 2.91 2.868 1.884 6.372-4.104 14.016-17.634 10.314-17.634 10.314l.012-11.022z" transform="translate(-258 -268) translate(258 268)"/>
                <path fill="#F59696" d="M264.63 226.271s-6.319.282-7.447-5.952c-1.122-6.294 6.642-7.188 7.524-.864l.63 6.9-.708-.084z" transform="translate(-258 -268) translate(258 268)"/>
                <path fill="#000" d="M259.241 217.08c.714-.456 1.32-.564 1.902-.438.582.126 1.074.546 1.47 1.248.396.702.654 1.578.612 2.466l-.018.654c.006.48-.852.618-.84.024l-.036-.72c.03-.24-.078-1.38-.48-2.028-.3-.51-.624-.792-.972-.888-.348-.102-.78.03-1.296.324-.192.096-.426.072-.582-.126-.042-.18.048-.414.24-.516z" opacity=".15" transform="translate(-258 -268) translate(258 268)"/>
                <path fill="#203B95" d="M262.992 225.21c.69 0 1.254-.564 1.254-1.254 0-.69-.558-1.254-1.254-1.254-.69 0-1.254.564-1.254 1.254 0 .69.564 1.254 1.254 1.254z" transform="translate(-258 -268) translate(258 268)"/>
                <path fill="#000" d="M263.388 225.108c-.774-.024-1.362-.636-1.332-1.41.03-.24.12-.528.264-.69-.318.198-.552.594-.594 1.008-.024.72.51 1.26 1.23 1.284.24.03.546-.054.738-.216-.12-.012-.24-.03-.306.024z" opacity=".15" transform="translate(-258 -268) translate(258 268)"/>
                <path fill="#21252B" d="M294.24 213.804c2.089-13.644-10.163-11.826-10.163-11.826-1.26.18-1.95 1.104-2.136 3.222-.54 6.258 5.057 8.772 8.033 8.766 1.068-.006 4.267-.162 4.267-.162z" transform="translate(-258 -268) translate(258 268)"/>
                <path fill="#F39494" d="M306.671 321.463l7.212-2.862c.864-.342 3.036-.384 3.762.186l-.18 1.374-2.76 2.64-8.034-1.338z" transform="translate(-258 -268) translate(258 268)"/>
                <path fill="#F39494" d="M263.826 314.49l37.71 7.824c.204.03.468-.012.66-.042l11.598-2.112c1.236-.204 2.436-.198 3.666 0l8.79 5.364c1.044.516.882 1.41.882 1.41-.084.678-.606 1.08-1.224.984l-7.944-3.9 8.016 4.008c.636.228 1.014.9.798 1.608-.228.636-.834 1.002-1.524.852l-7.986-2.214 7.494 2.118c.63.162 1.062.762.972 1.446-.084.678-.672 1.176-1.356 1.092l-7.476-.786 5.85.654c.54.048.966.576.918 1.122-.048.54-.498 1.014-1.11.984l-22.752-.798-36.564-4.248.582-15.366z" transform="translate(-258 -268) translate(258 268)"/>
                <path fill="#000" d="M323.737 333.877c-.048.54-.498 1.014-1.11.984l-22.752-.798-36.654-4.152-10.338-1.17s-.882-.066-1.17-.114c-3.504-.594-7.626-1.386-9.834-9.258l-5.496-30.978 5.856-.006 3.576 23.256c1.14 7.416 3.09 13.206 10.524 14.244l45.024 6.264 22.374 1.728zM308.58 320.705l5.473-2.166c1.17-.462 3.588.246 3.588.246l.39-2.052-3.258-.186c-.606-.036-1.2.156-1.668.534l-4.524 3.624z" opacity=".15" transform="translate(-258 -268) translate(258 268)"/>
                <path fill="#FFF" d="M280.746 230.167c.054-.6-.78-1.164-1.854-1.254-1.074-.09-1.992.318-2.04.924-.054.6.78 1.164 1.854 1.254 1.074.09 1.986-.324 2.04-.924z" transform="translate(-258 -268) translate(258 268)"/>
                <path fill="#858990" d="M499.53 239.615h-7.158c-.54 0-1.038-.27-1.326-.726-2.232-3.528-4.14-12.888-4.284-22.242-.012-.624.498-1.134 1.122-1.134h16.2c.624 0 1.134.51 1.122 1.134-.186 8.844-2.148 18.318-4.302 22.164-.282.504-.804.804-1.374.804z" transform="translate(-258 -268) translate(258 268)"/>
                <g fill="#000" opacity=".15">
                    <path d="M5.394 23.49C4.404 19.96 3.558 10.6 3.498 1.246 3.492.623 3.72.113 3.996.113H1.29c-.486 0-.882.51-.876 1.134.114 9.354 1.596 18.714 3.33 22.242.222.456.612.726 1.032.726h1.206c-.24 0-.462-.27-.588-.726z" transform="translate(-258 -268) translate(258 268) translate(488.4 215.4)"/>
                </g>
                <path fill="#858990" d="M502.362 233.76c-.042 0-.09-.005-.132-.011-.474-.072-.798-.516-.726-.99.21-1.374 1.74-3.264 4.218-6.222 1.134-1.356 2.31-2.76 3.24-4.056.966-1.35.81-2.802.384-3.636-.312-.606-.792-.984-1.26-.984-2.37 0-3.03 1.782-3.396 3.702-.09.468-.534.786-1.008.69-.468-.09-.78-.54-.69-1.008.234-1.266.96-5.118 5.094-5.118 1.134 0 2.184.72 2.802 1.926.684 1.332.906 3.456-.516 5.436-.966 1.344-2.16 2.772-3.318 4.158-1.728 2.064-3.69 4.404-3.834 5.376-.072.432-.438.738-.858.738zM480.882 192.156c-5.538.18-10.86 1.596-15.21 2.214-1.74.246-2.797 2.052-2.16 3.696l.773 1.998c1.098 2.844 1.26 5.964.462 8.904l-6.804 25.164c-.75 2.766 1.332 5.484 4.2 5.484h18.715c2.862 0 4.944-2.718 4.194-5.484l-6.762-25.008c-.822-3.036-.618-6.258.57-9.174l2.754-6.726c.204-.516-.18-1.086-.732-1.068z" transform="translate(-258 -268) translate(258 268)"/>
                <path fill="#000" d="M485.046 234.132l-6.762-25.008c-.822-3.036-.618-6.258.57-9.174l2.754-6.726c.21-.51-.174-1.08-.726-1.062-.792.024-1.578.084-2.364.156.264.198.402.564.264.912l-2.628 6.726c-1.134 2.91-1.326 6.132-.546 9.174l6.45 25.008c.714 2.766-1.272 5.484-4.002 5.484h2.79c2.868-.006 4.95-2.724 4.2-5.49z" opacity=".15" transform="translate(-258 -268) translate(258 268)"/>
                <path fill="#858990" d="M461.034 223.95c-.174 0-.348-.036-.516-.114-.636-.288-.912-1.032-.63-1.668.72-1.584-1.146-4.836-2.94-7.98-3.126-5.466-7.014-12.264-1.506-17.004 3.792-3.258 8.454-.258 10.614 2.022.48.504.456 1.302-.048 1.782s-1.302.456-1.782-.048c-.168-.18-4.2-4.38-7.146-1.848-3.648 3.144-1.452 7.722 2.052 13.848 2.304 4.032 4.296 7.518 3.048 10.272-.21.462-.666.738-1.146.738z" transform="translate(-258 -268) translate(258 268)"/>
                <path fill="#203B95" d="M236.388 288.39s4.752 19.656 1.014 34.374c-3.738 14.718-6.6 17.106-3.516 19.47 3.084 2.364 15.672-7.578 28.62-6.666l-2.106-3.21-17.664-5.778-6.348-38.19z" transform="translate(-258 -268) translate(258 268)"/>
                <path fill="#000" d="M251.07 328.483l13.062 1.464.858 5.658s-6.486-.18-11.268.78c-6.186 1.242-17.76 7.26-19.218 6.138-1.458-1.122-2.274-1.2-1.554-4.926.714-3.726 5.706-14.37 4.632-30.906-1.074-16.53-1.2-18.306-1.2-18.306l5.748 31.74c.81 4.458 4.446 7.854 8.94 8.358z" opacity=".15" transform="translate(-258 -268) translate(258 268)"/>
                <path fill="#203B95" d="M295.213 149.388h57.534c3.876 0 7.02 3.138 7.02 7.02v16.848c0 3.876-3.138 7.02-7.02 7.02h-49.614c-.252 0-.498.006-.75.018-4.074.21-7.818 2.31-10.35 5.508l-2.136 2.706h-4.812l3.12-15.252v-16.854c-.012-3.876 3.132-7.014 7.008-7.014z" transform="translate(-258 -268) translate(258 268)"/>
                <path fill="#FFF" d="M295.213 149.388h57.534c3.876 0 7.02 3.138 7.02 7.02v16.848c0 3.876-3.138 7.02-7.02 7.02h-49.614c-.252 0-.498.006-.75.018-4.074.21-7.818 2.31-10.35 5.508l-2.136 2.706h-4.812l3.12-15.252v-16.854c-.012-3.876 3.132-7.014 7.008-7.014z" opacity=".3" transform="translate(-258 -268) translate(258 268)"/>
                <path fill="#203B95" d="M292.433 149.388h57.534c3.876 0 7.02 3.138 7.02 7.02v16.848c0 3.876-3.138 7.02-7.02 7.02h-49.614c-3.504 0-6.888 1.26-9.54 3.558l-5.394 4.674v-32.106c0-3.876 3.144-7.014 7.014-7.014z" transform="translate(-258 -268) translate(258 268)"/>
                <path fill="#FFF" d="M292.433 149.388h57.534c3.876 0 7.02 3.138 7.02 7.02v16.848c0 3.876-3.138 7.02-7.02 7.02h-49.614c-3.504 0-6.888 1.26-9.54 3.558l-5.394 4.674v-32.106c0-3.876 3.144-7.014 7.014-7.014z" opacity=".6" transform="translate(-258 -268) translate(258 268)"/>
                <path fill="#FFF" d="M305.063 168.551c2.148 0 3.894-1.74 3.894-3.894 0-2.148-1.746-3.894-3.894-3.894s-3.894 1.746-3.894 3.894 1.74 3.894 3.894 3.894zM321.204 168.551c2.148 0 3.894-1.74 3.894-3.894 0-2.148-1.746-3.894-3.894-3.894-2.154 0-3.894 1.746-3.894 3.894s1.746 3.894 3.894 3.894zM337.338 168.551c2.154 0 3.894-1.74 3.894-3.894 0-2.148-1.74-3.894-3.894-3.894-2.148 0-3.894 1.746-3.894 3.894s1.746 3.894 3.894 3.894z" transform="translate(-258 -268) translate(258 268)"/>
                <path fill="#203B95" d="M360.51 203.094h63.45c3.167 0 5.735 2.568 5.735 5.736v40.41c0 3.168-2.568 5.736-5.736 5.736h-56.988c-.204 0-.408.006-.612.012-3.33.174-6.39 1.89-8.46 4.506l-1.746 2.208h-3.93l2.544-12.462v-40.41c.006-3.174 2.574-5.736 5.742-5.736z" transform="translate(-258 -268) translate(258 268)"/>
                <path fill="#FFF" d="M360.51 203.094h63.45c3.167 0 5.735 2.568 5.735 5.736v40.41c0 3.168-2.568 5.736-5.736 5.736h-56.988c-.204 0-.408.006-.612.012-3.33.174-6.39 1.89-8.46 4.506l-1.746 2.208h-3.93l2.544-12.462v-40.41c.006-3.174 2.574-5.736 5.742-5.736z" opacity=".3" transform="translate(-258 -268) translate(258 268)"/>
                <path fill="#203B95" d="M357.455 203.094h63.45c3.168 0 5.736 2.568 5.736 5.736v40.41c0 3.168-2.568 5.736-5.736 5.736h-56.988c-2.862 0-5.628 1.032-7.794 2.91l-4.404 3.816V208.83c.006-3.174 2.568-5.736 5.736-5.736z" transform="translate(-258 -268) translate(258 268)"/>
                <path fill="#FFF" d="M357.455 203.094h63.45c3.168 0 5.736 2.568 5.736 5.736v40.41c0 3.168-2.568 5.736-5.736 5.736h-56.988c-2.862 0-5.628 1.032-7.794 2.91l-4.404 3.816V208.83c.006-3.174 2.568-5.736 5.736-5.736z" opacity=".6" transform="translate(-258 -268) translate(258 268)"/>
                <path fill="#203B95" d="M409.068 233.113H363.69c-1.428 0-2.586-1.158-2.586-2.586v-2.064c0-1.428 1.158-2.586 2.586-2.586h45.378c1.428 0 2.586 1.158 2.586 2.586v2.064c0 1.428-1.158 2.586-2.586 2.586zM416.55 245.113h-45.377c-1.428 0-2.586-1.158-2.586-2.586v-2.064c0-1.428 1.158-2.586 2.586-2.586h45.378c1.428 0 2.586 1.158 2.586 2.586v2.064c-.006 1.422-1.164 2.586-2.586 2.586z" transform="translate(-258 -268) translate(258 268)"/>
                <path fill="#203B95" d="M386.688 239.765L372.558 239.765 372.558 240.797 386.688 240.797zM380.418 242.25L372.558 242.25 372.558 243.282 380.418 243.282zM416.55 220.963h-45.377c-1.428 0-2.586-1.158-2.586-2.586v-2.064c0-1.428 1.158-2.586 2.586-2.586h45.378c1.428 0 2.586 1.158 2.586 2.586v2.064c-.006 1.434-1.164 2.586-2.586 2.586zM409.068 233.113H363.69c-1.428 0-2.586-1.158-2.586-2.586v-2.064c0-1.428 1.158-2.586 2.586-2.586h45.378c1.428 0 2.586 1.158 2.586 2.586v2.064c0 1.428-1.158 2.586-2.586 2.586z" transform="translate(-258 -268) translate(258 268)"/>
                <path fill="#FFF" d="M416.55 245.113h-45.377c-1.428 0-2.586-1.158-2.586-2.586v-2.064c0-1.428 1.158-2.586 2.586-2.586h45.378c1.428 0 2.586 1.158 2.586 2.586v2.064c-.006 1.422-1.164 2.586-2.586 2.586zM416.55 220.963h-45.377c-1.428 0-2.586-1.158-2.586-2.586v-2.064c0-1.428 1.158-2.586 2.586-2.586h45.378c1.428 0 2.586 1.158 2.586 2.586v2.064c-.006 1.434-1.164 2.586-2.586 2.586z" transform="translate(-258 -268) translate(258 268)"/>
                <path fill="#203B95" d="M373.074 215.621h13.098c.288 0 .516.234.516.516 0 .288-.234.516-.516.516h-13.098c-.288 0-.516-.234-.516-.516 0-.288.234-.516.516-.516zM373.074 218.106h6.822c.288 0 .516.234.516.516 0 .288-.234.516-.516.516h-6.822c-.288 0-.516-.234-.516-.516 0-.288.234-.516.516-.516z" transform="translate(-258 -268) translate(258 268)"/>
                <path fill="#FFF" d="M365.478 227.737h13.098c.288 0 .516.234.516.516 0 .288-.234.516-.516.516h-13.098c-.288 0-.516-.234-.516-.516 0-.282.234-.516.516-.516zM365.478 230.22h6.822c.288 0 .515.233.515.515 0 .288-.233.516-.515.516h-6.822c-.288 0-.516-.234-.516-.516 0-.282.234-.516.516-.516z" transform="translate(-258 -268) translate(258 268)"/>
                <path fill="#203B95" d="M373.212 239.737h37.344c.288 0 .516.234.516.516 0 .288-.234.516-.516.516h-37.344c-.288 0-.516-.234-.516-.516 0-.288.228-.516.516-.516zM373.212 242.213h20.31c.288 0 .516.234.516.516 0 .288-.234.516-.516.516h-20.31c-.288 0-.516-.234-.516-.516 0-.282.228-.516.516-.516zM400.193 79.74h56.598c2.25 0 4.074 1.824 4.074 4.074v77.106c0 2.25-1.824 4.074-4.074 4.074h-56.598c-2.25 0-4.074-1.824-4.074-4.074V83.814c0-2.25 1.824-4.074 4.074-4.074z" transform="translate(-258 -268) translate(258 268)"/>
                <path fill="#FFF" d="M400.193 79.74h56.598c2.25 0 4.074 1.824 4.074 4.074v77.106c0 2.25-1.824 4.074-4.074 4.074h-56.598c-2.25 0-4.074-1.824-4.074-4.074V83.814c0-2.25 1.824-4.074 4.074-4.074z" opacity=".3" transform="translate(-258 -268) translate(258 268)"/>
                <path fill="#203B95" d="M396.69 79.74h56.597c2.25 0 4.074 1.824 4.074 4.074v77.106c0 2.25-1.824 4.074-4.074 4.074H396.69c-2.25 0-4.074-1.824-4.074-4.074V83.814c0-2.25 1.824-4.074 4.074-4.074z" transform="translate(-258 -268) translate(258 268)"/>
                <path fill="#FFF" d="M396.69 79.74h56.597c2.25 0 4.074 1.824 4.074 4.074v77.106c0 2.25-1.824 4.074-4.074 4.074H396.69c-2.25 0-4.074-1.824-4.074-4.074V83.814c0-2.25 1.824-4.074 4.074-4.074z" opacity=".6" transform="translate(-258 -268) translate(258 268)"/>
                <path fill="#203B95" d="M424.991 154.452c-5.262 0-9.522-4.266-9.522-9.522 0-5.262 4.266-9.522 9.522-9.522 5.262 0 9.522 4.266 9.522 9.522 0 5.262-4.266 9.522-9.522 9.522z" transform="translate(-258 -268) translate(258 268)"/>
                <path fill="#FFF" d="M423 149.31l-3.636-3.635c-.186-.186-.186-.504 0-.714l.954-.954c.186-.186.503-.186.713 0l2.335 2.334 5.622-5.652c.186-.186.504-.186.714 0l.954.954c.186.186.186.504 0 .714l-6.948 6.948c-.204.21-.522.21-.708.006zM445.398 95.693H404.58c-1.212 0-2.19-.984-2.19-2.19 0-1.212.984-2.19 2.19-2.19h40.812c1.212 0 2.19.984 2.19 2.19.006 1.206-.972 2.19-2.184 2.19z" transform="translate(-258 -268) translate(258 268)"/>
                <path fill="#203B95" d="M446.25 104.095h-42.528c-.738 0-1.332-.594-1.332-1.332 0-.738.594-1.332 1.332-1.332h42.528c.738 0 1.332.594 1.332 1.332 0 .738-.594 1.332-1.332 1.332zM446.25 110.347h-42.528c-.738 0-1.332-.594-1.332-1.332 0-.738.594-1.332 1.332-1.332h42.528c.738 0 1.332.6 1.332 1.332 0 .732-.594 1.332-1.332 1.332zM446.25 116.593h-42.528c-.738 0-1.332-.594-1.332-1.332 0-.738.594-1.332 1.332-1.332h42.528c.738 0 1.332.594 1.332 1.332 0 .738-.594 1.332-1.332 1.332zM446.25 122.845h-42.528c-.738 0-1.332-.6-1.332-1.332 0-.738.594-1.332 1.332-1.332h42.528c.738 0 1.332.594 1.332 1.332 0 .732-.594 1.332-1.332 1.332z" transform="translate(-258 -268) translate(258 268)"/>
                <path fill="#FFF" d="M446.25 104.095h-42.528c-.738 0-1.332-.594-1.332-1.332 0-.738.594-1.332 1.332-1.332h42.528c.738 0 1.332.594 1.332 1.332 0 .738-.594 1.332-1.332 1.332zM446.25 110.347h-42.528c-.738 0-1.332-.594-1.332-1.332 0-.738.594-1.332 1.332-1.332h42.528c.738 0 1.332.6 1.332 1.332 0 .732-.594 1.332-1.332 1.332zM446.25 116.593h-42.528c-.738 0-1.332-.594-1.332-1.332 0-.738.594-1.332 1.332-1.332h42.528c.738 0 1.332.594 1.332 1.332 0 .738-.594 1.332-1.332 1.332zM446.25 122.845h-42.528c-.738 0-1.332-.6-1.332-1.332 0-.738.594-1.332 1.332-1.332h42.528c.738 0 1.332.594 1.332 1.332 0 .732-.594 1.332-1.332 1.332z" opacity=".2" transform="translate(-258 -268) translate(258 268)"/>
                <path fill="#203B95" d="M371.358 92.591v31.884c0 1.698-1.368 3.078-3.072 3.078h-49.47c-1.698 0-3.072-1.38-3.072-3.078V92.591c0-1.014.48-1.914 1.242-2.466.51-.384 1.134-.606 1.824-.606h49.464c.762 0 1.458.276 1.986.744.678.552 1.098 1.392 1.098 2.328z" transform="translate(-258 -268) translate(258 268)"/>
                <path fill="#B1B5BA" d="M371.358 92.591v31.884c0 1.698-1.368 3.078-3.072 3.078h-49.47c-1.698 0-3.072-1.38-3.072-3.078V92.591c0-1.014.48-1.914 1.242-2.466.51-.384 1.134-.606 1.824-.606h49.464c.762 0 1.458.276 1.986.744.678.552 1.098 1.392 1.098 2.328z" transform="translate(-258 -268) translate(258 268)"/>
                <path fill="#FFF" d="M368.766 92.591v31.884c0 1.698-1.368 3.078-3.072 3.078h-49.47c-1.698 0-3.072-1.38-3.072-3.078V92.591c0-1.014.48-1.914 1.242-2.466.51-.384 1.134-.606 1.824-.606h49.47c.762 0 1.458.276 1.986.744.672.552 1.092 1.392 1.092 2.328z" transform="translate(-258 -268) translate(258 268)"/>
                <path fill="#203B95" d="M367.68 90.257l-24.966 17.076c-1.056.72-2.448.714-3.498-.012l-24.81-17.202c.51-.384 1.134-.606 1.824-.606h49.47c.762.012 1.452.276 1.98.744z" transform="translate(-258 -268) translate(258 268)"/>
                <path fill="#FFF" d="M367.68 90.257l-24.966 17.076c-1.056.72-2.448.714-3.498-.012l-24.81-17.202c.51-.384 1.134-.606 1.824-.606h49.47c.762.012 1.452.276 1.98.744z" opacity=".6" transform="translate(-258 -268) translate(258 268)"/>
                <path fill="#203B95" d="M313.157 99.367c5.436 0 9.84-4.404 9.84-9.84s-4.404-9.84-9.84-9.84-9.84 4.404-9.84 9.84 4.404 9.84 9.84 9.84z" transform="translate(-258 -268) translate(258 268)"/>
                <path fill="#FFF" d="M311.916 90.439h.864v1.182h-.864v1.662h-1.53V91.62h-3.12l-.066-.918 3.174-5.07h1.542v4.806zm-3.288 0h1.758v-2.754l-.03-.012-.12.216-1.608 2.55zM313.782 89.893l.444-4.26h4.266v1.23h-3.006l-.21 1.764c.138-.102.312-.192.51-.258s.42-.102.66-.108c.732-.012 1.302.21 1.71.666.402.456.606 1.092.606 1.902 0 .732-.222 1.344-.666 1.83-.444.486-1.08.732-1.914.732-.702 0-1.308-.192-1.806-.576-.498-.384-.744-.912-.726-1.584l.012-.024 1.476-.072c0 .342.096.606.288.798.192.192.444.288.756.288.354 0 .618-.126.792-.378.168-.252.252-.582.252-.996 0-.438-.09-.792-.27-1.056-.18-.264-.45-.396-.81-.396-.294 0-.522.054-.672.162-.156.108-.27.258-.336.444l-1.356-.108zM500.724 213.023c.198 0 .33-.132.33-.33 0-2.514 2.052-4.632 4.632-4.632h2.25c1.986 0 3.576-1.59 3.576-3.576s-1.59-3.576-3.576-3.576h-12.708c-1.59 0-2.91-1.326-2.91-2.91 0-1.59 1.326-2.91 2.91-2.91h3.048c2.052 0 3.642-1.656 3.642-3.642 0-.198-.132-.33-.33-.33s-.33.132-.33.33c0 1.656-1.326 2.976-2.976 2.976h-3.048c-1.986 0-3.576 1.59-3.576 3.576s1.59 3.576 3.576 3.576h12.708c1.59 0 2.91 1.326 2.91 2.91 0 1.59-1.326 2.91-2.91 2.91h-2.25c-2.91 0-5.298 2.382-5.298 5.298 0 .198.132.33.33.33zM493.38 215.075c.198 0 .33-.132.33-.33v-.792c0-.594.462-1.062 1.062-1.062.99 0 1.722-.792 1.722-1.722v-1.392c0-.99-.792-1.722-1.722-1.722h-2.118c-2.844 0-5.232-2.316-5.232-5.232v-2.58c0-.198-.132-.33-.33-.33s-.33.132-.33.33v2.514c0 3.246 2.646 5.892 5.892 5.892h2.118c.594 0 1.062.462 1.062 1.062v1.392c0 .594-.462 1.062-1.062 1.062-.99 0-1.722.792-1.722 1.722v.792c-.006.198.132.396.33.396zM293.748 287.748L292.446 289.47 293.616 289.344 291.99 291.294 295.44 290.742 294.204 289.374 295.212 289.308z" transform="translate(-258 -268) translate(258 268)"/>
                <path fill="#21252B" d="M293.519 291.048L293.561 292.26 294.125 292.128 294.203 290.94z" transform="translate(-258 -268) translate(258 268)"/>
                <path fill="#FFF" d="M238.325 333.348L237.017 335.07 238.187 334.944 236.567 336.894 240.017 336.342 238.781 334.974 239.789 334.908z" transform="translate(-258 -268) translate(258 268)"/>
                <path fill="#21252B" d="M238.098 336.648L238.14 337.86 238.704 337.728 238.782 336.54z" transform="translate(-258 -268) translate(258 268)"/>
                <path fill="#FFF" d="M297 300.815L295.698 302.537 296.868 302.411 295.242 304.361 298.692 303.809 297.456 302.441 298.464 302.375z" transform="translate(-258 -268) translate(258 268)"/>
                <path fill="#21252B" d="M296.771 304.116L296.813 305.328 297.377 305.196 297.455 304.008z" transform="translate(-258 -268) translate(258 268)"/>
                <path fill="#FFF" d="M298.721 256.967L297.419 258.689 298.589 258.563 296.963 260.513 300.413 259.961 299.177 258.593 300.185 258.527z" transform="translate(-258 -268) translate(258 268)"/>
                <path fill="#21252B" d="M298.494 260.268L298.536 261.48 299.1 261.348 299.178 260.16z" transform="translate(-258 -268) translate(258 268)"/>
                <path fill="#FFF" d="M309.341 252.229l-1.068 1.41 1.17-.126-1.626 1.95 2.85-.456s-.342-.93-.612-1.464c-.258-.522-.24-.516-.714-1.314z" transform="translate(-258 -268) translate(258 268)"/>
                <path fill="#21252B" d="M309.354 255.216L309.396 256.428 309.96 256.296 310.038 255.108z" transform="translate(-258 -268) translate(258 268)"/>
                <path fill="#FFF" d="M243.221 249.66L241.919 251.382 243.089 251.256 241.463 253.206 244.913 252.654 243.677 251.286 244.685 251.22z" transform="translate(-258 -268) translate(258 268)"/>
                <path fill="#21252B" d="M242.994 252.96L243.036 254.172 243.6 254.04 243.678 252.852z" transform="translate(-258 -268) translate(258 268)"/>
                <path fill="#FFF" d="M261.552 273.588L260.25 275.31 261.42 275.185 259.794 277.135 263.244 276.582 262.008 275.214 263.016 275.149z" transform="translate(-258 -268) translate(258 268)"/>
                <path fill="#21252B" d="M261.323 276.889L261.365 278.101 261.929 277.969 262.007 276.781z" transform="translate(-258 -268) translate(258 268)"/>
                <path fill="#FFF" d="M284.689 306.192L283.387 307.914 284.557 307.788 282.931 309.738 286.381 309.186 285.145 307.818 286.153 307.752z" transform="translate(-258 -268) translate(258 268)"/>
                <path fill="#21252B" d="M284.46 309.493L284.502 310.705 285.066 310.573 285.144 309.385z" transform="translate(-258 -268) translate(258 268)"/>
                <path fill="#FFF" d="M271.031 294.408L269.729 296.13 270.899 296.004 269.273 297.954 272.723 297.402 271.487 296.034 272.495 295.968z" transform="translate(-258 -268) translate(258 268)"/>
                <path fill="#21252B" d="M270.804 297.708L270.846 298.92 271.41 298.788 271.488 297.606z" transform="translate(-258 -268) translate(258 268)"/>
                <path fill="#FFF" d="M247.873 327.63l-1.194 1.435 3.45-.552-.162-.18c-.996-.252-2.094-.702-2.094-.702z" transform="translate(-258 -268) translate(258 268)"/>
                <path fill="#21252B" d="M248.208 328.818L248.25 330.03 248.814 329.898 248.892 328.71z" transform="translate(-258 -268) translate(258 268)"/>
                <path fill="#FFF" d="M299.412 272.652L298.11 274.374 299.28 274.248 297.654 276.198 301.104 275.646 299.868 274.278 300.876 274.212z" transform="translate(-258 -268) translate(258 268)"/>
                <path fill="#21252B" d="M299.185 275.952L299.227 277.164 299.791 277.032 299.869 275.844z" transform="translate(-258 -268) translate(258 268)"/>
                <path fill="#FFF" d="M239.771 279.085L238.469 280.807 239.639 280.681 238.013 282.631 241.463 282.079 240.227 280.711 241.235 280.645z" transform="translate(-258 -268) translate(258 268)"/>
                <path fill="#21252B" d="M239.544 282.385L239.586 283.597 240.15 283.465 240.228 282.277z" transform="translate(-258 -268) translate(258 268)"/>
                <path fill="#FFF" d="M280.093 280.05L278.791 281.772 279.961 281.646 278.335 283.596 281.785 283.044 280.549 281.676 281.557 281.61z" transform="translate(-258 -268) translate(258 268)"/>
                <path fill="#21252B" d="M279.863 283.35L279.905 284.562 280.469 284.43 280.547 283.242z" transform="translate(-258 -268) translate(258 268)"/>
                <path fill="#FFF" d="M246.708 264.767L245.406 266.489 246.576 266.363 244.95 268.313 248.4 267.761 247.164 266.393 248.172 266.327z" transform="translate(-258 -268) translate(258 268)"/>
                <path fill="#21252B" d="M246.481 268.068L246.523 269.28 247.087 269.148 247.165 267.96z" transform="translate(-258 -268) translate(258 268)"/>
                <path fill="#000" d="M324.894 330.384c.192-.036.3-.186.348-.324.03-.204-.072-.45-.348-.474l-6.666-1.98c-.204-.03-.45.072-.474.348-.03.204.072.45.348.474l6.672 1.986c.06-.012.06-.012.12-.03zM325.668 327.768c.198 0 .33-.132.396-.264.066-.198 0-.456-.264-.528l-6.246-3.054c-.198-.066-.456 0-.528.264-.066.198 0 .456.264.528l6.252 3.06c.06-.006.06-.006.126-.006zM322.878 332.718c.192-.036.3-.186.33-.39.03-.204-.138-.444-.348-.474l-5.85-.654c-.204-.03-.444.138-.474.348-.03.21.139.444.349.474l5.85.654c.084.06.083.06.143.042zM254.088 245.335l-2.766.036c-11.802.168-20.646 10.872-18.582 22.494l3.648 20.526 5.85-.006-4.362-24.27c-1.518-8.454 4.08-16.548 12.528-18.102l3.684-.678zM301.279 296.177c3.822-7.11 8.946-9.27 8.136-17.88-.87-7.812-6.348-11.208-7.596-23.58.564 5.598 3.252 9.738 5.916 14.082 4.578 7.476 3.9 15.624-.03 23.46-1.104 2.208-3.738 9.756-3.9 12.408l-2.526-8.49zM342.912 407.765c-3.84-24.654-3.054-42.522-2.67-47.928H261c-12.45-.204-15.15-17.664-3.366-21.702l7.368-2.526s-5.838-.204-8.106.192c-3.24.564-12.228 3.168-17.538 5.694-3.528 1.68-4.848 1.032-4.848 1.032l-.006 9.984c0 9.444 7.656 17.094 17.094 17.094h78.96c-.384 5.406-1.17 23.274 2.67 47.928 2.886 18.54 3.126 41.034 3.126 41.034l10.446.126c0-.006-1.002-32.388-3.888-50.928z" opacity=".15" transform="translate(-258 -268) translate(258 268)"/>
            </g>
        </g>
    </g>
</svg>
