
        <svg xmlns="http://www.w3.org/2000/svg" xmlns:xlink="http://www.w3.org/1999/xlink" version="1.1" width="3250" height="1451.9464888163657" viewBox="0 0 3250 1451.9464888163657">
			
			<g transform="scale(12.5) translate(10, 10)">
				<defs id="SvgjsDefs2783"/><g id="SvgjsG2784" featureKey="nameGroupContainer" transform="matrix(1,0,0,1,0,0)" fill="#000"><rect xmlns="http://www.w3.org/2000/svg" width="240" height="73" rx="10" ry="10"/></g><g id="SvgjsG2785" featureKey="nameFeature-0" transform="matrix(1.2156871801820879,0,0,1.2156871801820879,17.42274215776869,3.74703004279187)" fill="#ffffff"><path d="M14.96 32.84 c1.8 0.56 3.8 -0.8 5.08 0.72 c0 0 -0.96 7 -8.68 7 c-5.52 0 -9.24 -4.2 -9.24 -10 c0 -5.72 3.72 -9.76 9.24 -9.76 c4.36 0 7.8 2.56 8.52 6.48 c0 0 -5.16 1.16 -7.04 2.08 l2.2 -4.36 c-0.12 -2 -1.88 -2.8 -3.2 -2.8 c-3 0 -4.8 3.08 -4.8 8.4 c0 5.28 1.8 8.6 4.76 8.6 c1.32 0 3.52 -1.32 3.52 -4 c0 -0.76 0 -2 -0.92 -2.04 z M22.844 34.64 c0.04 -6.88 0.04 -16.16 -0.12 -21.04 c2.64 -0.68 2.92 0.4 4.72 0 c-0.2 6.56 -0.28 13.36 -0.04 21.04 c0.08 2.68 0.48 4 1.6 4 c0.84 0 1.36 -0.72 1.36 -1.84 c0 -0.32 0 -0.64 -0.12 -1 c0.68 0.28 1.24 -0.44 1.88 0.36 c0 2.6 -1.64 4.4 -4.24 4.4 c-2.92 0 -5.08 -1.6 -5.04 -5.92 z M32.688 36.12 c0 -4.2 4.88 -7.12 12.04 -7.56 c0 -3.24 -0.24 -6.6 -3.44 -6.6 c-2.08 0 -3.44 1.36 -3.44 3.08 c0 0.84 0 2.32 0.92 2.4 l-0.52 0.28 c-2.88 -0.2 -2.88 -2.16 -5.12 -1.84 c0.68 -2.84 3.48 -5.2 8.28 -5.2 c4.84 0 7.72 2.36 7.72 7.88 l0 11.44 l-1.72 0 c-0.24 -5.84 -2 -7.2 -2 -7.2 c-0.64 2.44 -2.64 7.76 -7.56 7.76 c-3 0 -5.16 -1.64 -5.16 -4.44 z M44.688 29.92 c-4.84 0.44 -7.28 2.72 -7.28 5.36 c0 1.8 1.12 2.68 2.44 2.68 c2.72 0 4.6 -3.64 4.84 -8.04 z M58.332 39.12 c2.36 0 3.36 -1.24 3.36 -2.48 c0 -1.84 -1.84 -3.48 -4.04 -4.64 c-2.84 -1.48 -6.68 -2.84 -6.68 -6.16 c0 -2.8 2.44 -5.16 7.12 -5.16 c3.44 0 6.48 1.32 7.48 2.2 l-2 3.88 l-0.4 -0.04 c1.48 -2.04 -1.48 -4.6 -5 -4.6 c-2.48 0 -3.16 1.16 -3.16 2.2 c0 1.92 2 3.52 4.6 4.88 c2.6 1.4 6.16 2.72 6.16 5.84 c0 3.04 -3.08 5.52 -7.76 5.52 c-3.44 0 -6.4 -1.36 -7.8 -2.68 l1.88 -4.48 l0.4 0.12 c-1.48 2.4 2.44 5.6 5.84 5.6 z M74.136 39.12 c2.36 0 3.36 -1.24 3.36 -2.48 c0 -1.84 -1.84 -3.48 -4.04 -4.64 c-2.84 -1.48 -6.68 -2.84 -6.68 -6.16 c0 -2.8 2.44 -5.16 7.12 -5.16 c3.44 0 6.48 1.32 7.48 2.2 l-2 3.88 l-0.4 -0.04 c1.48 -2.04 -1.48 -4.6 -5 -4.6 c-2.48 0 -3.16 1.16 -3.16 2.2 c0 1.92 2 3.52 4.6 4.88 c2.6 1.4 6.16 2.72 6.16 5.84 c0 3.04 -3.08 5.52 -7.76 5.52 c-3.44 0 -6.4 -1.36 -7.8 -2.68 l1.88 -4.48 l0.4 0.12 c-1.48 2.4 2.44 5.6 5.84 5.6 z M83.14 21.24 c1.56 0.16 2.68 -0.36 4.68 0 c-0.12 6.24 -0.12 12.48 0 18.76 c-2.24 0.2 -3.08 -0.24 -4.68 0 c0.12 -6.28 0.12 -12.52 0 -18.76 z M83.46 14.079999999999998 c3 -1 3.28 0.72 4.08 0 l0 3.32 c-2.68 0.68 -3.4 -0.56 -4.08 0 l0 -3.32 z M91.424 40 c0.28 -6.32 0.24 -11.56 0 -17.92 l1 -0.84 c0.28 4.68 2.76 6.04 2.76 6.04 c1 -3.48 3.12 -6.6 6.6 -6.6 c2 0 4.4 1.12 5.4 4.48 c1.16 -3.04 3.24 -4.48 6.12 -4.48 c3.56 0 5.96 2.4 5.96 8.24 s0.08 7.32 0.08 11.08 c-1.96 -0.28 -2.24 0.04 -4.72 0 c0.12 -3.96 0.08 -7.88 -0.04 -11.48 c-0.08 -3.52 -0.6 -5.48 -2.8 -5.48 c-2.36 0 -4.04 2.68 -4.12 7.04 c0 3.32 0.08 6.52 0.08 9.92 c-1.76 -0.36 -2.32 0.08 -4.72 0 c0.12 -3.96 0.08 -7.88 -0.04 -11.48 c-0.08 -3.52 -0.92 -5.48 -3.04 -5.48 c-2.24 0 -3.84 2.76 -3.84 7.24 c0 3 0.04 6.36 0.04 9.72 c-1.68 -0.32 -2.08 0.12 -4.72 0 z M122.78800000000001 21.24 c1.56 0.16 2.68 -0.36 4.68 0 c-0.12 6.24 -0.12 12.48 0 18.76 c-2.24 0.2 -3.08 -0.24 -4.68 0 c0.12 -6.28 0.12 -12.52 0 -18.76 z M123.108 14.079999999999998 c3 -1 3.28 0.72 4.08 0 l0 3.32 c-2.68 0.68 -3.4 -0.56 -4.08 0 l0 -3.32 z M146.71200000000002 40 c-4.72 -0.2 -11.76 -0.24 -16.76 -0.04 l0.64 -1.56 c3.88 -5.28 7.04 -10 9.92 -15.52 c-3.4 0.28 -6.6 0.52 -9.84 1.76 c0.76 -1.52 -0.56 -1.92 0.2 -3.4 c4.96 0.2 10.92 0.24 15.68 0 l-0.64 1.68 c-4.72 5.4 -8.36 11.6 -10.24 15.4 c3.6 -0.28 7.6 -0.36 11.04 -1.88 c0.88 1.64 -0.48 2.04 0 3.56 z M164.476 34.32 c0.96 0.4 2.16 0.36 2.16 0.36 c-0.68 3.68 -3.76 5.88 -8.08 5.88 c-5.96 0 -9.68 -4.2 -9.68 -10.12 c0 -5.72 3.68 -9.72 9.32 -9.72 c5.16 0 8.44 3.4 8.28 9.44 l-12.64 1.76 c0.12 4.4 1.4 7.28 4.76 7.28 c1.64 0 3.92 -0.72 3.92 -3.44 c0 -0.52 0.04 -1.56 -0.8 -1.48 l0.56 -0.32 s1.28 -0.04 2.2 0.36 z M153.796 31.16 l0 0 l7.84 -2.16 c0.16 -1.04 0.24 -1.84 0.24 -3.04 c0.04 -2.72 -1.24 -4.28 -3.48 -3.88 c-2.52 0.48 -4.44 4.48 -4.6 9.08 z"/></g>
			</g>
		</svg>
	