<svg xmlns="http://www.w3.org/2000/svg" width="151" height="120" viewBox="0 0 151 120">
    <g fill="none" fill-rule="evenodd">
        <g>
            <g>
                <g>
                    <g>
                        <path fill="#DEEDF6" d="M71.4 4.2c2.32 0 4.2 1.88 4.2 4.2 0 2.32-1.88 4.2-4.2 4.2h38.4c2.32 0 4.2 1.88 4.2 4.2 0 2.32-1.88 4.2-4.2 4.2H123c2.32 0 4.2 1.88 4.2 4.2 0 2.32-1.88 4.2-4.2 4.2h-11.4c-2.32 0-4.2 1.88-4.2 4.2 0 2.32 1.88 4.2 4.2 4.2h3.6c2.32 0 4.2 1.88 4.2 4.2 0 2.32-1.88 4.2-4.2 4.2H27.6c-2.32 0-4.2-1.88-4.2-4.2 0-2.32 1.88-4.2 4.2-4.2H4.2c-2.32 0-4.2-1.88-4.2-4.2 0-2.32 1.88-4.2 4.2-4.2h24c2.32 0 4.2-1.88 4.2-4.2 0-2.32-1.88-4.2-4.2-4.2h-15C10.88 21 9 19.12 9 16.8c0-2.32 1.88-4.2 4.2-4.2h24c-2.32 0-4.2-1.88-4.2-4.2 0-2.32 1.88-4.2 4.2-4.2h34.2zm54 33.6c2.32 0 4.2 1.88 4.2 4.2 0 2.32-1.88 4.2-4.2 4.2-2.32 0-4.2-1.88-4.2-4.2 0-2.32 1.88-4.2 4.2-4.2z" transform="translate(-884 -692) translate(851 692) translate(33.5) translate(10.2 34.2)"/>
                        <path fill="#FFF" stroke="#B7D6EB" stroke-linecap="round" stroke-width="1.5" d="M45 49.8c-7.29 0-13.2-5.776-13.2-12.9C31.8 29.776 37.71 24 45 24c.31 0 .618.01.922.031-.212-1.178-.322-2.392-.322-3.631C45.6 9.133 54.733 0 66 0c8.995 0 16.63 5.821 19.343 13.902.643-.068 1.296-.102 1.957-.102 10.107 0 18.3 8.059 18.3 18 0 9.444-7.395 17.236-16.8 17.987v.013H54.905m-2.707 0h-4.18" transform="translate(-884 -692) translate(851 692) translate(33.5) translate(10.2 34.2)"/>
                        <path stroke="#A2CAE5" stroke-linecap="round" stroke-width="1.5" d="M72 7.2c3.905 1.034 6.989 4.088 8.064 7.976" transform="translate(-884 -692) translate(851 692) translate(33.5) translate(10.2 34.2)"/>
                        <path stroke="#B7D6EB" stroke-linecap="round" stroke-width="1.5" d="M54.6 26.4c0 2.32 1.88 4.2 4.2 4.2 2.32 0 4.2-1.88 4.2-4.2M72 26.4c0 2.32 1.88 4.2 4.2 4.2 2.32 0 4.2-1.88 4.2-4.2M63 37.8L71.7 37.8" transform="translate(-884 -692) translate(851 692) translate(33.5) translate(10.2 34.2)"/>
                        <path fill="#B7D6EB" fill-rule="nonzero" d="M39.34 11.146v.912l-3.993 4.905h4.09V18H33.82v-.98l3.993-4.838h-3.686v-1.036h5.213zm-8.046-9.17v1.253l-5.492 6.745h5.624V11.4h-7.722v-1.346l5.49-6.653h-5.068V1.975h7.168z" transform="translate(-884 -692) translate(851 692) translate(33.5) translate(10.2 34.2)"/>
                    </g>
                </g>
            </g>
        </g>
    </g>
</svg>
