<svg xmlns="http://www.w3.org/2000/svg" width="658" height="497" viewBox="0 0 658 497">
    <g fill="none" fill-rule="evenodd">
        <g fill-rule="nonzero">
            <g>
                <path fill="#E4F0F8" d="M35.745 496.451L.561 241.074c-.592-4.27-.298-8.616.86-12.769 1.158-4.152 3.158-8.022 5.876-11.368l135.09-166.322c4.902-6.029 11.863-10.028 19.54-11.226L408.755.769c4.243-.665 8.578-.453 12.736.623 4.158 1.075 8.052 2.991 11.44 5.63l212.57 165.548c5.086 3.963 8.836 9.395 10.733 15.56 1.892 6.164 1.847 12.762-.135 18.9l-93.45 289.405-526.904.016z" transform="translate(-258 -266) translate(258 266)"/>
                <path fill="#CEDFE9" d="M395.098 46.9l-73.843 15.094c-1.11.227-2.139.741-2.987 1.492-.847.75-1.482 1.711-1.84 2.785l-23.852 71.497c-.358 1.074-.427 2.223-.2 3.333.226 1.11.741 2.14 1.491 2.987l49.993 56.403c.75.847 1.711 1.482 2.785 1.84 1.074.36 2.223.429 3.333.203l73.826-15.094c1.11-.227 2.139-.742 2.986-1.493.847-.75 1.482-1.711 1.842-2.784l23.85-71.497c.36-1.074.427-2.224.203-3.333-.23-1.11-.741-2.14-1.494-2.988l-49.975-56.402c-.751-.847-1.712-1.481-2.786-1.84-1.073-.359-2.223-.429-3.332-.203z" transform="translate(-258 -266) translate(258 266)"/>
                <path fill="#4D69C5" d="M357.432 127.107l-3.794 1.437-10.755 5.501c-.062.095-4.49 1.297-3.24 7.112.197.893.4 1.808.613 2.728 3.081 13.377 17.856 35.527 23.346 47.814 9.334 20.904 7.41 36.049 7.41 36.049l68.296-23.15s0-.51-.971-2.424c-1.523-2.845-3.21-5.598-5.052-8.246-6.528-9.678-13.13-40.416-13.13-40.416l-2.986-20.13c-1.869-12.607-26.618-17.445-26.618-17.445l-33.119 11.17z" transform="translate(-258 -266) translate(258 266)"/>
                <path fill="#203B95" d="M236.404 184.706h231.644c.45 0 .893.102 1.297.297.404.195.758.479 1.038.83.281.35.477.76.578 1.198.102.438.102.892 0 1.33l-32.175 141.892c-.151.66-.521 1.25-1.05 1.672-.53.421-1.186.652-1.863.652H204.229c-.449 0-.892-.102-1.296-.297-.405-.195-.76-.478-1.04-.83-.279-.35-.477-.76-.576-1.198-.1-.437-.101-.892-.002-1.329l32.198-141.893c.15-.657.517-1.243 1.041-1.665.525-.422 1.177-.654 1.85-.659z" transform="translate(-258 -266) translate(258 266)"/>
                <path fill="#FFF" d="M236.404 184.706h231.644c.45 0 .893.102 1.297.297.404.195.758.479 1.038.83.281.35.477.76.578 1.198.102.438.102.892 0 1.33l-32.175 141.892c-.151.66-.521 1.25-1.05 1.672-.53.421-1.186.652-1.863.652H204.229c-.449 0-.892-.102-1.296-.297-.405-.195-.76-.478-1.04-.83-.279-.35-.477-.76-.576-1.198-.1-.437-.101-.892-.002-1.329l32.198-141.893c.15-.657.517-1.243 1.041-1.665.525-.422 1.177-.654 1.85-.659z" opacity=".2" transform="translate(-258 -266) translate(258 266)"/>
                <path fill="#203B95" d="M231.173 184.706h231.644c.449 0 .892.102 1.296.297s.758.479 1.039.83c.28.35.477.76.578 1.198.1.438.1.892 0 1.33l-32.176 141.892c-.15.66-.521 1.25-1.05 1.672-.53.421-1.186.652-1.863.652H199.003c-.45 0-.892-.102-1.296-.297-.405-.195-.76-.478-1.04-.83-.279-.35-.477-.76-.576-1.198-.1-.437-.1-.892-.002-1.329l32.176-141.893c.15-.66.52-1.248 1.047-1.67.528-.423 1.184-.654 1.86-.654z" transform="translate(-258 -266) translate(258 266)"/>
                <path fill="#FFF" d="M231.173 184.706h231.644c.449 0 .892.102 1.296.297s.758.479 1.039.83c.28.35.477.76.578 1.198.1.438.1.892 0 1.33l-32.176 141.892c-.15.66-.521 1.25-1.05 1.672-.53.421-1.186.652-1.863.652H199.003c-.45 0-.892-.102-1.296-.297-.405-.195-.76-.478-1.04-.83-.279-.35-.477-.76-.576-1.198-.1-.437-.1-.892-.002-1.329l32.176-141.893c.15-.66.52-1.248 1.047-1.67.528-.423 1.184-.654 1.86-.654z" opacity=".7" transform="translate(-258 -266) translate(258 266)"/>
                <path fill="#203B95" d="M284.033 212.223h-45.412c-.78-.002-1.53-.313-2.082-.865-.552-.553-.863-1.302-.865-2.082l2.93-11.334c.002-.781.313-1.53.866-2.082.552-.553 1.3-.863 2.082-.865h45.411c.781.002 1.53.312 2.083.865.551.552.862 1.301.864 2.082l-2.93 11.334c-.002.78-.312 1.53-.864 2.082-.553.552-1.302.863-2.083.865zm-42.487-16.475c-.583 0-1.142.233-1.554.646-.412.412-.645.97-.647 1.554l-2.93 11.333c.002.583.234 1.142.646 1.555.413.412.972.644 1.555.646h45.417c.583-.002 1.142-.234 1.554-.646.413-.413.645-.972.646-1.555l2.93-11.333c-.001-.583-.233-1.142-.646-1.554-.412-.413-.97-.645-1.554-.646h-45.417zM347.744 212.223h-45.412c-.781-.002-1.53-.313-2.082-.865-.553-.553-.864-1.302-.865-2.082l2.93-11.334c.002-.781.313-1.53.865-2.082.552-.553 1.301-.863 2.082-.865h45.412c.78.002 1.53.312 2.082.865.552.552.863 1.301.865 2.082l-2.93 11.334c-.002.78-.313 1.53-.865 2.082-.552.552-1.301.863-2.082.865zm-42.487-16.475c-.583 0-1.142.233-1.554.646-.413.412-.645.97-.647 1.554l-2.93 11.333c.001.583.234 1.142.646 1.555.412.412.972.644 1.555.646h45.411c.583-.002 1.142-.234 1.555-.646.412-.413.644-.972.646-1.555l2.93-11.333c-.002-.583-.234-1.142-.646-1.554-.413-.413-.972-.645-1.555-.646h-45.411zM341.682 235.197h-65.508c-.607 0-1.19-.241-1.62-.67-.428-.43-.67-1.013-.67-1.62 0-.607.242-1.19.67-1.62.43-.429 1.013-.67 1.62-.67h65.508c.607 0 1.19.241 1.619.67.43.43.67 1.013.67 1.62 0 .3-.057.599-.172.877-.115.278-.284.531-.496.744-.213.213-.466.381-.744.496-.278.115-.577.174-.877.173zM303.545 252.71H274.03c-.3 0-.598-.059-.876-.174-.278-.115-.53-.284-.743-.497-.213-.212-.382-.465-.497-.743-.115-.278-.174-.575-.174-.876 0-.3.06-.598.174-.876.115-.278.284-.53.497-.743.212-.213.465-.382.743-.497.278-.115.575-.174.876-.174h29.515c.3 0 .598.06.876.174.278.115.53.284.743.497.213.212.382.465.497.743.115.278.174.575.174.876 0 .3-.058.599-.173.877-.114.279-.283.531-.496.744-.213.213-.465.382-.744.496-.278.115-.576.174-.877.173z" transform="translate(-258 -266) translate(258 266)"/>
                <path fill="#FFF" d="M341.682 235.197h-65.508c-.607 0-1.19-.241-1.62-.67-.428-.43-.67-1.013-.67-1.62 0-.607.242-1.19.67-1.62.43-.429 1.013-.67 1.62-.67h65.508c.607 0 1.19.241 1.619.67.43.43.67 1.013.67 1.62 0 .3-.057.599-.172.877-.115.278-.284.531-.496.744-.213.213-.466.381-.744.496-.278.115-.577.174-.877.173zM303.545 252.71H274.03c-.3 0-.598-.059-.876-.174-.278-.115-.53-.284-.743-.497-.213-.212-.382-.465-.497-.743-.115-.278-.174-.575-.174-.876 0-.3.06-.598.174-.876.115-.278.284-.53.497-.743.212-.213.465-.382.743-.497.278-.115.575-.174.876-.174h29.515c.3 0 .598.06.876.174.278.115.53.284.743.497.213.212.382.465.497.743.115.278.174.575.174.876 0 .3-.058.599-.173.877-.114.279-.283.531-.496.744-.213.213-.465.382-.744.496-.278.115-.576.174-.877.173z" opacity=".9" transform="translate(-258 -266) translate(258 266)"/>
                <path fill="#203B95" d="M360.885 235.197h-7.859c-.607 0-1.19-.241-1.62-.67-.429-.43-.67-1.013-.67-1.62 0-.607.241-1.19.67-1.62.43-.429 1.013-.67 1.62-.67h7.859c.607 0 1.19.241 1.62.67.429.43.67 1.013.67 1.62 0 .607-.241 1.19-.67 1.62-.43.429-1.013.67-1.62.67zM261.731 237.605h-5.933c-.254 0-.504-.056-.733-.164-.229-.108-.432-.267-.592-.463-.161-.195-.277-.424-.34-.67-.061-.246-.068-.502-.019-.75l1.19-6.007c.077-.39.287-.741.594-.993.308-.252.693-.39 1.09-.389h5.939c.254.001.504.057.733.165.23.109.432.267.592.462.161.196.277.425.34.671.061.246.068.503.019.752l-1.19 6.006c-.08.39-.29.74-.598.992-.309.251-.694.389-1.092.388z" transform="translate(-258 -266) translate(258 266)"/>
                <path fill="#FFF" d="M261.731 237.605h-5.933c-.254 0-.504-.056-.733-.164-.229-.108-.432-.267-.592-.463-.161-.195-.277-.424-.34-.67-.061-.246-.068-.502-.019-.75l1.19-6.007c.077-.39.287-.741.594-.993.308-.252.693-.39 1.09-.389h5.939c.254.001.504.057.733.165.23.109.432.267.592.462.161.196.277.425.34.671.061.246.068.503.019.752l-1.19 6.006c-.08.39-.29.74-.598.992-.309.251-.694.389-1.092.388z" opacity=".9" transform="translate(-258 -266) translate(258 266)"/>
                <path fill="#203B95" d="M258.605 254.586h-5.94c-.253 0-.503-.057-.732-.165-.23-.108-.432-.266-.592-.462-.162-.196-.277-.425-.34-.67-.061-.246-.068-.503-.02-.752l1.19-6.006c.078-.39.288-.74.595-.993.307-.252.692-.389 1.09-.388h5.939c.253 0 .503.056.733.165.229.108.432.266.592.462.161.196.277.425.339.67.062.246.069.503.02.752l-1.19 6.006c-.078.39-.288.74-.595.992-.307.251-.692.389-1.09.389z" transform="translate(-258 -266) translate(258 266)"/>
                <path fill="#B1B5BA" d="M17.356 496.934h568.235c.033 0 .061-.005.09-.017.033-.01.056-.033.078-.056.023-.022.045-.045.056-.078.017-.028.017-.056.017-.09 0-.034 0-.062-.017-.09-.011-.034-.033-.056-.056-.079-.022-.022-.045-.044-.079-.056-.028-.01-.056-.017-.09-.017H17.357c-.064 0-.125.029-.17.073-.045.045-.071.107-.071.169 0 .062.026.123.07.168.046.045.107.073.171.073z" transform="translate(-258 -266) translate(258 266)"/>
                <path fill="#CEDFE9" d="M41.898 344.202c-1.066-13.869 2.006-27.742 8.828-39.864 6.82-12.122 17.083-21.949 29.49-28.237 12.407-6.288 26.4-8.755 40.21-7.09 13.809 1.667 26.814 7.391 37.369 16.45s18.186 21.044 21.928 34.441c3.742 13.397 3.427 27.602-.906 40.82-4.333 13.217-12.49 24.852-23.436 33.433-10.947 8.58-24.194 13.723-38.063 14.774-9.202.703-18.453-.414-27.224-3.287-8.77-2.873-16.89-7.445-23.893-13.455-7.003-6.011-12.755-13.342-16.925-21.576-4.17-8.233-6.677-17.207-7.378-26.41z" transform="translate(-258 -266) translate(258 266)"/>
                <path fill="#FC9D9D" d="M182.82 307.216l10.154-1.195c.304-.036.611.01.891.132.28.123.524.316.705.563.181.246.294.535.327.839.033.304-.014.611-.138.89l-1.1 2.465c-.208.467-.506.889-.878 1.239-.372.35-.81.624-1.289.804l-13.275 4.94 5.355-11.513" transform="translate(-258 -266) translate(258 266)"/>
                <g fill="#000" opacity=".15">
                    <path d="M4.878 1.292L15.032.096c.304-.035.612.01.892.132.28.123.523.316.704.563.182.246.294.535.328.84.033.303-.014.61-.139.89l-1.1 2.464c-.207.467-.506.889-.878 1.239-.372.35-.81.624-1.288.804L.275 11.968" transform="translate(-258 -266) translate(258 266) translate(177.942 305.925)"/>
                </g>
                <path fill="#203B95" d="M225.138 369.131l-48.274-26.72c-.273-.15-.513-.353-.705-.598-.192-.245-.334-.527-.414-.827-.082-.301-.101-.615-.059-.924.043-.308.148-.605.308-.872l37.368-62.723c.3-.506.783-.878 1.348-1.04.566-.16 1.171-.1 1.694.17l49.139 25.327c.28.145.527.345.726.589.2.243.347.525.434.828.086.302.11.62.07.932-.04.312-.143.613-.304.884l-38.21 64.132c-.31.518-.808.895-1.39 1.053-.582.157-1.203.081-1.73-.21z" transform="translate(-258 -266) translate(258 266)"/>
                <path fill="#F4F4F4" d="M225.138 369.131l-48.274-26.72c-.273-.15-.513-.353-.705-.598-.192-.245-.334-.527-.414-.827-.082-.301-.101-.615-.059-.924.043-.308.148-.605.308-.872l37.368-62.723c.3-.506.783-.878 1.348-1.04.566-.16 1.171-.1 1.694.17l49.139 25.327c.28.145.527.345.726.589.2.243.347.525.434.828.086.302.11.62.07.932-.04.312-.143.613-.304.884l-38.21 64.132c-.31.518-.808.895-1.39 1.053-.582.157-1.203.081-1.73-.21z" opacity=".5" transform="translate(-258 -266) translate(258 266)"/>
                <path fill="#FFF" d="M222.696 367.85l-48.274-26.719c-.273-.15-.512-.354-.705-.599-.192-.245-.333-.526-.414-.827-.082-.3-.101-.615-.059-.923.043-.309.148-.605.308-.873l37.368-62.723c.3-.505.783-.877 1.348-1.039.566-.161 1.172-.101 1.694.17l49.139 25.327c.28.144.527.344.726.588.2.243.347.526.434.828.087.303.11.62.07.933-.04.312-.143.613-.304.884l-38.21 64.137c-.31.516-.81.891-1.392 1.047-.581.156-1.2.08-1.729-.21z" transform="translate(-258 -266) translate(258 266)"/>
                <path fill="#FC9D9D" d="M170.128 319.626l6.584-11.181c.893-1.522 2.323-2.655 4.008-3.177l11.592-3.627c.354-.114.738-.09 1.076.068.337.158.601.438.74.783.14.346.142.731.008 1.079-.134.347-.395.63-.73.793l-9.475 4.732-4.317 8.42c-.101.196-.134.42-.092.637.043.217.157.413.325.556.168.143.38.226.6.233.222.008.438-.06.616-.191l4.339-3.2c.684-.495 1.53-.716 2.368-.617.84.099 1.611.51 2.162 1.15.125.152.193.343.193.54 0 .196-.068.387-.193.538l-15.639 18.62-16.054-4.929 11.889-11.227z" transform="translate(-258 -266) translate(258 266)"/>
                <g fill="#BABABA" opacity=".3">
                    <path d="M7.606 11.586c-.047 0-.093-.011-.135-.033L.381 7.668C.35 7.65.32 7.625.297 7.595c-.023-.03-.04-.064-.049-.1-.012-.038-.015-.078-.008-.117.005-.039.02-.076.042-.108L4.54.5c.038-.06.098-.103.166-.12.07-.019.142-.01.205.025l7.095 3.884c.033.018.062.043.085.073.024.03.04.064.05.101.01.038.014.077.008.116-.006.04-.02.076-.042.109l-4.25 6.77c-.025.042-.063.077-.107.1-.045.022-.095.032-.145.028zM.915 7.298l6.596 3.615 3.963-6.298L4.872 1 .915 7.298z" transform="translate(-258 -266) translate(258 266) translate(181.87 323.326)"/>
                </g>
                <g fill="#BABABA" opacity=".3">
                    <path d="M7.769 11.631c-.047 0-.093-.011-.135-.033L.561 7.713C.528 7.695.5 7.67.476 7.64c-.023-.03-.04-.064-.05-.1-.01-.038-.013-.078-.008-.117.006-.039.02-.076.042-.108L4.726.545c.039-.06.098-.103.167-.12.069-.019.142-.01.204.025l7.09 3.884c.033.018.062.043.085.073.023.03.04.065.05.101.011.038.014.077.008.116-.006.039-.02.076-.042.109l-4.261 6.77c-.026.043-.065.078-.11.101-.046.023-.097.032-.148.027zM1.072 7.365l6.601 3.615 3.958-6.298-6.579-3.615-3.98 6.298z" transform="translate(-258 -266) translate(258 266) translate(188.046 313.222)"/>
                </g>
                <path fill="#203B95" d="M187.114 331.556l-.393-3.177c-.006-.083.02-.164.07-.23.05-.065.123-.11.205-.124l.836-.101c.083-.006.164.02.23.07.064.05.109.124.124.205l.252 2.043 4.935-.617c.082-.006.163.019.229.07.065.05.11.123.124.205l.101.836c.007.083-.018.165-.068.23-.051.066-.125.11-.207.124l-6.068.752c-.042.005-.086.002-.127-.01-.041-.01-.08-.03-.113-.057-.034-.027-.061-.06-.082-.098-.02-.038-.033-.079-.037-.121M193.53 321.49l-.393-3.177c-.006-.083.02-.164.07-.23.051-.064.123-.109.205-.124l.836-.1c.083-.006.164.019.23.07.065.05.11.123.124.204l.252 2.043 4.935-.617c.082-.006.163.02.229.07.065.051.11.124.124.205l.101.836c.007.083-.017.165-.068.231-.051.065-.125.11-.207.123l-6.079.752c-.085.01-.171-.015-.239-.069-.067-.053-.11-.132-.12-.217" transform="translate(-258 -266) translate(258 266)"/>
                <path fill="#BABABA" d="M216.14 348.17l-22.094-12.276c-.138-.077-.24-.207-.283-.359-.042-.153-.024-.316.053-.455.078-.137.207-.239.36-.282.152-.043.315-.024.454.052l22.094 12.276c.138.078.24.208.282.36.043.153.025.316-.052.454-.08.137-.208.238-.36.281-.152.043-.315.025-.454-.05zM207.355 339.998l-11.86-6.568c-.139-.078-.24-.207-.284-.36-.042-.152-.024-.315.053-.454.078-.138.207-.24.36-.283.152-.043.316-.024.454.053l11.861 6.579c.138.078.24.207.283.359.043.153.024.316-.053.455-.039.068-.09.127-.153.175-.062.048-.132.083-.208.103-.076.02-.155.025-.233.015-.077-.01-.152-.035-.22-.074zM222.337 337.437l-22.094-12.276c-.138-.077-.24-.207-.283-.36-.042-.152-.024-.315.053-.454.078-.137.207-.239.36-.282.152-.043.315-.024.454.052l22.094 12.276c.138.078.24.207.282.36.044.152.025.316-.052.454-.079.137-.208.238-.36.28-.152.044-.315.026-.454-.05zM213.552 329.264l-11.86-6.578c-.139-.078-.24-.208-.283-.36-.043-.152-.025-.316.052-.454.078-.138.207-.24.36-.283.152-.043.316-.024.454.053l11.861 6.578c.138.078.24.207.283.36.043.152.024.316-.053.454-.078.138-.207.24-.36.283-.152.043-.315.024-.454-.053z" opacity=".3" transform="translate(-258 -266) translate(258 266)"/>
                <path fill="#000" d="M235.798 337.539c-.05.001-.098-.012-.14-.04-1.572-.92-3.475-1.077-5.148-1.212-1.673-.135-3.07-.252-3.508-1.179-.438-.926.303-4.193 1.572-9.38 1.588-6.472 3.766-15.34 1.684-16.463-1.23-.651-4.283 1.072-6.517 2.33-.876.493-1.634.92-2.246 1.184h-.056c-.43.185-.898.264-1.365.23-.467-.033-.918-.177-1.318-.421-.439-.265-.81-.629-1.082-1.062-.273-.434-.441-.926-.49-1.436-.18-1.903.191-4.603.562-7.219.488-3.559 1.038-7.595-.191-8.251-1.398-.736-5.557 2.75-8.044 4.838-.898.758-1.684 1.41-2.173 1.74-2.166 1.477-4.95.674-5.052.64-.037-.01-.07-.027-.101-.05-.03-.024-.055-.054-.074-.087-.038-.068-.047-.147-.027-.222.021-.074.07-.137.138-.175.067-.038.147-.048.222-.027 0 0 2.65.758 4.597-.561.466-.32 1.235-.966 2.127-1.684 3.655-3.065 7.068-5.754 8.667-4.9 1.6.853 1.067 4.54.483 8.823-.354 2.583-.718 5.249-.561 7.084.038.423.176.831.402 1.19.225.36.531.662.894.882.323.196.687.313 1.064.342.377.028.755-.034 1.103-.18h.056c.562-.252 1.347-.696 2.173-1.161 2.48-1.398 5.562-3.138 7.067-2.336 2.48 1.33.426 9.7-1.392 17.093-.983 4.019-2.004 8.173-1.611 9.01.297.628 1.571.735 3.048.852 1.65.135 3.704.304 5.383 1.292.053.031.094.079.117.135.023.057.027.12.01.179-.015.06-.05.112-.099.15-.048.037-.107.057-.168.058l-.006-.006z" transform="translate(-258 -266) translate(258 266)"/>
                <path fill="#203B95" d="M217.594 295.203c.465 0 .842-.376.842-.842 0-.464-.377-.842-.842-.842-.465 0-.842.378-.842.842 0 .466.377.842.842.842zM224.375 311.723c.465 0 .842-.376.842-.842 0-.464-.377-.842-.842-.842-.466 0-.842.378-.842.842 0 .466.376.842.842.842zM232.593 337.09c.464 0 .842-.377.842-.842 0-.465-.378-.842-.842-.842-.466 0-.842.377-.842.842 0 .465.376.842.842.842z" transform="translate(-258 -266) translate(258 266)"/>
                <path fill="#000" d="M250.437 288.524l-4.603-2.532c.43-.783.702-1.644.8-2.532.097-.888.02-1.787-.23-2.645-.25-.858-.666-1.658-1.225-2.355-.56-.697-1.25-1.277-2.033-1.707-.783-.43-1.644-.702-2.532-.8-.888-.097-1.787-.02-2.645.23-.858.25-1.658.666-2.355 1.225-.697.56-1.278 1.25-1.708 2.033l-4.603-2.531c-.13-.073-.272-.118-.419-.135-.148-.017-.297-.005-.44.037-.142.041-.275.11-.39.203-.116.093-.212.208-.283.338l-5.613 10.267c-.072.13-.118.272-.135.42-.017.147-.005.296.037.439.04.142.11.275.203.39.093.116.208.213.338.283l21.134 11.614c.13.073.272.118.42.135.147.017.296.004.439-.037.143-.041.275-.11.39-.203.117-.093.213-.208.284-.338l5.64-10.267c.072-.131.117-.276.131-.424.015-.149 0-.298-.044-.441-.044-.143-.116-.276-.211-.39-.096-.115-.214-.209-.347-.277zm-8.504-4.704c-.223.406-.563.737-.974.95-.412.214-.878.301-1.34.25-.46-.05-.896-.238-1.251-.536-.355-.299-.614-.696-.744-1.141-.129-.446-.123-.92.017-1.362.14-.443.407-.834.77-1.123.361-.29.801-.467 1.263-.507.462-.04.927.057 1.333.28.545.301.948.806 1.122 1.403.174.598.103 1.24-.196 1.786z" transform="translate(-258 -266) translate(258 266)"/>
                <path fill="#FFF" d="M226.497 285.072l18.524 10.183c.13.07.245.166.337.282.094.116.163.249.204.391.041.143.054.292.037.44-.017.147-.063.29-.135.419l-.836 1.516c-.072.13-.168.244-.283.337-.116.093-.249.163-.391.204-.143.04-.292.054-.44.037-.147-.017-.29-.063-.419-.135l-18.524-10.183c-.13-.07-.245-.167-.338-.282-.093-.116-.162-.25-.203-.392-.041-.142-.054-.291-.037-.439.017-.147.062-.29.135-.419l.836-1.516c.071-.13.167-.245.283-.338.116-.093.248-.162.39-.203.143-.041.293-.054.44-.037.147.017.29.063.42.135z" transform="translate(-258 -266) translate(258 266)"/>
                <path fill="#203B95" d="M143.476 337.764L166.025 323.501 175.966 333.784 150.24 366.847z" transform="translate(-258 -266) translate(258 266)"/>
                <path fill="#FC9D9D" d="M234.468 340.896l-8.578-3.537c-.257-.106-.537-.142-.813-.105-.276.038-.536.148-.755.32-.22.17-.389.397-.492.655-.104.258-.136.54-.095.814l.348 2.425c.066.46.224.901.463 1.3.239.397.555.744.929 1.019l10.385 7.572-1.853-11.373" transform="translate(-258 -266) translate(258 266)"/>
                <path fill="#000" d="M234.468 340.896l-8.578-3.537c-.257-.106-.537-.142-.813-.105-.276.038-.536.148-.755.32-.22.17-.389.397-.492.655-.104.258-.136.54-.095.814l.348 2.425c.066.46.224.901.463 1.3.239.397.555.744.929 1.019l10.385 7.572-1.853-11.373" opacity=".15" transform="translate(-258 -266) translate(258 266)"/>
                <path fill="#FC9D9D" d="M238.352 351.555l-2.026-4.995c-.095-.251-.098-.528-.006-.78.672-2.075 1.234-4.183 1.684-6.316.048-.26.002-.53-.13-.76-.131-.23-.34-.406-.589-.497-2.183-.825-8.05-3.014-8.667-2.975-.317.012-.62.137-.855.351-.234.215-.384.507-.424.822-.354 2.711 4.81 4.289 4.81 4.289l-4.249 6.696c-.138.147-.321.244-.52.273-.2.03-.403-.01-.577-.113-.174-.102-.308-.26-.38-.448-.072-.188-.077-.395-.016-.587l1.454-4.67c.228-.735.169-1.528-.166-2.22-.334-.692-.92-1.231-1.636-1.508-.167-.063-.35-.066-.52-.009-.168.057-.313.172-.406.323l-11.328 18.94 8.981 12.31 15.336-16.93c.15-.156.25-.352.291-.564.041-.212.02-.431-.061-.632z" transform="translate(-258 -266) translate(258 266)"/>
                <path fill="#364361" d="M222.191 328.064c-.057.024-.102.071-.125.129-.023.058-.022.122.002.18l.325.746.455-.18-.326-.746c-.01-.032-.029-.06-.052-.084-.024-.025-.053-.044-.084-.056-.03-.012-.065-.017-.098-.016-.034.003-.067.012-.097.027z" transform="translate(-258 -266) translate(258 266)"/>
                <path fill="#000" d="M222.191 328.064c-.057.024-.102.071-.125.129-.023.058-.022.122.002.18l.325.746.455-.18-.326-.746c-.01-.032-.029-.06-.052-.084-.024-.025-.053-.044-.084-.056-.03-.012-.065-.017-.098-.016-.034.003-.067.012-.097.027z" transform="translate(-258 -266) translate(258 266)"/>
                <path fill="#364361" d="M227.462 335.289l-.932.404 13.265 30.396.724-.315c.055-.024.099-.07.121-.127.022-.057.021-.12-.003-.176l-13.175-30.182zM226.104 335.872l-2.246.965 13.17 30.183c.024.056.07.1.126.121.057.023.12.021.176-.003l2.01-.87-13.236-30.396z" transform="translate(-258 -266) translate(258 266)"/>
                <path fill="#000" d="M227.462 335.289l-.932.404 13.265 30.396.724-.315c.055-.024.099-.07.121-.127.022-.057.021-.12-.003-.176l-13.175-30.182zM226.104 335.872l-2.246.965 13.17 30.183c.024.056.07.1.126.121.057.023.12.021.176-.003l2.01-.87-13.236-30.396z" transform="translate(-258 -266) translate(258 266)"/>
                <path fill="#364361" d="M240.917 368.794l-1.684.719c-.045.02-.093.03-.142.032-.05 0-.098-.008-.144-.027-.046-.018-.087-.046-.122-.08-.034-.035-.062-.076-.08-.122l-1.01-2.33 2.34-1.01 1.01 2.33c.042.087.047.187.016.278-.032.091-.098.167-.184.21zM227.462 335.288l-3.576 1.55-1.038-2.375c-.427-.988-1.314-5.232-.326-5.658.988-.427 3.475 3.12 3.902 4.109l1.038 2.374zM234.524 361.182l1.858 4.289-2.184-.893-.36-.83-1.498-3.458-4.58-10.581-.786-1.82.337-.145c.21-.102.45-.126.678-.067.226.059.425.196.56.387.135.192.197.425.176.658-.021.234-.124.452-.292.616l4.917 11.345 1.174.5z" transform="translate(-258 -266) translate(258 266)"/>
                <path fill="#FC9D9D" d="M213.816 357.376l11.328-18.94c.092-.153.236-.268.406-.326.17-.057.353-.053.52.012.723.27 1.315.807 1.655 1.5.34.693.403 1.49.175 2.227l-1.454 4.67-12.63 10.857zM178.503 254.692l2.47 16.588c.062.405.229.788.485 1.11.256.32.592.57.974.72l1.92.752c.619.243 1.143.678 1.498 1.24.354.562.52 1.223.472 1.886v.062c-.049.698-.324 1.36-.784 1.887-.46.527-1.08.89-1.764 1.032-1.123.224-2.161.455-2.161.455l-2.044 9.054c-.502 2.227-1.838 4.177-3.735 5.449-1.896 1.272-4.207 1.768-6.458 1.388l-4.654-.78-15.481 17.788-14.904-25.922 8.347-12.445 8.106-25.164 27.713 4.9z" transform="translate(-258 -266) translate(258 266)"/>
                <path fill="#21252B" d="M139.272 248.67c2.806-5.288 6.343-7.079 11.76-6.64.437-.009.863-.134 1.235-.365.372-.23.674-.556.875-.944 1.123-1.813 3.873-4.906 9.711-4.53 1.668.054 3.294.531 4.726 1.387 1.433.855 2.625 2.06 3.464 3.503.359.561.906.978 1.544 1.173.637.196 1.324.157 1.936-.107 1.268-.556 2.659-.774 4.036-.632 1.378.141 2.694.638 3.823 1.44 6.028 3.963 3.312 14.427-3.205 15.257l-5.21.433c-.473.035-.92.236-1.26.568-.341.331-.554.771-.603 1.245-.101.922-.375 1.817-.809 2.638-.713 1.344-1.818 2.44-3.168 3.142-1.35.701-2.883.976-4.393.787-.168-.015-.338.006-.499.06-.16.055-.307.142-.432.257-.125.114-.224.254-.292.409-.067.155-.102.323-.101.492v5.844c.004.302-.079.598-.238.855-.16.257-.388.462-.66.593-.195.086-.405.13-.618.13-.213-.001-.423-.047-.616-.136-.194-.087-.367-.216-.507-.375-.14-.16-.246-.348-.308-.55l-1.213-3.874c-.205-.655-.597-1.236-1.125-1.673-.53-.438-1.173-.713-1.856-.791l-1.526-.18c-1.522 2.195-2.93 4.654-4.233 6.556-.842 1.31-1.89 2.477-3.104 3.453-2.206 1.644-3.98 1.06-5.052-1.207 0 0-6.635-14.685-3.233-25.485.3-.954.687-1.878 1.156-2.761" transform="translate(-258 -266) translate(258 266)"/>
                <g fill="#000" opacity=".15">
                    <path d="M.46 3.638l4.306.533c.14.084.297.163.454.247 1.488.775 3.963 1.796 6.012 1.269.144-.038.268-.132.343-.261.075-.129.096-.283.059-.427-.039-.144-.132-.268-.261-.343-.129-.075-.283-.096-.427-.058-.34.084-.69.12-1.039.107L3.564.214C2.72 1.523 1.672 2.688.46 3.666" transform="translate(-258 -266) translate(258 266) translate(145.946 274.49)"/>
                </g>
                <path fill="#203B95" d="M182.883 267.734L157.163 269.534 157.254 270.83 182.974 269.03z" transform="translate(-258 -266) translate(258 266)"/>
                <path fill="#FC9D9D" d="M156.14 267.553s-1.82-3.93-5.866-1.684c-4.631 2.565-2.667 13.472 5.574 13.331 4.322-.067 3.216-2.447 2.189-5.691l-1.897-5.956z" transform="translate(-258 -266) translate(258 266)"/>
                <g fill="#000" opacity=".2">
                    <path d="M.421.982C.727.693 1.089.471 1.485.33 1.882.19 2.303.132 2.722.163c.41.07.799.227 1.143.456.346.23.639.53.861.88.61.861.983 1.868 1.084 2.919l.163.954c.014.069.015.14 0 .21-.014.068-.043.133-.085.19-.04.058-.093.106-.154.142-.061.036-.13.058-.199.066-.07.008-.141 0-.209-.02-.067-.022-.129-.057-.181-.104-.054-.046-.096-.103-.126-.167-.029-.064-.044-.134-.046-.205l-.162-.954c-.113-.867-.417-1.698-.893-2.43-.147-.237-.339-.442-.566-.603-.226-.162-.482-.278-.753-.34-.285-.012-.57.035-.835.138-.265.103-.507.261-.709.462-.05.042-.11.073-.172.092-.063.02-.13.025-.194.019-.066-.007-.13-.026-.187-.057-.058-.031-.11-.073-.151-.124-.042-.051-.073-.11-.092-.173C.24 1.452.234 1.385.24 1.32c.006-.065.026-.129.057-.187.03-.058.073-.11.124-.15" transform="translate(-258 -266) translate(258 266) translate(149.875 267.754)"/>
                </g>
                <path fill="#203B95" d="M182.264 274.737c-.122-.039-.23-.113-.309-.213-.08-.1-.128-.22-.14-.348l-1.572-11.788c-.022-.171.024-.344.13-.481.105-.137.26-.226.431-.249.085-.011.171-.006.254.016.082.022.16.06.227.112.067.053.123.118.165.192.043.075.069.157.079.242l1.571 11.788c.023.17-.024.344-.13.48-.104.138-.26.227-.431.25-.091.016-.184.016-.275 0" transform="translate(-258 -266) translate(258 266)"/>
                <path fill="#000" d="M177.195 283.792c1.07.57 2.258.881 3.47.91l.23-1.28c-1.539-.04-3.02-.587-4.216-1.555-.128-.114-.296-.173-.467-.162-.172.01-.332.087-.446.215-.113.128-.172.296-.162.467.01.171.088.331.216.445.414.379.877.701 1.375.96" opacity=".2" transform="translate(-258 -266) translate(258 266)"/>
                <path fill="#203B95" d="M164.183 322.04l-4.883-5.461.36-7.213-22.662-26.557-6 5.754c-6.04-.092-11.963 1.652-16.989 5.002-5.025 3.35-8.913 8.148-11.15 13.758 0 0-30.616 81.813-30.156 90.486 12.042 7.65 26.07 11.584 40.332 11.31 0 0 5.855-.32 8.499-.65 1.307-.163 6.842-1.247 7.179-1.325 4.346-1.03 8.587-2.46 12.67-4.272l1.453-34.735 28.134-25.08-.067-3.873c-.113-6.335-2.498-12.419-6.72-17.143z" transform="translate(-258 -266) translate(258 266)"/>
                <path fill="#FFF" d="M142.263 380.891c-22.812-10.35-45.288-57.626-45.288-57.626L90.33 342.35s18.176 40.169 51.244 55.572l.69-17.031z" opacity=".2" transform="translate(-258 -266) translate(258 266)"/>
                <g fill="#000" opacity=".15">
                    <path d="M20.292 22.408L.365 1.178C.306 1.116.26 1.044.23.964.201.884.187.8.19.715.192.63.212.547.246.47.281.392.331.322.393.263.455.205.528.16.607.13.687.1.771.085.856.088c.085.002.169.022.246.057.078.035.148.085.206.146l19.927 21.23-.028.915c-.09.082-.2.14-.318.171-.118.03-.242.031-.361.003l-.236-.202z" transform="translate(-258 -266) translate(258 266) translate(138.087 294.137)"/>
                </g>
                <g fill="#000" opacity=".2">
                    <path d="M4.726.836L1.302.135C1.108.09.903.11.72.19.537.27.383.405.282.578.181.75.137.95.157 1.149c.02.199.103.386.236.535l1.78 2.1L4.725.835z" transform="translate(-258 -266) translate(258 266) translate(159.98 294.698)"/>
                </g>
                <path fill="#203B95" d="M139.535 361.401l7.814 42.543c.79 2.387 2.143 4.548 3.946 6.3 1.802 1.753 4 3.046 6.407 3.77 2.407.724 4.953.857 7.423.387 2.47-.468 4.79-1.525 6.765-3.08l50.913-41.64-8.981-12.35-38.8 20.573-4.35-38.99-31.137 22.487z" transform="translate(-258 -266) translate(258 266)"/>
                <path fill="#000" d="M175.023 377.894l.64 4.956c.038.297.165.576.363.8.199.226.46.386.75.461.29.076.596.063.879-.037.283-.1.53-.281.708-.522l9.267-12.574-12.607 6.916zM141.371 402.878l1.684-41.325c0-.224-.089-.438-.246-.596-.159-.158-.373-.246-.596-.246-.223 0-.437.088-.596.246-.157.158-.246.372-.246.596l-8.117 44.345s3.278-1.09 4.362-1.493c.948-.343 3.755-1.527 3.755-1.527z" opacity=".15" transform="translate(-258 -266) translate(258 266)"/>
                <path fill="#FFF" d="M358.838 109.578c1.182-.164 2.066-.833 1.974-1.493-.092-.66-1.125-1.062-2.307-.897-1.182.165-2.066.833-1.974 1.493.092.66 1.125 1.062 2.307.897z" transform="translate(-258 -266) translate(258 266)"/>
                <path fill="#21252B" d="M381.317 78.12c6.709 0 12.147-5.438 12.147-12.146 0-6.71-5.438-12.148-12.147-12.148-6.709 0-12.147 5.439-12.147 12.148 0 6.708 5.438 12.147 12.147 12.147z" transform="translate(-258 -266) translate(258 266)"/>
                <path fill="#203B95" d="M376.933 62.409c-2.541-.47-5.166-.111-7.488 1.021 0 .118-.062.236-.084.354-.242 1.335-.257 2.701-.045 4.042 3.177-.488 6.418.307 9.01 2.207 2.593 1.901 4.324 4.754 4.815 7.93 1.21-.186 2.385-.553 3.486-1.089 0-.118.056-.23.079-.342.576-3.169-.13-6.437-1.963-9.085-1.832-2.649-4.642-4.46-7.81-5.038z" transform="translate(-258 -266) translate(258 266)"/>
                <path fill="#21252B" d="M366.217 119.328c3.776 0 6.838-3.06 6.838-6.837 0-3.776-3.062-6.837-6.838-6.837-3.775 0-6.837 3.061-6.837 6.837s3.062 6.837 6.837 6.837z" transform="translate(-258 -266) translate(258 266)"/>
                <path fill="#F59696" d="M375.9 91.115l6.736 22.661c.157.53.417 1.024.765 1.453.348.43.777.786 1.263 1.05.486.263 1.02.427 1.569.484.55.058 1.105.005 1.635-.152l2.711-.685s-5.787 10.317-20.87 13.949c-7.859 1.886-16.043-1.302-16.043-1.302l4.4-2.246s.32-.381.5-3.738c.072-1.587.014-3.177-.174-4.755-.931-6.404-3.766-25.417-3.766-25.417l21.274-1.302z" transform="translate(-258 -266) translate(258 266)"/>
                <path fill="#F59696" d="M364.662 113.95l1.123-.219c1.866-.41 3.632-1.184 5.2-2.277 1.566-1.093 2.902-2.485 3.931-4.094 1.03-1.61 1.73-3.407 2.065-5.288.335-1.88.296-3.809-.115-5.675l-4.418-19.938c-.136-.625-.395-1.216-.761-1.74-.366-.525-.833-.97-1.373-1.313-.539-.343-1.142-.575-1.772-.683-.63-.108-1.275-.09-1.898.053l-18.67 4.081c-1.632.364-3.054 1.36-3.952 2.77-.899 1.41-1.201 3.12-.842 4.752l4.115 18.524c.862 3.754 3.168 7.018 6.418 9.085 3.25 2.068 7.183 2.773 10.95 1.962z" transform="translate(-258 -266) translate(258 266)"/>
                <path fill="#21252B" d="M359.728 96.84c.872 0 1.578-.706 1.578-1.577 0-.87-.706-1.577-1.578-1.577-.87 0-1.577.706-1.577 1.577s.706 1.578 1.577 1.578z" transform="translate(-258 -266) translate(258 266)"/>
                <path fill="#FFF" d="M359.021 95.465c.18 0 .326-.146.326-.325 0-.18-.146-.326-.326-.326-.18 0-.326.146-.326.326 0 .18.146.325.326.325z" transform="translate(-258 -266) translate(258 266)"/>
                <path fill="#21252B" d="M347.873 99.995c.871 0 1.577-.706 1.577-1.577s-.706-1.577-1.577-1.577-1.577.706-1.577 1.577c0 .87.706 1.577 1.577 1.577z" transform="translate(-258 -266) translate(258 266)"/>
                <path fill="#FFF" d="M347.143 98.553c.18 0 .326-.146.326-.326 0-.18-.146-.325-.326-.325-.18 0-.325.146-.325.325 0 .18.145.326.325.326z" transform="translate(-258 -266) translate(258 266)"/>
                <g fill="#000" opacity=".15">
                    <path d="M2.273 4.327L4.35 3.98c.123-.014.236-.076.312-.173.077-.097.112-.22.098-.343-.014-.123-.076-.235-.173-.312-.097-.077-.22-.112-.343-.098l-2.077.348c-.127.024-.256.021-.381-.007-.126-.027-.245-.08-.349-.154-.105-.074-.194-.169-.261-.278-.067-.11-.112-.231-.132-.358-.03-.253.03-.51.173-.722.142-.212.355-.366.602-.434.06-.007.12-.026.173-.056.053-.03.1-.07.138-.118.038-.047.066-.103.083-.161.017-.06.022-.12.015-.182-.007-.06-.025-.12-.055-.173-.03-.054-.07-.1-.118-.138-.048-.038-.103-.067-.162-.083-.059-.017-.12-.022-.18-.016C1.224.616.793.895.508 1.3c-.286.406-.403.905-.33 1.395 0 .256.059.509.171.739.113.23.276.431.478.589.201.157.437.267.687.32.25.053.51.048.758-.015z" transform="translate(-258 -266) translate(258 266) translate(354.2 98.233)"/>
                </g>
                <path fill="#000" d="M357.78 113.804c2.542.644 5.203.659 7.752.045l1.684-.455c.217-.046.424-.123.618-.23l.123-.034c.298-.151.618-.23.983-.398.123-.034.236-.135.365-.168 1.672-.75 3.194-1.798 4.49-3.093.078-.07.179-.108.283-.108.104 0 .205.038.283.107.078.07.128.164.141.268.012.104-.013.208-.072.294-1.676 1.677-3.689 2.978-5.906 3.817-1.709 2.177-4.069 3.75-6.736 4.49-1.068.285-2.167.44-3.272.466l-.735-5.001z" opacity=".15" transform="translate(-258 -266) translate(258 266)"/>
                <path fill="#21252B" d="M373.217 75.841c-.477-4.339-1.588-1.178-4.086-3.435s-14.034-.258-14.034-.258c-2.015 1.33-7.084 3.67-5.41 7.336 6.701 14.662 25.259 8.42 25.259 8.42l-1.729-12.063z" transform="translate(-258 -266) translate(258 266)"/>
                <path fill="#21252B" d="M385.426 74.916c-.561-6.248-6.074-9.543-10.295-10.34-2.638-.483-4.76-.5-8.162-.27-31.827 2.14-25.467 24.261-25.467 24.261l12.074-11.35 21.134 9.576s6.601 1.976 5.052 7.124c-1.341 4.429-5.804 5.141-5.804 5.141 1.568 2.414 3.635 4.464 6.062 6.012 0 0 7.54-8.835 5.406-30.154z" transform="translate(-258 -266) translate(258 266)"/>
                <path fill="#21252B" d="M341.502 88.566c-4.446-14.594 9.228-14.533 9.228-14.533 1.404 0 .23-.236.77 2.05 1.582 6.735-1.18 10.238-5.782 11.422-1.134.298-4.216 1.061-4.216 1.061z" transform="translate(-258 -266) translate(258 266)"/>
                <path fill="#F59696" d="M372.942 99.249s6.95-.69 7.19-7.685c.242-6.994-8.42-6.803-8.358.247l.405 7.64.763-.202z" transform="translate(-258 -266) translate(258 266)"/>
                <path fill="#000" d="M377.37 88.354c-.326-.176-.686-.284-1.055-.314-.37-.031-.743.015-1.094.134-.336.148-.636.368-.879.643-.244.275-.424.6-.53.951-.352.892-.449 1.864-.28 2.807l.123.713c.067.528 1.027.561.92-.107l-.072-.791c-.121-.769-.052-1.555.202-2.29.146-.481.477-.885.92-1.123.489-.145 1.015-.093 1.465.146.114.042.238.041.352 0 .113-.043.207-.124.266-.23.013-.115-.014-.23-.075-.329-.061-.097-.153-.171-.262-.21zM374.115 97.779c.198-.03.388-.1.557-.206.17-.105.317-.244.432-.408.115-.163.195-.348.237-.544.041-.196.042-.398.004-.594-.067-.27-.204-.516-.399-.713.2.1.375.24.515.414s.24.375.293.591c.035.18.033.363-.005.542-.038.178-.111.347-.216.496-.105.15-.239.276-.393.373-.155.096-.328.16-.508.189-.286.072-.588.03-.842-.118.118-.028.241-.067.325-.022z" opacity=".15" transform="translate(-258 -266) translate(258 266)"/>
                <path fill="#21252B" d="M371.82 91.996c.207-.32.072-2.997 1.324-4.255l-1.123-.976s-1.122 3.053-1.072 5.012c.013.096.054.186.118.258.065.073.15.124.243.147.093.024.192.019.283-.014.091-.034.17-.093.226-.172z" transform="translate(-258 -266) translate(258 266)"/>
                <path fill="#FFF" d="M358.426 105.064l.561.505c.367.293.8.49 1.26.577.46.086.936.058 1.383-.083.447-.14.853-.388 1.182-.722.33-.333.572-.743.705-1.192l.242-.87c.05-.185-.085-.36-.264-.286l-5.002 1.684c-.039.011-.074.033-.102.064-.027.03-.045.068-.052.108-.007.04-.003.082.013.12.015.038.04.071.074.095z" transform="translate(-258 -266) translate(258 266)"/>
                <path fill="#FC9D9D" d="M267.03 225.655l9.273 1.835c.278.055.565.036.832-.056s.506-.253.69-.467c.185-.214.31-.473.362-.751.052-.278.03-.564-.065-.83l-.825-2.375c-.158-.445-.403-.855-.72-1.206-.317-.35-.7-.635-1.127-.837l-11.877-5.513 4.108 10.997" transform="translate(-258 -266) translate(258 266)"/>
                <path fill="#000" d="M267.03 225.655l9.273 1.835c.278.055.565.036.832-.056s.506-.253.69-.467c.185-.214.31-.473.362-.751.052-.278.03-.564-.065-.83l-.825-2.375c-.158-.445-.403-.855-.72-1.206-.317-.35-.7-.635-1.127-.837l-11.877-5.513 4.108 10.997" opacity=".15" transform="translate(-258 -266) translate(258 266)"/>
                <path fill="#FC9D9D" d="M261.018 215.747l3.015 4.591c.146.224.211.492.185.758-.255 2.205-.392 4.422-.41 6.64.007.271.107.532.284.736.178.205.42.342.687.387 2.347.393 8.645 1.415 9.251 1.258.307-.08.576-.264.76-.522.185-.257.273-.571.25-.887-.185-2.779-5.658-3.335-5.658-3.335l2.902-7.527c.103-.183.266-.325.463-.4.196-.077.412-.082.611-.015.2.066.37.2.48.379.112.177.158.39.13.597l-.527 4.957c-.082.778.134 1.558.605 2.183.471.625 1.161 1.048 1.932 1.185.18.03.365-.002.522-.093.158-.092.28-.236.342-.407l6.551-19.876-11.227-7.298-11.148 15.448c-.118.185-.18.4-.18.62 0 .22.062.435.18.62z" transform="translate(-258 -266) translate(258 266)"/>
                <path fill="#364361" d="M281.838 236.022c.027-.018.049-.04.066-.067.017-.027.029-.057.035-.088.006-.031.005-.063-.001-.094-.007-.032-.02-.061-.038-.087l-.472-.68-.398.275.471.68c.037.051.094.087.156.098.063.012.128-.001.181-.037z" transform="translate(-258 -266) translate(258 266)"/>
                <path fill="#000" d="M281.838 236.022c.027-.018.049-.04.066-.067.017-.027.029-.057.035-.088.006-.031.005-.063-.001-.094-.007-.032-.02-.061-.038-.087l-.472-.68-.398.275.471.68c.037.051.094.087.156.098.063.012.128-.001.181-.037z" transform="translate(-258 -266) translate(258 266)"/>
                <path fill="#364361" d="M275.142 229.848l.853-.59-19.276-27.74-.657.454c-.051.036-.087.09-.098.15-.012.061.001.124.036.176l19.142 27.55zM276.382 228.988l2.032-1.403-19.141-27.55c-.036-.051-.09-.086-.15-.098-.061-.01-.124.002-.176.036l-1.858 1.269 19.293 27.746z" transform="translate(-258 -266) translate(258 266)"/>
                <path fill="#000" d="M275.142 229.848l.853-.59-19.276-27.74-.657.454c-.051.036-.087.09-.098.15-.012.061.001.124.036.176l19.142 27.55zM276.382 228.988l2.032-1.403-19.141-27.55c-.036-.051-.09-.086-.15-.098-.061-.01-.124.002-.176.036l-1.858 1.269 19.293 27.746z" transform="translate(-258 -266) translate(258 266)"/>
                <path fill="#364361" d="M255.057 199.053l1.51-1.044c.041-.029.087-.05.136-.06.048-.01.099-.012.148-.003.049.009.096.028.138.055.042.027.078.062.106.104l1.47 2.127-2.133 1.476-1.47-2.127c-.057-.083-.079-.185-.06-.284.017-.098.073-.187.155-.244zM275.142 229.848l3.266-2.245 1.5 2.172c.622.904 2.351 4.968 1.447 5.614-.903.623-4.092-2.43-4.715-3.329l-1.498-2.212zM262.955 205.373l-2.706-3.93 2.358.461.522.758 2.184 3.16 6.668 9.655 1.151 1.684-.309.213c-.22.152-.492.21-.755.162-.263-.049-.496-.2-.648-.42-.11-.166-.168-.361-.168-.561 0-.2.058-.395.168-.561l-7.157-10.363-1.308-.258z" transform="translate(-258 -266) translate(258 266)"/>
                <path fill="#FC9D9D" d="M283.387 206.368l-6.55 19.877c-.063.17-.184.315-.342.405-.158.092-.343.125-.523.094-.771-.135-1.462-.558-1.933-1.184-.47-.624-.687-1.406-.604-2.184l.528-4.956 9.424-12.052z" transform="translate(-258 -266) translate(258 266)"/>
                <path fill="#4D69C5" d="M353.127 155.247l-39.574 17.008-30.16 34.118-11.227-7.297 29.801-41.539c1.894-2.653 4.397-4.812 7.298-6.298l44.373-22.694-.51 26.702z" transform="translate(-258 -266) translate(258 266)"/>
                <path fill="#000" d="M340.256 143.914s2.284 8.516 2.273 15.886l-4.547 1.953c.76-2.048 1.35-4.154 1.769-6.298.668-3.808.838-7.688.505-11.54z" opacity=".15" transform="translate(-258 -266) translate(258 266)"/>
                <path fill="#FFF" d="M341.878 98.233c.18.962.58 1.869 1.168 2.65.588.783 1.348 1.418 2.223 1.858.874.439 1.838.67 2.816.675.979.005 1.945-.215 2.824-.646.879-.43 1.647-1.057 2.243-1.833.596-.776 1.005-1.678 1.195-2.638.19-.96.155-1.95-.101-2.895-.257-.945-.728-1.816-1.377-2.549.927-.54 1.993-.8 3.065-.746-.101.696-.101 1.403 0 2.099.228 1.235.818 2.374 1.693 3.274.876.899 1.999 1.52 3.227 1.78 1.228.262 2.506.154 3.672-.31 1.166-.466 2.169-1.265 2.88-2.3.712-1.034 1.102-2.256 1.118-3.511.018-1.256-.338-2.488-1.02-3.542-.683-1.053-1.663-1.88-2.816-2.377-1.154-.497-2.428-.64-3.663-.412-1.154.206-2.227.73-3.1 1.514-.871.783-1.507 1.795-1.834 2.92-1.344-.135-2.693.2-3.817.949-1.004-.857-2.249-1.382-3.563-1.5-1.315-.12-2.634.173-3.775.836-1.142.663-2.05 1.664-2.597 2.865-.547 1.201-.709 2.543-.461 3.839zm14.785-4.148c-.197-1.07-.073-2.173.357-3.17.43-1 1.146-1.848 2.058-2.44.912-.59 1.979-.899 3.066-.883 1.087.015 2.145.352 3.04.968.896.617 1.588 1.485 1.99 2.495.402 1.01.495 2.117.268 3.18-.227 1.063-.764 2.035-1.544 2.792-.78.758-1.766 1.267-2.835 1.464-1.43.248-2.9-.075-4.096-.897-1.196-.822-2.023-2.08-2.304-3.504v-.005zm-13.949 3.98c-.197-1.07-.073-2.173.357-3.171.43-.999 1.146-1.847 2.058-2.438.912-.592 1.979-.9 3.066-.885 1.087.016 2.145.353 3.04.97.896.616 1.588 1.484 1.99 2.494.402 1.01.495 2.117.268 3.18-.227 1.062-.764 2.035-1.544 2.792-.78.758-1.766 1.267-2.835 1.464-1.432.264-2.91-.051-4.11-.876-1.2-.826-2.024-2.093-2.29-3.525v-.006z" transform="translate(-258 -266) translate(258 266)"/>
                <path fill="#000" d="M165.592 323.786s5.052 8.156 5.277 16.464l5.091-6.444-9.941-10.29-.427.27z" opacity=".15" transform="translate(-258 -266) translate(258 266)"/>
                <path fill="#CEDFE9" d="M478.59 330.764l-127.422 82.123c-.978.63-1.758 1.524-2.25 2.58-.492 1.054-.676 2.227-.53 3.381.145 1.155.614 2.245 1.353 3.145.738.9 1.715 1.573 2.82 1.94l127.421 42.465c.926.31 1.92.394 2.885.247.966-.148 1.886-.523 2.678-1.096.797-.572 1.442-1.325 1.886-2.196.449-.872.68-1.836.68-2.815V335.957c0-1.11-.298-2.2-.865-3.154-.567-.954-1.381-1.738-2.352-2.27-.977-.532-2.077-.79-3.183-.75-1.111.041-2.19.38-3.121.981z" transform="translate(-258 -266) translate(258 266)"/>
                <path fill="#BABABA" d="M396.793 250.836h-2.29c-.075 0-.146-.03-.198-.082-.053-.053-.083-.124-.083-.199 0-.074.03-.146.083-.198.052-.053.123-.082.198-.082h2.245c.076-.002.15.027.206.08.056.052.089.124.092.2.002.036-.003.07-.014.104-.012.033-.03.064-.054.09-.023.026-.051.047-.083.062-.032.015-.067.023-.102.025zm-4.541 0h-2.246c-.074 0-.145-.03-.198-.082-.052-.053-.082-.124-.082-.199 0-.074.03-.146.082-.198.053-.053.124-.082.198-.082h2.246c.074 0 .146.03.199.082.052.052.081.124.081.198 0 .075-.03.146-.081.199-.053.052-.125.082-.2.082zm-4.49 0h-2.246c-.075 0-.146-.03-.198-.082-.053-.053-.083-.124-.083-.199 0-.074.03-.146.083-.198.052-.053.123-.082.198-.082h2.245c.075 0 .146.03.199.082.052.052.082.124.082.198 0 .075-.03.146-.082.199-.053.052-.124.082-.199.082zm-4.491 0h-2.246c-.074 0-.146-.03-.198-.082-.053-.053-.082-.124-.082-.199 0-.074.03-.146.082-.198.052-.053.124-.082.198-.082h2.246c.074 0 .145.03.198.082.052.052.082.124.082.198 0 .075-.03.146-.082.199-.053.052-.124.082-.198.082zm-4.491 0h-2.245c-.075 0-.146-.03-.199-.082-.052-.053-.082-.124-.082-.199 0-.074.03-.146.082-.198.053-.053.124-.082.199-.082h2.245c.075 0 .146.03.199.082.052.052.082.124.082.198 0 .075-.03.146-.082.199-.053.052-.124.082-.2.082zm-4.49 0h-.08c-.78 0-1.545-.21-2.217-.606-.032-.019-.06-.044-.083-.073-.023-.03-.04-.063-.05-.1-.009-.036-.01-.073-.006-.11.006-.037.018-.072.037-.104.019-.033.044-.06.074-.083.03-.021.064-.038.1-.047.037-.009.074-.01.11-.004.038.005.073.018.105.038.585.346 1.251.528 1.93.528h.08c.074 0 .145.03.198.082.052.052.082.124.082.198 0 .075-.03.146-.082.199-.053.052-.124.082-.199.082zm24.698-.629c-.06 0-.12-.02-.168-.056-.048-.036-.084-.087-.1-.145-.018-.059-.016-.12.006-.177.02-.057.06-.105.11-.138.595-.376 1.073-.91 1.381-1.544.033-.067.091-.118.161-.142.07-.025.148-.02.215.013s.119.091.143.161c.024.07.019.148-.014.215-.355.725-.905 1.338-1.588 1.768-.028.023-.06.038-.096.046-.035.008-.072.008-.106 0h.056zm-28.454-1.538c-.051 0-.101-.014-.144-.041-.044-.027-.08-.065-.103-.11-.321-.618-.488-1.303-.488-1.999v-.33c.006-.076.041-.145.098-.193.057-.048.13-.072.205-.066.074.006.143.04.192.098.048.057.072.13.066.205v.286c0 .606.146 1.203.427 1.74.017.033.028.068.032.105.003.036-.001.073-.012.108-.01.036-.029.068-.052.096-.025.028-.054.05-.086.068-.042.021-.088.033-.135.033zm30.452-2.245h-.056c-.073-.015-.138-.058-.18-.12-.042-.062-.058-.138-.045-.211l.45-2.212c.007-.037.021-.072.042-.103s.048-.058.08-.079c.03-.02.066-.035.103-.042.037-.008.074-.008.111 0 .037.007.072.021.104.042.03.022.057.048.078.08.02.03.036.066.043.103.007.037.007.074 0 .111l-.45 2.206c-.02.057-.059.105-.11.137-.05.033-.11.048-.17.043v.045zm-30.48-2.128h-.028c-.037-.006-.07-.019-.102-.039-.03-.02-.058-.045-.078-.076-.02-.03-.035-.065-.041-.101-.007-.036-.006-.073.002-.11l.449-2.21c.007-.037.02-.072.04-.103.022-.03.048-.057.079-.078.03-.02.066-.034.102-.04.037-.008.074-.007.11.001.036.008.07.022.101.043.03.02.057.047.077.077.02.031.035.066.042.102.007.036.006.074-.001.11l-.449 2.206c-.024.058-.066.108-.121.14-.055.031-.12.043-.182.034v.044zm31.373-2.363h-.057c-.036-.007-.07-.02-.102-.04-.03-.022-.057-.048-.078-.079-.02-.03-.034-.065-.04-.102-.007-.036-.006-.074.002-.11l.449-2.206c.006-.036.019-.07.039-.102.02-.03.045-.057.076-.078.03-.02.065-.034.101-.041.036-.007.073-.006.11.002.036.007.071.02.102.041.031.02.058.047.08.078.02.03.034.065.042.102.007.036.007.074 0 .11l-.45 2.206c-.013.063-.048.118-.098.158-.05.04-.112.062-.176.061zm-30.48-2.122h-.057c-.036-.007-.07-.021-.1-.042-.031-.02-.057-.047-.078-.078-.02-.03-.034-.065-.041-.101-.007-.036-.007-.074 0-.11l.45-2.206c.006-.036.02-.071.04-.103.02-.031.047-.057.078-.079.03-.02.066-.035.102-.042.036-.008.074-.008.11 0 .073.016.136.06.177.12.04.063.056.138.042.21l-.449 2.212c-.008.067-.04.129-.091.173-.05.045-.116.07-.184.069v-.023zm31.372-2.295h-.056c-.072-.017-.135-.06-.176-.122-.041-.061-.056-.137-.043-.21l.45-2.211c.006-.036.021-.07.042-.101.02-.03.046-.057.077-.077.031-.02.065-.035.102-.042.036-.006.073-.006.11 0 .072.017.135.06.176.122.04.062.056.137.042.21l-.449 2.212c-.008.066-.04.128-.091.173-.05.044-.117.069-.184.068v-.022zm-30.474-2.122h-.057c-.036-.008-.07-.022-.1-.043-.031-.02-.057-.047-.078-.077-.02-.031-.034-.066-.041-.102-.007-.036-.007-.074 0-.11l.444-2.211c.016-.073.06-.135.121-.176.062-.041.137-.056.21-.043.036.007.07.022.101.043.03.02.057.046.077.077.02.031.035.065.042.102.007.036.006.073-.001.11l-.443 2.21c-.011.067-.044.127-.094.17-.05.045-.115.07-.181.072v-.022zm31.372-2.296h-.073c-.036-.007-.07-.022-.1-.043-.031-.02-.057-.046-.078-.077-.02-.031-.034-.065-.041-.102-.007-.036-.007-.073 0-.11l.444-2.21c.016-.073.06-.136.121-.177.062-.041.137-.056.21-.043.036.007.07.022.101.043.03.02.057.046.077.077.02.031.035.065.041.102.008.036.007.073 0 .11l-.444 2.211c-.01.063-.04.122-.087.165-.047.044-.107.07-.17.076v-.022zm-30.48-2.122h-.056c-.073-.016-.135-.06-.176-.121-.041-.062-.056-.137-.043-.21l.449-2.212c.007-.036.02-.071.041-.102.02-.03.047-.057.078-.078.03-.02.066-.034.102-.04.037-.008.074-.007.11.001.036.008.07.022.101.043.03.02.057.047.077.077.02.031.035.066.042.102.007.036.006.074 0 .11l-.45 2.206c-.009.066-.042.128-.092.174-.05.044-.115.07-.183.073v-.023zm31.373-2.301h-.056c-.037-.007-.072-.021-.103-.041-.03-.021-.057-.048-.078-.078-.02-.031-.034-.066-.04-.103-.007-.036-.007-.074.002-.11l.449-2.206c.007-.036.02-.07.04-.102.022-.03.048-.057.079-.078.03-.02.065-.034.102-.04.036-.007.074-.007.11.001.036.008.07.022.101.043.03.02.057.047.077.078.02.03.035.065.041.101.008.036.007.074 0 .11l-.45 2.206c-.009.066-.041.127-.092.171-.05.045-.115.07-.182.07v-.022zm-30.475-2.122h-.056c-.036-.007-.071-.021-.103-.041-.031-.02-.058-.047-.079-.078-.02-.03-.035-.065-.043-.102-.007-.036-.007-.074 0-.11l.45-2.206c.007-.036.021-.07.042-.101.02-.03.047-.057.078-.077.03-.02.065-.035.101-.042.036-.007.074-.007.11 0 .036.007.071.021.102.042.03.02.057.047.078.078.02.03.034.065.04.102.008.036.007.074-.001.11l-.444 2.206c-.01.066-.042.127-.092.172-.05.044-.115.069-.183.07v-.023zm31.34-2.302c-.038-.002-.074-.013-.107-.03-.032-.016-.062-.04-.086-.067-.024-.028-.042-.062-.054-.096-.01-.036-.015-.073-.012-.11v-.27c0-.611-.148-1.214-.432-1.756-.024-.064-.024-.135 0-.2.024-.064.071-.117.132-.149.06-.031.132-.04.198-.023.067.016.125.057.164.114.33.62.502 1.312.5 2.015.005.105.005.21 0 .314 0 .039-.009.078-.024.113-.015.035-.038.068-.066.094-.03.027-.063.046-.1.06-.036.012-.075.017-.114.014v-.023zm-30.313-2.077c-.042 0-.084-.01-.123-.028-.066-.033-.116-.092-.14-.162-.025-.07-.02-.146.01-.214.354-.728.907-1.34 1.595-1.768.03-.02.066-.034.103-.04.036-.007.074-.006.11.002.036.009.07.024.1.046s.055.05.074.082c.038.063.05.14.033.212-.016.072-.06.135-.123.175-.598.37-1.08.904-1.386 1.538-.021.052-.057.096-.103.128-.046.032-.1.05-.155.052l.005-.023zm28.325-1.712c-.05.001-.098-.013-.14-.039-.582-.343-1.245-.524-1.92-.522h-.095c-.075 0-.146-.03-.2-.082-.051-.053-.081-.124-.081-.199 0-.074.03-.146.082-.198.053-.053.124-.082.199-.082h.067c.774-.001 1.534.206 2.2.6.053.032.094.08.117.136.023.057.027.12.011.179s-.05.11-.099.148c-.048.038-.108.059-.169.06h.028zm-4.406-.561h-2.246c-.074 0-.146-.03-.198-.082-.053-.053-.082-.124-.082-.199 0-.074.03-.146.082-.198.052-.053.124-.082.198-.082h2.246c.074 0 .146.03.198.082.053.052.082.124.082.198 0 .075-.03.146-.082.2-.052.051-.124.081-.198.081zm-4.491 0h-2.245c-.075 0-.146-.03-.199-.082-.052-.053-.082-.124-.082-.199 0-.074.03-.146.082-.198.053-.053.124-.082.199-.082h2.245c.075 0 .146.03.199.082.052.052.082.124.082.198 0 .075-.03.146-.082.2-.053.051-.124.081-.199.081zm-4.49 0h-2.246c-.075 0-.146-.03-.199-.082-.052-.053-.082-.124-.082-.199 0-.074.03-.146.082-.198.053-.053.124-.082.2-.082h2.244c.075 0 .146.03.2.082.051.052.081.124.081.198 0 .075-.03.146-.082.2-.053.051-.124.081-.199.081zm-4.491 0h-2.246c-.074 0-.146-.03-.198-.082-.052-.053-.082-.124-.082-.199 0-.074.03-.146.082-.198.052-.053.124-.082.198-.082h2.246c.074 0 .146.03.198.082.053.052.082.124.082.198 0 .075-.03.146-.082.2-.052.051-.124.081-.198.081zm-4.49 0h-2.246c-.038 0-.075-.006-.11-.02-.035-.013-.067-.034-.095-.06-.026-.026-.048-.057-.063-.092-.015-.034-.024-.071-.024-.109 0-.036.005-.073.019-.107.013-.034.034-.064.06-.09.025-.027.056-.048.09-.062.033-.014.07-.021.106-.021h2.245c.075 0 .146.03.199.082.052.052.082.124.082.198 0 .075-.03.146-.082.2-.053.051-.124.081-.199.081h.017zM385.32 299.346c-.075 0-.147-.03-.2-.082-.052-.053-.081-.124-.081-.199 0-.074.029-.145.082-.198.052-.053.124-.082.198-.082h2.246c.076-.001.15.027.206.08.055.052.088.124.091.2.001.037-.004.073-.017.107-.013.034-.033.065-.058.092-.025.026-.055.047-.089.06-.033.015-.069.022-.105.022v-.28.28h-2.274zm-2.246 0h-2.245c-.075 0-.146-.03-.199-.082-.053-.053-.082-.124-.082-.199 0-.074.03-.145.082-.198.053-.053.124-.082.199-.082h2.245c.074 0 .146.03.198.082.053.053.083.124.083.198 0 .075-.03.146-.083.2-.052.052-.124.081-.198.081zm-4.49 0h-2.246c-.075 0-.146-.03-.199-.082-.052-.053-.082-.124-.082-.199 0-.074.03-.145.082-.198.053-.053.124-.082.2-.082h2.244c.075 0 .146.03.199.082.052.053.082.124.082.198 0 .075-.03.146-.082.2-.053.052-.124.081-.199.081zm-4.491 0h-2.246c-.074 0-.146-.03-.198-.082-.053-.053-.082-.124-.082-.199 0-.074.029-.145.082-.198.052-.053.124-.082.198-.082h2.246c.074 0 .146.03.198.082.053.053.082.124.082.198 0 .075-.03.146-.082.2-.052.052-.124.081-.198.081zm-4.49 0h-2.246c-.075 0-.146-.03-.199-.082-.053-.053-.082-.124-.082-.199 0-.074.03-.145.082-.198.053-.053.124-.082.199-.082h2.245c.074 0 .146.03.198.082.053.053.083.124.083.198 0 .075-.03.146-.083.2-.052.052-.124.081-.198.081zm-4.492 0h-.078c-.78 0-1.545-.21-2.217-.606-.033-.018-.061-.043-.084-.073-.022-.03-.04-.063-.049-.099-.01-.036-.012-.073-.007-.11.005-.038.018-.073.037-.105s.044-.06.074-.082c.03-.022.064-.039.1-.048.036-.008.074-.01.111-.004.037.006.072.019.104.038.585.346 1.252.528 1.93.528h.08c.074 0 .145.03.198.082.052.053.082.124.082.198 0 .075-.03.146-.082.2-.053.052-.124.081-.199.081zm24.699-.629c-.06 0-.12-.02-.168-.056-.048-.036-.083-.087-.1-.145-.018-.058-.015-.12.005-.177.022-.057.06-.105.111-.138.595-.376 1.074-.91 1.381-1.544.033-.067.091-.118.161-.142.071-.024.148-.02.215.013s.118.091.143.162c.024.07.02.147-.013.214-.357.727-.906 1.34-1.589 1.774-.03.021-.066.035-.103.042-.036.007-.074.006-.11-.003h.067zm-28.392-1.56c-.051 0-.101-.015-.145-.041-.043-.027-.078-.065-.102-.11-.32-.618-.488-1.303-.488-1.999v-.331c0-.037.01-.074.026-.108s.04-.064.068-.088c.029-.024.062-.042.098-.053.035-.01.074-.014.11-.01.038.003.074.013.106.03.033.017.063.04.087.069.024.028.042.06.054.096.01.035.015.072.012.109-.006.095-.006.191 0 .286 0 .606.146 1.203.427 1.74.033.066.04.142.017.212-.021.071-.07.13-.135.164-.062.035-.133.047-.202.034h.067zm30.446-2.245h-.056c-.072-.016-.135-.06-.176-.122-.04-.061-.056-.137-.043-.21l.45-2.211c.014-.074.058-.14.121-.182.063-.042.14-.057.215-.043.074.015.14.06.182.123.042.062.057.14.043.214l-.45 2.212c-.008.036-.025.07-.047.098-.022.03-.05.054-.082.072-.032.019-.067.03-.104.035-.036.005-.073.002-.109-.009l.056.023zm-30.474-2.128h-.056c-.037-.006-.072-.02-.102-.04-.031-.021-.058-.047-.078-.078-.02-.032-.035-.066-.041-.102-.007-.037-.007-.075.002-.111l.382-2.245c.006-.037.02-.072.04-.103.02-.03.048-.057.079-.077.03-.02.065-.035.102-.042.036-.006.073-.005.11.003.036.008.07.022.1.042.031.021.057.048.078.078.02.03.034.065.041.101.007.037.007.074 0 .11l-.45 2.206c-.01.066-.044.125-.094.168-.05.044-.114.068-.18.068l.067.022zm31.373-2.29h-.057c-.036-.007-.07-.021-.1-.042-.031-.021-.057-.047-.077-.078-.021-.031-.035-.065-.042-.101-.007-.037-.007-.074 0-.11l.444-2.212c.007-.036.022-.072.043-.103.02-.031.047-.058.079-.079.031-.02.066-.035.103-.042.037-.008.075-.008.112 0 .036.007.072.021.103.043.031.02.058.047.079.079.02.03.035.066.042.103.008.037.008.075 0 .111l-.443 2.206c-.01.037-.027.072-.05.101-.023.03-.052.055-.085.074-.033.019-.069.031-.106.036-.038.005-.076.002-.113-.009l.068.023zm-30.48-2.128h-.057c-.036-.007-.07-.02-.1-.042-.032-.02-.057-.047-.078-.078-.02-.03-.034-.065-.041-.1-.008-.037-.007-.074 0-.11l.45-2.212c.007-.036.021-.07.041-.101.021-.03.048-.057.079-.077.03-.02.065-.035.101-.042.036-.007.073-.007.11 0 .071.017.135.06.176.123.04.061.056.136.042.209l-.449 2.212c-.009.035-.025.07-.047.098-.022.03-.05.054-.082.072-.032.019-.068.03-.104.035-.037.004-.074.001-.109-.009l.067.022zm31.372-2.295h-.056c-.037-.008-.07-.022-.101-.042-.03-.021-.057-.048-.077-.079-.02-.03-.035-.065-.041-.1-.008-.037-.007-.074 0-.11l.45-2.207c.014-.074.058-.14.12-.181.064-.043.141-.058.216-.043.074.015.14.059.182.122.042.063.057.14.042.215l-.449 2.206c-.01.036-.027.07-.05.1-.023.03-.052.055-.085.073-.032.019-.069.03-.107.034-.037.004-.075 0-.111-.01l.067.022zm-30.474-2.122h-.057c-.036-.008-.07-.022-.1-.042-.032-.021-.057-.047-.078-.078-.02-.031-.034-.065-.041-.101-.007-.037-.007-.074 0-.11l.444-2.212c.016-.072.06-.135.121-.176.062-.04.137-.056.21-.043.037.007.071.02.102.042.031.02.058.046.078.077.02.03.035.066.041.102.007.037.006.074-.002.11l-.443 2.212c-.022.07-.069.13-.132.167-.064.037-.14.047-.21.03l.067.022zm31.372-2.296h-.056c-.036-.007-.07-.021-.1-.042-.032-.02-.058-.047-.078-.078-.02-.031-.035-.065-.041-.101-.008-.037-.007-.074 0-.11l.444-2.212c.016-.072.06-.135.12-.176.063-.04.138-.056.21-.043.037.008.071.022.102.043.03.02.057.047.077.078.02.03.034.065.041.1.007.037.007.074 0 .11l-.444 2.212c-.02.071-.067.132-.13.169-.064.036-.14.047-.212.027l.067.023zm-30.48-2.127h-.056c-.037-.008-.07-.022-.101-.043-.031-.02-.057-.047-.077-.078-.02-.03-.035-.065-.042-.1-.007-.037-.006-.074.001-.11l.449-2.207c.007-.036.02-.071.041-.102.02-.03.047-.057.078-.077.03-.021.066-.035.102-.042.037-.007.074-.005.11.002.036.008.07.022.101.043.03.02.057.047.077.078.02.03.034.065.042.101.006.037.006.074 0 .11l-.45 2.206c-.02.07-.067.131-.13.169-.065.036-.141.046-.212.027l.067.023zm31.373-2.29h-.056c-.037-.008-.071-.022-.101-.043-.031-.02-.057-.047-.077-.078-.021-.03-.035-.065-.042-.1-.007-.037-.007-.074 0-.11l.45-2.213c.007-.035.022-.07.042-.1.02-.03.047-.057.078-.077.03-.02.065-.035.101-.042.036-.007.073-.007.11 0 .036.008.07.022.101.043.03.021.057.047.077.078.02.03.034.065.041.101.007.037.007.074 0 .11l-.45 2.211c-.02.071-.068.13-.131.167-.064.037-.14.047-.21.03l.067.022zm-30.475-2.128h-.106c-.037-.006-.072-.02-.103-.041-.03-.02-.057-.047-.078-.078-.02-.031-.034-.065-.04-.102-.007-.036-.007-.074.002-.11l.443-2.212c.017-.071.061-.134.122-.174.062-.041.136-.057.21-.045.035.008.07.022.1.043.03.02.057.047.077.078.02.03.034.065.042.1.006.037.006.074 0 .11l-.444 2.212c-.02.061-.059.114-.112.15-.053.036-.117.052-.18.046l.067.023zm31.272-2.302c-.037-.001-.073-.01-.106-.027-.033-.016-.062-.039-.086-.067-.024-.027-.042-.06-.054-.095-.011-.035-.016-.071-.012-.108v-.275c0-.61-.148-1.212-.433-1.752-.017-.032-.028-.068-.031-.105-.003-.037 0-.074.011-.11.01-.035.029-.068.052-.097.025-.028.053-.052.086-.07.033-.016.069-.027.106-.03.037-.004.074 0 .11.011.035.01.068.029.096.052.029.024.053.053.07.086.324.622.494 1.313.494 2.015.006.105.006.21 0 .314-.002.038-.012.074-.028.107-.017.034-.04.063-.069.087-.028.025-.06.042-.096.054-.036.01-.073.014-.11.01zm-30.312-2.077c-.044.001-.086-.01-.123-.033-.034-.016-.063-.039-.088-.066-.024-.028-.043-.06-.055-.095-.012-.035-.017-.072-.015-.11.003-.036.012-.072.028-.105.356-.726.909-1.336 1.595-1.763.03-.02.065-.034.102-.04.037-.007.074-.006.11.003.036.008.07.024.1.046.03.021.056.049.075.08.038.065.05.14.033.213-.017.072-.06.135-.123.175-.598.374-1.08.906-1.392 1.538-.026.044-.063.079-.108.102-.044.024-.095.035-.145.033l.006.022zm28.325-1.684c-.05.002-.1-.012-.14-.039-.582-.343-1.245-.523-1.92-.522h-.09c-.075 0-.146-.029-.199-.082-.052-.053-.082-.124-.082-.199 0-.074.03-.145.082-.198.053-.052.124-.082.199-.082h.09c.775-.001 1.537.206 2.206.6.063.04.107.1.125.172.018.071.007.147-.03.21-.03.034-.07.06-.112.076-.043.016-.09.02-.135.014l.006.05zm-4.407-.56h-2.245c-.075 0-.146-.03-.199-.083-.052-.053-.082-.124-.082-.199 0-.074.03-.145.082-.198.053-.052.124-.082.199-.082h2.245c.074 0 .146.03.198.082.053.053.083.124.083.198 0 .075-.03.146-.083.2-.052.052-.124.081-.198.081zm-4.49 0h-2.246c-.074 0-.146-.03-.198-.083-.053-.053-.082-.124-.082-.199 0-.074.029-.145.082-.198.052-.052.124-.082.198-.082h2.246c.074 0 .146.03.198.082.053.053.082.124.082.198 0 .075-.03.146-.082.2-.052.052-.124.081-.198.081zm-4.491 0h-2.245c-.075 0-.146-.03-.199-.083-.053-.053-.082-.124-.082-.199 0-.074.03-.145.082-.198.053-.052.124-.082.199-.082h2.245c.074 0 .146.03.198.082.053.053.083.124.083.198 0 .075-.03.146-.083.2-.052.052-.124.081-.198.081zm-4.49 0h-2.246c-.075 0-.146-.03-.199-.083-.052-.053-.082-.124-.082-.199 0-.074.03-.145.082-.198.053-.052.124-.082.2-.082h2.244c.074 0 .146.03.199.082.052.053.082.124.082.198 0 .075-.03.146-.082.2-.053.052-.125.081-.199.081zm-4.491 0h-2.246c-.037 0-.074-.006-.109-.02-.034-.014-.066-.035-.093-.06-.027-.027-.047-.058-.062-.093-.015-.034-.022-.07-.022-.109.001-.039.01-.078.028-.113.016-.036.04-.067.07-.094.028-.026.063-.046.1-.059.038-.012.077-.017.116-.014h2.212c.074 0 .146.03.198.082.053.053.083.124.083.198 0 .075-.03.146-.083.2-.052.052-.124.081-.198.081h.006z" transform="translate(-258 -266) translate(258 266)"/>
                <path fill="#203B95" d="M416.726 251.167l-22.453 7.539c-.443.143-.924.106-1.338-.105-.415-.21-.729-.576-.874-1.018l-7.539-22.453c-.143-.442-.106-.923.105-1.338.21-.414.576-.728 1.018-.874l22.453-7.538c.442-.144.924-.106 1.338.104.415.21.729.577.874 1.018l7.538 22.453c.138.443.098.922-.112 1.334-.21.413-.572.728-1.01.878z" transform="translate(-258 -266) translate(258 266)"/>
                <path fill="#203B95" d="M416.726 251.167l-22.453 7.539c-.443.143-.924.106-1.338-.105-.415-.21-.729-.576-.874-1.018l-7.539-22.453c-.143-.442-.106-.923.105-1.338.21-.414.576-.728 1.018-.874l22.453-7.538c.442-.144.924-.106 1.338.104.415.21.729.577.874 1.018l7.538 22.453c.138.443.098.922-.112 1.334-.21.413-.572.728-1.01.878z" transform="translate(-258 -266) translate(258 266)"/>
                <path fill="#FFF" d="M420.038 253.11l-27.22 9.143c-.532.177-1.114.136-1.616-.115-.503-.25-.886-.688-1.066-1.22l-9.144-27.22c-.177-.532-.135-1.114.115-1.616.25-.503.689-.886 1.22-1.067l27.22-9.144c.533-.176 1.114-.134 1.616.116.503.25.886.689 1.067 1.22l9.144 27.22c.167.532.121 1.11-.128 1.61-.248.5-.682.885-1.208 1.072z" transform="translate(-258 -266) translate(258 266)"/>
                <path fill="#203B95" d="M416.726 251.167l-22.453 7.539c-.443.143-.924.106-1.338-.105-.415-.21-.729-.576-.874-1.018l-7.539-22.453c-.143-.442-.106-.923.105-1.338.21-.414.576-.728 1.018-.874l22.453-7.538c.442-.144.924-.106 1.338.104.415.21.729.577.874 1.018l7.538 22.453c.138.443.098.922-.112 1.334-.21.413-.572.728-1.01.878z" transform="translate(-258 -266) translate(258 266)"/>
                <path fill="#FFF" d="M399.666 237.858c.452-.152.85-.433 1.14-.81.292-.377.465-.832.498-1.307.032-.475-.077-.95-.313-1.363-.237-.413-.59-.747-1.018-.959-.426-.212-.906-.293-1.379-.232-.472.06-.916.26-1.275.573-.36.312-.618.725-.742 1.185-.125.46-.11.946.041 1.397.205.604.64 1.103 1.212 1.387.571.284 1.231.33 1.836.129zM392.083 257.65l-2.077-6.174 6.529-9.408c.127-.181.31-.315.522-.379.212-.064.44-.055.645.025l3.93 1.634 4.49-6.854c.128-.19.317-.33.536-.396.219-.067.454-.056.666.031l7.15 2.975 3.369 9.964c.144.442.106.923-.105 1.337-.21.415-.576.729-1.018.874l-22.414 7.494c-.444.126-.919.081-1.33-.127-.413-.208-.73-.563-.893-.996z" opacity=".8" transform="translate(-258 -266) translate(258 266)"/>
                <path fill="#FB9C9C" d="M384.421 314.636l4.17-44.345 3.105-10.458c.152-.387 1.83-5.186 2.492-7.566.1-.352.078-.727-.062-1.065-.141-.337-.392-.617-.712-.793-.363-.198-.787-.25-1.186-.146-.4.105-.745.357-.964.707l-1.65 2.56c-.158.145-.349.25-.556.305-.208.055-.425.058-.634.01-.21-.048-.404-.146-.566-.286-.162-.14-.288-.318-.366-.518l-3.537-10.946-.976.174c-.447.076-.853.306-1.148.65-.295.342-.461.778-.469 1.23l-.04.843c-.05.21-.15.403-.29.566-.141.163-.318.29-.518.371l-.623.23c-.898.382-1.28 1.449-1.319 2.431l.034.91c0 .235-.081.462-.228.646-.147.184-.351.312-.58.364-.472.045-.906.276-1.208.64-.302.366-.447.836-.403 1.308l-.08 1.757-.066.073c-.504.31-.895.775-1.115 1.325-.22.55-.259 1.155-.11 1.728l3.459 14.735-11.564 43.222c-.568 2.123-.338 4.38.646 6.344l20.82 41.583 21.274-16.509-25.03-32.08z" transform="translate(-258 -266) translate(258 266)"/>
                <path fill="#203B95" d="M449.94 398.589L468.121 420.156 483.081 403.636 464.338 371.971 437.652 364.522 419.892 360.054 396.58 330.202 378.572 344.039 400.616 387.986 403.495 440.902 471.59 463.602 464.102 415.39z" transform="translate(-258 -266) translate(258 266)"/>
                <path fill="#F59696" d="M445.752 333.475l2.504 20.539c.106.808.471 1.561 1.033 2.15.566.59 1.302.984 2.105 1.128l1.779 6.366s-24.165-1.123-25.21-1.611l-4.091-1c1.453-.56 2.862-3.289 2.902-4.793l.398-24.733 18.58 1.954z" transform="translate(-258 -266) translate(258 266)"/>
                <path fill="#F59696" d="M425.988 352.302l.937.281c1.607.457 3.289.593 4.949.4 1.66-.193 3.266-.71 4.725-1.525 1.46-.813 2.745-1.907 3.782-3.217 1.038-1.311 1.807-2.813 2.261-4.42l4.873-17.205c.151-.538.196-1.1.134-1.656-.067-.555-.24-1.092-.516-1.58-.27-.487-.64-.916-1.078-1.262-.438-.345-.943-.6-1.482-.75l-16.087-4.609c-.698-.198-1.427-.256-2.147-.172-.72.085-1.416.31-2.05.663-.632.353-1.189.828-1.638 1.397-.45.568-.782 1.22-.98 1.918l-4.524 15.992c-.884 3.254-.454 6.725 1.198 9.666 1.651 2.94 4.392 5.113 7.631 6.051" transform="translate(-258 -266) translate(258 266)"/>
                <path fill="#F59696" d="M418.427 332.307c-1.082.968-2.074 2.031-2.964 3.177-.92 1.342 1.734 2.027 1.734 2.027l1.23-5.204z" transform="translate(-258 -266) translate(258 266)"/>
                <g fill="#000" opacity=".15">
                    <path d="M2.442 0.466L0.488 0.466 2.56 4.597z" transform="translate(-258 -266) translate(258 266) translate(446.257 342.411)"/>
                </g>
                <g fill="#000" opacity=".15">
                    <path d="M4.839.51S2.105.742.202.007l-.04 3.536L4.84.511z" transform="translate(-258 -266) translate(258 266) translate(426.61 352.515)"/>
                </g>
                <path fill="#000" d="M416.793 341.428c1.625.04 3.2-.565 4.379-1.684.049-.053.076-.124.075-.197-.001-.073-.03-.143-.081-.196-.051-.052-.12-.083-.193-.086-.073-.003-.145.022-.2.07-1.1 1.002-2.542 1.548-4.03 1.526l.05.567z" opacity=".2" transform="translate(-258 -266) translate(258 266)"/>
                <path fill="#000" d="M434.7 332.645s4.26 11.692-2.475 19.164c-3.778 4.165-26.574 35.734 22.755 44.794 4.345.824 8.79.987 13.18.482 11.75-1.437 17.581-7.044 17.834-12.467.859-13.505-17.44-18.383-18.49-30.598-.646-7.533 3.654-38.39-16.997-45.647-19.5-6.86-30.874 4.064-30.671 8.016.202 3.951-.522 9.509 14.864 16.256z" transform="translate(-258 -266) translate(258 266)"/>
                <path fill="#F59696" d="M433.52 340.087s5.49.224 6.45-5.204-5.792-6.22-6.539-.718l-.365 6 .455-.078z" transform="translate(-258 -266) translate(258 266)"/>
                <path fill="#FFF" d="M433.7 333.419L433.869 332.639 419.067 327.901 418.898 328.687z" transform="translate(-258 -266) translate(258 266)"/>
                <path fill="#FFF" d="M418.107 332.47c.074-.013.144-.046.2-.097.057-.051.098-.116.12-.19l2.01-7.05c.014-.05.02-.103.014-.154-.006-.053-.022-.103-.048-.149-.026-.046-.06-.085-.102-.117-.042-.032-.09-.055-.14-.068-.102-.028-.21-.014-.303.037s-.161.137-.19.238l-2 7.05c-.014.051-.018.104-.012.156.006.052.022.103.048.149.025.045.06.086.1.118.042.033.09.057.14.072.057.01.116.01.174 0" transform="translate(-258 -266) translate(258 266)"/>
                <path fill="#000" d="M434.004 332.308c-.372 1.048-.592 2.145-.652 3.256-.015.178-.1.343-.238.458-.136.116-.313.173-.491.16-.176-.018-.338-.103-.453-.237-.115-.133-.174-.306-.165-.482l.348-4.805 1.65 1.65zM438.719 332.01c-.157-.207-.36-.373-.593-.489-.231-.114-.487-.174-.746-.174-.26 0-.515.06-.747.174-.232.116-.435.282-.592.488-.438.476-.745 1.056-.892 1.684l-.18.562c-.008.076.011.152.056.215.043.062.108.106.183.124.074.018.152.009.22-.027s.12-.095.147-.166l.18-.562c.137-.52.388-1.003.735-1.414.096-.147.227-.268.381-.352.155-.083.328-.127.503-.127.176 0 .349.044.503.127.155.084.285.205.381.352.029.029.063.051.1.067.038.016.079.024.12.024.04 0 .08-.008.118-.024.037-.016.072-.038.1-.067.03-.028.054-.063.07-.1.016-.038.024-.078.024-.12 0-.04-.008-.08-.025-.118-.015-.038-.039-.072-.069-.1" transform="translate(-258 -266) translate(258 266)"/>
                <g fill="#000" opacity=".15">
                    <path d="M.64 2.212c.158-.004.313-.04.456-.103.144-.065.274-.157.381-.272.108-.115.192-.25.246-.398.055-.148.08-.305.073-.462-.024-.217-.104-.424-.23-.6.145.097.267.226.358.376.09.15.146.319.164.493.007.145-.014.29-.064.426-.05.135-.128.26-.228.365-.1.105-.22.189-.353.245-.133.058-.277.087-.421.087-.231.023-.462-.043-.646-.185.107 0 .208 0 .264.033" transform="translate(-258 -266) translate(258 266) translate(434.47 336.798)"/>
                </g>
                <path fill="#000" d="M435.85 339.723s-.999.253-1.336.303c-.336.05-1.448.112-1.448.112s1.398 1.892 2.807 2.285c-.023-.011.056-1.948-.023-2.7z" opacity=".15" transform="translate(-258 -266) translate(258 266)"/>
                <path fill="#FB9C9C" d="M538.877 378.948c.18-.178.292-.417.309-.672.01-.253-.068-.504-.225-.704-.146-.197-.36-.33-.6-.368-.242-.039-.495.02-.691.16l-5.748 4.542s4.288-4.334 6.175-6.175c.218-.223.348-.52.353-.834.006-.313-.106-.617-.314-.85-.185-.182-.432-.291-.69-.307-.264-.015-.517.064-.725.223l-6.455 5.333s3.25-3.958 4.665-5.664c.084-.1.151-.217.19-.343.04-.126.057-.258.045-.39-.016-.132-.05-.26-.112-.376-.062-.118-.146-.22-.247-.306-.196-.158-.449-.238-.702-.222-.258.015-.493.125-.673.307l-8.207 8.498c-.207.292-.752.208-.415-.331.505-.808.937-1.659 1.29-2.543.416-1.207.293-2.29-.875-2.874-.073-.017-.151-.01-.219.02-.067.03-.123.083-.157.148l-3.75 4.665c-.82 1.2-1.504 2.486-2.043 3.834l-1.46 3.626-1.167 3.273-26.163 23.834-7.174-10.783-14.96 16.52 9.6 12.635c.858 1.135 1.964 2.063 3.232 2.717 1.263.654 2.661 1.018 4.081 1.064 1.426.047 2.84-.224 4.148-.793 1.303-.57 2.47-1.424 3.402-2.5L526.05 394.8l12.535-12.619c.123-.141.202-.32.213-.508.017-.188-.028-.376-.129-.536-.112-.15-.275-.255-.46-.293-.185-.039-.376-.008-.54.085l-3.625 2.874s3.149-3.357 4.833-4.855z" transform="translate(-258 -266) translate(258 266)"/>
                <path fill="#000" d="M400.616 387.98L405.561 395.485 408.295 442.508 403.495 440.902zM419.875 360.053l-6.585-1.218-32.428-42.28 5.333-48.397s7.27-13.887 7.241-17.744l.298.247c.23.191.4.446.484.733.085.287.083.593-.007.878l-5.613 18.025-4.171 44.345 35.448 45.411zM464.102 415.389L461.34 395.002 470.529 417.494 468.121 420.155z" opacity=".15" transform="translate(-258 -266) translate(258 266)"/>
                <path fill="#000" d="M418.651 440.386c-.01.153-.076.297-.184.405-.108.108-.253.174-.405.185h-4.059c-.147-.017-.285-.086-.388-.193-.102-.108-.163-.248-.173-.397.016-.143.08-.277.182-.38.102-.101.236-.165.38-.18h4.058c.365-.029.69.257.59.56zM425.05 389.703c-.017.148-.085.285-.193.388-.108.102-.248.164-.396.173h-4.059c-.148-.01-.289-.07-.396-.173-.108-.103-.176-.24-.193-.388.017-.148.085-.285.193-.388.107-.102.248-.163.396-.174h4.059c.37-.028.662.264.59.562zM414.205 398.92c-.01.149-.07.289-.173.397-.103.107-.24.175-.388.192h-4.058c-.148-.017-.285-.085-.388-.192-.102-.108-.164-.248-.174-.397.016-.143.08-.277.182-.38.102-.101.236-.166.38-.182h4.058c.337-.028.618.264.561.562zM450.316 403.108c-.017.148-.084.285-.191.388-.112.103-.253.164-.399.173h-4.03c-.146-.01-.286-.07-.399-.173-.106-.103-.174-.24-.19-.388.016-.148.084-.285.19-.387.113-.103.253-.165.399-.174h4.058c.337-.028.635.263.562.56zM459.078 422.165c-.017.144-.078.277-.18.38-.106.102-.235.166-.381.181h-4.059c-.146-.015-.275-.08-.381-.181-.101-.103-.163-.236-.18-.38.011-.148.073-.288.174-.396.101-.108.241-.176.387-.193h4.059c.337-.017.65.297.561.59zM442.676 447.228c-.017.144-.079.278-.18.38-.106.102-.235.166-.381.182h-4.059c-.148-.01-.289-.072-.397-.174-.107-.103-.175-.24-.192-.388.01-.153.076-.296.184-.405.108-.108.253-.174.405-.184h4.059c.337 0 .634.298.561.59zM418.651 367.262c-.01.153-.076.297-.184.405-.108.109-.253.174-.405.184h-4.059c-.147-.017-.285-.085-.388-.193-.102-.107-.163-.248-.173-.396.016-.144.08-.277.182-.38.102-.102.236-.166.38-.181h4.058c.365-.028.69.263.59.56zM394.424 357.775c-.016.144-.08.277-.182.38-.102.102-.236.166-.38.182h-4.058c-.143-.016-.277-.08-.38-.183-.101-.102-.165-.235-.18-.379.015-.143.079-.277.18-.379.103-.102.237-.166.38-.182h4.059c.342-.028.634.264.561.561zM404.225 371.382c-.016.143-.08.277-.182.379-.102.102-.236.166-.38.182h-4.058c-.149-.01-.289-.07-.397-.174-.107-.102-.175-.24-.192-.387.01-.153.076-.297.184-.405.108-.109.253-.174.405-.184h4.059c.336 0 .634.297.561.59zM400.374 346.42c-.01.148-.07.288-.173.396-.103.107-.24.176-.388.193h-4.075c-.153-.011-.297-.076-.405-.185-.109-.108-.174-.252-.185-.405.017-.147.086-.285.193-.388.108-.102.248-.164.397-.173h4.058c.36-.028.651.27.578.561zM439.813 425.679c-.145.048-.303.043-.444-.015-.142-.057-.26-.164-.33-.3l-1.578-3.738c-.047-.145-.042-.303.015-.445.058-.142.164-.259.3-.33.145-.048.303-.043.445.015.142.058.259.164.33.3l1.577 3.738c.034.071.054.149.056.227.003.08-.01.157-.04.23-.03.074-.075.14-.131.195-.058.054-.125.096-.2.123zM433.706 396.973c-.065-.14-.075-.3-.03-.447.043-.147.14-.274.271-.356l3.57-1.925c.14-.064.3-.075.447-.03.148.044.275.14.356.271.064.14.075.3.031.447-.044.148-.141.275-.272.356l-3.57 1.926c-.068.041-.143.067-.222.078-.078.01-.158.003-.234-.019-.076-.023-.146-.062-.206-.113-.06-.052-.108-.116-.141-.188zM426.79 412.381c-.064-.14-.075-.3-.03-.447.044-.147.14-.274.272-.356l3.57-1.925c.14-.064.298-.075.447-.03.147.044.274.14.355.271.065.14.076.3.03.447-.043.148-.14.275-.27.356l-3.57 1.925c-.069.042-.144.069-.223.079-.078.01-.158.003-.234-.019-.075-.023-.146-.062-.205-.113-.06-.052-.108-.116-.142-.188zM386.65 349.023c-.155-.016-.298-.09-.402-.206-.104-.116-.16-.266-.16-.422l.259-4.053c.016-.155.09-.298.206-.402.116-.103.266-.16.422-.16.155.017.298.09.402.207.103.116.16.267.16.422l-.259 4.053c-.028.376-.336.651-.628.561zM409.283 381.918c-.064-.14-.076-.299-.031-.447.044-.148.141-.274.272-.355l3.57-1.926c.14-.064.3-.075.447-.03.147.044.274.14.356.272.064.14.075.299.03.446-.044.148-.14.274-.272.356l-3.57 1.926c-.067.04-.143.068-.22.078-.08.01-.16.004-.235-.02-.076-.022-.146-.06-.206-.112-.06-.052-.108-.116-.141-.188zM453.23 451.725c-.063-.14-.074-.3-.029-.447.04-.148.14-.275.27-.356l3.57-1.925c.14-.064.297-.076.449-.031.146.044.269.141.353.272.062.14.073.3.028.447-.039.147-.14.274-.27.356l-3.57 1.925c-.067.042-.14.068-.218.079-.079.01-.163.003-.236-.02-.078-.022-.146-.061-.208-.113-.056-.051-.106-.115-.14-.187zM431.304 432.904c.073.135.096.29.062.44-.033.15-.119.283-.242.374l-3.419 2.189c-.134.074-.29.095-.44.062-.15-.032-.282-.119-.374-.242-.073-.134-.095-.29-.062-.44.033-.15.12-.283.242-.374l3.419-2.189c.064-.045.137-.077.213-.093.077-.016.157-.015.234.002.076.017.149.05.212.096.063.047.116.106.155.175zM415.755 425.488c-.135.074-.292.097-.443.065-.15-.031-.284-.117-.377-.24l-2.245-3.401c-.075-.135-.098-.291-.066-.442.032-.15.117-.284.24-.378.135-.074.291-.097.442-.065.15.032.284.117.377.24l2.246 3.401c.046.064.079.137.096.214.017.077.017.158 0 .235-.017.078-.05.15-.096.215-.046.063-.106.116-.174.156zM403.95 359.97c-.135.074-.291.098-.442.066-.15-.032-.284-.117-.378-.24l-2.217-3.401c-.074-.135-.098-.292-.066-.443.032-.15.118-.284.24-.377.135-.075.292-.098.442-.066.15.032.285.117.378.24l2.245 3.402c.046.065.077.14.091.218.015.079.013.16-.006.237-.02.077-.055.15-.104.213-.05.063-.112.114-.183.151zM473.308 405.28c-.135.074-.292.097-.444.065-.151-.031-.28-.116-.376-.24l-2.245-3.401c-.073-.135-.095-.291-.067-.442.033-.15.118-.284.241-.378.135-.074.292-.097.443-.065.152.032.281.117.377.24l2.245 3.401c.045.064.078.137.095.215.017.076.017.157 0 .234-.017.078-.05.15-.095.215-.045.063-.107.116-.174.156zM452.628 439.712c-.134.074-.291.097-.443.065-.152-.032-.28-.116-.376-.24l-2.217-3.401c-.073-.135-.096-.292-.068-.442.034-.15.118-.284.242-.378.134-.074.292-.097.443-.065.152.032.28.117.376.24l2.217 3.401c.045.064.079.137.096.215.017.076.017.157 0 .234-.017.077-.05.15-.096.214-.044.064-.106.117-.174.157z" opacity=".6" transform="translate(-258 -266) translate(258 266)"/>
                <path fill="#203B95" d="M467.588 277.645h50.115c.478 0 .932.19 1.269.526.337.337.528.794.528 1.27v19.793c0 .236-.045.47-.135.687-.09.218-.225.416-.393.583-.163.167-.365.299-.578.39-.22.09-.455.136-.69.136h-39.647l-10.47 7.904c-.162.115-.358.183-.56.197-.203.015-.399-.025-.584-.115-.18-.09-.331-.227-.438-.397-.112-.17-.174-.365-.18-.567v-28.628c0-.476.191-.933.528-1.27.337-.337.791-.526 1.269-.526" transform="translate(-258 -266) translate(258 266)"/>
                <path fill="#FFF" d="M501.363 289.086c0 .743.219 1.47.634 2.089.416.618 1 1.1 1.69 1.385.685.285 1.443.36 2.172.214.73-.145 1.398-.504 1.926-1.03.522-.525.881-1.195 1.027-1.925.146-.73.073-1.486-.213-2.173-.287-.687-.77-1.275-1.387-1.688-.617-.413-1.341-.633-2.088-.633-1 0-1.953.396-2.66 1.1-.702.707-1.1 1.663-1.1 2.66zM489.43 289.086c0 .743.218 1.47.634 2.089.415.618.999 1.1 1.69 1.385.684.285 1.442.36 2.171.214.73-.145 1.398-.504 1.926-1.03.522-.525.881-1.195 1.027-1.925.146-.73.073-1.486-.213-2.173s-.77-1.275-1.387-1.688c-.617-.413-1.341-.633-2.088-.633-.999 0-1.953.396-2.66 1.1-.702.707-1.1 1.663-1.1 2.66zM477.49 289.086c0 .743.219 1.47.634 2.089.415.618 1 1.1 1.69 1.385.684.285 1.442.36 2.172.214.73-.145 1.398-.504 1.925-1.03.522-.525.882-1.195 1.028-1.925.146-.73.073-1.486-.214-2.173-.286-.687-.769-1.275-1.386-1.688-.618-.413-1.347-.633-2.088-.633-1 0-1.954.396-2.661 1.1-.702.707-1.1 1.663-1.1 2.66M188.624 176.6c14.518 0 26.287-11.77 26.287-26.288 0-14.517-11.769-26.287-26.287-26.287-14.518 0-26.287 11.77-26.287 26.287 0 14.519 11.769 26.287 26.287 26.287z" transform="translate(-258 -266) translate(258 266)"/>
                <path fill="#203B95" d="M199.626 162.224h-22.004c-.43-.001-.842-.173-1.146-.477-.304-.303-.475-.715-.477-1.145v-22.004c.002-.43.173-.842.477-1.146.304-.303.716-.475 1.146-.476h22.004c.43 0 .841.173 1.145.476.304.304.475.716.477 1.146v22.004c-.007.428-.18.837-.483 1.14-.303.302-.71.475-1.14.482z" transform="translate(-258 -266) translate(258 266)"/>
                <path fill="#203B95" d="M199.626 162.224h-22.004c-.43-.001-.842-.173-1.146-.477-.304-.303-.475-.715-.477-1.145v-22.004c.002-.43.173-.842.477-1.146.304-.303.716-.475 1.146-.476h22.004c.43 0 .841.173 1.145.476.304.304.475.716.477 1.146v22.004c-.007.428-.18.837-.483 1.14-.303.302-.71.475-1.14.482z" transform="translate(-258 -266) translate(258 266)"/>
                <path fill="#DCDCDC" d="M199.626 162.224h-22.004c-.43-.001-.842-.173-1.146-.477-.304-.303-.475-.715-.477-1.145v-22.004c.002-.43.173-.842.477-1.146.304-.303.716-.475 1.146-.476h22.004c.43 0 .841.173 1.145.476.304.304.475.716.477 1.146v22.004c-.007.428-.18.837-.483 1.14-.303.302-.71.475-1.14.482z" transform="translate(-258 -266) translate(258 266)"/>
                <path fill="#84888F" d="M188.528 145.424c.444 0 .878-.132 1.248-.379.369-.246.657-.597.826-1.007.17-.41.215-.862.128-1.297-.086-.436-.3-.836-.614-1.15-.314-.314-.714-.528-1.15-.615-.435-.086-.887-.042-1.297.128-.41.17-.76.458-1.008.827-.247.37-.378.803-.378 1.247 0 .596.236 1.167.657 1.588.422.421.993.658 1.588.658zM176 160.613v-6.068l8.537-6.354c.165-.118.365-.179.567-.173.203.006.398.079.556.207l2.952 2.599 6.007-4.704c.17-.129.377-.196.59-.19.212.007.416.085.577.223l5.423 4.738v9.767c-.002.43-.173.842-.477 1.145-.304.305-.716.476-1.146.478h-21.959c-.434-.015-.845-.196-1.149-.507-.303-.31-.475-.727-.479-1.16z" transform="translate(-258 -266) translate(258 266)"/>
                <path fill="#203B95" d="M430.091 95.566c-2.822 0-5.58-.837-7.927-2.404-2.347-1.568-4.176-3.797-5.256-6.404-1.08-2.607-1.362-5.476-.811-8.244.55-2.768 1.91-5.31 3.905-7.306 1.995-1.996 4.537-3.355 7.305-3.905 2.768-.55 5.637-.268 8.245.812 2.607 1.08 4.836 2.908 6.406 5.255 1.566 2.347 2.402 5.106 2.402 7.927 0 1.875-.37 3.73-1.083 5.462-.719 1.731-1.769 3.305-3.094 4.63-1.326 1.325-2.9 2.376-4.63 3.093-1.732.717-3.588 1.085-5.462 1.084z" transform="translate(-258 -266) translate(258 266)"/>
                <path fill="#FFF" d="M425.623 83.077c.199.005.397-.029.581-.101.186-.073.355-.182.497-.32l4.597 2.677c0 .096-.045.186-.045.281 0 .46.183.902.508 1.227.326.325.767.508 1.227.508.46 0 .901-.183 1.226-.508.326-.325.508-.767.508-1.227.007-.23-.033-.458-.117-.672-.085-.213-.212-.407-.375-.57-.162-.162-.357-.29-.57-.375-.214-.084-.442-.124-.672-.117-.2-.006-.397.029-.582.101-.185.073-.354.18-.496.32l-4.598-2.678c0-.095.045-.185.045-.28.008-.096-.007-.192-.045-.281l4.598-2.678c.298.263.68.413 1.078.421.46 0 .901-.182 1.226-.508.326-.325.508-.766.508-1.226.007-.23-.033-.458-.117-.672-.085-.214-.212-.408-.375-.57-.162-.163-.357-.29-.57-.375-.214-.085-.442-.125-.672-.118-.46 0-.901.183-1.227.508-.325.326-.508.767-.508 1.227-.007.096.008.192.045.28L426.7 80.03c-.298-.263-.68-.412-1.078-.421-.46 0-.901.183-1.227.508-.325.325-.508.767-.508 1.226 0 .46.183.902.508 1.227.326.325.767.508 1.227.508z" transform="translate(-258 -266) translate(258 266)"/>
                <path fill="#4D69C5" d="M418.668 118.03l24.642 36.184c.831 1.216 1.376 2.601 1.6 4.056.22 1.454.118 2.94-.309 4.348-.426 1.409-1.162 2.704-2.15 3.792-.993 1.088-2.212 1.94-3.575 2.494l-29.666 11.283-5.799-9.402 21.825-11.614-17.031-18.895-17.654-24.356 14.634-3.239c2.524-.558 5.158-.346 7.562.608 2.403.953 4.465 2.605 5.921 4.742z" transform="translate(-258 -266) translate(258 266)"/>
                <path fill="#000" d="M353.638 128.545c6.735 2.492 14.15 2.43 20.842-.174 11.131-4.39 16.071-12.473 16.071-12.473l3.75-.831s-7.859 12.484-20.64 16.133c-14.657 4.176-23.015-1.123-23.015-1.123l2.992-1.532z" transform="translate(-258 -266) translate(258 266)"/>
                <path fill="#FA9B9B" d="M383.641 176.712l19.764-5.922 5.805 9.397s-6.54 2.672-8.931 3.503c-4.059 1.414-7.859-3.307-7.859-3.307l-8.779-3.67z" transform="translate(-258 -266) translate(258 266)"/>
                <path fill="#FA9B9B" d="M382.664 178.363c-.51.23-.46.342-1.01 1.684l-4.266 10.43c-.13.319-.13.676-.003.995.127.32.374.58.688.722.314.145.673.163 1 .05.328-.113.599-.348.757-.656l4.591-8.735-1.964 7.758c-.053.202-.055.415-.008.619.047.204.142.394.278.553.137.16.309.283.503.361.194.079.405.11.613.09.246-.022.482-.112.68-.26.199-.147.352-.347.443-.577l3.25-9.133-2.492 6.904c-.07.19-.09.393-.059.591.031.199.111.387.234.546.123.16.283.286.468.367.184.08.385.114.586.096.206-.01.406-.075.58-.186.174-.112.317-.266.413-.448l4.26-8.078-2.868 5.501c-.08.147-.124.31-.128.477-.004.167.032.333.105.483.073.15.181.28.315.38.135.1.29.166.455.193.18.03.365.015.538-.043.173-.058.33-.157.456-.289l3.9-4.423 3.01-3.21-15.325-2.762z" transform="translate(-258 -266) translate(258 266)"/>
                <g fill="#000" opacity=".15">
                    <path d="M3.615.168c-.07-.037-.153-.046-.23-.023-.077.024-.142.076-.18.147L.904 4.62.342 5.709c-.097.175-.141.374-.126.574.015.2.088.39.21.548L3.75.561c.028-.07.03-.149.005-.22C3.73.267 3.68.206 3.615.167z" transform="translate(-258 -266) translate(258 266) translate(389.002 181.87)"/>
                </g>
                <path fill="#000" d="M388.721 182.432c.016-.037.025-.078.025-.12 0-.04-.009-.081-.026-.119-.016-.037-.04-.071-.07-.1-.031-.027-.067-.048-.106-.062-.04-.013-.08-.018-.121-.014-.041.003-.08.016-.117.035-.036.02-.068.047-.093.08-.025.032-.043.07-.053.11l-1.123 3.193 1.123-3.205-1.314 3.71-1.19 3.447c-.029.176-.019.357.03.528.048.172.134.331.25.466.015-.019.027-.04.035-.062l2.75-7.887z" opacity=".15" transform="translate(-258 -266) translate(258 266)"/>
                <path fill="#FA9B9B" d="M382.097 178.952l.764-1.566c.124-.257.33-.465.584-.595.254-.128.544-.17.825-.118l12.95 2.358c.22.039.426.134.6.276.172.143.305.328.385.536.081.209.107.435.075.656-.033.222-.12.431-.258.609l-.039.05-15.886-2.206z" transform="translate(-258 -266) translate(258 266)"/>
                <path fill="#000" d="M409.204 180.186L425.398 174.029 428.907 184.705 426.033 184.705 423.417 176.65zM403.411 170.785L425.23 159.171 405.763 136.908 406.279 136.499 428.351 160.232 406.453 171.032 405.336 171.587 404.236 172.126z" opacity=".15" transform="translate(-258 -266) translate(258 266)"/>
                <path fill="#000" d="M403.411 170.785l5.799 9.402-8.662 3.413c-1.266.5-2.679.478-3.93-.062l-.633-.275 2.907-.253 8.381-3.491-5.204-8.313 1.342-.421z" opacity=".15" transform="translate(-258 -266) translate(258 266)"/>
                <path fill="#203B95" d="M236.017 417.708h-17.098c-.44.008-.864-.157-1.184-.457-.32-.301-.51-.715-.528-1.154v-17.66c.019-.438.208-.852.528-1.153.32-.301.745-.465 1.184-.457h17.109c.435 0 .852.166 1.166.467.314.3.5.71.518 1.144v17.66c-.018.435-.206.846-.522 1.147-.317.3-.737.466-1.173.463z" transform="translate(-258 -266) translate(258 266)"/>
                <path fill="#FFF" d="M225.582 411.416l-3.514-3.435c-.086-.095-.133-.218-.133-.345 0-.128.047-.25.133-.346l.904-.92c.095-.084.217-.131.345-.131.127 0 .25.047.345.13l2.245 2.212 5.322-5.467c.095-.084.217-.13.345-.13.127 0 .25.046.345.13l.92.904c.086.094.133.218.133.345 0 .127-.047.25-.132.345l-6.573 6.736c-.047.046-.101.083-.162.108-.06.025-.124.038-.19.038-.064 0-.129-.013-.19-.038-.06-.025-.114-.062-.16-.108M574.931 224.33h-45.035c-.349 0-.69-.068-1.01-.2-.315-.133-.607-.327-.854-.571-.241-.245-.438-.535-.567-.854-.135-.32-.202-.662-.202-1.008v-45.035c0-.347.062-.692.196-1.013.13-.32.326-.613.567-.86.247-.246.54-.442.86-.575.32-.133.661-.202 1.01-.202h45.035c.696 0 1.37.278 1.864.772.494.493.769 1.163.769 1.86v45.081c-.006.694-.287 1.356-.78 1.844-.495.488-1.163.76-1.853.76z" transform="translate(-258 -266) translate(258 266)"/>
                <path fill="#868A91" d="M550.72 214.356c-1.296-.002-2.542-.518-3.457-1.436-.92-.917-1.437-2.162-1.437-3.46v-18.865c0-1.747.696-3.422 1.931-4.657 1.235-1.235 2.908-1.928 4.653-1.928.865 0 1.724.17 2.52.501.798.332 1.528.817 2.14 1.43.611.611 1.094 1.338 1.425 2.138.331.799.5 1.656.5 2.521v15.033c0 .12-.023.239-.067.35-.051.11-.118.211-.203.296-.084.086-.185.153-.297.198-.107.046-.23.07-.348.07-.118 0-.241-.024-.348-.07-.112-.045-.213-.112-.298-.198-.084-.085-.151-.186-.202-.297-.045-.11-.067-.23-.067-.35V190.6c0-.625-.124-1.245-.36-1.822-.24-.579-.589-1.103-1.032-1.546-.444-.442-.966-.792-1.544-1.032-.578-.238-1.201-.361-1.824-.36-.623 0-1.246.123-1.819.362-.578.24-1.106.59-1.544 1.032-.443.442-.791.967-1.032 1.545-.236.577-.36 1.196-.36 1.821v18.866c.034.79.37 1.539.943 2.086.573.548 1.33.854 2.122.854.797 0 1.555-.306 2.128-.854.572-.547.909-1.295.943-2.086v-14.56c0-.412-.163-.807-.455-1.098-.292-.292-.685-.456-1.095-.457-.41 0-.808.165-1.1.457-.286.29-.454.686-.454 1.098v10.401c0 .243-.096.475-.27.647-.168.171-.404.268-.645.268-.242 0-.478-.097-.646-.268-.174-.172-.27-.404-.27-.647v-10.401c0-.894.354-1.75.989-2.382.628-.632 1.487-.986 2.38-.986.892 0 1.751.354 2.38.986.634.631.988 1.488.988 2.382v14.555c-.006 1.292-.517 2.53-1.426 3.448-.915.916-2.15 1.436-3.441 1.447z" transform="translate(-258 -266) translate(258 266)"/>
                <path fill="#000" d="M403.411 170.785L405.202 169.831 411.214 179.368 409.204 180.187zM272.195 199.064L283.387 206.367 284.965 204.588 273.418 197.352z" transform="translate(-258 -266) translate(258 266)"/>
            </g>
        </g>
    </g>
</svg>
