<svg xmlns="http://www.w3.org/2000/svg" width="30" height="30" viewBox="0 0 30 30">
    <g fill="none" fill-rule="evenodd">
        <g>
            <g>
                <g>
                    <path fill="#B6C7E1" d="M0 0h18.75v2.5H0V0zm0 6.25h18.75v2.5H0v-2.5zm0 6.25h18.75V15H0v-2.5z" transform="translate(-41 -624) translate(41 624) translate(5.625 7.5)"/>
                    <path fill="#0C0058" d="M0 0h2.5v2.5H0V0zm0 6.25h2.5v2.5H0v-2.5zm0 6.25h2.5V15H0v-2.5zM16.25 0h2.5v2.5h-2.5V0zm0 6.25h2.5v2.5h-2.5v-2.5zm0 6.25h2.5V15h-2.5v-2.5z" transform="translate(-41 -624) translate(41 624) translate(5.625 7.5)"/>
                </g>
            </g>
        </g>
    </g>
</svg>
