<svg xmlns="http://www.w3.org/2000/svg" width="655" height="492" viewBox="0 0 655 492">
    <g fill="none" fill-rule="evenodd">
        <g fill-rule="nonzero">
            <g>
                <path fill="#E4F0F8" d="M606.626 275.102l-21.17 158.434c-1.689 12.64-11.11 22.214-22.748 23.124l-72.811 5.667-170.53 13.275-204.215 15.878c-12.885 1-24.505-8.877-26.872-22.845L61.206 308.753 48.403 233.16l-1.005-5.951-.587-3.44-5.461-32.237c-.32-1.88-.482-3.784-.482-5.692-.04-6.228 1.761-12.329 5.178-17.537l2.574-3.85 22.353-33.25 1.848-2.743 4.258-6.332.361-.54c-.002-.002-.003-.007-.003-.011 0-.004 0-.008.003-.012l6.14-9.142.654-.962 2.405-3.55.67-.997 10.065-14.973 34.805-51.77 19.587-29.134C156.448 4.075 163.67.072 171.358.177L302.71 1.967l196.189 2.67c10.272.14 19.582 7.554 23.484 18.702l15.252 43.591 1.829 5.22.702 2.002 1.03 2.945.63 1.8v.028l.298.852 1.593 4.551.577 1.65 1.381 3.95.578 1.651.644 1.848.068.173.322.933.75 2.137.347.99 1.444 4.182.341.962.481 1.42.376 1.068 1.963 5.615.149.428.51 1.443 3.276 9.363.626 1.785 1.222 3.493 2.81 8.03 1.092 3.118 21.262 60.773 3.084 8.805.322.924 3.69 10.551 7.626 21.796 4.49 12.842.254.726 1.588 4.542c1.761 4.992 2.32 10.327 1.636 15.575z" transform="translate(-186 -268) translate(186 268)"/>
                <path fill="#203B95" d="M190.922 50.226v316.278c0 .56.11 1.114.324 1.631.214.517.528.987.924 1.383s.866.71 1.383.924c.517.214 1.071.324 1.632.324H435.2c1.13 0 2.213-.45 3.012-1.25.798-.8 1.246-1.883 1.246-3.012V88.198l-41.291-41.296c-.602-.6-1.417-.939-2.266-.939H195.185c-1.131 0-2.216.45-3.015 1.249-.8.8-1.248 1.884-1.248 3.014z" transform="translate(-186 -268) translate(186 268)"/>
                <path fill="#FFF" d="M190.922 50.226v316.278c0 .56.11 1.114.324 1.631.214.517.528.987.924 1.383s.866.71 1.383.924c.517.214 1.071.324 1.632.324H435.2c1.13 0 2.213-.45 3.012-1.25.798-.8 1.246-1.883 1.246-3.012V88.198l-41.291-41.296c-.602-.6-1.417-.939-2.266-.939H195.185c-1.131 0-2.216.45-3.015 1.249-.8.8-1.248 1.884-1.248 3.014z" opacity=".7" transform="translate(-186 -268) translate(186 268)"/>
                <path fill="#FFF" d="M188.366 50.226v316.278c0 .56.11 1.114.325 1.631.214.517.528.987.924 1.383s.865.71 1.383.924c.517.214 1.071.324 1.631.324h240.012c.558 0 1.116-.11 1.631-.324.52-.214.986-.528 1.381-.924.4-.396.712-.866.929-1.383.211-.517.322-1.071.322-1.631V88.198L394.67 45.963H192.63c-1.131 0-2.215.45-3.015 1.249-.8.8-1.249 1.884-1.249 3.014z" transform="translate(-186 -268) translate(186 268)"/>
                <path fill="#203B95" d="M436.904 88.198l-42.235-42.235v40.532c.001.45.181.883.5 1.203.32.319.752.499 1.203.5h40.532z" transform="translate(-186 -268) translate(186 268)"/>
                <path fill="#FFF" d="M436.904 88.198l-42.235-42.235v40.532c.001.45.181.883.5 1.203.32.319.752.499 1.203.5h40.532z" opacity=".5" transform="translate(-186 -268) translate(186 268)"/>
                <path fill="#203B95" d="M268.1 280.962h-49.364c-2.65 0-4.797 2.148-4.797 4.797v43.856c0 2.649 2.148 4.797 4.797 4.797H268.1c2.65 0 4.797-2.148 4.797-4.797v-43.856c0-2.65-2.148-4.797-4.797-4.797zM267.433 106.043H216.19c-2.131 0-3.859 1.728-3.859 3.859v67.903c0 2.132 1.728 3.859 3.86 3.859h51.24c2.131 0 3.86-1.727 3.86-3.859v-67.903c0-2.131-1.729-3.859-3.86-3.859z" transform="translate(-186 -268) translate(186 268)"/>
                <g fill="#FFF" opacity=".3">
                    <path d="M30.312 42.403L19.895 1.88c-.103-.402-.338-.76-.666-1.014-.328-.255-.732-.395-1.148-.395h-5.783c-.417 0-.82.139-1.15.394-.33.255-.564.613-.669 1.015L.067 42.403c-.04.157-.061.319-.062.481.01.491.212.958.563 1.302.35.344.822.536 1.313.536h5.26c.43 0 .847-.149 1.182-.42.335-.272.566-.65.655-1.072l1.01-4.888c.031-.147.112-.279.228-.373.116-.095.262-.146.412-.147h9.142c.15 0 .296.051.413.146.117.095.197.227.227.374l1.015 4.888c.087.422.318.8.652 1.072s.75.42 1.181.42h5.26c.28-.004.558-.072.81-.198s.472-.307.644-.53c.173-.222.293-.481.351-.756.06-.276.055-.561-.011-.835zm-12.74-12.51h-4.778c-.125 0-.248-.028-.36-.082-.113-.053-.213-.131-.291-.228-.079-.096-.135-.21-.165-.33-.03-.121-.032-.248-.007-.37l2.405-11.466c.008-.043.021-.084.039-.125.064-.169.181-.313.334-.41.153-.097.333-.142.514-.127.18.014.351.086.487.205.136.12.23.28.267.457l2.406 11.466c.024.123.021.25-.01.37-.031.122-.089.235-.17.33-.08.097-.18.174-.294.226-.114.052-.238.077-.363.075l-.015.01z" transform="translate(-186 -268) translate(186 268) translate(226.617 121.247)"/>
                </g>
                <path fill="#FFF" d="M255.38 163.65l-10.417-40.521c-.103-.403-.337-.76-.665-1.016-.329-.256-.733-.394-1.15-.394h-5.797c-.416 0-.82.138-1.148.394-.329.255-.563.613-.666 1.016l-7.337 28.546-.41 1.578-.692 2.636-.649 2.526-1.348 5.235c-.07.277-.076.566-.017.845.058.28.179.542.354.767.174.226.399.408.654.535.257.125.538.191.823.191h5.26c.43 0 .848-.148 1.182-.42.335-.271.566-.65.655-1.071l1.01-4.888c.032-.147.112-.279.229-.373.116-.095.262-.147.411-.147h9.142c.15 0 .294.052.41.147.116.094.195.226.225.373l1.015 4.888c.089.421.32.8.653 1.071.334.271.75.42 1.18.42h5.274c.286 0 .568-.064.824-.19.257-.126.482-.308.657-.534.176-.225.297-.488.356-.768.058-.28.052-.569-.018-.846zm-17.519-12.51c-.124 0-.247-.027-.36-.081-.112-.054-.211-.132-.29-.229-.079-.096-.135-.21-.165-.33-.03-.121-.032-.248-.008-.37l2.406-11.465c.038-.178.131-.338.267-.458.136-.119.307-.191.488-.205.18-.014.36.03.513.128.153.096.27.24.334.41.019.04.031.082.039.125l2.372 11.45c.026.123.024.249-.005.37-.03.121-.085.234-.163.33-.079.097-.178.176-.29.23-.112.053-.235.081-.36.081l-4.778.015z" transform="translate(-186 -268) translate(186 268)"/>
                <path fill="#BABABA" d="M337.385 106.043h-51.242c-2.13 0-3.859 1.728-3.859 3.859v67.903c0 2.132 1.728 3.859 3.86 3.859h51.24c2.131 0 3.86-1.727 3.86-3.859v-67.903c0-2.131-1.729-3.859-3.86-3.859z" transform="translate(-186 -268) translate(186 268)"/>
                <path fill="#203B95" d="M223.894 199.529h-6.78c-1.753 0-3.175 1.422-3.175 3.175v6.78c0 1.753 1.422 3.175 3.175 3.175h6.78c1.753 0 3.175-1.422 3.175-3.175v-6.78c0-1.753-1.422-3.175-3.175-3.175z" transform="translate(-186 -268) translate(186 268)"/>
                <path fill="#FFF" d="M223.894 199.529h-6.78c-1.753 0-3.175 1.422-3.175 3.175v6.78c0 1.753 1.422 3.175 3.175 3.175h6.78c1.753 0 3.175-1.422 3.175-3.175v-6.78c0-1.753-1.422-3.175-3.175-3.175z" opacity=".5" transform="translate(-186 -268) translate(186 268)"/>
                <path fill="#203B95" d="M223.894 223.923h-6.78c-1.753 0-3.175 1.421-3.175 3.175v6.78c0 1.753 1.422 3.175 3.175 3.175h6.78c1.753 0 3.175-1.422 3.175-3.176v-6.779c0-1.754-1.422-3.175-3.175-3.175z" transform="translate(-186 -268) translate(186 268)"/>
                <path fill="#BABABA" d="M223.894 248.321h-6.78c-1.753 0-3.175 1.422-3.175 3.176v6.779c0 1.754 1.422 3.175 3.175 3.175h6.78c1.753 0 3.175-1.421 3.175-3.175v-6.78c0-1.753-1.422-3.175-3.175-3.175z" transform="translate(-186 -268) translate(186 268)"/>
                <path fill="#203B95" d="M336.798 202.902h-97.176c-1.761 0-3.19 1.428-3.19 3.19 0 1.761 1.429 3.19 3.19 3.19h97.176c1.762 0 3.19-1.429 3.19-3.19 0-1.762-1.428-3.19-3.19-3.19zM336.798 227.3h-97.176c-1.761 0-3.19 1.428-3.19 3.19s1.429 3.19 3.19 3.19h97.176c1.762 0 3.19-1.428 3.19-3.19s-1.428-3.19-3.19-3.19zM336.798 251.699h-97.176c-1.761 0-3.19 1.428-3.19 3.19s1.429 3.19 3.19 3.19h97.176c1.762 0 3.19-1.428 3.19-3.19s-1.428-3.19-3.19-3.19z" transform="translate(-186 -268) translate(186 268)"/>
                <path fill="#FFF" d="M336.798 202.902h-97.176c-1.761 0-3.19 1.428-3.19 3.19 0 1.761 1.429 3.19 3.19 3.19h97.176c1.762 0 3.19-1.429 3.19-3.19 0-1.762-1.428-3.19-3.19-3.19zM336.798 227.3h-97.176c-1.761 0-3.19 1.428-3.19 3.19s1.429 3.19 3.19 3.19h97.176c1.762 0 3.19-1.428 3.19-3.19s-1.428-3.19-3.19-3.19zM336.798 251.699h-97.176c-1.761 0-3.19 1.428-3.19 3.19s1.429 3.19 3.19 3.19h97.176c1.762 0 3.19-1.428 3.19-3.19s-1.428-3.19-3.19-3.19z" opacity=".5" transform="translate(-186 -268) translate(186 268)"/>
                <path fill="#203B95" d="M408.045 202.902h-52.579c-1.762 0-3.19 1.428-3.19 3.19 0 1.761 1.428 3.19 3.19 3.19h52.58c1.761 0 3.19-1.429 3.19-3.19 0-1.762-1.429-3.19-3.19-3.19zM408.045 227.3h-52.579c-1.762 0-3.19 1.428-3.19 3.19s1.428 3.19 3.19 3.19h52.58c1.761 0 3.19-1.428 3.19-3.19s-1.429-3.19-3.19-3.19zM408.045 251.699h-52.579c-1.762 0-3.19 1.428-3.19 3.19s1.428 3.19 3.19 3.19h52.58c1.761 0 3.19-1.428 3.19-3.19s-1.429-3.19-3.19-3.19z" transform="translate(-186 -268) translate(186 268)"/>
                <path fill="#FFF" d="M262.36 295.733h-20.164c-.922 0-1.67.747-1.67 1.67v.004c0 .922.748 1.67 1.67 1.67h20.165c.922 0 1.67-.748 1.67-1.67v-.005c0-.922-.748-1.67-1.67-1.67zM228.729 304.234c3.77 0 6.827-3.056 6.827-6.827 0-3.77-3.057-6.827-6.827-6.827-3.771 0-6.828 3.057-6.828 6.827s3.057 6.827 6.828 6.827zM262.36 316.08h-20.164c-.922 0-1.67.747-1.67 1.67v.004c0 .922.748 1.67 1.67 1.67h20.165c.922 0 1.67-.748 1.67-1.67v-.005c0-.922-.748-1.67-1.67-1.67zM228.729 324.578c3.77 0 6.827-3.057 6.827-6.828 0-3.77-3.057-6.827-6.827-6.827-3.771 0-6.828 3.056-6.828 6.827 0 3.77 3.057 6.828 6.828 6.828z" opacity=".3" transform="translate(-186 -268) translate(186 268)"/>
                <path fill="#FFF" d="M330.837 160.85h-38.852c-.946 0-1.713.766-1.713 1.713v6.356c0 .946.767 1.712 1.713 1.712h38.852c.946 0 1.713-.766 1.713-1.712v-6.356c0-.947-.767-1.713-1.713-1.713z" transform="translate(-186 -268) translate(186 268)"/>
                <path fill="#203B95" d="M331.713 143.697h-20.165c-.922 0-1.67.748-1.67 1.67v.005c0 .922.748 1.67 1.67 1.67h20.165c.922 0 1.67-.748 1.67-1.67v-.005c0-.922-.748-1.67-1.67-1.67z" transform="translate(-186 -268) translate(186 268)"/>
                <path fill="#FFF" d="M331.713 143.697h-20.165c-.922 0-1.67.748-1.67 1.67v.005c0 .922.748 1.67 1.67 1.67h20.165c.922 0 1.67-.748 1.67-1.67v-.005c0-.922-.748-1.67-1.67-1.67z" opacity=".3" transform="translate(-186 -268) translate(186 268)"/>
                <path fill="#203B95" d="M297.1 152.194c3.77 0 6.827-3.056 6.827-6.827 0-3.77-3.057-6.828-6.827-6.828-3.771 0-6.828 3.058-6.828 6.828 0 3.77 3.057 6.827 6.828 6.827z" transform="translate(-186 -268) translate(186 268)"/>
                <path fill="#FFF" d="M297.1 152.194c3.77 0 6.827-3.056 6.827-6.827 0-3.77-3.057-6.828-6.827-6.828-3.771 0-6.828 3.058-6.828 6.828 0 3.77 3.057 6.827 6.828 6.827zM331.713 122.999h-20.165c-.922 0-1.67.747-1.67 1.67v.004c0 .922.748 1.67 1.67 1.67h20.165c.922 0 1.67-.748 1.67-1.67v-.005c0-.922-.748-1.67-1.67-1.67zM297.1 131.496c3.77 0 6.827-3.057 6.827-6.828 0-3.77-3.057-6.827-6.827-6.827-3.771 0-6.828 3.056-6.828 6.827 0 3.77 3.057 6.828 6.828 6.828z" opacity=".3" transform="translate(-186 -268) translate(186 268)"/>
                <path fill="#CEDFE9" d="M525.087 365.503c.005 16.6-5.456 32.738-15.545 45.918-10.09 13.182-24.24 22.67-40.267 26.999-3.378.914-6.813 1.587-10.287 2.02-3.132.39-6.283.587-9.44.587-2.43 0-4.835-.115-7.217-.341-9.315-.876-18.389-3.489-26.746-7.698-3.698-1.864-7.239-4.027-10.585-6.467-1.703-1.251-3.353-2.567-4.95-3.95-3.09-2.692-5.955-5.631-8.565-8.79-.025-.02-.046-.045-.063-.073-10.885-13.091-17.003-29.49-17.354-46.512v-1.679c0-3.14.193-6.279.577-9.396v-.188-.053c2.184-17.139 10.188-33.008 22.672-44.952 12.484-11.945 28.69-19.24 45.91-20.665 2.083-.174 4.19-.262 6.326-.265 1.56 0 3.108.048 4.643.144 19.193 1.173 37.212 9.626 50.385 23.633 13.174 14.008 20.502 32.515 20.492 51.742l.014-.014z" transform="translate(-186 -268) translate(186 268)"/>
                <path fill="#906363" d="M375 356.203l-9.334-9.301c-.187-.19-.437-.305-.704-.323-.266-.018-.529.063-.74.227h-.028c-.525.4-.882.981-1.004 1.63-.122.648 0 1.319.344 1.882l2.093 3.421 9.373 2.464z" transform="translate(-186 -268) translate(186 268)"/>
                <path fill="#000" d="M375 356.203l-9.334-9.301c-.187-.19-.437-.305-.704-.323-.266-.018-.529.063-.74.227h-.028c-.525.4-.882.981-1.004 1.63-.122.648 0 1.319.344 1.882l2.093 3.421 9.373 2.464z" opacity=".15" transform="translate(-186 -268) translate(186 268)"/>
                <path fill="#906363" d="M383.988 363.704l-2.762-12.88c-.053-.26-.012-.529.116-.76.128-.231.335-.409.582-.5h.034c.621-.224 1.302-.21 1.913.039.61.248 1.109.714 1.397 1.307l1.742 3.614-3.022 9.18z" transform="translate(-186 -268) translate(186 268)"/>
                <path fill="#000" d="M383.988 363.704l-2.762-12.88c-.053-.26-.012-.529.116-.76.128-.231.335-.409.582-.5h.034c.621-.224 1.302-.21 1.913.039.61.248 1.109.714 1.397 1.307l1.742 3.614-3.022 9.18z" opacity=".15" transform="translate(-186 -268) translate(186 268)"/>
                <path fill="#203B95" d="M387.996 300.924H268.678c-2.65 0-4.797 2.148-4.797 4.797v43.856c0 2.65 2.148 4.797 4.797 4.797h119.318c2.649 0 4.797-2.147 4.797-4.797v-43.856c0-2.649-2.148-4.797-4.797-4.797z" transform="translate(-186 -268) translate(186 268)"/>
                <path fill="#FFF" d="M385.749 300.924H268.634c-2.625 0-4.753 2.129-4.753 4.754v43.942c0 2.626 2.128 4.754 4.753 4.754H385.75c2.625 0 4.753-2.128 4.753-4.754v-43.942c0-2.625-2.128-4.754-4.753-4.754z" opacity=".5" transform="translate(-186 -268) translate(186 268)"/>
                <path fill="#FFF" d="M311.398 313.978l-.303-.327-5.639 5.292.303.323c2.263 2.425 3.517 5.62 3.507 8.937-.01 3.317-1.285 6.506-3.564 8.916-2.278 2.41-5.39 3.862-8.701 4.059-3.311.197-6.573-.875-9.121-2.999l-.337-.284-4.936 5.923.341.284c4.054 3.391 9.249 5.108 14.525 4.8 5.276-.31 10.235-2.62 13.866-6.461 3.63-3.841 5.658-8.923 5.669-14.208.01-5.285-1.996-10.375-5.61-14.23v-.025z" transform="translate(-186 -268) translate(186 268)"/>
                <path fill="#203B95" d="M311.4 313.978c-2.491-2.675-5.646-4.642-9.143-5.702l-.428-.12-.414-.116c-1.69-.432-3.428-.65-5.172-.65-5.369-.01-10.531 2.072-14.39 5.803l-.318.308 5.345 5.553.323-.304c2.423-2.346 5.666-3.654 9.04-3.647 1.19 0 2.375.163 3.522.482 2.3.649 4.38 1.917 6.01 3.666l.298.322 5.644-5.263-.318-.332z" transform="translate(-186 -268) translate(186 268)"/>
                <path fill="#BABABA" d="M287.88 338.154c-1.407-1.174-2.55-2.63-3.356-4.276-.807-1.646-1.257-3.443-1.323-5.273-.065-1.832.256-3.656.943-5.355.687-1.699 1.724-3.234 3.044-4.505l.317-.308-5.345-5.557-.323.308c-2.102 2.022-3.753 4.465-4.848 7.17-1.093 2.703-1.604 5.608-1.5 8.523.106 2.915.824 5.775 2.11 8.394 1.285 2.618 3.108 4.936 5.35 6.802l.337.284 4.917-5.923-.323-.284z" transform="translate(-186 -268) translate(186 268)"/>
                <path fill="#203B95" d="M301.055 325.087h-9.647c-.917 0-1.66.743-1.66 1.66v2.781c0 .917.743 1.66 1.66 1.66h9.647c.916 0 1.66-.743 1.66-1.66v-2.781c0-.917-.744-1.66-1.66-1.66z" transform="translate(-186 -268) translate(186 268)"/>
                <path fill="#203B95" d="M301.055 325.087h-9.647c-.917 0-1.66.743-1.66 1.66v2.781c0 .917.743 1.66 1.66 1.66h9.647c.916 0 1.66-.743 1.66-1.66v-2.781c0-.917-.744-1.66-1.66-1.66z" transform="translate(-186 -268) translate(186 268)"/>
                <path fill="#FFF" d="M367.971 316.36H330.64c-.72 0-1.303.583-1.303 1.303v.005c0 .72.584 1.304 1.303 1.304h37.332c.72 0 1.304-.584 1.304-1.304v-.005c0-.72-.584-1.304-1.304-1.304zM367.971 326.343H330.64c-.72 0-1.303.583-1.303 1.303v.006c0 .72.584 1.303 1.303 1.303h37.332c.72 0 1.304-.584 1.304-1.303v-.006c0-.72-.584-1.303-1.304-1.303zM367.971 336.33H330.64c-.72 0-1.303.585-1.303 1.305v.005c0 .72.584 1.303 1.303 1.303h37.332c.72 0 1.304-.583 1.304-1.303v-.005c0-.72-.584-1.304-1.304-1.304z" transform="translate(-186 -268) translate(186 268)"/>
                <path fill="#000" d="M420.795 313.867c0-.679 1.165-1.314 1.203-1.982.039-.67-1.034-1.444-.962-2.108.072-.664 1.309-1.169 1.443-1.823.135-.655-.851-1.564-.692-2.214.158-.65 1.443-.996 1.64-1.635.198-.64-.659-1.65-.423-2.281.236-.63 1.55-.813 1.828-1.443.28-.63-.481-1.718-.144-2.31.337-.592 1.64-.62 1.987-1.193.346-.573-.245-1.761.14-2.314.384-.554 1.698-.42 2.112-.963.413-.543-.03-1.775.418-2.276.448-.5 1.737-.211 2.214-.688.476-.476.182-1.765.683-2.213.5-.447 1.751 0 2.28-.414.53-.413.39-1.732.963-2.117.572-.385 1.737.212 2.314-.134.577-.347.597-1.675 1.193-1.987.597-.313 1.699.418 2.314.14.616-.28.794-1.584 1.444-1.824.65-.241 1.63.62 2.276.418.644-.202.962-1.477 1.636-1.636.673-.158 1.549.813 2.213.693.664-.12 1.15-1.347 1.823-1.443.674-.097 1.444.996 2.108.962.664-.034 1.308-1.203 1.982-1.203.674 0 1.313 1.16 1.982 1.203.669.043 1.444-1.04 2.112-.962.67.077 1.165 1.308 1.824 1.443.66.135 1.559-.851 2.208-.693.65.16.996 1.444 1.636 1.641.64.197 1.655-.66 2.28-.423.626.235.814 1.549 1.444 1.828.63.279 1.718-.457 2.315-.144.596.312.615 1.64 1.193 1.987.577.346 1.76-.246 2.31.14.548.384.418 1.698.962 2.111.543.414 1.775-.028 2.28.419.505.447.207 1.737.683 2.208.477.472 1.766.183 2.214.688.447.506 0 1.752.413 2.281.414.53 1.733.39 2.117.962.385.573-.211 1.737.14 2.315.351.577 1.67.596 1.982 1.193.313.596-.418 1.698-.14 2.314.28.616 1.589.794 1.824 1.444.236.65-.62 1.63-.418 2.275s1.477.963 1.64 1.636c.164.674-.818 1.55-.697 2.213.12.664 1.347 1.15 1.443 1.824.096.674-.996 1.443-.962 2.107.034.664 1.203 1.304 1.203 1.983 0 .678-1.16 1.313-1.203 1.982-.043.669 1.04 1.443.962 2.112-.077.669-1.309 1.165-1.443 1.824-.135.659.856 1.559.697 2.208-.158.65-1.443.996-1.64 1.636-.198.64.659 1.65.418 2.28-.24.63-1.549.814-1.823 1.444-.275.63.452 1.718.14 2.314-.313.597-1.637.616-1.988 1.194-.351.577.246 1.756-.135 2.309-.38.553-1.703.419-2.117.962-.413.544.03 1.776-.413 2.28-.443.506-1.737.208-2.214.684-.476.476-.182 1.766-.688 2.213-.505.448-1.746 0-2.275.414-.53.414-.395 1.732-.963 2.117-.567.385-1.737-.212-2.314.14-.577.35-.597 1.67-1.193 1.982-.597.313-1.699-.419-2.31-.14-.61.28-.798 1.588-1.443 1.824s-1.631-.62-2.276-.419c-.645.202-.962 1.477-1.636 1.636-.673.159-1.544-.813-2.208-.693-.664.12-1.155 1.348-1.824 1.444-.669.096-1.443-.996-2.112-.962-.669.033-1.304 1.202-1.982 1.202-.679 0-1.314-1.16-1.983-1.202-.668-.044-1.443 1.039-2.107.962-.664-.077-1.17-1.309-1.823-1.444-.655-.134-1.564.857-2.214.693-.65-.163-.996-1.443-1.636-1.636-.64-.192-1.65.66-2.275.419-.626-.24-.818-1.55-1.444-1.824-.625-.274-1.717.453-2.31.14-.591-.313-.62-1.636-1.192-1.987-.573-.351-1.761.245-2.315-.14-.553-.385-.418-1.698-.962-2.112-.544-.414-1.775.029-2.276-.414-.5-.442-.212-1.741-.688-2.213-.476-.471-1.766-.183-2.213-.688-.448-.505 0-1.751-.414-2.276-.414-.524-1.732-.394-2.112-.962-.38-.568.207-1.737-.14-2.314-.346-.578-1.674-.597-1.987-1.193-.312-.597.419-1.699.145-2.31-.275-.611-1.588-.799-1.829-1.443-.24-.645.621-1.631.424-2.276-.198-.645-1.482-.962-1.641-1.636-.159-.674.813-1.545.693-2.213-.12-.67-1.347-1.15-1.444-1.819-.096-.669.996-1.443.963-2.112-.034-.669-1.218-1.314-1.218-1.992z" transform="translate(-186 -268) translate(186 268)"/>
                <path fill="#906363" d="M439.209 344.906l-8.035 20.501c4.854 7.285 27.988 4.253 34.16-4.85l7.434-17.287-1.713-.481c-.818-.218-1.544-.696-2.073-1.36-.525-.666-.818-1.483-.842-2.33l-1.631-19.198-20.314-2.728-.66 15.704-.341 7.81c-.087.785-.409 1.526-.924 2.127-.515.6-1.198 1.032-1.963 1.24l-3.098.852z" transform="translate(-186 -268) translate(186 268)"/>
                <path fill="#906363" d="M451.184 337.664l1.064.034c1.828.057 3.647-.246 5.355-.893 1.708-.646 3.271-1.622 4.604-2.874 1.328-1.25 2.401-2.752 3.152-4.417.75-1.665 1.164-3.462 1.222-5.288l.606-19.51c.02-.61-.082-1.217-.298-1.787-.212-.57-.54-1.092-.958-1.536-.418-.444-.919-.802-1.472-1.052-.558-.25-1.155-.39-1.766-.408l-18.211-.563c-1.597-.049-3.147.538-4.316 1.632-1.164 1.095-1.843 2.607-1.896 4.204l-.558 18.12c-.057 1.826.246 3.646.89 5.355.65 1.71 1.622 3.274 2.873 4.606 1.256 1.332 2.757 2.404 4.421 3.154 1.665.752 3.465 1.167 5.288 1.223z" transform="translate(-186 -268) translate(186 268)"/>
                <path fill="#000" d="M452.363 318.182c.832 0 1.51-.676 1.51-1.51 0-.835-.678-1.511-1.51-1.511s-1.51.676-1.51 1.51c0 .835.678 1.511 1.51 1.511z" transform="translate(-186 -268) translate(186 268)"/>
                <path fill="#FFF" d="M451.492 317.288c.178 0 .327-.147.327-.327 0-.181-.149-.328-.327-.328-.183 0-.327.147-.327.328 0 .18.144.327.327.327z" transform="translate(-186 -268) translate(186 268)"/>
                <path fill="#000" d="M440.73 318.005c.831 0 1.51-.677 1.51-1.511 0-.834-.679-1.51-1.51-1.51-.838 0-1.512.676-1.512 1.51s.674 1.51 1.511 1.51z" transform="translate(-186 -268) translate(186 268)"/>
                <path fill="#FFF" d="M439.964 317.172c.183 0 .327-.146.327-.327 0-.18-.144-.327-.327-.327-.183 0-.327.146-.327.327 0 .18.144.327.327.327z" transform="translate(-186 -268) translate(186 268)"/>
                <g fill="#000" opacity=".3">
                    <path d="M2.15 3.791l2.04.13c.058.004.116-.003.17-.022.057-.018.105-.047.148-.085.044-.038.082-.085.106-.136.024-.052.039-.108.043-.166.005-.057-.004-.115-.024-.169-.014-.055-.043-.105-.081-.149-.039-.043-.087-.078-.14-.104-.048-.025-.106-.04-.164-.044l-2.04-.13c-.24-.023-.457-.138-.615-.321-.154-.183-.231-.42-.217-.659.014-.24.125-.463.303-.624.178-.162.41-.247.65-.24.115.009.23-.03.317-.107.087-.076.14-.185.15-.301.009-.116-.03-.23-.106-.318-.077-.088-.188-.141-.304-.149-.235-.015-.471.016-.697.092-.222.076-.428.196-.606.351C.722.956.505 1.4.472 1.876c-.03.477.13.947.442 1.306.318.36.76.578 1.237.61z" transform="translate(-186 -268) translate(186 268) translate(444.092 321.402)"/>
                </g>
                <path fill="#906363" d="M465.56 325.02s6.587 1.005 8.464-5.452c1.876-6.457-6.163-8.246-7.795-1.732l-1.414 7.136.746.048z" transform="translate(-186 -268) translate(186 268)"/>
                <path fill="#000" d="M472.234 315.941c-.265-.243-.577-.43-.914-.546-.342-.116-.703-.162-1.059-.132-.346.065-.678.202-.967.401-.293.2-.539.458-.726.758-.525.737-.847 1.598-.938 2.497l-.082.708c-.072.52.823.74.88.134l.101-.765c.092-.737.347-1.445.741-2.073.106-.218.26-.407.457-.549.193-.142.424-.232.66-.264.24-.03.485-.001.707.086.226.087.428.23.582.414.043.035.096.061.15.077.052.016.11.021.168.015.052-.006.11-.023.158-.05.048-.027.092-.063.13-.107.034-.044.058-.094.077-.149.015-.054.02-.11.015-.167-.005-.056-.024-.11-.053-.16-.024-.049-.063-.093-.106-.128h.02z" opacity=".3" transform="translate(-186 -268) translate(186 268)"/>
                <path fill="#FFF" d="M454.1 311.688c-1.116-.072-2.233.17-3.224.695-.986.526-1.809 1.316-2.377 2.283-1.207-.433-2.53-.433-3.743 0-.52-.74-1.198-1.353-1.987-1.796-.784-.443-1.665-.704-2.564-.764-.25-.014-.496-.014-.746 0-.476.026-.953.11-1.41.25-.4.117-.784.278-1.145.482-1.015.556-1.848 1.393-2.396 2.408-.553 1.016-.804 2.17-.717 3.323.082 1.154.496 2.259 1.188 3.184.693.925 1.641 1.631 2.724 2.035.548.207 1.126.332 1.713.37h.038c1.593.093 3.156-.448 4.354-1.504 1.194-1.056 1.925-2.542 2.03-4.134.073-1.109-.163-2.215-.687-3.195.972-.31 2.02-.31 2.992 0-.269.621-.433 1.283-.48 1.958v.063c-.078 1.514.418 3.002 1.385 4.168.967 1.167 2.343 1.927 3.844 2.129 1.501.202 3.027-.168 4.268-1.037 1.241-.868 2.112-2.173 2.44-3.653.062-.29.1-.585.12-.88.096-1.59-.443-3.153-1.497-4.349-1.053-1.196-2.535-1.927-4.123-2.036zm-9.021 6.798c-.097 1.395-.737 2.695-1.79 3.617-1.05.922-2.42 1.391-3.816 1.305-.596-.038-1.188-.18-1.737-.418-.284-.123-.558-.274-.818-.448-.909-.616-1.602-1.498-1.987-2.525s-.438-2.148-.158-3.209c.279-1.06.885-2.007 1.727-2.71.842-.703 1.881-1.126 2.973-1.212.231-.015.467-.015.698 0 1.39.098 2.685.742 3.604 1.79.919 1.05 1.39 2.418 1.304 3.81zm8.285 4.49c-1.376-.091-2.666-.716-3.585-1.741-.923-1.026-1.41-2.371-1.357-3.75v-.11c.198-1.315.876-2.508 1.91-3.343 1.035-.835 2.344-1.25 3.672-1.164 1.328.087 2.569.67 3.488 1.632.914.962 1.439 2.234 1.458 3.563-.02.277-.058.552-.12.823-.28 1.216-.987 2.295-1.988 3.043-.996.749-2.232 1.12-3.478 1.046zM467.51 324.134c.73 0 1.322-.592 1.322-1.323 0-.73-.591-1.323-1.323-1.323-.731 0-1.323.592-1.323 1.323 0 .73.592 1.323 1.323 1.323z" transform="translate(-186 -268) translate(186 268)"/>
                <path fill="#000" d="M466.99 323.9c.38.02.75-.108 1.034-.358.284-.25.457-.603.486-.98.02-.27-.043-.539-.173-.775.221.176.375.417.447.687.072.271.058.559-.043.82-.101.261-.284.483-.524.634-.236.15-.515.22-.794.202-.27-.016-.53-.117-.736-.289.1.03.202.049.303.058zM466.865 325.067L464.719 325.067 467.163 329.349z" opacity=".15" transform="translate(-186 -268) translate(186 268)"/>
                <path fill="#000" d="M460.571 335.835c-1.958 1.138-4.123 1.863-6.37 2.132-2.083 1.63-4.638 2.538-7.284 2.583-.587.03-1.174-.053-1.733-.245l.183-4.133.395.168c1.76.727 3.618.876 5.687.963.558.02 1.12.01 1.679-.03.221 0 .428 0 .635-.047.048.006.092.006.14 0 .336-.039.659-.092.962-.14l.39-.082c1.727-.327 3.382-.946 4.898-1.833.043-.028.096-.046.149-.055.053-.007.106-.004.159.01.053.013.1.036.14.07.042.032.08.073.105.12.043.088.058.19.029.285-.024.096-.082.18-.164.234z" opacity=".25" transform="translate(-186 -268) translate(186 268)"/>
                <path fill="#FFF" d="M445.136 327.575c-.043.001-.091.014-.13.037-.038.023-.067.055-.091.094-.024.04-.034.084-.039.129 0 .045.015.09.034.13.356.73.91 1.344 1.602 1.77.693.427 1.492.648 2.305.639.808-.01 1.602-.25 2.285-.693.679-.442 1.223-1.07 1.56-1.808.023-.04.033-.085.033-.13-.005-.046-.014-.09-.038-.13-.025-.039-.058-.072-.097-.094-.038-.023-.086-.035-.13-.035l-7.294.091z" transform="translate(-186 -268) translate(186 268)"/>
                <path fill="#906363" d="M350.929 344.016c.29-.056.59-.002.844.15.253.153.44.394.527.677l2.074 6.87c.07.24.212.451.405.608.193.157.43.253.677.273l14.641 1.227c1.504.126 2.932.716 4.086 1.688 1.154.972 1.978 2.279 2.357 3.74l1.688 6.37-11.754 4.48-1.241-4.1c-.097-.317-.276-.603-.52-.828-.243-.224-.542-.38-.866-.452l-10.065-2.17c-1.182-.259-2.226-.944-2.935-1.924l-9.83-13.241c-.09-.124-.153-.263-.189-.411-.035-.148-.04-.302-.017-.452.024-.15.078-.294.158-.424.08-.129.185-.242.308-.33.228-.166.508-.242.788-.215.28.026.54.154.732.36l4.33 4.676-2.405-7.535c-.046-.152-.061-.312-.045-.471.016-.159.063-.312.139-.453.075-.14.177-.264.3-.365.125-.1.267-.176.419-.221.282-.08.583-.054.848.07.265.125.476.34.595.608l4.538 10.527-1.535-7.289c-.036-.157-.04-.32-.01-.479.028-.159.088-.31.177-.445.088-.135.203-.25.337-.34.134-.088.285-.15.444-.18z" transform="translate(-186 -268) translate(186 268)"/>
                <g fill="#000" opacity=".15">
                    <path d="M1.491 3.849c-.077 0-.152-.024-.215-.07-.063-.046-.108-.111-.13-.185L.335.86C.317.814.308.764.309.713.31.662.321.612.343.566.365.52.396.479.435.446.473.413.519.39.567.374c.05-.014.1-.017.15-.01.05.006.1.023.143.05.043.027.08.063.108.105.028.042.048.09.057.14l.808 2.728c.014.045.019.093.014.14-.004.047-.018.093-.04.134-.023.042-.053.078-.09.108s-.08.052-.124.065c-.033.012-.067.017-.102.015z" transform="translate(-186 -268) translate(186 268) translate(345.94 349.308)"/>
                </g>
                <path fill="#203B95" d="M442.37 440.686c-9.32-.88-18.39-3.49-26.747-7.698l1.097-14.964.457-6.255-2.435 2.974-9.695 11.788-9.098 11.066c-.357.437-.746.847-1.164 1.227-.164.149-.328.293-.482.433l-.255.197c-.582.452-1.209.842-1.871 1.17-1.656.812-3.487 1.207-5.331 1.14-.25 0-.481-.03-.756-.053-.125 0-.25 0-.375-.044l-.375-.053c-2.925-.466-5.556-2.044-7.342-4.407-1.11-1.489-1.836-3.226-2.117-5.061l-10.244-64.204.178-.048 8.232-2.228 3.907-1.073.428-.115 12.707 41.33 8.815-14.78.317-.544 3.619-6.063 6.23-10.46 12.462-20.905c.963-1.615 2.242-3.017 3.763-4.118 1.525-1.102 3.257-1.88 5.09-2.286l8.04-1.79.905-.197.717-.164-5.48 11.172-3.123 11.124-1.203 4.287 4.08 25.544 2.887 18.038 1.876 11.754 2.286 14.266z" transform="translate(-186 -268) translate(186 268)"/>
                <path fill="#000" d="M418.313 399.505c.014-.208-.04-.416-.153-.59-.113-.176-.28-.31-.477-.381-.196-.072-.41-.078-.61-.017-.2.06-.374.184-.497.353l-24.192 34.791c-1.805 2.21-4.375 3.662-7.2 4.066-2.825.405-5.699-.267-8.052-1.882 3.652 6.708 13.472 8.247 18.817 1.728l21.223-25.804 1.14-12.264z" opacity=".06" transform="translate(-186 -268) translate(186 268)"/>
                <path fill="#000" d="M481.318 345.796v.058l-.327 2.535-1.564 12.058-2.564 19.726-2.406 18.63-5.139 39.593c-3.377.914-6.813 1.587-10.286 2.02-3.133.39-6.284.587-9.44.587-2.43 0-4.836-.115-7.217-.341-6.034-.563-11.976-1.858-17.697-3.849l.635-8.81.963-13.616.48-6.736c.14-1.96-.216-3.925-1.034-5.711l-3.055-6.664c-1.461-3.194-2.177-6.677-2.093-10.188.083-3.51.963-6.957 2.574-10.077l13.867-24.51 3.315-5.86.033-.062v-.039l1.304-.346.554-.15c-.039.063-.15.246-.313.535-1.732 3.088-9.546 18.047.322 20.395 9.695 2.305 24.586-6.255 29.11-22.132v-.049l2.087.626 5.505 1.64 2.386.737z" transform="translate(-186 -268) translate(186 268)"/>
                <path fill="#000" d="M391.09 405.793L391.431 413.901 399.9 391.003z" opacity=".06" transform="translate(-186 -268) translate(186 268)"/>
                <path fill="#000" d="M470.844 297.287c-3.291-3.128-7.497-4.903-11.827-6.063-4.59-1.226-9.56-2.18-14.28-1.294-3.05.573-5.971 1.612-8.94 2.492.053.626-.404 1.52-.115 2.016.337.583 1.655.549 2.025 1.107.371.558-.168 1.761.236 2.295s1.713.342 2.146.852c.433.51.048 1.77.51 2.251.462.482 1.742.135 2.237.587.496.453.255 1.752.775 2.17.52.419 1.742-.072 2.29.318.549.39.481 1.708 1.03 2.064.548.356 1.722-.284 2.31.039.586.322.668 1.635 1.274 1.924.607.289 1.67-.481 2.295-.24.626.24.857 1.549 1.497 1.76.64.212 1.602-.688 2.247-.514.644.173 1.039 1.443 1.698 1.563.66.12 1.506-.875 2.17-.784.664.092 1.208 1.294 1.877 1.347.668.053 1.39-1.053 2.059-1.044.669.01 1.352 1.14 2.025 1.112.674-.03 1.251-1.213 1.925-1.285.674-.072 1.477.962 2.146.861.669-.1 1.102-1.357 1.751-1.5.65-.145 1.593.783 2.233.596.64-.188.928-1.477 1.559-1.704.48-.163 1.125.217 1.693.342-1.5-4.19-3.59-8.17-6.846-11.268z" transform="translate(-186 -268) translate(186 268)"/>
                <path fill="#000" d="M465.825 308.69h-.004c-.756 0-1.367.612-1.367 1.366v7.111c0 .755.611 1.367 1.367 1.367h.004c.756 0 1.367-.612 1.367-1.367v-7.11c0-.755-.611-1.367-1.367-1.367z" transform="translate(-186 -268) translate(186 268)"/>
                <path fill="#203B95" d="M501.184 368.9l-8.449 58.583c-3.079 2.143-6.312 4.055-9.67 5.721-7.56 3.737-15.69 6.178-24.057 7.217 1.015-11.821 2.083-22.383 3.17-31.755.727-6.29 1.453-12.064 2.18-17.321 1.13-8.252 2.242-15.286 3.281-21.223 2.926-16.782 5.254-24.76 5.774-26.463.02-.072.038-.142.062-.212.015-.034.024-.07.034-.105l5.461 1.77 2.329.755 6.038 1.959.876.279c4.267 1.381 7.905 4.225 10.282 8.03 2.372 3.805 3.324 8.326 2.69 12.765z" transform="translate(-186 -268) translate(186 268)"/>
                <path fill="#906363" d="M386.778 336.87c-.205.214-.323.497-.33.793-.008.296.094.585.287.81l4.633 5.446c.162.19.262.424.289.672.026.248-.023.498-.14.718l-6.894 12.991c-.703 1.33-.978 2.843-.785 4.335.192 1.49.84 2.886 1.858 3.994l4.44 4.874 10.105-7.458-2.772-3.262c-.215-.253-.359-.56-.415-.887-.057-.328-.025-.664.093-.975l3.642-9.613c.43-1.128.43-2.375 0-3.503l-5.831-15.454c-.055-.143-.137-.273-.243-.383-.105-.11-.231-.198-.37-.26-.14-.06-.29-.094-.443-.097-.152-.003-.303.025-.445.08-.263.102-.478.296-.607.547-.128.25-.16.538-.091.81l1.583 6.178-5.047-6.086c-.21-.244-.507-.394-.827-.418-.32-.025-.637.079-.881.288-.226.192-.374.46-.415.754-.04.294.028.592.193.838l6.395 9.517-5.264-5.292c-.114-.112-.25-.2-.4-.259-.148-.058-.308-.087-.468-.082-.16.004-.318.04-.464.106-.146.066-.277.16-.386.278z" transform="translate(-186 -268) translate(186 268)"/>
                <g fill="#000" opacity=".15">
                    <path d="M2.766 3.027c.042-.066.062-.142.056-.22-.005-.076-.035-.15-.085-.208L.875.439C.812.365.722.321.625.316.53.31.435.343.363.407.29.471.247.561.24.657c-.006.096.027.19.09.262L2.19 3.08c.064.072.152.115.247.122.095.007.19-.023.263-.083.025-.028.048-.058.067-.091z" transform="translate(-186 -268) translate(186 268) translate(393.573 335.836)"/>
                </g>
                <path fill="#203B95" d="M500.135 369.65l-2.05 10.186-57.957 46.531c-1.55 1.243-3.344 2.14-5.269 2.63-1.92.492-3.926.565-5.88.215-1.953-.35-3.81-1.114-5.446-2.241-1.633-1.127-3.007-2.592-4.027-4.294-11.634-19.41-31.553-52.67-31.755-53.2-.091-.265 1.112-1.443 2.714-2.824l.043-.039c2.954-2.569 7.217-5.908 7.217-5.908l35.267 37.817 47.075-38.63 7.28-12.101c4.436 1.44 8.194 4.46 10.551 8.486 2.358 4.026 3.152 8.778 2.237 13.353v.02z" transform="translate(-186 -268) translate(186 268)"/>
                <path fill="#000" d="M501.184 368.9l-8.449 58.583c-3.079 2.143-6.312 4.056-9.67 5.721l11.066-45.405c-.005-.018-.005-.036 0-.053.096-.417.062-.854-.101-1.25-.159-.397-.443-.732-.804-.96-.365-.229-.789-.337-1.217-.312-.428.025-.837.184-1.17.453l-16.406 13.169-12.255 9.834-22.05 17.701-.044.034c-1.549 1.235-3.344 2.124-5.263 2.609-1.92.484-3.922.552-5.87.2-1.949-.353-3.801-1.118-5.428-2.245-1.63-1.127-3-2.589-4.017-4.288l-2.786-4.657-1.977-3.291-4.254-7.102c-3.454-5.774-7.015-11.72-10.267-17.162-6.876-11.5-12.356-20.69-12.457-20.988 0-.067.039-.202.178-.38.777-.88 1.624-1.695 2.531-2.439l.048-.043 2.228 2.968 11.09 14.82 11.817 15.786 2.305 3.079 8.328 11.114.322.428c.578.775 1.314 1.42 2.156 1.896.842.476 1.775.771 2.738.868.962.097 1.934-.007 2.853-.306.924-.298 1.77-.785 2.492-1.428l1.352-1.208 26.15-23.316 12.51-11.138 9.57-8.545c6.327-5.644 5.773-15.71-1.088-20.511-.173-.125-.346-.24-.524-.356l-.15-.091-3.695-2.3-7.568-4.72h-.043c.033-.077.062-.145.086-.193.015-.036.03-.07.053-.1l5.461 1.77 2.329.755 6.038 1.958.876.28c4.258 1.379 7.895 4.218 10.272 8.015 2.372 3.798 3.33 8.311 2.704 12.746z" opacity=".06" transform="translate(-186 -268) translate(186 268)"/>
                <path fill="#CEDFE9" d="M194.688 221.806c.01 17.318-4.714 34.31-13.662 49.138-8.949 14.827-21.78 26.926-37.108 34.989-1.578.834-3.182 1.621-4.811 2.362-.246.116-.481.226-.736.332-2.566 1.152-5.193 2.188-7.882 3.108-2.213.757-4.458 1.436-6.735 2.036-7.869 2.053-15.969 3.089-24.1 3.084-3.648 0-7.293-.207-10.918-.62-19.671-2.286-38.139-10.653-52.828-23.936-14.69-13.282-24.867-30.818-29.115-50.16-5.152-23.666-1.087-48.405 11.366-69.178 12.453-20.773 32.357-36.016 55.657-42.625 1.174-.337 2.362-.645 3.56-.933 1.97-.472 3.964-.882 5.981-1.232l.563-.096 1.333-.212c1.655-.25 3.33-.481 5.008-.62.655-.073 1.314-.126 1.973-.179l.919-.067c1.487-.096 2.988-.168 4.494-.197h3.171c1.005 0 2.01.038 3.012.077l.923.048 1.506.091.934.068c1.023.08 2.043.176 3.06.288l.207.024c.88.101 1.765.212 2.636.337.871.125 1.737.26 2.598.409.616.1 1.232.21 1.848.332.308.053.611.115.914.178 21.516 4.323 40.87 15.966 54.768 32.95 13.899 16.983 21.484 38.258 21.464 60.204z" transform="translate(-186 -268) translate(186 268)"/>
                <path fill="#FC9D9D" d="M37.625 362.626l6.577 12.442c.433.823-.207 1.506-1.13 1.203l-.313-.101c-1.77-.594-3.34-1.668-4.532-3.104l-5.702-6.918 5.1-3.522z" transform="translate(-186 -268) translate(186 268)"/>
                <path fill="#000" d="M37.625 362.626l6.577 12.442c.433.823-.207 1.506-1.13 1.203l-.313-.101c-1.77-.594-3.34-1.668-4.532-3.104l-5.702-6.918 5.1-3.522z" opacity=".15" transform="translate(-186 -268) translate(186 268)"/>
                <path fill="#FC9D9D" d="M211.899 162.524l4.426-8.068 8.978-6.876c.157-.137.344-.232.547-.28.202-.046.413-.042.613.012.2.054.384.157.535.3.152.142.265.32.331.517.094.313.092.647-.003.96-.096.312-.283.59-.536.796l-7.741 7.217-2.132 6.486 2.132-6.477 7.424-5.773c.128-.109.279-.188.441-.23.163-.044.333-.05.498-.018.165.03.322.1.457.199.136.1.247.228.326.376.107.286.121.598.04.892-.081.293-.254.554-.492.744l-6.799 6.327-3.204 9.334 3.204-9.334 5.966-3.666c.098-.059.207-.094.32-.103.113-.01.227.007.332.049.105.041.2.106.277.19.076.083.132.183.164.292.05.203.034.417-.042.611-.077.195-.212.361-.387.476l-5.918 5.009-3.507 8.463-6.25-8.425z" transform="translate(-186 -268) translate(186 268)"/>
                <path fill="#FC9D9D" d="M211.899 162.524l4.426-8.068 8.978-6.876c.157-.137.344-.232.547-.28.202-.046.413-.042.613.012.2.054.384.157.535.3.152.142.265.32.331.517.094.313.092.647-.003.96-.096.312-.283.59-.536.796l-7.741 7.217-2.132 6.486 2.132-6.477 7.424-5.773c.128-.109.279-.188.441-.23.163-.044.333-.05.498-.018.165.03.322.1.457.199.136.1.247.228.326.376.107.286.121.598.04.892-.081.293-.254.554-.492.744l-6.799 6.327-3.204 9.334 3.204-9.334 5.966-3.666c.098-.059.207-.094.32-.103.113-.01.227.007.332.049.105.041.2.106.277.19.076.083.132.183.164.292.05.203.034.417-.042.611-.077.195-.212.361-.387.476l-5.918 5.009-3.507 8.463-6.25-8.425z" transform="translate(-186 -268) translate(186 268)"/>
                <path fill="#000" d="M211.899 162.524l4.426-8.068 8.978-6.876c.157-.137.344-.232.547-.28.202-.046.413-.042.613.012.2.054.384.157.535.3.152.142.265.32.331.517.094.313.092.647-.003.96-.096.312-.283.59-.536.796l-7.741 7.217-2.132 6.486 2.132-6.477 7.424-5.773c.128-.109.279-.188.441-.23.163-.044.333-.05.498-.018.165.03.322.1.457.199.136.1.247.228.326.376.107.286.121.598.04.892-.081.293-.254.554-.492.744l-6.799 6.327-3.204 9.334 3.204-9.334 5.966-3.666c.098-.059.207-.094.32-.103.113-.01.227.007.332.049.105.041.2.106.277.19.076.083.132.183.164.292.05.203.034.417-.042.611-.077.195-.212.361-.387.476l-5.918 5.009-3.507 8.463-6.25-8.425z" opacity=".15" transform="translate(-186 -268) translate(186 268)"/>
                <path fill="#FC9D9D" d="M209.883 160.297l-1.684 15.396c-.109.895-.42 1.754-.91 2.512l-14.867 22.286 15.08 7.217 9.27-19.755c.305-.671.744-1.272 1.29-1.766l.9-.837c3.738-3.056 6.033-7.073 6.471-11.615l.044-.063c.069-.638.269-1.255.587-1.814 1.198-2.02 4.06-6.933 4.06-6.933.048-.064.082-.136.101-.214.02-.077.024-.158.012-.237-.012-.079-.04-.154-.082-.222-.041-.068-.096-.127-.16-.174-1.155-.846-2.887-.63-4.11.63l-2.79 2.887c-1.492 1.526-3.787 1.333-4.59-.375l-3.286-7.37c-.106-.239-.16-.496-.16-.756s.054-.518.16-.756l5.408-13.611c.133-.25.162-.54.081-.811-.081-.27-.266-.498-.514-.633-.326-.139-.693-.15-1.025-.027-.333.121-.606.365-.765.682-1.776 3.185-7.015 12.99-8.18 15.329-.237.29-.358.656-.341 1.03z" transform="translate(-186 -268) translate(186 268)"/>
                <path fill="#000" d="M193.134 199.35l8.266 2.074c2.84.587 5.235 0 6.568-2.593l6.106-11.884c.448-.976 1.135-1.823 1.996-2.463 2.339-1.656 7.184-5.577 9.359-11.09.006.04.003.082-.01.121-.012.039-.034.075-.063.104l-.043.063c-.438 4.542-2.733 8.564-6.471 11.62l-.886.837c-.548.49-.988 1.09-1.294 1.76l-9.142 19.848-.12-.087-14.266-8.31z" opacity=".15" transform="translate(-186 -268) translate(186 268)"/>
                <path fill="#21252B" d="M113.977 96.618c-1.73-.067-3.45.322-4.984 1.126-.57.282-1.218.363-1.84.232-.62-.132-1.18-.47-1.586-.959-2.153-2.467-4.992-4.237-8.154-5.084-3.163-.846-6.507-.731-9.604.33-3.098 1.061-5.809 3.021-7.788 5.63-1.978 2.608-3.135 5.747-3.322 9.016-.02.404-.126.799-.31 1.159-.185.36-.443.677-.759.93-1.572 1.257-2.807 2.888-3.589 4.743-2.887 6.616-.4 20.372 11.066 24.029 5.904 1.89 7.828-5.6 6.962-13.732 3.58.676 7.282.149 10.53-1.5 3.247-1.65 5.857-4.329 7.422-7.618 1.539 1.039 3.336 1.628 5.192 1.702 1.855.075 3.694-.368 5.311-1.28 1.618-.912 2.95-2.255 3.847-3.88.897-1.625 1.324-3.468 1.234-5.323-.142-2.497-1.204-4.853-2.983-6.612-1.778-1.758-4.146-2.795-6.645-2.91z" transform="translate(-186 -268) translate(186 268)"/>
                <path fill="#FC9D9D" d="M29.43 322.104l3.06 24.99c.038.304.108.602.208.891l5.033 14.853c.522 1.548.755 3.179.688 4.811l-.78 19.28c-.016.402-.183.783-.467 1.068-.284.285-.666.453-1.068.471-.422.018-.835-.13-1.148-.414-.313-.284-.503-.68-.526-1.101l-.996-17.865-3.517 18.375c-.083.431-.33.814-.688 1.069-.359.254-.802.36-1.237.297-.422-.065-.804-.286-1.07-.62-.268-.333-.401-.754-.373-1.18l1.16-17.994-1.06 16.234c-.026.423-.212.82-.52 1.112-.308.292-.715.457-1.14.46-.436.007-.858-.157-1.175-.457-.318-.3-.505-.713-.522-1.15l-.708-15.963.606 13.765c.02.357-.102.708-.337.977-.236.27-.567.437-.923.466-.36.031-.717-.08-.996-.311-.278-.23-.454-.561-.49-.92l-3.658-35.985-6.067-26.275 18.712 1.116z" transform="translate(-186 -268) translate(186 268)"/>
                <path fill="#000" d="M26.65 385.831h-.033c-.148-.01-.285-.077-.382-.189-.098-.11-.147-.256-.137-.403l.962-15.098c.009-.147.077-.283.187-.38.11-.098.255-.147.402-.137.147.01.284.077.38.187.097.111.147.255.137.402l-.986 15.098c-.007.137-.066.267-.164.363-.098.096-.228.152-.365.157zM23.19 383.594c-.142 0-.28-.055-.383-.154-.102-.098-.164-.233-.17-.376l-.61-13.765c.005-.14.063-.273.161-.372.1-.099.232-.158.372-.164.14-.006.277.04.384.131.107.09.176.218.194.357l.61 13.765c.004.073-.007.147-.033.215-.025.069-.063.132-.113.186-.05.053-.11.097-.176.127-.066.03-.138.047-.211.05h-.025z" opacity=".15" transform="translate(-186 -268) translate(186 268)"/>
                <path fill="#FFF" d="M138.376 308.627c-2.566 1.152-5.193 2.188-7.88 3.108-2.214.757-4.46 1.436-6.737 2.036-7.869 2.053-15.968 3.089-24.1 3.084-3.648 0-7.293-.207-10.917-.62-6.99-.8-13.87-2.377-20.511-4.702 7.515-72.772 9.373-136.162 4.051-151.742l7.588-2.03 1.443-.385 29.557.265h.303l3.762 1.332v.03c.63 12.268 11.25 75.341 20.69 132.895.947 5.653 1.861 11.244 2.751 16.73z" transform="translate(-186 -268) translate(186 268)"/>
                <path fill="#21252B" d="M147.869 177.209l20.482 48.826 37.134-46.704 12.635 11.922-37.78 64.232c-6.004 10.215-20.914 9.777-26.317-.765l-21.84-42.648 15.686-34.863z" transform="translate(-186 -268) translate(186 268)"/>
                <path fill="#FC9D9D" d="M110.663 122.585s-26.17-16.426-27.16 3.642l-.362 5.216-1.828 26.29c-.03.726.22 1.437.698 1.986l15.117 10.335c.223.152.49.227.76.212.27-.015.527-.118.732-.294l11.234-9.58c.375-.32.667-.728.85-1.186.184-.458.254-.954.204-1.445l-1.689-15.603c.338-1.526.519-3.082.54-4.643.168-7.824.904-14.93.904-14.93z" transform="translate(-186 -268) translate(186 268)"/>
                <path fill="#FC9D9D" d="M113.55 108.444s9.266 38.972-10.725 41.595c-17.321 2.285-19.246-24.673-19.246-24.673l.828-17.523 29.143.601z" transform="translate(-186 -268) translate(186 268)"/>
                <path fill="#000" d="M83.04 132.756s1.655.144 2.54-.592l-2.805 4.33.264-3.738z" opacity=".15" transform="translate(-186 -268) translate(186 268)"/>
                <path fill="#FC9D9D" d="M84.026 122.364s-1.304-3.662-5.105-1.983c-4.33 1.925-3.474 11.817 3.912 12.375 3.849.289 3.079-1.924 2.405-4.912l-1.212-5.48z" transform="translate(-186 -268) translate(186 268)"/>
                <path fill="#000" d="M78.704 122.955c.298-.234.64-.403 1.006-.497.366-.095.748-.112 1.121-.051.36.096.696.266.986.5.29.234.528.526.698.857.477.818.73 1.747.731 2.694l.077.866c-.011.113-.064.217-.148.293-.084.076-.193.117-.306.117-.113 0-.223-.041-.306-.117-.085-.076-.137-.18-.149-.293l-.072-.861c-.035-.782-.24-1.548-.602-2.242-.093-.238-.245-.45-.44-.615-.196-.165-.43-.278-.68-.33-.25-.053-.51-.043-.755.03s-.47.205-.65.385c-.1.068-.222.093-.34.07-.119-.022-.223-.09-.29-.19-.069-.1-.094-.222-.071-.34.022-.118.09-.222.19-.29v.014z" opacity=".3" transform="translate(-186 -268) translate(186 268)"/>
                <path fill="#000" d="M110.403 153.152l-.669-6.255c-1.665 1.76-6.486 4.23-11.894 2.954-2.722-.686-5.164-2.199-6.99-4.33-.034-.045-.077-.084-.126-.112-.048-.029-.103-.047-.159-.053-.056-.006-.113 0-.167.016-.054.017-.104.044-.147.081-.043.037-.077.083-.101.134-.024.051-.038.107-.04.163-.001.057.009.113.03.166.021.052.053.1.093.139 2.348 2.735 5.625 4.503 9.2 4.965 1.595 1.067 3.387 1.805 5.27 2.17 1.884.367 3.821.353 5.7-.038z" opacity=".15" transform="translate(-186 -268) translate(186 268)"/>
                <g fill="#000" opacity=".3">
                    <path d="M3.31 1.14h-.062c-1.583.145-2.382.198-2.382.198C.727 1.347.59 1.3.485 1.209.38 1.118.315.99.305.85.297.71.343.573.435.468c.091-.106.22-.17.36-.18 0 0 .794-.057 2.362-.197.138-.02.278.015.39.098.112.083.187.207.207.345.02.138-.015.278-.098.39-.083.112-.207.186-.345.207v.01z" transform="translate(-186 -268) translate(186 268) translate(101.04 140.974)"/>
                </g>
                <g fill="#000" opacity=".3">
                    <path d="M7.54 4.114C3.162 4.758 1.203 2.382.52 1.198.485 1.143.462 1.08.452 1.015.442.95.446.884.462.82.479.757.509.698.549.646.589.594.639.55.699.52.753.484.815.46.881.45c.065-.01.132-.007.196.01.065.016.124.046.177.087.052.041.095.092.126.15.669 1.16 2.805 3.662 8.093 1.925.128-.04.266-.03.385.032.12.062.21.168.25.295.04.128.03.267-.032.386-.062.12-.167.209-.295.25-.731.24-1.481.416-2.242.529z" transform="translate(-186 -268) translate(186 268) translate(97.671 135.681)"/>
                </g>
                <path fill="#21252B" d="M101.468 128.253c.88 0 1.592-.713 1.592-1.593s-.713-1.592-1.592-1.592c-.88 0-1.593.713-1.593 1.592 0 .88.713 1.593 1.593 1.593z" transform="translate(-186 -268) translate(186 268)"/>
                <path fill="#FFF" d="M102.166 126.492c.188 0 .341-.153.341-.342 0-.189-.153-.342-.341-.342-.189 0-.342.153-.342.342 0 .19.153.342.342.342z" transform="translate(-186 -268) translate(186 268)"/>
                <path fill="#21252B" d="M114.127 128.277c.88 0 1.592-.713 1.592-1.593s-.713-1.592-1.592-1.592c-.88 0-1.593.713-1.593 1.592 0 .88.713 1.593 1.593 1.593z" transform="translate(-186 -268) translate(186 268)"/>
                <path fill="#FFF" d="M114.824 126.516c.189 0 .341-.153.341-.342 0-.188-.152-.341-.341-.341-.189 0-.342.153-.342.341 0 .189.153.342.342.342z" transform="translate(-186 -268) translate(186 268)"/>
                <g fill="#000" opacity=".3">
                    <path d="M2.945 4.051L.8 4.21c-.07.025-.145.034-.218.025-.074-.008-.145-.034-.208-.074-.062-.04-.114-.095-.152-.159-.038-.064-.06-.136-.066-.21-.005-.074.007-.148.035-.217.028-.069.072-.13.128-.18.055-.048.122-.084.194-.103.072-.019.147-.02.22-.006l2.146-.159c.126-.01.25-.043.362-.1.114-.058.214-.137.297-.233.083-.096.146-.207.185-.328.04-.12.055-.247.046-.373-.01-.127-.044-.25-.101-.363-.057-.113-.136-.214-.232-.297-.096-.082-.208-.145-.328-.185-.12-.04-.248-.055-.374-.045-.103-.021-.195-.075-.265-.154C2.4.97 2.358.87 2.35.766c-.008-.104.019-.208.076-.296.057-.088.141-.155.24-.19.488-.014.963.161 1.326.49.362.327.584.782.62 1.27.036.486-.117.969-.428 1.346-.31.377-.754.62-1.239.68V4.05z" transform="translate(-186 -268) translate(186 268) translate(103.445 131.832)"/>
                </g>
                <path fill="#21252B" d="M118.789 124.822c-.003-.614-.25-1.202-.685-1.635-.435-.433-1.025-.676-1.64-.674H94.53c-.51.003-1.007.173-1.411.485-.404.312-.695.748-.827 1.242-.05.193-.075.392-.077.592v2.165c.02 1.659.698 3.242 1.885 4.4 1.187 1.16 2.786 1.8 4.445 1.78 1.659-.02 3.242-.698 4.4-1.884 1.16-1.187 1.8-2.786 1.78-4.445.005-.09.005-.18 0-.27v-1.785c-.001-.503-.17-.99-.481-1.385h2.434c-.31.397-.479.886-.48 1.39v2.146c.07 1.142.451 2.243 1.102 3.184.65.94 1.544 1.687 2.588 2.157.811.366 1.693.553 2.583.548 1.663-.008 3.254-.673 4.427-1.852 1.172-1.18 1.83-2.774 1.828-4.436l.063-1.723zm-20.285 7.193c-1.358 0-2.666-.516-3.66-1.443-.992-.927-1.597-2.196-1.69-3.551V124.918c-.001-.194.042-.386.125-.563.107-.244.284-.453.508-.6.223-.147.485-.226.752-.227h7.901c.369 0 .722.148.983.408s.41.613.412.982v1.78c.005.074.005.148 0 .222-.067 1.37-.657 2.663-1.649 3.611-.992.949-2.31 1.48-3.682 1.484zm17.07-1.005c-.804.567-1.752.9-2.736.958-.983.059-1.963-.158-2.83-.626-.787-.42-1.457-1.031-1.948-1.777-.49-.746-.787-1.602-.862-2.491-.015-.144-.023-.288-.024-.433v-1.785c.001-.37.148-.722.408-.984.26-.26.614-.41.982-.411H116.474c.37 0 .724.146.985.407.262.26.41.614.41.983v1.78c0 .633-.109 1.261-.322 1.857-.385 1.022-1.073 1.902-1.972 2.522z" transform="translate(-186 -268) translate(186 268)"/>
                <path fill="#000" d="M138.376 308.627c-2.566 1.152-5.193 2.188-7.88 3.108-2.214.757-4.46 1.436-6.737 2.036l-2.405-21.868c-6.11-53.81-8.425-133.54-8.425-133.54l16.234 133.54h7.784l2.156 16.392c-.236.116-.476.226-.727.332z" opacity=".15" transform="translate(-186 -268) translate(186 268)"/>
                <path fill="#21252B" d="M95.164 298.788c-.23 6.36-2.483 12.48-6.433 17.47-14.11-1.607-27.674-6.376-39.684-13.953l-.717-76.939v-.231l-18.933-17.21-.481-23.47c-.095-4.426 1.355-8.747 4.102-12.218 2.748-3.472 6.619-5.878 10.948-6.802l35.903-7.674c5.018 14.684 17.802 73.369 15.295 141.027zM149.971 187.394l-1.087 21.252-.654 12.784-.568 11.148-.433 8.83-3.296 64.525c-1.578.834-3.182 1.621-4.811 2.362-.246.116-.482.226-.737.332-2.565 1.152-5.192 2.188-7.88 3.108-9.18-62.1-16.865-139.732-17.557-153.373l2.016.645 20.838 6.669c4.763 1.525 9.464 5.903 12.081 11.547.255.549.481 1.112.703 1.684 1.025 2.707 1.497 5.594 1.385 8.487z" transform="translate(-186 -268) translate(186 268)"/>
                <path fill="#000" d="M159.532 248.677l-10.504-19.765.775-19.857c.003-.07-.008-.142-.033-.21-.025-.066-.062-.128-.11-.18-.05-.053-.108-.095-.173-.125-.065-.03-.135-.047-.206-.05-.144-.006-.285.046-.39.144-.107.098-.17.234-.175.378l-.775 19.886c-.031.068-.05.141-.053.216l-.78 12.096 6.915 13.5c5.403 10.547 20.313 10.98 26.318.77l.524-.885c-1.766 1.1-3.742 1.82-5.802 2.117-2.06.296-4.158.162-6.163-.394-2.006-.556-3.873-1.523-5.486-2.838-1.612-1.315-2.935-2.95-3.882-4.803zM166.047 229.114l2.304-3.08-3.074-7.332-.626 9.897c-.011.167.032.334.123.475.09.14.225.248.382.306.157.058.33.063.49.016.16-.049.301-.147.4-.282z" opacity=".4" transform="translate(-186 -268) translate(186 268)"/>
                <path fill="#21252B" d="M31.005 175.351L1.338 257.145c-1.357 3.75-1.69 7.795-.963 11.716l14.54 79.335 18.019-3.026-6.91-75.905 32.762-64.473-27.781-29.44zM88.895 104.763v2.132h-5.292v18.009c-.004.349.119.687.345.953.226.265.542.44.887.49.192.02.386 0 .57-.06.183-.059.352-.157.495-.286.144-.13.259-.288.337-.464.078-.176.118-.367.118-.56v-6.337c.011-.557.134-1.105.362-1.613.229-.507.557-.964.966-1.342.383-.367.688-.809.896-1.298.209-.488.316-1.014.316-1.545v-2.719c0-.188.054-.373.154-.532.1-.16.242-.289.411-.372.17-.083.359-.117.546-.099.188.019.366.09.516.205 11.648 9.141 23.792 2.93 23.792 2.93v-7.492H88.895z" transform="translate(-186 -268) translate(186 268)"/>
                <path fill="#FC9D9D" d="M107.164 115.122c-.119.005-.234-.038-.322-.118-.087-.081-.138-.193-.142-.312-.005-.119.038-.235.119-.322.08-.087.193-.138.311-.143.063 0 6.183-.52 8.622-3.488.076-.092.184-.15.302-.161.119-.012.237.024.328.099.092.075.15.184.163.302.011.118-.024.236-.1.328-2.685 3.267-8.978 3.791-9.243 3.81l-.038.005z" transform="translate(-186 -268) translate(186 268)"/>
                <path fill="#000" d="M98.485 170.949L86.61 185.768 99.875 177.209 114.901 181.664z" opacity=".15" transform="translate(-186 -268) translate(186 268)"/>
                <path fill="#203B95" d="M93.39 177.31l4.734 4.623 2.564 97.239c.01.418.133.825.356 1.179l7.588 12.067c.182.3.444.544.757.704.313.16.665.228 1.015.199.35-.03.685-.157.967-.366.282-.21.5-.495.629-.821l5.292-12.832c.165-.4.215-.838.145-1.266l-15.628-96.372 3.08-6.529-6.395-4.172-5.105 6.347z" transform="translate(-186 -268) translate(186 268)"/>
                <g fill="#21252B" opacity=".34">
                    <path d="M2.232 71.026L2.367 76.184 14.602 67.716 13.837 62.991zM2.559 83.429L2.693 88.587 16.444 79.075 15.675 74.35zM2.887 95.833l.13 4.836c0 .105.01.21.029.313l15.237-10.528-.77-4.724L2.887 95.833zM8.424 109.888l10.407-7.218.784-1.886c.166-.4.216-.838.145-1.265l-.4-2.468-13.236 9.141 2.3 3.696zM1.939 59.811L2.073 64.968 12.937 57.453 12.172 52.728zM.754 14.953L.889 20.116 6.278 16.387 5.508 11.662zM5.499.25L.457 3.738.596 8.901 4.614 6.12 4.133 3.161zM1.049 26.169L1.184 31.327 7.944 26.65 7.179 21.925zM1.641 48.595L1.775 53.758 11.273 47.185 10.508 42.461zM1.347 37.384L1.481 42.542 9.608 36.917 8.843 32.193z" transform="translate(-186 -268) translate(186 268) translate(97.671 178.503)"/>
                </g>
                <path fill="#FC9D9D" d="M603.427 241.46l-8.627-.034c-.164-.001-.323.015-.481.049l-7.81 1.544c-.673.133-1.318.402-1.885.79-.568.387-1.054.886-1.425 1.467l-3.945 6.153c-.135.213-.192.468-.15.717.04.249.174.474.371.63.207.167.472.245.737.22.264-.025.505-.152.678-.354l4.552-5.34 5.701-1.526-5.24 2.406-4.205 6.61c-.149.234-.211.511-.178.785.034.274.159.529.356.721.12.115.26.206.41.267.153.061.317.091.48.089.169-.003.328-.038.482-.104.149-.066.283-.162.399-.28l4.936-5.197 3.878-1.65-3.483 2.584-4.056 5.066c-.183.232-.27.527-.24.823.028.295.177.567.403.755.212.173.477.263.751.256.27-.008.53-.114.731-.3l4.812-4.42 4.388-2.142-5.38 4.884c-.211.19-.336.452-.36.734-.024.281.062.561.24.781.16.193.376.327.616.38.246.053.5.023.722-.086l7.323-3.946 5.292.28c1.954.098 3.878-.479 5.457-1.634 1.578-1.155 2.708-2.817 3.204-4.708l.13-.481 30.273-42.898-15.988-11.317-23.87 47.426z" transform="translate(-186 -268) translate(186 268)"/>
                <path fill="#000" d="M613.386 222.118l6.553 8.401c.198.255.313.565.327.888.015.323-.077.642-.255.911l-9.526 14.478s-3.118 8.266-10.85 8.025l4.61.231c1.953.098 3.877-.478 5.456-1.633 1.578-1.155 2.708-2.817 3.204-4.708l.13-.481 11.874-16.84-11.523-9.272z" opacity=".15" transform="translate(-186 -268) translate(186 268)"/>
                <path fill="#CEDFE9" d="M634.335 150.015c.005 4.455-.38 8.903-1.14 13.294-1.145 6.682-3.171 13.183-6.029 19.332-.678 1.462-1.405 2.906-2.17 4.33-5.803 10.739-14.054 19.957-24.09 26.908-10.032 6.95-21.565 11.436-33.661 13.094-12.091 1.658-24.404.44-35.941-3.553-11.533-3.993-21.964-10.65-30.442-19.431-.558-.577-1.112-1.17-1.65-1.766-8.719-9.596-14.892-21.222-17.966-33.817-3.07-12.596-2.94-25.76.385-38.291 3.32-12.532 9.728-24.032 18.634-33.453 8.906-9.42 20.03-16.46 32.357-20.478 1.925-.642 3.888-1.197 5.894-1.665 5.956-1.43 12.062-2.151 18.187-2.146h2.401c3.618.109 7.227.469 10.797 1.078 18.052 3.095 34.425 12.476 46.223 26.482 11.797 14.006 18.264 31.734 18.25 50.048l-.039.034z" transform="translate(-186 -268) translate(186 268)"/>
                <path fill="#21252B" d="M591.913 112.5l-3.96 3.888c-6.774 6.658-15.767 10.578-25.255 11.008l-.034.044h-7.698c-10.104-.005-19.804-3.98-27.006-11.067l-3.96-3.887c-.168-.163-.308-.358-.4-.573-.09-.216-.144-.448-.144-.683 0-.235.044-.468.135-.685.087-.217.221-.414.385-.58.168-.166.366-.297.582-.387.217-.089.448-.135.683-.133 2.339.002 4.58-.923 6.236-2.573 1.655-1.65 2.584-3.89 2.588-6.227V78.907h47.35c.028.055.052.111.076.168.27.648.4 1.344.385 2.045v19.549c0 2.337.929 4.578 2.58 6.231 1.654 1.653 3.892 2.582 6.23 2.583.346.009.683.118.967.314.284.196.505.472.635.793.13.32.164.672.096 1.01-.067.34-.23.653-.471.9z" transform="translate(-186 -268) translate(186 268)"/>
                <path fill="#FC9D9D" d="M427.118 157.578l-7.218-2.771-9.478.457c-.174-.002-.344.04-.498.12-.153.08-.285.195-.384.337-.099.142-.161.307-.182.479-.02.171 0 .346.063.507.11.251.293.464.524.612.23.148.5.225.775.22l8.872.439 4.88 2.987-4.88-2.987-7.881.317c-.14.002-.279.036-.405.097-.127.061-.238.15-.326.26-.089.108-.152.235-.187.372-.034.136-.037.278-.01.416.084.242.244.45.455.594.21.145.463.218.718.21l7.785.37 7.117 4.244-7.117-4.244-5.807.885c-.095.013-.186.048-.265.101-.08.054-.145.126-.191.21-.047.083-.074.176-.078.272-.005.096.014.191.053.279.074.16.197.294.352.38.155.087.333.122.509.1h6.51l6.828 3.528-.534-8.79z" transform="translate(-186 -268) translate(186 268)"/>
                <path fill="#FC9D9D" d="M427.118 157.578l-7.218-2.771-9.478.457c-.174-.002-.344.04-.498.12-.153.08-.285.195-.384.337-.099.142-.161.307-.182.479-.02.171 0 .346.063.507.11.251.293.464.524.612.23.148.5.225.775.22l8.872.439 4.88 2.987-4.88-2.987-7.881.317c-.14.002-.279.036-.405.097-.127.061-.238.15-.326.26-.089.108-.152.235-.187.372-.034.136-.037.278-.01.416.084.242.244.45.455.594.21.145.463.218.718.21l7.785.37 7.117 4.244-7.117-4.244-5.807.885c-.095.013-.186.048-.265.101-.08.054-.145.126-.191.21-.047.083-.074.176-.078.272-.005.096.014.191.053.279.074.16.197.294.352.38.155.087.333.122.509.1h6.51l6.828 3.528-.534-8.79z" transform="translate(-186 -268) translate(186 268)"/>
                <path fill="#000" d="M427.118 157.578l-7.218-2.771-9.478.457c-.174-.002-.344.04-.498.12-.153.08-.285.195-.384.337-.099.142-.161.307-.182.479-.02.171 0 .346.063.507.11.251.293.464.524.612.23.148.5.225.775.22l8.872.439 4.88 2.987-4.88-2.987-7.881.317c-.14.002-.279.036-.405.097-.127.061-.238.15-.326.26-.089.108-.152.235-.187.372-.034.136-.037.278-.01.416.084.242.244.45.455.594.21.145.463.218.718.21l7.785.37 7.117 4.244-7.117-4.244-5.807.885c-.095.013-.186.048-.265.101-.08.054-.145.126-.191.21-.047.083-.074.176-.078.272-.005.096.014.191.053.279.074.16.197.294.352.38.155.087.333.122.509.1h6.51l6.828 3.528-.534-8.79z" opacity=".15" transform="translate(-186 -268) translate(186 268)"/>
                <path fill="#203B95" d="M402.38 104.048l-50.217 9.224c-2.089.383-3.47 2.387-3.087 4.476l12.222 66.545c.384 2.089 2.388 3.47 4.476 3.087l50.217-9.223c2.088-.384 3.47-2.388 3.087-4.477l-12.223-66.545c-.383-2.088-2.387-3.47-4.476-3.087z" transform="translate(-186 -268) translate(186 268)"/>
                <path fill="#FFF" d="M403.812 106.657l-50.443 9.013c-2.097.375-3.495 2.38-3.12 4.477l11.943 66.84c.374 2.098 2.379 3.495 4.477 3.12l50.442-9.013c2.099-.374 3.495-2.379 3.12-4.477l-11.942-66.84c-.375-2.098-2.38-3.495-4.477-3.12z" opacity=".5" transform="translate(-186 -268) translate(186 268)"/>
                <path fill="#203B95" d="M408.29 109.796l2.08 11.63-58.04 10.368-2.06-11.634c-.09-.499-.08-1.01.027-1.505.109-.495.313-.964.603-1.38.29-.416.658-.77 1.085-1.043.427-.272.904-.459 1.403-.547l50.447-9.011c1.005-.177 2.039.053 2.875.639.835.586 1.404 1.479 1.58 2.483z" transform="translate(-186 -268) translate(186 268)"/>
                <path fill="#203B95" d="M364.36 110.278c-.22-1.224-1.389-2.04-2.613-1.82-1.224.219-2.04 1.388-1.821 2.612l1.259 7.043c.218 1.225 1.388 2.04 2.612 1.82 1.224-.218 2.04-1.387 1.82-2.612l-1.258-7.043zM374.928 108.385c-.219-1.224-1.388-2.039-2.612-1.82-1.224.219-2.04 1.388-1.82 2.613l1.257 7.043c.22 1.224 1.389 2.039 2.613 1.82 1.224-.218 2.04-1.388 1.82-2.612l-1.258-7.044zM384.159 104.008c-.224-1.219-1.393-2.025-2.612-1.801-1.219.223-2.025 1.393-1.801 2.612l1.288 7.011c.223 1.22 1.393 2.026 2.612 1.802 1.218-.224 2.025-1.394 1.801-2.612l-1.288-7.012zM396.076 104.61c-.219-1.225-1.388-2.04-2.613-1.82-1.224.218-2.039 1.388-1.82 2.612l1.258 7.043c.219 1.224 1.388 2.04 2.613 1.82 1.224-.218 2.039-1.388 1.82-2.612l-1.258-7.043z" transform="translate(-186 -268) translate(186 268)"/>
                <g fill="#FFF" opacity=".5">
                    <path d="M4.466 8.277c-.218-1.224-1.388-2.04-2.612-1.821C.63 6.675-.186 7.845.034 9.069l1.258 7.042c.218 1.225 1.388 2.04 2.612 1.821 1.224-.218 2.04-1.388 1.821-2.613L4.466 8.277zM15.036 6.384c-.22-1.224-1.389-2.04-2.613-1.82-1.224.218-2.04 1.388-1.82 2.612l1.258 7.043c.219 1.224 1.388 2.04 2.613 1.82 1.224-.218 2.039-1.388 1.82-2.612l-1.258-7.043zM24.266 2.006C24.043.788 22.873-.019 21.654.205c-1.219.224-2.025 1.393-1.801 2.612L21.14 9.83c.224 1.218 1.393 2.025 2.612 1.801 1.219-.224 2.025-1.393 1.801-2.612l-1.288-7.012zM36.183 2.609c-.218-1.225-1.388-2.04-2.612-1.82-1.224.218-2.04 1.388-1.821 2.612l1.259 7.043c.218 1.224 1.388 2.04 2.612 1.82 1.224-.219 2.04-1.388 1.82-2.612l-1.258-7.043z" transform="translate(-186 -268) translate(186 268) translate(359.893 102.002)"/>
                </g>
                <path fill="#203B95" d="M372.747 151.238l-1.518-8.497c-.058-.327-.37-.544-.698-.486l-5.627 1.005c-.326.059-.544.37-.486.698l1.518 8.497c.059.327.371.545.698.486l5.627-1.005c.327-.058.545-.37.486-.698z" transform="translate(-186 -268) translate(186 268)"/>
                <path fill="#FFF" d="M388.347 148.446l-1.518-8.497c-.059-.327-.371-.545-.698-.486l-5.627 1.005c-.327.058-.545.37-.486.698l1.518 8.497c.058.327.37.545.697.486l5.627-1.005c.328-.059.545-.371.487-.698zM402.41 136.532l-6.05 1.08c-.326.059-.544.37-.486.698l1.519 8.497c.058.327.37.545.697.486l6.049-1.08c.327-.059.544-.371.486-.698l-1.518-8.497c-.058-.327-.37-.545-.698-.486zM376.065 169.812l-1.519-8.497c-.058-.327-.37-.545-.697-.486l-5.627 1.005c-.327.059-.545.37-.487.698l1.519 8.497c.058.327.37.545.697.486l5.627-1.005c.327-.058.545-.371.487-.698zM391.665 167.024l-1.518-8.497c-.058-.327-.371-.545-.698-.486l-5.627 1.005c-.327.059-.544.371-.486.698l1.518 8.497c.058.327.37.545.698.487l5.627-1.006c.327-.058.544-.37.486-.698z" transform="translate(-186 -268) translate(186 268)"/>
                <path fill="#203B95" d="M410.758 162.878l-1.554-8.459c-.06-.325-.372-.54-.697-.48l-5.602 1.028c-.326.06-.541.372-.481.698l1.553 8.459c.06.325.373.54.698.48l5.602-1.028c.325-.06.54-.372.48-.698z" transform="translate(-186 -268) translate(186 268)"/>
                <path fill="#FC9D9D" d="M427.2 155.057l9.43 8.964c.548.513 1.207.895 1.924 1.116l21.603 6.226-5.735 12.803-16.647-7.636c-.558-.264-1.17-.41-1.785-.428l-1.025-.048c-4.051.067-7.698-1.265-10.44-3.936h-.063c-.39-.373-.857-.661-1.362-.847-1.862-.644-6.356-2.242-6.356-2.242-.066-.012-.13-.038-.185-.076-.056-.038-.103-.087-.14-.145-.034-.058-.057-.122-.066-.19-.009-.066-.003-.135.016-.2.279-1.169 1.516-1.977 2.973-1.823l3.368.351c1.785.168 3.152-1.198 2.738-2.728l-1.886-6.5c-.063-.207-.164-.4-.303-.565-.14-.165-.313-.3-.505-.398l-10.845-5.773c-.216-.092-.388-.264-.478-.481-.09-.217-.091-.46-.003-.679.132-.265.36-.47.638-.573.278-.103.585-.096.858.02 2.887 1.078 11.547 4.523 13.54 5.393.283.048.538.187.735.395z" transform="translate(-186 -268) translate(186 268)"/>
                <path fill="#000" d="M459.094 171.002l-4.171 5.807c-1.501 1.925-3.368 2.83-5.615 1.896l-10.354-4.301c-.818-.379-1.718-.544-2.613-.482-2.406.207-7.621.318-12-2.035.02.03.044.055.073.073.028.019.062.03.096.033h.062c2.738 2.675 6.39 4.003 10.441 3.936l1.025.053c.616.016 1.227.162 1.785.428l16.619 7.756.028-.12 4.624-13.044z" opacity=".15" transform="translate(-186 -268) translate(186 268)"/>
                <path fill="#BABABA" d="M604.528 142.668c-.88 4.032-1.717 7.963-2.405 11.23-.284 1.366-.549 2.617-.775 3.709-.606 2.887-.962 4.7-.962 4.7l-.443 2.912-4.195 27.497c-1.232 5.654-1.675 11.453-1.314 17.23.173 2.593.428 5.114.741 7.524-11.639 6.625-24.788 10.132-38.178 10.181-13.395.049-26.569-3.362-38.256-9.901 1.136-7.833 1.342-16.36-.794-23.72l-2.805-8.777-6.774 13.405c-1.15 2.269-3.133 4.004-5.533 4.842-2.401.837-5.033.71-7.343-.353l-1.693-.784-6.15-2.834-.899-.419-29.455-13.582-2.983-1.372v-.057l4.763-13.063v-.044l3.17.857 21.897 5.932 9.113 2.464s17.057-43.63 17.672-44.746l.073-.183v.038c2.18-3.805 5.744-6.619 9.95-7.852l14.828-4.133 1.275-.36.645-.184.63-.178 1.266-.356h.048l32.924-.26 3.503.746.101.024 2.17.482 1.058.226 14.887 3.238c1.718.374 3.339 1.082 4.782 2.085 1.444 1.002 2.67 2.28 3.619 3.757.952 1.478 1.597 3.129 1.91 4.857.308 1.729.274 3.501-.101 5.217l.033.005z" transform="translate(-186 -268) translate(186 268)"/>
                <path fill="#000" d="M575.136 129.691l3.849-5.494.48-.684-1.053-.226-2.285-.48-12.423 1.496-25.953-1.444-1.925.549-1.077.298 3.916 5.836c4.162 6.067 11.013 9.892 18.375 9.835.428 0 .861 0 1.294-.039 3.349-.234 6.597-1.223 9.507-2.894 2.911-1.67 5.404-3.98 7.295-6.753z" opacity=".6" transform="translate(-186 -268) translate(186 268)"/>
                <path fill="#BABABA" d="M601.574 131.063l48.595 49.557c1.833 1.865 2.945 4.318 3.142 6.925.197 2.606-.539 5.199-2.069 7.317l-26.357 36.509-11.913-9.565 16.123-31.275-34.093-29.551 6.572-29.917z" transform="translate(-186 -268) translate(186 268)"/>
                <path fill="#000" d="M603.83 159.695l-1.005-5.494c-.034-.092-.096-.17-.178-.226-.077-.055-.173-.085-.27-.085-.1 0-.197.03-.274.085-.081.056-.144.134-.178.226l-1.876 11.119L629.1 190.53l1.362-2.405c.279-.486.38-1.054.284-1.607-.092-.553-.376-1.055-.804-1.42l-23.224-20.352c-1.506-1.308-2.526-3.09-2.887-5.052z" opacity=".15" transform="translate(-186 -268) translate(186 268)"/>
                <path fill="#000" d="M612.977 221.786L614.397 219.025 626.805 228.777 624.909 231.39z" opacity=".6" transform="translate(-186 -268) translate(186 268)"/>
                <path fill="#FC9D9D" d="M569.367 92.985l.673 24.774c.024.978.366 1.922.977 2.69.606.767 1.443 1.317 2.391 1.568l2.81.755-3.368 4.812c-1.665 2.43-3.854 4.45-6.414 5.91-2.554 1.46-5.412 2.322-8.347 2.52-.38 0-.76.028-1.136.033-3.185-.013-6.317-.806-9.122-2.308-2.81-1.502-5.206-3.668-6.982-6.31l-3.156-4.604 3.18-.87c.876-.24 1.66-.739 2.252-1.43.592-.692.958-1.545 1.059-2.448l3.247-29.398 21.936 4.306z" transform="translate(-186 -268) translate(186 268)"/>
                <path fill="#FC9D9D" d="M552.118 111.297l1.169.048c4.042.172 7.987-1.27 10.97-4.006 2.983-2.736 4.754-6.544 4.932-10.587l.923-21.41c.053-1.347-.428-2.66-1.342-3.652-.914-.992-2.18-1.582-3.527-1.64l-19.977-.862c-1.746-.068-3.45.557-4.734 1.739-1.29 1.181-2.055 2.824-2.136 4.569l-.857 19.885c-.173 4.044 1.26 7.991 3.994 10.975 2.737 2.985 6.543 4.762 10.585 4.941z" transform="translate(-186 -268) translate(186 268)"/>
                <path fill="#21252B" d="M553.19 90.122c.92 0 1.66-.743 1.66-1.66 0-.916-.74-1.66-1.66-1.66-.913 0-1.66.744-1.66 1.66 0 .917.747 1.66 1.66 1.66z" transform="translate(-186 -268) translate(186 268)"/>
                <path fill="#FFF" d="M552.435 89.367c.198 0 .356-.16.356-.356 0-.197-.158-.356-.356-.356-.197 0-.356.16-.356.356 0 .196.16.356.356.356z" transform="translate(-186 -268) translate(186 268)"/>
                <path fill="#21252B" d="M540.388 90.122c.914 0 1.66-.743 1.66-1.66 0-.916-.746-1.66-1.66-1.66-.92 0-1.66.744-1.66 1.66 0 .917.74 1.66 1.66 1.66z" transform="translate(-186 -268) translate(186 268)"/>
                <path fill="#FFF" d="M539.57 89.304c.197 0 .356-.159.356-.356 0-.196-.16-.356-.356-.356-.198 0-.356.16-.356.356 0 .197.158.356.356.356z" transform="translate(-186 -268) translate(186 268)"/>
                <g fill="#000" opacity=".3">
                    <path d="M2.218 4.196l2.233.173c.13.01.255-.032.35-.116.097-.083.155-.202.164-.33.01-.127-.029-.253-.115-.35-.082-.097-.197-.157-.327-.167L2.29 3.233c-.255-.035-.49-.167-.654-.369-.159-.201-.24-.458-.221-.716.024-.259.14-.5.332-.673.192-.174.442-.268.702-.263.125.01.25-.032.346-.115.101-.083.16-.2.169-.327.005-.064 0-.127-.02-.187-.023-.061-.052-.117-.096-.165C2.81.37 2.757.33 2.704.3c-.058-.029-.12-.046-.183-.05-.51-.021-1.01.158-1.39.498-.385.34-.621.815-.66 1.325-.038.51.12 1.016.448 1.41.327.395.789.648 1.3.707v.005z" transform="translate(-186 -268) translate(186 268) translate(544.65 93.341)"/>
                </g>
                <path fill="#FC9D9D" d="M568.072 97.609s7.217 1.193 9.363-5.87c2.146-7.063-6.654-9.142-8.535-2.006l-1.636 7.813.808.063z" transform="translate(-186 -268) translate(186 268)"/>
                <path fill="#000" d="M575.516 87.731c-.29-.27-.626-.478-.996-.61-.37-.133-.765-.187-1.16-.16-.38.068-.746.214-1.068.43-.322.215-.597.495-.804.821-.587.8-.957 1.741-1.063 2.728l-.1.775c-.092.572.89.827.961.163l.125-.837c.111-.809.395-1.584.838-2.27.12-.24.298-.444.514-.597.222-.152.472-.249.737-.279.264-.03.534.005.784.105.245.098.467.257.635.462.043.055.101.099.168.13.063.03.135.045.202.045.073 0 .145-.016.207-.047.063-.03.12-.075.169-.13.043-.055.077-.12.091-.189.02-.068.02-.14.005-.21-.014-.07-.043-.136-.087-.193-.043-.057-.096-.104-.158-.137z" opacity=".3" transform="translate(-186 -268) translate(186 268)"/>
                <path fill="#203B95" d="M570.238 96.661c.798 0 1.448-.649 1.448-1.448 0-.8-.65-1.448-1.448-1.448-.8 0-1.449.648-1.449 1.448 0 .8.65 1.448 1.449 1.448z" transform="translate(-186 -268) translate(186 268)"/>
                <path fill="#000" d="M569.67 96.396c.414.032.827-.102 1.145-.372.313-.27.51-.656.544-1.071.024-.295-.039-.59-.178-.852.149.122.269.27.356.438.091.168.149.352.163.541.02.19 0 .381-.053.563-.057.182-.149.352-.27.498-.12.147-.269.269-.437.358-.168.09-.351.145-.539.163-.192.019-.385 0-.563-.056-.183-.056-.351-.146-.5-.267.11.029.221.048.332.057z" opacity=".15" transform="translate(-186 -268) translate(186 268)"/>
                <path fill="#21252B" d="M541.586 79.754c6.428.207 10.84-1.814 13.409-3.546 1.602-1.029 2.997-2.347 4.114-3.888.062-.095.086-.211.062-.324-.019-.112-.086-.21-.183-.275-.091-.063-.211-.087-.322-.065-.11.022-.212.088-.274.183-.048.072-4.96 7.429-16.778 7.049-.11-.007-.22.032-.307.107-.082.075-.135.18-.14.292-.005.113.034.223.106.307.077.084.183.134.293.14l.02.02z" transform="translate(-186 -268) translate(186 268)"/>
                <path fill="#000" d="M569.492 97.686L567.144 97.647 569.626 102.627zM544.554 108.738c2.406 1.355 5.105 2.097 7.867 2.16.62.029 1.232.024 1.833 0 .236 0 .481-.024.702-.048h.154c.366-.039.722-.087 1.064-.144.144-.025.284-.044.423-.073 1.9-.335 3.724-.998 5.399-1.958.1-.046.216-.052.322-.019.106.034.192.106.25.202.053.096.072.209.048.317-.019.109-.082.205-.173.27-2.155 1.23-4.547 1.998-7.015 2.256-2.305 1.765-5.129 2.725-8.03 2.733-1.155-.006-2.305-.133-3.43-.38l.586-5.316z" opacity=".15" transform="translate(-186 -268) translate(186 268)"/>
                <path fill="#000" d="M459.094 171.002L454.292 184.166 457.275 185.537 462.26 171.863z" opacity=".6" transform="translate(-186 -268) translate(186 268)"/>
                <path fill="#000" d="M517.505 156.26l-1.588 5.595-2.016 3.368c-3.493 5.837-4.686 12.766-3.344 19.434l-6.438 13.472c-1.66 3.185-6.332 5.629-10.344 4.248l1.703.784c2.31 1.066 4.941 1.194 7.342.356 2.406-.837 4.388-2.574 5.533-4.845l6.77-13.404-.539-1.814c-.861-2.898-1.135-5.939-.808-8.944.332-3.005 1.26-5.914 2.733-8.555l1.679-3.007v-6.578c0-.082-.03-.162-.087-.225-.053-.062-.125-.104-.207-.117-.082-.014-.168.003-.235.045-.073.042-.126.109-.154.187z" opacity=".15" transform="translate(-186 -268) translate(186 268)"/>
                <path fill="#000" d="M486.73 199.125l.905.413-.904-.413z" transform="translate(-186 -268) translate(186 268)"/>
                <path fill="#FFF" d="M528.282 132.708c.654 0 1.184-.53 1.184-1.184 0-.653-.53-1.183-1.184-1.183-.654 0-1.184.53-1.184 1.183 0 .654.53 1.184 1.184 1.184zM505.986 159.556c.654 0 1.184-.53 1.184-1.184 0-.653-.53-1.184-1.184-1.184-.654 0-1.184.53-1.184 1.184 0 .654.53 1.184 1.184 1.184zM498.394 199.331c.654 0 1.183-.53 1.183-1.183 0-.654-.529-1.184-1.183-1.184-.655 0-1.184.53-1.184 1.184 0 .654.53 1.183 1.184 1.183zM465.816 178.768c.654 0 1.183-.53 1.183-1.184 0-.654-.529-1.184-1.183-1.184-.655 0-1.184.53-1.184 1.184 0 .653.53 1.184 1.184 1.184zM592.692 144.193c.655 0 1.184-.53 1.184-1.184 0-.654-.53-1.183-1.184-1.183-.654 0-1.183.53-1.183 1.183 0 .654.529 1.184 1.183 1.184zM625.371 162.952c.655 0 1.184-.53 1.184-1.183 0-.654-.53-1.184-1.184-1.184-.654 0-1.183.53-1.183 1.184 0 .653.529 1.183 1.183 1.183zM592.192 178.768c.654 0 1.184-.53 1.184-1.184 0-.654-.53-1.184-1.184-1.184-.654 0-1.184.53-1.184 1.184 0 .653.53 1.184 1.184 1.184zM567.144 179.152c.654 0 1.183-.53 1.183-1.183 0-.654-.529-1.184-1.183-1.184-.655 0-1.184.53-1.184 1.184 0 .653.53 1.183 1.184 1.183zM643.299 200.515c.654 0 1.183-.53 1.183-1.184 0-.653-.529-1.183-1.183-1.183-.655 0-1.184.53-1.184 1.183 0 .654.53 1.184 1.184 1.184zM548.711 156.005c.655 0 1.184-.53 1.184-1.184 0-.653-.53-1.183-1.184-1.183-.654 0-1.183.53-1.183 1.183 0 .654.529 1.184 1.183 1.184zM569.319 208.459c.654 0 1.183-.53 1.183-1.184 0-.654-.53-1.183-1.183-1.183-.655 0-1.184.53-1.184 1.183 0 .654.53 1.184 1.184 1.184zM538.593 193.721c.654 0 1.184-.53 1.184-1.183 0-.654-.53-1.184-1.184-1.184-.654 0-1.184.53-1.184 1.184 0 .654.53 1.183 1.184 1.183zM523.803 169.024c.654 0 1.183-.53 1.183-1.183 0-.654-.529-1.184-1.183-1.184-.655 0-1.184.53-1.184 1.184 0 .653.53 1.183 1.184 1.183z" transform="translate(-186 -268) translate(186 268)"/>
                <path fill="#000" d="M519.81 135.848l1.933 3.35c.16.276.51.371.79.212.274-.16.37-.513.211-.79l-1.934-3.349c-.159-.276-.515-.37-.79-.212-.278.16-.37.513-.21.79zM542.495 176.978h3.868c.318 0 .578-.259.578-.578 0-.319-.26-.577-.578-.577h-3.868c-.318 0-.577.258-.577.577 0 .32.26.578.577.578zM572.754 158.999l2.28-3.134c.188-.258.13-.62-.125-.808-.26-.188-.62-.13-.808.127l-2.285 3.134c-.188.258-.13.62.13.808.255.188.615.131.808-.127zM582.67 128.965l3.854.338c.318.027.597-.208.626-.525.028-.318-.207-.598-.525-.626l-3.854-.338c-.317-.028-.596.207-.625.525-.03.318.207.598.524.626zM531.14 215.44l2.266-3.137c.188-.258.125-.62-.13-.806-.26-.187-.62-.128-.808.13l-2.261 3.137c-.188.258-.13.619.13.805.255.187.615.129.803-.13zM640.912 185.264l2.266-3.137c.183-.258.125-.619-.13-.806-.26-.186-.62-.128-.808.13l-2.266 3.137c-.183.258-.125.62.13.806.26.187.62.128.808-.13zM609.224 146.533l3.349 1.934c.274.16.63.065.79-.211.158-.277.062-.63-.213-.79l-3.348-1.934c-.28-.159-.63-.064-.79.212-.158.276-.067.629.212.789zM621.157 214.622l3.348 1.934c.28.16.63.065.79-.211.158-.277.067-.63-.212-.789l-3.35-1.934c-.273-.16-.63-.065-.788.211-.159.276-.063.63.212.789zM504.023 173.242l3.349 1.934c.274.16.63.064.789-.212.159-.276.062-.629-.212-.788l-3.349-1.935c-.279-.159-.63-.065-.789.212-.158.276-.067.629.212.789zM474.313 188.903l3.863.251c.318.021.592-.22.611-.538.02-.318-.221-.593-.539-.614l-3.858-.251c-.318-.02-.592.22-.616.539-.02.318.221.593.539.613zM587.4 209.111l3.81.686c.313.057.611-.152.67-.466.057-.314-.155-.614-.468-.67l-3.805-.686c-.313-.057-.616.152-.67.465-.057.315.15.615.463.671z" opacity=".6" transform="translate(-186 -268) translate(186 268)"/>
                <g fill="#000" opacity=".15">
                    <path d="M28.08 3.099L25.466.429c1.448 2.29 2.184 4.96 2.117 7.67-.068 2.709-.938 5.338-2.502 7.552L0 51.611l2.786 2.238 26.082-36.013c3.816-5.408 2.781-11.004-.789-14.737z" transform="translate(-186 -268) translate(186 268) translate(622.114 177.54)"/>
                </g>
                <path fill="#21252B" d="M580.693 77.916s-.01-.005 0 0zM581.4 78.907c-.101-.214-.226-.415-.37-.601-.12-.108-.231-.228-.333-.357-.577-.737-.885-1.648-.87-2.583-.01-.132-.01-.263 0-.395.553-6.028-1.006-12.428-7.906-18.177-11.407-9.512-33.198-5.73-34.286 10.185-.019.283-.11.556-.269.791-.159.234-.38.422-.635.542-1.444.674-4.224 2.632-4.133 7.751.034 1.418.265 2.824.688 4.177.197.48 2.006 4.811 4.542 7.722l.4-9.031v-.553c.009-.21.062-.416.153-.604.096-.188.226-.355.39-.488.159-.134.351-.231.553-.287.202-.056.414-.068.62-.036 3.73.582 12.93 1.251 18.419-4.86 0 0 2.141 5.332 7.698 6.126l-.029.702-.081 1.848c-.12 2.81.235 5.62 1.063 8.309v.024c.067.153.178.287.313.385.14.099.298.16.466.178.164.017.337-.01.491-.078.154-.068.284-.176.385-.312.702-.962 1.78-2.497 1.925-2.406 1.15.64 3.627 6.255 4.104 4.884 1.092-3.142.327-5.913 1.506-10.35l5.263-2.3c-.019-.07-.038-.139-.067-.206z" transform="translate(-186 -268) translate(186 268)"/>
                <path fill="#FFF" d="M555.669 82.819c-1.227-.094-2.454.155-3.546.72-1.093.563-2.007 1.42-2.642 2.474-1.323-.487-2.776-.499-4.109-.033-.442-.647-1-1.211-1.64-1.665-.972-.699-2.122-1.116-3.316-1.208-.798-.064-1.602.02-2.372.25-.909.267-1.75.728-2.463 1.353-1.323 1.138-2.141 2.754-2.276 4.493-.11 1.423.236 2.843 1.001 4.05.76 1.206 1.89 2.133 3.224 2.643.601.238 1.231.384 1.876.433 1.52.115 3.031-.297 4.282-1.165 1.251-.868 2.17-2.14 2.594-3.603.13-.435.211-.884.245-1.338.096-1.211-.15-2.426-.703-3.507 1.073-.327 2.219-.309 3.277.053-.293.673-.476 1.39-.539 2.122v.024c-.12 1.619.361 3.225 1.347 4.514.987 1.29 2.41 2.172 4.003 2.48 1.598.308 3.248.022 4.643-.806 1.396-.828 2.44-2.14 2.935-3.686.154-.484.255-.985.294-1.492.125-1.752-.443-3.484-1.593-4.816-1.145-1.331-2.771-2.155-4.522-2.29zm-9.994 7.347c-.057.758-.264 1.497-.606 2.175-.346.679-.818 1.282-1.395 1.777-.578.494-1.246.87-1.973 1.104-.722.236-1.482.326-2.242.265-.664-.045-1.318-.208-1.925-.481-1.058-.472-1.953-1.252-2.564-2.24-.611-.986-.91-2.135-.856-3.294.052-1.16.452-2.276 1.15-3.205.692-.928 1.655-1.625 2.752-2 .75-.267 1.549-.37 2.343-.303 1.486.11 2.877.794 3.873 1.906.996 1.113 1.52 2.568 1.467 4.06l-.024.236zm9.036 5.037c-1.52-.113-2.93-.822-3.93-1.972-.997-1.15-1.502-2.648-1.4-4.167v-.072c.057-.759.264-1.498.61-2.176.342-.678.818-1.282 1.395-1.776.578-.496 1.247-.872 1.968-1.108.722-.236 1.487-.328 2.247-.269.756.058 1.497.266 2.175.61.678.344 1.28.819 1.775 1.396.496.577.871 1.247 1.107 1.97.236.722.327 1.484.27 2.243-.034.475-.13.944-.284 1.395-.414 1.22-1.218 2.27-2.295 2.98-1.073.71-2.353 1.044-3.638.946z" transform="translate(-186 -268) translate(186 268)"/>
                <g fill="#000" opacity=".3">
                    <path d="M.481 1.174H.54c1.583.14 2.406.197 2.406.197.134.002.264-.048.365-.14.096-.09.159-.216.169-.35.01-.135-.034-.268-.116-.372-.086-.105-.207-.174-.341-.191 0 0-.794-.058-2.363-.198C.524.111.395.152.29.236.188.319.12.439.1.57c-.024.132.01.266.087.376.072.11.187.188.317.217l-.024.01z" transform="translate(-186 -268) translate(186 268) translate(548.018 103.926)"/>
                </g>
                <g fill="#000" opacity=".3">
                    <path d="M2.983 3.661c4.378.65 6.337-1.732 7.025-2.91.033-.057.053-.119.057-.183.01-.065.005-.13-.014-.192-.02-.062-.048-.121-.087-.172-.038-.05-.091-.093-.149-.125C9.762.05 9.7.028 9.632.02 9.57.013 9.507.018 9.445.036c-.063.017-.125.047-.173.087-.053.04-.092.09-.126.146-.673 1.155-2.805 3.662-8.092 1.925-.063-.023-.13-.033-.193-.03-.067.004-.134.021-.192.051-.058.03-.11.072-.154.123-.043.05-.072.11-.092.174-.024.062-.033.127-.028.193.004.065.024.13.052.188.03.059.073.11.12.153.054.041.111.073.174.091.731.24 1.482.416 2.242.524z" transform="translate(-186 -268) translate(186 268) translate(544.65 99.115)"/>
                </g>
                <path fill="#000" d="M601.627 131.12c-1.89-2.217-4.46-3.752-7.308-4.368l-14.887-3.239-1.058-.226-.857-.183c-.317.858-.736 1.673-1.246 2.43l6.683 1.55c2.892.68 5.47 2.32 7.309 4.652 1.352 1.714 2.314 3.705 2.81 5.831.5 2.126.524 4.335.076 6.472-.591 2.887-.678 7.068-2.184 9.599-.26.417-.548.816-.866 1.193-4.369 5.437-9.964 11.547-9.964 18.89.668 4.373 3.18 8.179 4.046 12.456.746 3.693.803 7.492.173 11.206-1.236 6.037-1.674 12.21-1.313 18.36.154 2.44.375 4.812.635 7.111 3.974-1.475 7.818-3.274 11.494-5.379-.313-2.405-.568-4.931-.74-7.525-.362-5.776.081-11.575 1.313-17.23l4.195-27.497.443-2.91.962-4.71c.226-1.093.481-2.344.775-3.71.688-3.267 1.525-7.217 2.406-11.23.442-2.017.413-4.11-.092-6.112-.5-2.003-1.463-3.862-2.805-5.43z" opacity=".15" transform="translate(-186 -268) translate(186 268)"/>
                <path fill="#BABABA" d="M108.786 322.364c-.24 0-.47-.095-.64-.265-.169-.17-.264-.4-.264-.64v-2.463c.016-.23.119-.443.287-.6.168-.156.39-.243.62-.243.23 0 .45.087.619.243.168.157.27.37.288.6v2.493c-.01.235-.11.458-.279.62-.17.164-.395.255-.63.255zM355.457 414.81h-4.922c-.23-.017-.444-.12-.6-.288-.157-.168-.244-.39-.244-.62 0-.229.087-.45.244-.619.156-.168.37-.27.6-.287h4.922c.229.017.443.12.6.287.156.169.243.39.243.62 0 .23-.087.45-.243.619-.157.168-.371.271-.6.288zm-9.845 0h-4.917c-.124.009-.25-.008-.368-.05-.118-.04-.225-.106-.317-.191s-.164-.189-.214-.303c-.05-.115-.077-.238-.077-.363s.026-.249.077-.364c.05-.114.122-.217.214-.302.092-.085.2-.15.317-.192.119-.042.244-.058.368-.05h4.917c.125-.008.25.008.368.05s.226.107.318.192c.091.085.164.188.214.302.05.115.076.239.076.364s-.026.248-.076.363c-.05.114-.123.218-.214.303-.092.085-.2.15-.318.191-.118.042-.243.059-.368.05zm-9.839 0h-4.922c-.229-.017-.444-.12-.6-.288-.156-.168-.243-.39-.243-.62 0-.229.087-.45.243-.619.156-.168.371-.27.6-.287h4.922c.23.017.443.12.6.287.157.169.243.39.243.62 0 .23-.086.45-.243.619-.157.168-.37.271-.6.288zm-9.844 0h-4.917c-.125.009-.25-.008-.368-.05-.118-.04-.226-.106-.317-.191-.092-.085-.165-.189-.215-.303-.05-.115-.076-.238-.076-.363s.026-.249.076-.364c.05-.114.123-.217.215-.302.091-.085.199-.15.317-.192.118-.042.243-.058.368-.05h4.917c.125-.008.25.008.368.05s.226.107.317.192c.092.085.165.188.215.302.05.115.075.239.075.364s-.025.248-.075.363c-.05.114-.123.218-.215.303-.091.085-.2.15-.317.191-.118.042-.243.059-.368.05zm-9.84 0h-4.921c-.23-.017-.444-.12-.6-.288-.157-.168-.244-.39-.244-.62 0-.229.087-.45.244-.619.156-.168.37-.27.6-.287h4.941c.229.017.443.12.6.287.156.169.243.39.243.62 0 .23-.087.45-.243.619-.157.168-.371.271-.6.288h-.02zm-9.843 0h-4.918c-.124.009-.25-.008-.368-.05-.118-.04-.225-.106-.317-.191s-.164-.189-.214-.303c-.05-.115-.076-.238-.076-.363s.026-.249.076-.364c.05-.114.122-.217.214-.302.092-.085.2-.15.317-.192.119-.042.244-.058.368-.05h4.918c.124-.008.25.008.367.05.118.042.226.107.318.192.091.085.164.188.214.302.05.115.076.239.076.364s-.026.248-.076.363c-.05.114-.123.218-.214.303-.092.085-.2.15-.318.191-.118.042-.243.059-.367.05zm-9.84 0h-4.922c-.229-.017-.443-.12-.6-.288-.156-.168-.243-.39-.243-.62 0-.229.087-.45.243-.619.157-.168.371-.27.6-.287h4.922c.23.017.443.12.6.287.157.169.243.39.243.62 0 .23-.086.45-.243.619-.157.168-.37.271-.6.288zm-9.844 0h-4.922c-.229-.017-.444-.12-.6-.288-.156-.168-.243-.39-.243-.62 0-.229.087-.45.243-.619.156-.168.371-.27.6-.287h4.922c.125-.009.25.007.368.049s.226.107.317.192c.092.085.165.188.215.302.05.115.075.239.075.364s-.025.248-.075.363c-.05.114-.123.218-.215.303-.091.085-.2.15-.317.191-.118.042-.243.059-.368.05zm-9.84 0h-4.921c-.23-.017-.444-.12-.6-.288-.157-.168-.244-.39-.244-.62 0-.229.087-.45.244-.619.156-.168.37-.27.6-.287h4.922c.229.017.443.12.6.287.156.169.243.39.243.62 0 .23-.087.45-.243.619-.157.168-.371.271-.6.288zm-9.843 0h-4.922c-.23-.017-.444-.12-.6-.288-.157-.168-.244-.39-.244-.62 0-.229.087-.45.244-.619.156-.168.37-.27.6-.287h4.922c.124-.009.25.007.367.049.118.042.226.107.318.192.091.085.164.188.214.302.05.115.076.239.076.364s-.025.248-.076.363c-.05.114-.123.218-.214.303-.092.085-.2.15-.318.191-.118.042-.243.059-.367.05zm-9.84 0h-4.922c-.229-.017-.443-.12-.6-.288-.156-.168-.243-.39-.243-.62 0-.229.087-.45.243-.619.157-.168.371-.27.6-.287h4.922c.23.017.444.12.6.287.157.169.243.39.243.62 0 .23-.086.45-.243.619-.156.168-.37.271-.6.288zm-9.844 0h-4.922c-.229-.017-.443-.12-.6-.288-.156-.168-.243-.39-.243-.62 0-.229.087-.45.243-.619.157-.168.371-.27.6-.287h4.922c.125-.009.25.007.368.049s.226.107.317.192c.092.085.165.188.215.302.05.115.076.239.076.364s-.026.248-.076.363c-.05.114-.123.218-.215.303-.091.085-.2.15-.317.191-.118.042-.243.059-.368.05zm-9.839 0h-4.922c-.23-.017-.444-.12-.6-.288-.156-.168-.244-.39-.244-.62 0-.229.088-.45.244-.619.156-.168.37-.27.6-.287h4.922c.229.017.443.12.6.287.156.169.243.39.243.62 0 .23-.087.45-.243.619-.157.168-.371.271-.6.288zm-9.844 0h-4.922c-.23-.017-.444-.12-.6-.288-.157-.168-.244-.39-.244-.62 0-.229.087-.45.244-.619.156-.168.37-.27.6-.287h4.922c.229.017.443.12.6.287.156.169.243.39.243.62 0 .23-.087.45-.243.619-.157.168-.371.271-.6.288zm-9.84 0h-4.922c-.229-.017-.443-.12-.6-.288-.156-.168-.243-.39-.243-.62 0-.229.087-.45.244-.619.156-.168.37-.27.6-.287h4.922c.229.017.443.12.6.287.156.169.243.39.243.62 0 .23-.087.45-.243.619-.157.168-.371.271-.6.288zm-9.844 0h-4.922c-.229-.017-.443-.12-.6-.288-.156-.168-.243-.39-.243-.62 0-.229.087-.45.243-.619.157-.168.371-.27.6-.287h4.946c.23.017.444.12.6.287.157.169.243.39.243.62 0 .23-.086.45-.243.619-.156.168-.37.271-.6.288h-.024zm-9.839 0h-4.922c-.229-.017-.444-.12-.6-.288-.156-.168-.243-.39-.243-.62 0-.229.087-.45.243-.619.156-.168.371-.27.6-.287h4.922c.23.017.443.12.6.287.156.169.243.39.243.62 0 .23-.087.45-.243.619-.157.168-.37.271-.6.288zm-9.844 0h-4.922c-.23-.017-.444-.12-.6-.288-.156-.168-.244-.39-.244-.62 0-.229.088-.45.244-.619.156-.168.37-.27.6-.287h4.903c.229.017.443.12.6.287.156.169.243.39.243.62 0 .23-.087.45-.243.619-.157.168-.371.271-.6.288h.019zm-9.84 0h-4.921c-.23-.017-.444-.12-.6-.288-.157-.168-.244-.39-.244-.62 0-.229.087-.45.244-.619.156-.168.37-.27.6-.287h4.922c.229.017.443.12.6.287.156.169.243.39.243.62 0 .23-.087.45-.243.619-.157.168-.371.271-.6.288zm-9.843 0h-4.923c-.229-.017-.443-.12-.6-.288-.156-.168-.243-.39-.243-.62 0-.229.087-.45.244-.619.156-.168.37-.27.6-.287h4.922c.229.017.443.12.6.287.156.169.243.39.243.62 0 .23-.087.45-.243.619-.157.168-.371.271-.6.288zm-9.84 0H153.7c-.124.009-.25-.008-.368-.05-.118-.04-.226-.106-.317-.191-.092-.085-.165-.189-.215-.303-.05-.115-.076-.238-.076-.363s.026-.249.076-.364c.05-.114.123-.217.215-.302.091-.085.2-.15.317-.192.118-.042.244-.058.368-.05h4.922c.23.018.443.12.6.288.157.169.243.39.243.62 0 .23-.086.45-.243.619-.157.168-.37.271-.6.288zm-9.844 0h-4.917c-.23-.017-.444-.12-.6-.288-.156-.168-.244-.39-.244-.62 0-.229.088-.45.244-.619.156-.168.37-.27.6-.287h4.922c.229.017.443.12.6.287.156.169.243.39.243.62 0 .23-.087.45-.243.619-.157.168-.371.271-.6.288h-.005zm-9.84 0h-4.921c-.125.009-.25-.008-.368-.05-.118-.04-.226-.106-.317-.191-.092-.085-.165-.189-.215-.303-.05-.115-.076-.238-.076-.363s.026-.249.076-.364c.05-.114.123-.217.215-.302.091-.085.199-.15.317-.192.118-.042.243-.058.368-.05h4.922c.229.018.443.12.6.288.156.169.243.39.243.62 0 .23-.087.45-.243.619-.157.168-.371.271-.6.288zm-9.843 0h-4.922c-.23-.017-.444-.12-.6-.288-.157-.168-.244-.39-.244-.62 0-.229.087-.45.244-.619.156-.168.37-.27.6-.287h4.922c.229.017.443.12.6.287.156.169.243.39.243.62 0 .23-.087.45-.243.619-.157.168-.371.271-.6.288zm-9.844 0c-1.79.003-3.555-.42-5.149-1.232-.115-.048-.219-.12-.305-.21s-.153-.198-.196-.316c-.043-.117-.061-.242-.054-.367.008-.124.041-.246.098-.358.056-.11.135-.21.232-.289.096-.08.208-.138.328-.173.12-.034.246-.043.37-.026.124.016.243.058.35.122 1.34.686 2.825 1.04 4.33 1.035.23.017.444.12.6.287.157.169.243.39.243.62 0 .23-.086.45-.243.619-.156.168-.37.271-.6.288h-.004zm-8.45-4.297c-.142 0-.282-.034-.41-.098-.126-.064-.236-.158-.32-.273-1.057-1.445-1.758-3.12-2.045-4.888-.039-.237.019-.48.16-.675.14-.195.353-.326.59-.364.237-.038.48.02.675.16.195.141.326.353.364.59.241 1.486.83 2.894 1.718 4.11.1.135.16.295.175.462.014.167-.019.336-.095.485-.076.15-.192.276-.335.363-.143.088-.308.134-.476.133v-.005zm-2.015-9.411c-.24 0-.47-.095-.64-.265-.17-.17-.265-.4-.265-.64v-4.922c.017-.229.12-.443.288-.6.168-.156.39-.243.62-.243.229 0 .45.087.618.244.168.156.271.37.288.6v4.921c-.001.24-.098.47-.268.64-.17.17-.401.265-.641.265zm0-9.84c-.24 0-.47-.097-.64-.267-.17-.17-.265-.401-.265-.642v-4.917c-.009-.125.008-.25.05-.368.04-.118.106-.226.191-.317.085-.092.188-.165.303-.215.114-.05.238-.075.363-.075s.249.026.363.075c.115.05.218.123.303.215.085.091.15.2.192.317.041.118.058.243.05.368v4.917c0 .242-.097.473-.267.643-.17.17-.402.267-.643.267zm0-9.844c-.24 0-.47-.095-.64-.264-.17-.17-.265-.4-.265-.64v-4.922c.017-.23.12-.443.288-.6.168-.156.39-.243.62-.243.229 0 .45.087.618.243.168.157.271.37.288.6v4.922c-.001.24-.098.47-.268.64-.17.17-.401.264-.641.264zm0-9.839c-.24 0-.47-.098-.64-.268-.17-.17-.265-.4-.265-.641v-4.917c-.009-.125.008-.25.05-.368.04-.118.106-.226.191-.318.085-.091.188-.164.303-.214.114-.05.238-.076.363-.076s.249.026.363.076c.115.05.218.123.303.214.085.092.15.2.192.318.041.118.058.243.05.368v4.917c0 .241-.097.472-.267.643-.17.17-.402.266-.643.266zm0-9.844c-.24 0-.47-.095-.64-.265-.17-.17-.265-.4-.265-.64v-4.922c.017-.229.12-.443.288-.6.168-.156.39-.243.62-.243.229 0 .45.087.618.244.168.156.271.37.288.6v4.946c-.008.236-.107.46-.277.624-.169.165-.396.256-.632.256zm0-9.84c-.24 0-.47-.097-.64-.267-.17-.17-.265-.401-.265-.642v-4.917c-.009-.125.008-.25.05-.368.04-.117.106-.226.191-.317s.188-.165.303-.215c.114-.05.238-.075.363-.075s.249.026.363.075c.115.05.218.124.303.215.085.091.15.2.192.317.041.118.058.243.05.368v4.917c0 .242-.097.473-.267.644-.17.17-.402.266-.643.266zm0-9.843c-.24 0-.47-.096-.64-.265-.17-.17-.265-.4-.265-.64v-4.922c.017-.23.12-.443.288-.6.168-.156.39-.243.62-.243.229 0 .45.087.618.243.168.157.271.37.288.6v4.903c.002.12-.02.24-.065.352-.045.113-.111.215-.196.3-.085.086-.186.155-.297.201-.111.047-.23.07-.351.07zm0-9.84c-.24 0-.47-.097-.64-.268-.17-.17-.265-.4-.265-.641v-4.917c-.009-.125.008-.25.05-.368.04-.118.106-.226.191-.317.085-.092.188-.165.303-.215.114-.05.238-.076.363-.076s.249.026.363.076c.115.05.218.123.303.215.085.09.15.2.192.317.041.118.058.243.05.368v4.917c0 .241-.097.472-.267.643-.17.17-.402.266-.643.266zM362.881 414.81h-2.507c-.23-.017-.443-.12-.6-.288-.156-.169-.243-.39-.243-.62 0-.229.087-.45.243-.619.157-.168.37-.27.6-.287h2.493c.229.017.443.12.6.287.156.169.243.39.243.62 0 .23-.087.45-.244.619-.156.168-.37.27-.6.288h.015zM541.59 370.382h-4.984c-.231-.017-.443-.12-.602-.288-.154-.168-.24-.39-.24-.62 0-.229.086-.45.24-.619.16-.168.37-.27.602-.287h4.984c.126-.009.25.007.366.049.12.042.226.107.318.192.091.085.168.188.216.302.048.115.077.239.077.364s-.029.248-.077.363c-.048.114-.125.218-.216.303-.092.085-.198.15-.318.191-.115.042-.24.059-.366.05zm-9.964 0h-4.985c-.125.009-.25-.008-.365-.05-.12-.04-.226-.106-.318-.191-.091-.085-.168-.189-.216-.303-.048-.115-.077-.238-.077-.363s.029-.249.077-.364c.048-.114.125-.217.216-.302.092-.085.197-.15.318-.192.115-.042.24-.058.365-.05h4.985c.231.018.443.12.601.288.154.169.241.39.241.62 0 .23-.087.45-.24.619-.16.168-.371.271-.602.288zm14.915-.26c-.226.004-.442-.076-.61-.224-.174-.149-.28-.355-.304-.579-.029-.224.034-.45.164-.632.135-.182.327-.309.548-.355 1.492-.34 2.877-1.024 4.056-1.997.188-.135.419-.193.65-.164.226.03.438.145.582.323.15.178.221.406.207.637-.015.23-.116.446-.284.604-1.395 1.153-3.046 1.962-4.811 2.363-.053.013-.111.02-.164.024h-.034zm7.405-6.12c-.149 0-.298-.038-.433-.11-.13-.071-.24-.175-.327-.3-.082-.127-.13-.272-.14-.422-.014-.15.01-.3.073-.439.538-1.231.817-2.562.813-3.906v-.592c0-.24.096-.47.264-.64.169-.17.4-.265.64-.265s.472.096.64.265c.169.17.265.4.265.64v.592c.005 1.595-.323 3.173-.963 4.633-.067.16-.182.296-.327.393-.144.096-.317.149-.49.15h-.015zm.89-9.844c-.24 0-.471-.096-.64-.265-.168-.17-.264-.4-.264-.64v-4.985c0-.24.096-.47.264-.64.169-.169.4-.264.64-.264s.472.095.64.265c.169.17.265.4.265.64v4.984c0 .238-.092.466-.26.635-.168.169-.395.266-.63.27h-.015zm0-9.97c-.24 0-.471-.095-.64-.264-.168-.17-.264-.4-.264-.64v-4.985c0-.24.096-.47.264-.64.169-.17.4-.264.64-.264s.472.095.64.265c.169.17.265.4.265.64v4.984c0 .237-.092.466-.26.634-.168.17-.395.266-.63.27h-.015zm0-9.964c-.24-.001-.471-.098-.64-.268-.168-.17-.264-.4-.264-.641v-4.98c0-.24.096-.47.264-.64.169-.17.4-.265.64-.265s.472.095.64.265c.169.17.265.4.265.64v4.98c0 .238-.092.466-.26.636-.164.17-.395.268-.63.273h-.015zm0-9.97c-.24 0-.471-.095-.64-.264-.168-.17-.264-.4-.264-.64v-4.984c0-.24.096-.47.264-.64.169-.17.4-.265.64-.265s.472.095.64.265c.169.17.265.4.265.64v4.984c0 .238-.092.465-.26.635-.168.17-.395.266-.63.27h-.015zm0-9.969c-.24 0-.471-.095-.64-.264-.168-.17-.264-.4-.264-.64v-4.97c0-.24.096-.47.264-.64.169-.17.4-.265.64-.265s.472.095.64.265c.169.17.265.4.265.64v4.984c-.005.236-.096.46-.265.626-.168.166-.39.261-.625.264h-.015zm0-9.964c-.24 0-.471-.095-.64-.265-.168-.17-.264-.4-.264-.64v-4.984c0-.24.096-.47.264-.64.169-.17.4-.265.64-.265s.472.096.64.265c.169.17.265.4.265.64v4.985c0 .237-.092.465-.26.634-.168.17-.395.266-.63.27h-.015zm0-9.97c-.24 0-.471-.094-.64-.264-.168-.17-.264-.4-.264-.64v-4.984c0-.24.096-.47.264-.64.169-.17.4-.265.64-.265s.472.095.64.265c.169.17.265.4.265.64v4.984c0 .238-.092.466-.26.635-.168.17-.395.266-.63.27h-.015zm0-9.964c-.24 0-.471-.097-.64-.268-.168-.17-.264-.4-.264-.64v-4.98c0-.24.096-.47.264-.64.169-.17.4-.265.64-.265s.472.095.64.265c.169.17.265.4.265.64v4.98c0 .237-.092.466-.26.636-.164.17-.395.268-.63.272h-.015zm0-9.969c-.24 0-.471-.095-.64-.264-.168-.17-.264-.4-.264-.64v-4.985c0-.24.096-.47.264-.64.169-.17.4-.264.64-.264s.472.095.64.265c.169.17.265.4.265.639v4.985c0 .237-.092.465-.26.634-.168.17-.395.266-.63.27h-.015zm0-9.969c-.24 0-.471-.095-.64-.265-.168-.17-.264-.4-.264-.64v-4.984c0-.24.096-.47.264-.64.169-.17.4-.265.64-.265s.472.096.64.265c.169.17.265.4.265.64v4.984c0 .238-.092.466-.26.635-.168.17-.395.266-.63.27h-.015zm0-9.964c-.24-.001-.471-.098-.64-.268-.168-.17-.264-.401-.264-.642v-4.98c0-.24.096-.47.264-.639.169-.17.4-.265.64-.265s.472.095.64.265c.169.17.265.4.265.64v4.965c.005.24-.087.472-.255.645-.169.174-.395.274-.635.279h-.015zm0-9.97c-.24 0-.471-.095-.64-.264-.168-.17-.264-.4-.264-.64v-4.966c0-.24.096-.47.264-.639.169-.17.4-.265.64-.265s.472.095.64.265c.169.17.265.4.265.64v4.984c-.005.234-.101.457-.265.623-.168.165-.39.259-.625.262h-.015zm0-9.969c-.24 0-.471-.095-.64-.264-.168-.17-.264-.4-.264-.64v-4.985c0-.24.096-.47.264-.64.169-.17.4-.265.64-.265s.472.096.64.266c.169.17.265.4.265.639v4.985c0 .237-.092.465-.26.634-.168.17-.395.266-.63.27h-.015z" transform="translate(-186 -268) translate(186 268)"/>
                <path fill="#21252B" d="M108.786 320.733c2.484 0 4.498-2.014 4.498-4.499s-2.014-4.499-4.498-4.499c-2.485 0-4.499 2.014-4.499 4.5 0 2.484 2.014 4.498 4.499 4.498zM362.88 418.4c2.485 0 4.499-2.015 4.499-4.5 0-2.483-2.014-4.498-4.499-4.498-2.484 0-4.499 2.015-4.499 4.499 0 2.484 2.015 4.498 4.5 4.498zM523.99 373.976c2.483 0 4.499-2.014 4.499-4.499s-2.016-4.499-4.499-4.499c-2.482 0-4.498 2.014-4.498 4.499s2.016 4.499 4.498 4.499zM555.159 231.799c2.482 0 4.498-2.014 4.498-4.499 0-2.484-2.016-4.499-4.498-4.499-2.483 0-4.5 2.015-4.5 4.5 0 2.484 2.017 4.498 4.5 4.498z" transform="translate(-186 -268) translate(186 268)"/>
            </g>
        </g>
    </g>
</svg>
