<svg xmlns="http://www.w3.org/2000/svg" width="15" height="20" viewBox="0 0 15 20">
    <defs>
        <filter id="cf0v7ex3ta">
            <feColorMatrix in="SourceGraphic" values="0 0 0 0 0.047059 0 0 0 0 0.000000 0 0 0 0 0.345098 0 0 0 1.000000 0"/>
        </filter>
    </defs>
    <g fill="none" fill-rule="evenodd">
        <g>
            <g>
                <g filter="url(#cf0v7ex3ta)" transform="translate(-1350 -350) translate(1330 289) translate(20 61.387)">
                    <g>
                        <path fill="#000" fill-rule="nonzero" d="M13.178 2.028h-3.084V1.52C10.094.68 9.34 0 8.412 0H6.168C5.24 0 4.486.68 4.486 1.52v.508H1.402C.628 2.028 0 2.595 0 3.295V4.31c0 .28.251.507.56.507h13.46c.309 0 .56-.227.56-.507V3.295c0-.7-.628-1.267-1.402-1.267zm-7.57-.507c0-.28.251-.507.56-.507h2.244c.309 0 .56.227.56.507v.507H5.608V1.52zM.987 6.422c-.1 0-.182.081-.177.18l.469 9.491c.043.878.79 1.566 1.7 1.566h8.622c.91 0 1.657-.688 1.7-1.566l.469-9.492c.005-.098-.076-.18-.177-.18H.987zm8.574 1.37c0-.303.254-.548.567-.548.314 0 .568.245.568.548v7.127c0 .302-.254.548-.568.548-.313 0-.567-.246-.567-.548V7.792zm-2.839 0c0-.303.254-.548.568-.548.314 0 .568.245.568.548v7.127c0 .302-.254.548-.568.548-.314 0-.568-.246-.568-.548V7.792zm-2.838 0c0-.303.254-.548.568-.548.313 0 .567.245.567.548v7.127c0 .302-.254.548-.567.548-.314 0-.568-.246-.568-.548V7.792z" transform="translate(0 .613)"/>
                    </g>
                </g>
            </g>
        </g>
    </g>
</svg>
