<svg xmlns="http://www.w3.org/2000/svg" width="20" height="21" viewBox="0 0 20 21">
    <defs>
        <filter id="1s492mj5ua">
            <feColorMatrix in="SourceGraphic" values="0 0 0 0 0.207843 0 0 0 0 0.250980 0 0 0 0 0.321569 0 0 0 1.000000 0"/>
        </filter>
    </defs>
    <g fill="none" fill-rule="evenodd">
        <g>
            <g>
                <g filter="url(#1s492mj5ua)" transform="translate(-691 -801) translate(676 644) translate(15 157)">
                    <g>
                        <path fill="#000" fill-rule="nonzero" d="M2.993 18.642c.325.103.82.01 1.058-.515l3.338-9.655c.15-.434-.08-.908-.514-1.058-.434-.15-.908.08-1.058.515l-1.609 4.654-1.652-4.66c-.153-.433-.629-.66-1.062-.506-.432.153-.659.628-.505 1.061l2.348 6.625-.858 2.48c-.15.435.08.909.514 1.059zM12.421 3.312c-.907 1.295-1.448 2.003-1.738 2.384-.374.49-.58.76-.442 1.21.081.264.29.475.556.563.11.037.2.067 1.33.067.442 0 1.044-.005 1.867-.015.46-.006.827-.383.822-.842-.006-.456-.377-.821-.832-.821h-.01c-.447.005-.916.01-1.34.012.295-.4.673-.924 1.15-1.605.383-.589.758-1.217.788-1.944 0-1.269-1.031-2.3-2.3-2.3-1.096 0-2.045.78-2.256 1.855-.089.45.205.887.656.976.45.088.887-.205.976-.656.087-.622 1.297-.714 1.245.194-.048.188-.171.492-.472.922z" transform="translate(2)"/>
                    </g>
                </g>
            </g>
        </g>
    </g>
</svg>
