<?xml version="1.0" encoding="UTF-8"?>
<svg width="133px" height="133px" viewBox="0 0 133 133" version="1.1" xmlns="http://www.w3.org/2000/svg" xmlns:xlink="http://www.w3.org/1999/xlink">
    <title>subjects/art</title>
    <g id="subjects/art" stroke="none" stroke-width="1" fill="none" fill-rule="evenodd">
        <g id="art" fill-rule="nonzero">
            <circle id="Oval" fill="#B82065" cx="66" cy="66" r="66"></circle>
            <g id="Group" transform="translate(14.000000, 29.000000)">
                <g id="Landscape_1_" transform="translate(1.799616, 2.313792)">
                    <polygon id="Path" fill="#22BCE0" points="0.926545152 0.148082688 58.9826715 0.148082688 58.9826715 68.5535436 0.926545152 68.5535436"></polygon>
                    <g id="Group" transform="translate(37.791936, 5.398848)">
                        <g id="Path">
                            <path d="M16.1757199,12.4661971 C16.1757199,14.9252438 15.7031921,17.2140983 14.8889944,19.132746 C10.0143489,29.9037049 0.094351296,23.6490109 0.225466176,12.46594 C0.61958208,-3.57480864 15.6368634,-4.01031571 16.1757199,12.4661971 L16.1757199,12.4661971 Z" fill="#50755C"></path>
                            <path d="M16.1757199,12.4661971 C16.1757199,14.9252438 15.7031921,17.2140983 14.8889944,19.132746 C9.56778701,20.2225421 5.73486202,14.2992346 5.64436704,7.04703917 C5.64436704,4.58953498 6.11689478,2.30042342 6.92954995,0.383318208 C12.2522999,-0.711105408 16.0852249,5.21323046 16.1757199,12.4661971 L16.1757199,12.4661971 Z" fill="#528F66"></path>
                        </g>
                        <g transform="translate(6.684288, 12.083136)" id="Path">
                            <path d="M2.82771091,1.46360198 L2.82771091,22.3800246 C2.77757875,24.1043138 0.261458496,24.1192249 0.206184576,22.3800246 L0.206184576,1.46360198 C0.259144704,-0.267628608 2.77552205,-0.269171136 2.82771091,1.46360198 L2.82771091,1.46360198 Z" fill="#BF5E39"></path>
                            <path d="M2.82771091,1.46360198 L2.82771091,22.1815526 C2.0695584,22.2471101 1.40627136,21.6367832 1.41012768,20.8752885 L1.41012768,0.157337856 C2.16750893,0.092294592 2.83259558,0.70185024 2.82771091,1.46360198 Z" fill="#EA792E"></path>
                            <path d="M2.44387853,0.536542656 C2.68168493,0.774349056 2.82771091,1.10085082 2.82771091,1.46360198 L2.82771091,13.0407888 C2.0695584,13.1063462 1.40627136,12.4960193 1.41012768,11.7345247 L1.41012768,0.157337856 C1.79935891,0.122888064 2.18550509,0.2763696 2.44387853,0.536542656 L2.44387853,0.536542656 Z" fill="#F39E22"></path>
                        </g>
                    </g>
                    <g id="Group" transform="translate(17.996160, 10.026432)">
                        <g id="Path">
                            <path d="M16.0697996,12.4592557 C16.0697996,14.9183025 15.5972719,17.2071569 14.7830742,19.1258047 C9.90842861,29.8967635 -0.01156896,23.6420696 0.11954592,12.4589987 C0.513661824,-3.5820071 15.5312003,-4.01751418 16.0697996,12.4592557 L16.0697996,12.4592557 Z" fill="#50755C"></path>
                            <path d="M16.0697996,12.4592557 C16.0697996,14.9183025 15.5972719,17.2071569 14.7830742,19.1258047 C9.46186675,20.2156007 5.62894176,14.2922932 5.53844678,7.04009779 C5.53844678,4.5825936 6.01097453,2.29348205 6.8236297,0.376376832 C12.1466367,-0.718046784 15.9795617,5.206032 16.0697996,12.4592557 Z" fill="#528F66"></path>
                        </g>
                        <g transform="translate(6.684288, 12.083136)" id="Path">
                            <path d="M2.72204774,1.45666061 L2.72204774,22.3730832 C2.67191558,24.0973724 0.155795328,24.1122835 0.100521408,22.3730832 L0.100521408,1.45666061 C0.153481536,-0.274569984 2.66985888,-0.276112512 2.72204774,1.45666061 Z" fill="#BF5E39"></path>
                            <path d="M2.72204774,1.45666061 L2.72204774,22.1746113 C1.96389523,22.2401687 1.30060819,21.6298418 1.30446451,20.8683471 L1.30446451,0.15039648 C2.06184576,0.085353216 2.72667533,0.694651776 2.72204774,1.45666061 L2.72204774,1.45666061 Z" fill="#EA792E"></path>
                            <path d="M2.33821536,0.52960128 C2.57602176,0.76740768 2.72204774,1.09390944 2.72204774,1.45666061 L2.72204774,13.0338474 C1.96389523,13.0994049 1.30060819,12.489078 1.30446451,11.7275833 L1.30446451,0.15039648 C1.69369574,0.1156896 2.07984192,0.269171136 2.33821536,0.52960128 L2.33821536,0.52960128 Z" fill="#F39E22"></path>
                        </g>
                    </g>
                    <g id="Group" transform="translate(0.771264, 32.650176)">
                        <path d="M28.7658795,14.3976993 C28.7856292,22.2062331 22.4196161,28.7082457 14.4619713,28.7031039 C5.87728877,28.7717464 -0.9190896,20.9698969 0.284596416,12.4818795 C3.13775904,-4.9939344 28.226977,-3.43109645 28.7658795,14.3976993 Z" id="Path" fill="#53B976"></path>
                        <path d="M26.5116858,20.3873355 C26.5116858,21.037511 26.4679809,21.6784314 26.383656,22.3059832 C23.8207457,26.161532 19.4386808,28.7031039 14.4619713,28.7031039 C5.87728877,28.7717464 -0.9190896,20.9698969 0.284596416,12.4818795 C8.06279386,0.833736384 26.4078223,6.16754112 26.5116858,20.3873355 Z" id="Path" fill="#50755C"></path>
                    </g>
                    <g id="Group" transform="translate(29.308032, 37.791936)">
                        <path d="M23.6950297,11.7993108 C23.6950297,14.2025695 22.9741549,16.438978 21.735762,18.3018376 C14.8095542,28.5444806 -1.24019251,22.6638497 0.276112512,10.2233614 C2.62101216,-4.145544 23.2525812,-2.85907565 23.6950297,11.7993108 L23.6950297,11.7993108 Z" id="Path" fill="#53B976"></path>
                        <path d="M21.840911,16.7233173 C21.840911,17.2590887 21.8046616,17.785862 21.735505,18.3018376 C19.6286688,21.4712185 16.0245521,23.5613439 11.9327395,23.5613439 C4.87515974,23.6176462 -0.714190464,17.2017581 0.275855424,10.2233614 C6.67220486,0.645805056 21.7558149,5.03326886 21.840911,16.7233173 Z" id="Path" fill="#50755C"></path>
                    </g>
                    <g id="Group" transform="translate(0.000000, 48.075456)">
                        <path d="M58.9826715,0.312104832 L58.9826715,20.4780876 L0.926545152,20.4780876 L0.926545152,0.004627584 L56.3354364,0.004627584 C57.2475846,0.004627584 58.1322244,0.11054784 58.9826715,0.312104832 L58.9826715,0.312104832 Z" id="Path" fill="#53B976"></path>
                        <g transform="translate(0.000000, 1.285440)" fill="#9ACDAE" id="Path">
                            <path d="M36.3422168,5.79553478 L28.9013188,5.79553478 C28.2112946,5.78448 28.2071812,4.7540713 28.9013188,4.74198816 L36.3422168,4.74198816 C37.032241,4.75304294 37.0363544,5.78345165 36.3422168,5.79553478 Z"></path>
                            <path d="M34.1639101,1.70655014 L26.7230122,1.70655014 C26.032988,1.69549536 26.0288746,0.665086656 26.7230122,0.65300352 L34.1639101,0.65300352 C34.8539343,0.664315392 34.8580477,1.6947241 34.1639101,1.70655014 Z"></path>
                            <path d="M22.0082753,4.19798995 L14.5673773,4.19798995 C13.8773532,4.18693517 13.8732397,3.15652646 14.5673773,3.14444333 L22.0082753,3.14444333 C22.6982995,3.1557552 22.7024129,4.1861639 22.0082753,4.19798995 Z"></path>
                            <path d="M30.3083614,8.99448077 L22.8677205,8.99448077 C22.1776963,8.98342598 22.1735829,7.95301728 22.8677205,7.94093414 L30.3083614,7.94093414 C30.9983856,7.95224602 31.002499,8.98265472 30.3083614,8.99448077 Z"></path>
                            <path d="M8.07333446,10.9051588 L0.63243648,10.9051588 C-0.057587712,10.894104 -0.06170112,9.8636953 0.63243648,9.85161216 L8.07333446,9.85161216 C8.76335866,9.86266694 8.76747206,10.8930756 8.07333446,10.9051588 Z"></path>
                            <path d="M23.8194603,20.2474796 L16.3785623,20.2474796 C15.6885381,20.2364248 15.6844247,19.2060161 16.3785623,19.193933 L23.8194603,19.193933 C24.5094845,19.2052449 24.5135979,20.2356536 23.8194603,20.2474796 Z"></path>
                            <path d="M18.1157059,7.22777203 L10.675065,7.22777203 C9.98504083,7.21671725 9.98092742,6.18630854 10.675065,6.17422541 L18.1157059,6.17422541 C18.8057301,6.18528019 18.8098435,7.21594598 18.1157059,7.22777203 Z"></path>
                            <path d="M13.5786169,1.20934195 L6.13771891,1.20934195 C5.44769472,1.19828717 5.44358131,0.167878464 6.13771891,0.155795328 L13.5786169,0.155795328 C14.2686411,0.166850112 14.2727545,1.19725882 13.5786169,1.20934195 Z"></path>
                            <path d="M15.8335357,15.1548234 L8.39289485,15.1548234 C7.70287066,15.1437686 7.69875725,14.1133599 8.39289485,14.1012768 L15.8337928,14.1012768 C16.5235599,14.1123316 16.5276733,15.1427403 15.8335357,15.1548234 L15.8335357,15.1548234 Z"></path>
                            <path d="M32.6216392,15.6813396 L25.1807412,15.6813396 C24.4907171,15.6702849 24.4866036,14.6398762 25.1807412,14.627793 L32.6216392,14.627793 C33.3116634,14.6391049 33.3157768,15.6695136 32.6216392,15.6813396 Z"></path>
                            <path d="M42.0413436,11.2396303 L34.6004456,11.2396303 C33.9104214,11.2285755 33.906308,10.1981668 34.6004456,10.1860836 L42.0413436,10.1860836 C42.7313677,10.1973955 42.7354812,11.2278042 42.0413436,11.2396303 Z"></path>
                            <path d="M58.4566694,9.27702048 L51.0157715,9.27702048 C50.3257473,9.2659657 50.3216339,8.23555699 51.0157715,8.22347386 L58.4566694,8.22347386 C59.1466936,8.23478573 59.150807,9.26519443 58.4566694,9.27702048 Z"></path>
                            <path d="M50.5355311,14.6280501 L43.0948902,14.6280501 C42.404866,14.6169953 42.4007526,13.5865866 43.0948902,13.5745035 L50.5355311,13.5745035 C51.2255553,13.5855583 51.2296687,14.6162241 50.5355311,14.6280501 Z"></path>
                            <path d="M51.8456515,5.79553478 L44.4050106,5.79553478 C43.7149864,5.78448 43.710873,4.7540713 44.4050106,4.74198816 L51.8456515,4.74198816 C52.5359328,4.75304294 52.5400462,5.78345165 51.8456515,5.79553478 Z"></path>
                            <path d="M22.3350342,12.3361106 L14.8941362,12.3361106 C14.204112,12.3250558 14.1999986,11.2946471 14.8941362,11.282564 L22.3350342,11.282564 C23.0250584,11.2936188 23.0291718,12.3242845 22.3350342,12.3361106 Z"></path>
                            <path d="M47.5988148,1.70655014 L40.158174,1.70655014 C39.4681498,1.69549536 39.4640364,0.665086656 40.158174,0.65300352 L47.5988148,0.65300352 C48.288839,0.664315392 48.2929524,1.6947241 47.5988148,1.70655014 Z"></path>
                        </g>
                    </g>
                </g>
                <g>
                    <path d="M60.9324269,0.098207616 L2.72616115,0.098207616 C1.31217715,0.098207616 0.16453632,1.24584845 0.16453632,2.65983245 L0.16453632,70.8673356 C0.16453632,72.2849188 1.31217715,73.4289604 2.72616115,73.4289604 L60.9324269,73.4289604 C62.3464109,73.4289604 63.4940518,72.2846617 63.4940518,70.8673356 L63.4940518,2.65983245 C63.4940518,1.24584845 62.346668,0.098207616 60.9324269,0.098207616 Z M58.370802,68.3054536 L5.28778598,68.3054536 L5.28778598,5.22171437 L58.370802,5.22171437 L58.370802,68.3054536 L58.370802,68.3054536 Z" id="Shape" fill="#A26D5A"></path>
                    <path d="M59.057227,2.46187469 L4.60136102,2.46187469 C3.27941453,2.46187469 2.20710048,3.53444582 2.20710048,4.85973446 L2.20710048,68.6712899 C2.20710048,69.9965785 3.27967162,71.0691496 4.60136102,71.0691496 L59.057227,71.0691496 C60.3791735,71.0691496 61.4514876,69.9965785 61.4514876,68.6712899 L61.4514876,4.85947738 C61.4514876,3.53418874 60.3791735,2.46187469 59.057227,2.46187469 Z M58.370802,68.3054536 L5.28778598,68.3054536 L5.28778598,5.22171437 L58.370802,5.22171437 L58.370802,68.3054536 L58.370802,68.3054536 Z" id="Shape" fill="#D48D77"></path>
                    <g transform="translate(2.056704, 2.313792)" fill="#EEA47D" id="Path">
                        <path d="M46.8031275,2.90792237 L23.2443544,2.90792237 C22.4823456,2.90792237 21.864306,2.2901399 21.864306,1.52787398 C21.864306,0.765608064 22.4820885,0.1478256 23.2443544,0.1478256 L46.8031275,0.1478256 C48.6199684,0.201299904 48.6328228,2.85007757 46.8031275,2.90792237 Z"></path>
                        <path d="M34.2554335,68.7515013 L10.6966604,68.7515013 C9.93465158,68.7515013 9.31661203,68.1337188 9.31661203,67.37171 C9.31661203,66.6097012 9.9343945,65.9916616 10.6966604,65.9916616 L34.2554335,65.9916616 C36.0725315,66.0451359 36.0853859,68.6939136 34.2554335,68.7515013 Z"></path>
                        <path d="M56.314098,39.0886879 L56.314098,12.7888426 C56.314098,11.9381384 57.0038652,11.2483713 57.8545693,11.2483713 C58.7052735,11.2483713 59.3950406,11.9381384 59.3950406,12.7888426 L59.3950406,39.0884308 C59.3281978,41.1201972 56.3863398,41.1343371 56.314098,39.0886879 L56.314098,39.0886879 Z"></path>
                        <path d="M0.150139392,56.3932812 L0.150139392,30.0936929 C0.150139392,29.2429887 0.839906496,28.5532216 1.69061069,28.5532216 C2.54131488,28.5532216 3.23108198,29.2429887 3.23108198,30.0936929 L3.23108198,56.3932812 C3.1642391,58.4247905 0.222638208,58.4389304 0.150139392,56.3932812 L0.150139392,56.3932812 Z"></path>
                    </g>
                </g>
            </g>
            <g id="Pencil_2_" transform="translate(82.000000, 41.000000)">
                <g id="Group" transform="translate(2.288366, 13.482837)">
                    <polygon id="Path" fill="#528F66" points="0.0594975086 0.191352576 8.40008201 0.191352576 8.40008201 32.6147242 0.0594975086 32.6147242"></polygon>
                    <path d="M2.48516517,2.66493466 L2.48516517,30.1411421 C2.48516517,31.5062794 1.39819145,32.6147242 0.0594975086,32.6147242 L0.0594975086,0.191352576 C1.39844571,0.191352576 2.48516517,1.29772309 2.48516517,2.66493466 L2.48516517,2.66493466 Z" id="Path" fill="#50755C"></path>
                    <path d="M8.40033627,0.191352576 L8.40033627,32.6147242 C7.05960823,32.6147242 5.97263451,31.5062794 5.97263451,30.1411421 L5.97263451,2.66493466 C5.97263451,1.29772309 7.05960823,0.191352576 8.40033627,0.191352576 L8.40033627,0.191352576 Z" id="Path" fill="#53B976"></path>
                </g>
                <g id="Group" transform="translate(0.000000, 45.893504)">
                    <path d="M12.8944328,2.17384823 C12.8944328,3.26051307 12.0304471,4.14363891 10.9648315,4.14363891 L2.07198802,4.14363891 C1.00840649,4.1508989 0.132979474,3.23977024 0.142312077,2.17384823 C0.142312077,1.08510912 1.00637239,0.204057557 2.07198802,0.204057557 L10.9648315,0.204057557 C12.0309556,0.204835413 12.8951951,1.08692412 12.8944328,2.17384823 Z" id="Path" fill="#EBD9EA"></path>
                    <path d="M12.8944328,2.17384829 L7.27979986,2.17384829 C6.21418423,2.17410752 5.3484192,1.29357453 5.34816494,0.204057557 L10.9648315,0.204057557 C12.0309556,0.204835413 12.8951951,1.08692412 12.8944328,2.17384829 Z" id="Path" fill="#FFFFFF"></path>
                    <path d="M10.5384326,4.14363891 L2.07173376,4.14363891 C1.27639954,4.1420832 0.589635566,3.65540463 0.291130971,2.9345914 L8.75782985,2.9345914 C9.55418112,2.93666569 10.2384025,3.42152926 10.5384326,4.14363891 Z" id="Path" fill="#C1B7D3"></path>
                </g>
                <g id="Group" transform="translate(2.288366, 49.782784)">
                    <path d="M8.39932233,0.254358912 L8.39932233,3.16846677 C8.40211611,5.52562974 6.51396014,7.42515409 4.22991689,7.42023723 C1.94129691,7.42489481 0.0536494629,5.51836975 0.0587244694,3.16846677 L0.0587244694,0.254358912 L8.39932233,0.254358912 Z" id="Path" fill="#EE6781"></path>
                    <path d="M8.39931922,0.254358912 L8.39931922,3.16846677 C8.39931922,4.46048559 7.83561847,5.61637961 6.94417289,6.39475418 C6.04535369,5.60497105 5.49385755,4.46048559 5.49106066,3.16846677 L5.49106066,0.254358912 L8.39931922,0.254358912 Z" id="Path" fill="#F0A6B3"></path>
                    <path d="M2.60644855,0.254358912 L2.60644855,3.16846677 C2.60644855,4.36973572 2.1200437,5.45432627 1.33360869,6.22492228 C0.542088411,5.45458556 0.0607688229,4.36869858 0.05873472,3.16846677 L0.05873472,0.254358912 L2.60644855,0.254358912 Z" id="Path" fill="#D65171"></path>
                </g>
                <path d="M10.6876849,13.6741899 L2.34684617,13.6741899 L5.83431552,4.80118652 L7.20224969,4.80118652 C7.69297701,6.05042325 10.2579807,12.5813022 10.6876849,13.6741899 L10.6876849,13.6741899 Z" id="Path" fill="#F5B890"></path>
                <path d="M10.02711,11.9929838 L5.80532955,11.9929838 C5.08856256,11.9929838 4.60012361,11.2540206 4.86557403,10.576508 L7.13436151,4.8014458 L7.20224969,4.8014458 L10.02711,11.9929838 Z" id="Path" fill="#FBD9A3"></path>
                <g id="Group" transform="translate(5.593783, 0.000000)">
                    <path d="M1.84000707,0.980357845 L1.84000707,5.17481668 C1.85732661,5.96485909 0.840385358,6.37556706 0.303479671,5.81291789 C0.14010731,5.64904956 0.0395505874,5.4237306 0.0395505874,5.17481668 L0.0395505874,0.980357845 C0.07238016,-0.212613973 1.8113135,-0.208206123 1.84000707,0.980357845 L1.84000707,0.980357845 Z" id="Path" fill="#50755C"></path>
                    <path d="M1.84000707,0.980357845 L1.84000707,3.54676407 C1.29974087,3.64010679 0.790753248,3.20476672 0.79618176,2.65560038 L0.79618176,0.0891941547 C1.33567245,-0.00337070933 1.84517708,0.428857941 1.84000707,0.980357845 Z" id="Path" fill="#528F66"></path>
                </g>
            </g>
            <g id="Pencil_3_" transform="translate(96.000000, 41.000000)">
                <g id="Group" transform="translate(2.056704, 13.482837)">
                    <polygon id="Path" fill="#22BCE0" points="0.252203328 0.191352576 8.68546099 0.191352576 8.68546099 32.6147242 0.252203328 32.6147242"></polygon>
                    <path d="M2.70482285,2.66493466 L2.70482285,30.1411421 C2.70482285,31.5062794 1.60577165,32.6147242 0.252203328,32.6147242 L0.252203328,0.191352576 C1.60602874,0.191352576 2.70482285,1.29772309 2.70482285,2.66493466 L2.70482285,2.66493466 Z" id="Path" fill="#22A8B9"></path>
                    <path d="M8.68571808,0.191352576 L8.68571808,32.6147242 C7.33009306,32.6147242 6.23104186,31.5062794 6.23104186,30.1411421 L6.23104186,2.66493466 C6.23104186,1.29772309 7.33009306,0.191352576 8.68571808,0.191352576 L8.68571808,0.191352576 Z" id="Path" fill="#4FCAE8"></path>
                </g>
                <g id="Group" transform="translate(0.000000, 45.893504)">
                    <path d="M12.972661,2.17384823 C12.972661,3.26051307 12.0990755,4.14363891 11.0216196,4.14363891 L2.02996685,4.14363891 C0.954567744,4.1508989 0.06941376,3.23977024 0.0788500578,2.17384823 C0.0788500578,1.08510912 0.95251104,0.204057557 2.02996685,0.204057557 L11.0216196,0.204057557 C12.0995896,0.204835413 12.9734317,1.08692412 12.972661,2.17384823 Z" id="Path" fill="#EBD9EA"></path>
                    <path d="M12.972661,2.17384829 L7.29564326,2.17384829 C6.21818746,2.17410752 5.34280282,1.29357453 5.34254573,0.204057557 L11.0216196,0.204057557 C12.0995896,0.204835413 12.9734317,1.08692412 12.972661,2.17384829 Z" id="Path" fill="#FFFFFF"></path>
                    <path d="M10.5904831,4.14363891 L2.02970976,4.14363891 C1.2255385,4.1420832 0.531143808,3.65540463 0.229322496,2.9345914 L8.79009581,2.9345914 C9.59529542,2.93666569 10.2871192,3.42152926 10.5904831,4.14363891 Z" id="Path" fill="#C1B7D3"></path>
                </g>
                <g id="Group" transform="translate(2.056704, 49.782784)">
                    <path d="M8.68469287,0.254358912 L8.68469287,3.16846677 C8.6875177,5.52562974 6.77838221,7.42515409 4.4689607,7.42023723 C2.15491162,7.42489481 0.246290304,5.51836975 0.251421699,3.16846677 L0.251421699,0.254358912 L8.68469287,0.254358912 Z" id="Path" fill="#EE6781"></path>
                    <path d="M8.68468973,0.254358912 L8.68468973,3.16846677 C8.68468973,4.46048559 8.11472563,5.61637961 7.2133751,6.39475418 C6.30456902,5.60497105 5.74694515,4.46048559 5.74411718,3.16846677 L5.74411718,0.254358912 L8.68468973,0.254358912 Z" id="Path" fill="#F0A6B3"></path>
                    <path d="M2.82745382,0.254358912 L2.82745382,3.16846677 C2.82745382,4.36973572 2.33564448,5.45432627 1.5404713,6.22492228 C0.740156352,5.45458556 0.253488768,4.36869858 0.251432064,3.16846677 L0.251432064,0.254358912 L2.82745382,0.254358912 Z" id="Path" fill="#D65171"></path>
                </g>
                <path d="M10.7413937,13.6741899 L2.30813606,13.6741899 L5.83435507,4.80118652 L7.21748851,4.80118652 C7.71341126,6.05042325 10.306915,12.5813022 10.7413937,13.6741899 Z" id="Path" fill="#F5B890"></path>
                <path d="M10.0734791,11.9929838 L5.80478995,11.9929838 C5.08005888,11.9929838 4.58619283,11.2540206 4.8545927,10.576508 L7.14858893,4.8014458 L7.21723142,4.8014458 L10.0734791,11.9929838 Z" id="Path" fill="#FBD9A3"></path>
                <g id="Group" transform="translate(5.398848, 0.000000)">
                    <path d="M2.05569707,0.980357845 L2.05569707,5.17481668 C2.07320905,5.96485909 1.04496845,6.37556706 0.502097149,5.81291789 C0.336909539,5.64904956 0.23523552,5.4237306 0.23523552,5.17481668 L0.23523552,0.980357845 C0.268429866,-0.212613973 2.02668469,-0.208206123 2.05569707,0.980357845 L2.05569707,0.980357845 Z" id="Path" fill="#22A8B9"></path>
                    <path d="M2.05569707,0.980357845 L2.05569707,3.54676407 C1.50942792,3.64010679 0.994784877,3.20476672 1.00027371,2.65560038 L1.00027371,0.0891941547 C1.54575874,-0.00337070933 2.06092453,0.428857941 2.05569707,0.980357845 Z" id="Path" fill="#22BCE0"></path>
                </g>
            </g>
            <g id="Pencil_4_" transform="translate(111.000000, 41.000000)">
                <g id="Group" transform="translate(2.056704, 13.482837)">
                    <polygon id="Path" fill="#DD5E26" points="0.187160064 0.191352576 8.62041773 0.191352576 8.62041773 32.6147242 0.187160064 32.6147242"></polygon>
                    <path d="M2.63977958,2.66493466 L2.63977958,30.1411421 C2.63977958,31.5062794 1.54072838,32.6147242 0.187160064,32.6147242 L0.187160064,0.191352576 C1.54098547,0.191352576 2.63977958,1.29772309 2.63977958,2.66493466 L2.63977958,2.66493466 Z" id="Path" fill="#BF5E39"></path>
                    <path d="M8.62067482,0.191352576 L8.62067482,32.6147242 C7.26504979,32.6147242 6.16599859,31.5062794 6.16599859,30.1411421 L6.16599859,2.66493466 C6.16599859,1.29772309 7.26504979,0.191352576 8.62067482,0.191352576 L8.62067482,0.191352576 Z" id="Path" fill="#EA792E"></path>
                </g>
                <g id="Group" transform="translate(0.000000, 45.893504)">
                    <path d="M12.9076177,2.17384823 C12.9076177,3.26051307 12.0340322,4.14363891 10.9565764,4.14363891 L1.96492358,4.14363891 C0.88952448,4.1508989 0.004370496,3.23977024 0.0138067938,2.17384823 C0.0138067938,1.08510912 0.887467776,0.204057557 1.96492358,0.204057557 L10.9565764,0.204057557 C12.0345464,0.204835413 12.9083885,1.08692412 12.9076177,2.17384823 Z" id="Path" fill="#EBD9EA"></path>
                    <path d="M12.9076177,2.17384829 L7.2306,2.17384829 C6.15314419,2.17410752 5.27775955,1.29357453 5.27750246,0.204057557 L10.9565764,0.204057557 C12.0345464,0.204835413 12.9083885,1.08692412 12.9076177,2.17384829 Z" id="Path" fill="#FFFFFF"></path>
                    <path d="M10.5254398,4.14363891 L1.9646665,4.14363891 C1.16049523,4.1420832 0.466100544,3.65540463 0.164279232,2.9345914 L8.72505254,2.9345914 C9.53025216,2.93666569 10.222076,3.42152926 10.5254398,4.14363891 Z" id="Path" fill="#C1B7D3"></path>
                </g>
                <g id="Group" transform="translate(2.056704, 49.782784)">
                    <path d="M8.6196496,0.254358912 L8.6196496,3.16846677 C8.62247443,5.52562974 6.71333894,7.42515409 4.40391744,7.42023723 C2.08986835,7.42489481 0.18124704,5.51836975 0.186378435,3.16846677 L0.186378435,0.254358912 L8.6196496,0.254358912 Z" id="Path" fill="#EE6781"></path>
                    <path d="M8.61964646,0.254358912 L8.61964646,3.16846677 C8.61964646,4.46048559 8.04968237,5.61637961 7.14833184,6.39475418 C6.23952576,5.60497105 5.68190189,4.46048559 5.67907392,3.16846677 L5.67907392,0.254358912 L8.61964646,0.254358912 Z" id="Path" fill="#F0A6B3"></path>
                    <path d="M2.76241056,0.254358912 L2.76241056,3.16846677 C2.76241056,4.36973572 2.27060122,5.45432627 1.47542803,6.22492228 C0.675113088,5.45458556 0.188445504,4.36869858 0.1863888,3.16846677 L0.1863888,0.254358912 L2.76241056,0.254358912 Z" id="Path" fill="#D65171"></path>
                </g>
                <path d="M10.6763505,13.6741899 L2.2430928,13.6741899 L5.76931181,4.80118652 L7.15244525,4.80118652 C7.648368,6.05042325 10.2418717,12.5813022 10.6763505,13.6741899 Z" id="Path" fill="#F5B890"></path>
                <path d="M10.0084358,11.9929838 L5.73974669,11.9929838 C5.01501562,11.9929838 4.52114957,11.2540206 4.78954944,10.576508 L7.08354566,4.8014458 L7.15218816,4.8014458 L10.0084358,11.9929838 Z" id="Path" fill="#FBD9A3"></path>
                <g id="Group" transform="translate(5.398848, 0.000000)">
                    <path d="M1.98956975,0.980357845 L1.98956975,5.17481668 C2.00708173,5.96485909 0.978841136,6.37556706 0.43596983,5.81291789 C0.270782221,5.64904956 0.169108202,5.4237306 0.169108202,5.17481668 L0.169108202,0.980357845 C0.202302547,-0.212613973 1.96055737,-0.208206123 1.98956975,0.980357845 L1.98956975,0.980357845 Z" id="Path" fill="#BF5E39"></path>
                    <path d="M1.98956975,0.980357845 L1.98956975,3.54676407 C1.4433006,3.64010679 0.928657558,3.20476672 0.934146387,2.65560038 L0.934146387,0.0891941547 C1.47963142,-0.00337070933 1.99479721,0.428857941 1.98956975,0.980357845 Z" id="Path" fill="#DD5E26"></path>
                </g>
            </g>
        </g>
    </g>
</svg>