<svg xmlns="http://www.w3.org/2000/svg" width="60" height="60" viewBox="0 0 60 60">
    <g fill="none" fill-rule="evenodd">
        <g fill-rule="nonzero">
            <g>
                <path fill="#F39E22" d="M60 30c0 3.212-.505 6.306-1.44 9.206-.061.191-.123.38-.189.569-1.75 5.079-4.825 9.54-8.811 12.971-.235.203-.473.402-.714.597C43.695 57.506 37.14 60 30 60c-10.467 0-19.684-5.361-25.051-13.488C1.82 41.775 0 36.1 0 30 0 13.432 13.432 0 30 0c16.035 0 29.132 12.581 29.959 28.41.027.527.041 1.057.041 1.59z" transform="translate(-645 -406) translate(645 406)"/>
                <path fill="#EBD9EA" d="M60 30.01c0 3.21-.505 6.303-1.439 9.203-.062.19-.124.38-.19.568-1.749 5.077-4.823 9.537-8.809 12.967-.234.203-.472.402-.713.597C43.699 57.507 37.145 60 30.007 60c-10.464 0-19.679-5.36-25.045-13.484L9.65 32.581c.891-2.571 1.863-4.16 4.16-4.16h46.15c.027.526.041 1.056.041 1.589z" transform="translate(-645 -406) translate(645 406)"/>
                <path fill="#C2AACF" d="M46.809 39.391c4.201 0 8.106.164 11.648.454.065-.192.128-.385.19-.579-10.822-.967-26.06-.445-35.221 1.627-4.512.977-9.892 2.698-9.892 5.342.92 6.618 27.578 7.627 35.405 7.426.241-.198.479-.4.713-.607-.932.017-1.88.025-2.843.025-19.554 0-32.69-3.538-32.69-6.844 0-3.306 13.136-6.844 32.69-6.844z" transform="translate(-645 -406) translate(645 406)"/>
                <path fill="#C2AACF" d="M47.82 46.015c-.033-.602-2.224-.601-2.256 0 .032.602 2.224.601 2.256 0z" transform="translate(-645 -406) translate(645 406)"/>
                <g>
                    <g>
                        <g>
                            <g>
                                <path fill="#9175A7" d="M3.608 5.113l1.137 2.67.88 2.068c.057.136-.126.242-.214.124l-3.086-4.12 1.283-.742z" transform="translate(-645 -406) translate(645 406) translate(13.534 4.511) translate(0 12.39) translate(16.605) translate(10.952 19.471)"/>
                                <path fill="#9175A7" d="M2.803.75L4.89 4.372c.913 1.739-1.508 3.154-2.565 1.484L.24 2.234C-.675.492 1.753-.916 2.803.75z" transform="translate(-645 -406) translate(645 406) translate(13.534 4.511) translate(0 12.39) translate(16.605) translate(10.952 19.471)"/>
                                <path fill="#A583BB" d="M3.892 2.639l.998 1.733c.592.993-.203 2.285-1.336 2.225l-1-1.733c-.589-.988.2-2.285 1.338-2.225z" transform="translate(-645 -406) translate(645 406) translate(13.534 4.511) translate(0 12.39) translate(16.605) translate(10.952 19.471)"/>
                                <path fill="#C2AACF" d="M4.626 3.914l.264.458c.39.678.187 1.534-.448 1.968-.993-.536-.883-2.043.184-2.426z" transform="translate(-645 -406) translate(645 406) translate(13.534 4.511) translate(0 12.39) translate(16.605) translate(10.952 19.471)"/>
                            </g>
                            <path fill="#C0405C" d="M3.986.074l9.964 17.293c.199.346.333.71.405 1.081.28 1.435-.357 2.954-1.692 3.726-.497.288-1.135.117-1.422-.382L.043 2.356 3.986.074z" transform="translate(-645 -406) translate(645 406) translate(13.534 4.511) translate(0 12.39) translate(16.605)"/>
                            <path fill="#E9465E" d="M3.986.074l9.964 17.293c.199.346.333.71.405 1.081-.299.555-.75 1.037-1.335 1.376-.498.288-1.136.116-1.423-.383L1.325 1.614 3.986.074z" transform="translate(-645 -406) translate(645 406) translate(13.534 4.511) translate(0 12.39) translate(16.605)"/>
                            <path fill="#EE6781" d="M10.367 14.227c-.735.425-1.675.173-2.099-.563L3.991 6.24c-.424-.736-.172-1.677.563-2.103.735-.425 1.674-.172 2.098.564l4.277 7.422c.424.737.172 1.678-.562 2.103z" transform="translate(-645 -406) translate(645 406) translate(13.534 4.511) translate(0 12.39) translate(16.605)"/>
                        </g>
                        <g>
                            <path fill="#334353" d="M2.13 5.113L.993 7.783l-.88 2.068c-.057.136.125.242.213.124l3.087-4.12-1.283-.742z" transform="translate(-645 -406) translate(645 406) translate(13.534 4.511) translate(0 12.39) translate(0 19.471)"/>
                            <g>
                                <path fill="#9175A7" d="M2.346.75L.259 4.372C-.654 6.11 1.767 7.526 2.824 5.856L4.91 2.234C5.824.492 3.396-.916 2.346.75z" transform="translate(-645 -406) translate(645 406) translate(13.534 4.511) translate(0 12.39) translate(0 19.471) translate(.589)"/>
                                <path fill="#A583BB" d="M1.257 2.639L.26 4.372c-.592.993.203 2.285 1.336 2.225l1-1.733c.589-.988-.199-2.285-1.338-2.225z" transform="translate(-645 -406) translate(645 406) translate(13.534 4.511) translate(0 12.39) translate(0 19.471) translate(.589)"/>
                                <path fill="#C2AACF" d="M.523 3.914l-.264.458C-.13 5.05.072 5.906.707 6.34c.993-.536.883-2.043-.184-2.426z" transform="translate(-645 -406) translate(645 406) translate(13.534 4.511) translate(0 12.39) translate(0 19.471) translate(.589)"/>
                            </g>
                        </g>
                        <g>
                            <path fill="#C0405C" d="M10.466.074L.503 17.367c-.2.346-.333.71-.405 1.081-.281 1.435.356 2.954 1.691 3.726.498.288 1.135.117 1.423-.382L14.41 2.356 10.466.074z" transform="translate(-645 -406) translate(645 406) translate(13.534 4.511) translate(0 12.39) translate(2.238)"/>
                            <path fill="#E9465E" d="M10.466.074L.503 17.367c-.2.346-.333.71-.405 1.081.298.555.75 1.037 1.335 1.376.497.288 1.135.116 1.423-.383L13.127 1.614 10.466.074z" transform="translate(-645 -406) translate(645 406) translate(13.534 4.511) translate(0 12.39) translate(2.238)"/>
                            <path fill="#EE6781" d="M4.086 14.227c.735.425 1.674.173 2.098-.563l4.277-7.423c.424-.736.172-1.678-.562-2.103-.735-.425-1.675-.173-2.1.564l-4.276 7.422c-.424.737-.172 1.678.563 2.103z" transform="translate(-645 -406) translate(645 406) translate(13.534 4.511) translate(0 12.39) translate(2.238)"/>
                        </g>
                    </g>
                    <g>
                        <path fill="#C2AACF" d="M12.785 2.953c.01 1.589-1.301 2.95-2.938 2.943h-6.89c-.813 0-1.547-.33-2.077-.862C-.555 3.635-.113 1.13 1.687.297c.385-.185.814-.288 1.27-.288h6.89c1.624 0 2.937 1.32 2.938 2.944z" transform="translate(-645 -406) translate(645 406) translate(13.534 4.511) translate(10.245 8.85)"/>
                        <path fill="#EBD9EA" d="M12.785 2.953c0 .389-.076.76-.212 1.1-.385.184-.816.287-1.27.287h-6.89C2.35 4.36.902 2.198 1.686.297c.384-.185.814-.288 1.27-.288h6.89c1.624 0 2.937 1.32 2.938 2.944z" transform="translate(-645 -406) translate(645 406) translate(13.534 4.511) translate(10.245 8.85)"/>
                        <path fill="#FFF" d="M9.576 2.774H5.397c-.762 0-1.38-.619-1.38-1.382 0-.764.618-1.383 1.38-1.383h4.179c1.83.073 1.831 2.69 0 2.765z" transform="translate(-645 -406) translate(645 406) translate(13.534 4.511) translate(10.245 8.85)"/>
                        <path fill="#334353" d="M7.486 2.953c.002.59-.48 1.088-1.084 1.087-1.18-.013-1.494-1.619-.43-2.085.69-.317 1.531.232 1.514.998z" transform="translate(-645 -406) translate(645 406) translate(13.534 4.511) translate(10.245 8.85)"/>
                        <path fill="#3F5D77" d="M7.486 2.953c0 .19-.049.367-.133.523-.939.411-1.875-.626-1.38-1.52.69-.318 1.53.23 1.513.997z" transform="translate(-645 -406) translate(645 406) translate(13.534 4.511) translate(10.245 8.85)"/>
                    </g>
                    <g>
                        <path fill="#C0405C" d="M5.947 4.446c0 1.193-.317 2.277-.836 3.07-2.064 3.036-5.15.489-5.085-3.07.146-5.78 5.72-5.943 5.921 0z" transform="translate(-645 -406) translate(645 406) translate(13.534 4.511) translate(13.66)"/>
                        <path fill="#E9465E" d="M5.947 4.446c0 1.193-.317 2.277-.836 3.07-1.995.459-3.459-1.698-3.49-4.34 0-1.195.318-2.278.834-3.072 1.995-.458 3.46 1.698 3.492 4.342z" transform="translate(-645 -406) translate(645 406) translate(13.534 4.511) translate(13.66)"/>
                        <path fill="#EE6781" d="M5.273 2.988c0-.749-.606-1.356-1.354-1.356-1.795.071-1.794 2.641 0 2.712.748 0 1.354-.607 1.354-1.356z" transform="translate(-645 -406) translate(645 406) translate(13.534 4.511) translate(13.66)"/>
                    </g>
                </g>
            </g>
        </g>
    </g>
</svg>
