<?xml version="1.0" encoding="UTF-8"?>
<svg width="133px" height="134px" viewBox="0 0 133 134" version="1.1" xmlns="http://www.w3.org/2000/svg" xmlns:xlink="http://www.w3.org/1999/xlink">
    <title>subjects/design &amp; technology</title>
    <g id="subjects/design-&amp;-technology" stroke="none" stroke-width="1" fill="none" fill-rule="evenodd">
        <g id="d.t" fill-rule="nonzero">
            <path d="M133,66.5 C133,73.6201758 131.88041,80.4779883 129.810078,86.9071875 C129.672402,87.3306055 129.534727,87.7488281 129.389258,88.1670508 C125.510957,99.425293 118.694707,109.31457 109.85748,116.920508 C109.337949,117.369902 108.810625,117.811504 108.275508,118.242715 C96.8562109,127.472188 82.3249219,133 66.5,133 C43.2977344,133 22.867168,121.115723 10.9699023,103.100977 C4.03675781,92.60125 0,80.0233984 0,66.5 C0,29.7743359 29.7743359,0 66.5,0 C102.04373,0 131.075137,27.8884375 132.909082,62.9775781 C132.968828,64.1439258 133,65.3180664 133,66.5 L133,66.5 Z" id="Path" fill="#F39E22"></path>
            <path d="M133,66.521294 C133,73.6391898 131.880686,80.4948064 129.810865,86.9219469 C129.673223,87.3452293 129.535581,87.763318 129.390148,88.1814067 C125.512804,99.4360439 118.698235,109.322155 109.863188,116.925657 C109.343785,117.374907 108.816591,117.816367 108.281606,118.24744 C96.8651255,127.473958 82.3374204,133 66.5164016,133 C43.3198587,133 22.8943313,121.119528 11,103.110551 L21.3880622,72.2213236 C23.3641314,66.521294 25.517317,63 30.6100645,63 L132.909104,63 C132.968836,64.1659742 133,65.3397388 133,66.521294 L133,66.521294 Z" id="Path" fill="#EBD9EA"></path>
            <path d="M103.759215,87.3172989 C113.07289,87.3172989 121.727235,87.6797038 129.579483,88.3225095 C129.724847,87.8966177 129.862423,87.4707258 130,87.0395434 C106.012875,84.8957995 72.2347108,86.0533789 51.9265912,90.6450751 C41.9250337,92.8113039 30,96.6258136 30,102.487779 C32.0392483,117.157505 91.1315024,119.393305 108.480947,118.949425 C109.015679,118.510307 109.542623,118.060607 110.06178,117.602972 C107.995535,117.640006 105.895546,117.658523 103.759215,117.658523 C60.4148064,117.658523 31.2978922,109.815235 31.2978922,102.487779 C31.2978922,95.1603224 60.4148064,87.3172989 103.759215,87.3172989 Z" id="Path" fill="#C2AACF"></path>
            <path d="M106,101.999951 C105.928598,100.666293 101.070332,100.667073 101,101.999951 C101.071402,103.333869 105.929668,103.33283 106,101.999951 Z" id="Path" fill="#C2AACF"></path>
            <g id="Group" transform="translate(30.000000, 10.000000)">
                <g transform="translate(0.000000, 27.466167)" id="Path">
                    <g transform="translate(36.807091, 0.000000)">
                        <g transform="translate(24.277018, 43.161120)">
                            <path d="M7.99731948,11.3335869 L10.5187357,17.2534615 L12.4689895,21.8374341 C12.5950734,22.1387772 12.1904564,22.3728935 11.9954571,22.111311 C10.2929334,19.8368508 6.84794627,15.2405838 5.15351485,12.978418 L7.99731948,11.3335869 Z" fill="#9175A7"></path>
                            <g>
                                <path d="M6.21439442,1.66340341 L10.8392968,9.69058698 C12.8642089,13.5452674 7.4971607,16.6819037 5.15429798,12.9797259 C5.15429798,12.9797259 0.52939561,4.95254233 0.52939561,4.95254233 C-1.49629962,1.08975288 3.88641116,-2.02883422 6.21439442,1.66340341 Z" fill="#9175A7"></path>
                                <path d="M8.62643359,5.84977046 L10.8392968,9.69058698 C12.1510389,11.8933736 10.3897804,14.7571793 7.87750065,14.6242954 L5.66333222,10.7811246 C4.35654996,8.59089396 6.10266793,5.71767128 8.62643359,5.84977046 L8.62643359,5.84977046 Z" fill="#A583BB"></path>
                                <path d="M10.2553432,8.67695462 L10.8392968,9.69058698 C11.7056992,11.194425 11.2546165,13.0922064 9.84576637,14.0529991 C7.6451722,12.8656759 7.88846446,9.52552839 10.2553432,8.67695462 L10.2553432,8.67695462 Z" fill="#C2AACF"></path>
                            </g>
                        </g>
                        <g>
                            <path d="M8.83657336,0.165058586 L30.9216112,38.4963185 C31.3632963,39.2627553 31.6601024,40.071307 31.8195998,40.8937225 C32.4427099,44.0743047 31.0294221,47.4406104 28.0702363,49.1526682 C26.9675899,49.790668 25.5540409,49.4111118 24.9173566,48.3061871 L0.0944976384,5.2227571 L8.83657336,0.165058586 Z" fill="#C0405C"></path>
                            <path d="M8.83657336,0.165058586 L30.9216112,38.4963185 C31.3632963,39.2627553 31.6601024,40.071307 31.8195998,40.8937225 C31.1583774,42.1228989 30.1583209,43.1914636 28.859892,43.9427286 C27.7572455,44.5807285 26.3436966,44.2011722 25.7059681,43.0938933 L2.93804122,3.57740289 L8.83657336,0.165058586 Z" fill="#E9465E"></path>
                            <path d="M22.9793719,31.5371764 C21.3504623,32.4793968 19.2678596,31.9203949 18.327321,30.2881198 L8.84779822,13.8351008 C7.90752061,12.2028257 8.46536993,10.1159202 10.0942795,9.17343829 C11.7231891,8.23121796 13.8057917,8.79021986 14.7463304,10.4224949 L24.2258531,26.8755139 C25.1663918,28.5075274 24.6082814,30.5946945 22.9793719,31.5371764 L22.9793719,31.5371764 Z" fill="#EE6781"></path>
                        </g>
                    </g>
                    <g>
                        <g transform="translate(0.000000, 43.161120)">
                            <path d="M4.7217494,11.3333254 L2.20033313,17.2534615 L0.250079386,21.8374341 C0.12399552,22.1387772 0.52861248,22.3728935 0.72361175,22.111311 C2.4261355,19.8368508 5.87112261,15.2405838 7.56555402,12.978418 L4.7217494,11.3333254 Z" fill="#334353"></path>
                            <g transform="translate(1.305216, 0.000000)">
                                <path d="M5.19945846,1.66340341 L0.57429504,9.69058698 C-1.45061706,13.5452674 3.91643113,16.6819037 6.25929385,12.9797259 C6.25929385,12.9797259 10.8841962,4.95254233 10.8841962,4.95254233 C12.9098915,1.08975288 7.52744172,-2.02883422 5.19945846,1.66340341 Z" fill="#9175A7"></path>
                                <path d="M2.78741929,5.84977046 L0.574556083,9.69058698 C-0.737185997,11.8933736 1.02407247,14.7571793 3.53635223,14.6242954 L5.75052065,10.7811246 C7.05730291,8.59089396 5.31118495,5.71767128 2.78741929,5.84977046 Z" fill="#A583BB"></path>
                                <path d="M1.15850972,8.67695462 L0.574556083,9.69058698 C-0.291846298,11.194425 0.159236352,13.0922064 1.5680865,14.0529991 C3.76868068,12.8656759 3.52538842,9.52552839 1.15850972,8.67695462 Z" fill="#C2AACF"></path>
                            </g>
                        </g>
                        <g transform="translate(4.959821, 0.000000)">
                            <path d="M23.1996923,0.165058586 L1.11465446,38.49658 C0.67296937,39.2630169 0.376163251,40.0715686 0.216665856,40.8939841 C-0.406444262,44.0745662 1.00684362,47.440872 3.96602934,49.1529298 C5.06867581,49.7909296 6.48222474,49.4113733 7.11890911,48.3064487 L31.941768,5.22301869 L23.1996923,0.165058586 Z" fill="#C0405C"></path>
                            <path d="M23.1996923,0.165058586 L1.11465446,38.49658 C0.67296937,39.2630169 0.376163251,40.0715686 0.216665856,40.8939841 C0.877888282,42.1231605 1.87794478,43.1917252 3.17637366,43.9429902 C4.27902013,44.5809901 5.69256906,44.2014338 6.3302976,43.0941549 L29.0982245,3.57766447 L23.1996923,0.165058586 Z" fill="#E9465E"></path>
                            <path d="M9.05663278,31.5369148 C10.6855423,32.4791352 12.768145,31.9201333 13.7086836,30.2878582 L23.1882064,13.8348392 C24.128484,12.2025642 23.5706347,10.1156586 21.9417251,9.1731767 C20.3128156,8.23095638 18.2302129,8.78995827 17.2896743,10.4222334 L7.8101515,26.8752523 C6.86987389,28.5075274 7.42798426,30.5946945 9.05663278,31.5369148 L9.05663278,31.5369148 Z" fill="#EE6781"></path>
                        </g>
                    </g>
                </g>
                <g transform="translate(22.710758, 19.618691)" id="Path">
                    <path d="M28.3392342,6.54636478 C28.3610385,10.0672658 25.4558887,13.0848821 21.8284324,13.0705463 L6.55322849,13.0705463 C4.75359667,13.0705463 3.12599232,12.339895 1.95025375,11.1591114 C-1.23134077,8.05752715 -0.251123558,2.50543762 3.73970488,0.657880102 C4.59201093,0.248765001 5.54429652,0.0198802735 6.55322849,0.0198802735 L21.8284324,0.0198802735 C25.4279571,0.0193571084 28.3375446,2.94384997 28.3392342,6.54636478 Z" fill="#C2AACF"></path>
                    <path d="M28.3391108,6.54636478 C28.3391108,7.40801769 28.1723042,8.22886371 27.8692331,8.98248303 C27.016927,9.39159813 26.06177,9.62048286 25.0554484,9.62048286 L9.78024453,9.62048286 C5.21094436,9.66233606 2.00167926,4.87197491 3.73944384,0.657618519 C4.59174989,0.248503418 5.54429652,0.0196186909 6.55322849,0.0196186909 L21.8284324,0.0196186909 C25.4279571,0.0193571084 28.3375446,2.94384997 28.3391108,6.54636478 L28.3391108,6.54636478 Z" fill="#EBD9EA"></path>
                    <path d="M21.2259447,6.14954406 L11.9636099,6.14954406 C10.2743993,6.14954406 8.90496668,4.77728203 8.90496668,3.08458138 C8.90496668,1.39188072 10.2743993,0.0196186909 11.9636099,0.0196186909 L21.2259447,0.0196186909 C25.2820339,0.182846199 25.2854275,5.98474706 21.2259447,6.14954406 Z" fill="#FFFFFF"></path>
                    <path d="M16.5937331,6.54636478 C16.5986929,7.85349276 15.5302431,8.95763269 14.1908304,8.95423995 C11.5764828,8.92755069 10.8802806,5.36688909 13.2385448,4.33389961 C14.768258,3.63155048 16.6326285,4.84686298 16.5937331,6.54636478 Z" fill="#334353"></path>
                    <path d="M16.5937331,6.54636478 C16.5937331,6.9656816 16.4859223,7.35936333 16.2984932,7.70412913 C14.218501,8.61679063 12.1429465,6.31748006 13.2382838,4.3341612 C14.768519,3.6312889 16.6326285,4.84738615 16.5937331,6.54636478 L16.5937331,6.54636478 Z" fill="#3F5D77"></path>
                </g>
                <g transform="translate(30.281011, 0.000000)" id="Path">
                    <path d="M13.1824206,9.85486082 C13.1824206,12.4994604 12.4789091,14.9023576 11.3287528,16.6620234 C6.75423176,23.3894033 -0.0858832128,17.7434056 0.0584736768,9.85486082 C0.380339942,-2.95771384 12.7365588,-3.31765142 13.1824206,9.85486082 Z" fill="#C0405C"></path>
                    <path d="M13.1824206,9.85486082 C13.1824206,12.4994604 12.4789091,14.9023576 11.3287528,16.6620234 C6.90772516,17.67801 3.66295818,12.8954963 3.59352069,7.03813997 C3.59352069,4.39092461 4.29703212,1.99064317 5.44196759,0.230977388 C9.86456148,-0.785270801 13.1129831,3.9954118 13.1824206,9.85486082 Z" fill="#E9465E"></path>
                    <path d="M11.6882093,6.62379322 C11.6882093,4.9635288 10.345142,3.61742502 8.68803978,3.61742502 C4.7084362,3.77568246 4.70974141,9.47216555 8.68803978,9.62989983 C10.345142,9.62989983 11.6882093,8.28405763 11.6882093,6.62379322 L11.6882093,6.62379322 Z" fill="#EE6781"></path>
                </g>
            </g>
        </g>
    </g>
</svg>