<?xml version="1.0" encoding="UTF-8"?>
<svg width="133px" height="134px" viewBox="0 0 133 134" version="1.1" xmlns="http://www.w3.org/2000/svg" xmlns:xlink="http://www.w3.org/1999/xlink">
    <title>subjects/english</title>
    <defs>
        <linearGradient x1="0%" y1="49.9925812%" x2="100%" y2="49.9925812%" id="linearGradient-1">
            <stop stop-color="#FFFFFF" offset="0%"></stop>
            <stop stop-color="#F7F7F7" offset="13%"></stop>
            <stop stop-color="#E0E1E1" offset="34%"></stop>
            <stop stop-color="#C4C6C7" offset="54%"></stop>
            <stop stop-color="#C1C2C3" offset="58%"></stop>
            <stop stop-color="#BEBFC0" offset="69%"></stop>
            <stop stop-color="#FFFFFF" offset="91%"></stop>
        </linearGradient>
    </defs>
    <g id="subjects/english" stroke="none" stroke-width="1" fill="none" fill-rule="evenodd">
        <g id="english" fill-rule="nonzero">
            <path d="M132.420052,67.21 C132.439949,83.1046801 126.723116,98.4726616 116.32,110.49 C112.28088,115.159162 107.612972,119.244844 102.45,122.63 C101.29,123.39 100.11,124.12 98.9,124.8 C91.1843743,129.201762 82.655484,131.991427 73.83,133 L73.72,133 L71.59,133.21 C70.2566667,133.323333 68.8866667,133.393333 67.48,133.42 L66.21,133.42 C64.03,133.42 61.87,133.31 59.74,133.11 C59.02,133.04 58.31,132.96 57.6,132.86 C48.0368803,131.6254 38.8629721,128.299986 30.73,123.12 C30.54,123 30.35,122.88 30.17,122.75 C28.65,121.77 27.18,120.73 25.76,119.63 C24.23,118.46 22.76,117.21 21.34,115.89 L20.46,115.07 C18.2269425,112.940526 16.1483528,110.654746 14.24,108.23 C-3.73525809,85.4580118 -4.79188009,53.6361241 11.6331972,29.7218984 C28.0582744,5.80767278 58.1388782,-4.6281434 85.8453597,3.97559058 C113.551841,12.5793246 132.430058,38.2183946 132.420052,67.23 L132.420052,67.21 Z" id="Path" fill="#ED968A"></path>
            <path d="M114.54,37.74 L114.54,94 L114.54,94 C82.33,77.18 50.14,110.88 17.93,94.08 L17.93,37.82 C50.13,54.61 82.33,20.9 114.54,37.74 Z" id="Path" fill="#2F4694"></path>
            <path d="M114.54,88.1 L114.54,94 L114.54,94 C111.359431,92.335157 107.978536,91.0849652 104.48,90.28 C94.59,82.21 84.7,78 74.81,74.55 C73.81,74.21 72.81,73.87 71.81,73.55 L68.32,72.42 L67.17,72 L63.61,70.86 L62.28,70.43 L61.17,70.07 L58.93,69.33 L58.19,69.07 L57.11,68.71 C53.59,67.48 50.11,66.15 46.58,64.57 C44.99,63.86 43.42,63.1 41.84,62.28 C32.8031733,57.5842366 24.6974884,51.2813211 17.92,43.68 L17.92,37.82 L18,37.74 C18.0554345,37.8167608 18.1191517,37.887185 18.19,37.95 C21.2944787,39.555595 24.591082,40.7586368 28,41.53 C38.05,49.7 48.13,54 58.19,57.4 L61.19,58.4 L61.98,58.66 L66.72,60.17 L67.19,60.33 L69.01,60.92 C70.01,61.23 70.92,61.53 71.86,61.85 L72.35,62.01 L74.83,62.85 L77.26,63.7 C79.43,64.48 81.6,65.31 83.77,66.23 C85.34,66.9 86.92,67.6 88.5,68.37 C98.3955792,73.1660625 107.245265,79.8712972 114.54,88.1 L114.54,88.1 Z" id="Path" fill="#FCF5FA"></path>
            <path d="M114.55,93.8 C114.545541,93.869929 114.545541,93.940071 114.55,94.01 C112.474977,92.9065511 110.310652,91.9799388 108.08,91.24 C97,81.15 85.91,76.26 74.81,72.43 C73.87,72.1 72.93,71.78 71.98,71.43 L71.84,71.43 L69,70.5 L67.27,69.94 C66.22,69.6 65.16,69.27 64.11,68.94 L61.17,68 L60.75,67.86 L58.93,67.24 L58.19,67 C55.53,66.09 52.87,65.12 50.19,64 C48.6166667,63.3333333 47.0433333,62.65 45.47,61.95 C34.9761018,57.126057 25.5955847,50.1800479 17.92,41.55 L17.92,37.69 L18,37.74 C18.0554345,37.8167608 18.1191517,37.887185 18.19,37.95 C27.4741201,48.2792141 39.1478433,56.1761444 52.19,60.95 C53.76,61.56 55.34,62.13 56.92,62.69 L58.2,63.13 L61.2,64.13 L62.31,64.49 L64.1,65 L67.44,66.08 C68.92,66.55 70.38,67.01 71.84,67.5 L72.33,67.66 L73.95,68.21 C74.24,68.3 74.53,68.41 74.81,68.51 C76.11,68.95 77.39,69.41 78.67,69.89 C90.63,74.35 102.59,80.59 114.55,93.8 Z" id="Path" fill="#E6302E"></path>
            <path d="M114.54,38.86 L114.54,44.7 C107.2,45.14 99.85,48.2 92.54,52.7 C90.96,53.7 89.39,54.7 87.81,55.77 C84.29,58.19 80.81,60.88 77.27,63.7 L74.84,65.7 L72.36,67.7 C72.21,67.84 72.04,67.98 71.87,68.11 C71.51,68.43 71.13,68.73 70.76,69.05 L69,70.5 L67.17,72 L66,73 L61.17,77.06 L58.17,79.53 C48.73,87.29 39.29,94.34 29.84,98.11 C25.6817874,97.3502924 21.6627859,95.9645461 17.92,94 L17.92,89.27 C27.24,88.71 36.55,83.92 45.92,77.36 C47.49,76.25 49.06,75.08 50.64,73.88 C52.81,72.23 54.97,70.5 57.15,68.74 L58.23,67.83 L58.97,67.23 L61.21,65.37 C61.57,65.06 61.95,64.76 62.32,64.45 L67.21,60.32 C67.37,60.19 67.52,60.05 67.69,59.92 L71.88,56.39 L72.43,55.95 C73.23,55.28 74.04,54.6 74.85,53.95 C85.37,45.34 95.85,37.68 106.41,34.5 C108.965382,35.2196436 111.446548,36.180635 113.82,37.37 L114.54,38.86 Z" id="Path" fill="#FCF5FA"></path>
            <path d="M114.29,39 C103.76,39.71 93.24,45.79 82.71,53.71 C81.13,54.89 79.56,56.12 77.98,57.38 C76.92,58.22 75.87,59.08 74.81,59.94 L72.33,61.94 C72.18,62.08 72.01,62.21 71.84,62.35 L67.44,66.05 L64.1,68.92 L62.28,70.46 C61.91,70.77 61.53,71.07 61.17,71.39 C61.0889465,71.4478273 61.0120877,71.5113193 60.94,71.58 L58.19,73.86 C57.53,74.4 56.86,74.95 56.19,75.47 C44.19,85.23 32.12,93.53 20.09,95.09 C19.36,94.76 18.63,94.4 17.91,94.03 L17.91,91.4 C28.45,90.76 39,84.72 49.51,76.82 C51.09,75.64 52.66,74.41 54.24,73.15 C55.57,72.1 56.87,71 58.19,70 L58.93,69.41 L60.75,67.9 L61.17,67.54 L64.1,65 L69,60.91 L71.27,59 C71.47,58.84 71.66,58.69 71.84,58.53 C72.84,57.7 73.84,56.88 74.84,56.07 L76.04,55.07 C87.34,45.88 98.66,38 110,35.69 C111.12,36.12 112.24,36.6 113.36,37.15 C113.76,37.34 114.15,37.53 114.55,37.74 C114.55,38.16 114.55,38.57 114.55,38.98 L114.29,39 Z" id="Path" fill="#E6302E"></path>
            <path d="M114.59,73 C82.33,56.09 50.09,89.92 17.83,73 L17.83,57.54 C50.09,74.45 82.33,40.63 114.59,57.54 L114.59,73 Z" id="Path" fill="#FFFFFF"></path>
            <path d="M114.59,70.21 C82.33,53.3 50.09,87.12 17.83,70.21 L17.83,60.29 C50.09,77.21 82.33,43.38 114.59,60.29 L114.59,70.21 Z" id="Path" fill="#E6302E"></path>
            <path d="M71.84,36.31 L71.84,92.53 C68.29,93.42 64.72,94.39 61.17,95.29 L61.17,39.08 C64.72,38.17 68.29,37.21 71.84,36.31 Z" id="Path" fill="#CD132D"></path>
            <path d="M71.83,71.51 L74.83,70.78 L74.83,91.78 C69.25,93.12 63.72,94.7 58.18,96 L58.18,75 C59.18,74.76 60.18,74.52 61.18,74.26 L61.18,58.86 L58.18,59.59 L58.18,39.82 C63.72,38.48 69.25,36.91 74.79,35.59 L74.79,55.36 L71.79,56.09 L71.83,71.51 Z" id="Path" fill="#FFFFFF"></path>
            <path d="M71.88,36.3 L71.88,92.52 C68.28,93.43 64.68,94.4 61.08,95.32 L61.08,39.1 C64.68,38.18 68.28,37.21 71.88,36.3 Z" id="Path" fill="#E6302E"></path>
            <path d="M114.41,56.11 L114.41,75 C114.41,75 114.41,75 114.41,75 L114.41,93.8 C82.21,77 50,110.69 17.89,93.84 L17.89,37.62 C50,54.5 82.21,20.81 114.38,37.6 L114.38,56.09 C114.38,56.09 114.41,56.11 114.41,56.11 Z" id="Path" fill="url(#linearGradient-1)" style="mix-blend-mode: multiply;"></path>
            <path d="M114.41,56.11 L114.41,75 C114.41,75 114.41,75 114.41,75 L114.41,93.8 C82.21,77 50,110.69 17.89,93.84 L17.89,37.62 C50,54.5 82.21,20.81 114.38,37.6 L114.38,56.09 C114.38,56.09 114.41,56.11 114.41,56.11 Z" id="Path" fill="url(#linearGradient-1)" opacity="0.25" style="mix-blend-mode: overlay;"></path>
        </g>
    </g>
</svg>