<?xml version="1.0" encoding="UTF-8"?>
<svg width="133px" height="134px" viewBox="0 0 133 134" version="1.1" xmlns="http://www.w3.org/2000/svg" xmlns:xlink="http://www.w3.org/1999/xlink">
    <title>subjects/english literature</title>
    <g id="subjects/english-literature" stroke="none" stroke-width="1" fill="none" fill-rule="evenodd">
        <g id="english-literature" fill-rule="nonzero">
            <path d="M132.420052,67.21 C132.439949,83.1046801 126.723116,98.4726616 116.32,110.49 C112.28088,115.159162 107.612972,119.244844 102.45,122.63 C101.29,123.39 100.11,124.12 98.9,124.8 C91.1843743,129.201762 82.655484,131.991427 73.83,133 L73.72,133 L71.59,133.21 C70.2566667,133.323333 68.8866667,133.393333 67.48,133.42 L66.21,133.42 C64.03,133.42 61.87,133.31 59.74,133.11 C59.02,133.04 58.31,132.96 57.6,132.86 C48.0368803,131.6254 38.8629721,128.299986 30.73,123.12 C30.54,123 30.35,122.88 30.17,122.75 C28.65,121.77 27.18,120.73 25.76,119.63 C24.23,118.46 22.76,117.21 21.34,115.89 L20.46,115.07 C18.2269425,112.940526 16.1483528,110.654746 14.24,108.23 C-3.73525809,85.4580118 -4.79188009,53.6361241 11.6331972,29.7218984 C28.0582744,5.80767278 58.1388782,-4.6281434 85.8453597,3.97559058 C113.551841,12.5793246 132.430058,38.2183946 132.420052,67.23 L132.420052,67.21 Z" id="Path" fill="#7467AC"></path>
            <path d="M70.17,97 C70.17,99.16 68.07,100.9 65.47,100.9 C62.87,100.9 60.76,99.16 60.76,97 C60.76,94.84 62.86,93.1 65.47,93.1 C68.08,93.1 70.17,94.85 70.17,97 Z" id="Path" fill="#D23431"></path>
            <polygon id="Path" fill="#EA5745" points="113.79 99.45 16.51 99.45 18.12 34.18 112.56 34.18"></polygon>
            <path d="M69.28,97 C69.28,98.71 67.57,100.09 65.47,100.09 C63.37,100.09 61.65,98.72 61.65,97 C61.65,95.28 63.36,93.91 65.47,93.91 C67.58,93.91 69.28,95.3 69.28,97 Z" id="Path" fill="#B5B4B4"></path>
            <path d="M65.67,34.43 C70.0634612,32.1905065 74.978761,31.1749772 79.9,31.49 C88.37,31.93 110.75,34.65 110.75,34.65 L110.75,97.16 C110.75,97.16 87.4,93.22 74.47,94.31 C71.2766645,94.480358 68.1793234,95.4611827 65.47,97.16 C65.47,97.16 65.83,34.6 65.67,34.43 Z" id="Path" fill="#E8E5E5"></path>
            <path d="M65.45,95.9 L65.45,97.16 C65.45,97.16 65.45,96.71 65.45,95.9 Z" id="Path" fill="#B5B4B4"></path>
            <path d="M74.47,94.31 C71.2766645,94.480358 68.1793234,95.4611827 65.47,97.16 L65.47,97.84 L110.77,97.84 L110.77,97.16 C110.77,97.16 87.4,93.22 74.47,94.31 Z" id="Path" fill="#B5B4B4"></path>
            <path d="M65.58,34.57 C61.0111675,32.3365203 55.9485753,31.3040406 50.87,31.57 C42.4,32.01 20.18,34.72 20.18,34.72 L20.18,97.22 C20.18,97.22 43.54,93.29 56.47,94.38 C59.6619666,94.5499477 62.7586064,95.5271096 65.47,97.22 C65.47,97.22 65.42,34.73 65.58,34.57 Z" id="Path" fill="#E2E0DF"></path>
            <path d="M65.48,95.94 L65.48,97.19 C65.48,97.19 65.48,96.74 65.48,95.94 Z" id="Path" fill="#B5B4B4"></path>
            <path d="M56.47,94.35 C59.6619666,94.5199477 62.7586064,95.4971096 65.47,97.19 L65.47,97.88 L20.18,97.88 L20.18,97.19 C20.18,97.19 43.54,93.26 56.47,94.35 Z" id="Path" fill="#B5B4B4"></path>
            <path d="M65.58,34.57 L65.48,97.19 C65.48,97.19 71.29,93.46 82.15,94.19 L79.9,31.49 C79.9,31.49 68.45,29.92 65.58,34.57 Z" id="Path" fill="#D8D7D6"></path>
            <polygon id="Path" fill="#EA5745" points="79.85 58.63 76.83 62.54 73.82 58.63 73.82 31.24 79.85 31.24"></polygon>
            <path d="M65.45,98.81 L65.45,97.19 C65.45,97.19 60.73,89.99 20.15,97.19 L20.15,97.88 C20.15,97.88 59.45,93.85 65.45,98.81 Z" id="Path" fill="#D8D7D6"></path>
            <path d="M65.48,97.19 C65.48,97.19 70.76,90.19 110.75,97.19 L110.75,97.87 C110.75,97.87 72.4,93.67 65.45,98.87 L65.48,97.19 Z" id="Path" fill="#D8D7D6"></path>
            <path d="M53.65,97.88 L53.65,99.45 L63.13,99.45 C63.13,99.45 61.94,98.67 61.79,97.84 L53.65,97.88 Z" id="Path" fill="#D23431"></path>
            <path d="M77.3,97.88 L77.3,99.45 L67.81,99.45 C67.81,99.45 69.01,98.67 69.15,97.84 L77.3,97.88 Z" id="Path" fill="#D23431"></path>
            <polygon id="Path" fill="#2F4694" points="61.06 38.04 61.06 60.32 61.06 60.33 23.54 60.33 23.54 38.04"></polygon>
            <polygon id="Path" fill="#FCF5FA" points="61.06 58 61.06 60.32 61.06 60.33 57.16 60.33 45.64 53.48 44.48 52.8 43.13 51.99 42.67 51.72 41.29 50.9 40.77 50.59 40.34 50.34 39.47 49.82 39.19 49.65 38.76 49.4 34.67 46.97 32.83 45.87 23.54 40.36 23.54 38.04 23.57 37.99 23.65 38.04 27.45 38.04 39.19 45.01 40.34 45.69 40.65 45.87 42.49 46.97 42.67 47.08 43.38 47.5 44.48 48.16 44.67 48.27 45.64 48.84 46.58 49.4 49.11 50.9 50.95 51.99"></polygon>
            <polygon id="Path" fill="#E6302E" points="61.07 60.26 61.08 60.34 58.57 60.33 45.64 52.65 44.54 51.99 44.48 51.96 43.38 51.3 42.7 50.9 41.48 50.17 40.34 49.5 40.18 49.4 39.47 48.98 39.19 48.81 36.08 46.97 34.25 45.87 23.54 39.51 23.54 37.98 23.57 37.99 23.65 38.04 36.85 45.87 38.68 46.97 39.19 47.27 40.34 47.95 40.77 48.21 41.48 48.63 42.78 49.4 44.48 50.41 44.67 50.53 45.3 50.9 45.64 51.1 47.14 51.99"></polygon>
            <polygon id="Path" fill="#FCF5FA" points="61.06 38.48 61.06 40.8 52.51 45.87 50.67 46.97 46.58 49.4 45.64 49.95 44.67 50.53 44.48 50.64 44.05 50.9 43.38 51.3 42.67 51.72 42.21 51.99 40.34 53.11 39.19 53.79 28.18 60.33 23.54 60.33 23.54 58.44 34.4 51.99 36.23 50.9 38.76 49.4 39.19 49.15 39.47 48.98 40.34 48.46 40.77 48.21 42.67 47.08 42.86 46.97 44.48 46 44.69 45.87 45.64 45.31 57.9 38.04 60.77 38.04"></polygon>
            <polygon id="Path" fill="#E6302E" points="60.97 38.59 48.71 45.87 46.87 46.97 45.64 47.7 44.67 48.27 44.48 48.38 42.78 49.4 41.48 50.17 40.77 50.59 40.34 50.84 40.25 50.9 39.19 51.53 38.41 51.99 24.39 60.33 23.54 60.33 23.54 59.28 35.81 51.99 37.65 50.9 39.19 49.99 39.47 49.82 40.18 49.4 40.34 49.3 41.48 48.63 43.38 47.5 44.27 46.97 44.48 46.84 45.64 46.15 46.11 45.87 59.3 38.04 60.6 38.04 61.06 38.04 61.07 38.52"></polygon>
            <rect id="Rectangle" fill="#FFFFFF" x="23.51" y="45.87" width="37.57" height="6.12"></rect>
            <rect id="Rectangle" fill="#E6302E" x="23.51" y="46.97" width="37.57" height="3.93"></rect>
            <rect id="Rectangle" fill="#CD132D" x="40.34" y="38.04" width="4.15" height="22.29"></rect>
            <polygon id="Path" fill="#FFFFFF" points="44.48 51.99 45.63 51.99 45.63 60.33 39.18 60.33 39.18 51.99 40.33 51.99 40.33 45.87 39.18 45.87 39.18 38.04 45.63 38.04 45.63 45.87 44.48 45.87"></polygon>
            <rect id="Rectangle" fill="#E6302E" x="40.31" y="38.04" width="4.19" height="22.29"></rect>
            <path d="M81.54,99.16 C81.0865531,100.470557 81.6279424,101.918458 82.83,102.61 L83.72,103.02 C84.304689,103.240735 84.9571486,103.190915 85.5015458,102.883968 C86.045943,102.577021 86.4262585,102.044531 86.54,101.43 L99.47,58.91 L94.47,56.63 L81.54,99.16 Z" id="Path" fill="#63A343"></path>
            <polygon id="Path" fill="#CFCECD" points="99.45 58.9 100.22 46.89 94.44 56.64"></polygon>
            <polygon id="Path" fill="#61313F" points="100.02 49.96 100.22 46.89 98.74 49.38"></polygon>
        </g>
    </g>
</svg>