<svg xmlns="http://www.w3.org/2000/svg" width="13" height="13" viewBox="0 0 13 13">
    <defs>
        <filter id="81j0ic783a">
            <feColorMatrix in="SourceGraphic" values="0 0 0 0 0.772549 0 0 0 0 0.149020 0 0 0 0 0.133333 0 0 0 1.000000 0"/>
        </filter>
    </defs>
    <g fill="none" fill-rule="evenodd">
        <g>
            <g filter="url(#81j0ic783a)" transform="translate(-620 -609) translate(575 190)">
                <g>
                    <path fill="#FFF" d="M6.5 0C10.09 0 13 2.91 13 6.5S10.09 13 6.5 13 0 10.09 0 6.5 2.91 0 6.5 0zm0 9.1c-.359 0-.65.291-.65.65 0 .359.291.65.65.65.359 0 .65-.291.65-.65 0-.359-.291-.65-.65-.65zm0-6.5c-.359 0-.65.291-.65.65V7.8c0 .359.291.65.65.65.359 0 .65-.291.65-.65V3.25c0-.359-.291-.65-.65-.65z" transform="translate(45 419)"/>
                </g>
            </g>
        </g>
    </g>
</svg>
