<?xml version="1.0" encoding="UTF-8"?>
<svg width="133px" height="134px" viewBox="0 0 133 134" version="1.1" xmlns="http://www.w3.org/2000/svg" xmlns:xlink="http://www.w3.org/1999/xlink">
    <title>subjects/french</title>
    <g id="subjects/french" stroke="none" stroke-width="1" fill="none" fill-rule="evenodd">
        <g id="french" fill-rule="nonzero">
            <path d="M132.420052,67.21 C132.439949,83.1046801 126.723116,98.4726616 116.32,110.49 C112.28088,115.159162 107.612972,119.244844 102.45,122.63 C101.29,123.39 100.11,124.12 98.9,124.8 C91.1843743,129.201762 82.655484,131.991427 73.83,133 L73.72,133 L71.59,133.21 C70.2566667,133.323333 68.8866667,133.393333 67.48,133.42 L66.21,133.42 C64.03,133.42 61.87,133.31 59.74,133.11 C59.02,133.04 58.31,132.96 57.6,132.86 C48.0368803,131.6254 38.8629721,128.299986 30.73,123.12 C30.54,123 30.35,122.88 30.17,122.75 C28.65,121.77 27.18,120.73 25.76,119.63 C24.23,118.46 22.76,117.21 21.34,115.89 L20.46,115.07 C18.2269425,112.940526 16.1483528,110.654746 14.24,108.23 C-3.73525809,85.4580118 -4.79188009,53.6361241 11.6331972,29.7218984 C28.0582744,5.80767278 58.1388782,-4.6281434 85.8453597,3.97559058 C113.551841,12.5793246 132.430058,38.2183946 132.420052,67.23 L132.420052,67.21 Z" id="Path" fill="#ED968A"></path>
            <path d="M60.43,98.75 L59.69,98.84 C57.49,99.1 55.36,99.46 53.32,99.91 C44.3920503,101.898836 35.8894195,105.461069 28.21,110.43 C22.9433333,88.99 17.67,67.5466667 12.39,46.1 C20.529292,41.2612164 29.4492954,37.8773001 38.75,36.1 C40.24,35.82 41.75,35.58 43.34,35.39 C44.2266667,35.2833333 45.0866667,35.1933333 45.92,35.12 L60.43,98.75 Z" id="Path" fill="#15427C"></path>
            <path d="M123.9,85.4 C112.29,93 102.12,96.39 94,97.9 C93.9400955,97.9047864 93.8799045,97.9047864 93.82,97.9 L93.82,97.9 L92.58,98.11 L92.58,98.04 L76.44,34.49 L76.63,34.49 C77.44,34.35 78.27,34.2 79.13,34.03 L79.13,34.03 C87.22,32.41 97.13,28.96 108.46,21.83 C113.62,43.0033333 118.766667,64.1933333 123.9,85.4 Z" id="Path" fill="#E10D2E"></path>
            <path d="M93.81,97.93 L93.81,97.93 L92.55,98.07 C89.92,98.37 86.55,98.64 82.73,98.72 C79.1,98.8 77.01,98.66 73.29,98.6 L71.01,98.6 C68.08,98.6 64.2,98.6 59.62,98.86 L44.62,35.23 L45.98,35.1 C55.42,34.29 60.7,35.82 69.98,35.23 C71.98,35.1 74.14,34.87 76.5,34.5 L76.69,34.5 C77.5,34.36 78.33,34.21 79.19,34.04 L79.19,34.04 L93.81,97.93 Z" id="Path" fill="#FFFFFF"></path>
        </g>
    </g>
</svg>