<?xml version="1.0" encoding="UTF-8"?>
<svg width="133px" height="134px" viewBox="0 0 133 134" version="1.1" xmlns="http://www.w3.org/2000/svg" xmlns:xlink="http://www.w3.org/1999/xlink">
    <title>subjects/geography</title>
    <g id="subjects/geography" stroke="none" stroke-width="1" fill="none" fill-rule="evenodd">
        <g id="geography" fill-rule="nonzero">
            <circle id="Oval" fill="#F39E22" cx="67" cy="67" r="67"></circle>
            <g id="Group" transform="translate(19.000000, 16.000000)">
                <g transform="translate(70.384305, 59.662814)" id="Path">
                    <path d="M3.89337718,8.2833633 L1.1130663,5.47815508 C0.495306654,4.85486347 0.186999566,4.04017567 0.186999566,3.22416789 C0.167718735,0.419487659 3.60739188,-1.04013932 5.58233886,0.968860736 C5.58233886,0.968860736 8.36238809,3.77380496 8.36238809,3.77380496 C11.2078502,6.88313514 6.98165211,11.1545702 3.89337718,8.2833633 L3.89337718,8.2833633 Z" fill="#A26D5A"></path>
                    <path d="M6.3003111,7.45283581 L3.51869196,4.64630762 C2.24968125,3.37306093 2.29311543,1.26479885 3.61497978,0.0464630762 C4.33269037,0.106917874 5.032347,0.413943769 5.58233886,0.968860736 L8.36264974,3.77406896 C9.64369642,5.05866742 9.57697524,7.17907326 8.26897843,8.3739135 C7.54995958,8.31477867 6.8489947,8.0064328 6.3003111,7.45283581 L6.3003111,7.45283581 Z" fill="#C17E62"></path>
                    <path d="M6.78802985,6.14474182 C5.70479185,5.05180355 5.70479185,3.27802282 6.78802985,2.18508455 L8.36264974,3.77406896 C9.21040122,4.62941195 9.47571604,5.84959569 9.1612107,6.93329414 C8.32104712,7.05921964 7.43430953,6.79680886 6.78802985,6.14474182 L6.78802985,6.14474182 Z" fill="#EEA47D"></path>
                </g>
                <g id="Earth_1_" transform="translate(15.960753, 4.487911)">
                    <path d="M55.9628489,9.84964415 C61.8398076,15.7290713 65.3412305,23.9200364 65.5374693,32.2670224 C66.3229477,51.5565909 49.4165852,67.7766924 30.4601818,66.1647404 C15.3678505,65.3086054 2.13664772,52.7728147 0.36029438,37.6393156 C-2.36297643,17.8275655 13.2309411,-0.15390894 33.2690127,0.176348494 C41.714606,0.265578719 50.0084413,3.79070063 55.9628489,9.84964415 Z" id="Path" fill="#22A8B9"></path>
                    <path d="M55.9636339,9.85043614 C60.673626,14.5806941 63.8956049,20.7832508 65.0424243,27.3883994 C65.0903065,27.6439463 65.1599059,27.9045092 65.0774856,28.1592641 C64.9801512,28.7078452 64.8809852,29.2648741 64.7538225,29.8039514 C64.3600367,31.6181233 63.7925141,33.3900561 63.1035852,35.1091899 C58.1698809,47.3910177 45.9499619,55.674381 32.8071974,55.5888467 C19.8585785,55.6635572 7.80847145,47.6465646 2.73295193,35.6355954 L2.73478349,35.6337475 C2.48542943,35.0643108 2.26381044,34.4779785 2.05030266,33.8940221 C1.75751442,33.0859341 1.49769429,32.2654385 1.26770245,31.435439 C1.26953401,31.433591 1.26770245,31.431743 1.26953401,31.4298951 C0.945870868,30.2633023 0.681079355,29.0816618 0.492428485,27.8868215 C1.5544727,21.2824648 4.607163,14.9428949 9.65442414,9.85043614 C13.5491096,5.90978649 18.4443511,2.98129272 23.7509091,1.45962698 C35.0035017,-1.88360255 47.725007,1.39917218 55.9636339,9.85043614 L55.9636339,9.85043614 Z" id="Path" fill="#CDE6F6"></path>
                    <path d="M9.6557324,17.0683166 C5.52372888,21.2373217 2.7287655,26.2434542 1.2674408,31.5455248 C10.5053154,63.6129672 55.1255635,63.5952795 64.3524488,31.5455248 C57.9859398,7.50721873 27.0304514,-0.825775581 9.6557324,17.0683166 Z" id="Path" fill="#4FCAE8"></path>
                    <path d="M45.1956201,2.61882793 L45.1956201,9.72741459 L45.1956201,16.1079037 C45.1956201,19.863757 42.9459389,23.0895089 39.7302396,24.4894731 C40.2446468,24.7508279 40.7273942,25.0998289 41.1567646,25.5330443 L44.9219324,29.3319288 C44.9567321,29.3675681 44.9889153,29.4063753 45.0255465,29.4364707 C45.0255465,29.4364707 52.7314505,37.2113801 52.7314505,37.2113801 C54.4834702,38.979089 54.4834702,41.8463359 52.7314505,43.6143088 L49.7101584,46.6626562 C47.9581387,48.430365 45.1163397,48.430365 43.3640583,46.6626562 L39.5101905,42.7742775 L35.3177454,47.0042654 C33.1326921,49.2088856 29.5914981,49.2088856 27.4064449,47.0042654 L23.641277,43.2053809 C21.4562237,41.0007608 21.4562237,37.4278558 23.641277,35.2232356 L33.245464,25.5330443 C33.3509097,25.4266544 33.4600184,25.3276564 33.5691272,25.2323543 L27.5414571,25.2323543 C22.5496661,25.2323543 18.4998213,21.1459795 18.4979897,16.1079037 C18.4953732,13.0402847 18.4998213,6.588517 18.4979897,3.48895463 C26.7465593,-0.599268084 36.7010979,-0.91078189 45.1956201,2.61882793 L45.1956201,2.61882793 Z" id="Path" fill="#50755C"></path>
                    <path d="M10.4663293,39.5070785 L25.9927408,55.172527 C28.8531171,58.0585176 29.3952594,62.3948954 27.6228308,65.833427 C13.8876869,63.9556323 1.87499603,51.5156717 0.360817684,37.6403716 C3.73376965,36.11237 7.74044201,36.7683969 10.4663293,39.5070785 L10.4663293,39.5070785 Z" id="Path" fill="#50755C"></path>
                    <path d="M63.0201184,20.4495614 C65.1073139,25.4686296 65.9241905,31.0127834 65.4011488,36.4267877 C64.4667906,36.8019242 63.4306499,36.8468034 62.4724814,36.5593131 L62.4706498,36.561161 C61.7767495,36.3539252 61.1218353,35.9732447 60.5723668,35.4185918 L57.5510747,32.3702444 C55.7990549,30.6025355 55.7990549,27.7352885 57.5510747,25.9673157 L63.0201184,20.4495614 Z" id="Path" fill="#50755C"></path>
                    <path d="M3.28974673,36.8695069 C2.8993624,36.0537631 2.54587097,35.2229716 2.22953407,34.3810924 C2.54953409,35.2229716 2.90302553,36.0537631 3.29340985,36.8695069 C5.85968965,36.6472233 8.50158679,37.5247419 10.4663293,39.5070785 L25.6062812,54.7826067 C16.2872945,52.8139979 7.43640275,45.8329207 3.28974673,36.8695069 L3.28974673,36.8695069 Z" id="Path" fill="#528F66"></path>
                    <g id="Group" transform="translate(1.046607, 0.000000)" fill="#53B976">
                        <path d="M0.739166031,33.1310772 C0.640784994,32.8367231 0.54580543,32.541577 0.4560589,32.2453748 C0.54580543,32.541841 0.640784994,32.8369871 0.739166031,33.1310772 Z" id="Path"></path>
                        <path d="M0.455797248,32.2453748 C0.425184,32.1442649 0.396140662,32.0426269 0.366574021,31.9412529 C0.396140662,32.0426269 0.425184,32.1442649 0.455797248,32.2453748 Z" id="Path"></path>
                        <path d="M0.83179073,33.4040478 C0.800654178,33.3132336 0.769779279,33.2224194 0.739166031,33.1313412 C0.769517627,33.2221554 0.800392527,33.3132336 0.83179073,33.4040478 Z" id="Path"></path>
                        <path d="M0.220834028,31.435439 C0.221357332,31.433327 0.222142287,31.431215 0.22266559,31.4291031 C0.269762895,31.5999077 0.316598548,31.7709763 0.366574021,31.9412529 C0.317383503,31.7728242 0.26740803,31.6043956 0.220834028,31.435439 L0.220834028,31.435439 Z" id="Path"></path>
                        <path d="M1.1829273,34.3810924 C1.05995101,34.0571708 0.944039306,33.7311373 0.83179073,33.4040478 C0.944300958,33.7308733 1.05995101,34.0571708 1.1829273,34.3810924 Z" id="Path"></path>
                        <path d="M60.8633235,37.7132341 C61.057469,37.3344017 61.24455,36.9479133 61.424043,36.561425 C61.2463815,36.9497613 61.0595622,37.3322897 60.8633235,37.7132341 Z" id="Path"></path>
                        <path d="M61.9735116,20.4495614 C62.9588919,22.8263061 63.6669213,25.3197366 64.0771912,27.86227 C63.8893253,29.0658221 63.6255804,30.2530065 63.3019172,31.4296311 C63.3037488,31.431479 63.3019172,31.433327 63.3037488,31.435175 C62.9575836,32.6965419 62.5282132,33.9370532 62.0402328,35.1479971 C62.0334298,35.1588209 62.0268885,35.1720207 62.0234871,35.1833724 C61.8358828,35.6469472 61.6359809,36.108674 61.424043,36.560897 C60.7301427,36.3536612 60.0752286,35.9729807 59.52576,35.4183278 L56.5044679,32.3699804 C54.7524482,30.6022715 54.7524482,27.7350245 56.5044679,25.9670517 L61.9735116,20.4495614 Z" id="Path"></path>
                        <path d="M44.1490133,2.61882793 L44.1490133,9.72741459 L44.1490133,16.1079037 C44.1490133,19.863757 41.8993321,23.0895089 38.6836328,24.4894731 C39.19804,24.7508279 39.6807874,25.0998289 40.1101578,25.5330443 L43.8753257,29.3319288 C43.9101254,29.3675681 43.9423085,29.4063753 43.9789397,29.4364707 C43.9789397,29.4364707 51.6848437,37.2113801 51.6848437,37.2113801 C53.4368635,38.979089 53.4368635,41.8463359 51.6848437,43.6143088 L48.6635516,46.6626562 C46.9115319,48.430365 44.0697329,48.430365 42.3174515,46.6626562 L38.4635837,42.7742775 L34.2711387,47.0042654 C32.0860854,49.2088856 28.5448914,49.2088856 26.3598381,47.0042654 L22.5946702,43.2053809 C20.409617,41.0007608 20.409617,37.4278558 22.5946702,35.2232356 L32.1988573,25.5330443 C32.3043029,25.4266544 32.4134116,25.3276564 32.5225204,25.2323543 L26.4948504,25.2323543 C21.5030594,25.2323543 17.4532145,21.1459795 17.4513829,16.1079037 C17.4487664,13.0402847 17.4532145,6.588517 17.4513829,3.48895463 C25.6999525,-0.599268084 35.6544912,-0.91078189 44.1490133,2.61882793 L44.1490133,2.61882793 Z" id="Path"></path>
                    </g>
                    <path d="M45.1956201,16.1076397 C45.1956201,19.863493 42.9459389,23.0892449 39.7302396,24.4892091 C40.2446468,24.7505639 40.7273942,25.0995649 41.1567646,25.5327803 L44.9219324,29.3316648 C44.9567321,29.3673041 44.9889153,29.4061113 45.0255465,29.4362067 C45.0255465,29.4362067 52.7314505,37.2111161 52.7314505,37.2111161 C54.4834702,38.978825 54.4834702,41.846072 52.7314505,43.6140448 L49.7101584,46.6623922 C47.9581387,48.430101 45.1163397,48.430101 43.3640583,46.6623922 L39.5101905,42.7740135 L35.3177454,47.0040014 C33.1326921,49.2086216 29.5914981,49.2086216 27.4064449,47.0040014 L23.641277,43.2051169 C21.4562237,41.0004968 21.4562237,37.4275918 23.641277,35.2229716 L33.245464,25.5327803 C33.3509097,25.4263904 33.4600184,25.3273924 33.5691272,25.2320903 L27.5414571,25.2320903 C22.5496661,25.2320903 18.4998213,21.1457155 18.4979897,16.1076397 L18.4979897,10.5970133 C26.873722,6.48846299 36.6257422,6.19912474 45.1958818,9.72715059 L45.1956201,16.1076397 Z" id="Path" fill="#528F66"></path>
                    <path d="M60.6223422,22.8688093 C62.2856621,25.5663077 63.5308625,28.4541462 64.3503556,31.435175 C63.8678698,33.1841402 63.2422606,34.904594 62.4706498,36.561161 C61.7767495,36.3539252 61.1218353,35.9732447 60.5723668,35.4185918 L57.5510747,32.3702444 C55.7990549,30.6025355 55.7990549,27.7352885 57.5510747,25.9673157 L60.6223422,22.8688093 Z" id="Path" fill="#528F66"></path>
                </g>
                <g transform="translate(17.792315, 6.335874)" id="Path">
                    <path d="M1.00003277,5.62810409 L3.78034365,8.43331232 C4.3981033,9.05660392 5.20556042,9.36767186 6.0143258,9.36767186 C8.79411338,9.38712535 10.2407856,5.91665036 8.24961621,3.92401798 C8.24961621,3.92401798 5.46956698,1.11907375 5.46956698,1.11907375 C2.38783334,-1.75186917 -1.84569104,2.51217405 1.00003277,5.62810409 L1.00003277,5.62810409 Z" fill="#A26D5A"></path>
                    <path d="M1.82318899,3.19961638 L4.60480813,6.00614458 C5.86675424,7.28651912 7.95630466,7.24269599 9.16382722,5.90899451 C9.10390898,5.18485691 8.79960806,4.47893494 8.24961621,3.92401798 L5.46930532,1.11880975 C4.19610819,-0.173708546 2.0945218,-0.106389885 0.910286238,1.21331987 C0.968896217,1.93877745 1.27450539,2.64601939 1.82318899,3.19961638 Z" fill="#C17E62"></path>
                    <path d="M3.11967313,2.70753016 C4.20291113,3.80046843 5.96094885,3.80046843 7.04418686,2.70753016 L5.46956698,1.11854576 C4.62181549,0.263202767 3.41246137,-0.00448791076 2.33838117,0.31283378 C2.21331167,1.16078492 2.47339345,2.05546313 3.11967313,2.70753016 L3.11967313,2.70753016 Z" fill="#EEA47D"></path>
                </g>
                <g id="Path">
                    <path d="M14.7275888,72.0470715 C34.1541804,91.6476257 65.7640596,91.6457778 85.1909128,72.0452235 C86.7540201,70.4847505 85.7623601,67.7352452 83.5848948,67.5501849 C82.8355243,67.4810182 82.0641751,67.7331332 81.4906346,68.3118097 C64.0191045,86.0588569 35.3407708,85.5881542 18.4281287,68.3136577 C0.831267426,50.7345112 1.33259207,21.674497 18.4281287,4.68458685 C19.0014075,4.10591036 19.2512849,3.32738984 19.1827322,2.57157287 C19.0121353,0.401536016 16.2752586,-0.643883197 14.7275888,0.951173087 C-4.69900274,20.5517274 -4.7008343,52.4446692 14.7275888,72.0470715 Z" fill="#A26D5A"></path>
                    <path d="M17.088472,69.6653108 C34.557124,87.5955703 64.6941659,88.1940464 82.8300296,69.6631989 C83.4035701,69.0847864 83.6534475,68.3062658 83.5848948,67.5501849 C82.8355243,67.4810182 82.0641751,67.7331332 81.4906346,68.3118097 C64.0191045,86.0588569 35.3407708,85.5878902 18.4281287,68.3136577 C4.13932977,53.8971683 1.59345881,32.0526587 10.7886842,14.986982 C12.7832551,11.2870956 15.3288644,7.81134068 18.427867,4.68458685 C19.0014075,4.10591036 19.2512849,3.32738984 19.1827322,2.57157287 C18.4333617,2.50240624 17.6620125,2.75452123 17.088472,3.33319772 C13.203206,7.25325578 10.1505158,11.6997194 7.93197105,16.4505689 C-0.394832404,34.0122917 3.22825858,55.876073 17.088472,69.6653108 Z" fill="#C17E62"></path>
                </g>
                <g transform="translate(25.641866, 97.678058)" id="Path">
                    <path d="M46.2156341,4.78992076 C46.2320225,7.36175762 44.1173535,9.57852155 41.4822593,9.56564213 L4.77514338,9.56564213 C3.46950144,9.56564213 2.28421927,9.03231641 1.42861824,8.16641362 C-1.52516771,5.22366414 0.56281279,0.00184796326 4.77514338,0.0142336445 L41.4822593,0.0142336445 C44.097468,0.0129357428 46.2137069,2.15340518 46.2156341,4.78992076 L46.2156341,4.78992076 Z" fill="#A26D5A"></path>
                    <path d="M46.2155384,4.78992076 C46.2155384,5.30999042 46.1318099,5.8089405 45.9800519,6.27885115 L12.5906794,6.27885115 C9.4152745,6.3218823 7.06695056,3.03567564 8.09288684,0.0142551064 L41.4822593,0.0142551064 C44.097468,0.0129357428 46.2137069,2.15340518 46.2155384,4.78992076 L46.2155384,4.78992076 Z" fill="#C17E62"></path>
                    <path d="M39.461,3.97417698 L32.9330519,3.97417698 C31.8492906,3.97417698 30.9706642,3.08768261 30.9706642,1.99421635 C30.9706642,0.90075009 31.8492906,0.0142557165 32.9330519,0.0142557165 L39.461,0.0142557165 C42.0571081,0.103749937 42.0597246,3.88336279 39.461,3.97417698 Z" fill="#EEA47D"></path>
                </g>
                <g transform="translate(43.957484, 84.214326)" id="Path">
                    <path d="M9.37244513,0.0509509869 L9.37244513,12.5669421 C9.38727776,15.0477008 7.35372081,17.1791944 4.81439114,17.1684117 C2.29468534,17.1684117 0.253802142,15.1065716 0.253802142,12.5669421 L0.253802142,0.0509509869 L9.37244513,0.0509509869 Z" fill="#A26D5A"></path>
                    <path d="M9.37236408,6.04099188 L9.37236408,12.5669421 C9.37262527,13.1450906 9.26168495,13.7221832 9.0609981,14.2380289 C6.26812794,14.8758402 3.49462,12.6405967 3.52968133,9.73955834 L3.52968133,6.04099188 L9.37236408,6.04099188 Z" fill="#C17E62"></path>
                    <path d="M9.37236362,7.66191965 L9.37236362,12.5669421 C9.37236362,12.6171011 9.37236362,12.6699001 9.3697471,12.7200591 C7.67450579,13.3966776 5.71604287,12.0415926 5.75372071,10.1909894 C5.71604287,8.33906619 7.67633735,6.98530111 9.37236362,7.66191965 Z" fill="#EEA47D"></path>
                </g>
                <g transform="translate(15.960753, 4.487911)" fill="#CDE6F6">
                    <path d="M43.5409348,21.4495735 C35.6387921,13.0938756 17.4521679,2.16026905 9.64421973,9.91537885 C1.72376135,18.1900303 13.4321513,37.1052542 22.0035991,45.0467443 C29.9635668,53.4644809 48.139725,64.3170412 55.8984826,56.5830509 C63.7982705,48.3255591 52.1814586,29.4689421 43.5409348,21.4495735 Z M51.598237,33.4806063 C55.5991531,39.5479976 59.9028001,50.9021479 54.9727589,55.6498295 C52.3457759,58.3006008 47.6001992,58.6086827 41.6091604,56.5178442 C34.6293398,54.013326 28.4737221,49.5512867 22.9280145,44.1135229 C17.1402791,38.3286059 12.3360923,31.7762562 9.7104176,24.3337162 C7.63839785,18.2892923 7.94165216,13.4991076 10.5688968,10.8483363 C14.8380058,6.26723539 25.0730351,9.63184849 31.0057255,13.3164232 C38.8921692,17.9241876 46.7270675,25.6816734 51.598237,33.4806063 Z" id="Shape"></path>
                    <path d="M52.7989566,32.9449609 C40.5196427,38.0677791 28.8866085,52.4528531 30.4601818,66.1652684 C30.9042047,66.1950998 31.3445645,66.2175394 31.7867558,66.2304751 C29.6563878,49.539143 48.9845983,30.0436586 65.5372076,32.2672864 C65.5259566,31.8192873 65.5058094,31.3731362 65.4744112,30.9269851 C61.5946399,30.3873798 57.1949667,31.0930378 52.7989566,32.9449609 Z" id="Path"></path>
                    <path d="M34.4545565,0.215683711 C34.1112695,0.195356116 33.7742621,0.183740347 33.4314984,0.180308415 C35.2662,16.7082278 16.4550133,35.706082 0.071430912,33.9251734 C0.0826819348,34.3694766 0.0991659914,34.8119318 0.128732633,35.256235 C17.3294532,36.8747868 36.4232238,17.5899703 34.7525778,0.232315381 C34.6526268,0.224923528 34.5526759,0.221227601 34.4545565,0.215683711 L34.4545565,0.215683711 Z" id="Path"></path>
                    <path d="M55.9628489,9.84964415 C56.11827,10.006457 56.270028,10.1632699 56.4199544,10.3219308 L10.123304,57.033162 C9.80932194,56.731152 9.49847973,56.4175262 9.19810359,56.0996765 L55.4944924,9.38870932 C55.6520067,9.53997831 55.8074278,9.69283127 55.9628489,9.84964415 Z" id="Path"></path>
                </g>
            </g>
        </g>
    </g>
</svg>