<?xml version="1.0" encoding="UTF-8"?>
<svg width="133px" height="134px" viewBox="0 0 133 134" version="1.1" xmlns="http://www.w3.org/2000/svg" xmlns:xlink="http://www.w3.org/1999/xlink">
    <title>subjects/german</title>
    <g id="subjects/german" stroke="none" stroke-width="1" fill="none" fill-rule="evenodd">
        <g id="german" fill-rule="nonzero">
            <path d="M132.420052,67.21 C132.439949,83.1046801 126.723116,98.4726616 116.32,110.49 C112.28088,115.159162 107.612972,119.244844 102.45,122.63 C101.29,123.39 100.11,124.12 98.9,124.8 C91.1843743,129.201762 82.655484,131.991427 73.83,133 L73.72,133 L71.59,133.21 C70.2566667,133.323333 68.8866667,133.393333 67.48,133.42 L66.21,133.42 C64.03,133.42 61.87,133.31 59.74,133.11 C59.02,133.04 58.31,132.96 57.6,132.86 C48.0368803,131.6254 38.8629721,128.299986 30.73,123.12 C30.54,123 30.35,122.88 30.17,122.75 C28.65,121.77 27.18,120.73 25.76,119.63 C24.23,118.46 22.76,117.21 21.34,115.89 L20.46,115.07 C18.2269425,112.940526 16.1483528,110.654746 14.24,108.23 C-3.73525809,85.4580118 -4.79188009,53.6361241 11.6331972,29.7218984 C28.0582744,5.80767278 58.1388782,-4.6281434 85.8453597,3.97559058 C113.551841,12.5793246 132.430058,38.2183946 132.420052,67.23 L132.420052,67.21 Z" id="Path" fill="#9C64A6"></path>
            <path d="M118.21,37 L119.29,97.24 L119.29,97.24 C85.35,79.8 52.41,116.52 18.49,99.11 L17.41,38.86 C21.5932255,41.0197854 26.103572,42.4759347 30.76,43.17 C36.3195115,43.9207147 41.9609774,43.8195528 47.49,42.87 C71,39.2 94.38,24.73 118.21,37 Z" id="Path" fill="#2F4694"></path>
            <path d="M118.93,77.13 L119.29,97.23 L119.29,97.23 C85.35,79.8 52.41,116.52 18.49,99.11 L18.13,79 C22.3126627,81.161137 26.8232381,82.6173602 31.48,83.31 C37.0096406,84.4229104 42.7154138,84.3171215 48.2,83 C71.74,79.34 95.09,64.87 118.93,77.13 Z" id="Path" fill="#FECA0D"></path>
            <path d="M118.57,57.06 L119,81.3 C102,73 89,73.3 80,75.16 C68.07,77.69 61.84,83.45 46.79,85.91 C37.3025491,87.4327481 27.6112197,87.1238476 18.24,85 L17.77,58.9 C21.9532255,61.0597854 26.463572,62.5159347 31.12,63.21 C36.6526924,64.3215831 42.3607172,64.2192276 47.85,62.91 C71.39,59.27 94.73,44.8 118.57,57.06 Z" id="Path" fill="#E42021"></path>
            <path d="M118.21,37 L118.64,61.24 C101.64,52.94 88.64,53.24 79.64,55.1 C67.71,57.63 61.48,63.39 46.44,65.84 C36.9536361,67.3852857 27.2591451,67.1001536 17.88,65 L17.41,38.9 C21.5932255,41.0597854 26.103572,42.5159347 30.76,43.21 C36.2926924,44.3215831 42.0007172,44.2192276 47.49,42.91 C71,39.2 94.38,24.73 118.21,37 Z" id="Path" fill="#020304"></path>
        </g>
    </g>
</svg>