<?xml version="1.0" encoding="UTF-8"?>
<svg width="133px" height="133px" viewBox="0 0 133 133" version="1.1" xmlns="http://www.w3.org/2000/svg" xmlns:xlink="http://www.w3.org/1999/xlink">
    <title>subjects/IT</title>
    <g id="subjects/IT" stroke="none" stroke-width="1" fill="none" fill-rule="evenodd">
        <g id="IT">
            <circle id="Oval" fill="#57409B" fill-rule="nonzero" cx="66.5" cy="66.5" r="66.5"></circle>
            <path d="M106,64.9998707 C106,42.3562256 87.5951265,24 64.891471,24 C10.3616904,26.1594799 10.3772431,103.848534 64.8917302,106 C87.5951265,106 106,87.6435158 106,64.9998707 Z" id="Path" fill="#6052A3" fill-rule="nonzero"></path>
            <g id="Group" transform="translate(17.000000, 19.000000)">
                <g transform="translate(15.450526, 0.000000)" fill-rule="nonzero" id="Path">
                    <path d="M68.6546696,17.4803471 C68.5954426,19.2045752 66.1303112,19.1698627 66.0855046,17.4803471 C66.0855046,9.71406711 61.7900009,5.1605091 56.695705,3.42384663 C51.2079357,1.52890541 44.8062678,2.98786768 40.7600325,7.06788466 C37.425294,10.373346 35.6605864,15.1595298 35.6605864,20.9098928 L35.6605864,75.4562227 C35.6605864,81.9119753 33.6311599,87.336714 29.7929917,91.1408442 C23.5100353,97.6121397 11.9733851,98.2082107 5.3435644,91.9084055 C1.91123006,88.714335 0.0975958223,84.2123277 0.0975958223,78.8857684 C0.155792803,77.1630946 2.62169675,77.1949575 2.66676078,78.8857684 C2.77388443,88.592064 9.10216235,93.5601 17.0146342,93.7616398 C26.8463189,93.7082758 33.2812054,85.5795867 33.091679,75.4562227 C33.0919365,75.4562227 33.0919365,20.9098928 33.0919365,20.9098928 C32.855801,-5.70891519 68.2735566,-6.93499268 68.6546696,17.4803471 L68.6546696,17.4803471 Z" fill="#C1B7D3"></path>
                    <path d="M35.6605864,53.7989744 L35.6605864,75.4562227 C35.6605864,81.9119753 33.6311599,87.336714 29.7929917,91.1408442 C25.2971462,95.6692745 18.3971988,97.3911711 12.295271,95.7280785 C11.6659196,94.6530264 11.1084131,93.5313456 10.6279018,92.3710664 C16.3734374,95.0415995 23.5283184,93.7857314 27.9919754,89.2982308 C31.3267139,85.9927694 33.0914215,81.2065857 33.0914215,75.4562227 L33.0914215,53.966838 C33.9368228,53.8686585 34.7922669,53.8119269 35.6605864,53.7989744 L35.6605864,53.7989744 Z" fill="#EBD9EA"></path>
                    <path d="M56.6959625,3.42384663 C51.2017555,1.53849021 44.8510743,2.96222186 40.76029,7.06788466 C37.4255515,10.373346 35.6608439,15.1595298 35.6608439,20.9098928 L35.6608439,40.8641549 C34.8182753,41.013885 33.9602561,41.1226855 33.091679,41.1923696 L33.091679,20.9098928 C33.091679,14.4541402 35.1211056,9.0294014 38.9592737,5.22527128 C43.1628468,1.00225941 49.4561036,-0.809268131 55.3085053,0.369403443 C55.8327931,1.35378849 56.2950214,2.37210892 56.6959625,3.42384663 L56.6959625,3.42384663 Z" fill="#EBD9EA"></path>
                    <g transform="translate(19.570666, 2.072390)" fill="#FFFFFF">
                        <path d="M25.5747406,1.95607671 C19.1936734,4.98927791 16.1270015,11.091429 16.0899202,18.8372441 L16.0899202,23.5874201 C15.2087252,23.5718772 14.3481309,23.4659263 13.5207553,23.2799293 L13.5207553,18.8372441 C13.557064,10.4987256 16.8075972,3.83236643 23.4448856,0.136518664 C24.221017,0.663941812 24.9350888,1.27374245 25.5747406,1.95607671 L25.5747406,1.95607671 Z"></path>
                        <path d="M16.0899202,71.48941 C16.5905173,81.5158898 12.3441977,90.3753553 3.11122091,93.3922364 C2.02710901,92.8907181 1.0251424,92.2420602 0.128496874,91.4667274 C8.69993366,89.9450754 13.5998105,82.5365417 13.5207553,73.3835741 L13.5207553,69.9825237 C14.4380015,70.383272 15.3011709,70.8925618 16.0899202,71.48941 Z"></path>
                    </g>
                </g>
                <g transform="translate(64.634700, 17.615311)" fill-rule="nonzero" id="Path">
                    <path d="M36.1861618,9.99228541 L36.1861618,36.5056605 C36.1861618,39.2272262 35.590029,41.806315 34.5213677,44.1219513 C31.6619903,50.3194323 25.4243555,54.6144597 18.1873291,54.6144597 C8.24671823,54.616014 0.186178838,46.5083079 0.186178838,36.5056605 L0.186178838,9.99228541 C0.186178838,6.96322899 1.53500975,4.24969388 3.66460725,2.43013583 C5.38322075,0.957184937 7.61324667,0.0678707587 10.0513397,0.0678707587 L26.321001,0.0678707587 C31.7698865,0.0678707587 36.1861618,4.51314641 36.1861618,9.99228541 L36.1861618,9.99228541 Z" fill="#C2AACF"></path>
                    <path d="M36.1861618,9.99228541 L36.1861618,36.5056605 C36.1861618,39.2272262 35.590029,41.806315 34.5213677,44.1219513 C34.3313262,44.3286722 34.1387096,44.5328025 33.9406854,44.7317519 C22.8338173,56.0387095 3.16143512,48.0281466 3.20975758,31.9259386 L3.20975758,5.41541302 C3.20975758,4.37636869 3.36924469,3.37359119 3.66460725,2.43039488 C5.38322075,0.957443986 7.61324667,0.0681298074 10.0513397,0.0681298074 L26.321001,0.0681298074 C31.7698865,0.0681298074 36.1861618,4.51314641 36.1861618,9.99228541 L36.1861618,9.99228541 Z" fill="#EBD9EA"></path>
                    <g fill="#C2AACF">
                        <polygon points="16.6360963 0.0691660022 19.7362443 0.0691660022 19.7362443 25.6737983 16.6360963 25.6737983"></polygon>
                        <polygon transform="translate(18.186299, 25.673928) rotate(-90.000000) translate(-18.186299, -25.673928) " points="16.6269555 7.67329256 19.7456427 7.67329256 19.7456427 43.6745631 16.6269555 43.6745631"></polygon>
                    </g>
                    <g transform="translate(13.132947, 3.626682)">
                        <path d="M9.9408684,5.03435239 C9.90919482,5.68378747 10.031769,11.8698704 9.84327258,12.3431523 C9.40164505,14.5839236 7.42011509,16.2892411 5.05463957,16.2869969 C2.33972465,16.3032298 0.151157646,14.0251555 0.165762245,11.3714607 L0.165762245,5.03435239 C0.163260558,4.28855119 0.337851501,3.53886426 0.654072266,2.89461015 C2.96933358,-1.75997685 9.85434546,-0.20283513 9.9408684,5.03435239 Z" fill="#57409B"></path>
                        <path d="M9.9408684,5.03435239 C9.88936665,5.94179997 10.0801806,11.830495 9.79177083,12.5757781 C7.64929789,14.7706977 3.83919819,13.8479662 2.9170593,10.9191616 C2.78341225,10.5109009 2.71156495,10.0738857 2.71156495,9.62184577 L2.71156495,4.24114527 C2.71053727,3.26841742 3.04684372,2.33299257 3.65173181,1.59729427 C4.20923829,0.909779025 4.98253711,0.403338822 5.86888228,0.186256013 C6.0692241,0.219932344 6.26441575,0.266302061 6.45471473,0.323292774 C8.48439882,0.906411392 9.96867935,2.91067116 9.9408684,5.03435239 L9.9408684,5.03435239 Z" fill="#6052A3"></path>
                        <polygon fill="#57409B" points="0.165578137 7.81109537 9.9408684 7.81109537 9.9408684 9.1091884 0.165578137 9.1091884"></polygon>
                        <path d="M9.9408684,5.03435239 L9.9408684,6.00086308 L0.165578137,6.00086308 C0.168668242,5.75295347 0.156822838,4.93695008 0.175878487,4.7035472 L9.92799296,4.7035472 C9.93829331,4.81234765 9.9408684,4.92347954 9.9408684,5.03435239 L9.9408684,5.03435239 Z" fill="#57409B"></path>
                        <path d="M9.45520687,2.89461015 L0.653814757,2.89461015 C0.882482541,2.41407481 1.19072053,1.97446917 1.55818554,1.59729427 L8.54594342,1.59729427 C8.9185586,1.97343298 9.22293396,2.41381576 9.45520687,2.89461015 Z" fill="#57409B"></path>
                        <path d="M9.9408684,10.9191616 C9.94267096,11.3383024 9.94807865,11.8056263 9.86644837,12.2164775 L0.240255679,12.2164775 C0.16068547,11.814952 0.162230523,11.3346758 0.165835645,10.9191616 L9.9408684,10.9191616 Z" fill="#57409B"></path>
                        <path d="M8.56628661,4.46340906 L8.56628661,9.91923367 C8.56628661,10.2886371 8.45066517,10.6352443 8.25547353,10.9194207 C7.30346362,12.3371942 5.04794434,11.6408713 5.05180202,9.91923367 L5.05180202,4.46340906 C5.12828707,2.127826 8.49418415,2.13248888 8.56628661,4.46340906 L8.56628661,4.46340906 Z" fill="#9175A7"></path>
                    </g>
                    <g transform="translate(18.025614, 6.217169)" fill="#6C53A2">
                        <polygon points="0.159140417 5.2195722 3.67362006 5.2195722 3.67362006 6.51947857 0.159140417 6.51947857"></polygon>
                        <polygon points="0.159140417 2.11331927 3.67362006 2.11331927 3.67362006 3.41063515 0.159140417 3.41063515"></polygon>
                        <path d="M2.72058011,0.304123171 L1.11243787,0.304123171 C1.58754154,0.0442973273 2.24547644,0.0442973273 2.72058011,0.304123171 Z"></path>
                        <path d="M3.36280697,8.32867467 C2.73062295,9.33663315 1.10342506,9.3363741 0.469953498,8.32867467 L3.36280697,8.32867467 Z"></path>
                    </g>
                    <path d="M29.3243257,19.6281198 C27.5508629,19.6281198 26.1129339,18.1818509 26.1129339,16.3975235 L26.1129339,9.48144137 C26.2844348,5.19677592 32.3631867,5.19444448 32.5354601,9.48144137 L32.5354601,16.3975235 C32.5357176,18.1815919 31.0980461,19.6281198 29.3243257,19.6281198 L29.3243257,19.6281198 Z" fill="#FFFFFF"></path>
                    <path d="M8.28457202,19.6281198 C6.51110915,19.6281198 5.0731802,18.1818509 5.0731802,16.3975235 L5.0731802,9.48144137 C5.24468104,5.19677592 11.323433,5.19444448 11.4957063,9.48144137 L11.4957063,16.3975235 C11.4959638,18.1815919 10.0582924,19.6281198 8.28457202,19.6281198 L8.28457202,19.6281198 Z" fill="#FFFFFF"></path>
                    <path d="M19.1380515,46.8360045 C14.880144,46.6660686 14.877569,40.545525 19.1380515,40.3750709 C23.661708,40.3750709 26.1131914,38.9728403 26.1131914,31.5762229 C26.1131914,29.7921545 27.5508629,28.3456266 29.3245832,28.3456266 C31.0980461,28.3456266 32.5359751,29.7921545 32.5359751,31.5762229 C32.6353735,40.886174 28.6784938,46.7888576 19.1380515,46.8360045 Z" fill="#FFFFFF"></path>
                </g>
                <g id="Lightbulb_5_" transform="translate(0.000000, 17.615311)">
                    <g id="Group">
                        <path d="M33.1475584,16.7345459 C33.1869572,21.6634654 30.2325592,25.2025887 28.1096569,29.2274283 C27.1071753,31.1436116 24.4478822,39.2544263 24.3953505,39.5725381 L8.87812972,39.5725381 C8.87812972,39.5725381 6.13540386,30.6273275 4.52005137,27.9928022 C2.38556121,24.5306164 0.12720933,21.0842325 0.122038733,16.7348049 C0.107896173,7.64297277 7.46234653,0.121493839 16.6348088,0.12330718 C25.571908,0.0544002265 33.2155407,7.5675896 33.1475584,16.7345459 Z" id="Path" fill="#DAAB42" fill-rule="nonzero"></path>
                        <path d="M6.56312592,16.7345459 C6.56312592,20.3182255 5.43549503,23.6405251 3.51241957,26.3556145 C1.74127428,23.4395033 0.121801646,20.3949039 0.121801646,16.7345459 C0.121801646,13.0462105 1.31715734,9.6353163 3.34426634,6.8803334 C5.36777023,9.6353163 6.56312592,13.0462105 6.56312592,16.7345459 L6.56312592,16.7345459 Z" id="Path" fill="#C4983D" fill-rule="nonzero"></path>
                        <path d="M33.1475584,16.7345459 C33.1869572,21.6632064 30.2325592,25.2028478 28.1096569,29.2274283 C27.5900042,30.3415968 27.0221974,31.8096258 26.4865791,33.28983 C6.32518782,34.3674726 1.73560908,6.32596919 20.8852485,0.68207522 C28.0277691,2.60084892 33.1413782,9.0879464 33.1475584,16.7345459 L33.1475584,16.7345459 Z" id="Path" fill="#F9C744" fill-rule="nonzero"></path>
                        <path d="M33.1475584,16.7345459 C33.1872147,21.6629473 30.2325592,25.2031068 28.1096569,29.2274283 C20.7436186,22.847318 20.6346924,11.0199316 27.8178995,4.51133307 C31.0962436,7.5479019 33.1475584,11.89992 33.1475584,16.7345459 Z" id="Path" fill="#F8D07A" fill-rule="nonzero"></path>
                        <path d="M30.5431147,13.150089 C30.5431147,9.38559336 27.5096615,6.3339997 23.7675441,6.3339997 C14.7799731,6.6930412 14.7825482,19.6084321 23.7675441,19.9661784 C27.5096615,19.9661784 30.5431147,16.9145847 30.5431147,13.150089 L30.5431147,13.150089 Z" id="Path" fill="#FBD9A3" fill-rule="nonzero"></path>
                        <path d="M33.1475584,16.7345459 C33.1869572,21.6634654 30.2325592,25.2025887 28.1096569,29.2274283 C27.1071753,31.1436116 24.4478822,39.2544263 24.3953505,39.5725381 L8.87812972,39.5725381 C8.87812972,39.5725381 6.13540386,30.6273275 4.52005137,27.9928022 C2.38556121,24.5306164 0.12720933,21.0842325 0.122038733,16.7348049 C0.107896173,7.64297277 7.46234653,0.121493839 16.6348088,0.12330718 C25.571908,0.0544002265 33.2155407,7.5675896 33.1475584,16.7345459 Z" id="Path"></path>
                    </g>
                    <g id="Group" transform="translate(10.557859, 53.364032)">
                        <path d="M11.926261,0.0645031257 L11.926261,2.42547295 C11.926261,4.87503744 10.4347702,6.97851286 8.31985072,7.86342321 C4.57206814,9.49206237 0.165320628,6.55807682 0.231500381,2.42547295 L0.231500381,0.0645031257 L11.926261,0.0645031257 Z" id="Path" fill="#2E3140" fill-rule="nonzero"></path>
                        <path d="M11.926261,0.0645031257 L11.926261,2.42547295 C11.926261,4.87503744 10.4347702,6.97851286 8.31985072,7.86342321 C6.20081108,6.97851286 4.70932031,4.87892317 4.70932031,2.42547295 L4.70932031,0.0645031257 L11.926261,0.0645031257 Z" id="Path" fill="#3E4E60" fill-rule="nonzero"></path>
                        <path d="M11.926261,0.0645031257 L11.926261,2.42547295 C11.926261,4.87503744 10.4347702,6.97851286 8.31985072,7.86342321 C4.57206814,9.49206237 0.165320628,6.55807682 0.231500381,2.42547295 L0.231500381,0.0645031257 L11.926261,0.0645031257 Z" id="Path"></path>
                    </g>
                    <g id="Group" transform="translate(13.905473, 27.977259)" fill-rule="nonzero">
                        <polygon id="Path" fill="#BF5E39" points="0.139312242 0.0857451189 5.32270619 0.0857451189 5.32270619 11.5952787 0.139312242 11.5952787"></polygon>
                        <polygon id="Path" fill="#DD5E26" points="2.73088046 0.0857451189 5.32270619 0.0857451189 5.32270619 11.5952787 2.73088046 11.5952787"></polygon>
                    </g>
                    <g id="Group" transform="translate(8.755298, 21.501042)">
                        <path d="M15.5402418,3.31400999 C15.554302,5.06517918 14.1027251,6.57310165 12.309434,6.56407562 L3.45345006,6.56407562 C2.56195471,6.56407562 1.75414971,6.19799913 1.17037734,5.61073574 C-0.847976366,3.60673501 0.580424758,0.0567316647 3.45345006,0.064232173 L12.309434,0.064232173 C14.0916522,0.0660574178 15.5414266,1.52061585 15.5402418,3.31400999 L15.5402418,3.31400999 Z" id="Path" fill="#BF5E39" fill-rule="nonzero"></path>
                        <path d="M15.5401399,3.31400999 C15.5401399,3.63574847 15.496105,3.94557071 15.4082945,4.23518715 L7.01968896,4.23518715 C4.89807424,4.27223112 3.29379463,2.09285443 3.92108598,0.064244077 L12.309434,0.064244077 C14.0916522,0.0660574178 15.5414266,1.52061585 15.5401399,3.31400999 Z" id="Path" fill="#DD5E26" fill-rule="nonzero"></path>
                        <path d="M14.5925067,1.01728423 C15.4000542,1.79132174 15.7567039,3.12412729 15.408037,4.23492811 L12.4054848,4.23492811 C10.2833551,4.27300826 8.68190804,2.09181823 9.31074445,0.0639850283 L12.309434,0.0639850283 C13.2011869,0.0639850283 14.0087344,0.430020838 14.5925067,1.01728423 Z" id="Path" fill="#EA792E" fill-rule="nonzero"></path>
                        <path d="M15.5402418,3.31400999 C15.554302,5.06517918 14.1027251,6.57310165 12.309434,6.56407562 L3.45345006,6.56407562 C2.56195471,6.56407562 1.75414971,6.19799913 1.17037734,5.61073574 C-0.847976366,3.60673501 0.580424758,0.0567316647 3.45345006,0.064232173 L12.309434,0.064232173 C14.0916522,0.0660574178 15.5414266,1.52061585 15.5402418,3.31400999 L15.5402418,3.31400999 Z" id="Path"></path>
                    </g>
                    <g id="Group" transform="translate(4.120140, 39.375402)" fill-rule="nonzero">
                        <path d="M24.8012377,4.54475035 C24.8145747,6.90960591 22.3072119,7.34454867 20.4830198,8.88873796 C20.12328,9.1985602 20.1750393,10.7590696 20.1750393,10.7590696 C20.1750393,15.0144625 16.7445075,18.4656811 12.514411,18.4656811 C8.27015153,18.4942637 4.82674431,14.910584 4.85790287,10.7590696 C4.85790287,10.7590696 4.90991964,9.1985602 4.54992239,8.88873796 C2.73062295,7.33625911 0.231757889,6.94198699 0.231757889,4.54475035 C0.231757889,2.14362797 2.16281613,0.19687701 4.54992239,0.19687701 L20.4830198,0.19687701 C22.870126,0.19687701 24.8012377,2.14362797 24.8012377,4.54475035 Z" id="Path" fill="#C1B7D3"></path>
                        <path d="M24.7932015,4.54475035 C24.8305403,6.90831066 22.2981991,7.34558486 20.4830198,8.88873796 C20.12328,9.1985602 20.1750393,10.7590696 20.1750393,10.7590696 C20.1750393,15.0144625 16.7445075,18.4655093 12.514411,18.4655093 C8.27015153,18.4942637 4.82674431,14.910584 4.85790287,10.7590696 C4.85790287,10.7590696 4.90991964,9.1985602 4.54992239,8.88873796 C2.73062295,7.33625911 0.231757889,6.94198699 0.231757889,4.54475035 L24.7932015,4.54475035 Z" id="Path" fill="#AEA7B9"></path>
                        <path d="M15.1093268,4.54475035 C15.1093268,4.54475035 13.8259032,13.83605 5.58948527,14.048988 C5.12159185,13.0513915 4.85790287,11.9374821 4.85790287,10.7588105 C4.85790287,10.7588105 4.90991964,9.19830115 4.54992239,8.88847891 C2.73062295,7.33600006 0.231757889,6.94172795 0.231757889,4.5444913 L15.1093268,4.5444913 L15.1093268,4.54475035 Z" id="Path" fill="#9F90AE"></path>
                        <path d="M11.3790549,2.36874129 C11.3790549,3.57124534 10.4115944,4.54475035 9.22010137,4.54475035 L0.232015398,4.54475035 C0.232015398,2.14362797 2.16307363,0.19687701 4.55017989,0.19687701 L9.22010137,0.19687701 C10.4115944,0.19687701 11.3790549,1.17012297 11.3790549,2.36874129 Z" id="Path" fill="#AEA7B9"></path>
                        <path d="M17.2044182,13.6912418 C17.2044182,14.5720073 16.4926639,15.2880179 15.613014,15.2880179 L6.32106768,15.2880179 C5.63686689,14.3430083 5.17566869,13.2578533 4.97378181,12.0903208 L15.613014,12.0903208 C16.4929214,12.0903208 17.2044182,12.8063314 17.2044182,13.6912418 Z" id="Path" fill="#C1B7D3"></path>
                        <g transform="translate(11.330386, 0.000000)" fill="#EBD9EA" id="Path">
                            <path d="M2.70023692,15.2887951 L1.6861674,15.2887951 C0.808577525,15.2887951 0.0973383135,14.5733026 0.0973383135,13.6904646 C0.0973383135,12.8076266 0.808577525,12.0921341 1.6861674,12.0921341 L2.70023692,12.0921341 C4.80331101,12.1651859 4.80331101,15.2160024 2.70023692,15.2887951 L2.70023692,15.2887951 Z"></path>
                            <path d="M8.34997924,3.39379699 L3.52684006,3.39379699 C2.64925018,3.39379699 1.93801097,2.67830448 1.93801097,1.79546652 C1.93801097,0.912628561 2.64925018,0.197136059 3.52684006,0.197136059 L8.34997924,0.197136059 C10.4520233,0.269410645 10.4538259,3.3204862 8.34997924,3.39379699 L8.34997924,3.39379699 Z"></path>
                        </g>
                    </g>
                </g>
            </g>
        </g>
    </g>
</svg>