<?xml version="1.0" encoding="UTF-8"?>
<svg width="133px" height="134px" viewBox="0 0 133 134" version="1.1" xmlns="http://www.w3.org/2000/svg" xmlns:xlink="http://www.w3.org/1999/xlink">
    <title>subjects/latin</title>
    <g id="subjects/latin" stroke="none" stroke-width="1" fill="none" fill-rule="evenodd">
        <g id="latin" fill-rule="nonzero">
            <path d="M132.420052,67.21 C132.439949,83.1046801 126.723116,98.4726616 116.32,110.49 C112.28088,115.159162 107.612972,119.244844 102.45,122.63 L101.62,123.16 C100.73,123.73 99.82,124.28 98.9,124.8 C96.0431325,126.421741 93.0680295,127.825722 90,129 L89.87,129 C84.7211385,130.967224 79.3458441,132.280812 73.87,132.91 L73.76,132.91 L71.63,133.12 C70.2966667,133.233333 68.9266667,133.303333 67.52,133.33 L66.21,133.33 C64.03,133.33 61.87,133.22 59.74,133.02 C59.02,132.95 58.31,132.87 57.6,132.77 C48.0408165,131.51921 38.8703243,128.195035 30.73,123.03 C30.54,122.91 30.35,122.79 30.17,122.66 C28.65,121.68 27.18,120.64 25.76,119.54 C24.23,118.37 22.76,117.12 21.34,115.8 L20.46,114.98 C18.2269425,112.850526 16.1483528,110.564746 14.24,108.14 C-3.73525809,85.3680118 -4.79188009,53.5461241 11.6331972,29.6318984 C28.0582744,5.71767278 58.1388782,-4.7181434 85.8453597,3.88559058 C113.551841,12.4893246 132.430058,38.1283946 132.420052,67.14 L132.420052,67.21 Z" id="Path" fill="#2F82B2"></path>
            <path d="M78.49,42 L80.12,45.41 L63.32,45 L53,41.71 L52.25,41.47 L53.25,40.67 C55.97,38.49 56.3,37.88 56.3,37.88 C56.12,37.09 55.98,36.35 55.87,35.64 L55.72,35.56 C55.72,35.56 55.83,35.02 54.46,31.43 C54.24,30.86 53.98,30.21 53.68,29.43 C53.474049,28.9319047 53.3654247,28.3989669 53.36,27.86 C53.4453639,26.8372812 53.7894879,25.8530866 54.36,25 C54.48,24.74 54.66,24.45 54.36,24.54 C53.07,25.23 47.36,21.38 46.66,19.48 L47.66,18.69 L47.66,18.69 C47.66,18.69 52.49,14.69 54.66,14.22 C56.3405024,13.9629825 58.0405292,13.8558942 59.74,13.9 C60.83,13.9 61.64,13.9 61.64,13.9 L62.12,13.9 C63.0383421,13.936551 63.8633877,13.3425181 64.12,12.46 C64.21,11.9 64.28,11.24 64.36,10.46 C64.36,10.3 64.36,10.12 64.36,9.95 C65.12,9.25 72.1,11.16 72.1,11.16 C72.1572868,11.2022425 72.1993803,11.2618749 72.22,11.33 C72.22,11.47 72.22,11.61 72.22,11.76 C72.2205498,12.1417526 72.2506396,12.5228903 72.31,12.9 C72.305147,12.9298037 72.305147,12.9601963 72.31,12.99 C72.39,13.54 73.07,13.86 73.79,13.99 L74.5,14.1 L74.5,14.1 C74.5,14.1 81.98,14.69 83.37,15.92 C84.3280327,16.8345777 85.0576571,17.9615562 85.5,19.21 C85.56,19.35 85.61,19.49 85.66,19.63 C85.66,21.98 83.52,25.41 79.95,28.97 C79.9153407,29.0601156 79.9153407,29.1598844 79.95,29.25 C79.8727239,29.5311194 79.7723834,29.8053832 79.65,30.07 C78.7385312,32.3723952 77.707119,34.6254802 76.56,36.82 C76.4955771,37.3440184 76.5226459,37.8752441 76.64,38.39 C76.94,38.74 77.73,40.36 78.49,42 Z" id="Path" fill="#BBD7F2"></path>
            <path d="M65.9,78.65 C63.76,83.84 64.9,86.5 64.9,86.5 C67.96,96.93 65.61,115.76 65.61,115.76 L60.81,115.76 C53.52,101.38 53.3,92.35 52.89,89 C52.48,85.65 41.69,63.56 41.66,58.85 C41.66,53.93 48.13,46.04 48.13,46.04 C53.2681226,47.5323071 58.3107593,49.3356342 63.23,51.44 C64.7006842,51.9995936 66.0316158,52.8732307 67.13,54 C68.47,55.93 69.46,70 65.9,78.65 Z" id="Path" fill="#BBD7F2"></path>
            <path d="M93.35,115.22 L88,115.22 C88,115.22 67,92.31 66.26,86.48 C65.35,79.19 58.6,50.43 58.6,50.43 L80.16,45.37 C80.16,45.37 82,49 83.59,52.71 C84.2449827,54.1899475 84.8158911,55.7056925 85.3,57.25 C86.16,60.16 83.73,71.15 82.07,78.96 C81.4199286,81.5546196 80.9488201,84.1908222 80.66,86.85 C80.79,89.77 87.87,90.15 93.35,115.22 Z" id="Path" fill="#BBD7F2"></path>
            <path d="M85.3,57.25 C80.9709718,57.408712 76.6610743,57.906908 72.41,58.74 C68.13,59.62 63.85,61.02 61.5,63.24 C61.5,63.24 55.36,58.24 48.05,56.99 L48.05,56.99 C46.0167068,56.6198705 43.9332932,56.6198705 41.9,56.99 C41.9,56.99 42.08,51.88 50.76,42.99 C51.33,42.39 51.95,41.78 52.6,41.16 C52.6,41.16 60.93,44.78 74.6,42.53 C75.85,42.33 77.14,42.07 78.48,41.76 C78.48,41.76 81.61,47.46 82.61,49.76 C83.31,51.3 85.3,57.25 85.3,57.25 Z" id="Path" fill="#BBD7F2"></path>
            <path d="M60.77,115.76 C60.6867277,116.734334 60.4609918,117.691185 60.1,118.6 C59.0153929,119.817952 57.6389487,120.74017 56.1,121.28 C54.17,121.82 48.64,121.54 48.21,123.05 L67.67,123.05 C67.8103424,121.775509 67.6422889,120.485956 67.18,119.29 C66.43,117.79 65.57,115.76 65.57,115.76 L60.77,115.76 Z" id="Path" fill="#BBD7F2"></path>
            <path d="M93.35,115.22 C94.3240121,116.206378 95.2326097,117.255274 96.07,118.36 C96.6,119.25 100.15,123.02 99.72,123.05 C99.29,123.08 89.84,123.05 89.84,123.05 C89.3256482,122.129772 89.0312982,121.10297 88.98,120.05 C89.09,118.84 87.69,116.53 87.98,115.21 C88.27,113.89 93.35,115.22 93.35,115.22 Z" id="Path" fill="#BBD7F2"></path>
            <path d="M53.26,40.67 C53.16,41.04 53.07,41.39 52.99,41.67 L52.24,41.43 L53.26,40.67 Z" id="Path" fill="#BBD7F2"></path>
            <path d="M72.34,11.77 C72.34,11.77 72.34,11.82 72.34,11.85 C72.16,12.33 69.53,12.42 67.92,12.16 C66.6,11.94 64.77,11.21 64.44,10.47 C64.3552474,10.3319717 64.3552474,10.1580283 64.44,10.02 L64.44,9.96 C65.2,9.26 72.18,11.17 72.18,11.17 C72.2372868,11.2122425 72.2793803,11.2718749 72.3,11.34 C72.366242,11.4734004 72.3804996,11.6266702 72.34,11.77 Z" id="Path" fill="#99BDE5"></path>
            <path d="M65.86,29.41 C67.4859139,30.5176413 69.4240768,31.074907 71.39,31 C74.8,30.94 76.93,28.5 76.58,27.73 C76.23,26.96 72.75,28.63 70.58,28.37 C68.41,28.11 64.92,28.06 65.86,29.41 Z" id="Path" fill="#ADCBEC"></path>
            <path d="M53.44,28.23 C54.1732998,29.37904 55.3368323,30.185948 56.67,30.47 C59.03,31.07 61.37,29.68 61.41,29.04 C61.45,28.4 58.46,28.98 57.09,28.38 C55.72,27.78 53.28,27.06 53.44,28.23 Z" id="Path" fill="#ADCBEC"></path>
            <path d="M85.35,64.08 C86.06,75.15 79.57,88.45 73.09,98.79 L73.09,98.79 C70.98,102.15 68.86,105.21 67,107.79 C63.43,112.69 60.77,115.79 60.77,115.79 L53.85,100.94 C52.15,99.4 49.93,88.48 49.93,88.48 C47.93,86.17 44.03,69.73 44.03,69.73 C41.03,67.42 41.68,62.8 41.68,62.8 C40.9374874,61.799007 40.7742793,60.4819557 41.25,59.33 C40.8675263,58.4988992 41.1425367,57.5130926 41.9,57 C56.34,56.08 80.12,45.37 80.12,45.37 C87.83,51.82 85.35,64.08 85.35,64.08 Z" id="Path" fill="#ADCBEC"></path>
            <path d="M73.26,98.24 L73.09,98.79 L73.09,98.79 C70.98,102.15 68.86,105.21 67,107.79 C67,107.71 67,107.61 67,107.51 C66,99.93 63.26,88.51 64.9,86.51 C66.54,84.51 73.26,98.24 73.26,98.24 Z" id="Path" fill="#99BDE5"></path>
            <path d="M82.06,46.79 C82.06,46.79 62.76,57.58 55.06,60.79 C47.36,64 58.47,64.04 65.51,59.08 C72.55,54.12 82.06,46.79 82.06,46.79 Z" id="Path" fill="#99BDE5"></path>
            <path d="M82.52,48.84 C82.52,48.84 72.24,63.57 60.66,68.45 C49.08,73.33 47.72,75.26 51.47,74.87 C55.22,74.48 69.47,67.42 72.75,63.57 C76.03,59.72 82.52,48.84 82.52,48.84 Z" id="Path" fill="#99BDE5"></path>
            <path d="M82.06,57.06 C82.06,57.06 79.06,71.28 75.93,76.24 C72.8,81.2 75.02,86.52 76.39,86.17 C76.39,86.17 78.54,85.02 78.54,83.35 C78.54,81.68 83.71,66.35 82.06,57.06 Z" id="Path" fill="#99BDE5"></path>
            <path d="M49.93,88.48 C49.93,88.48 55.61,92.08 56.18,90.2 C56.75,88.32 50.73,89.34 49.93,88.48 Z" id="Path" fill="#99BDE5"></path>
            <path d="M44,69.73 C45.5717401,69.9438828 47.1697326,69.8590636 48.71,69.48 C50.59,68.84 51.18,67.23 49.9,67.55 C48.62,67.87 46.9,69.67 44,69.73 Z" id="Path" fill="#99BDE5"></path>
            <path d="M41.67,62.8 C41.67,62.8 44.83,64.53 46.19,64.15 C47.55,63.77 41.67,62.8 41.67,62.8 Z" id="Path" fill="#99BDE5"></path>
            <path d="M101.62,123.16 C100.73,123.73 99.82,124.28 98.9,124.8 C96.0431325,126.421741 93.0680295,127.825722 90,129 L89.87,129 L43.18,129 L43.18,123.09 L101.62,123.16 Z" id="Path" fill="#99BDE5"></path>
            <path d="M90,129 L89.87,129 C84.7211385,130.967224 79.3458441,132.280812 73.87,132.91 L73.76,132.91 L71.63,133.12 C70.2966667,133.233333 68.9266667,133.303333 67.52,133.33 L66.21,133.33 C64.03,133.33 61.87,133.22 59.74,133.02 C59.02,132.95 58.31,132.87 57.6,132.77 C52.4199306,132.127601 47.3364364,130.861764 42.46,129 L90,129 Z" id="Path" fill="#BBD7F2"></path>
        </g>
    </g>
</svg>