<svg xmlns="http://www.w3.org/2000/svg" width="126" height="22" viewBox="0 0 126 22">
    <g fill="none" fill-rule="evenodd">
        <g fill="#0C0058" fill-rule="nonzero">
            <g>
                <path d="M9.88 15.616c1.372.448 2.897-.639 3.873.576 0 0-.732 5.592-6.618 5.592-4.208 0-7.044-3.356-7.044-7.989 0-4.57 2.836-7.797 7.044-7.797 3.324 0 5.947 2.045 6.496 5.177 0 0-3.934.926-5.367 1.661L9.94 9.353C9.849 7.756 8.508 7.117 7.5 7.117c-2.287 0-3.659 2.46-3.659 6.71 0 4.218 1.372 6.87 3.629 6.87 1.006 0 2.683-1.054 2.683-3.195 0-.607 0-1.598-.701-1.63l.427-.256zm6.01 1.438c.03-5.496.03-12.91-.091-16.808 2.012-.543 2.226.32 3.598 0-.153 5.24-.214 10.673-.03 16.808.06 2.141.365 3.196 1.22 3.196.64 0 1.036-.575 1.036-1.47 0-.256 0-.511-.092-.799.519.224.946-.351 1.434.288 0 2.077-1.25 3.515-3.233 3.515-2.226 0-3.872-1.278-3.842-4.73zm7.505 1.183c0-3.355 3.72-5.688 9.178-6.04 0-2.588-.183-5.272-2.622-5.272-1.586 0-2.623 1.086-2.623 2.46 0 .671 0 1.854.702 1.918l-.397.223c-2.195-.16-2.195-1.725-3.903-1.47.518-2.268 2.653-4.154 6.312-4.154 3.69 0 5.886 1.886 5.886 6.295v9.14h-1.312c-.183-4.666-1.524-5.752-1.524-5.752-.488 1.949-2.013 6.199-5.764 6.199-2.287 0-3.933-1.31-3.933-3.547zm9.148-4.953c-3.69.351-5.55 2.173-5.55 4.282 0 1.438.854 2.14 1.86 2.14 2.074 0 3.507-2.907 3.69-6.422zm10.401 7.35c1.8 0 2.562-.991 2.562-1.982 0-1.47-1.403-2.78-3.08-3.707-2.165-1.182-5.093-2.268-5.093-4.92 0-2.237 1.86-4.123 5.428-4.123 2.623 0 4.94 1.055 5.702 1.758l-1.524 3.1-.305-.033c1.128-1.63-1.128-3.674-3.812-3.674-1.89 0-2.409.926-2.409 1.757 0 1.534 1.525 2.812 3.507 3.899 1.982 1.118 4.696 2.173 4.696 4.665 0 2.429-2.348 4.41-5.916 4.41-2.622 0-4.879-1.087-5.946-2.141l1.433-3.58.305.097c-1.128 1.917 1.86 4.473 4.452 4.473zm12.048 0c1.8 0 2.562-.991 2.562-1.982 0-1.47-1.403-2.78-3.08-3.707-2.165-1.182-5.093-2.268-5.093-4.92 0-2.237 1.86-4.123 5.428-4.123 2.623 0 4.94 1.055 5.702 1.758l-1.524 3.1-.305-.033c1.128-1.63-1.128-3.674-3.812-3.674-1.89 0-2.409.926-2.409 1.757 0 1.534 1.525 2.812 3.507 3.899 1.982 1.118 4.696 2.173 4.696 4.665 0 2.429-2.348 4.41-5.916 4.41-2.622 0-4.879-1.087-5.946-2.141l1.433-3.58.305.097c-1.128 1.917 1.86 4.473 4.452 4.473zM61.856 6.35c1.19.127 2.043-.288 3.568 0-.092 4.985-.092 9.97 0 14.986-1.708.16-2.348-.191-3.568 0 .092-5.017.092-10.001 0-14.986zM62.1.63c2.287-.8 2.5.575 3.11 0v2.652c-2.043.543-2.591-.447-3.11 0V.63zm6.071 20.706c.214-5.048.183-9.235 0-14.315l.763-.671c.213 3.738 2.104 4.825 2.104 4.825.762-2.78 2.378-5.273 5.031-5.273 1.525 0 3.355.895 4.117 3.58.884-2.43 2.47-3.58 4.665-3.58 2.714 0 4.544 1.918 4.544 6.583s.06 5.848.06 8.851c-1.493-.223-1.707.032-3.597 0 .091-3.163.06-6.295-.03-9.17-.062-2.813-.458-4.378-2.135-4.378-1.8 0-3.08 2.14-3.141 5.624 0 2.652.06 5.208.06 7.924-1.341-.287-1.768.064-3.597 0 .091-3.163.06-6.295-.031-9.17-.061-2.813-.701-4.378-2.317-4.378-1.708 0-2.928 2.204-2.928 5.783 0 2.397.03 5.081.03 7.765-1.28-.255-1.585.096-3.598 0zM92.081 6.35c1.19.127 2.043-.288 3.568 0-.091 4.985-.091 9.97 0 14.986-1.708.16-2.348-.191-3.568 0 .092-5.017.092-10.001 0-14.986zm.244-5.72c2.287-.8 2.5.575 3.11 0v2.652c-2.042.543-2.591-.447-3.11 0V.63zm17.995 20.706c-3.599-.16-8.966-.191-12.777-.032l.488-1.246c2.958-4.218 5.367-7.988 7.562-12.398-2.592.223-5.031.415-7.501 1.406.579-1.214-.427-1.534.152-2.716 3.781.16 8.325.191 11.954 0l-.488 1.342c-3.599 4.314-6.373 9.267-7.807 12.302 2.745-.223 5.794-.287 8.417-1.502.67 1.31-.366 1.63 0 2.844zm13.542-4.537c.732.32 1.646.287 1.646.287-.518 2.94-2.866 4.698-6.16 4.698-4.543 0-7.379-3.356-7.379-8.085 0-4.57 2.806-7.765 7.105-7.765 3.934 0 6.434 2.716 6.312 7.542l-9.636 1.406c.092 3.515 1.068 5.815 3.63 5.815 1.25 0 2.988-.575 2.988-2.748 0-.415.03-1.246-.61-1.182l.427-.256s.975-.032 1.677.288zm-8.142-2.525l5.977-1.725c.122-.831.183-1.47.183-2.429.03-2.173-.946-3.419-2.653-3.1-1.921.384-3.385 3.58-3.507 7.254z" transform="translate(-83 -57) translate(83 57)"/>
            </g>
        </g>
    </g>
</svg>
