
        <svg xmlns="http://www.w3.org/2000/svg" xmlns:xlink="http://www.w3.org/1999/xlink" version="1.1" width="3250" height="1451.9464888163657" viewBox="0 0 3250 1451.9464888163657">
			
			<g transform="scale(12.5) translate(10, 10)">
				<defs id="SvgjsDefs2462"/><g id="SvgjsG2463" featureKey="nameGroupContainer" transform="matrix(1,0,0,1,0,0)" fill="#000"><rect xmlns="http://www.w3.org/2000/svg" width="240" height="73" rx="10" ry="10"/></g><g id="SvgjsG2464" featureKey="nameFeature-0" transform="matrix(1.2156871801820879,0,0,1.2156871801820879,17.42274215776869,3.74703004279187)" fill="#ffffff"><path d="M14.96 32.84 c1.8 0.56 3.8 -0.8 5.08 0.72 c0 0 -0.96 7 -8.68 7 c-5.52 0 -9.24 -4.2 -9.24 -10 c0 -5.72 3.72 -9.76 9.24 -9.76 c4.36 0 7.8 2.56 8.52 6.48 c0 0 -5.16 1.16 -7.04 2.08 l2.2 -4.36 c-0.12 -2 -1.88 -2.8 -3.2 -2.8 c-3 0 -4.8 3.08 -4.8 8.4 c0 5.28 1.8 8.6 4.76 8.6 c1.32 0 3.52 -1.32 3.52 -4 c0 -0.76 0 -2 -0.92 -2.04 z M22.844 34.64 c0.04 -6.88 0.04 -16.16 -0.12 -21.04 c2.64 -0.68 2.92 0.4 4.72 0 c-0.2 6.56 -0.28 13.36 -0.04 21.04 c0.08 2.68 0.48 4 1.6 4 c0.84 0 1.36 -0.72 1.36 -1.84 c0 -0.32 0 -0.64 -0.12 -1 c0.68 0.28 1.24 -0.44 1.88 0.36 c0 2.6 -1.64 4.4 -4.24 4.4 c-2.92 0 -5.08 -1.6 -5.04 -5.92 z M32.688 36.12 c0 -4.2 4.88 -7.12 12.04 -7.56 c0 -3.24 -0.24 -6.6 -3.44 -6.6 c-2.08 0 -3.44 1.36 -3.44 3.08 c0 0.84 0 2.32 0.92 2.4 l-0.52 0.28 c-2.88 -0.2 -2.88 -2.16 -5.12 -1.84 c0.68 -2.84 3.48 -5.2 8.28 -5.2 c4.84 0 7.72 2.36 7.72 7.88 l0 11.44 l-1.72 0 c-0.24 -5.84 -2 -7.2 -2 -7.2 c-0.64 2.44 -2.64 7.76 -7.56 7.76 c-3 0 -5.16 -1.64 -5.16 -4.44 z M44.688 29.92 c-4.84 0.44 -7.28 2.72 -7.28 5.36 c0 1.8 1.12 2.68 2.44 2.68 c2.72 0 4.6 -3.64 4.84 -8.04 z M58.332 39.12 c2.36 0 3.36 -1.24 3.36 -2.48 c0 -1.84 -1.84 -3.48 -4.04 -4.64 c-2.84 -1.48 -6.68 -2.84 -6.68 -6.16 c0 -2.8 2.44 -5.16 7.12 -5.16 c3.44 0 6.48 1.32 7.48 2.2 l-2 3.88 l-0.4 -0.04 c1.48 -2.04 -1.48 -4.6 -5 -4.6 c-2.48 0 -3.16 1.16 -3.16 2.2 c0 1.92 2 3.52 4.6 4.88 c2.6 1.4 6.16 2.72 6.16 5.84 c0 3.04 -3.08 5.52 -7.76 5.52 c-3.44 0 -6.4 -1.36 -7.8 -2.68 l1.88 -4.48 l0.4 0.12 c-1.48 2.4 2.44 5.6 5.84 5.6 z M74.136 39.12 c2.36 0 3.36 -1.24 3.36 -2.48 c0 -1.84 -1.84 -3.48 -4.04 -4.64 c-2.84 -1.48 -6.68 -2.84 -6.68 -6.16 c0 -2.8 2.44 -5.16 7.12 -5.16 c3.44 0 6.48 1.32 7.48 2.2 l-2 3.88 l-0.4 -0.04 c1.48 -2.04 -1.48 -4.6 -5 -4.6 c-2.48 0 -3.16 1.16 -3.16 2.2 c0 1.92 2 3.52 4.6 4.88 c2.6 1.4 6.16 2.72 6.16 5.84 c0 3.04 -3.08 5.52 -7.76 5.52 c-3.44 0 -6.4 -1.36 -7.8 -2.68 l1.88 -4.48 l0.4 0.12 c-1.48 2.4 2.44 5.6 5.84 5.6 z M83.14 21.24 c1.56 0.16 2.68 -0.36 4.68 0 c-0.12 6.24 -0.12 12.48 0 18.76 c-2.24 0.2 -3.08 -0.24 -4.68 0 c0.12 -6.28 0.12 -12.52 0 -18.76 z M83.46 14.079999999999998 c3 -1 3.28 0.72 4.08 0 l0 3.32 c-2.68 0.68 -3.4 -0.56 -4.08 0 l0 -3.32 z M91.424 40 c0.28 -6.32 0.24 -11.56 0 -17.92 l1 -0.84 c0.28 4.68 2.76 6.04 2.76 6.04 c1 -3.48 3.12 -6.6 6.6 -6.6 c2 0 4.4 1.12 5.4 4.48 c1.16 -3.04 3.24 -4.48 6.12 -4.48 c3.56 0 5.96 2.4 5.96 8.24 s0.08 7.32 0.08 11.08 c-1.96 -0.28 -2.24 0.04 -4.72 0 c0.12 -3.96 0.08 -7.88 -0.04 -11.48 c-0.08 -3.52 -0.6 -5.48 -2.8 -5.48 c-2.36 0 -4.04 2.68 -4.12 7.04 c0 3.32 0.08 6.52 0.08 9.92 c-1.76 -0.36 -2.32 0.08 -4.72 0 c0.12 -3.96 0.08 -7.88 -0.04 -11.48 c-0.08 -3.52 -0.92 -5.48 -3.04 -5.48 c-2.24 0 -3.84 2.76 -3.84 7.24 c0 3 0.04 6.36 0.04 9.72 c-1.68 -0.32 -2.08 0.12 -4.72 0 z M122.78800000000001 21.24 c1.56 0.16 2.68 -0.36 4.68 0 c-0.12 6.24 -0.12 12.48 0 18.76 c-2.24 0.2 -3.08 -0.24 -4.68 0 c0.12 -6.28 0.12 -12.52 0 -18.76 z M123.108 14.079999999999998 c3 -1 3.28 0.72 4.08 0 l0 3.32 c-2.68 0.68 -3.4 -0.56 -4.08 0 l0 -3.32 z M146.71200000000002 40 c-4.72 -0.2 -11.76 -0.24 -16.76 -0.04 l0.64 -1.56 c3.88 -5.28 7.04 -10 9.92 -15.52 c-3.4 0.28 -6.6 0.52 -9.84 1.76 c0.76 -1.52 -0.56 -1.92 0.2 -3.4 c4.96 0.2 10.92 0.24 15.68 0 l-0.64 1.68 c-4.72 5.4 -8.36 11.6 -10.24 15.4 c3.6 -0.28 7.6 -0.36 11.04 -1.88 c0.88 1.64 -0.48 2.04 0 3.56 z M164.476 34.32 c0.96 0.4 2.16 0.36 2.16 0.36 c-0.68 3.68 -3.76 5.88 -8.08 5.88 c-5.96 0 -9.68 -4.2 -9.68 -10.12 c0 -5.72 3.68 -9.72 9.32 -9.72 c5.16 0 8.44 3.4 8.28 9.44 l-12.64 1.76 c0.12 4.4 1.4 7.28 4.76 7.28 c1.64 0 3.92 -0.72 3.92 -3.44 c0 -0.52 0.04 -1.56 -0.8 -1.48 l0.56 -0.32 s1.28 -0.04 2.2 0.36 z M153.796 31.16 l0 0 l7.84 -2.16 c0.16 -1.04 0.24 -1.84 0.24 -3.04 c0.04 -2.72 -1.24 -4.28 -3.48 -3.88 c-2.52 0.48 -4.44 4.48 -4.6 9.08 z"/></g><g id="SvgjsG2465" featureKey="sloganFeature-0" transform="matrix(0.5751657669096822,0,0,0.5751657669096822,6.792382048825562,84.54564049757421)" fill="#000"><path d="M4.043 18.2422 l4.7168 0 l0 1.7578 l-6.6602 0 l0 -13.809 l1.9434 0 l0 12.051 z M27.158228125 7.939 l-5.5273 0 l0 4.2969 l4.873 0 l0 1.7383 l-4.873 0 l0 4.2676 l5.5273 0 l0 1.7578 l-7.5098 0 l0 -13.809 l7.5098 0 l0 1.748 z M47.6365625 20 l-1.1523 -3.2227 l-6.1719 0 l-1.1523 3.2227 l-2.0215 0 l5.0879 -13.809 l2.3438 0 l5.0879 13.809 l-2.0215 0 z M40.9179625 15.0781 l4.9609 0 l-2.4805 -6.9629 z M67.998065625 20 l-3.5742 -6.2109 l-1.9336 0 l0 6.2109 l-1.9434 0 l0 -13.809 l4.6484 0 c2.8906 0 4.209 1.7676 4.209 3.9355 c0 1.9238 -1.1328 3.2617 -3.0273 3.584 l3.8965 6.2891 l-2.2754 0 z M62.490265625 7.871 l0 4.4336 l2.4414 0 c1.7969 0 2.6074 -0.89844 2.6074 -2.207 c0 -1.2891 -0.81055 -2.2266 -2.6074 -2.2266 l-2.4414 0 z M90.6638125 6.191000000000001 l1.9336 0 l0 13.809 l-2.0996 0 l-7.2168 -10.957 l0 10.957 l-1.9238 0 l0 -13.809 l2.0801 0 l7.2266 10.908 l0 -10.908 z M105.04881875 20 l0 -13.809 l1.9434 0 l0 13.809 l-1.9434 0 z M128.759515625 6.191000000000001 l1.9336 0 l0 13.809 l-2.0996 0 l-7.2168 -10.957 l0 10.957 l-1.9238 0 l0 -13.809 l2.0801 0 l7.2266 10.908 l0 -10.908 z M149.023421875 20.18555 c-3.8672 0 -6.8359 -2.6465 -6.8359 -7.0508 c0 -4.4434 2.9883 -7.1289 6.9043 -7.1289 c2.5391 0 4.7168 1.1133 5.9082 3.2227 l-1.7188 0.91797 c-0.86914 -1.6211 -2.4219 -2.373 -4.1895 -2.373 c-2.793 0 -4.9512 1.8945 -4.9512 5.3223 c0 3.3789 2.1094 5.3418 5.0195 5.3418 c2.3438 0 4.1797 -1.3184 4.502 -3.9355 l-4.5117 0 l0 -1.6211 l6.3965 0 l0 7.1191 l-1.582 0 l0 -2.4805 c-0.9082 1.6895 -2.6172 2.666 -4.9414 2.666 z M190.087640625 6.191000000000001 l1.9336 0 l0 13.809 l-2.0996 0 l-7.2168 -10.957 l0 10.957 l-1.9238 0 l0 -13.809 l2.0801 0 l7.2266 10.908 l0 -10.908 z M211.982446875 7.939 l-5.5273 0 l0 4.2969 l4.873 0 l0 1.7383 l-4.873 0 l0 4.2676 l5.5273 0 l0 1.7578 l-7.5098 0 l0 -13.809 l7.5098 0 l0 1.748 z M232.07978125 6.191000000000001 l2.0508 0 l-5.0781 13.809 l-2.0313 0 l-5.0586 -13.809 l2.041 0 l4.043 11.426 z M252.529321875 7.939 l-5.5273 0 l0 4.2969 l4.873 0 l0 1.7383 l-4.873 0 l0 4.2676 l5.5273 0 l0 1.7578 l-7.5098 0 l0 -13.809 l7.5098 0 l0 1.748 z M271.52345625 20 l-3.5742 -6.2109 l-1.9336 0 l0 6.2109 l-1.9434 0 l0 -13.809 l4.6484 0 c2.8906 0 4.209 1.7676 4.209 3.9355 c0 1.9238 -1.1328 3.2617 -3.0273 3.584 l3.8965 6.2891 l-2.2754 0 z M266.01565625 7.871 l0 4.4336 l2.4414 0 c1.7969 0 2.6074 -0.89844 2.6074 -2.207 c0 -1.2891 -0.81055 -2.2266 -2.6074 -2.2266 l-2.4414 0 z M302.65626875 20.18555 c-2.8809 0 -4.9902 -1.377 -5.459 -3.7207 l1.9824 -0.46875 c0.3125 1.6113 1.709 2.5391 3.5449 2.5391 c1.4746 0 2.8906 -0.60547 2.8613 -2.2656 c-0.019531 -1.6406 -1.7969 -2.0898 -3.6816 -2.6074 c-2.1387 -0.58594 -4.2773 -1.2598 -4.2773 -3.7988 c0 -2.5684 2.1191 -3.8574 4.6289 -3.8574 c2.4316 0 4.6191 1.0254 5.1367 3.3984 l-1.8848 0.47852 c-0.3418 -1.5332 -1.6211 -2.2168 -3.1641 -2.2168 c-1.3867 0 -2.7637 0.60547 -2.7637 2.1777 c0 1.4258 1.543 1.8457 3.291 2.3145 c2.1973 0.5957 4.7168 1.2793 4.7168 4.0527 c0 2.793 -2.3438 3.9746 -4.9316 3.9746 z M326.38669375 6.191000000000001 l0 1.748 l-3.4961 0 l0 12.061 l-1.9238 0 l0 -12.061 l-3.5059 0 l0 -1.748 l8.9258 0 z M343.212915625 20.18555 c-3.916 0 -6.9043 -2.6953 -6.9043 -7.0996 c0 -4.3945 2.9883 -7.0801 6.9043 -7.0801 c3.8965 0 6.8945 2.6855 6.8945 7.0801 c0 4.4043 -2.998 7.0996 -6.8945 7.0996 z M343.212915625 18.3594 c2.7637 0 4.9512 -1.9141 4.9512 -5.2734 c0 -3.3301 -2.1875 -5.2441 -4.9512 -5.2441 c-2.7734 0 -4.9707 1.9141 -4.9707 5.2441 c0 3.3594 2.1973 5.2734 4.9707 5.2734 z M366.923853125 6.191000000000001 c2.5293 0 4.1602 1.9141 4.1602 4.2773 c0 2.3926 -1.6309 4.2383 -4.1602 4.2383 l-3.3789 0 l0 5.293 l-1.9434 0 l0 -13.809 l5.3223 0 z M366.630853125 13.0273 c1.6211 0 2.5293 -1.0449 2.5293 -2.5879 c0 -1.4844 -0.9082 -2.5781 -2.5293 -2.5781 l-3.0859 0 l0 5.166 l3.0859 0 z M386.6211125 20.18555 c-2.8809 0 -4.9902 -1.377 -5.459 -3.7207 l1.9824 -0.46875 c0.3125 1.6113 1.709 2.5391 3.5449 2.5391 c1.4746 0 2.8906 -0.60547 2.8613 -2.2656 c-0.019531 -1.6406 -1.7969 -2.0898 -3.6816 -2.6074 c-2.1387 -0.58594 -4.2773 -1.2598 -4.2773 -3.7988 c0 -2.5684 2.1191 -3.8574 4.6289 -3.8574 c2.4316 0 4.6191 1.0254 5.1367 3.3984 l-1.8848 0.47852 c-0.3418 -1.5332 -1.6211 -2.2168 -3.1641 -2.2168 c-1.3867 0 -2.7637 0.60547 -2.7637 2.1777 c0 1.4258 1.543 1.8457 3.291 2.3145 c2.1973 0.5957 4.7168 1.2793 4.7168 4.0527 c0 2.793 -2.3438 3.9746 -4.9316 3.9746 z"/></g>
			</g>
		</svg>
	