<?xml version="1.0" encoding="UTF-8"?>
<svg width="133px" height="134px" viewBox="0 0 133 134" version="1.1" xmlns="http://www.w3.org/2000/svg" xmlns:xlink="http://www.w3.org/1999/xlink">
    <title>subjects/maths</title>
    <g id="subjects/maths" stroke="none" stroke-width="1" fill="none" fill-rule="evenodd">
        <g id="maths">
            <path d="M132.420052,67.21 C132.439949,83.1046801 126.723116,98.4726616 116.32,110.49 C112.28088,115.159162 107.612972,119.244844 102.45,122.63 C101.29,123.39 100.11,124.12 98.9,124.8 C91.1843743,129.201762 82.655484,131.991427 73.83,133 L73.72,133 L71.59,133.21 C70.2566667,133.323333 68.8866667,133.393333 67.48,133.42 L66.21,133.42 C64.03,133.42 61.87,133.31 59.74,133.11 C59.02,133.04 58.31,132.96 57.6,132.86 C48.0368803,131.6254 38.8629721,128.299986 30.73,123.12 C30.54,123 30.35,122.88 30.17,122.75 C28.65,121.77 27.18,120.73 25.76,119.63 C24.23,118.46 22.76,117.21 21.34,115.89 L20.46,115.07 C18.2269425,112.940526 16.1483528,110.654746 14.24,108.23 C-3.73525809,85.4580118 -4.79188009,53.6361241 11.6331972,29.7218984 C28.0582744,5.80767278 58.1388782,-4.6281434 85.8453597,3.97559058 C113.551841,12.5793246 132.430058,38.2183946 132.420052,67.23 L132.420052,67.21 Z" id="Path" fill="#F9C744" fill-rule="nonzero"></path>
            <path d="M67.65,113.86 L67.65,102.15 L27.7,114.25 L63.63,112.19 C63.63,112.19 65.69,114.25 66.47,114.25 C66.897415,114.265993 67.3162977,114.127548 67.65,113.86 L67.65,113.86 Z" id="Path" fill="#603813" fill-rule="nonzero"></path>
            <path d="M30.33,107.26 L38,98.69 C38,98.69 39.91,99.27 43.35,96.75 C47.21,93.92 54.06,91.75 58.49,92.68 C62.92,93.61 67.64,99.19 67.64,99.19 L67.64,107.48 L32.08,110.09 L30.33,107.26 Z" id="Path" fill="#FDFDFD" fill-rule="nonzero"></path>
            <path d="M63.35,111.44 C60.1281764,111.060554 56.8816237,110.933501 53.64,111.06 C48.41,111.28 33.41,114.25 27.72,114.25 L30.33,107.25 C30.33,107.25 36.96,106.7 39.81,104.88 C42.66,103.06 49.95,98.39 56.67,100.88 C60.7537454,102.295385 64.4993681,104.542759 67.67,107.48 C67.67,107.48 65.25,108 63.35,111.44 Z" id="Path" fill="#E7E2DE" fill-rule="nonzero"></path>
            <path d="M65.59,107 C64.36,106.23 63.09,105.52 61.8,104.88 C60.5230801,104.227959 59.2033813,103.663329 57.85,103.19 C56.5265351,102.705069 55.1376746,102.421903 53.73,102.35 C53.56,102.35 53.39,102.35 53.21,102.35 L52.69,102.35 C52.34,102.35 51.99,102.35 51.69,102.44 C50.9921941,102.514757 50.3004949,102.638394 49.62,102.81 C48.2387385,103.14468 46.8976376,103.627476 45.62,104.25 C44.32,104.86 43.06,105.59 41.78,106.25 C40.5264391,106.962264 39.2151423,107.567735 37.86,108.06 C36.5241504,108.530713 35.1162846,108.764229 33.7,108.75 C34.4013653,108.7317 35.1001967,108.658139 35.79,108.53 C36.4714624,108.396384 37.1404851,108.205713 37.79,107.96 C39.135712,107.448267 40.4368106,106.826148 41.68,106.1 C42.95,105.39 44.21,104.67 45.52,104.04 C46.8002534,103.416138 48.1404333,102.923622 49.52,102.57 C50.2116562,102.405582 50.9130732,102.285339 51.62,102.21 C51.97,102.16 52.32,102.15 52.62,102.12 L53.68,102.12 C54.38721,102.140286 55.0906595,102.230729 55.78,102.39 C56.4572572,102.556835 57.1249147,102.760471 57.78,103 C59.1319577,103.492174 60.448407,104.076891 61.72,104.75 C62.36,105.08 63,105.44 63.63,105.81 C64.26,106.18 65,106.6 65.59,107 Z" id="Path" fill="#A8A3A0" fill-rule="nonzero"></path>
            <path d="M64.29,107.5 C63.08,107.01 61.87,106.57 60.64,106.18 C59.4177033,105.783991 58.1761085,105.450229 56.92,105.18 C55.6799135,104.892851 54.4127614,104.738647 53.14,104.72 C51.8696398,104.752517 50.6089717,104.950862 49.39,105.31 C46.918307,106.103284 44.5028421,107.06212 42.16,108.18 C41.56,108.44 40.96,108.69 40.36,108.92 C39.76,109.15 39.14,109.38 38.52,109.57 C37.9062639,109.752267 37.2817059,109.895881 36.65,110 C36.0185164,110.099524 35.378044,110.129703 34.74,110.09 C36.0204486,110.100448 37.2928887,109.887247 38.5,109.46 C39.7296474,109.041113 40.9348682,108.553683 42.11,108 C43.3,107.46 44.49,106.92 45.68,106.41 C46.8707641,105.890008 48.0932004,105.445789 49.34,105.08 C50.5753645,104.719112 51.8532265,104.52407 53.14,104.5 L54.14,104.5 L55.14,104.6 L56.09,104.76 C56.4,104.82 56.72,104.88 57.03,104.96 C59.5229027,105.5818 61.9531836,106.432063 64.29,107.5 Z" id="Path" fill="#C9C4C2" fill-rule="nonzero"></path>
            <path d="M63.63,108.27 C62.4411967,107.811377 61.229597,107.414186 60,107.08 C58.7707868,106.744854 57.5216337,106.487675 56.26,106.31 C55.0088516,106.126854 53.7421499,106.073237 52.48,106.15 C51.8494677,106.203864 51.2241842,106.30752 50.61,106.46 C50,106.62 49.38,106.8 48.77,107 C46.34,107.8 43.96,108.85 41.52,109.68 C40.3074076,110.09697 39.0678867,110.431072 37.81,110.68 C37.1860276,110.803866 36.5547182,110.887372 35.92,110.93 C35.288085,110.989942 34.651915,110.989942 34.02,110.93 C35.2883795,111.01201 36.5619297,110.907566 37.8,110.62 C39.0484346,110.33467 40.2775582,109.970609 41.48,109.53 C42.69,109.1 43.89,108.63 45.09,108.16 C46.29,107.69 47.5,107.16 48.73,106.81 C49.34,106.61 49.95,106.43 50.58,106.28 C51.2001891,106.125779 51.8325385,106.025406 52.47,105.98 C53.7430928,105.898211 55.0213608,105.961957 56.28,106.17 C57.5362891,106.367801 58.7787795,106.645024 60,107 C60.61,107.18 61.23,107.38 61.84,107.59 C62.45,107.8 63,108 63.63,108.27 Z" id="Path" fill="#C9C4C2" fill-rule="nonzero"></path>
            <path d="M62.08,109.85 C61.02,109.65 59.96,109.49 58.89,109.35 C57.82,109.21 56.76,109.08 55.69,109.01 C54.62,108.94 53.56,108.87 52.49,108.89 C51.4208919,108.89792 50.3541401,108.991553 49.3,109.17 C48.24,109.37 47.2,109.63 46.16,109.92 C45.12,110.21 44.08,110.53 43.03,110.8 C41.98,111.07 40.93,111.31 39.86,111.49 C38.79,111.67 37.74,111.8 36.67,111.9 C38.8078238,111.634434 40.9234346,111.213317 43,110.64 C45.08,110.05 47.15,109.36 49.27,108.96 C50.3332989,108.775437 51.4108133,108.685086 52.49,108.69 L53.29,108.69 C53.56,108.69 53.83,108.69 54.1,108.69 L54.9,108.69 L55.7,108.76 C57.8474901,108.988678 59.9783968,109.352736 62.08,109.85 L62.08,109.85 Z" id="Path" fill="#C9C4C2" fill-rule="nonzero"></path>
            <path d="M67.65,107.48 C67.65,107.48 65.78,107.15 63.35,111.48 C63.35,111.48 63.45,111.78 63.63,111.73 C63.81,111.68 65.5,108.08 67.63,107.99 L67.65,107.48 Z" id="Path" fill="#F39221" fill-rule="nonzero"></path>
            <path d="M63.62,111.7 L27.7,114.25 L27.7,115.35 L63.62,112.8 C64.5953115,114.044485 66.0444699,114.827031 67.62,114.96 L67.62,113.86 C65.75,113.75 63.62,111.7 63.62,111.7 Z" id="Path" fill="#8B6339" fill-rule="nonzero"></path>
            <path d="M67.65,113.86 L67.65,102.15 L107.6,114.25 L71.67,112.19 C71.67,112.19 69.61,114.25 68.83,114.25 C68.4021989,114.268747 67.9823711,114.12999 67.65,113.86 L67.65,113.86 Z" id="Path" fill="#603813" fill-rule="nonzero"></path>
            <path d="M105,107.26 L97.32,98.69 C97.32,98.69 95.41,99.27 91.97,96.75 C88.11,93.92 81.26,91.75 76.83,92.68 C72.4,93.61 67.68,99.19 67.68,99.19 L67.68,107.48 L103.24,110.09 L105,107.26 Z" id="Path" fill="#EFEFEF" fill-rule="nonzero"></path>
            <path d="M72,111.44 C75.2218236,111.060554 78.4683763,110.933501 81.71,111.06 C86.94,111.28 101.93,114.25 107.63,114.25 L105.02,107.25 C105.02,107.25 98.39,106.7 95.54,104.88 C92.69,103.06 85.4,98.39 78.68,100.88 C74.5946429,102.291933 70.8483444,104.539712 67.68,107.48 C67.68,107.48 70.05,108 72,111.44 Z" id="Path" fill="#E7E2DE" fill-rule="nonzero"></path>
            <path d="M69.7,107 C70.94,106.23 72.21,105.52 73.5,104.88 C74.7931238,104.225871 76.1295939,103.661212 77.5,103.19 C78.820037,102.705171 80.2055876,102.421993 81.61,102.35 C81.79,102.35 81.96,102.35 82.14,102.35 L82.66,102.35 C83.01,102.35 83.36,102.35 83.66,102.44 C84.3578059,102.514757 85.0495051,102.638394 85.73,102.81 C87.1112615,103.14468 88.4523624,103.627476 89.73,104.25 C91.03,104.86 92.29,105.59 93.57,106.25 C94.8235609,106.962264 96.1348577,107.567735 97.49,108.06 C98.8258496,108.530713 100.233715,108.764229 101.65,108.75 C100.948635,108.7317 100.249803,108.658139 99.56,108.53 C98.8785376,108.396384 98.2095149,108.205713 97.56,107.96 C96.2134277,107.450278 94.9121646,106.82808 93.67,106.1 C92.4,105.39 91.14,104.67 89.83,104.04 C88.5501539,103.415183 87.209875,102.92263 85.83,102.57 C85.1418868,102.404758 84.4437428,102.284503 83.74,102.21 C83.39,102.16 83.04,102.15 82.74,102.12 L81.56,102.12 C80.8527381,102.139622 80.1492228,102.230074 79.46,102.39 C78.7823833,102.555527 78.1146539,102.759185 77.46,103 C76.1072804,103.490284 74.7907017,104.075059 73.52,104.75 C72.88,105.08 72.24,105.44 71.61,105.81 C70.98,106.18 70.31,106.6 69.7,107 Z" id="Path" fill="#A8A3A0" fill-rule="nonzero"></path>
            <path d="M71,107.5 C72.21,107.01 73.42,106.57 74.65,106.18 C75.8722967,105.783991 77.1138915,105.450229 78.37,105.18 C79.6100865,104.892851 80.8772386,104.738647 82.15,104.72 C83.4203602,104.752517 84.6810283,104.950862 85.9,105.31 C88.371693,106.103284 90.7871579,107.06212 93.13,108.18 C93.73,108.44 94.33,108.69 94.93,108.92 C95.53,109.15 96.15,109.38 96.77,109.57 C97.3834472,109.753362 98.0080754,109.896993 98.64,110 C99.2714836,110.099524 99.911956,110.129703 100.55,110.09 C99.2695514,110.100448 97.9971113,109.887247 96.79,109.46 C95.5637438,109.040764 94.3618706,108.553338 93.19,108 C92,107.46 90.81,106.92 89.61,106.41 C88.4356558,105.89163 87.2299557,105.447425 86,105.08 C84.7646355,104.719112 83.4867735,104.52407 82.2,104.5 L81.2,104.5 L80.2,104.6 L79.25,104.76 C78.94,104.82 78.62,104.88 78.31,104.96 C75.8000489,105.578857 73.3529025,106.429165 71,107.5 Z" id="Path" fill="#C9C4C2" fill-rule="nonzero"></path>
            <path d="M71.67,108.27 C72.8686322,107.810397 74.0902693,107.413198 75.33,107.08 C76.5589811,106.743884 77.8081962,106.486692 79.07,106.31 C80.3211484,106.126854 81.5878501,106.073237 82.85,106.15 C83.4805323,106.203864 84.1058158,106.30752 84.72,106.46 C85.33,106.62 85.95,106.8 86.55,107 C88.99,107.8 91.37,108.85 93.81,109.68 C95.0225924,110.09697 96.2621133,110.431072 97.52,110.68 C98.1439724,110.803866 98.7752818,110.887372 99.41,110.93 C100.041915,110.989942 100.678085,110.989942 101.31,110.93 C100.041621,111.01201 98.7680703,110.907566 97.53,110.62 C96.2815654,110.33467 95.0524418,109.970609 93.85,109.53 C92.64,109.1 91.44,108.63 90.24,108.16 C89.04,107.69 87.83,107.16 86.6,106.81 C85.99,106.61 85.37,106.43 84.75,106.28 C84.1298109,106.125779 83.4974615,106.025406 82.86,105.98 C81.5869091,105.897949 80.3086113,105.961696 79.05,106.17 C77.7869738,106.36697 76.5377776,106.644198 75.31,107 C74.69,107.18 74.08,107.38 73.47,107.59 C72.86,107.8 72.26,108 71.67,108.27 Z" id="Path" fill="#C9C4C2" fill-rule="nonzero"></path>
            <path d="M73.22,109.85 C74.28,109.65 75.34,109.49 76.41,109.35 C77.48,109.21 78.54,109.08 79.61,109.01 C80.68,108.94 81.74,108.87 82.81,108.89 C83.8791081,108.89792 84.9458599,108.991553 86,109.17 C87.06,109.37 88.1,109.63 89.14,109.92 C90.18,110.21 91.22,110.53 92.27,110.8 C93.32,111.07 94.37,111.31 95.43,111.49 C96.49,111.67 97.56,111.8 98.63,111.9 C96.4921762,111.634434 94.3765654,111.213317 92.3,110.64 C90.22,110.05 88.15,109.36 86.03,108.96 C84.9667011,108.775437 83.8891867,108.685086 82.81,108.69 L82,108.69 C81.73,108.69 81.46,108.69 81.19,108.69 L80.39,108.69 L79.59,108.76 C77.4458685,108.989094 75.3183146,109.35315 73.22,109.85 L73.22,109.85 Z" id="Path" fill="#C9C4C2" fill-rule="nonzero"></path>
            <path d="M67.65,107.48 C67.65,107.48 69.52,107.15 71.95,111.48 C71.95,111.48 71.85,111.78 71.67,111.73 C71.49,111.68 69.8,108.08 67.67,107.99 L67.65,107.48 Z" id="Path" fill="#F39221" fill-rule="nonzero"></path>
            <path d="M71.68,111.7 L107.6,114.25 L107.6,115.35 L71.65,112.8 C70.6746885,114.044485 69.2255301,114.827031 67.65,114.96 L67.65,113.86 C69.55,113.75 71.68,111.7 71.68,111.7 Z" id="Path" fill="#8B6339" fill-rule="nonzero"></path>
            <path d="M42.73,38 L50.17,49.7 L24.91,63.18 L42.73,38 Z M45.47,48.53 L42.57,44 L35.64,53.79 L45.47,48.53 Z" id="Shape" fill="#7C551D" fill-rule="nonzero"></path>
            <polygon id="Path" fill="#402312" fill-rule="nonzero" points="49.83 49.19 49.78 49.11 49.31 49.36 49.36 49.44"></polygon>
            <polygon id="Path" fill="#402312" fill-rule="nonzero" points="49.53 48.71 49.48 48.63 49 48.88 49.05 48.96"></polygon>
            <polygon id="Path" fill="#402312" fill-rule="nonzero" points="49.22 48.22 49.17 48.15 48.7 48.4 48.74 48.48"></polygon>
            <polygon id="Path" fill="#402312" fill-rule="nonzero" points="48.91 47.74 48.86 47.66 48.39 47.92 48.44 47.99"></polygon>
            <polygon id="Path" fill="#402312" fill-rule="nonzero" points="48.6 47.26 48.55 47.18 48.08 47.43 48.13 47.51"></polygon>
            <polygon id="Path" fill="#402312" fill-rule="nonzero" points="48.3 46.78 48.25 46.7 47.77 46.95 47.82 47.03"></polygon>
            <polygon id="Path" fill="#402312" fill-rule="nonzero" points="47.99 46.3 47.94 46.22 47.47 46.47 47.52 46.55"></polygon>
            <polygon id="Path" fill="#402312" fill-rule="nonzero" points="47.68 45.81 47.63 45.73 47.16 45.99 47.21 46.07"></polygon>
            <polygon id="Path" fill="#402312" fill-rule="nonzero" points="47.38 45.33 47.33 45.25 46.85 45.51 46.9 45.58"></polygon>
            <polygon id="Path" fill="#402312" fill-rule="nonzero" points="47.07 44.85 47.02 44.77 46.54 45.02 46.59 45.1"></polygon>
            <polygon id="Path" fill="#402312" fill-rule="nonzero" points="46.76 44.37 46.71 44.29 46.24 44.54 46.29 44.62"></polygon>
            <polygon id="Path" fill="#402312" fill-rule="nonzero" points="46.45 43.89 46.4 43.81 45.93 44.06 45.98 44.14"></polygon>
            <polygon id="Path" fill="#402312" fill-rule="nonzero" points="46.15 43.4 46.1 43.33 45.62 43.58 45.67 43.66"></polygon>
            <polygon id="Path" fill="#402312" fill-rule="nonzero" points="45.84 42.92 45.79 42.84 45.31 43.1 45.37 43.17"></polygon>
            <polygon id="Path" fill="#402312" fill-rule="nonzero" points="45.53 42.44 45.48 42.36 45.01 42.61 45.06 42.69"></polygon>
            <polygon id="Path" fill="#402312" fill-rule="nonzero" points="45.22 41.96 45.17 41.88 44.7 42.13 44.75 42.21"></polygon>
            <polygon id="Path" fill="#402312" fill-rule="nonzero" points="44.92 41.48 44.87 41.4 44.39 41.65 44.44 41.73"></polygon>
            <polygon id="Path" fill="#402312" fill-rule="nonzero" points="44.61 40.99 44.56 40.91 44.09 41.17 44.14 41.25"></polygon>
            <polygon id="Path" fill="#402312" fill-rule="nonzero" points="44.3 40.51 44.25 40.43 43.78 40.69 43.83 40.76"></polygon>
            <polygon id="Path" fill="#402312" fill-rule="nonzero" points="43.99 40.03 43.95 39.95 43.47 40.2 43.52 40.28"></polygon>
            <polygon id="Path" fill="#402312" fill-rule="nonzero" points="43.69 39.55 43.64 39.47 43.16 39.72 43.22 39.8"></polygon>
            <polygon id="Path" fill="#402312" fill-rule="nonzero" points="42.91 39.32 43.38 39.07 43.33 38.99 42.86 39.24"></polygon>
            <polygon id="Path" fill="#402312" fill-rule="nonzero" points="38.47 55.94 38.55 55.89 38.28 55.46 38.19 55.51"></polygon>
            <polygon id="Path" fill="#402312" fill-rule="nonzero" points="38.99 55.66 39.08 55.61 38.8 55.18 38.72 55.23"></polygon>
            <polygon id="Path" fill="#402312" fill-rule="nonzero" points="39.52 55.38 39.61 55.33 39.33 54.9 39.24 54.94"></polygon>
            <polygon id="Path" fill="#402312" fill-rule="nonzero" points="40.05 55.09 40.13 55.05 39.86 54.62 39.77 54.66"></polygon>
            <polygon id="Path" fill="#402312" fill-rule="nonzero" points="40.58 54.81 40.66 54.77 40.38 54.34 40.3 54.38"></polygon>
            <polygon id="Path" fill="#402312" fill-rule="nonzero" points="41.1 54.53 41.19 54.49 40.91 54.05 40.83 54.1"></polygon>
            <polygon id="Path" fill="#402312" fill-rule="nonzero" points="41.63 54.25 41.71 54.21 41.44 53.77 41.35 53.82"></polygon>
            <polygon id="Path" fill="#402312" fill-rule="nonzero" points="42.16 53.97 42.24 53.92 41.97 53.49 41.88 53.54"></polygon>
            <polygon id="Path" fill="#402312" fill-rule="nonzero" points="42.68 53.69 42.77 53.64 42.49 53.21 42.41 53.26"></polygon>
            <polygon id="Path" fill="#402312" fill-rule="nonzero" points="43.21 53.41 43.3 53.36 43.02 52.93 42.93 52.98"></polygon>
            <polygon id="Path" fill="#402312" fill-rule="nonzero" points="43.73 53.13 43.82 53.08 43.55 52.65 43.46 52.7"></polygon>
            <polygon id="Path" fill="#402312" fill-rule="nonzero" points="44.26 52.85 44.35 52.8 44.07 52.37 43.99 52.41"></polygon>
            <polygon id="Path" fill="#402312" fill-rule="nonzero" points="44.79 52.56 44.88 52.52 44.6 52.09 44.51 52.13"></polygon>
            <polygon id="Path" fill="#402312" fill-rule="nonzero" points="45.32 52.28 45.4 52.24 45.13 51.8 45.04 51.85"></polygon>
            <polygon id="Path" fill="#402312" fill-rule="nonzero" points="45.84 52 45.93 51.96 45.65 51.52 45.57 51.57"></polygon>
            <polygon id="Path" fill="#402312" fill-rule="nonzero" points="46.37 51.72 46.45 51.68 46.18 51.24 46.09 51.29"></polygon>
            <polygon id="Path" fill="#402312" fill-rule="nonzero" points="46.9 51.44 46.98 51.4 46.71 50.96 46.62 51.01"></polygon>
            <polygon id="Path" fill="#402312" fill-rule="nonzero" points="47.42 51.16 47.51 51.11 47.23 50.68 47.15 50.73"></polygon>
            <polygon id="Path" fill="#402312" fill-rule="nonzero" points="47.95 50.88 48.04 50.83 47.76 50.4 47.67 50.45"></polygon>
            <polygon id="Path" fill="#402312" fill-rule="nonzero" points="48.48 50.6 48.56 50.55 48.29 50.12 48.2 50.16"></polygon>
            <polygon id="Path" fill="#402312" fill-rule="nonzero" points="49 50.32 49.09 50.27 48.81 49.84 48.73 49.88"></polygon>
            <polygon id="Path" fill="#402312" fill-rule="nonzero" points="49.25 49.6 49.53 50.03 49.62 49.99 49.34 49.56"></polygon>
            <polygon id="Path" fill="#402312" fill-rule="nonzero" points="27.41 61.84 27.49 61.8 27.22 61.36 27.13 61.41"></polygon>
            <polygon id="Path" fill="#402312" fill-rule="nonzero" points="27.93 61.56 28.02 61.52 27.74 61.08 27.66 61.13"></polygon>
            <polygon id="Path" fill="#402312" fill-rule="nonzero" points="28.46 61.28 28.55 61.23 28.27 60.8 28.18 60.85"></polygon>
            <polygon id="Path" fill="#402312" fill-rule="nonzero" points="28.99 61 29.07 60.95 28.8 60.52 28.71 60.57"></polygon>
            <polygon id="Path" fill="#402312" fill-rule="nonzero" points="29.51 60.72 29.6 60.67 29.32 60.24 29.24 60.28"></polygon>
            <polygon id="Path" fill="#402312" fill-rule="nonzero" points="30.04 60.44 30.13 60.39 29.85 59.96 29.76 60"></polygon>
            <polygon id="Path" fill="#402312" fill-rule="nonzero" points="30.57 60.16 30.65 60.11 30.38 59.68 30.29 59.72"></polygon>
            <polygon id="Path" fill="#402312" fill-rule="nonzero" points="31.09 59.88 31.18 59.83 30.9 59.4 30.82 59.44"></polygon>
            <polygon id="Path" fill="#402312" fill-rule="nonzero" points="31.62 59.59 31.71 59.55 31.43 59.12 31.34 59.16"></polygon>
            <polygon id="Path" fill="#402312" fill-rule="nonzero" points="32.15 59.31 32.23 59.27 31.96 58.83 31.87 58.88"></polygon>
            <polygon id="Path" fill="#402312" fill-rule="nonzero" points="32.67 59.03 32.76 58.98 32.48 58.55 32.4 58.6"></polygon>
            <polygon id="Path" fill="#402312" fill-rule="nonzero" points="33.2 58.75 33.29 58.7 33.01 58.27 32.92 58.32"></polygon>
            <polygon id="Path" fill="#402312" fill-rule="nonzero" points="33.73 58.47 33.81 58.42 33.54 57.99 33.45 58.04"></polygon>
            <polygon id="Path" fill="#402312" fill-rule="nonzero" points="34.25 58.19 34.34 58.14 34.06 57.71 33.98 57.76"></polygon>
            <polygon id="Path" fill="#402312" fill-rule="nonzero" points="34.78 57.91 34.87 57.86 34.59 57.43 34.5 57.47"></polygon>
            <polygon id="Path" fill="#402312" fill-rule="nonzero" points="35.31 57.63 35.39 57.58 35.12 57.15 35.03 57.19"></polygon>
            <polygon id="Path" fill="#402312" fill-rule="nonzero" points="35.83 57.34 35.92 57.3 35.64 56.87 35.56 56.91"></polygon>
            <polygon id="Path" fill="#402312" fill-rule="nonzero" points="36.36 57.06 36.45 57.02 36.17 56.59 36.09 56.63"></polygon>
            <polygon id="Path" fill="#402312" fill-rule="nonzero" points="36.89 56.78 36.97 56.74 36.7 56.3 36.61 56.35"></polygon>
            <polygon id="Path" fill="#402312" fill-rule="nonzero" points="37.41 56.5 37.5 56.45 37.22 56.02 37.14 56.07"></polygon>
            <polygon id="Path" fill="#402312" fill-rule="nonzero" points="37.94 56.22 38.03 56.17 37.75 55.74 37.66 55.79"></polygon>
            <ellipse id="Oval" stroke="#FFFFFF" cx="37.54" cy="51.93" rx="19.01" ry="17.39"></ellipse>
            <line x1="50.79" y1="93.95" x2="43.34" y2="68.02" id="Path" stroke="#FFFFFF"></line>
            <ellipse id="Oval" stroke="#FFFFFF" cx="76.9" cy="31.84" rx="20.38" ry="21.45"></ellipse>
            <line x1="72.98" y1="98.56" x2="75.68" y2="53.12" id="Path" stroke="#FFFFFF"></line>
            <ellipse id="Oval" stroke="#FFFFFF" cx="109.36" cy="69.61" rx="20.35" ry="20.72"></ellipse>
            <line x1="98.63" y1="87.93" x2="91.02" y2="98.49" id="Path" stroke="#FFFFFF"></line>
            <path d="M111.84,86.89 L95.28,80.29 C93.830641,79.6568452 93.121788,78.0072304 93.66,76.52 L100,59.24 C100.245663,58.5281859 100.769575,57.9464774 101.451895,57.6279356 C102.134216,57.3093938 102.916569,57.281271 103.62,57.55 L120.18,64.15 C121.629359,64.7831548 122.338212,66.4327696 121.8,67.92 L115.44,85.21 C115.189685,85.9133955 114.667893,86.4871193 113.991329,86.8028488 C113.314766,87.1185782 112.539885,87.149969 111.84,86.89 L111.84,86.89 Z" id="Path" fill="#5F7175" fill-rule="nonzero"></path>
            <path d="M115.43,70 L103,65 C101.976288,64.5709446 101.476591,63.4079328 101.87,62.37 L101.87,62.37 C102.253956,61.3558062 103.376224,60.8323766 104.4,61.19 L116.88,66.19 C117.885424,66.6263025 118.376501,67.7706873 118,68.8 L118,68.8 C117.833851,69.3113824 117.462915,69.7308712 116.975712,69.958359 C116.488509,70.1858467 115.928744,70.2009266 115.43,70 Z" id="Path" fill="#4A4F53" fill-rule="nonzero"></path>
            <path d="M101.38,68.91 L99.87,68.31 C99.4594207,68.1351049 99.2606345,67.6668528 99.42,67.25 L99.67,66.56 C99.73999,66.3648469 99.8847944,66.2055873 100.072428,66.1173996 C100.260061,66.0292119 100.475084,66.0193528 100.67,66.09 L102.18,66.69 C102.563602,66.8592631 102.757722,67.2906411 102.63,67.69 L102.38,68.39 C102.320397,68.5943141 102.179893,68.7653998 101.991067,68.8635897 C101.80224,68.9617796 101.58149,68.9785455 101.38,68.91 L101.38,68.91 Z" id="Path" fill="#E9467A" fill-rule="nonzero"></path>
            <path d="M100.36,71.68 L98.85,71.08 C98.4286291,70.9049005 98.227626,70.4224932 98.4,70 L98.65,69.31 C98.71999,69.1148469 98.8647944,68.9555873 99.0524278,68.8673996 C99.2400612,68.7792119 99.4550838,68.7693528 99.65,68.84 L101.16,69.44 C101.569226,69.6107584 101.768572,70.0758995 101.61,70.49 L101.36,71.19 C101.29407,71.3888113 101.150951,71.552752 100.962859,71.6449168 C100.774768,71.7370815 100.557512,71.7497247 100.36,71.68 Z" id="Path" fill="#4A4F53" fill-rule="nonzero"></path>
            <path d="M105.05,70.37 L103.54,69.77 C103.129421,69.5951049 102.930634,69.1268528 103.09,68.71 L103.34,68.02 C103.40999,67.8248469 103.554794,67.6655873 103.742428,67.5773996 C103.930061,67.4892119 104.145084,67.4793528 104.34,67.55 L105.85,68.15 C106.260579,68.3248951 106.459366,68.7931472 106.3,69.21 L106.05,69.9 C105.98001,70.0951531 105.835206,70.2544127 105.647572,70.3426004 C105.459939,70.4307881 105.244916,70.4406472 105.05,70.37 L105.05,70.37 Z" id="Path" fill="#FBFAFB" fill-rule="nonzero"></path>
            <path d="M104.07,73 L102.56,72.4 C102.175902,72.2308989 101.978466,71.8016917 102.1,71.4 L102.36,70.7 C102.42999,70.5048469 102.574794,70.3455873 102.762428,70.2573996 C102.950061,70.1692119 103.165084,70.1593528 103.36,70.23 L104.87,70.83 C105.276699,71.0087486 105.473898,71.4732621 105.32,71.89 L105.06,72.58 C104.984505,72.7670524 104.837747,72.91642 104.652054,72.9951989 C104.466361,73.0739778 104.256967,73.075705 104.07,73 Z" id="Path" fill="#4A4F53" fill-rule="nonzero"></path>
            <path d="M108.66,71.81 L107.15,71.21 C106.743301,71.0312514 106.546102,70.5667379 106.7,70.15 L106.96,69.46 C107.027699,69.2631466 107.172218,69.1020914 107.360616,69.0135443 C107.549014,68.9249972 107.765237,68.9165038 107.96,68.99 L109.47,69.59 C109.857133,69.7556859 110.052741,70.1903704 109.92,70.59 L109.67,71.29 C109.610639,71.4967175 109.468557,71.6697512 109.27734,71.7681994 C109.086124,71.8666477 108.862743,71.881773 108.66,71.81 L108.66,71.81 Z" id="Path" fill="#FBFAFB" fill-rule="nonzero"></path>
            <path d="M108.18,74.58 L105.73,73.58 C105.595549,73.5368179 105.517085,73.3973254 105.55,73.26 L106.21,71.48 C106.238122,71.4180448 106.290281,71.3702279 106.354441,71.3475831 C106.418601,71.3249384 106.489219,71.3294223 106.55,71.36 L109,72.36 C109.15,72.42 109.23,72.56 109.13,72.83 L108.47,74.61 C108.47,74.61 108.33,74.64 108.18,74.58 Z" id="Path" fill="#4A4F53" fill-rule="nonzero"></path>
            <path d="M99.4,74.38 L97.89,73.78 C97.5028666,73.6143141 97.3072585,73.1796296 97.44,72.78 L97.69,72.08 C97.75999,71.8848469 97.9047944,71.7255873 98.0924278,71.6373996 C98.2800612,71.5492119 98.4950838,71.5393528 98.69,71.61 L100.2,72.21 C100.606699,72.3887486 100.803898,72.8532621 100.65,73.27 L100.39,73.96 C100.228621,74.3454259 99.7892958,74.5318063 99.4,74.38 Z" id="Path" fill="#4A4F53" fill-rule="nonzero"></path>
            <path d="M103.1,75.75 L101.6,75.15 C101.189399,74.9749945 100.987361,74.5094303 101.14,74.09 L101.4,73.4 C101.465635,73.2013203 101.609299,73.0379069 101.797934,72.9473621 C101.986569,72.8568173 102.20393,72.8469389 102.4,72.92 L103.91,73.53 C104.294098,73.6991011 104.491534,74.1283083 104.37,74.53 L104.11,75.23 C104.050639,75.4367175 103.908557,75.6097512 103.71734,75.7081994 C103.526124,75.8066477 103.302743,75.821773 103.1,75.75 L103.1,75.75 Z" id="Path" fill="#4A4F53" fill-rule="nonzero"></path>
            <path d="M107.22,77.28 L104.77,76.28 C104.634106,76.2326075 104.556273,76.0899129 104.59,75.95 L105.24,74.17 C105.306495,74.0432383 105.462944,73.9940684 105.59,74.06 L108.04,75.06 C108.18,75.12 108.27,75.27 108.17,75.53 L107.51,77.31 C107.51,77.31 107.37,77.34 107.22,77.28 Z" id="Path" fill="#4A4F53" fill-rule="nonzero"></path>
            <path d="M98.43,77.1 L96.92,76.5 C96.5328666,76.3343141 96.3372585,75.8996296 96.47,75.5 L96.72,74.8 C96.78999,74.6048469 96.9347944,74.4455873 97.1224278,74.3573996 C97.3100612,74.2692119 97.5250838,74.2593528 97.72,74.33 L99.23,74.93 C99.6405793,75.1048951 99.8393655,75.5731472 99.68,75.99 L99.42,76.68 C99.3445055,76.8670524 99.1977471,77.01642 99.0120541,77.0951989 C98.826361,77.1739778 98.6169673,77.175705 98.43,77.1 Z" id="Path" fill="#4A4F53" fill-rule="nonzero"></path>
            <path d="M102.14,78.47 L100.63,77.87 C100.219399,77.6949945 100.017361,77.2294303 100.17,76.81 L100.43,76.12 C100.497699,75.9231466 100.642218,75.7620914 100.830616,75.6735443 C101.019014,75.5849972 101.235237,75.5765038 101.43,75.65 L102.94,76.25 C103.324098,76.4191011 103.521534,76.8483083 103.4,77.25 L103.14,77.95 C103.082947,78.1560057 102.942826,78.329024 102.753174,78.4276428 C102.563523,78.5262616 102.34141,78.5416048 102.14,78.47 L102.14,78.47 Z" id="Path" fill="#4A4F53" fill-rule="nonzero"></path>
            <path d="M106.25,80 L103.8,79 C103.66718,78.9490395 103.590937,78.80926 103.62,78.67 L104.27,76.89 C104.336495,76.7632383 104.492944,76.7140684 104.62,76.78 L107.07,77.78 C107.22,77.84 107.3,77.99 107.2,78.26 L106.54,80 C106.54,80 106.4,80.06 106.25,80 Z" id="Path" fill="#4A4F53" fill-rule="nonzero"></path>
            <path d="M115.55,77.62 L114,77 C113.589399,76.8249945 113.387361,76.3594303 113.54,75.94 L113.8,75.25 C113.865635,75.0513203 114.009299,74.8879069 114.197934,74.7973621 C114.386569,74.7068173 114.60393,74.6969389 114.8,74.77 L116.31,75.38 C116.694098,75.5491011 116.891534,75.9783083 116.77,76.38 L116.51,77.08 C116.456416,77.2802563 116.324348,77.4504473 116.14367,77.5520792 C115.962991,77.653711 115.748965,77.6781974 115.55,77.62 L115.55,77.62 Z" id="Path" fill="#FBFAFB" fill-rule="nonzero"></path>
            <path d="M115.06,80.39 L112.62,79.39 C112.480104,79.3466243 112.397275,79.2027632 112.43,79.06 L113.09,77.29 C113.117913,77.2253224 113.171818,77.1754227 113.238455,77.1525759 C113.305091,77.1297292 113.378273,77.136056 113.44,77.17 L115.88,78.17 C116.03,78.23 116.11,78.38 116.01,78.65 L115.36,80.43 C115.36,80.43 115.21,80.44 115.06,80.39 Z" id="Path" fill="#FBFAFB" fill-rule="nonzero"></path>
            <path d="M114.1,83.09 L111.66,82.09 C111.521529,82.0509856 111.437968,81.9102508 111.47,81.77 L112.13,79.99 C112.158122,79.9280448 112.210281,79.8802279 112.274441,79.8575831 C112.338601,79.8349384 112.409219,79.8394223 112.47,79.87 L114.92,80.87 C115.07,80.93 115.15,81.07 115.05,81.34 L114.39,83.12 C114.39,83.12 114.25,83.15 114.1,83.09 Z" id="Path" fill="#FBFAFB" fill-rule="nonzero"></path>
            <path d="M113.13,85.81 L110.69,84.81 C110.550104,84.7666243 110.467275,84.6227632 110.5,84.48 L111.16,82.7 C111.222689,82.5751516 111.372833,82.5221596 111.5,82.58 L113.95,83.58 C114.1,83.64 114.18,83.78 114.08,84.05 L113.43,85.83 C113.43,85.83 113.28,85.87 113.13,85.81 Z" id="Path" fill="#FBFAFB" fill-rule="nonzero"></path>
            <path d="M97.42,79.85 L95.91,79.25 C95.4953962,79.0791484 95.2949301,78.6069395 95.46,78.19 L95.71,77.5 C95.77999,77.3048469 95.9247944,77.1455873 96.1124278,77.0573996 C96.3000612,76.9692119 96.5150838,76.9593528 96.71,77.03 L98.22,77.63 C98.6253119,77.8046874 98.8230276,78.2660242 98.67,78.68 L98.41,79.38 C98.3421523,79.5744294 98.1992515,79.7335804 98.0132237,79.8218967 C97.8271959,79.9102129 97.6135437,79.9203344 97.42,79.85 Z" id="Path" fill="#4A4F53" fill-rule="nonzero"></path>
            <path d="M101.12,81.22 L99.62,80.61 C99.2359017,80.4408989 99.0384664,80.0116917 99.16,79.61 L99.42,78.91 C99.4876989,78.7131466 99.6322178,78.5520914 99.8206158,78.4635443 C100.009014,78.3749972 100.225237,78.3665038 100.42,78.44 L101.93,79.04 C102.340601,79.2150055 102.542639,79.6805697 102.39,80.1 L102.13,80.8 C101.964358,81.1921614 101.51487,81.3790769 101.12,81.22 Z" id="Path" fill="#4A4F53" fill-rule="nonzero"></path>
            <path d="M105.21,82.84 L102.76,81.84 C102.620707,81.7966848 102.541005,81.6505635 102.58,81.51 L103.23,79.73 C103.296495,79.6032383 103.452944,79.5540684 103.58,79.62 L106.02,80.62 C106.17,80.68 106.25,80.83 106.15,81.09 L105.5,82.87 C105.5,82.87 105.35,82.9 105.21,82.84 Z" id="Path" fill="#4A4F53" fill-rule="nonzero"></path>
            <path d="M112.51,73.43 L111,72.83 C110.593301,72.6512514 110.396102,72.1867379 110.55,71.77 L110.81,71.08 C110.875635,70.8813203 111.019299,70.7179069 111.207934,70.6273621 C111.396569,70.5368173 111.61393,70.5269389 111.81,70.6 L113.32,71.21 C113.733288,71.3766321 113.934362,71.8458035 113.77,72.26 L113.52,72.96 C113.450133,73.1575681 113.303706,73.3187128 113.113712,73.4071258 C112.923718,73.4955389 112.70614,73.5037828 112.51,73.43 L112.51,73.43 Z" id="Path" fill="#FBFAFB" fill-rule="nonzero"></path>
            <path d="M111.7,76 L110.19,75.4 C109.779421,75.2251049 109.580634,74.7568528 109.74,74.34 L109.99,73.65 C110.05999,73.4548469 110.204794,73.2955873 110.392428,73.2073996 C110.580061,73.1192119 110.795084,73.1093528 110.99,73.18 L112.5,73.78 C112.883602,73.9492631 113.077722,74.3806411 112.95,74.78 L112.7,75.48 C112.640397,75.6843141 112.499893,75.8553998 112.311067,75.9535897 C112.12224,76.0517796 111.90149,76.0685455 111.7,76 L111.7,76 Z" id="Path" fill="#FBFAFB" fill-rule="nonzero"></path>
            <path d="M110.78,78.49 L109.27,77.89 C108.859399,77.7149945 108.657361,77.2494303 108.81,76.83 L109.07,76.14 C109.13999,75.9448469 109.284794,75.7855873 109.472428,75.6973996 C109.660061,75.6092119 109.875084,75.5993528 110.07,75.67 L111.58,76.27 C111.960192,76.4426795 112.152904,76.8709274 112.03,77.27 L111.77,77.97 C111.712675,78.1735932 111.574127,78.3446418 111.386877,78.4429957 C111.199626,78.5413496 110.980162,78.5583477 110.78,78.49 L110.78,78.49 Z" id="Path" fill="#FBFAFB" fill-rule="nonzero"></path>
            <path d="M116.39,74.89 L114.88,74.29 C114.469421,74.1151049 114.270634,73.6468528 114.43,73.23 L114.69,72.54 C114.755286,72.3413867 114.899508,72.1784394 115.08872,72.0895099 C115.277931,72.0005803 115.495421,71.9935234 115.69,72.07 L117.2,72.67 C117.587133,72.8356859 117.782741,73.2703704 117.65,73.67 L117.4,74.37 C117.340639,74.5767175 117.198557,74.7497512 117.00734,74.8481994 C116.816124,74.9466477 116.592743,74.961773 116.39,74.89 L116.39,74.89 Z" id="Path" fill="#FBFAFB" fill-rule="nonzero"></path>
            <path d="M108.29,83.61 L107.83,83.43 C107.19031,83.1582269 106.877539,82.4313654 107.12,81.78 L107.97,79.47 C108.080446,79.159315 108.311009,78.9059836 108.609951,78.7668534 C108.908893,78.6277232 109.251179,78.6144456 109.56,78.73 L110.02,78.92 C110.658322,79.1876571 110.971642,79.9113827 110.73,80.56 L109.87,82.88 C109.764413,83.1916565 109.535478,83.4462808 109.236763,83.5842947 C108.938048,83.7223086 108.595764,83.7316018 108.29,83.61 Z" id="Path" fill="#FBFAFB" fill-rule="nonzero"></path>
            <polygon id="Path" fill="#616160" fill-rule="nonzero" points="68.02 39.07 67.41 42.13 69.79 39.3"></polygon>
            <polygon id="Path" fill="#616160" fill-rule="nonzero" points="76.23 47.74 76.9 51.09 78.37 47.57"></polygon>
            <polygon id="Path" fill="#7C551D" fill-rule="nonzero" points="77.63 16.32 78.07 12.58 79.97 12.75 79.13 16.88"></polygon>
            <polygon id="Path" fill="#9E7437" fill-rule="nonzero" points="74.96 21.23 76.23 20.83 77.63 22.67 70.27 39.47 68.43 39.81 67.41 39.07"></polygon>
            <polygon id="Path" fill="#7C551D" fill-rule="nonzero" points="76.48 22.04 75.79 47.78 77.25 48.99 78.9 48.19 80.23 22.32 78.33 21.23"></polygon>
            <polygon id="Path" fill="#9C6C27" fill-rule="nonzero" points="76.17 21.12 76.58 16.1 79.97 16.33 78.96 22.29 76.48 22.29"></polygon>
        </g>
    </g>
</svg>