<svg xmlns="http://www.w3.org/2000/svg" width="30" height="30" viewBox="0 0 30 30">
    <g fill="none" fill-rule="evenodd">
        <g>
            <g>
                <g>
                    <path fill="#B6C7E1" d="M10.625 19.853c-2.215.058-4.4-.52-6.298-1.666L0 22.5V9.926l.007.004c0-.06-.007-.117-.007-.18C0 3.98 3.904 0 10.625 0c6.72 0 10.625 4.157 10.625 9.926s-3.904 9.927-10.625 9.927z" transform="translate(-41 -496) translate(41 496) translate(4.375 3.75)"/>
                    <path fill="#0C0058" d="M15.621 8.119c1.036 0 1.875.84 1.875 1.875 0 1.035-.84 1.875-1.875 1.875-1.035 0-1.875-.84-1.875-1.875 0-1.036.84-1.875 1.875-1.875zm-4.996.006c1.036 0 1.875.84 1.875 1.875 0 1.036-.84 1.875-1.875 1.875-1.036 0-1.875-.84-1.875-1.875 0-1.036.84-1.875 1.875-1.875zm-5 0c1.036 0 1.875.84 1.875 1.875 0 1.036-.84 1.875-1.875 1.875-1.036 0-1.875-.84-1.875-1.875 0-1.036.84-1.875 1.875-1.875z" transform="translate(-41 -496) translate(41 496) translate(4.375 3.75)"/>
                </g>
            </g>
        </g>
    </g>
</svg>
