<?xml version="1.0" encoding="UTF-8"?>
<svg width="133px" height="134px" viewBox="0 0 133 134" version="1.1" xmlns="http://www.w3.org/2000/svg" xmlns:xlink="http://www.w3.org/1999/xlink">
    <title>subjects/music</title>
    <g id="subjects/music" stroke="none" stroke-width="1" fill="none" fill-rule="evenodd">
        <g id="subjects-(2)" fill-rule="nonzero">
            <circle id="Oval" fill="#53B976" cx="66.5" cy="66.5" r="66.5"></circle>
            <g id="Group" transform="translate(31.000000, 32.000000)">
                <g id="Path">
                    <path d="M69.6231805,34.572 C67.7979424,80.180208 2.0099239,80.175822 0.18755122,34.571742 C-0.139881951,11.395344 23.9797259,-5.676 45.9815678,1.973958 C59.8053951,6.463416 69.7487356,19.890768 69.6231805,34.572 Z" fill="#EA792E"></path>
                    <path d="M69.2011902,29.3991 C69.2011902,44.77848 56.6144195,57.24762 41.0841366,57.24762 C3.7893161,55.779858 3.79634927,3.012408 41.0843971,1.55058 C42.7538634,1.55058 44.3923317,1.69506 45.9813073,1.9737 C58.0908644,6.014754 67.3449541,16.559472 69.2011902,29.3991 L69.2011902,29.3991 Z" fill="#F39E22"></path>
                    <path d="M59.4355024,39.732 C56.5581541,39.732 54.2257463,37.421868 54.2257463,34.572 C54.2257463,24.020574 45.5587961,15.43614 34.9053659,15.43614 C32.0280176,15.43614 29.6956098,13.126008 29.6956098,10.27614 C29.6956098,7.426272 32.0280176,5.11614 34.9053659,5.11614 C51.3038546,5.11614 64.6452585,18.330126 64.6452585,34.572 C64.6452585,37.421868 62.3128507,39.732 59.4355024,39.732 Z" fill="#F9C744"></path>
                    <path d="M34.9053659,64.02786 C18.5068771,64.02786 5.16547317,50.813874 5.16547317,34.572 C5.16547317,31.722132 7.49788098,29.412 10.3752293,29.412 C13.2525776,29.412 15.5849854,31.722132 15.5849854,34.572 C15.5849854,45.123426 24.2519356,53.70786 34.9053659,53.70786 C41.8067298,53.973858 41.822359,63.754638 34.9053659,64.02786 Z" fill="#DD5E26"></path>
                    <path d="M40.5009044,34.572 C40.5009044,31.511088 37.9957932,29.029902 34.9053659,29.029902 C27.4830263,29.3217 27.4851102,39.823332 34.9053659,40.114098 C37.9957932,40.114098 40.5009044,37.632912 40.5009044,34.572 Z" fill="#DD5E26"></path>
                    <path d="M38.6978078,33.678804 C38.6978078,32.173116 37.46544,30.952518 35.9452332,30.952518 C32.2939756,31.096224 32.2950176,36.262158 35.9452332,36.405348 C37.46544,36.40509 38.6978078,35.184492 38.6978078,33.678804 L38.6978078,33.678804 Z" fill="#F9C744"></path>
                    <path d="M57.1426888,15.655956 C57.1426888,10.991574 53.3249795,7.210326 48.6156205,7.210326 C37.3044585,7.655118 37.3078449,23.6586 48.6156205,24.101586 C53.3249795,24.101844 57.1426888,20.320596 57.1426888,15.655956 L57.1426888,15.655956 Z" fill="#FBD9A3"></path>
                </g>
                <g transform="translate(18.494634, 26.058000)" id="Path">
                    <g transform="translate(26.830244, 0.000000)">
                        <path d="M39.9041268,8.486136 C39.8533317,18.72435 39.6806283,28.485264 37.6613268,36.949986 C36.1947805,42.839352 33.6495541,47.77773 28.5265405,50.77569 C21.6621659,54.84048 10.6549932,54.144654 2.07895317,54.31158 C1.07086537,54.31158 0.252412683,53.503524 0.252412683,52.502484 C0.252412683,51.504024 1.07060488,50.693388 2.07895317,50.693388 C3.19175707,50.693388 9.47316,50.683842 10.5057337,50.661912 C18.5274556,50.372436 26.0073629,50.064384 30.5698068,44.183532 C34.9478254,38.090088 35.5156888,29.015196 36.0272868,20.022606 C36.1804537,16.599978 36.2513063,12.772032 36.2513063,8.485878 C36.2513063,7.48716 37.0671541,6.676782 38.0778468,6.676782 C39.0859346,6.677298 39.9041268,7.487676 39.9041268,8.486136 L39.9041268,8.486136 Z" fill="#C1B7D3"></path>
                        <g transform="translate(29.435122, 0.000000)">
                            <path d="M10.4690049,5.23482 L10.4690049,11.245446 C10.4690049,11.959332 10.3228712,12.639678 10.0550898,13.259394 C9.2660722,15.10461 7.41765073,16.39977 5.26497951,16.39977 C2.38893366,16.39977 0.0583022093,14.091444 0.0583022093,11.245446 L0.0583022093,5.23482 C0.0461063415,2.391144 2.42436,0.063468 5.26497951,0.0804031651 C8.13842049,0.0804031651 10.4690049,2.388564 10.4690049,5.23482 Z" fill="#9F90AE"></path>
                            <path d="M10.4690049,5.23482 L10.4690049,11.245446 C10.4690049,11.959332 10.3228712,12.639678 10.0550898,13.259394 C6.69036878,15.360288 2.08859122,12.8226 2.14798244,8.852496 L2.14798244,2.84187 C2.14798244,2.127984 2.2941161,1.447638 2.55955317,0.827922 C5.92583707,-1.267038 10.5276146,1.264716 10.4690049,5.23482 L10.4690049,5.23482 Z" fill="#EBD9EA"></path>
                            <path d="M9.10248585,5.077698 C9.10248585,3.549306 7.85162341,2.31039 6.30849366,2.31039 C2.60227317,2.45616 2.60331512,7.699752 6.30849366,7.845006 C7.85136293,7.845006 9.10248585,6.60609 9.10248585,5.077698 Z" fill="#FFFFFF"></path>
                        </g>
                        <path d="M39.4680702,23.97594 C38.7540732,32.638806 37.9931883,40.091394 33.4995132,46.34712 C29.3723444,51.659598 24.2326595,53.154708 17.0176683,53.935158 C14.6334234,53.242944 12.432041,52.12374 10.5057337,50.661912 C17.4128283,50.401074 22.096399,50.229504 27.0482722,47.398728 C34.9217766,42.494148 35.4075863,29.948124 36.0270263,20.022606 C37.3422293,21.182832 38.5014,22.51179 39.4680702,23.97594 L39.4680702,23.97594 Z" fill="#EBD9EA"></path>
                        <path d="M37.6613268,36.949986 C36.1924361,42.837288 33.6513776,47.779278 28.526801,50.775432 C26.5421444,50.75118 24.6960673,50.148234 23.1571054,49.128102 C30.6667083,46.742634 33.0608517,41.603274 34.7123444,33.247428 C35.9759707,34.219572 36.996562,35.488416 37.6613268,36.949986 L37.6613268,36.949986 Z" fill="#FFFFFF"></path>
                    </g>
                    <g transform="translate(0.000000, 42.828000)">
                        <path d="M22.0687873,0.07224 L10.7524156,0.07224 C4.93702537,0.07224 0.222977561,4.741524 0.222977561,10.501116 C0.222977561,12.64458 1.97736293,14.38221 4.14149561,14.38221 L28.6799678,14.38221 C30.8441005,14.38221 32.5984859,12.64458 32.5984859,10.501116 C32.5984859,4.741524 27.8841776,0.07224 22.0687873,0.07224 Z" fill="#9F90AE"></path>
                        <path d="M23.1386107,2.278656 L13.2900878,2.278656 C9.43382634,2.278656 6.3077122,5.374914 6.3077122,9.194346 C6.3077122,10.615668 7.47105073,11.767896 8.90607805,11.767896 L27.522881,11.767896 C28.9579083,11.767896 30.1212468,10.615668 30.1212468,9.194346 C30.1209863,5.374914 26.9948722,2.278656 23.1386107,2.278656 L23.1386107,2.278656 Z" fill="#C1B7D3"></path>
                        <path d="M23.1966995,8.482008 L16.1200273,8.482008 C14.3903883,8.482008 12.9884429,7.093194 12.9884429,5.380332 C12.9884429,3.667212 14.3906488,2.278656 16.1200273,2.278656 L23.1966995,2.278656 C27.3501776,2.444292 27.352522,8.315598 23.1966995,8.482008 Z" fill="#EBD9EA"></path>
                    </g>
                </g>
            </g>
            <g id="Group" transform="translate(10.000000, 16.000000)" fill="#9175A7">
                <g transform="translate(0.000000, 64.585532)" id="Path">
                    <path d="M30.9739698,26.3322183 C30.6021509,26.3322183 30.2266868,26.2261532 29.8941849,26.0047915 C21.4975358,20.4173617 14.9360264,12.1337464 11.4183283,2.68056 C11.0423434,1.66958809 11.5565887,0.545070638 12.5673736,0.168495319 C13.5778981,-0.207298723 14.7024679,0.306781277 15.0789736,1.31775319 C18.3112981,10.0052885 24.341117,17.6177872 32.0576604,22.7525974 C33.6626264,23.8122689 32.875766,26.3477719 30.9739698,26.3322183 Z"></path>
                    <path d="M24.3760075,36.2684988 C24.0041887,36.2684988 23.6287245,36.1624289 23.2962226,35.9410672 C12.8173358,28.9679132 4.62846792,18.6298009 0.238245283,6.83226383 C-0.137739623,5.82129191 0.37650566,4.69677447 1.38729057,4.32019915 C2.39833585,3.94466553 3.52264528,4.45848511 3.89889057,5.46945702 C8.004,16.501343 15.6611774,26.1680783 25.4596981,32.6888732 C27.063883,33.7467217 26.2788453,36.2845685 24.3760075,36.2684988 Z"></path>
                </g>
                <g transform="translate(79.935849, 0.000000)" id="Path">
                    <path d="M19.818883,36.4155626 C19.0262943,36.4155626 18.2810943,35.9296085 17.9884302,35.1431234 C14.7571472,26.459234 8.72706792,18.8482979 1.00870189,13.7121855 C0.110920755,13.1147694 -0.13305283,11.9022281 0.464513208,11.0042809 C1.06155849,10.1063336 2.27413585,9.86257532 3.17191698,10.4599915 C11.5706491,16.0487234 18.1324189,24.3307762 21.6488151,33.780577 C22.1398868,35.0230672 21.1475887,36.4392613 19.818883,36.4155626 L19.818883,36.4155626 Z"></path>
                    <path d="M30.9997472,32.2641521 C30.2071585,32.2641521 29.4619585,31.7779047 29.1692943,30.9914196 C25.0644453,19.9603149 17.4075283,10.2941004 7.60848679,3.77356596 C6.71070566,3.17614979 6.46673208,1.96360851 7.06429811,1.06566128 C7.66160377,0.167453617 8.87392075,-0.0757838298 9.77170189,0.521371915 C20.2511094,7.49426553 28.439717,17.831857 32.8296792,29.6288732 C33.3204906,30.871103 32.3284528,32.2875574 30.9997472,32.2641521 L30.9997472,32.2641521 Z"></path>
                </g>
            </g>
        </g>
    </g>
</svg>