<svg xmlns="http://www.w3.org/2000/svg" width="150" height="120" viewBox="0 0 150 120">
    <g fill="none" fill-rule="evenodd">
        <g>
            <g>
                <g>
                    <path fill="#DEEDF6" d="M124.2 39c2.32 0 4.2 1.88 4.2 4.2 0 2.32-1.88 4.2-4.2 4.2h-24c2.32 0 4.2 1.88 4.2 4.2 0 2.32-1.88 4.2-4.2 4.2h13.2c2.32 0 4.2 1.88 4.2 4.2 0 2.32-1.88 4.2-4.2 4.2h-6.104c-2.925 0-5.296 1.88-5.296 4.2 0 1.546 1.2 2.946 3.6 4.2 2.32 0 4.2 1.88 4.2 4.2 0 2.32-1.88 4.2-4.2 4.2H55.8c-2.32 0-4.2-1.88-4.2-4.2 0-2.32 1.88-4.2 4.2-4.2H32.4c-2.32 0-4.2-1.88-4.2-4.2 0-2.32 1.88-4.2 4.2-4.2h24c2.32 0 4.2-1.88 4.2-4.2 0-2.32-1.88-4.2-4.2-4.2h-15c-2.32 0-4.2-1.88-4.2-4.2 0-2.32 1.88-4.2 4.2-4.2h24c-2.32 0-4.2-1.88-4.2-4.2 0-2.32 1.88-4.2 4.2-4.2h58.8zm0 16.8c2.32 0 4.2 1.88 4.2 4.2 0 2.32-1.88 4.2-4.2 4.2-2.32 0-4.2-1.88-4.2-4.2 0-2.32 1.88-4.2 4.2-4.2z" transform="translate(-738 -392) translate(670 365) translate(68 27)"/>
                    <path fill="#FFF" stroke="#B7D6EB" stroke-linecap="round" stroke-width="1.5" d="M92.203 38.4l5.581 40.706.502 4.083c.161 1.316-.774 2.513-2.09 2.675L61.06 90.178c-1.316.162-2.513-.774-2.675-2.09l-5.41-44.056c-.08-.658.388-1.256 1.046-1.337l.012-.002 2.915-.327m2.357-.264l2.753-.309" transform="translate(-738 -392) translate(670 365) translate(68 27)"/>
                    <path fill="#EBF5FB" d="M93.42 42.933l.519 37.23v3.73c0 1.2-.963 2.174-2.15 2.174H60.088c-1.187 0-2.15-.974-2.15-2.175V43.767c0-.663.538-1.2 1.2-1.2h3.923" transform="translate(-738 -392) translate(670 365) translate(68 27) rotate(-7 75.939 64.317)"/>
                    <path fill="#FFF" stroke="#B7D6EB" stroke-width="1.5" d="M93.737 30.75c.438 0 .857.174 1.167.483h0l8.065 8.06c.31.31.484.73.484 1.168h0V78c0 .456-.185.868-.483 1.167-.299.298-.711.483-1.167.483h0-35.4c-.456 0-.868-.185-1.167-.483-.298-.299-.483-.711-.483-1.167h0V32.4c0-.456.185-.868.483-1.167.299-.298.711-.483 1.167-.483h0z" transform="translate(-738 -392) translate(670 365) translate(68 27)"/>
                    <path stroke="#B7D6EB" stroke-linecap="round" stroke-linejoin="round" stroke-width="1.5" d="M94.003 31.442V38.4c0 .994.806 1.8 1.8 1.8h4.76M71.203 40.2h15.6m-15.6 7.2h25.8m-25.8 7.8h25.8m-25.8 7.8h25.8m-25.8 7.8h15.6" transform="translate(-738 -392) translate(670 365) translate(68 27)"/>
                </g>
            </g>
        </g>
    </g>
</svg>
