<svg xmlns="http://www.w3.org/2000/svg" width="250" height="200" viewBox="0 0 250 200">
    <g fill="none" fill-rule="evenodd">
        <g>
            <g>
                <g>
                    <path fill="#DEEDF6" d="M207 65c3.866 0 7 3.134 7 7s-3.134 7-7 7h-40c3.866 0 7 3.134 7 7s-3.134 7-7 7h22c3.866 0 7 3.134 7 7s-3.134 7-7 7h-10.174c-4.874 0-8.826 3.134-8.826 7 0 2.577 2 4.91 6 7 3.866 0 7 3.134 7 7s-3.134 7-7 7H93c-3.866 0-7-3.134-7-7s3.134-7 7-7H54c-3.866 0-7-3.134-7-7s3.134-7 7-7h40c3.866 0 7-3.134 7-7s-3.134-7-7-7H69c-3.866 0-7-3.134-7-7s3.134-7 7-7h40c-3.866 0-7-3.134-7-7s3.134-7 7-7h98zm0 28c3.866 0 7 3.134 7 7s-3.134 7-7 7-7-3.134-7-7 3.134-7 7-7z" transform="translate(-836 -325) translate(748 325) translate(88)"/>
                    <g stroke-width="2.5" transform="translate(-836 -325) translate(748 325) translate(88) translate(87 66)">
                        <circle cx="33.5" cy="33.5" r="33.5" fill="#F3F7FF" stroke="#B7D6EB"/>
                        <path fill="#FFF" stroke="#B7D6EB" stroke-linecap="round" d="M28.132 59.494c1.759.325 3.548.493 5.368.506C48.136 60 60 48.136 60 33.5S48.136 7 33.5 7c-3.76 0-7.336.783-10.576 2.195C17.294 11.648 12.682 16 9.896 21.442 8.045 25.059 7 29.157 7 33.5c0 3.94.86 7.68 2.402 11.04 1.101 2.4 2.55 4.606 4.282 6.556"/>
                        <path stroke="#B7D6EB" stroke-linecap="round" d="M16.797 54.075c2.149 1.746 4.575 3.162 7.204 4.172"/>
                        <path stroke="#A2CAE5" stroke-linecap="round" d="M34 15c-1.723 0-3.392.23-4.979.659C20.943 17.847 15 25.229 15 34"/>
                        <path stroke="#B7D6EB" d="M61 60L67 66"/>
                        <path fill="#E7F4FD" stroke="#B7D6EB" d="M69.457 63.61c1.24 0 2.481.474 3.427 1.42h0L83.97 76.116c.946.946 1.42 2.186 1.42 3.427 0 1.24-.474 2.48-1.42 3.427-.947.946-2.187 1.42-3.427 1.42-1.24 0-2.481-.474-3.427-1.42h0L66.03 71.884c-.946-.946-1.42-2.186-1.42-3.427 0-1.24.474-2.48 1.42-3.427.947-.946 2.187-1.42 3.427-1.42z"/>
                        <path stroke="#FFF" stroke-linecap="round" d="M71 67L82 78"/>
                    </g>
                    <path stroke="#A2CAE5" stroke-linecap="round" stroke-linejoin="round" stroke-width="2.5" d="M180.5 92h-17.176m24.176 0h-2.221m-11.103 7.777H166M79.5 113H62.324m-5.824 0h-4.221m31.897 8.777H76" transform="translate(-836 -325) translate(748 325) translate(88)"/>
                </g>
            </g>
        </g>
    </g>
</svg>
