<svg xmlns="http://www.w3.org/2000/svg" width="18" height="15" viewBox="0 0 18 15">
    <defs>
        <filter id="o94h6xb3na">
            <feColorMatrix in="SourceGraphic" values="0 0 0 0 0.207843 0 0 0 0 0.250980 0 0 0 0 0.321569 0 0 0 1.000000 0"/>
        </filter>
    </defs>
    <g fill="none" fill-rule="evenodd">
        <g>
            <g filter="url(#o94h6xb3na)" transform="translate(-693 -756) translate(676 644)">
                <g fill="#000" fill-rule="nonzero">
                    <path d="M16.957.026H.526C.236.026 0 .357 0 .763c0 .405.236.736.525.736h16.433c.288 0 .525-.331.525-.736 0-.406-.237-.737-.526-.737zM12.075 4.307H.525c-.289 0-.525.331-.525.737 0 .405.236.737.525.737h11.55c.289 0 .525-.332.525-.737 0-.406-.236-.737-.525-.737zM16.957 8.64H.526C.236 8.64 0 8.97 0 9.375c0 .406.236.737.525.737h16.433c.288 0 .525-.331.525-.737 0-.405-.237-.737-.526-.737zM7.928 12.92H.525c-.289 0-.525.332-.525.737 0 .406.236.737.525.737h7.402c.29 0 .526-.331.526-.737 0-.405-.237-.736-.525-.736z" transform="translate(17 112)"/>
                </g>
            </g>
        </g>
    </g>
</svg>
