<?xml version="1.0" encoding="UTF-8"?>
<svg width="133px" height="134px" viewBox="0 0 133 134" version="1.1" xmlns="http://www.w3.org/2000/svg" xmlns:xlink="http://www.w3.org/1999/xlink">
    <title>subjects/physical education</title>
    <defs>
        <linearGradient x1="48.3629991%" y1="97.25179%" x2="48.3629991%" y2="0.0123631117%" id="linearGradient-1">
            <stop stop-color="#3A223C" offset="0%"></stop>
            <stop stop-color="#783C65" offset="100%"></stop>
        </linearGradient>
        <linearGradient x1="50%" y1="100%" x2="50%" y2="0%" id="linearGradient-2">
            <stop stop-color="#EE7541" offset="0%"></stop>
            <stop stop-color="#E51649" offset="100%"></stop>
        </linearGradient>
        <linearGradient x1="15085.0123%" y1="100%" x2="15085.0123%" y2="0%" id="linearGradient-3">
            <stop stop-color="#EE7541" offset="0%"></stop>
            <stop stop-color="#E51649" offset="100%"></stop>
        </linearGradient>
        <linearGradient x1="50%" y1="100%" x2="50%" y2="0%" id="linearGradient-4">
            <stop stop-color="#37948E" offset="0%"></stop>
            <stop stop-color="#22647B" offset="100%"></stop>
        </linearGradient>
        <linearGradient x1="15546.1916%" y1="100%" x2="15546.1916%" y2="0%" id="linearGradient-5">
            <stop stop-color="#37948E" offset="0%"></stop>
            <stop stop-color="#22647B" offset="100%"></stop>
        </linearGradient>
        <linearGradient x1="34830.7507%" y1="97.2515351%" x2="34830.7507%" y2="0.0030902087%" id="linearGradient-6">
            <stop stop-color="#3A223C" offset="0%"></stop>
            <stop stop-color="#783C65" offset="100%"></stop>
        </linearGradient>
        <linearGradient x1="49.8678996%" y1="100%" x2="49.8678996%" y2="0.0157453448%" id="linearGradient-7">
            <stop stop-color="#227D94" offset="0%"></stop>
            <stop stop-color="#53B689" offset="100%"></stop>
        </linearGradient>
        <linearGradient x1="0.0738552437%" y1="50.0025827%" x2="100%" y2="50.0025827%" id="linearGradient-8">
            <stop stop-color="#EE7541" offset="0%"></stop>
            <stop stop-color="#E51649" offset="100%"></stop>
        </linearGradient>
        <linearGradient x1="-0.00677123481%" y1="50%" x2="100%" y2="50%" id="linearGradient-9">
            <stop stop-color="#EC628E" offset="0%"></stop>
            <stop stop-color="#9C186C" offset="92%"></stop>
        </linearGradient>
        <linearGradient x1="67.4040816%" y1="90.7142857%" x2="32.4897959%" y2="9.14285714%" id="linearGradient-10">
            <stop stop-color="#A02458" offset="0%"></stop>
            <stop stop-color="#7D1142" offset="100%"></stop>
        </linearGradient>
        <linearGradient x1="50.0705659%" y1="100%" x2="50.0705659%" y2="3.46606213e-13%" id="linearGradient-11">
            <stop stop-color="#EC628E" offset="0%"></stop>
            <stop stop-color="#9C186C" offset="92%"></stop>
        </linearGradient>
        <linearGradient x1="9651.71419%" y1="89.3203848%" x2="9682.81899%" y2="7.76695992%" id="linearGradient-12">
            <stop stop-color="#A02458" offset="0%"></stop>
            <stop stop-color="#7D1142" offset="100%"></stop>
        </linearGradient>
        <linearGradient x1="0.00155563387%" y1="50%" x2="100%" y2="50%" id="linearGradient-13">
            <stop stop-color="#76BD75" offset="0%"></stop>
            <stop stop-color="#227D52" offset="87%"></stop>
        </linearGradient>
        <linearGradient x1="49.9051233%" y1="100%" x2="49.9051233%" y2="0%" id="linearGradient-14">
            <stop stop-color="#4F9A34" offset="0%"></stop>
            <stop stop-color="#0E372D" offset="100%"></stop>
        </linearGradient>
        <linearGradient x1="0.114208499%" y1="50%" x2="100%" y2="50%" id="linearGradient-15">
            <stop stop-color="#237649" offset="17%"></stop>
            <stop stop-color="#A0C96C" offset="100%"></stop>
        </linearGradient>
        <linearGradient x1="50.0314958%" y1="100.237884%" x2="50.0314958%" y2="0.802319699%" id="linearGradient-16">
            <stop stop-color="#4F9A34" offset="0%"></stop>
            <stop stop-color="#0E372D" offset="100%"></stop>
        </linearGradient>
        <linearGradient x1="0.0853960761%" y1="50%" x2="100%" y2="50%" id="linearGradient-17">
            <stop stop-color="#227D94" offset="0%"></stop>
            <stop stop-color="#53B689" offset="100%"></stop>
        </linearGradient>
        <linearGradient x1="50%" y1="100%" x2="50%" y2="0%" id="linearGradient-18">
            <stop stop-color="#227D94" offset="0%"></stop>
            <stop stop-color="#36A66B" offset="100%"></stop>
        </linearGradient>
        <linearGradient x1="50.0705659%" y1="100%" x2="50.0705659%" y2="-6.93212425e-13%" id="linearGradient-19">
            <stop stop-color="#227D94" offset="0%"></stop>
            <stop stop-color="#53B689" offset="100%"></stop>
        </linearGradient>
        <linearGradient x1="9395.90601%" y1="89.3203848%" x2="9426.73701%" y2="7.5242414%" id="linearGradient-20">
            <stop stop-color="#227D94" offset="0%"></stop>
            <stop stop-color="#36A66B" offset="100%"></stop>
        </linearGradient>
        <linearGradient x1="50%" y1="100%" x2="50%" y2="0%" id="linearGradient-21">
            <stop stop-color="#0A2C40" offset="0%"></stop>
            <stop stop-color="#134A55" offset="100%"></stop>
        </linearGradient>
        <linearGradient x1="0%" y1="50%" x2="99.9991109%" y2="50%" id="linearGradient-22">
            <stop stop-color="#F3F2BA" offset="2%"></stop>
            <stop stop-color="#73647B" offset="100%"></stop>
        </linearGradient>
        <linearGradient x1="50.0929752%" y1="99.54397%" x2="50.0929752%" y2="-0.217250044%" id="linearGradient-23">
            <stop stop-color="#915A61" offset="0%"></stop>
            <stop stop-color="#64375E" offset="100%"></stop>
        </linearGradient>
        <linearGradient x1="50%" y1="100%" x2="50%" y2="0%" id="linearGradient-24">
            <stop stop-color="#0A2C40" offset="0%"></stop>
            <stop stop-color="#134A55" offset="100%"></stop>
        </linearGradient>
        <linearGradient x1="-8.00156637e-14%" y1="50.0002563%" x2="99.9994874%" y2="50.0002563%" id="linearGradient-25">
            <stop stop-color="#F4F3F5" offset="2%"></stop>
            <stop stop-color="#73647B" offset="79%"></stop>
            <stop stop-color="#C1959D" offset="100%"></stop>
        </linearGradient>
        <linearGradient x1="50%" y1="100%" x2="50%" y2="-1.39322105e-13%" id="linearGradient-26">
            <stop stop-color="#3A223C" offset="0%"></stop>
            <stop stop-color="#783C65" offset="100%"></stop>
        </linearGradient>
        <linearGradient x1="0%" y1="50.132626%" x2="100.177096%" y2="50.132626%" id="linearGradient-27">
            <stop stop-color="#F3F2BA" offset="2%"></stop>
            <stop stop-color="#73647B" offset="100%"></stop>
        </linearGradient>
    </defs>
    <g id="subjects/physical-education" stroke="none" stroke-width="1" fill="none" fill-rule="evenodd">
        <g id="physical-education" fill-rule="nonzero">
            <path d="M132.420052,67.21 C132.439949,83.1046801 126.723116,98.4726616 116.32,110.49 C112.28088,115.159162 107.612972,119.244844 102.45,122.63 C101.29,123.39 100.11,124.12 98.9,124.8 C91.1843743,129.201762 82.655484,131.991427 73.83,133 L73.72,133 L71.59,133.21 C70.2566667,133.323333 68.8866667,133.393333 67.48,133.42 L66.21,133.42 C64.03,133.42 61.87,133.31 59.74,133.11 C59.02,133.04 58.31,132.96 57.6,132.86 C48.0368803,131.6254 38.8629721,128.299986 30.73,123.12 C30.54,123 30.35,122.88 30.17,122.75 C28.65,121.77 27.18,120.73 25.76,119.63 C24.23,118.46 22.76,117.21 21.34,115.89 L20.46,115.07 C18.2269425,112.940526 16.1483528,110.654746 14.24,108.23 C-3.73525809,85.4580118 -4.79188009,53.6361241 11.6331972,29.7218984 C28.0582744,5.80767278 58.1388782,-4.6281434 85.8453597,3.97559058 C113.551841,12.5793246 132.430058,38.2183946 132.420052,67.23 L132.420052,67.21 Z" id="Path" fill="#ED968A"></path>
            <path d="M49,19.86 C48.9918712,20.2297722 49.2083575,20.5676799 49.5476765,20.7148538 C49.8869956,20.8620277 50.2816373,20.7891864 50.5460585,20.5305766 C50.8104797,20.2719669 50.8920717,19.8790411 50.7524737,19.5365357 C50.6128756,19.1940303 50.2798615,18.9700893 49.91,18.97 C49.6705114,18.9646169 49.4389642,19.0560026 49.2677058,19.223497 C49.0964475,19.3909914 48.9999395,19.6204509 49,19.86 Z" id="Path" fill="#BC325F" opacity="0.23" style="mix-blend-mode: multiply;"></path>
            <path d="M49,19.36 C48.9918712,19.7297722 49.2083575,20.0676799 49.5476765,20.2148538 C49.8869956,20.3620277 50.2816373,20.2891864 50.5460585,20.0305766 C50.8104797,19.7719669 50.8920717,19.3790411 50.7524737,19.0365357 C50.6128756,18.6940303 50.2798615,18.4700893 49.91,18.47 C49.6705114,18.4646169 49.4389642,18.5560026 49.2677058,18.723497 C49.0964475,18.8909914 48.9999395,19.1204509 49,19.36 Z" id="Path" fill="url(#linearGradient-1)"></path>
            <path d="M45.59,61 L46.44,61 C46.44,57.83 46.55,49.05 46.97,40.33 C48,18.24 50.14,18.1 50.83,18.05 C51.0559763,18.0353164 51.2764886,18.1235213 51.43,18.29 C55.23,21.84 53.43,72.48 53.25,78.54 L53.85,78.54 L55.13,89.68 L51.06,89.68 L52.24,78.54 L52.85,78.54 C53.06,72.89 54.79,21.97 51.16,18.54 C51.081664,18.4579244 50.9734542,18.4110335 50.86,18.41 C47.98,18.61 46.86,43.52 46.86,60.99 L47.21,60.99 L48.49,72.13 L44.41,72.13 L45.59,61 Z" id="Path" fill="#BC325F" opacity="0.23" style="mix-blend-mode: multiply;"></path>
            <path d="M52.26,79 C52.35,76.67 54.42,21.93 50.46,18.23 C50.3082289,18.0610126 50.0864462,17.9722995 49.86,17.99 C49.17,17.99 47.07,18.18 46.01,40.28 C45.48,51.12 45.48,62.07 45.48,62.18 L45.87,62.18 C45.87,44.68 46.95,18.58 49.87,18.37 C49.9839529,18.3686193 50.0930845,18.4159097 50.17,18.5 C54,22.13 51.89,78.46 51.87,79 L52.26,79 Z" id="Path" fill="#112134"></path>
            <polygon id="Path" fill="url(#linearGradient-2)" points="52.88 78.52 51.28 78.52 50.1 89.66 54.16 89.66"></polygon>
            <polygon id="Path" fill="#FFFFFF" opacity="0.69" style="mix-blend-mode: soft-light;" points="52.88 78.52 51.88 78.83 51.7 89.66 50.52 89.66 51.41 78.52"></polygon>
            <polygon id="Path" fill="url(#linearGradient-3)" points="46.23 60.99 44.62 60.99 43.44 72.14 47.51 72.14"></polygon>
            <polygon id="Path" fill="#FFFFFF" opacity="0.69" style="mix-blend-mode: soft-light;" points="46.23 60.99 45.22 61.3 45.04 72.14 43.86 72.14 44.76 60.99"></polygon>
            <path d="M33.28,42.18 L34.12,42.18 C34.12,42.05 34.12,41.91 34.12,41.76 C34.0451187,41.7022801 33.9749015,41.6387502 33.91,41.57 C31.42,38.95 32.11,24.16 33.91,19.24 C34.37,18 34.91,17.36 35.44,17.24 C35.6265665,17.2204183 35.8124959,17.2823947 35.95,17.41 C36.3702228,17.9998077 36.6287875,18.6893134 36.7,19.41 C37.3478876,20.8151201 37.7536026,22.3196466 37.9,23.86 C38.5585736,28.719539 38.3656911,33.6566523 37.33,38.45 C37.18,46.17 36.8,53.74 36.65,56.72 L37.37,56.72 L38.65,67.87 L34.59,67.87 L35.77,56.72 L36.26,56.72 C36.53,51.89 36.79,45.72 36.93,39.72 C36.45,40.93 35.85,41.72 35.11,41.94 C34.9097358,41.9899625 34.7002642,41.9899625 34.5,41.94 C34.5049852,42.0132486 34.5049852,42.0867514 34.5,42.16 L34.87,42.16 L36.15,53.31 L32.1,53.31 L33.28,42.18 Z M35.69,17.73 C35.6406829,17.6852717 35.5765784,17.6603421 35.51,17.66 C35.11,17.71 34.67,18.32 34.29,19.37 C32.34,24.62 31.92,38.55 34.09,41.21 C33.91,35.51 33.57,20.21 35.09,18.68 C35.1859331,18.57079 35.3246439,18.5087352 35.47,18.51 C35.7328567,18.5138117 35.9852985,18.6133662 36.18,18.79 C36.1123498,18.3998411 35.9433755,18.0343047 35.69,17.73 L35.69,17.73 Z M37.37,36.65 C38.0000704,32.4601802 38.0505439,28.203582 37.52,24 C37.400284,23.0545163 37.2131405,22.1187988 36.96,21.2 C37.3884781,26.3381164 37.5253643,31.49639 37.37,36.65 L37.37,36.65 Z M35,41.59 C35.84,41.37 36.49,40.22 37,38.59 C37.16,30.65 37.07,23.17 36.43,19.69 C36.15,19.19 35.85,18.93 35.53,18.93 C35.4924064,18.9362602 35.4575643,18.9536813 35.43,18.98 C34.12,20.31 34.3,34.42 34.54,41.59 C34.6894398,41.6388678 34.8505602,41.6388678 35,41.59 Z" id="Shape" fill="#BC325F" opacity="0.23" style="mix-blend-mode: multiply;"></path>
            <path d="M36.05,58 C36.05,57.24 36.62,48 36.8,38.46 C37.8392253,33.6672617 38.0354932,28.7301089 37.38,23.87 C37.2354693,22.3281395 36.8261385,20.8227492 36.17,19.42 C36.1059127,18.6976742 35.846669,18.0063577 35.42,17.42 C35.2855726,17.2940051 35.1033669,17.2320552 34.92,17.25 C34.34,17.33 33.84,17.97 33.38,19.25 C31.55,24.17 30.86,38.96 33.38,41.58 C33.4459996,41.6513589 33.5197941,41.7150905 33.6,41.77 C33.6,42.63 33.6,43.18 33.6,43.32 L34,43.32 C34,42.92 34,42.47 33.95,41.99 C34.1468816,42.0399471 34.3531184,42.0399471 34.55,41.99 C35.29,41.79 35.89,40.99 36.37,39.77 C36.24,46.29 35.94,53 35.66,58 L36.05,58 Z M36.41,38.52 C35.95,40.19 35.3,41.34 34.47,41.52 C34.3019108,41.5802989 34.1180892,41.5802989 33.95,41.52 C33.72,34.35 33.53,20.24 34.84,18.91 C34.8675643,18.8836813 34.9024064,18.8662602 34.94,18.86 C35.26,18.86 35.56,19.12 35.85,19.62 C36.48,23.13 36.57,30.61 36.41,38.55 L36.41,38.52 Z M34.94,18.52 C34.7949191,18.5200374 34.6567206,18.581863 34.56,18.69 C33.03,20.23 33.37,35.52 33.56,41.22 C31.39,38.56 31.81,24.63 33.76,19.38 C34.15,18.33 34.58,17.72 34.98,17.6697758 C35.0471552,17.6670971 35.11245,17.6924895 35.16,17.74 C35.416978,18.0432185 35.5894441,18.4088466 35.66,18.8 C35.464231,18.617448 35.2076451,18.5141009 34.94,18.51 L34.94,18.52 Z M36.43,21.16 C36.6835683,22.0927906 36.8739996,23.041606 37,24 C37.5267773,28.2207821 37.4729436,32.4938286 36.84,36.7 C36.9933234,31.5130764 36.856443,26.3216371 36.43,21.15 L36.43,21.16 Z" id="Shape" fill="#112134"></path>
            <polygon id="Path" fill="url(#linearGradient-4)" points="34.34 42.18 32.74 42.18 31.56 53.33 35.62 53.33"></polygon>
            <polygon id="Path" fill="#FFFFFF" opacity="0.69" style="mix-blend-mode: soft-light;" points="34.34 42.18 33.34 42.5 33.16 53.33 31.98 53.33 32.87 42.18"></polygon>
            <polygon id="Path" fill="url(#linearGradient-5)" points="36.84 56.76 35.23 56.76 34.05 67.91 38.12 67.91"></polygon>
            <polygon id="Path" fill="#FFFFFF" opacity="0.69" style="mix-blend-mode: soft-light;" points="36.84 56.76 35.83 57.08 35.65 67.91 34.47 67.91 35.37 56.76"></polygon>
            <path d="M34,19.86 C33.9918712,20.2297722 34.2083575,20.5676799 34.5476765,20.7148538 C34.8869956,20.8620277 35.2816373,20.7891864 35.5460585,20.5305766 C35.8104797,20.2719669 35.8920717,19.8790411 35.7524737,19.5365357 C35.6128756,19.1940303 35.2798615,18.9700893 34.91,18.97 C34.6713008,18.9673331 34.4413202,19.0596058 34.2706589,19.2265164 C34.0999975,19.3934269 34.0026375,19.6213005 34,19.86 Z" id="Path" fill="#BC325F" opacity="0.23" style="mix-blend-mode: multiply;"></path>
            <path d="M34,19.36 C33.9918712,19.7297722 34.2083575,20.0676799 34.5476765,20.2148538 C34.8869956,20.3620277 35.2816373,20.2891864 35.5460585,20.0305766 C35.8104797,19.7719669 35.8920717,19.3790411 35.7524737,19.0365357 C35.6128756,18.6940303 35.2798615,18.4700893 34.91,18.47 C34.6713008,18.4673331 34.4413202,18.5596058 34.2706589,18.7265164 C34.0999975,18.8934269 34.0026375,19.1213005 34,19.36 Z" id="Path" fill="url(#linearGradient-6)"></path>
            <path d="M103.36,43.88 L98.17,80.68 L91,80.05 L88.87,79.87 L88.22,79.81 C88.22,79.81 90.91,68.81 91.95,61.81 C92.99,54.81 93.59,43 93.59,43 C96.8,40.9 101.86,40.88 103.36,43.88 Z" id="Path" fill="url(#linearGradient-7)"></path>
            <path d="M94.73,42.67 C94.73,42.67 95.15,63.62 93.62,69.31 C92.28,74.32 91.2,79 91,80.05 L88.87,79.87 C89.44,77.06 91.87,64.87 92.93,58.96 C93.6721331,53.7198319 94.029755,48.4323754 94,43.14 L94.73,42.67 Z" id="Path" fill="#CF0E4E" opacity="0.08" style="mix-blend-mode: multiply;"></path>
            <path d="M93.29,79.44 C96.05,79.68 98.23,80.23 98.17,80.66 C98.11,81.09 95.82,81.25 93.06,81.01 C90.3,80.77 88.12,80.23 88.19,79.8 C88.26,79.37 90.53,79.2 93.29,79.44 Z" id="Path" fill="#AC5A50"></path>
            <path d="M113.74,48.8 L96,83.22 L89.27,81.15 L87.27,80.54 L86.66,80.35 C86.66,80.35 93.04,70.35 96.48,63.73 C99.92,57.11 104.6,46 104.6,46 C108.44,44.59 113.32,45.6 113.74,48.8 Z" id="Path" fill="url(#linearGradient-8)"></path>
            <path d="M105.83,45.87 C105.83,45.87 99,66.16 95.56,71.34 C92.56,75.89 89.87,80.18 89.28,81.15 L87.28,80.54 C88.8,77.94 95.41,66.66 98.42,61.21 C100.932987,56.3632392 103.114651,51.3517593 104.95,46.21 L105.83,45.87 Z" id="Path" fill="#CF0E4E" opacity="0.08" style="mix-blend-mode: multiply;"></path>
            <path d="M91.74,81 C94.31,81.79 96.23,82.76 96.02,83.16 C95.81,83.56 93.55,83.26 91.02,82.47 C88.49,81.68 86.53,80.71 86.74,80.3 C86.95,79.89 89.16,80.25 91.74,81 Z" id="Path" fill="#951826"></path>
            <path d="M105.87,66.07 C105.87,66.07 92.71,66.81 84.31,66.81 C75.91,66.81 62.11,66.07 62.11,66.07 C59.27,68.07 58.73,71.58 62.11,72.92 L105.87,73.07 L105.87,66.07 Z" id="Path" fill="url(#linearGradient-9)"></path>
            <path d="M103.27,69.57 C103.27,71.5 104.43,73.07 105.87,73.07 C107.31,73.07 108.47,71.5 108.47,69.57 C108.47,67.64 107.3,66.07 105.87,66.07 C104.44,66.07 103.27,67.64 103.27,69.57 Z" id="Path" fill="url(#linearGradient-10)"></path>
            <path d="M104.28,69.78 C104.245931,70.5837553 104.559219,71.3633341 105.14,71.92 C105.393693,72.1462481 105.720129,72.2739842 106.06,72.28 C107.06,72.28 107.84,71.16 107.84,69.78 C107.84,68.4 107.05,67.28 106.06,67.28 C105.529307,67.3081869 105.048336,67.6012788 104.78,68.06 L104.78,68.06 C104.448262,68.5718925 104.274382,69.1700389 104.28,69.78 Z" id="Path" fill="#3C1235"></path>
            <path d="M104.28,69.78 C104.245931,70.5837553 104.559219,71.3633341 105.14,71.92 L106.06,71.92 C105.466965,71.5353617 105.121007,70.866255 105.15,70.16 C105.172207,69.3289506 105.421181,68.5197843 105.87,67.82 L104.78,68.06 L104.78,68.06 C104.448262,68.5718925 104.274382,69.1700389 104.28,69.78 Z" id="Path" fill="url(#linearGradient-11)"></path>
            <path d="M107.65,70.92 C107.277056,71.4546528 106.703432,71.8154225 106.06,71.92 C105.16,71.92 104.49,68.92 105.32,68.1 C106.15,67.28 107.32,68.29 107.5,69.34 L105.2,69.57 C105.2,69.57 105.2,71.5 106.06,71.74 C106.92,71.98 107.65,70.92 107.65,70.92 Z" id="Path" fill="url(#linearGradient-12)"></path>
            <path d="M112.55,70.51 C112.55,70.51 99.2,71.27 90.68,71.27 C82.16,71.27 68.16,70.51 68.16,70.51 C65.28,72.51 64.73,76.1 68.16,77.46 L112.55,77.61 L112.55,70.51 Z" id="Path" fill="url(#linearGradient-13)"></path>
            <path d="M109.92,74.06 C109.92,76.06 111.1,77.61 112.55,77.61 C114,77.61 115.19,76.02 115.19,74.06 C115.19,72.1 114.01,70.51 112.55,70.51 C111.09,70.51 109.92,72.1 109.92,74.06 Z" id="Path" fill="url(#linearGradient-14)"></path>
            <path d="M110.94,74.28 C110.908909,75.0960011 111.229334,75.88614 111.82,76.45 C112.076759,76.6777074 112.406845,76.8054827 112.75,76.81 C113.75,76.81 114.56,75.68 114.56,74.28 C114.56,72.88 113.75,71.74 112.75,71.74 C112.211191,71.7673196 111.72243,72.0643354 111.45,72.53 L111.45,72.53 C111.113941,73.051556 110.936751,73.65956 110.94,74.28 L110.94,74.28 Z" id="Path" fill="#112134"></path>
            <path d="M110.94,74.28 C110.908909,75.0960011 111.229334,75.88614 111.82,76.45 L112.75,76.45 C112.143593,76.062336 111.792248,75.3787403 111.83,74.66 C111.853281,73.8197528 112.101954,73.0012045 112.55,72.29 L111.45,72.53 L111.45,72.53 C111.113941,73.051556 110.936751,73.65956 110.94,74.28 Z" id="Path" fill="url(#linearGradient-15)"></path>
            <path d="M114.36,75.44 C113.982427,75.9792244 113.400716,76.3405354 112.75,76.44 C111.84,76.44 111.16,73.44 112,72.56 C112.84,71.68 114,72.76 114.21,73.82 L111.87,74.05 C111.87,74.05 111.87,76.05 112.75,76.26 C113.63,76.47 114.36,75.44 114.36,75.44 Z" id="Path" fill="url(#linearGradient-16)"></path>
            <path d="M112.8,76.71 C112.8,76.71 99.65,77.45 91.25,77.45 C82.85,77.45 69,76.71 69,76.71 C66.17,78.71 65.63,82.21 69,83.56 L112.76,83.71 L112.8,76.71 Z" id="Path" fill="url(#linearGradient-17)"></path>
            <ellipse id="Oval" fill="url(#linearGradient-18)" cx="112.8" cy="80.21" rx="2.6" ry="3.5"></ellipse>
            <path d="M111.22,80.42 C111.185931,81.2237553 111.499219,82.0033341 112.08,82.56 C112.332731,82.7878095 112.659776,82.9157835 113,82.92 C114,82.92 114.78,81.8 114.78,80.42 C114.78,79.04 113.98,77.92 113,77.92 C112.469786,77.9497174 111.987803,78.2374123 111.71,78.69 L111.71,78.69 C111.379893,79.2058424 111.209434,79.8076662 111.22,80.42 Z" id="Path" fill="#112134"></path>
            <path d="M111.22,80.42 C111.185931,81.2237553 111.499219,82.0033341 112.08,82.56 L113,82.56 C112.403802,82.1735236 112.057402,81.4997557 112.09,80.79 C112.11251,79.9635648 112.357815,79.1585514 112.8,78.46 L111.71,78.69 L111.71,78.69 C111.379893,79.2058424 111.209434,79.8076662 111.22,80.42 Z" id="Path" fill="url(#linearGradient-19)"></path>
            <path d="M114.58,81.56 C114.212645,82.0957893 113.641461,82.4572979 113,82.56 C112.1,82.56 111.43,79.56 112.26,78.74 C113.09,77.92 114.26,78.93 114.44,79.98 L112.14,80.21 C112.14,80.21 112.14,82.14 113,82.38 C113.86,82.62 114.58,81.56 114.58,81.56 Z" id="Path" fill="url(#linearGradient-20)"></path>
            <path d="M125.100021,88.71 C125.105215,91.8416117 124.133411,94.8968529 122.32,97.45 L122.32,97.45 C118.014193,103.528594 109.920772,105.562236 103.253052,102.240973 C96.5853324,98.9197092 93.3329323,91.2345905 95.59086,84.1359257 C97.8487877,77.037261 104.943287,72.6432614 112.304492,73.7842874 C119.665697,74.9253135 125.097055,81.260888 125.100021,88.71 L125.100021,88.71 Z" id="Path" fill="#112134"></path>
            <polygon id="Path" fill="#2A0F24" points="106.47 73.61 110 73.61 109.66 74.37"></polygon>
            <polygon id="Path" fill="#2A0F24" points="106.47 103.81 110 103.81 107.64 103.33"></polygon>
            <ellipse id="Oval" fill="url(#linearGradient-21)" cx="106.47" cy="88.71" rx="15.11" ry="15.1"></ellipse>
            <path d="M106.47,73.61 L106,73.61 C114.120296,73.9056747 120.550546,80.5743229 120.550546,88.7 C120.550546,96.8256771 114.120296,103.494325 106,103.79 L106.49,103.79 C114.8295,103.79 121.59,97.0294997 121.59,88.69 C121.59,80.3505003 114.8295,73.59 106.49,73.59 L106.47,73.61 Z" id="Path" fill="#FFFFFF" opacity="0.69" style="mix-blend-mode: soft-light;"></path>
            <path d="M112.62,82.61 L113.57,81.97 C114.310074,82.7938009 114.899092,83.7416455 115.31,84.77 L114.15,85.05 C113.735089,84.1807773 113.221726,83.3620802 112.62,82.61 L112.62,82.61 Z" id="Path" fill="#FFFFFF" opacity="0.69" style="mix-blend-mode: soft-light;"></path>
            <path d="M114.29,81.1 L117.29,78.9 C118.710794,80.4182567 119.758467,82.2465485 120.35,84.24 L116.35,84.84 C115.803034,83.5213353 115.112184,82.2670739 114.29,81.1 L114.29,81.1 Z" id="Path" fill="#FFFFFF" opacity="0.69" style="mix-blend-mode: soft-light;"></path>
            <polygon id="Path" fill="#792182" opacity="0.33" style="mix-blend-mode: multiply;" points="107.11 89.43 112.03 102.82 113.78 101.93 108.23 88.26"></polygon>
            <path d="M27.69,86.15 L107.12,87.08 C107.424169,87.0878162 107.712593,87.2169031 107.92107,87.4385276 C108.129547,87.660152 108.240777,87.955921 108.230716,88.26 L108.230716,88.26 C108.241194,88.8913468 107.741234,89.4136267 107.11,89.43 L28.41,90.15 L27.69,86.15 Z" id="Path" fill="url(#linearGradient-22)"></path>
            <path d="M46.0000243,88.71 C46.0056383,91.8432222 45.0299887,94.8995581 43.21,97.45 L43.21,97.45 C38.8993384,103.517996 30.8098573,105.539678 24.1513376,102.213044 C17.4928178,98.88641 14.2516257,91.2038599 16.515151,84.1131031 C18.7786764,77.0223464 25.8716654,72.6386939 33.2260973,73.785302 C40.5805292,74.93191 46.0024335,81.266723 46.0000243,88.71 L46.0000243,88.71 Z" id="Path" fill="#112134"></path>
            <polygon id="Path" fill="#2A0F24" points="27.33 73.61 30.85 73.61 30.51 74.37"></polygon>
            <polygon id="Path" fill="#2A0F24" points="27.33 103.81 30.85 103.81 28.49 103.33"></polygon>
            <ellipse id="Oval" fill="url(#linearGradient-21)" cx="27.33" cy="88.71" rx="15.11" ry="15.1"></ellipse>
            <path d="M27.33,73.61 L26.84,73.61 C34.9602958,73.9056747 41.3905457,80.5743229 41.3905457,88.7 C41.3905457,96.8256771 34.9602958,103.494325 26.84,103.79 L27.33,103.79 C35.6694997,103.79 42.43,97.0294997 42.43,88.69 C42.43,80.3505003 35.6694997,73.59 27.33,73.59 L27.33,73.61 Z" id="Path" fill="#FFFFFF" opacity="0.69" style="mix-blend-mode: soft-light;"></path>
            <path d="M26.94,77.28 C26.57,77.28 26.19,77.28 25.81,77.28 C19.4587254,77.28 14.31,82.4287254 14.31,88.78 C14.31,95.1312746 19.4587254,100.28 25.81,100.28 C26.1863967,100.300168 26.5636033,100.300168 26.94,100.28 C32.8009316,99.6786832 37.2573108,94.7416976 37.2573108,88.85 C37.2573108,82.9583024 32.8009316,78.0213168 26.94,77.42 L26.94,77.28 Z M26.94,99.87 C26.5702684,99.889932 26.1997316,99.889932 25.83,99.87 C19.638888,99.87 14.62,94.851112 14.62,88.66 C14.62,82.468888 19.638888,77.45 25.83,77.45 C26.2,77.45 26.57,77.45 26.94,77.45 C32.6956272,77.9954393 37.0924084,82.828586 37.0924084,88.61 C37.0924084,94.391414 32.6956272,99.2245607 26.94,99.77 L26.94,99.87 Z" id="Shape" fill="#FFFFFF" opacity="0.69" style="mix-blend-mode: soft-light;"></path>
            <path d="M27.22,77.28 C26.84,77.28 26.46,77.28 26.08,77.28 C19.7287254,77.28 14.58,82.4287254 14.58,88.78 C14.58,95.1312746 19.7287254,100.28 26.08,100.28 C26.4597384,100.29994 26.8402616,100.29994 27.22,100.28 C33.0809316,99.6786832 37.5373108,94.7416976 37.5373108,88.85 C37.5373108,82.9583024 33.0809316,78.0213168 27.22,77.42 L27.22,77.28 Z M27.22,99.87 C26.8502684,99.889932 26.4797316,99.889932 26.11,99.87 C19.918888,99.87 14.9,94.851112 14.9,88.66 C14.9,82.468888 19.918888,77.45 26.11,77.45 C26.48,77.45 26.85,77.45 27.22,77.45 C32.9756272,77.9954393 37.3724084,82.828586 37.3724084,88.61 C37.3724084,94.391414 32.9756272,99.2245607 27.22,99.77 L27.22,99.87 Z" id="Shape" fill="url(#linearGradient-23)"></path>
            <path d="M33.48,82.61 L34.48,81.97 C35.2200745,82.7938009 35.8090922,83.7416455 36.22,84.77 L35,85.05 C34.5806292,84.1854326 34.0711379,83.3675649 33.48,82.61 Z" id="Path" fill="#FFFFFF" opacity="0.69" style="mix-blend-mode: soft-light;"></path>
            <path d="M35.14,81.1 L38.2,78.9 C39.6207943,80.4182567 40.6684671,82.2465485 41.26,84.24 L37.26,84.84 C36.6919566,83.5196928 35.9810536,82.2655527 35.14,81.1 L35.14,81.1 Z" id="Path" fill="#FFFFFF" opacity="0.69" style="mix-blend-mode: soft-light;"></path>
            <path d="M37.5700144,88.71 C37.5738621,91.1877359 36.8009629,93.6043572 35.36,95.62 L35.36,95.62 C31.9506936,100.410788 25.5590736,102.003007 20.3007736,99.3714109 C15.0424737,96.7398146 12.4857944,90.6692825 14.2770094,85.0686962 C16.0682244,79.4681099 21.6730995,76.0078579 27.4825946,76.916034 C33.2920897,77.82421 37.573509,82.8299485 37.5700144,88.71 Z" id="Path" fill="#112134"></path>
            <polygon id="Path" fill="#2A0F24" points="22.83 76.77 25.62 76.77 25.35 77.36"></polygon>
            <polygon id="Path" fill="#2A0F24" points="22.83 100.65 25.62 100.65 23.75 100.28"></polygon>
            <ellipse id="Oval" fill="url(#linearGradient-24)" cx="22.83" cy="88.71" rx="11.95" ry="11.94"></ellipse>
            <path d="M22.83,88.37 C22.83,89.5960721 21.8360721,90.59 20.61,90.59 C19.3839279,90.59 18.39,89.5960721 18.39,88.37 C18.39,87.1439279 19.3839279,86.15 20.61,86.15 C21.8360721,86.15 22.83,87.1439279 22.83,88.37 L22.83,88.37 Z" id="Path" fill="#112134"></path>
            <path d="M22.4400228,88.37 C22.4400228,89.5960721 21.4460721,90.59 20.22,90.59 C18.9939279,90.59 18,89.5960721 18,88.37 C18,87.1439279 18.9939279,86.1499772 20.22,86.1499772 C20.8095963,86.1473261 21.3758169,86.3803595 21.7927287,86.7972713 C22.2096405,87.2141831 22.4426739,87.7804037 22.4400228,88.37 Z" id="Path" fill="url(#linearGradient-25)"></path>
            <path d="M22.83,76.77 L22.44,76.77 C28.8388637,77.0320527 33.8914307,82.2957727 33.8914307,88.7 C33.8914307,95.1042273 28.8388637,100.367947 22.44,100.63 L22.83,100.63 C27.0957512,100.63 31.037468,98.354249 33.1703436,94.6600001 C35.3032193,90.9657512 35.3032193,86.4142488 33.1703436,82.7199999 C31.037468,79.025751 27.0957512,76.75 22.83,76.75 L22.83,76.77 Z" id="Path" fill="#FFFFFF" opacity="0.69" style="mix-blend-mode: soft-light;"></path>
            <path d="M22.53,79.67 C22.23,79.67 21.93,79.67 21.63,79.67 C16.6152545,79.67 12.55,83.7352545 12.55,88.75 C12.55,93.7647455 16.6152545,97.83 21.63,97.83 C21.93,97.83 22.23,97.83 22.53,97.83 C27.1560995,97.342774 30.6678971,93.4416864 30.6678971,88.79 C30.6678971,84.1383136 27.1560995,80.237226 22.53,79.75 L22.53,79.67 Z M22.53,97.54 C22.2368571,97.554948 21.9431429,97.554948 21.65,97.54 C16.7512343,97.54 12.78,93.5687657 12.78,88.67 C12.78,83.7712343 16.7512343,79.8 21.65,79.8 C21.9431433,79.7850693 22.2368567,79.7850693 22.53,79.8 C27.0601267,80.2580651 30.5076576,84.0717735 30.5076576,88.625 C30.5076576,93.1782265 27.0601267,96.9919349 22.53,97.45 L22.53,97.54 Z" id="Shape" fill="#FFFFFF" opacity="0.69" style="mix-blend-mode: soft-light;"></path>
            <path d="M22.74,79.67 C22.44,79.67 22.14,79.67 21.84,79.67 C16.8252545,79.67 12.76,83.7352545 12.76,88.75 C12.76,93.7647455 16.8252545,97.83 21.84,97.83 C22.14,97.83 22.44,97.83 22.74,97.83 C27.4042908,97.3907353 30.9686481,93.4749293 30.9686481,88.79 C30.9686481,84.1050707 27.4042908,80.1892647 22.74,79.75 L22.74,79.67 Z M22.74,97.54 C22.446863,97.5551766 22.153137,97.5551766 21.86,97.54 C16.9612343,97.54 12.99,93.5687657 12.99,88.67 C12.99,83.7712343 16.9612343,79.8 21.86,79.8 C22.1531361,79.7847876 22.4468639,79.7847876 22.74,79.8 C27.2701267,80.2580651 30.7176576,84.0717735 30.7176576,88.625 C30.7176576,93.1782265 27.2701267,96.9919349 22.74,97.45 L22.74,97.54 Z" id="Shape" fill="#112134"></path>
            <path d="M27.69,83.89 L28.44,83.38 C29.0269043,84.0331393 29.4940551,84.7846427 29.82,85.6 L28.9,85.81 C28.5718327,85.1256042 28.165816,84.4813463 27.69,83.89 L27.69,83.89 Z" id="Path" fill="#FFFFFF" opacity="0.69" style="mix-blend-mode: soft-light;"></path>
            <path d="M29,82.69 L31.43,81 C32.5511381,82.2013455 33.3793686,83.6456151 33.85,85.22 L30.71,85.7 C30.2541083,84.6359992 29.6805365,83.6263786 29,82.69 L29,82.69 Z" id="Path" fill="#FFFFFF" opacity="0.69" style="mix-blend-mode: soft-light;"></path>
            <polygon id="Path" fill="#81418B" opacity="0.33" style="mix-blend-mode: multiply;" points="46.49 86.37 48.45 88.97 108.15 88.71 107.9 89.09 48.48 89.7 48.16 89.97 45.96 89.99 45.78 86.36"></polygon>
            <polygon id="Path" fill="#FFFFFF" opacity="0.69" style="mix-blend-mode: soft-light;" points="51.32 86.43 53.7 87.3 99.95 87.68 98.88 86.98"></polygon>
            <path d="M66.1000036,106.15 C66.1012595,107.207189 65.7726597,108.238433 65.16,109.1 L65.16,109.1 C64.2026259,110.447245 62.6527648,111.248255 61,111.25 C60.3349839,111.24855 59.6764187,111.119553 59.06,110.87 C56.676819,109.913267 55.3767404,107.333772 56.0253781,104.848986 C56.6740159,102.364201 59.0690195,100.749284 61.6157555,101.079475 C64.1624915,101.409665 66.0664742,103.581956 66.06,106.15 L66.1000036,106.15 Z" id="Path" fill="#2A0F24"></path>
            <polygon id="Path" fill="#2A0F24" points="58.7 101.05 60.77 101.05 59.77 101.31"></polygon>
            <polygon id="Path" fill="#2A0F24" points="58.7 111.25 61.16 111.25 59.64 110.8"></polygon>
            <circle id="Oval" fill="url(#linearGradient-26)" cx="58.7" cy="106.15" r="5.1"></circle>
            <path d="M58.7,101.05 L58.53,101.05 C61.3411294,101.05 63.62,103.328871 63.62,106.14 C63.62,108.951129 61.3411294,111.23 58.53,111.23 L58.7,111.23 C61.5166522,111.23 63.8,108.946652 63.8,106.13 C63.8,103.313348 61.5166522,101.03 58.7,101.03 L58.7,101.05 Z" id="Path" fill="#FFFFFF" opacity="0.69" style="mix-blend-mode: soft-light;"></path>
            <path d="M42.92,104.15 L58.86,104.7 C59.3996809,105.002627 59.7689054,105.538003 59.86,106.15 L59.86,106.15 C59.7836599,106.735925 59.4033811,107.237894 58.86,107.47 L43,107.92 L42.92,104.15 Z" id="Path" fill="url(#linearGradient-27)"></path>
            <polygon id="Path" fill="#81418B" opacity="0.33" style="mix-blend-mode: multiply;" points="47.02 103.89 47.22 106.22 59.67 106.79 59.38 107.14 47.15 107.44 47.02 108.1 46.57 108.13 46.54 103.86"></polygon>
            <polygon id="Path" fill="#FFFFFF" opacity="0.69" style="mix-blend-mode: soft-light;" points="47.95 104.58 48.13 104.96 57.59 105.18 57.27 104.84"></polygon>
            <path d="M50.1200036,106.15 C50.1212595,107.207189 49.7926597,108.238433 49.18,109.1 L49.18,109.1 C48.2208203,110.455636 46.6606352,111.258124 45,111.250061 C42.9372426,111.250061 41.0775975,110.007425 40.2882144,108.101686 C39.4988313,106.195946 39.9351656,104.002345 41.3937554,102.543755 C42.8523452,101.085166 45.0459461,100.648831 46.9516855,101.438214 C48.8574249,102.227597 50.1,104.087243 50.1,106.15 L50.1200036,106.15 Z" id="Path" fill="#2A0F24"></path>
            <polygon id="Path" fill="#2A0F24" points="42.78 101.05 45.02 101.05 43.85 101.31"></polygon>
            <polygon id="Path" fill="#2A0F24" points="42.78 111.25 44.89 111.25 43.53 110.59"></polygon>
            <circle id="Oval" fill="url(#linearGradient-26)" cx="42.78" cy="106.15" r="5.1"></circle>
            <path d="M45.2900188,106 C45.294048,107.08486 44.6436598,108.06515 43.6425396,108.483116 C42.6414195,108.901081 41.4870674,108.674267 40.7185179,107.908585 C39.9499685,107.142903 39.7188402,105.989407 40.1330605,104.986731 C40.5472809,103.984056 41.5251328,103.329981 42.61,103.329981 C43.3198591,103.327341 44.0015559,103.60747 44.5044429,104.108481 C45.0073299,104.609491 45.2900188,105.290136 45.2900188,106 L45.2900188,106 Z" id="Path" fill="#FFFFFF" opacity="0.69" style="mix-blend-mode: soft-light;"></path>
            <path d="M43.8300317,106 C43.8300317,106.883656 43.1136556,107.6 42.23,107.6 C41.3463444,107.6 40.63,106.883656 40.63,106 C40.63,105.116344 41.3463444,104.399968 42.23,104.399968 C42.6551631,104.397318 43.0636898,104.565027 43.3643314,104.865669 C43.6649731,105.16631 43.8326825,105.574837 43.8300317,106 Z" id="Path" fill="#2A0F24"></path>
            <path d="M42.78,101.05 L42.61,101.05 C45.4211294,101.05 47.7,103.328871 47.7,106.14 C47.7,108.951129 45.4211294,111.23 42.61,111.23 L42.78,111.23 C45.5966522,111.23 47.88,108.946652 47.88,106.13 C47.88,103.313348 45.5966522,101.03 42.78,101.03 L42.78,101.05 Z" id="Path" fill="#FFFFFF" opacity="0.69" style="mix-blend-mode: soft-light;"></path>
        </g>
    </g>
</svg>