<?xml version="1.0" encoding="UTF-8"?>
<svg width="133px" height="134px" viewBox="0 0 133 134" version="1.1" xmlns="http://www.w3.org/2000/svg" xmlns:xlink="http://www.w3.org/1999/xlink">
    <title>subjects/physics</title>
    <g id="subjects/physics" stroke="none" stroke-width="1" fill="none" fill-rule="evenodd">
        <g id="physics" fill-rule="nonzero">
            <path d="M132.420052,67.21 C132.439949,83.1046801 126.723116,98.4726616 116.32,110.49 C112.28088,115.159162 107.612972,119.244844 102.45,122.63 C101.29,123.39 100.11,124.12 98.9,124.8 C91.1843743,129.201762 82.655484,131.991427 73.83,133 L73.72,133 L71.59,133.21 C70.2566667,133.323333 68.8866667,133.393333 67.48,133.42 L66.21,133.42 C64.03,133.42 61.87,133.31 59.74,133.11 C59.02,133.04 58.31,132.96 57.6,132.86 C48.0368803,131.6254 38.8629721,128.299986 30.73,123.12 C30.54,123 30.35,122.88 30.17,122.75 C28.65,121.77 27.18,120.73 25.76,119.63 C24.23,118.46 22.76,117.21 21.34,115.89 L20.46,115.07 C18.2269425,112.940526 16.1483528,110.654746 14.24,108.23 C-3.73525809,85.4580118 -4.79188009,53.6361241 11.6331972,29.7218984 C28.0582744,5.80767278 58.1388782,-4.6281434 85.8453597,3.97559058 C113.551841,12.5793246 132.430058,38.2183946 132.420052,67.23 L132.420052,67.21 Z" id="Path" fill="#E4E24B"></path>
            <path d="M19.67,46.69 C15.3666142,42.0976508 15.5674194,34.8954356 20.12,30.55 L20.2,30.47 L16.72,26.77 L16.64,26.85 C10.1053914,33.0814873 9.81965803,43.4169979 16,50 L25.2,59.78 L28.77,56.38 L19.67,46.69 Z" id="Path" fill="#1D95A3"></path>
            <polygon id="Path" fill="#A5D7D6" points="25.2 59.76 28.93 63.73 32.51 60.33 28.77 56.36"></polygon>
            <path d="M16.81,26.69 L16.72,26.77 L20.2,30.47 L20.29,30.39 C22.4726288,28.3104272 25.3951784,27.1883049 28.4087066,27.2727963 C31.4222349,27.3572877 34.27732,28.6413999 36.34,30.84 L45.44,40.52 L49,37.12 L39.8,27.33 C36.8406975,24.1885559 32.7520565,22.3551337 28.4379264,22.2350361 C24.1237962,22.1149385 19.9394882,23.7180568 16.81,26.69 Z" id="Path" fill="#EC632A"></path>
            <polygon id="Path" fill="#A5D7D6" points="49.17 44.49 52.75 41.09 49.01 37.12 45.44 40.52"></polygon>
            <path d="M19.67,46.69 L28.77,56.36 L32.35,53 L23.15,43.22 C21.9525118,41.9681829 21.3051916,40.2895718 21.3521468,38.5578619 C21.3991021,36.826152 22.1364353,35.1850857 23.4,34 L23.49,33.92 L20.2,30.47 L20.12,30.55 C15.5674194,34.8954356 15.3666142,42.0976508 19.67,46.69 L19.67,46.69 Z" id="Path" fill="#1D95A3"></path>
            <polygon id="Path" fill="#A5D7D6" points="32.35 52.96 28.77 56.36 32.51 60.33 36.08 56.93"></polygon>
            <path d="M23.57,33.88 C24.8060739,32.7027408 26.4606603,32.0671318 28.167006,32.114061 C29.8733517,32.1609902 31.4905014,32.886581 32.66,34.13 L41.86,43.92 L45.44,40.52 L36.34,30.84 C34.27732,28.6413999 31.4222349,27.3572877 28.4087066,27.2727963 C25.3951784,27.1883049 22.4726288,28.3104272 20.29,30.39 L20.2,30.47 L23.49,34 L23.57,33.88 Z" id="Path" fill="#EC632A"></path>
            <polygon id="Path" fill="#A5D7D6" points="41.86 43.92 45.59 47.89 49.17 44.49 45.44 40.52"></polygon>
            <g id="Group" opacity="0.5" style="mix-blend-mode: multiply;" transform="translate(16.000000, 30.000000)" fill="#1D95A3">
                <path d="M3.67,16.69 L12.77,26.36 L16.35,23 L7.15,13.22 C5.95251181,11.9681829 5.30519155,10.2895718 5.35214681,8.5578619 C5.39910207,6.82615201 6.13643527,5.18508569 7.4,4 L7.49,3.92 L4.2,0.47 L4.12,0.55 C-0.432580556,4.89543564 -0.633385811,12.0976508 3.67,16.69 L3.67,16.69 Z" id="Path"></path>
            </g>
            <g id="Group" opacity="0.5" style="mix-blend-mode: multiply;" transform="translate(28.000000, 52.000000)" fill="#1D95A3">
                <polygon id="Path" points="4.35 0.96 0.77 4.36 4.51 8.33 8.08 4.93"></polygon>
            </g>
            <path d="M23.57,33.88 C24.8060739,32.7027408 26.4606603,32.0671318 28.167006,32.114061 C29.8733517,32.1609902 31.4905014,32.886581 32.66,34.13 L41.86,43.92 L45.44,40.52 L36.34,30.84 C34.27732,28.6413999 31.4222349,27.3572877 28.4087066,27.2727963 C25.3951784,27.1883049 22.4726288,28.3104272 20.29,30.39 L20.2,30.47 L23.49,34 L23.57,33.88 Z" id="Path" fill="#F3922B"></path>
            <g id="Group" opacity="0.5" style="mix-blend-mode: multiply;" transform="translate(41.000000, 40.000000)" fill="#1D95A3">
                <polygon id="Path" points="0.86 3.92 4.59 7.89 8.17 4.49 4.44 0.52"></polygon>
            </g>
            <path d="M113.58,98.45 L40,98.45 L40,54.91 C40.0026487,53.9074806 40.4034399,52.9470743 41.1142036,52.2400614 C41.8249672,51.5330485 42.7874806,51.1373443 43.79,51.1399867 L109.79,51.1399867 C110.792519,51.1373443 111.755033,51.5330485 112.465796,52.2400614 C113.17656,52.9470743 113.577351,53.9074806 113.58,54.91 L113.58,98.45 Z" id="Path" fill="#05A678"></path>
            <path d="M111.7,49.2399863 L41.86,49.2399863 C39.7762494,49.2344583 38.0810178,50.9162711 38.07,53 L38.07,100.35 L115.49,100.35 L115.49,53 C115.478982,50.9162711 113.783751,49.2344583 111.7,49.2399863 Z M41.8898807,56.81 C41.8819847,55.8005582 42.2780679,54.8298475 42.9899926,54.1141659 C43.7019174,53.3984843 44.67053,52.9972976 45.68,52.9999864 L107.89,52.9999864 C108.891598,52.9973432 109.853083,53.3933654 110.562259,54.1006657 C111.271436,54.807966 111.67,55.7683988 111.67,56.77 L111.67,96.55 L41.8898807,96.55 L41.8898807,56.81 Z" id="Shape" fill="#412413"></path>
            <rect id="Rectangle" fill="#1C0E09" x="35.07" y="100.35" width="83.43" height="3.5"></rect>
            <g id="Group" opacity="0.5" transform="translate(76.000000, 49.000000)" fill="#1D95A3">
                <path d="M35.6701193,7.81 C35.6780153,6.80055816 35.2819321,5.82984753 34.5700074,5.1141659 C33.8580826,4.39848428 32.88947,3.99729761 31.88,3.99998644 L0.78,3.99998644 L0.78,47.55 L35.6701193,47.55 L35.6701193,7.81 Z" id="Path" style="mix-blend-mode: multiply;"></path>
                <path d="M31.88,4 C32.8825194,3.99734432 33.8450328,4.39304851 34.5557964,5.10006141 C35.2665601,5.80707432 35.6673513,6.76748058 35.67,7.77 L35.67,47.55 L0.78,47.55 L0.78,51.35 L39.49,51.35 L39.49,4 C39.4873513,2.99748058 39.0865601,2.03707432 38.3757964,1.33006141 C37.6650328,0.62304851 36.7025194,0.227344324 35.7,0.229986719 L0.78,0.229986719 L0.78,4 L31.88,4 Z" id="Path" style="mix-blend-mode: multiply;"></path>
                <polygon id="Path" style="mix-blend-mode: multiply;" points="39.49 51.35 0.78 51.35 0.78 54.85 42.49 54.85 42.49 51.35"></polygon>
            </g>
            <rect id="Rectangle" fill="#FFFFFF" x="49.67" y="98.45" width="10.16" height="1.9"></rect>
            <polygon id="Path" fill="#FFFFFF" points="58.6 82.75 51.27 82.75 51.27 70.09 58.6 70.09 58.6 72.29 54 72.29 54 75.07 58.3 75.07 58.3 77.27 54 77.27 54 80.53 58.6 80.53"></polygon>
            <path d="M60.41,75.78 L60.41,73.88 L69.05,73.88 L69.05,75.78 L60.41,75.78 Z M60.41,79.13 L60.41,77.23 L69.05,77.23 L69.05,79.13 L60.41,79.13 Z" id="Shape" fill="#FFFFFF"></path>
            <path d="M76.8,82.75 L73.74,72.82 L73.66,72.82 C73.77,74.82 73.83,76.18 73.83,76.82 L73.83,82.71 L71.42,82.71 L71.42,70.09 L75.09,70.09 L78.09,79.77 L78.14,79.77 L81.33,70.09 L85,70.09 L85,82.75 L82.5,82.75 L82.5,76.75 C82.5,76.46 82.5,76.14 82.5,75.75 C82.5,75.36 82.5,74.4 82.62,72.75 L82.54,72.75 L79.26,82.67 L76.8,82.75 Z" id="Path" fill="#FFFFFF"></path>
            <path d="M93.61,72.14 C92.6842926,72.0981742 91.8001661,72.5270697 91.26,73.28 C90.6493426,74.2201526 90.3550339,75.3308178 90.42,76.45 C90.42,79.27 91.49,80.69 93.61,80.69 C94.7236258,80.6380973 95.8213485,80.4050423 96.86,80 L96.86,82.25 C95.7475765,82.6952281 94.5581043,82.91613 93.36,82.9 C91.7663527,83.0034852 90.2102765,82.3869267 89.12,81.22 C88.0534006,79.8567736 87.5296954,78.1467157 87.65,76.42 C87.6292622,75.2403135 87.8753928,74.0711928 88.37,73 C88.8144979,72.0487828 89.5360235,71.254059 90.44,70.72 C91.4063056,70.1761577 92.5014901,69.9032253 93.61,69.93 C94.9047671,69.9397256 96.1803297,70.2440824 97.34,70.82 L96.47,73 C95.99,72.78 95.47,72.58 95.03,72.41 C94.5744489,72.2435595 94.0948466,72.1523675 93.61,72.14 Z" id="Path" fill="#FFFFFF"></path>
            <path d="M103.56,76.84 L98.38,76.84 L98.38,75.76 L100.24,73.88 C100.793333,73.32 101.153333,72.93 101.32,72.71 C101.470943,72.5284005 101.595505,72.326409 101.69,72.11 C101.762007,71.9285559 101.79932,71.7352089 101.8,71.54 C101.823457,71.2931443 101.731116,71.0493658 101.55,70.88 C101.367277,70.7231054 101.130315,70.6441183 100.89,70.66 C100.601787,70.6631866 100.318032,70.7315612 100.06,70.86 C99.7546082,71.0108142 99.4690965,71.1989161 99.21,71.42 L98.36,70.42 C98.6371429,70.16883 98.9425225,69.9507016 99.27,69.77 C99.516326,69.6375452 99.7784017,69.5367469 100.05,69.47 C100.377804,69.3947582 100.713788,69.3611598 101.05,69.37 C101.470371,69.3596525 101.88758,69.4451462 102.27,69.62 C102.609261,69.7718093 102.89747,70.0183503 103.1,70.33 C103.292524,70.6277347 103.393364,70.9754576 103.39,71.33 C103.398801,71.6721189 103.337546,72.0124237 103.21,72.33 C103.071176,72.6611737 102.885991,72.9709375 102.66,73.25 C102.245513,73.7212707 101.801271,74.1655132 101.33,74.58 L100.33,75.48 L100.33,75.55 L103.56,75.55 L103.56,76.84 Z" id="Path" fill="#FFFFFF"></path>
        </g>
    </g>
</svg>