<svg xmlns="http://www.w3.org/2000/svg" width="24" height="24" viewBox="0 0 24 24">
    <defs>
        <filter id="d4fqtylu9a">
            <feColorMatrix in="SourceGraphic" values="0 0 0 0 0.047059 0 0 0 0 0.000000 0 0 0 0 0.345098 0 0 0 1.000000 0"/>
        </filter>
    </defs>
    <g fill="none" fill-rule="evenodd">
        <g>
            <g>
                <g filter="url(#d4fqtylu9a)" transform="translate(-347 -14) translate(291) translate(56 14)">
                    <path fill="#000" fill-rule="nonzero" d="M12 0c6.629 0 12 5.371 12 12s-5.371 12-12 12S0 18.629 0 12 5.371 0 12 0zm4.344 12.4c0 2.235-1.912 4.055-4.263 4.055-.572 0-1.138-.11-1.661-.321l.745-.709c.224-.214.097-.582-.22-.626l-3.836-.521c-.252-.034-.475.171-.438.417l.548 3.65c.045.3.43.423.657.208l.818-.777c1.021.584 2.186.89 3.387.89 3.586 0 6.478-2.669 6.586-6.077.005-.188-.138-.35-.333-.376l-1.548-.21c-.2-.025-.442.138-.442.396zm-4.416-7.067c-3.608 0-6.504 2.671-6.595 6.08-.004.187.139.347.334.374l1.55.21c.231.031.446-.14.443-.37-.032-2.25 1.89-4.092 4.268-4.092.576 0 1.146.111 1.672.323l-.77.729c-.226.212-.098.58.219.623l3.841.519c.253.036.476-.173.44-.416l-.55-3.633c-.044-.298-.432-.422-.658-.208l-.8.756c-1.027-.586-2.194-.895-3.394-.895z"/>
                </g>
            </g>
        </g>
    </g>
</svg>
