<?xml version="1.0" encoding="UTF-8"?>
<svg width="133px" height="134px" viewBox="0 0 133 134" version="1.1" xmlns="http://www.w3.org/2000/svg" xmlns:xlink="http://www.w3.org/1999/xlink">
    <title>subjects/religious studies</title>
    <g id="subjects/religious-studies" stroke="none" stroke-width="1" fill="none" fill-rule="evenodd">
        <g id="religious-studies" fill-rule="nonzero">
            <path d="M132.420052,67.21 C132.439949,83.1046801 126.723116,98.4726616 116.32,110.49 C112.28088,115.159162 107.612972,119.244844 102.45,122.63 C101.29,123.39 100.11,124.12 98.9,124.8 C91.1843743,129.201762 82.655484,131.991427 73.83,133 L73.72,133 L71.59,133.21 C70.2566667,133.323333 68.8866667,133.393333 67.48,133.42 L66.21,133.42 C64.03,133.42 61.87,133.31 59.74,133.11 C59.02,133.04 58.31,132.96 57.6,132.86 C48.0368803,131.6254 38.8629721,128.299986 30.73,123.12 C30.54,123 30.35,122.88 30.17,122.75 C28.65,121.77 27.18,120.73 25.76,119.63 C24.23,118.46 22.76,117.21 21.34,115.89 L20.46,115.07 C18.2269425,112.940526 16.1483528,110.654746 14.24,108.23 C-3.73525809,85.4580118 -4.79188009,53.6361241 11.6331972,29.7218984 C28.0582744,5.80767278 58.1388782,-4.6281434 85.8453597,3.97559058 C113.551841,12.5793246 132.430058,38.2183946 132.420052,67.23 L132.420052,67.21 Z" id="Path" fill="#CE766D"></path>
            <g id="Group" transform="translate(29.000000, 41.000000)">
                <path d="M31.7392447,47.3608067 C33.6040117,46.3048697 34.912406,44.4848128 35.3192447,42.3808067 L35.3192447,42.3808067 C35.3192447,38.9808067 35.3192447,35.5808067 35.2192447,32.1808067 C35.2192447,30.5008067 35.2192447,28.8208067 35.2192447,27.1408067 C35.5395369,25.6039842 35.5395369,24.0176293 35.2192447,22.4808067 C35.0569849,22.0863105 34.8113777,21.7315445 34.4992447,21.4408067 C34.3102576,21.2835278 34.2064911,21.0463472 34.2192447,20.8008067 C35.4392447,12.2808067 36.5792447,3.82080673 36.6792447,1.56080673 C36.695343,1.34617307 36.6057713,1.13717257 36.4392447,1.00080673 C33.1392447,-2.37919327 28.2792447,3.48080673 26.6792447,8.48080673 C25.0792447,13.4808067 17.6392447,35.0608067 16.1792447,36.6208067 C15.0592447,37.8208067 5.03924466,43.7408067 0.499244665,46.4008067 C-0.420755335,46.9408067 -0.000755335395,47.9208067 1.19924466,48.0808067 L18.2592447,50.2008067 C22.9461334,50.8509061 27.7130344,49.8466035 31.7392447,47.3608067 Z" id="Path" fill="#EADF9F"></path>
                <path d="M33.0592447,20.5408067 C33.429916,20.6789762 33.7798529,20.8674037 34.0992447,21.1008067 L34.3992447,18.9608067 C33.2394753,18.6107792 32.0153571,18.5287154 30.8192447,18.7208067 C30.043311,18.8512687 29.2977387,19.1223859 28.6192447,19.5208067 C25.8533536,21.0939447 24.2827175,24.156685 24.6192447,27.3208067 C24.6117254,27.9491247 24.5716718,28.5766318 24.4992447,29.2008067 C24.2192447,31.3008067 23.9392447,33.4808067 23.6992447,35.6808067 L23.6992447,35.6808067 L26.6792447,35.8208067 C26.8592447,33.8208067 27.0792447,31.6608067 27.3192447,29.5608067 C27.5792447,26.8408067 26.8192447,23.2008067 30.0792447,20.8408067 C30.410918,20.5890785 30.7929097,20.4117252 31.1992447,20.3208067 C31.827659,20.2206951 32.4715264,20.2968515 33.0592447,20.5408067 Z" id="Path" fill="#E2C769"></path>
                <path d="M43.2792447,47.3608067 C41.4183966,46.3046336 40.1164062,44.4833099 39.7192447,42.3808067 C39.7192447,42.3808067 39.7192447,42.3808067 39.7192447,42.3808067 C39.7192447,38.9808067 39.7192447,35.5808067 39.8392447,32.1808067 C39.8392447,30.5008067 39.8392447,28.8208067 39.8392447,27.1408067 C39.5189525,25.6039842 39.5189525,24.0176293 39.8392447,22.4808067 C40.0015044,22.0863105 40.2471116,21.7315445 40.5592447,21.4408067 C40.7482318,21.2835278 40.8519983,21.0463472 40.8392447,20.8008067 C39.6192447,12.2808067 38.4792447,3.82080673 38.3792447,1.56080673 C38.3724331,1.34782185 38.4603166,1.14276035 38.6192447,1.00080673 C41.9192447,-2.37919327 46.7792447,3.48080673 48.3992447,8.48080673 C50.0192447,13.4808067 57.4192447,35.0608067 58.8792447,36.6208067 C59.9992447,37.8208067 70.0192447,43.7408067 74.5792447,46.4008067 C75.4792447,46.9408067 75.0592447,47.9208067 73.8592447,48.0808067 L56.8192447,50.1208067 C52.1221198,50.8090915 47.3321951,49.8327109 43.2792447,47.3608067 Z" id="Path" fill="#EADF9F"></path>
                <path d="M41.9792447,20.5408067 C41.599786,20.6731644 41.2424402,20.8619509 40.9192447,21.1008067 L40.6192447,18.9608067 C41.7916103,18.6046444 43.0301208,18.5225332 44.2392447,18.7208067 C45.0151783,18.8512687 45.7607506,19.1223859 46.4392447,19.5208067 C49.2051357,21.0939447 50.7757718,24.156685 50.4392447,27.3208067 C50.4467639,27.9491247 50.4868176,28.5766318 50.5592447,29.2008067 C50.8392447,31.3008067 51.1192447,33.4808067 51.3592447,35.6808067 L51.3592447,35.6808067 L48.3792447,35.8208067 C48.1992447,33.8208067 47.9792447,31.6608067 47.7392447,29.5608067 C47.4192447,26.6608067 48.2592447,23.1008067 44.9392447,20.7808067 C44.6003914,20.5286404 44.2118028,20.3513894 43.7992447,20.2608067 C43.1783718,20.1849529 42.5486066,20.2818398 41.9792447,20.5408067 L41.9792447,20.5408067 Z" id="Path" fill="#E2C769"></path>
            </g>
        </g>
    </g>
</svg>