<?xml version="1.0" encoding="UTF-8"?>
<svg width="133px" height="134px" viewBox="0 0 133 134" version="1.1" xmlns="http://www.w3.org/2000/svg" xmlns:xlink="http://www.w3.org/1999/xlink">
    <title>subjects/science</title>
    <g id="subjects/science" stroke="none" stroke-width="1" fill="none" fill-rule="evenodd">
        <g id="science" fill-rule="nonzero">
            <path d="M132.420052,67.21 C132.439949,83.1046801 126.723116,98.4726616 116.32,110.49 C112.28088,115.159162 107.612972,119.244844 102.45,122.63 C101.29,123.39 100.11,124.12 98.9,124.8 C91.1843743,129.201762 82.655484,131.991427 73.83,133 L73.72,133 L71.59,133.21 C70.2566667,133.323333 68.8866667,133.393333 67.48,133.42 L66.21,133.42 C64.03,133.42 61.87,133.31 59.74,133.11 C59.02,133.04 58.31,132.96 57.6,132.86 C48.0368803,131.6254 38.8629721,128.299986 30.73,123.12 C30.54,123 30.35,122.88 30.17,122.75 C28.65,121.77 27.18,120.73 25.76,119.63 C24.23,118.46 22.76,117.21 21.34,115.89 L20.46,115.07 C18.2269425,112.940526 16.1483528,110.654746 14.24,108.23 C-3.73525809,85.4580118 -4.79188009,53.6361241 11.6331972,29.7218984 C28.0582744,5.80767278 58.1388782,-4.6281434 85.8453597,3.97559058 C113.551841,12.5793246 132.430058,38.2183946 132.420052,67.23 L132.420052,67.21 Z" id="Path" fill="#BEC9E8"></path>
            <path d="M75.57,64.26 C75.57,68.45 71.69,71.84 66.92,71.84 C62.15,71.84 58.26,68.45 58.26,64.26 C58.26,60.07 62.14,56.68 66.92,56.68 C71.7,56.68 75.57,60.07 75.57,64.26 Z" id="Path" fill="#1D95A3"></path>
            <path d="M61,35 C60.6961194,37.2917532 58.7418123,39.0040297 56.43,39.0040297 C54.1181877,39.0040297 52.1638806,37.2917532 51.86,35 C52.1638806,32.7082468 54.1181877,30.9959703 56.43,30.9959703 C58.7418123,30.9959703 60.6961194,32.7082468 61,35 Z" id="Path" fill="#FBBC0C"></path>
            <path d="M36,76.14 C36,78.75 33.58,80.87 30.6,80.87 C27.62,80.87 25.2,78.75 25.2,76.14 C25.2,73.53 27.62,71.41 30.6,71.41 C33.58,71.41 36,73.53 36,76.14 Z" id="Path" fill="#1D95A3"></path>
            <path d="M82,58.58 C82,58.26 82,57.95 82,57.65 L81.88,55.79 C81.88,55.47 81.88,55.16 81.81,54.85 C81.53,51.56 81.13,48.44 80.59,45.52 C80.59,45.24 80.5,44.96 80.45,44.69 C80.34,44.13 80.23,43.6 80.11,43.06 C80.05,42.79 80,42.52 79.94,42.25 C77.29,30.45 72.52,22.74 66.94,22.74 C60.94,22.74 55.94,31.68 53.41,45.03 C53.41,45.3 53.3,45.56 53.26,45.83 C53.17,46.35 53.08,46.88 53,47.41 C53,47.68 52.91,47.95 52.88,48.23 C52.5,50.72 52.21,53.35 52.02,56.08 C52.02,56.43 52.02,56.78 51.95,57.13 C51.95,57.81 51.87,58.49 51.85,59.13 C51.85,59.48 51.85,59.83 51.85,60.13 C51.8,61.45 51.79,62.8 51.79,64.13 C51.79,66.06 51.79,67.95 51.92,69.81 C51.92,70.12 51.92,70.43 51.92,70.74 C51.96,71.3666667 52,71.9866667 52.04,72.6 C52.04,72.91 52.04,73.23 52.11,73.54 C52.3459905,76.7114727 52.7431705,79.8688865 53.3,83 L53.45,83.82 C53.55,84.37 53.67,84.91 53.79,85.45 C53.84,85.72 53.9,85.99 53.96,86.26 C56.61,98.06 61.37,105.77 66.96,105.77 C72.96,105.77 77.96,96.83 80.48,83.48 L80.63,82.67 C80.72,82.15 80.81,81.67 80.89,81.09 C80.94,80.83 80.97,80.56 81.01,80.29 C81.39,77.79 81.68,75.16 81.86,72.43 C81.86,72.08 81.92,71.73 81.94,71.43 C81.94,70.76 82.01,70.07 82.04,69.43 C82.04,69.09 82.04,68.75 82.04,68.43 C82.04,67.09 82.1,65.74 82.1,64.37 C82.11,62.33 82.07,60.43 82,58.58 Z M80.19,69.51 L80.13,70.51 C80.13,71.2 80.06,71.87 80.01,72.51 C80.01,72.86 79.96,73.21 79.93,73.51 C79.75,75.69 79.5166667,77.7766667 79.23,79.77 C79.23,80.04 79.15,80.31 79.1,80.58 C79.02,81.12 78.94,81.64 78.84,82.16 C78.84,82.44 78.75,82.7 78.7,82.97 C76.28,96.09 71.49,104.1 66.92,104.1 C62.66,104.1 58.2,97.1 55.65,85.54 C55.59,85.27 55.53,85 55.48,84.73 C55.36,84.19 55.25,83.64 55.15,83.09 L55,82.36 C54.58,79.92 54.22,77.29 54,74.51 C54,74.21 53.94,73.89 53.92,73.57 C53.86,72.97 53.82,72.35 53.78,71.73 L53.72,70.73 C53.61,68.63 53.55,66.45 53.55,64.21 C53.55,62.41 53.55,60.66 53.66,58.96 C53.66,58.61 53.66,58.27 53.66,57.96 L53.78,55.96 L53.87,54.96 C54.04,52.78 54.28,50.69 54.57,48.71 L54.69,47.88 C54.78,47.35 54.86,46.88 54.95,46.31 C55,46.03 55.05,45.76 55.09,45.49 C57.52,32.38 62.32,24.38 66.89,24.38 C71.15,24.38 75.61,31.38 78.14,42.93 C78.21,43.19 78.26,43.46 78.33,43.74 C78.43,44.27 78.54,44.83 78.65,45.38 C78.65,45.66 78.75,45.93 78.79,46.21 C79.23,48.66 79.57,51.28 79.79,54.05 C79.79,54.36 79.79,54.68 79.86,54.99 C79.86,55.59 79.96,56.21 80,56.84 C80,57.15 80,57.46 80.05,57.78 C80.17,59.88 80.23,62.0566667 80.23,64.31 C80.3,66.06 80.26,67.81 80.19,69.51 Z" id="Shape" fill="#1D95A3"></path>
            <path d="M82.93,59 C82.93,58.69 82.93,58.37 82.93,58.06 C82.93,57.43 82.86,56.81 82.81,56.2 L82.75,55.2 C82.5031358,51.8096642 82.0758639,48.4348838 81.47,45.09 L81.32,44.27 C81.21,43.72 81.1,43.18 80.98,42.65 C80.98,42.38 80.87,42.11 80.81,41.85 C78.04,29.66 72.99,21.85 66.96,21.85 C60.47,21.85 55.11,30.91 52.51,44.73 L52.36,45.53 C52.27,46.05 52.18,46.53 52.1,47.1 C52.05,47.37 52.02,47.64 51.98,47.92 C51.56,50.67 51.25,53.58 51.06,56.62 C51.06,56.97 51.06,57.32 50.99,57.68 C50.99,58.35 50.93,59.03 50.91,59.68 C50.91,60.03 50.91,60.38 50.91,60.73 C50.91,61.85 50.91,62.99 50.91,64.15 C50.91,65.92 50.91,67.66 51.02,69.36 C51.02,69.68 51.02,70 51.02,70.36 C51.02,70.99 51.1,71.6 51.14,72.21 C51.14,72.54 51.14,72.85 51.21,73.21 C51.4310632,76.6049878 51.8282647,79.9862067 52.4,83.34 L52.55,84.15 C52.66,84.71 52.77,85.24 52.89,85.78 C52.89,86.05 53.01,86.32 53.06,86.59 C55.84,98.77 60.89,106.59 66.92,106.59 C73.41,106.59 78.77,97.52 81.36,83.7 C81.42,83.43 81.46,83.16 81.51,82.89 C81.6,82.37 81.68,81.89 81.77,81.32 C81.77,81.05 81.85,80.79 81.9,80.51 C82.3066667,77.7633333 82.61,74.8633333 82.81,71.81 L82.87,70.75 C82.87,70.08 82.94,69.41 82.96,68.75 C82.96,68.41 82.96,68.07 82.96,67.75 C82.96,66.62 83.01,65.47 83.01,64.31 C83,62.48 83,60.74 82.93,59 Z M66.93,103.34 C63.5,103.34 59.05,97.06 56.5,85.34 C56.44,85.06 56.39,84.78 56.33,84.5 C56.22,83.97 56.11,83.43 56.02,82.87 C55.96,82.6 55.91,82.33 55.87,82.04 C55.49,79.84 55.17,77.47 54.94,74.94 C54.94,74.63 54.88,74.31 54.86,74 C54.81,73.4 54.76,72.78 54.72,72.17 L54.66,71.17 C54.5333333,68.9633333 54.4666667,66.6466667 54.46,64.22 C54.46,62.22 54.46,60.22 54.6,58.37 L54.66,57.37 C54.66,56.68 54.74,56.01 54.79,55.37 C54.79,55.02 54.85,54.68 54.87,54.37 C55.03,52.47 55.2366667,50.6566667 55.49,48.93 C55.49,48.66 55.57,48.38 55.61,48.11 C55.69,47.58 55.77,47.05 55.87,46.53 C55.87,46.26 55.96,45.99 56.01,45.72 C58.44,32.36 63.27,25.19 66.93,25.19 C70.35,25.19 74.79,31.48 77.35,43.25 C77.35,43.52 77.46,43.79 77.52,44.07 C77.63,44.61 77.74,45.14 77.83,45.71 C77.89,45.97 77.93,46.25 77.99,46.53 C78.36,48.74 78.68,51.11 78.91,53.64 C78.91,53.94 78.91,54.26 78.99,54.58 C78.99,55.18 79.09,55.79 79.13,56.42 L79.19,57.35 C79.32,59.57 79.38,61.88 79.38,64.35 C79.38,66.35 79.38,68.35 79.24,70.2 C79.24,70.55 79.24,70.89 79.24,71.2 C79.24,71.88 79.15,72.56 79.11,73.2 C79.11,73.56 79.05,73.9 79.02,74.2 C78.87,76.1 78.65,77.92 78.41,79.64 C78.41,79.92 78.33,80.19 78.29,80.45 C78.21,80.99 78.12,81.52 78.03,82.03 C78.03,82.31 77.94,82.58 77.89,82.84 C75.4,96.21 70.57,103.38 66.92,103.38 L66.93,103.34 Z" id="Shape" fill="#FBBC0C"></path>
            <path d="M83,64.26 C83,65.42 83,66.57 82.95,67.7 C82.95,68.05 82.95,68.39 82.95,68.7 C82.95,69.39 82.89,70.06 82.86,70.7 L82.8,71.76 C82.6,74.8133333 82.2966667,77.7133333 81.89,80.46 C81.84,80.74 81.8,81 81.76,81.27 C81.67,81.8 81.59,82.27 81.5,82.84 C81.45,83.11 81.41,83.38 81.35,83.65 C78.76,97.47 73.35,106.54 66.91,106.54 L66.91,103.32 C70.56,103.32 75.39,96.15 77.82,82.78 C77.82,82.52 77.91,82.25 77.96,81.97 C78.05,81.46 78.14,80.97 78.22,80.39 C78.22,80.13 78.29,79.86 78.34,79.58 C78.58,77.86 78.8,76.04 78.95,74.14 C78.95,73.8 79.01,73.46 79.04,73.14 C79.04,72.48 79.13,71.8 79.17,71.14 C79.17,70.8 79.17,70.46 79.17,70.14 C79.27,68.27 79.31,66.31 79.31,64.29 C79.31,61.86 79.25,59.55 79.12,57.29 L79.06,56.36 C79.06,55.73 78.97,55.12 78.92,54.52 C78.92,54.2 78.92,53.88 78.84,53.58 C78.61,51.05 78.29,48.68 77.92,46.47 C77.86,46.19 77.82,45.91 77.76,45.65 C77.67,45.08 77.56,44.55 77.45,44.01 C77.39,43.73 77.33,43.46 77.28,43.19 C74.72,31.42 70.28,25.13 66.86,25.13 L66.86,21.93 C72.86,21.93 77.94,29.75 80.71,41.93 C80.77,42.19 80.83,42.46 80.88,42.73 C81,43.26 81.11,43.8 81.22,44.35 L81.37,45.17 C81.9758639,48.5148838 82.4031358,51.8896642 82.65,55.28 L82.71,56.28 C82.71,56.89 82.79,57.51 82.83,58.14 C82.83,58.45 82.83,58.77 82.83,59.08 C83,60.74 83,62.48 83,64.26 Z" id="Path" fill="#F3922B"></path>
            <path d="M106.68,41.64 C105.34,39.84 102.68,38.92 98.86,38.92 C94.13,38.92 87.86,40.29 80.94,42.74 L80.04,43.06 C79.48,43.26 78.92,43.47 78.36,43.69 L77.51,44.02 C74.09,45.35 70.51,46.92 66.92,48.7 L66.92,48.7 L66.62,48.85 L65.62,49.36 L63.62,50.36 L62.62,50.9 C61.32,51.5666667 60.0166667,52.2833333 58.71,53.05 C57.4,53.8 56.11,54.55 54.86,55.31 C54.53,55.5 54.21,55.71 53.86,55.9 C53.22,56.29 52.59,56.69 51.98,57.08 L50.98,57.71 C47.55,59.94 44.39,62.19 41.57,64.42 C41.33,64.61 41.09,64.79 40.86,64.99 C40.4,65.35 39.95,65.72 39.51,66.09 L38.82,66.67 C28.93,75.09 24.13,82.8 27.15,86.87 C28.5,88.68 31.15,89.6 34.97,89.6 C39.7,89.6 45.97,88.23 52.89,85.78 L53.79,85.46 L55.48,84.83 L56.32,84.49 C59.74,83.16 63.32,81.59 66.91,79.81 L67.21,79.67 L68.21,79.15 L70.21,78.15 L71.21,77.61 C72.5433333,76.9433333 73.8433333,76.23 75.11,75.47 C76.43,74.72 77.71,73.96 78.97,73.2 L79.97,72.61 L81.86,71.43 L82.86,70.8 C86.3,68.57 89.46,66.31 92.28,64.08 L92.99,63.52 C93.45,63.15 93.91,62.78 94.34,62.41 C94.57,62.22 94.8,62.03 95.02,61.83 C104.89,53.42 109.7,45.72 106.68,41.64 Z M93.52,60.9 L92.83,61.47 C92.38,61.83 91.93,62.21 91.46,62.57 C91.22,62.77 90.98,62.96 90.74,63.14 C88.4,64.9666667 85.82,66.83 83,68.73 C82.68,68.93 82.37,69.15 82,69.35 C81.39,69.75 80.77,70.15 80.13,70.54 C79.82,70.75 79.5,70.94 79.18,71.14 C77.58,72.14 75.93,73.14 74.18,74.14 C72.43,75.14 70.81,76 69.11,76.86 L68.11,77.39 L66.92,78 L66.92,78 L66.09,78.41 L65.09,78.91 C62.03,80.39 58.99,81.72 56.09,82.91 L55.23,83.24 C54.66,83.46 54.09,83.68 53.53,83.88 L52.63,84.2 C45.65,86.62 39.49,88 35,88 C32.8,88 29.93,87.65 28.7,86 C26.35,82.88 30.6,75.8 40.32,67.63 C40.54,67.43 40.78,67.23 41.01,67.05 C41.45,66.68 41.91,66.31 42.37,65.94 L43.09,65.37 C45.43,63.54 48.03,61.67 50.87,59.79 L51.87,59.17 C52.47,58.77 53.09,58.37 53.73,57.98 C54.05,57.77 54.36,57.57 54.73,57.38 C56.32,56.38 57.98,55.38 59.73,54.38 C61.48,53.38 63.12,52.5 64.82,51.62 L65.82,51.1 L67,50.5 L67,50.5 L67.83,50.09 L68.83,49.59 C71.9,48.11 74.94,46.78 77.83,45.59 L78.69,45.26 C79.26,45.03 79.83,44.82 80.39,44.62 L81.29,44.29 C88.19,41.83 94.29,40.44 98.87,40.44 C101.07,40.44 103.94,40.79 105.16,42.44 C107.48,45.65 103.23,52.72 93.52,60.9 Z" id="Shape" fill="#1D95A3"></path>
            <path d="M107.46,41.21 C105.93,39.15 103.04,38.11 98.86,38.11 C94.07,38.11 87.8,39.46 80.77,41.94 L79.87,42.25 L78.17,42.88 L77.34,43.2 C74,44.51 70.48,46 66.92,47.78 L66.92,47.78 C66.44,48 65.98,48.23 65.51,48.47 C65.04,48.71 64.81,48.82 64.51,49 L62.51,50 L61.51,50.54 C60.41,51.14 59.32,51.74 58.22,52.36 C57.12,52.98 56.02,53.63 54.95,54.27 L53.95,54.86 C53.31,55.24 52.68,55.64 52.05,56.03 L51.05,56.65 C47.4906811,58.9232303 44.0495497,61.3764132 40.74,64 L40.03,64.56 L38.68,65.67 L38,66.24 C27.83,74.91 23.09,82.89 26.37,87.31 C27.89,89.37 30.79,90.41 34.97,90.41 C39.76,90.41 46.04,89.05 53.06,86.59 L53.96,86.27 C54.52,86.07 55.09,85.86 55.65,85.64 L56.49,85.33 C59.85,84.02 63.35,82.48 66.91,80.75 L66.91,80.75 L68.34,80 L69.34,79.47 C70.01,79.13 70.68,78.79 71.34,78.47 L72.34,77.92 C73.43,77.34 74.53,76.74 75.62,76.11 C76.71,75.48 77.9,74.84 79,74.2 L80,73.61 L81.89,72.44 L82.89,71.82 C86.68,69.39 90.12,66.94 93.17,64.53 L93.8,64 L95.15,62.89 L95.83,62.31 C106,53.61 110.74,45.63 107.46,41.21 Z M90.67,62.14 L90,62.7 C87.9133333,64.32 85.58,65.9866667 83,67.7 L82.06,68.32 L80.2,69.51 C79.88,69.72 79.57,69.92 79.2,70.11 C77.46,71.2 75.61,72.3 73.67,73.41 C71.73,74.52 69.88,75.51 67.98,76.48 L67,77 L66.93,77 L66.93,77 L65,78 L64,78.51 C61.19,79.81 58.49,81 55.86,82 L55,82.33 C54.43,82.56 53.86,82.77 53.3,82.98 L52.4,83.31 C45.54,85.78 39.4,87.17 34.97,87.17 C33.36,87.17 30.5,86.95 29.45,85.53 C27.96,83.53 30.08,79.02 34.97,73.8 C36.9038919,71.7663526 38.9539942,69.8464684 41.11,68.05 L41.81,67.47 L43.18,66.37 L43.89,65.81 C46.04,64.14 48.36,62.46 50.83,60.81 L51.83,60.19 C52.44,59.78 53.06,59.38 53.69,58.98 L54.69,58.38 C56.48,57.27 58.33,56.16 60.23,55.08 C62.13,54 63.93,53 65.82,52 L66.82,51.48 L66.89,51.48 L66.89,51.48 L68.83,50.48 L69.83,49.98 C72.58,48.66 75.28,47.49 77.91,46.44 L78.75,46.12 C79.33,45.89 79.9,45.68 80.45,45.48 L81.36,45.14 C88.22,42.67 94.36,41.28 98.79,41.28 C100.39,41.28 103.25,41.49 104.3,42.91 C106.17,45.43 102.57,52.13 92.68,60.41 L91.98,60.99 C91.6,61.4 91.15,61.77 90.67,62.14 Z" id="Shape" fill="#1D95A3"></path>
            <g id="Group" opacity="0.5" style="mix-blend-mode: multiply;" transform="translate(66.000000, 56.000000)" fill="#1D95A3">
                <path d="M9.57,8.26 C9.57,12.45 5.69,15.84 0.92,15.84 L0.92,0.68 C5.69,0.68 9.57,4.07 9.57,8.26 Z" id="Path"></path>
            </g>
            <g id="Group" opacity="0.8" style="mix-blend-mode: multiply;" transform="translate(66.000000, 38.000000)" fill="#1D95A3">
                <path d="M29.83,24.28 L29.15,24.86 L27.8,26 L27.09,26.56 C24.09,28.97 20.6,31.42 16.81,33.85 L15.81,34.47 L13.92,35.64 L12.92,36.23 C11.86,36.87 10.77,37.51 9.65,38.14 C8.53,38.77 7.46,39.37 6.37,39.95 L5.37,40.5 C4.71,40.86 4.04,41.2 3.37,41.5 L2.37,42.03 L0.95,42.74 L0.95,42.74 L0.95,39.04 L0.95,39.04 L1,39 L2,38.47 C3.9,37.47 5.79,36.47 7.69,35.4 C9.59,34.33 11.48,33.19 13.22,32.1 C13.55,31.91 13.86,31.71 14.22,31.5 L16.08,30.31 L17,29.7 C19.56,27.9866667 21.8933333,26.32 24,24.7 L24.71,24.14 C25.19,23.77 25.64,23.4 26.09,23.03 L26.79,22.45 C36.68,14.17 40.28,7.45 38.41,4.95 C37.36,3.53 34.5,3.32 32.9,3.32 C28.44,3.32 22.33,4.71 15.47,7.18 L14.56,7.52 C14.01,7.72 13.44,7.93 12.86,8.16 L12.02,8.48 C9.35,9.53 6.65,10.7 3.9,12 L2.9,12.5 L0.96,13.5 L0.96,13.5 L0.96,9.8 L0.96,9.8 C4.48,8 8,6.51 11.34,5.2 L12.17,4.88 L13.87,4.25 L14.77,3.94 C21.77,1.46 28.07,0.11 32.86,0.11 C37.04,0.11 39.93,1.11 41.46,3.21 C44.74,7.63 40,15.61 29.83,24.28 Z" id="Path"></path>
            </g>
            <path d="M111.68,71.84 C111.660974,73.0000653 111.139192,74.0947138 110.25,74.84 C110.027122,75.0388181 109.786063,75.216264 109.53,75.37 C109.014426,75.6663326 108.453599,75.8757981 107.87,75.99 C107.540871,76.0568333 107.205846,76.0903359 106.87,76.0900025 L106.74,76.0900025 C104.03,76.0900025 101.84,74.16 101.84,71.79 C101.835934,71.4522026 101.879702,71.1155301 101.97,70.79 C102.047512,70.4936192 102.161728,70.2080769 102.31,69.94 C102.577382,69.4373247 102.948997,68.9975235 103.4,68.65 C103.624337,68.4543093 103.869079,68.2833252 104.13,68.14 C104.931275,67.7056016 105.828549,67.4787046 106.74,67.4799945 C109.49,67.54 111.68,69.46 111.68,71.84 Z" id="Path" fill="#EC632A"></path>
            <path d="M109.53,75.41 C107.901458,72.8422612 105.841095,70.5755228 103.44,68.71 C102.88,68.24 102.28,67.77 101.66,67.29 C99.72,65.81 97.54,64.29 95.15,62.86 L94.35,62.37 L92.83,61.47 L92.05,61 C89.18,59.36 86.05,57.74 82.77,56.21 C82.46,56.05 82.13,55.91 81.77,55.76 L79.89,54.91 C79.58,54.77 79.27,54.63 78.89,54.5 C76.9766667,53.66 75.0166667,52.85 73.01,52.07 C71.6,51.51 70.18,50.98 68.77,50.49 C68.4,50.34 68.04,50.21 67.66,50.09 C67.28,49.97 67.11,49.89 66.83,49.81 C66.38,49.64 65.94,49.49 65.49,49.34 L64.46,49 C61.53,48 58.65,47.2 55.86,46.47 L55,46.26 C54.42,46.11 53.83,45.96 53.26,45.83 L52.34,45.61 C46.7431146,44.2312114 41.0125948,43.466695 35.25,43.33 C28.99,43.33 24.97,44.72 23.63,47.33 C21.9,50.73 24.94,55.65 32.19,61.19 C34.14,62.67 36.32,64.19 38.7,65.63 C38.96,65.8 39.23,65.96 39.5,66.11 L41.03,67.02 C41.29,67.17 41.56,67.33 41.83,67.47 C44.69,69.11 47.83,70.71 51.07,72.24 L52.07,72.7 L53.95,73.54 C54.26,73.68 54.58,73.83 54.95,73.96 C56.86,74.79 58.83,75.61 60.83,76.39 C62.14,77 63.57,77.5 65,78 L66.1,78.4 C66.38,78.5 66.66,78.6 66.94,78.68 C67.39,78.84 67.84,79 68.28,79.14 C68.72,79.28 69.04,79.4 69.41,79.51 C72.32,80.51 75.19,81.31 77.99,82.03 L78.86,82.26 L80.61,82.68 C80.92,82.76 81.22,82.84 81.53,82.9 C87.1296645,84.2834285 92.8636421,85.051312 98.63,85.19 C104.88,85.19 108.9,83.8 110.23,81.19 C111,79.55 110.79,77.6 109.53,75.41 Z M108.53,80.51 C107.53,82.51 103.98,83.6 98.53,83.6 C92.8505788,83.461007 87.2035117,82.6997931 81.69,81.33 C81.39,81.26 81.09,81.19 80.77,81.1 L79.02,80.68 L78.15,80.45 C75.9166667,79.87 73.6366667,79.2033333 71.31,78.45 C70.94,78.33 70.56,78.22 70.19,78.09 L68.01,77.37 L67,77 C67,77 67,77 66.93,77 C65.1166667,76.3666667 63.3,75.7 61.48,75 C59.16,74.1 56.9,73.15 54.72,72.19 L53.72,71.76 C53.09,71.48 52.47,71.19 51.86,70.9 L50.86,70.45 C48.13,69.14 45.53,67.8 43.11,66.45 L42.3,65.99 L40.83,65 L40.03,64.51 C37.7319357,63.1202631 35.5057495,61.6150007 33.36,60 C26.85,55 23.91,50.64 25.26,48 C26.26,46 29.82,44.9 35.26,44.9 C40.9361264,45.0389998 46.5798791,45.800219 52.09,47.17 L53.01,47.4 L54.75,47.82 L55.63,48.05 C57.87,48.6366667 60.15,49.3033333 62.47,50.05 L63.6,50.41 C64.31,50.64 65.03,50.88 65.76,51.14 C66.13,51.25 66.5,51.38 66.87,51.51 L66.95,51.51 C68.7633333,52.1433333 70.5766667,52.81 72.39,53.51 C74.7,54.42 76.96,55.36 79.15,56.34 L80.1,56.76 C80.72,57.04 81.34,57.32 81.96,57.62 L82.96,58.07 C85.7,59.38 88.31,60.73 90.74,62.07 L91.53,62.5 L93.07,63.41 C93.34,63.57 93.61,63.73 93.87,63.9 C96.1710877,65.2835838 98.394437,66.7925236 100.53,68.42 C101.2,68.93 101.83,69.42 102.42,69.93 C104.584645,71.6049954 106.450885,73.6335167 107.94,75.93 C108.92,77.79 109.17,79.32 108.56,80.51 L108.53,80.51 Z" id="Shape" fill="#1D95A3"></path>
            <path d="M110.25,74.88 C108.603773,72.3346695 106.549624,70.077808 104.17,68.2 C103.57,67.7 102.93,67.2 102.27,66.68 C100.34,65.22 98.19,63.74 95.83,62.28 L95.03,61.79 C94.54,61.49 94.03,61.19 93.52,60.9 C93.27,60.74 93.01,60.6 92.75,60.45 C89.64,58.68 86.28,56.94 82.75,55.29 L81.75,54.85 L79.86,54 L78.86,53.59 C77.09,52.82 75.28,52.07 73.44,51.36 C72.25,50.89 71.05,50.45 69.86,50.02 C69.5,49.88 69.13,49.74 68.75,49.62 C68.13,49.39 67.5,49.17 66.88,48.97 C66.7818277,48.9201532 66.6776342,48.8831814 66.57,48.86 C66.2,48.72 65.83,48.6 65.46,48.48 C62.22,47.41 59.04,46.48 55.96,45.67 L55.08,45.44 L53.39,45 C53.08,44.92 52.77,44.84 52.47,44.78 C46.8232932,43.3927975 41.0428797,42.6216286 35.23,42.48 C28.57,42.48 24.23,44.05 22.76,47 C20.85,50.76 23.97,56 31.56,61.8 C33.6298355,63.3853591 35.7793028,64.8639523 38,66.23 L38.79,66.72 L40.32,67.63 C40.58,67.78 40.84,67.94 41.11,68.08 C44.2,69.85 47.56,71.58 51.11,73.22 C51.43,73.38 51.75,73.52 52.11,73.67 C52.73,73.95 53.36,74.24 54,74.51 L55,74.93 C56.76,75.69 58.58,76.44 60.42,77.16 C61.62,77.62 62.81,78.08 64.01,78.51 C64.37,78.64 64.73,78.78 65.1,78.9 C65.73,79.13 66.36,79.35 66.99,79.55 C67.0865817,79.5953911 67.1869685,79.6321995 67.29,79.66 L68.41,80.04 C71.63,81.11 74.82,82.04 77.9,82.84 C78.2,82.93 78.49,83 78.77,83.07 C79.36,83.22 79.93,83.36 80.51,83.49 L81.43,83.71 C87.0575357,85.0895452 92.8175957,85.8573297 98.61,86 C105.26,86 109.61,84.44 111.07,81.49 C112,79.62 111.72,77.38 110.25,74.88 Z M107.72,80.18 C106.87,81.84 103.55,82.79 98.61,82.79 C92.9734248,82.6507067 87.3694655,81.8894268 81.9,80.52 L81,80.3 L79.26,79.87 L78.38,79.64 C76.44,79.13 74.45,78.56 72.44,77.92 C72.07,77.82 71.69,77.69 71.32,77.57 C70.6,77.35 69.87,77.11 69.14,76.86 L68,76.48 C67.64,76.37 67.27,76.24 66.91,76.11 C65.23,75.52 63.53,74.89 61.84,74.23 C59.37,73.23 56.96,72.23 54.64,71.23 L53.69,70.8 C53.07,70.53 52.46,70.24 51.84,69.96 L50.84,69.49 C48.38,68.31 46.04,67.09 43.84,65.86 L43.04,65.39 C42.52,65.1 42.04,64.8 41.49,64.49 L40.69,64.01 C38.3785819,62.5985804 36.1453106,61.0629978 34,59.41 C27.91,54.77 25,50.63 26.14,48.34 C26.99,46.68 30.31,45.73 35.26,45.73 C40.8863679,45.8733545 46.479943,46.6345904 51.94,48 C52.24,48.07 52.55,48.14 52.86,48.23 C53.43,48.36 54.02,48.5 54.6,48.66 L55.48,48.88 C57.4333333,49.4 59.4133333,49.97 61.42,50.59 C61.79,50.71 62.17,50.82 62.54,50.95 C63.27,51.17 63.99,51.41 64.72,51.66 L65.82,52.03 L66.92,52.41 C68.6,53.0033333 70.2866667,53.63 71.98,54.29 C74.45,55.29 76.86,56.29 79.18,57.29 L80.12,57.72 L81.97,58.57 L82.97,59.03 C85.44,60.22 87.79,61.44 89.97,62.69 C90.24,62.83 90.49,62.98 90.75,63.13 L92.3,64.03 C92.57,64.19 92.84,64.35 93.1,64.52 C95.4382409,65.9224716 97.6982629,67.4514082 99.87,69.1 C100.64,69.68 101.37,70.27 102.02,70.84 C103.904558,72.3489634 105.555734,74.1281896 106.92,76.12 C107.94,77.77 108.24,79.16 107.72,80.18 L107.72,80.18 Z" id="Shape" fill="#EC632A"></path>
            <path d="M110.25,74.88 C111.72,77.38 112.02,79.62 111.07,81.49 C109.57,84.49 105.26,86 98.61,86 C92.7941337,85.8623681 87.0103337,85.0945477 81.36,83.71 L80.44,83.49 C79.86,83.36 79.29,83.22 78.7,83.07 C78.42,83 78.13,82.93 77.83,82.84 C74.75,82.05 71.56,81.11 68.34,80.04 L67.22,79.66 C67.1169685,79.6321995 67.0165817,79.5953911 66.92,79.55 L66.92,76.11 C67.28,76.24 67.65,76.37 68.01,76.48 L69.11,76.86 C69.84,77.11 70.57,77.35 71.29,77.57 C71.66,77.69 72.04,77.82 72.41,77.92 C74.41,78.56 76.41,79.13 78.35,79.64 L79.23,79.87 L81,80.3 L81.93,80.52 C87.3994655,81.8894268 93.0034248,82.6507067 98.64,82.79 C103.58,82.79 106.9,81.79 107.75,80.18 C108.27,79.18 107.97,77.77 106.94,76.13 L106.81,76.13 C104.1,76.13 101.91,74.2 101.91,71.83 C101.905934,71.4922026 101.949702,71.1555301 102.04,70.83 C101.39,70.26 100.66,69.67 99.89,69.09 C97.7182629,67.4414082 95.4582409,65.9124716 93.12,64.51 C92.86,64.34 92.59,64.18 92.32,64.02 L90.77,63.12 C90.51,62.97 90.26,62.82 89.99,62.68 C87.78,61.43 85.43,60.21 82.99,59.02 L81.99,58.56 L80.14,57.71 L79.2,57.28 C76.88,56.28 74.47,55.28 72,54.28 C70.3133333,53.6133333 68.6266667,52.9866667 66.94,52.4 L66.94,49 C67.56,49.2 68.19,49.42 68.81,49.65 C69.19,49.77 69.56,49.91 69.92,50.05 C71.11,50.48 72.31,50.92 73.5,51.39 C75.34,52.1 77.15,52.85 78.92,53.62 L79.92,54.03 L81.8,54.88 L82.8,55.32 C86.37,56.97 89.73,58.71 92.8,60.48 C93.06,60.63 93.32,60.77 93.57,60.93 C94.08,61.22 94.57,61.52 95.08,61.82 L95.88,62.31 C98.24,63.77 100.39,65.25 102.32,66.71 C102.98,67.22 103.62,67.71 104.22,68.23 C105.021275,67.7956016 105.918549,67.5687046 106.83,67.57 C109.54,67.57 111.73,69.49 111.73,71.87 C111.701478,73.0417079 111.160494,74.1419524 110.25,74.88 Z" id="Path" fill="#F3922B"></path>
        </g>
    </g>
</svg>