<svg xmlns="http://www.w3.org/2000/svg" xmlns:xlink="http://www.w3.org/1999/xlink" width="18" height="18" viewBox="0 0 18 18">
    <defs>
        <path id="igpqcfpr3a" d="M12.864 11.32h-.813l-.288-.277C12.772 9.87 13.38 8.346 13.38 6.69 13.38 2.995 10.384 0 6.69 0 2.996 0 0 2.995 0 6.69c0 3.694 2.995 6.69 6.69 6.69 1.656 0 3.18-.608 4.353-1.617l.278.288v.813L16.467 18 18 16.467l-5.136-5.146zm-6.174 0c-2.563 0-4.632-2.068-4.632-4.63 0-2.563 2.069-4.632 4.632-4.632 2.562 0 4.63 2.069 4.63 4.632 0 2.562-2.068 4.63-4.63 4.63z"/>
    </defs>
    <g fill="none" fill-rule="evenodd">
        <g>
            <g>
                <g transform="translate(-364 -238) translate(347 220) translate(17 18)">
                    <use fill="#0C0058" fill-rule="nonzero" xlink:href="#igpqcfpr3a"/>
                </g>
            </g>
        </g>
    </g>
</svg>
