<?xml version="1.0" encoding="UTF-8"?>
<svg width="133px" height="133px" viewBox="0 0 133 133" version="1.1" xmlns="http://www.w3.org/2000/svg" xmlns:xlink="http://www.w3.org/1999/xlink">
    <title>subjects/social studies</title>
    <g id="subjects/social-studies" stroke="none" stroke-width="1" fill="none" fill-rule="evenodd">
        <g id="social-studies" fill-rule="nonzero">
            <path d="M132.420052,66.21 C132.439949,82.1046801 126.723116,97.4726616 116.32,109.49 C112.28088,114.159162 107.612972,118.244844 102.45,121.63 C101.29,122.39 100.11,123.12 98.9,123.8 C91.1843743,128.201762 82.655484,130.991427 73.83,132 L73.72,132 L71.59,132.21 C70.2566667,132.323333 68.8866667,132.393333 67.48,132.42 L66.21,132.42 L64.48,132.42 C62.89,132.42 61.3,132.28 59.74,132.13 C59.02,132.06 58.31,131.98 57.6,131.88 C48.0368803,130.6454 38.8629721,127.319986 30.73,122.14 C30.54,122.02 30.35,121.9 30.17,121.77 C28.65,120.79 27.18,119.75 25.76,118.65 C24.6666667,117.816667 23.6066667,116.946667 22.58,116.04 C22.16,115.67 21.75,115.29 21.34,114.91 L20.46,114.09 C18.2269425,111.960526 16.1483528,109.674746 14.24,107.25 C-3.73525809,84.4780118 -4.79188009,52.6561241 11.6331972,28.7418984 C28.0582744,4.82767278 58.1388782,-5.6081434 85.8453597,2.99559058 C113.551841,11.5993246 132.430058,37.2383946 132.420052,66.25 L132.420052,66.21 Z" id="Path" fill="#DD4B51"></path>
            <polygon id="Path" fill="#FBC27D" points="63.98 103.33 7.12 94.59 18.67 52.99 63.98 58.49"></polygon>
            <polygon id="Path" fill="#FBC27D" points="63.98 103.33 120.83 94.59 109.28 52.99 63.98 58.49"></polygon>
            <path d="M64,60.09 L64,101.79 L61.65,101.45 L9.56,94 L9.56,94 L9.56,94 L9.56,94 L9.56,94 L9.56,94 L9.56,94 L9.56,94 L9.56,94 L9.56,94 L9.56,94 L9.56,94 L9.56,94 L9.56,94 L9.56,94 L9.56,94 L9.56,94 L9.56,94 L9.56,94 L9.56,94 L9.56,94 L9.56,94 L9.56,94 L9.56,94 L9.56,94 L9.56,94 L9.56,94 L9.56,94 L9.56,94 L9.56,94 L9.56,94 L9.56,94 L9.56,94 L9.56,94 L9.56,94 L9.56,94 L9.56,94 L9.56,94 L9.56,94 L9.56,94 L9.56,94 L9.56,94 L9.56,94 L9.56,94 L9.56,94 L9.56,94 L9.56,94 L9.56,94 L9.56,94 L9.56,94 L9.56,94 L9.56,94 L9.56,94 L9.56,94 L9.56,94 L9.56,94 L9.56,94 L9.56,94 L9.56,94 L9.56,94 L9.56,94 L9.56,94 L9.56,94 L9.56,94 L9.56,94 L9.56,94 L9.56,94 L9.56,94 L9.56,94 L9.56,94 L9.56,94 L9.56,94 L9.56,94 L9.56,94 L9.56,94 L9.56,94 L9.56,94 L9.56,94 L9.56,94 L9.56,94 L9.56,94 L9.56,94 L9.56,94 L9.56,94 L9.56,94 L9.56,94 L9.56,94 L9.56,94 L9.56,94 L9.56,94 L9.56,94 L9.56,94 L9.56,94 L9.56,94 L9.56,94 L9.56,94 L9.56,94 L9.56,94 L9.56,94 L9.56,94 L9.56,94 L9.56,94 L9.56,94 L9.56,94 L9.56,94 L9.56,94 L9.56,94 L9.56,94 L9.56,94 L9.56,94 L9.56,94 L9.56,94 L9.56,94 L9.56,94 L9.56,94 L9.56,94 L9.56,94 L9.56,94 L9.56,94 L9.56,94 L9.56,94 L9.56,94 L9.56,94 L9.56,94 L9.56,94 L9.56,94 L9.56,94 L9.56,94 L9.56,94 L9.56,94 L9.56,94 L9.56,94 L9.56,94 L9.56,94 L9.56,94 L9.56,94 L9.56,94 L9.56,94 L9.56,94 L9.56,94 L9.56,94 L9.56,94 L9.56,94 L9.56,94 L9.56,94 L9.56,94 L9.56,94 L9.56,94 L9.56,94 L9.56,94 L9.56,94 L9.56,94 L9.56,94 L9.56,94 L9.56,94 L9.56,94 L9.56,94 L9.56,94 L9.56,94 L9.56,94 L9.56,94 L9.56,94 L9.56,94 L9.56,94 L9.56,94 L9.56,94 L9.56,94 L9.56,94 L9.56,94 L9.56,94 L9.56,94 L9.56,94 L9.56,94 L9.56,94 L9.56,94 L9.56,94 L9.56,94 L9.56,94 L9.56,94 L9.56,94 L9.56,94 L9.56,94 L20.56,57.07 C33.749529,55.708728 47.0779994,56.9488228 59.79,60.72 L62.72,61.6 L64,60.09 Z" id="Path" fill="#EFA555"></path>
            <path d="M118.39,92.17 L118.39,92.17 L118.39,92.17 L118.39,92.17 L118.39,92.17 L118.39,92.17 L118.39,92.17 L118.39,92.17 L118.39,92.17 L118.39,92.17 L118.39,92.17 L118.39,92.17 L118.39,92.17 L118.39,92.17 L118.39,92.17 L118.39,92.17 L118.39,92.17 L118.39,92.17 L118.39,92.17 L118.39,92.17 L118.39,92.17 L118.39,92.17 L118.39,92.17 L118.39,92.17 L118.39,92.17 L118.39,92.17 L118.39,92.17 L118.39,92.17 L118.39,92.17 L118.39,92.17 L118.39,92.17 L118.39,92.17 L118.39,92.17 L118.39,92.17 L118.39,92.17 L118.39,92.17 L118.39,92.17 L118.39,92.17 L118.39,92.17 L118.39,92.17 L118.39,92.17 L118.39,92.17 L118.39,92.17 L118.39,92.17 L118.39,92.17 L118.39,92.17 L118.39,92.17 L118.39,92.17 L118.39,92.17 L118.39,92.17 L118.39,92.17 L118.39,92.17 L118.39,92.17 L118.39,92.17 L118.39,92.17 L118.39,92.17 L118.39,92.17 L118.39,92.17 L118.39,92.17 L118.39,92.17 L118.39,92.17 L118.39,92.17 L118.39,92.17 L118.39,92.17 L118.39,92.17 L118.39,92.17 L118.39,92.17 L118.39,92.17 L118.39,92.17 L118.39,92.17 L118.39,92.17 L118.39,92.17 L118.39,92.17 L118.39,92.17 L118.39,92.17 L118.39,92.17 L118.39,92.17 L118.39,92.17 L118.39,92.17 L118.39,92.17 L118.39,92.17 L118.39,92.17 L118.39,92.17 L118.39,92.17 L118.39,92.17 L118.39,92.17 L118.39,92.17 L118.39,92.17 L118.39,92.17 L118.39,92.17 L118.39,92.17 L118.39,92.17 L118.39,92.17 L118.39,92.17 L118.39,92.17 L118.39,92.17 L118.39,92.17 L118.39,92.17 L118.39,92.17 L118.39,92.17 L118.39,92.17 L118.39,92.17 L118.39,92.17 L118.39,92.17 L118.39,92.17 L118.39,92.17 L118.39,92.17 L118.39,92.17 L118.39,92.17 L118.39,92.17 L118.39,92.17 L118.39,92.17 L118.39,92.17 L118.39,92.17 L118.39,92.17 L118.39,92.17 L118.39,92.17 L118.39,92.17 L118.39,92.17 L118.39,92.17 L118.39,92.17 L118.39,92.17 L118.39,92.17 L118.39,92.17 L118.39,92.17 L118.39,92.17 L118.39,92.17 L118.39,92.17 L118.39,92.17 L118.39,92.17 L118.39,92.17 L118.39,92.17 L118.39,92.17 L118.39,92.17 L118.39,92.17 L118.39,92.17 L118.39,92.17 L118.39,92.17 L118.39,92.17 L118.39,92.17 L118.39,92.17 L118.39,92.17 L118.39,92.17 L118.39,92.17 L118.39,92.17 L118.39,92.17 L118.39,92.17 L118.39,92.17 L118.39,92.17 L118.39,92.17 L118.39,92.17 L118.39,92.17 L118.39,92.17 L118.39,92.17 L118.39,92.17 L118.39,92.17 L118.39,92.17 L118.39,92.17 L118.39,92.17 L118.39,92.17 L118.39,92.17 L118.39,92.17 L118.39,92.17 L118.39,92.17 L118.39,92.17 L118.39,92.17 L118.39,92.17 L118.39,92.17 L118.39,92.17 L118.39,92.17 L118.39,92.17 L118.39,92.17 L118.39,92.17 L118.39,92.17 L118.39,92.17 L118.39,92.17 L118.39,92.17 L118.39,92.17 L118.39,92.17 L66.39,99.58 L66.39,99.58 L63.98,99.92 L63.98,60.09 L65.25,59.71 L68.12,58.85 C77.4927958,56.0613805 87.2211657,54.6499585 97,54.6599468 C100.457065,54.6590566 103.911803,54.8393038 107.35,55.2 L118.35,92.13 L118.35,92.13 L118.35,92.13 L118.39,92.17 Z" id="Path" fill="#EFA555"></path>
            <path d="M64,57 L64,98.7 L61.65,98.36 L9.56,91 L9.56,91 L9.56,91 L9.56,91 L9.56,91 L9.56,91 L9.56,91 L9.56,91 L9.56,91 L9.56,91 L9.56,91 L9.56,91 L9.56,91 L9.56,91 L9.56,91 L9.56,91 L9.56,91 L9.56,91 L9.56,91 L9.56,91 L9.56,91 L9.56,91 L9.56,91 L9.56,91 L9.56,91 L9.56,91 L9.56,91 L9.56,91 L9.56,91 L9.56,91 L9.56,91 L9.56,91 L9.56,91 L9.56,91 L9.56,91 L9.56,91 L9.56,91 L9.56,91 L9.56,91 L9.56,91 L9.56,91 L9.56,91 L9.56,91 L9.56,91 L9.56,91 L9.56,91 L9.56,91 L9.56,91 L9.56,91 L9.56,91 L9.56,91 L9.56,91 L9.56,91 L9.56,91 L9.56,91 L9.56,91 L9.56,91 L9.56,91 L9.56,91 L9.56,91 L9.56,91 L9.56,91 L9.56,91 L9.56,91 L9.56,91 L9.56,91 L9.56,91 L9.56,91 L9.56,91 L9.56,91 L9.56,91 L9.56,91 L9.56,91 L9.56,91 L9.56,91 L9.56,91 L9.56,91 L9.56,91 L9.56,91 L9.56,91 L9.56,91 L9.56,91 L9.56,91 L9.56,91 L9.56,91 L9.56,91 L9.56,91 L9.56,91 L9.56,91 L9.56,91 L9.56,91 L9.56,91 L9.56,91 L9.56,91 L9.56,91 L9.56,91 L9.56,91 L9.56,91 L9.56,91 L9.56,91 L9.56,91 L9.56,91 L9.56,91 L9.56,91 L9.56,91 L9.56,91 L9.56,91 L9.56,91 L9.56,91 L9.56,91 L9.56,91 L9.56,91 L9.56,91 L9.56,91 L9.56,91 L9.56,91 L9.56,91 L9.56,91 L9.56,91 L9.56,91 L9.56,91 L9.56,91 L9.56,91 L9.56,91 L9.56,91 L9.56,91 L9.56,91 L9.56,91 L9.56,91 L9.56,91 L9.56,91 L9.56,91 L9.56,91 L9.56,91 L9.56,91 L9.56,91 L9.56,91 L9.56,91 L9.56,91 L9.56,91 L9.56,91 L9.56,91 L9.56,91 L9.56,91 L9.56,91 L9.56,91 L9.56,91 L9.56,91 L9.56,91 L9.56,91 L9.56,91 L9.56,91 L9.56,91 L9.56,91 L9.56,91 L9.56,91 L9.56,91 L9.56,91 L9.56,91 L9.56,91 L9.56,91 L9.56,91 L9.56,91 L9.56,91 L9.56,91 L9.56,91 L9.56,91 L9.56,91 L9.56,91 L9.56,91 L9.56,91 L9.56,91 L9.56,91 L9.56,91 L9.56,91 L9.56,91 L9.56,91 L9.56,91 L9.56,91 L9.56,91 L9.56,91 L9.56,91 L20.56,54.07 C33.749529,52.708728 47.0779994,53.9488228 59.79,57.72 L62.72,58.6 L64,57 Z" id="Path" fill="#D8D9DA"></path>
            <path d="M118.39,89.09 L118.39,89.09 L118.39,89.09 L118.39,89.09 L118.39,89.09 L118.39,89.09 L118.39,89.09 L118.39,89.09 L118.39,89.09 L118.39,89.09 L118.39,89.09 L118.39,89.09 L118.39,89.09 L118.39,89.09 L118.39,89.09 L118.39,89.09 L118.39,89.09 L118.39,89.09 L118.39,89.09 L118.39,89.09 L118.39,89.09 L118.39,89.09 L118.39,89.09 L118.39,89.09 L118.39,89.09 L118.39,89.09 L118.39,89.09 L118.39,89.09 L118.39,89.09 L118.39,89.09 L118.39,89.09 L118.39,89.09 L118.39,89.09 L118.39,89.09 L118.39,89.09 L118.39,89.09 L118.39,89.09 L118.39,89.09 L118.39,89.09 L118.39,89.09 L118.39,89.09 L118.39,89.09 L118.39,89.09 L118.39,89.09 L118.39,89.09 L118.39,89.09 L118.39,89.09 L118.39,89.09 L118.39,89.09 L118.39,89.09 L118.39,89.09 L118.39,89.09 L118.39,89.09 L118.39,89.09 L118.39,89.09 L118.39,89.09 L118.39,89.09 L118.39,89.09 L118.39,89.09 L118.39,89.09 L118.39,89.09 L118.39,89.09 L118.39,89.09 L118.39,89.09 L118.39,89.09 L118.39,89.09 L118.39,89.09 L118.39,89.09 L118.39,89.09 L118.39,89.09 L118.39,89.09 L118.39,89.09 L118.39,89.09 L118.39,89.09 L118.39,89.09 L118.39,89.09 L118.39,89.09 L118.39,89.09 L118.39,89.09 L118.39,89.09 L118.39,89.09 L118.39,89.09 L118.39,89.09 L118.39,89.09 L118.39,89.09 L118.39,89.09 L118.39,89.09 L118.39,89.09 L118.39,89.09 L118.39,89.09 L118.39,89.09 L118.39,89.09 L118.39,89.09 L118.39,89.09 L118.39,89.09 L118.39,89.09 L118.39,89.09 L118.39,89.09 L118.39,89.09 L118.39,89.09 L118.39,89.09 L118.39,89.09 L118.39,89.09 L118.39,89.09 L118.39,89.09 L118.39,89.09 L118.39,89.09 L118.39,89.09 L118.39,89.09 L118.39,89.09 L118.39,89.09 L118.39,89.09 L118.39,89.09 L118.39,89.09 L118.39,89.09 L118.39,89.09 L118.39,89.09 L118.39,89.09 L118.39,89.09 L118.39,89.09 L118.39,89.09 L118.39,89.09 L118.39,89.09 L118.39,89.09 L118.39,89.09 L118.39,89.09 L118.39,89.09 L118.39,89.09 L118.39,89.09 L118.39,89.09 L118.39,89.09 L118.39,89.09 L118.39,89.09 L118.39,89.09 L118.39,89.09 L118.39,89.09 L118.39,89.09 L118.39,89.09 L118.39,89.09 L118.39,89.09 L118.39,89.09 L118.39,89.09 L118.39,89.09 L118.39,89.09 L118.39,89.09 L118.39,89.09 L118.39,89.09 L118.39,89.09 L118.39,89.09 L118.39,89.09 L118.39,89.09 L118.39,89.09 L118.39,89.09 L118.39,89.09 L118.39,89.09 L118.39,89.09 L118.39,89.09 L118.39,89.09 L118.39,89.09 L118.39,89.09 L118.39,89.09 L118.39,89.09 L118.39,89.09 L118.39,89.09 L118.39,89.09 L118.39,89.09 L118.39,89.09 L118.39,89.09 L118.39,89.09 L118.39,89.09 L118.39,89.09 L118.39,89.09 L118.39,89.09 L118.39,89.09 L118.39,89.09 L118.39,89.09 L118.39,89.09 L118.39,89.09 L118.39,89.09 L66.39,96.5 L66.39,96.5 L64,98.71 L64,57 L65.27,56.62 L68.14,55.76 C77.5068725,52.9766825 87.2283559,51.5686506 97,51.5799319 C100.457065,51.5790566 103.911803,51.7593038 107.35,52.12 L118.35,89.05 L118.35,89.05 L118.35,89.05 L118.39,89.09 Z" id="Path" fill="#D8D9DA"></path>
            <path d="M64,57 L64,98.7 L61.65,98.36 L9.56,91 L9.56,91 L9.56,91 L9.56,91 L9.56,91 L9.56,91 L9.56,91 L9.56,91 L9.56,91 L9.56,91 L9.56,91 L9.56,91 L9.56,91 L9.56,91 L9.56,91 L9.56,91 L9.56,91 L9.56,91 L9.56,91 L9.56,91 L9.56,91 L9.56,91 L9.56,91 L9.56,91 L9.56,91 L9.56,91 L9.56,91 L9.56,91 L9.56,91 L9.56,91 L9.56,91 L9.56,91 L9.56,91 L9.56,91 L9.56,91 L9.56,91 L9.56,91 L9.56,91 L9.56,91 L9.56,91 L9.56,91 L9.56,91 L9.56,91 L9.56,91 L9.56,91 L9.56,91 L9.56,91 L9.56,91 L9.56,91 L9.56,91 L9.56,91 L9.56,91 L9.56,91 L9.56,91 L9.56,91 L9.56,91 L9.56,91 L9.56,91 L9.56,91 L9.56,91 L9.56,91 L9.56,91 L9.56,91 L9.56,91 L9.56,91 L9.56,91 L9.56,91 L9.56,91 L9.56,91 L9.56,91 L9.56,91 L9.56,91 L9.56,91 L9.56,91 L9.56,91 L9.56,91 L9.56,91 L9.56,91 L9.56,91 L9.56,91 L9.56,91 L9.56,91 L9.56,91 L9.56,91 L9.56,91 L9.56,91 L9.56,91 L9.56,91 L9.56,91 L9.56,91 L9.56,91 L9.56,91 L9.56,91 L9.56,91 L9.56,91 L9.56,91 L9.56,91 L9.56,91 L9.56,91 L9.56,91 L9.56,91 L9.56,91 L9.56,91 L9.56,91 L9.56,91 L9.56,91 L9.56,91 L9.56,91 L9.56,91 L9.56,91 L9.56,91 L9.56,91 L9.56,91 L9.56,91 L9.56,91 L9.56,91 L9.56,91 L9.56,91 L9.56,91 L9.56,91 L9.56,91 L9.56,91 L9.56,91 L9.56,91 L9.56,91 L9.56,91 L9.56,91 L9.56,91 L9.56,91 L9.56,91 L9.56,91 L9.56,91 L9.56,91 L9.56,91 L9.56,91 L9.56,91 L9.56,91 L9.56,91 L9.56,91 L9.56,91 L9.56,91 L9.56,91 L9.56,91 L9.56,91 L9.56,91 L9.56,91 L9.56,91 L9.56,91 L9.56,91 L9.56,91 L9.56,91 L9.56,91 L9.56,91 L9.56,91 L9.56,91 L9.56,91 L9.56,91 L9.56,91 L9.56,91 L9.56,91 L9.56,91 L9.56,91 L9.56,91 L9.56,91 L9.56,91 L9.56,91 L9.56,91 L9.56,91 L9.56,91 L9.56,91 L9.56,91 L9.56,91 L9.56,91 L9.56,91 L9.56,91 L9.56,91 L9.56,91 L9.56,91 L9.56,91 L9.56,91 L9.56,91 L9.56,91 L20.56,54.07 C33.749529,52.708728 47.0779994,53.9488228 59.79,57.72 L62.72,58.6 L64,57 Z" id="Path" fill="#D8D9DA"></path>
            <path d="M64,57 L64,96.82 L61.71,96.16 L57,94.8 C41.5923291,90.3932333 25.5843369,88.4525638 9.57,89.0500092 L9.57,89.0500092 L20.57,52.1 C33.758759,50.7150091 47.0912157,51.9520762 59.8,55.74 L62.73,56.63 L64,57 Z" id="Path" fill="#FFFFFF"></path>
            <path d="M118.39,89.09 L118.39,89.09 L118.39,89.09 L118.39,89.09 L118.39,89.09 L118.39,89.09 L118.39,89.09 L118.39,89.09 L118.39,89.09 L118.39,89.09 L118.39,89.09 L118.39,89.09 L118.39,89.09 L118.39,89.09 L118.39,89.09 L118.39,89.09 L118.39,89.09 L118.39,89.09 L118.39,89.09 L118.39,89.09 L118.39,89.09 L118.39,89.09 L118.39,89.09 L118.39,89.09 L118.39,89.09 L118.39,89.09 L118.39,89.09 L118.39,89.09 L118.39,89.09 L118.39,89.09 L118.39,89.09 L118.39,89.09 L118.39,89.09 L118.39,89.09 L118.39,89.09 L118.39,89.09 L118.39,89.09 L118.39,89.09 L118.39,89.09 L118.39,89.09 L118.39,89.09 L118.39,89.09 L118.39,89.09 L118.39,89.09 L118.39,89.09 L118.39,89.09 L118.39,89.09 L118.39,89.09 L118.39,89.09 L118.39,89.09 L118.39,89.09 L118.39,89.09 L118.39,89.09 L118.39,89.09 L118.39,89.09 L118.39,89.09 L118.39,89.09 L118.39,89.09 L118.39,89.09 L118.39,89.09 L118.39,89.09 L118.39,89.09 L118.39,89.09 L118.39,89.09 L118.39,89.09 L118.39,89.09 L118.39,89.09 L118.39,89.09 L118.39,89.09 L118.39,89.09 L118.39,89.09 L118.39,89.09 L118.39,89.09 L118.39,89.09 L118.39,89.09 L118.39,89.09 L118.39,89.09 L118.39,89.09 L118.39,89.09 L118.39,89.09 L118.39,89.09 L118.39,89.09 L118.39,89.09 L118.39,89.09 L118.39,89.09 L118.39,89.09 L118.39,89.09 L118.39,89.09 L118.39,89.09 L118.39,89.09 L118.39,89.09 L118.39,89.09 L118.39,89.09 L118.39,89.09 L118.39,89.09 L118.39,89.09 L118.39,89.09 L118.39,89.09 L118.39,89.09 L118.39,89.09 L118.39,89.09 L118.39,89.09 L118.39,89.09 L118.39,89.09 L118.39,89.09 L118.39,89.09 L118.39,89.09 L118.39,89.09 L118.39,89.09 L118.39,89.09 L118.39,89.09 L118.39,89.09 L118.39,89.09 L118.39,89.09 L118.39,89.09 L118.39,89.09 L118.39,89.09 L118.39,89.09 L118.39,89.09 L118.39,89.09 L118.39,89.09 L118.39,89.09 L118.39,89.09 L118.39,89.09 L118.39,89.09 L118.39,89.09 L118.39,89.09 L118.39,89.09 L118.39,89.09 L118.39,89.09 L118.39,89.09 L118.39,89.09 L118.39,89.09 L118.39,89.09 L118.39,89.09 L118.39,89.09 L118.39,89.09 L118.39,89.09 L118.39,89.09 L118.39,89.09 L118.39,89.09 L118.39,89.09 L118.39,89.09 L118.39,89.09 L118.39,89.09 L118.39,89.09 L118.39,89.09 L118.39,89.09 L118.39,89.09 L118.39,89.09 L118.39,89.09 L118.39,89.09 L118.39,89.09 L118.39,89.09 L118.39,89.09 L118.39,89.09 L118.39,89.09 L118.39,89.09 L118.39,89.09 L118.39,89.09 L118.39,89.09 L118.39,89.09 L118.39,89.09 L118.39,89.09 L118.39,89.09 L118.39,89.09 L118.39,89.09 L118.39,89.09 L118.39,89.09 L118.39,89.09 L118.39,89.09 L118.39,89.09 L118.39,89.09 L118.39,89.09 L118.39,89.09 L118.39,89.09 L118.39,89.09 L118.39,89.09 L118.39,89.09 L66.39,96.5 L66.39,96.5 L64,98.71 L64,57 L65.27,56.62 L68.14,55.76 C77.5068725,52.9766825 87.2283559,51.5686506 97,51.5799319 C100.457065,51.5790566 103.911803,51.7593038 107.35,52.12 L118.35,89.05 L118.35,89.05 L118.35,89.05 L118.39,89.09 Z" id="Path" fill="#D8D9DA"></path>
            <path d="M118.39,89.05 L118.39,89.05 C102.389023,88.4573023 86.3949429,90.3979219 71,94.8 L66.36,96.14 L64,96.82 L64,57 L65.26,56.62 L68.14,55.75 C80.8453599,51.9620965 94.1745456,50.7250176 107.36,52.11 L118.39,89.05 Z" id="Path" fill="#FFFFFF"></path>
            <polygon id="Path" fill="#E9E9E9" points="66.33 96.14 63.98 96.82 61.69 96.16 62.77 56.65 62.77 56.63 63.98 56.99 65.25 56.61 65.25 56.63"></polygon>
            <polygon id="Path" fill="#FDD6A9" points="63.98 103.33 7.12 94.59 7.69 92.53 63.98 101.09"></polygon>
            <polygon id="Path" fill="#FDD6A9" points="63.98 103.33 120.83 94.59 120.26 92.53 63.98 101.09"></polygon>
            <path d="M68.33,60.13 L68,59.59 C71.8226224,57.9375257 75.7983983,56.6647416 79.87,55.79 C86.26,54.39 95.72,53.34 104.5,56.32 L104.25,56.89 C95.65,54 86.34,55 80.05,56.39 C76.0321398,57.2568266 72.1072885,58.5092962 68.33,60.13 L68.33,60.13 Z" id="Path" fill="#49494A"></path>
            <path d="M68.33,64.94 L68,64.4 C71.824635,62.7528957 75.7998784,61.4802819 79.87,60.6 C86.26,59.2 95.72,58.15 104.5,61.13 L104.25,61.71 C95.64,58.78 86.33,59.82 80.04,61.2 C76.0255448,62.0674458 72.1040706,63.3199063 68.33,64.94 Z" id="Path" fill="#49494A"></path>
            <path d="M92.77,64 C88.4343984,63.9594458 84.1087553,64.422548 79.88,65.38 C75.8046659,66.266529 71.8257471,67.5492949 68,69.21 L68.32,69.76 C72.0967215,68.1236638 76.0257804,66.8642213 80.05,66 C84.2246154,65.0652109 88.4921174,64.6089371 92.77,64.64 L92.77,64 Z" id="Path" fill="#49494A"></path>
            <path d="M99.25,59.1 L99.18,59.26 L99.18,59.26 L95.18,63 L93.66,64.43 C93.5122617,64.5643887 93.3276675,64.6514614 93.13,64.68 C92.9285905,64.722212 92.7190623,64.7012651 92.53,64.62 C92.1663487,64.4933045 91.9273137,64.1448806 91.94,63.76 L92.09,61.76 L92.5,56.63 L92.5,56.63 L92.58,56.48 L98.27,53.06 L99.25,59.1 Z" id="Path" fill="#FDDDC0"></path>
            <polygon id="Path" fill="#FCD57D" points="112.81 31.94 99.18 59.26 99.17 59.26 97.14 60.74 97 58.33 96.69 58.55 94.89 59.86 94.75 57.45 94.74 57.45 92.64 58.98 92.5 56.66 92.5 56.65 106.14 29.33"></polygon>
            <polygon id="Path" fill="#F9C350" points="110.44 31.01 96.69 58.55 94.89 59.86 94.75 57.45 94.74 57.45 108.35 30.19"></polygon>
            <path d="M95.18,63 L93.66,64.43 C93.5122617,64.5643887 93.3276675,64.6514614 93.13,64.68 C92.9285905,64.722212 92.7190623,64.7012651 92.53,64.62 C92.1663487,64.4933045 91.9273137,64.1448806 91.94,63.76 L92.09,61.76 C92.6648136,61.7634776 93.2341575,61.871924 93.77,62.08 C94.2948364,62.2930503 94.7735991,62.6054345 95.18,63 Z" id="Path" fill="#3E3E3F"></path>
            <path d="M112.25,33.06 L105.58,30.45 L107.23,27.15 C108.184481,25.4855383 110.221071,24.7810578 112,25.5 L112,25.5 C112.847877,25.7673765 113.538863,26.388083 113.895307,27.2025364 C114.25175,28.0169898 114.238878,28.9457378 113.86,29.75 L112.25,33.06 Z" id="Path" fill="#F09EAD"></path>
            <polygon id="Path" fill="#F8F7F8" points="112.25 33.06 105.58 30.45 106.89 27.83 113.56 30.44"></polygon>
            <path d="M112.75,30.84 L107,28.59 C106.955552,28.5768221 106.919005,28.5450132 106.899821,28.5028085 C106.880637,28.4606037 106.880703,28.412153 106.9,28.37 L106.9,28.37 C106.95173,28.2847291 107.058376,28.2506021 107.15,28.29 L112.91,30.54 C112.951875,30.5535357 112.986325,30.5837214 113.005246,30.6234544 C113.024166,30.6631874 113.025886,30.7089593 113.01,30.75 L113.01,30.75 C112.95779,30.8405022 112.846988,30.8788567 112.75,30.84 L112.75,30.84 Z" id="Path" fill="#CACCCE"></path>
            <path d="M112.66,31.43 L106.72,29.11 C106.677357,29.0946642 106.643217,29.0619646 106.626058,29.0200216 C106.6089,28.9780785 106.610332,28.9308266 106.63,28.89 L106.63,28.89 C106.678038,28.8062085 106.781295,28.7717895 106.87,28.81 L112.81,31.13 C112.85201,31.1430026 112.886198,31.1737851 112.903521,31.2142054 C112.920844,31.2546258 112.919557,31.3006118 112.9,31.34 L112.9,31.34 C112.85533,31.4275704 112.751236,31.4666053 112.66,31.43 L112.66,31.43 Z" id="Path" fill="#CACCCE"></path>
            <path d="M112.4,32 L106.46,29.69 C106.417357,29.6746642 106.383217,29.6419646 106.366058,29.6000216 C106.3489,29.5580785 106.350332,29.5108266 106.37,29.47 L106.37,29.47 C106.418038,29.3862085 106.521295,29.3517895 106.61,29.39 L112.55,31.7 C112.592643,31.7153358 112.626783,31.7480354 112.643942,31.7899784 C112.6611,31.8319215 112.659668,31.8791734 112.64,31.92 L112.64,31.92 C112.591962,32.0037915 112.488705,32.0382105 112.4,32 L112.4,32 Z" id="Path" fill="#CACCCE"></path>
            <path d="M112.13,32.48 L106.2,30.16 C106.155115,30.1476808 106.118493,30.1152234 106.100869,30.0721443 C106.083246,30.0290653 106.086619,29.9802459 106.11,29.94 L106.11,29.94 C106.158038,29.8562085 106.261295,29.8217895 106.35,29.86 L112.28,32.18 C112.323819,32.1906845 112.360504,32.220519 112.379895,32.2612404 C112.399286,32.3019617 112.399325,32.3492471 112.38,32.39 L112.38,32.39 C112.331515,32.4790193 112.2241,32.517689 112.13,32.48 L112.13,32.48 Z" id="Path" fill="#CACCCE"></path>
            <g id="Group" transform="translate(41.570824, 59.741775) rotate(7.446844) translate(-41.570824, -59.741775) translate(21.570824, 55.241775)" fill="#1D1D1B" font-family="Helvetica" font-size="6.18" font-weight="normal">
                <text id="Social-studies" transform="translate(19.785311, 4.277638) rotate(-2.000000) translate(-19.785311, -4.277638) ">
                    <tspan x="0.28531066" y="6.77763793">Social studies</tspan>
                </text>
            </g>
        </g>
    </g>
</svg>