<svg xmlns="http://www.w3.org/2000/svg" width="30" height="30" viewBox="0 0 30 30">
    <g fill="none" fill-rule="evenodd">
        <g>
            <g>
                <g>
                    <path fill="#B6C7E1" d="M0 21.25L3.636 14.444 6.364 13.313 8.182 9.909 11.818 9.909 13.636 13.313 16.364 14.447 20 21.25z" transform="translate(-41 -323) translate(41 323) translate(5 4.375)"/>
                    <path fill="#0C0058" d="M15 6.25L14.375 8.125 13.75 8.125 13.125 10 10.625 11.875 9.375 11.875 6.875 10 6.25 8.125 5.625 8.125 5 6.25 6.25 6.25 5.625 2.5 10 0 14.375 2.5 13.75 6.25z" transform="translate(-41 -323) translate(41 323) translate(5 4.375)"/>
                </g>
            </g>
        </g>
    </g>
</svg>
