<?xml version="1.0" encoding="UTF-8"?>
<svg width="133px" height="134px" viewBox="0 0 133 134" version="1.1" xmlns="http://www.w3.org/2000/svg" xmlns:xlink="http://www.w3.org/1999/xlink">
    <title>subjects/textiles</title>
    <g id="subjects/textiles" stroke="none" stroke-width="1" fill="none" fill-rule="evenodd">
        <g id="textiles" fill-rule="nonzero">
            <path d="M132.420052,67.21 C132.439949,83.1046801 126.723116,98.4726616 116.32,110.49 C112.28088,115.159162 107.612972,119.244844 102.45,122.63 C101.29,123.39 100.11,124.12 98.9,124.8 C91.1843743,129.201762 82.655484,131.991427 73.83,133 L73.72,133 L71.59,133.21 C70.2566667,133.323333 68.8866667,133.393333 67.48,133.42 L66.21,133.42 C64.03,133.42 61.87,133.31 59.74,133.11 C59.02,133.04 58.31,132.96 57.6,132.86 C48.0368803,131.6254 38.8629721,128.299986 30.73,123.12 C30.54,123 30.35,122.88 30.17,122.75 C28.65,121.77 27.18,120.73 25.76,119.63 C24.23,118.46 22.76,117.21 21.34,115.89 L20.46,115.07 C18.2269425,112.940526 16.1483528,110.654746 14.24,108.23 C-3.73525809,85.4580118 -4.79188009,53.6361241 11.6331972,29.7218984 C28.0582744,5.80767278 58.1388782,-4.6281434 85.8453597,3.97559058 C113.551841,12.5793246 132.430058,38.2183946 132.420052,67.23 L132.420052,67.21 Z" id="Path" fill="#5FA1B3"></path>
            <path d="M55.06,28.83 L55.06,28.83 C54.8501527,28.9455845 54.590426,28.9176139 54.41,28.76 C54.3556655,28.7087681 54.3115511,28.6476866 54.28,28.58 L50.28,20.76 C50.152851,20.5219146 50.2067417,20.2275883 50.41,20.05 C50.4473978,20.0122224 50.4914762,19.9817066 50.54,19.96 L50.73,19.85 C50.8348154,19.7965457 50.9532193,19.7756509 51.07,19.79 L51.07,19.79 C51.2675355,19.8194879 51.4387694,19.9423296 51.53,20.12 L55.32,28 C55.4355593,28.1869145 55.4355593,28.4230855 55.32,28.61 C55.2604874,28.7104411 55.1689061,28.787933 55.06,28.83 L55.06,28.83 Z M68.26,53.7 L70.26,57.82 L70.5,58.33 L71.5,60.48 C72.29,62.22 73.23,64.36 73.67,65.48 C73.86,65.96 73.95,66.27 73.89,66.29 L73.89,66.29 C73.83,66.29 73.58,65.97 73.22,65.4 L73.22,65.4 C72.6,64.52 71.76,63 71,61.66 C70.78,61.28 70.57,60.89 70.38,60.54 C69.82,59.54 69.38,58.7 69.25,58.48 C69.25,58.48 69.25,58.42 69.25,58.41 L66.94,53.98 L66.34,52.81 L53.88,29.07 L49.36,20.42 L49.36,20.37 C49.0680508,19.7456821 49.2972947,19.0017208 49.89,18.65 L49.96,18.65 L49.96,18.65 C50.2732646,18.4887875 50.6385466,18.4616247 50.9722099,18.5747309 C51.3058732,18.6878371 51.5793412,18.9315253 51.73,19.25 L67.47,52.06 L68.26,53.7 Z" id="Shape" fill="#C7C6C6"></path>
            <path d="M115.83,57.94 C114.127927,53.0345613 110.944717,48.7786336 106.72,45.76 L106.72,45.76 C104.078402,43.8734023 101.097059,42.5151596 97.94,41.76 C96.2289675,41.359326 94.4773183,41.1579871 92.72,41.1599851 C91.2472711,41.1634633 89.7779008,41.3006938 88.33,41.57 C86.0050467,41.9900536 83.7586938,42.7658212 81.67,43.87 L81.67,43.87 L81.57,43.87 C81.11,44.12 80.66,44.39 80.21,44.67 L58.54,57.27 L63.69,57.27 L63.54,57.39 C59.71,61 55.2,63.19 53.2,68.47 C51,74.38 51.66,82.61 55.43,88 L53.23,88.12 L30.12,101.61 L82.12,102.73 L103.25,90.42 C103.65,90.2 104.05,89.99 104.44,89.75 L104.44,89.75 L104.67,89.59 L105.21,89.27 L105.21,89.27 C115.424976,82.441913 119.794021,69.613477 115.87,57.97 L115.83,57.94 Z" id="Path" fill="#FEE3B9"></path>
            <path d="M94.53,70.32 C92.8279272,65.4145613 89.6447168,61.1586336 85.42,58.14 L85.42,58.14 C82.7812981,56.2374492 79.800068,54.8622805 76.64,54.09 C74.9289675,53.689326 73.1773183,53.4879871 71.42,53.4899851 C69.9439799,53.4939009 68.4713293,53.6311252 67.02,53.9 C63.2861491,54.5671735 59.7752532,56.1474202 56.8,58.5 C53.8460593,60.8672451 51.489441,63.8952257 49.92,67.34 C48.6750754,70.0583601 47.9946816,73.0010635 47.92,75.99 C47.8276379,78.9159028 48.2855744,81.8331278 49.27,84.59 C50.2043514,87.2458833 51.6252527,89.7044834 53.46,91.84 C55.3303669,94.0151703 57.6368464,95.773137 60.23,97 C64.20621,98.8834357 68.6781731,99.4542501 73,98.63 C79.2154404,97.4236041 84.4784354,93.3161076 87.1586148,87.5799304 C89.8387942,81.8437531 89.6125618,75.1714624 86.55,69.63 C84.151142,65.312095 80.0650371,62.185935 75.27,61 C73.9602547,60.6828538 72.6175947,60.5217346 71.27,60.52 C67.9697701,60.507017 64.7412029,61.4822045 62,63.32 C55.9133344,67.402494 53.3023846,75.0470931 55.62,82 C56.8652724,85.7524932 59.573446,88.8429123 63.13,90.57 C68.7088158,93.3964477 75.508129,91.8747765 79.35,86.94 C80.8876296,85.0166569 81.8109864,82.6751634 82,80.22 L82,80.22 C82.3329576,76.1339113 80.5708266,72.1578207 77.32,69.66 L77.32,69.66 C73.832609,67.0332992 69.027391,67.0332992 65.54,69.66 L65.54,69.66 C63.5363763,71.1932321 62.3195057,73.5390067 62.22,76.06 C62.0788897,78.6699385 63.096079,81.2092527 65,83 L65,83 C65.9469225,83.8651321 67.13779,84.4169123 68.41,84.58 C69.6910966,84.7578038 70.9950764,84.5082551 72.12,83.87 C74.2398219,82.6714296 75.3768484,80.269261 74.96,77.87 L74.96,77.81 C74.7615199,76.3219401 73.5724923,75.1618125 72.08,75 L72.08,75 C70.9944483,74.7664574 69.8606654,74.9946629 68.95,75.63 C68.3111679,76.1596191 67.9113416,76.9232514 67.84,77.75 C67.7721173,78.4265163 67.989588,79.1006755 68.44,79.61 C68.3298955,79.551547 68.2288449,79.4774433 68.14,79.39 C67.2799087,78.5794003 66.8223193,77.4299357 66.89,76.25 C66.9226283,75.1679618 67.440439,74.1580473 68.3,73.5 C70.1452196,72.091355 72.7047804,72.091355 74.55,73.5 C76.490614,75.0069963 77.5215079,77.4048631 77.28,79.85 C76.9705155,82.8939662 74.9519486,85.4948119 72.08,86.55 L72.08,86.55 C69.832742,87.3858861 67.3383994,87.2444917 65.2,86.16 C62.8042935,85.0047387 60.9762321,82.9314935 60.13,80.41 L60.13,80.41 C58.5232013,75.5237636 60.371927,70.1657311 64.65,67.31 L64.65,67.31 C67.4445277,65.3967278 70.9255128,64.774083 74.21,65.6 C77.714904,66.4991763 80.6864656,68.8184438 82.41,72 C85.4936272,77.4623069 84.7962618,84.2756464 80.67,89 C76.049505,94.242563 68.5035108,95.7672953 62.21,92.73 C58.1805189,90.7599032 55.1108703,87.2543069 53.69,83 C52.0961921,78.585517 52.2754104,73.7251173 54.19,69.44 L54.19,69.44 C56.6520022,63.7894408 61.7664417,59.7361351 67.83,58.63 L67.83,58.63 C73.0542275,57.6478297 78.451001,58.8990977 82.71,62.08 C89.71,67.08 92.71,75.61 90.6,84.29 L90.6,84.29 C89.3407329,90.042117 85.7426448,95.0098699 80.67,98 C74.07,101.84 64.87,101.3 64.88,101.31 L31.2,101.31 C29.8894628,101.326474 28.8388827,102.399406 28.8499126,103.71 L28.8499126,103.71 C28.8388827,105.020594 29.8894628,106.093526 31.2,106.11 L67.25,106.11 C67.3831324,106.120351 67.5168676,106.120351 67.65,106.11 C69.8482878,106.097559 72.0432468,105.937196 74.22,105.63 C77.3800472,105.005276 80.3995282,103.809006 83.13,102.1 L83.13,102.1 C93.8103307,95.4082122 98.5214949,82.2748089 94.53,70.32 Z" id="Path" fill="#CFB795"></path>
            <path d="M116.47,73.07 C114.913725,79.7058594 110.868625,85.4907099 105.17,89.23 L105.17,89.23 L104.63,89.55 L104.41,89.7 L104.41,89.7 C104.03,89.93 103.63,90.14 103.23,90.35 L82.11,102.73 L82.11,102.73 C80.57749,103.590227 78.9669689,104.30341 77.3,104.86 C76.97,104.96 76.64,105.08 76.3,105.17 C75.63,105.36 74.96,105.53 74.3,105.67 C72.1260268,105.969342 69.934474,106.123018 67.74,106.13 C67.6088169,106.160804 67.4747291,106.177565 67.34,106.18 L38.67,106.18 C44.9477325,105.286477 51.0994855,103.662119 57,101.34 C59.32,100.446667 61.6533333,99.4466667 64,98.34 C66.9439891,99.0902289 70.0176103,99.1790224 73,98.6 C77.3649739,97.7654257 81.3173133,95.4737035 84.21,92.1 C86.5819538,89.340047 88.1491082,85.9808707 88.74,82.39 C89.59,81.65 90.41,80.91 91.21,80.15 C92.8,78.66 94.33,77.15 95.75,75.54 C103.28,67.25 108.47,57.87 109.48,48.07 C112.348539,50.8066716 114.525091,54.1863253 115.83,57.93 C117.507866,62.8076588 117.730238,68.0681413 116.47,73.07 Z" id="Path" fill="#1E1E1C" opacity="0.1"></path>
            <path d="M86.92,49.45 L90.29,8.06 C90.3231928,7.70639894 90.2124954,7.35434031 89.9829167,7.08336223 C89.7533381,6.81238416 89.4242496,6.64535122 89.07,6.61979096 L89,6.61979096 C88.3080741,6.60770046 87.7278008,7.13961762 87.68,7.83 L87.68,7.83 L87.22,17.61 L85.73,49.28 L86.92,49.45 Z M88.23,8.63 C88.2343879,8.36110719 88.4261196,8.1318627 88.69,8.08 C88.7428637,8.06999014 88.7971363,8.06999014 88.85,8.08 L89.07,8.08 C89.1860441,8.08813321 89.2972216,8.12982476 89.39,8.2 L89.39,8.2 C89.5491439,8.32369704 89.6355443,8.51903706 89.62,8.72 L89,17.52 C88.9875465,17.739538 88.8520147,17.9331548 88.65,18.02 C88.5645874,18.0557035 88.4725337,18.0727505 88.38,18.07 L88.38,18.07 C88.1385341,18.0627826 87.9289132,17.9015358 87.86,17.67 C87.8488863,17.5970877 87.8488863,17.5229123 87.86,17.45 L88.23,8.63 Z" id="Shape" fill="#C7C6C6"></path>
            <polygon id="Path" fill="#9E9D9C" points="81.03 54.37 70.44 16.16 69.25 16.49 79.93 54.75"></polygon>
            <path d="M70.91,20.18 C69.9922098,20.4370042 69.0097577,20.3163458 68.1814317,19.8448949 C67.3531056,19.373444 66.747687,18.5903484 66.5,17.67 C65.9726635,15.7472832 67.085711,13.7571544 69,13.2 C69.9177136,12.9458037 70.8988864,13.0677084 71.7264937,13.5387502 C72.5541009,14.0097919 73.1599379,14.7911513 73.41,15.71 C73.9431346,17.6334186 72.8279221,19.6274185 70.91,20.18 L70.91,20.18 Z" id="Path" fill="#26759A"></path>
            <path d="M21.8,116.31 L46.64,106.18 L47,106 L56.47,102.14 L57.47,101.71 L57.83,101.57 L58.5,101.29 L60.69,100.37 L63.44,99.22 L63.9,100.65 L62.49,101.29 L61.35,101.81 L60.54,102.18 L60.54,102.18 C60.5888048,102.307126 60.6288976,102.437427 60.66,102.57 C60.66,102.69 60.74,102.84 60.8,103.05 C61.0329133,103.557991 61.0494454,104.138811 60.8458041,104.659228 C60.6421628,105.179644 60.2358251,105.594994 59.72,105.81 L59.09,106.09 L58.33,106.42 C51.75,109.23 33.33,116.48 23.03,117.35 L21.8,116.31 Z" id="Path" fill="#DADADA"></path>
            <path d="M71.15,83.06 C73.7321992,83.459702 75.9029924,85.210834 76.84,87.65 C77.8002642,90.0979317 77.393205,92.8712606 75.77,94.94 C74.1624716,96.9985338 71.5696615,98.0300291 68.9873598,97.6383317 C66.4050581,97.2466342 64.2347652,95.4926457 63.31,93.05 C62.351816,90.6018304 62.7587191,87.829565 64.38,85.76 C65.9847679,83.7051593 68.5715776,82.6734922 71.15,83.06 L71.15,83.06 Z M65.71,86.84 C64.4749502,88.4266067 64.1636223,90.5451549 64.89,92.42 C65.6018102,94.2870953 67.2639104,95.6262022 69.2397078,95.9244357 C71.2155052,96.2226693 73.1988076,95.4338119 74.43,93.86 C75.6707691,92.2758413 75.9825594,90.154146 75.25,88.28 C74.5432192,86.4080578 72.8803581,85.0639288 70.9018438,84.7652852 C68.9233294,84.4666415 66.9378178,85.2600726 65.71,86.84 L65.71,86.84 Z" id="Shape" fill="#E94F1D"></path>
            <path d="M60.44,99.84 L61.44,102.06 C61.5007065,102.197894 61.6153238,102.304847 61.757083,102.355881 C61.8988422,102.406914 62.0553304,102.397559 62.19,102.33 L73.34,97 L68.7,95.83 L60.7,99.08 C60.4192362,99.2188641 60.303127,99.5582602 60.44,99.84 Z" id="Path" fill="#E94F1D"></path>
            <path d="M64.74,106.84 L58.68,106.53 L58.68,106.53 L17.2,104.83 C25.31,100.31 53.42,101.49 59.41,101.83 C60.41,101.89 60.96,102.83 61.12,103.83 C61.1330275,104.22363 61.0926603,104.61721 61,105 L64.68,105.31 L64.74,106.84 Z" id="Path" fill="#C7C6C6"></path>
            <path d="M70.09,119.24 C67.8750878,117.83417 66.5685952,115.361994 66.6548984,112.74002 C66.7412017,110.118046 68.2074353,107.737136 70.51,106.48 C72.798565,105.240016 75.5781983,105.331778 77.78,106.72 C79.9895905,108.129536 81.2916736,110.600188 81.2054527,113.219662 C81.1192317,115.839137 79.6574982,118.218817 77.36,119.48 C75.071435,120.719984 72.2918017,120.628222 70.09,119.24 L70.09,119.24 Z M76.56,118 C78.3149158,117.033289 79.4307157,115.213514 79.496371,113.211029 C79.5620263,111.208543 78.567824,109.319588 76.88,108.24 C75.1952444,107.171021 73.0636832,107.098311 71.31,108.05 C69.550389,109.015423 68.4309089,110.837809 68.3652063,112.843789 C68.2995038,114.849769 69.2973341,116.741504 70.99,117.82 C72.6785176,118.879531 74.8065974,118.948302 76.56,118 Z" id="Shape" fill="#E94F1D"></path>
            <path d="M61.72,107.32 L61.93,104.89 C61.9401442,104.739452 62.0106125,104.599367 62.1254419,104.50148 C62.2402713,104.403593 62.3897439,104.356186 62.54,104.37 L74.82,105.64 L70.82,108.29 L62.25,107.94 C62.0968053,107.929848 61.9541838,107.858325 61.8544224,107.741623 C61.754661,107.624921 61.7061964,107.472909 61.72,107.32 Z" id="Path" fill="#E94F1D"></path>
            <path d="M57.72,104.05 L59.88,103.67 C59.683636,103.176909 59.16814,102.889349 58.6454156,102.98131 C58.1226912,103.073271 57.7362875,103.519498 57.72,104.05 L57.72,104.05 Z" id="Path" fill="#878787"></path>
            <path d="M57.79,104.5 C57.9720743,105.010586 58.4963074,105.314979 59.03,105.22 C59.5638143,105.124037 59.9541578,104.66234 59.96,104.12 L57.79,104.5 Z" id="Path" fill="#878787"></path>
            <path d="M76.82,118.67 L68.73,109.46 C68.5370012,109.257043 68.4379591,108.982451 68.4569677,108.703025 C68.4759763,108.423599 68.6112932,108.16495 68.83,107.99 L84,94.28 C84.1985955,94.0867948 84.4684495,93.9846456 84.7452027,93.9979146 C85.021956,94.0111836 85.2807994,94.1386813 85.46,94.35 L93.55,103.56 C93.9249036,103.998369 93.8804658,104.656048 93.45,105.04 L78.25,118.74 C78.05259,118.923515 77.7894581,119.019569 77.5202466,119.006391 C77.2510351,118.993213 76.9985426,118.871918 76.82,118.67 Z" id="Path" fill="#26759A"></path>
            <polygon id="Path" fill="#EED3AC" points="72.29 119.09 67.79 113.97 90.01 93.94 94.5 99.05"></polygon>
            <path d="M76.82,118.67 L68.73,109.46 C68.5370012,109.257043 68.4379591,108.982451 68.4569677,108.703025 C68.4759763,108.423599 68.6112932,108.16495 68.83,107.99 L84,94.28 C84.1985955,94.0867948 84.4684495,93.9846456 84.7452027,93.9979146 C85.021956,94.0111836 85.2807994,94.1386813 85.46,94.35 L93.55,103.56 C93.9249036,103.998369 93.8804658,104.656048 93.45,105.04 L78.25,118.74 C78.05259,118.923515 77.7894581,119.019569 77.5202466,119.006391 C77.2510351,118.993213 76.9985426,118.871918 76.82,118.67 Z" id="Path" fill="#26759A"></path>
            <g id="Group" opacity="0.1" transform="translate(68.000000, 94.000000)" fill="#FFFFFF">
                <path d="M0.83,14 C0.611293161,14.1749502 0.475976281,14.4335989 0.456967703,14.713025 C0.437959126,14.9924511 0.537001164,15.2670426 0.73,15.47 L2.83,17.87 L0.98,13.87 L0.83,14 Z" id="Path"></path>
                <path d="M1.69,13.21 L5.31,20.68 L8.82,24.68 C8.85146735,24.7215214 8.88847862,24.7585327 8.93,24.79 L2.87,12.16 L1.69,13.21 Z" id="Path"></path>
                <path d="M3.57,11.51 L10,24.9 C10.0879976,24.8597653 10.1690151,24.8057537 10.24,24.74 L11.24,23.88 L4.76,10.45 L3.57,11.51 Z" id="Path"></path>
                <polygon id="Path" points="5.46 9.81 11.93 23.25 13.11 22.18 6.64 8.75"></polygon>
                <polygon id="Path" points="7.34 8.11 13.82 21.55 15 20.48 8.52 7.05"></polygon>
                <polygon id="Path" points="9.23 6.42 15.7 19.85 16.88 18.78 10.41 5.35"></polygon>
                <polygon id="Path" points="11.11 4.72 17.59 18.15 18.77 17.08 12.29 3.65"></polygon>
                <polygon id="Path" points="13 3.02 19.47 16.45 20.65 15.38 14.18 1.95"></polygon>
                <polygon id="Path" points="16 0.28 14.86 1.28 21.34 14.71 22.52 13.64 16.06 0.26"></polygon>
                <path d="M17.48,0.35 C17.3473991,0.206797662 17.1778367,0.102983926 16.99,0.05 L23.24,13.05 L24.42,12 L20.32,3.61 L17.48,0.35 Z" id="Path"></path>
                <path d="M25.57,9.56 L22.8,6.41 L25.13,11.35 L25.47,11.04 C25.9004658,10.6560482 25.9449036,9.99836862 25.57,9.56 L25.57,9.56 Z" id="Path"></path>
            </g>
            <polygon id="Path" fill="#1E1E1C" opacity="0.1" points="74.06 117.49 69.57 112.37 70.54 111.5 75.03 116.61"></polygon>
            <path d="M72.89,110.53 C71.851487,109.34217 71.0168618,107.99055 70.42,106.53 L68.83,108 C68.6112932,108.17495 68.4759763,108.433599 68.4569677,108.713025 C68.4379591,108.992451 68.5370012,109.267043 68.73,109.47 L76.82,118.68 C76.9990147,118.888146 77.2557303,119.01354 77.5299487,119.026778 C77.804167,119.040016 78.0717676,118.939934 78.27,118.75 L82.1,115.3 C78.5400945,114.922419 75.2524302,113.219687 72.89,110.53 Z" id="Path" fill="#1E1E1C" opacity="0.1"></path>
            <path d="M69.55,100.07 C68.8830696,99.27987 68.3585929,98.3798003 68,97.41 C67.8046011,96.9072358 67.6670495,96.3838688 67.59,95.85 L68.49,95.7 C68.5598119,96.1684015 68.6805263,96.627787 68.85,97.07 C69.3684923,98.5857054 70.4398644,99.8499245 71.85,100.61 C72.3679416,100.818269 72.9522339,100.781521 73.44,100.51 C74.4627037,99.8755452 75.1596088,98.8283632 75.35,97.64 C75.48,97.24 75.62,96.82 75.79,96.39 C76.3276336,94.709735 77.7899766,93.4930657 79.54,93.27 C81.1675145,93.2794615 82.6217131,94.2886594 83.2,95.81 L82.38,96.24 C81.9357915,95.0606519 80.8198922,94.269234 79.56,94.24 C78.1813266,94.4639003 77.0472345,95.4470382 76.63,96.78 C76.47,97.17 76.34,97.57 76.22,97.95 C75.956954,99.3771018 75.0938573,100.622583 73.85,101.37 C73.1353821,101.767751 72.2797202,101.822837 71.52,101.52 C70.7510976,101.211364 70.0732229,100.712421 69.55,100.07 L69.55,100.07 Z" id="Path" fill="#26759A"></path>
        </g>
    </g>
</svg>