<svg xmlns="http://www.w3.org/2000/svg" width="13" height="13" viewBox="0 0 13 13">
    <g fill="none" fill-rule="evenodd">
        <g fill="#FFF">
            <g>
                <g>
                    <path d="M6.5 0C10.09 0 13 2.91 13 6.5S10.09 13 6.5 13 0 10.09 0 6.5 2.91 0 6.5 0zm0 9.1c-.359 0-.65.291-.65.65 0 .359.291.65.65.65.359 0 .65-.291.65-.65 0-.359-.291-.65-.65-.65zm0-6.5c-.359 0-.65.291-.65.65V7.8c0 .359.291.65.65.65.359 0 .65-.291.65-.65V3.25c0-.359-.291-.65-.65-.65z" transform="translate(-1007 -341) translate(973 306) translate(34 35)"/>
                </g>
            </g>
        </g>
    </g>
</svg>
