<svg xmlns="http://www.w3.org/2000/svg" width="46" height="49" viewBox="0 0 46 49">
    <g fill="none" fill-rule="evenodd">
        <g fill="#0C0058" fill-rule="nonzero">
            <g>
                <g>
                    <g>
                        <path d="M39.253 15.36H30.72c-.943 0-1.707.764-1.707 1.706 0 .943.764 1.707 1.707 1.707h8.533c.943 0 1.707.764 1.707 1.707v22.186c0 .943-.764 1.707-1.707 1.707H5.12c-.943 0-1.707-.764-1.707-1.707V20.48c0-.943.764-1.707 1.707-1.707h8.533c.943 0 1.707-.764 1.707-1.707 0-.942-.764-1.706-1.707-1.706H5.12C2.292 15.36 0 17.652 0 20.48v22.186c0 2.828 2.292 5.12 5.12 5.12h34.133c2.828 0 5.12-2.292 5.12-5.12V20.48c0-2.828-2.292-5.12-5.12-5.12z" transform="translate(-794 -352) translate(575 193) translate(36 134) translate(183.006 25.5)"/>
                        <path d="M31.927 9.033L23.393.5c-.666-.667-1.747-.667-2.413 0l-8.533 8.533c-.655.678-.636 1.758.042 2.413.661.639 1.71.639 2.371 0l5.62-5.62v28.307c0 .943.764 1.707 1.707 1.707.942 0 1.706-.764 1.706-1.707V5.826l5.62 5.62c.679.655 1.759.636 2.414-.042.638-.661.638-1.71 0-2.371z" transform="translate(-794 -352) translate(575 193) translate(36 134) translate(183.006 25.5)"/>
                    </g>
                </g>
            </g>
        </g>
    </g>
</svg>
